<?xml version="1.0" encoding="utf-8"?>
<!-- Generator: Adobe Illustrator 21.1.0, SVG Export Plug-In . SVG Version: 6.00 Build 0)  -->
<!DOCTYPE svg PUBLIC "-//W3C//DTD SVG 1.1//EN" "http://www.w3.org/Graphics/SVG/1.1/DTD/svg11.dtd">
<svg version="1.1" id="Layer_1" xmlns="http://www.w3.org/2000/svg" xmlns:xlink="http://www.w3.org/1999/xlink" x="0px" y="0px"
	 viewBox="0 0 80 80" style="enable-background:new 0 0 80 80;" xml:space="preserve">
<style type="text/css">
	.st0{fill:#010101;}
</style>
<g>
	<path class="st0" d="M76.3,27.8c-0.2-0.2-4.8-5.3-10.7-5.3c-3.9,0-7.3,2.3-9.2,3.8c-0.3-1.5-0.6-2.8-1.1-4c1-0.5,2-1.2,2.9-2
		c2.4-2.2,4.2-4.8,5.5-7.6c0.3-0.8,0-1.6-0.7-2c-0.8-0.3-1.6,0-2,0.7c-1.1,2.5-2.8,4.7-4.8,6.6c-0.6,0.6-1.3,1.1-2.1,1.5
		c-2.5-4.5-6.9-6.7-14.1-6.7c-6.9,0-11.2,2-13.8,6.1c-0.7-0.5-1.5-1.1-2.1-1.6c-2-1.8-3.6-4.2-4.8-6.8c-0.3-0.8-1.2-1.1-2-0.7
		c-0.8,0.3-1.1,1.2-0.7,2c1.4,3,3.3,5.7,5.5,7.8c0.8,0.8,1.8,1.5,2.8,2.2c-0.5,1.4-1,2.9-1.3,4.6c-1.9-1.6-5.2-3.8-9.2-3.8
		c-5.9,0-10.5,5.1-10.7,5.3l-0.9,1l0.9,1c0.2,0.2,4.8,5.3,10.7,5.3c3.5,0,6.5-1.8,8.4-3.2c-0.2,2.9-0.3,6.1-0.3,9.7
		c0,19.4,2.6,28.7,17.5,28.7S57.5,61,57.5,41.6c0-3.6-0.1-6.8-0.3-9.7c1.9,1.5,5,3.2,8.4,3.2c5.9,0,10.5-5.1,10.7-5.3l0.9-1
		L76.3,27.8z M14.4,32.1c-3.1,0-6-2-7.4-3.3c1.5-1.3,4.3-3.3,7.4-3.3c3.1,0,6,2,7.4,3.3C20.4,30.1,17.6,32.1,14.4,32.1z M40,67.3
		c-10.2,0-14.5-3.6-14.5-25.7c0-22.1,4.3-25.7,14.5-25.7s14.5,3.6,14.5,25.7C54.5,63.7,50.2,67.3,40,67.3z M65.6,32.1
		c-3.1,0-6-2-7.4-3.3c1.5-1.3,4.3-3.3,7.4-3.3c3.1,0,6,2,7.4,3.3C71.6,30.1,68.7,32.1,65.6,32.1z"/>
	<path class="st0" d="M40,45.7c-7.8,0-10.4,2.1-10.4,8.8s2.5,8.8,10.4,8.8s10.4-2.1,10.4-8.8S47.8,45.7,40,45.7z M40,61.7
		c-7,0-8.9-1.5-8.9-7.2s1.8-7.2,8.9-7.2s8.9,1.5,8.9,7.2S47,61.7,40,61.7z"/>
	<path class="st0" d="M35,52.6c-0.5,0.5-0.7,1.1-0.7,1.8c0,0.7,0.3,1.3,0.7,1.8c0.1,0.1,0.2,0.2,0.4,0.3c0.1,0.1,0.3,0.2,0.4,0.2
		c0.1,0.1,0.3,0.1,0.5,0.1c0.2,0,0.3,0,0.5,0c0.7,0,1.3-0.3,1.8-0.7c0.5-0.5,0.7-1.1,0.7-1.8c0-0.7-0.3-1.3-0.7-1.8
		C37.6,51.7,36,51.7,35,52.6z"/>
	<path class="st0" d="M41.4,52.6c-0.5,0.5-0.7,1.1-0.7,1.8c0,0.7,0.3,1.3,0.7,1.8c0.5,0.5,1.1,0.7,1.8,0.7c0.2,0,0.3,0,0.5,0
		c0.2,0,0.3-0.1,0.5-0.1c0.2-0.1,0.3-0.1,0.4-0.2c0.1-0.1,0.3-0.2,0.4-0.3c0.5-0.5,0.7-1.1,0.7-1.8c0-0.7-0.3-1.3-0.7-1.8
		C44,51.7,42.4,51.7,41.4,52.6z"/>
	<path class="st0" d="M33.6,38.3c0.4,0,0.8-0.2,1.1-0.4c0.3-0.3,0.4-0.7,0.4-1.1c0-0.1,0-0.2,0-0.3c0-0.1,0-0.2-0.1-0.3
		c0-0.1-0.1-0.2-0.1-0.3c-0.1-0.1-0.1-0.2-0.2-0.2c-0.6-0.6-1.6-0.6-2.1,0c-0.1,0.1-0.1,0.1-0.2,0.2c0,0.1-0.1,0.2-0.1,0.3
		c0,0.1-0.1,0.2-0.1,0.3c0,0.1,0,0.2,0,0.3c0,0.4,0.2,0.8,0.4,1.1C32.8,38.1,33.2,38.3,33.6,38.3z"/>
	<path class="st0" d="M46.4,38.3c0.4,0,0.8-0.2,1.1-0.4c0.3-0.3,0.4-0.7,0.4-1.1c0-0.1,0-0.2,0-0.3c0-0.1,0-0.2-0.1-0.3
		c0-0.1-0.1-0.2-0.1-0.3c-0.1-0.1-0.1-0.2-0.2-0.2c-0.6-0.6-1.6-0.6-2.1,0c-0.1,0.1-0.1,0.1-0.2,0.2C45.1,36,45,36.1,45,36.2
		c0,0.1-0.1,0.2-0.1,0.3c0,0.1,0,0.2,0,0.3c0,0.4,0.2,0.8,0.4,1.1C45.6,38.1,46,38.3,46.4,38.3z"/>
</g>
</svg>
