<?xml version="1.0" encoding="utf-8"?>
<!-- Generator: Adobe Illustrator 21.1.0, SVG Export Plug-In . SVG Version: 6.00 Build 0) -->
<!DOCTYPE svg PUBLIC "-//W3C//DTD SVG 1.1//EN" "http://www.w3.org/Graphics/SVG/1.1/DTD/svg11.dtd">
<svg version="1.1" id="Layer_1" xmlns="http://www.w3.org/2000/svg" xmlns:xlink="http://www.w3.org/1999/xlink" x="0px" y="0px" viewBox="0 0 80 80" style="enable-background:new 0 0 80 80;" xml:space="preserve">
	<style type="text/css">
		.st0{fill:#010101;}
	</style>
	<g>
		<path class="st0" d="M32.5,38.7c-0.3,0.3-0.4,0.7-0.4,1.1c0,0.1,0,0.2,0,0.3c0,0.1,0,0.2,0.1,0.3c0,0.1,0.1,0.2,0.1,0.3
		c0.1,0.1,0.1,0.2,0.2,0.2c0.3,0.3,0.7,0.4,1.1,0.4c0.1,0,0.2,0,0.3,0c0.1,0,0.2,0,0.3-0.1c0.1,0,0.2-0.1,0.3-0.1
		c0.1,0,0.2-0.1,0.2-0.2c0.1-0.1,0.1-0.2,0.2-0.2c0.1-0.1,0.1-0.2,0.1-0.3c0-0.1,0.1-0.2,0.1-0.3c0-0.1,0-0.2,0-0.3
		c0-0.4-0.2-0.8-0.4-1.1C34.1,38.1,33.1,38.1,32.5,38.7z" />
		<path class="st0" d="M45.3,38.7c-0.3,0.3-0.4,0.7-0.4,1.1c0,0.1,0,0.2,0,0.3c0,0.1,0.1,0.2,0.1,0.3c0,0.1,0.1,0.2,0.1,0.3
		c0.1,0.1,0.1,0.2,0.2,0.2c0.3,0.3,0.7,0.4,1.1,0.4s0.8-0.2,1.1-0.4c0.1-0.1,0.1-0.2,0.2-0.2c0-0.1,0.1-0.2,0.1-0.3
		c0-0.1,0.1-0.2,0.1-0.3c0-0.1,0-0.2,0-0.3c0-0.4-0.2-0.8-0.4-1.1C46.9,38.1,45.9,38.1,45.3,38.7z" />
		<path class="st0" d="M63.9,46.1c0-13.1-6.3-22.8-16.3-26c0.5-1.7,0.5-3.6-0.3-5.3c-1.2-3-3.9-4.8-7.1-4.9L40,10l-0.2,0
		c-3.2,0-5.9,1.9-7.1,4.9c-0.7,1.8-0.8,3.6-0.3,5.3c-10,3.2-16.3,12.8-16.3,26c0,8.7,7.3,18,18.7,20.2c1,1.8,2.9,2.9,5.1,3l0.2,0
		l0.2,0c2.1,0,4-1.1,5.1-3C56.6,64.1,63.9,54.8,63.9,46.1z M35.5,16c0.8-1.9,2.4-3,4.4-3l0.2,0l0.2,0c2,0,3.6,1.1,4.3,3
		c0.6,1.5,0.6,3.7-1.1,5.4L40,24.8l-3.5-3.5C34.8,19.6,34.9,17.5,35.5,16z M40.1,67.8l-0.1,0l-0.1,0c-1.8,0-3.4-1.1-4.1-2.8
		c-0.6-1.4-0.6-3.4,1-5l3.2-3.2l3.2,3.2c1.6,1.6,1.6,3.6,1,5C43.5,66.7,42,67.8,40.1,67.8z M40,54.7L39.7,55
		c-3.8-0.1-7.1-1.9-8.3-2.7c1-2,4.6-8.6,8.6-8.6s7.6,6.6,8.6,8.6c-1.2,0.8-4.5,2.6-8.3,2.7L40,54.7z M46.1,62.9
		c-0.1-1.5-0.7-2.9-1.8-4l-2.6-2.6c4.7-0.5,8.2-3.1,8.3-3.2l0.5-0.4l-0.2-0.5c-0.2-0.4-4.6-10-10.3-10s-10.1,9.6-10.3,10l-0.2,0.5
		l0.5,0.4c0.2,0.1,3.7,2.7,8.3,3.2l-2.6,2.6c-1.1,1.1-1.7,2.5-1.8,4c-7.8-2.2-14.8-8.5-14.8-16.8c0-11.9,5.8-20.6,14.8-23.2
		c0.2,0.2,0.3,0.4,0.5,0.6L40,29l5.6-5.6c0.2-0.2,0.4-0.4,0.5-0.6c9.1,2.6,14.8,11.3,14.8,23.2C60.9,54.4,53.9,60.7,46.1,62.9z" />
	</g>
</svg>
