<?xml version="1.0" encoding="utf-8"?>
<!-- Generator: Adobe Illustrator 21.1.0, SVG Export Plug-In . SVG Version: 6.00 Build 0) -->
<!DOCTYPE svg PUBLIC "-//W3C//DTD SVG 1.1//EN" "http://www.w3.org/Graphics/SVG/1.1/DTD/svg11.dtd">
<svg version="1.1" id="Layer_1" xmlns="http://www.w3.org/2000/svg" xmlns:xlink="http://www.w3.org/1999/xlink" x="0px" y="0px" viewBox="0 0 80 80" style="enable-background:new 0 0 80 80;" xml:space="preserve">
	<style type="text/css">
		.st0{fill:#010101;}
	</style>
	<g>
		<path class="st0" d="M67.2,33.7c-6.3,0-10.7,4.3-12.8,6.9c-1.7-2.3-5-6.4-9.8-9.7c1.6-3,1.2-6.8-1.3-9.3c-1.5-1.5-3.4-2.3-5.5-2.3
		s-4.1,0.8-5.5,2.3l-4.1,4.1c-9.3,0.4-16.8,8.1-16.8,17.5c0,9.6,7.9,17.5,17.5,17.5c13.5,0,22.5-10.5,25.6-14.9
		c2.1,2.6,6.5,6.9,12.8,6.9h1.5v-19H67.2z M57.5,43.2l8.2-2.1v4.1L57.5,43.2z M65.7,36.8v2.8l-8.2,2.1C59.2,39.8,62,37.3,65.7,36.8z
		 M34.3,23.7c0.9-0.9,2.1-1.4,3.4-1.4s2.5,0.5,3.4,1.4c1.5,1.5,1.8,3.7,0.9,5.6c-2.9-1.6-6.2-2.9-9.9-3.4L34.3,23.7z M14.3,43.2
		c0-7.9,6.4-14.4,14.3-14.5c0.9,2.2,2.6,7.5,2.6,14.5c0,7-1.7,12.3-2.6,14.5C20.7,57.6,14.3,51.1,14.3,43.2z M30.3,57.6
		c1-2.6,2.5-7.7,2.5-14.4c0-6.7-1.5-11.8-2.5-14.4c12.2,0.8,20.3,11.5,22.3,14.4C50.6,46.2,42.4,56.8,30.3,57.6z M57.5,44.7l8.2,2.1
		v2.8C62,49,59.2,46.6,57.5,44.7z" />
		<path class="st0" d="M23.5,42.1c-0.6-0.6-1.6-0.6-2.1,0c-0.3,0.3-0.4,0.7-0.4,1.1c0,0.4,0.2,0.8,0.4,1.1c0.1,0.1,0.3,0.2,0.5,0.3
		c0.2,0.1,0.4,0.1,0.6,0.1c0.4,0,0.8-0.2,1.1-0.4s0.4-0.7,0.4-1.1C23.9,42.8,23.7,42.4,23.5,42.1z" />
		<path class="st0" d="M41.6,37.9c-1.4,0-2.7,0.5-3.7,1.5l-3.7,3.7l3.7,3.7c1,1,2.4,1.5,3.7,1.5s2.7-0.5,3.7-1.5
		c2.1-2.1,2.1-5.4,0-7.5C44.3,38.5,43,37.9,41.6,37.9z M44.3,45.9c-1.5,1.5-3.9,1.5-5.3,0l-2.7-2.7l2.7-2.7c1.4-1.4,3.9-1.4,5.3,0
		C45.7,42,45.7,44.4,44.3,45.9z" />
	</g>
</svg>
