<?xml version="1.0" encoding="utf-8"?>
<!-- Generator: Adobe Illustrator 21.1.0, SVG Export Plug-In . SVG Version: 6.00 Build 0)  -->
<!DOCTYPE svg PUBLIC "-//W3C//DTD SVG 1.1//EN" "http://www.w3.org/Graphics/SVG/1.1/DTD/svg11.dtd">
<svg version="1.1" id="Layer_1" xmlns="http://www.w3.org/2000/svg" xmlns:xlink="http://www.w3.org/1999/xlink" x="0px" y="0px"
	 viewBox="0 0 80 80" style="enable-background:new 0 0 80 80;" xml:space="preserve">
<style type="text/css">
	.st0{fill:#010101;}
</style>
<g>
	<path class="st0" d="M77.2,23.7c-0.2-0.1-5.7-1.4-11,0.7c-3.2,1.3-5.5,3.5-6.9,5.1c-1.9-4.8-5.3-7.7-8.7-9.4
		c2.2-5.3,7.4-9.1,13.4-9.1c0.8,0,1.5-0.7,1.5-1.5S64.8,8.1,64,8.1c-7.3,0-13.6,4.5-16.2,10.9c-3.7-1.2-6.9-1.3-7.7-1.3
		c-0.8,0-4.1,0.1-7.9,1.4c-2.6-6.4-8.9-11-16.2-11c-0.8,0-1.5,0.7-1.5,1.5s0.7,1.5,1.5,1.5c6.1,0,11.3,3.8,13.5,9.1
		c-3.4,1.7-6.7,4.6-8.6,9.4c-1.4-1.7-3.7-4-7-5.3c-5.3-2.2-10.8-0.8-11-0.7L1.4,24l0.3,1.4c0.1,0.3,1.8,8.4,7.4,10.6
		c1.1,0.5,2.3,0.6,3.4,0.6c2.7,0,5.3-1,7.1-1.8c-0.1,1.1-0.2,2.3-0.2,3.6c0,9.2,6.4,33.5,20.7,33.5c14.3,0,20.7-24.3,20.7-33.5
		c0-1.2-0.1-2.4-0.2-3.5c1.8,0.8,4.3,1.7,6.9,1.7c1.2,0,2.3-0.2,3.4-0.6c5.6-2.3,7.3-10.3,7.4-10.6l0.3-1.4L77.2,23.7z M10.2,33.3
		c-2.9-1.2-4.5-4.9-5.2-7c1.8-0.2,4.8-0.3,7.6,0.9c2.9,1.2,5,3.4,6.1,4.7C16.6,33,13,34.4,10.2,33.3z M40.8,68.9v-4.5l3-3
		c0.3-0.3,0.3-0.8,0-1.1s-0.8-0.3-1.1,0l-2.7,2.7l-2.7-2.7c-0.3-0.3-0.8-0.3-1.1,0s-0.3,0.8,0,1.1l3,3v4.5
		c-11-0.9-16.9-21.8-16.9-30.5c0-8.5,3.8-12.9,7.9-15.2c0.1,0.8,0.2,1.6,0.2,2.4c0,0.8,0.7,1.5,1.5,1.5s1.5-0.7,1.5-1.5
		c0-1.3-0.1-2.5-0.4-3.7c3.1-1.1,5.9-1.2,7-1.2c1.1,0,3.8,0.1,6.8,1.1c-0.3,1.2-0.4,2.5-0.4,3.8c0,0.8,0.7,1.5,1.5,1.5
		s1.5-0.7,1.5-1.5c0-0.9,0.1-1.7,0.2-2.5c3.1,1.7,6.1,4.6,7.4,9.6L57,32.8l0.2,0.1c0.4,1.6,0.6,3.4,0.6,5.5
		C57.8,47.1,51.9,67.9,40.8,68.9z M69.8,33.3c-2.9,1.2-6.6-0.4-8.6-1.4c1.1-1.4,3.2-3.6,6.1-4.7c2.9-1.2,5.9-1.1,7.6-0.9
		C74.2,28.4,72.6,32.1,69.8,33.3z"/>
	<path class="st0" d="M36.6,44.2c0-0.1-0.1-0.2-0.1-0.3c-0.1-0.1-0.1-0.2-0.2-0.2c-0.6-0.6-1.6-0.6-2.1,0c-0.1,0.1-0.1,0.1-0.2,0.2
		c0,0.1-0.1,0.2-0.1,0.3c0,0.1-0.1,0.2-0.1,0.3c0,0.1,0,0.2,0,0.3c0,0.4,0.2,0.8,0.4,1.1c0.3,0.3,0.7,0.4,1.1,0.4
		c0.2,0,0.4,0,0.6-0.1c0.2-0.1,0.3-0.2,0.5-0.3c0.3-0.3,0.4-0.7,0.4-1.1c0-0.1,0-0.2,0-0.3C36.6,44.4,36.6,44.3,36.6,44.2z"/>
	<path class="st0" d="M46.2,44.2c0-0.1-0.1-0.2-0.1-0.3c-0.1-0.1-0.1-0.2-0.2-0.2c-0.3-0.4-0.9-0.5-1.3-0.4c-0.1,0-0.2,0-0.3,0.1
		c-0.1,0-0.2,0.1-0.3,0.1c-0.1,0.1-0.2,0.1-0.2,0.2c-0.1,0.1-0.1,0.1-0.2,0.2c0,0.1-0.1,0.2-0.1,0.3c0,0.1-0.1,0.2-0.1,0.3
		c0,0.1,0,0.2,0,0.3c0,0.4,0.2,0.8,0.4,1.1c0.3,0.3,0.7,0.4,1.1,0.4s0.8-0.2,1.1-0.4c0.1-0.1,0.2-0.3,0.3-0.5
		c0.1-0.2,0.1-0.4,0.1-0.6c0-0.1,0-0.2,0-0.3C46.2,44.4,46.2,44.3,46.2,44.2z"/>
</g>
</svg>
