<?xml version="1.0" encoding="utf-8"?>
<!-- Generator: Adobe Illustrator 21.1.0, SVG Export Plug-In . SVG Version: 6.00 Build 0)  -->
<!DOCTYPE svg PUBLIC "-//W3C//DTD SVG 1.1//EN" "http://www.w3.org/Graphics/SVG/1.1/DTD/svg11.dtd">
<svg version="1.1" id="Layer_1" xmlns="http://www.w3.org/2000/svg" xmlns:xlink="http://www.w3.org/1999/xlink" x="0px" y="0px"
	 viewBox="0 0 80 80" style="enable-background:new 0 0 80 80;" xml:space="preserve">
<style type="text/css">
	.st0{fill:#010101;}
</style>
<g>
	<path class="st0" d="M78.2,36.7c-0.1-0.2-3-5.1-8.3-7.3c-3.8-1.6-7.7-1.4-9.7-1.1C57.9,17,48.3,12.9,40,12.9
		c-8.3,0-17.9,4.1-20.2,15.4c-2-0.3-5.9-0.5-9.7,1.1c-5.3,2.2-8.2,7.1-8.3,7.3l-0.7,1.2l1.2,0.8c0.2,0.2,4.6,3,9.2,3
		c1.2,0,2.4-0.2,3.6-0.7c2-0.8,3.4-2.4,4.5-4c1.2,10.7,7.7,30.1,20.5,30.1S59.3,47.7,60.5,37c1.1,1.7,2.5,3.2,4.5,4
		c1.2,0.5,2.4,0.7,3.6,0.7c4.6,0,8.9-2.8,9.2-3l1.2-0.8L78.2,36.7z M13.9,38.2C11,39.5,7.2,38,5.3,37c1.1-1.4,3.1-3.6,6-4.8
		c2.8-1.2,5.9-1.1,7.6-0.9C18.3,33.3,16.7,37,13.9,38.2z M40,64.1c-11.5,0-17.7-21.6-17.7-30.5C22.3,16.8,37,15.9,40,15.9
		s17.7,0.9,17.7,17.7C57.7,42.5,51.5,64.1,40,64.1z M66.1,38.2c-2.9-1.2-4.4-4.9-5.1-7c1.8-0.2,4.8-0.3,7.6,0.9
		c2.9,1.2,4.9,3.4,6,4.8C72.5,38.1,68.9,39.4,66.1,38.2z"/>
	<path class="st0" d="M31.8,39.4c0-0.1-0.1-0.2-0.1-0.3c-0.1-0.1-0.1-0.2-0.2-0.2c-0.4-0.4-0.9-0.5-1.4-0.4c-0.1,0-0.2,0-0.3,0.1
		c-0.1,0-0.2,0.1-0.3,0.1c-0.1,0.1-0.2,0.1-0.2,0.2c-0.1,0.1-0.1,0.1-0.2,0.2c0,0.1-0.1,0.2-0.1,0.3c0,0.1-0.1,0.2-0.1,0.3
		c0,0.1,0,0.2,0,0.3c0,0.4,0.2,0.8,0.4,1.1c0.1,0.1,0.1,0.1,0.2,0.2c0.1,0,0.2,0.1,0.3,0.1c0.1,0,0.2,0.1,0.3,0.1c0.1,0,0.2,0,0.3,0
		c0.4,0,0.8-0.2,1.1-0.4c0.3-0.3,0.4-0.7,0.4-1.1c0-0.1,0-0.2,0-0.3C31.8,39.6,31.8,39.5,31.8,39.4z"/>
	<path class="st0" d="M51,39.4c0-0.1-0.1-0.2-0.1-0.3c-0.1-0.1-0.1-0.2-0.2-0.2c-0.4-0.4-0.9-0.5-1.4-0.4c-0.1,0-0.2,0-0.3,0.1
		c-0.1,0-0.2,0.1-0.2,0.1c-0.1,0.1-0.2,0.1-0.2,0.2c-0.1,0.1-0.1,0.1-0.2,0.2c0,0.1-0.1,0.2-0.1,0.3c0,0.1-0.1,0.2-0.1,0.3
		c0,0.1,0,0.2,0,0.3c0,0.1,0,0.2,0,0.3c0,0.1,0,0.2,0.1,0.3c0,0.1,0.1,0.2,0.1,0.3c0.1,0.1,0.1,0.2,0.2,0.2c0.3,0.3,0.7,0.4,1.1,0.4
		c0.4,0,0.8-0.2,1.1-0.4c0.1-0.1,0.1-0.2,0.2-0.2c0-0.1,0.1-0.2,0.1-0.3c0-0.1,0.1-0.2,0.1-0.3c0-0.1,0-0.2,0-0.3c0-0.1,0-0.2,0-0.3
		C51,39.6,51,39.5,51,39.4z"/>
	<path class="st0" d="M42.7,52.3L40,54.9l-2.7-2.7c-0.3-0.3-0.8-0.3-1.1,0s-0.3,0.8,0,1.1l3,3v2.9c0,0.4,0.3,0.8,0.8,0.8
		s0.8-0.3,0.8-0.8v-2.9l3-3c0.3-0.3,0.3-0.8,0-1.1S43,52,42.7,52.3z"/>
</g>
</svg>
