<?xml version="1.0" encoding="utf-8"?>
<!-- Generator: Adobe Illustrator 21.1.0, SVG Export Plug-In . SVG Version: 6.00 Build 0)  -->
<!DOCTYPE svg PUBLIC "-//W3C//DTD SVG 1.1//EN" "http://www.w3.org/Graphics/SVG/1.1/DTD/svg11.dtd">
<svg version="1.1" id="Layer_1" xmlns="http://www.w3.org/2000/svg" xmlns:xlink="http://www.w3.org/1999/xlink" x="0px" y="0px"
	 viewBox="0 0 80 80" style="enable-background:new 0 0 80 80;" xml:space="preserve">
<style type="text/css">
	.st0{fill:#010101;}
</style>
<g>
	<path class="st0" d="M64.5,11.1l-0.8-1.2l-1.2,0.7c-0.2,0.1-5,3.1-7.2,8.4c-1,2.4-1.2,4.9-1.2,6.9c-3.7-2.7-8.3-4.1-13.6-4.1
		c-5.7,0-10.6,1.7-14.5,4.8c0.1-2.1-0.1-4.9-1.2-7.6c-2.2-5.3-7-8.3-7.2-8.4l-1.2-0.7l-0.8,1.2c-0.2,0.3-4.7,7.1-2.5,12.7
		c1.7,4.1,6.4,6.1,8.9,6.9c-3.5,4.6-5.4,10.9-5.4,18.2c0,10,9.6,20.7,23.9,20.7c14.3,0,23.9-10.7,23.9-20.7c0-7.5-2-13.8-5.6-18.5
		c2.6-0.9,6.7-2.9,8.2-6.7C69.2,18.2,64.7,11.4,64.5,11.1z M15.9,22.6c-1.2-2.9,0.4-6.6,1.4-8.6c1.4,1.1,3.6,3.2,4.7,6.1
		c1.2,2.9,1.1,5.9,0.9,7.7C20.5,27,17,25.4,15.9,22.6z M40.5,66.6c-9.9,0-20.9-7.3-20.9-17.7c0-14.4,8.4-24.1,20.9-24.1
		c5.7,0,10.6,2,14.2,5.6l0.3,1l0.6-0.1c3.7,4.2,5.9,10.3,5.9,17.6C61.4,59.3,50.3,66.6,40.5,66.6z M64.1,22.6
		c-1.2,2.9-4.9,4.5-7,5.2C57,26,56.9,23,58,20.2c1.2-2.9,3.4-5,4.7-6.1C63.9,16.3,65.2,19.9,64.1,22.6z"/>
	<path class="st0" d="M31.1,44c0.1,0,0.2-0.1,0.3-0.1c0.1,0,0.2-0.1,0.3-0.1c0.1-0.1,0.2-0.1,0.2-0.2c0.3-0.3,0.4-0.7,0.4-1.1
		c0-0.4-0.2-0.8-0.4-1.1c-0.1-0.1-0.1-0.1-0.2-0.2c-0.1,0-0.2-0.1-0.3-0.1c-0.1,0-0.2-0.1-0.3-0.1c-0.5-0.1-1,0.1-1.4,0.4
		c-0.3,0.3-0.4,0.7-0.4,1.1c0,0.4,0.2,0.8,0.4,1.1s0.7,0.4,1.1,0.4C31,44,31.1,44,31.1,44z"/>
	<path class="st0" d="M50.9,41.2c-0.1,0-0.2-0.1-0.3-0.1c-0.1,0-0.2-0.1-0.3-0.1c-0.2,0-0.4,0-0.6,0c-0.1,0-0.2,0-0.3,0.1
		c-0.1,0-0.2,0.1-0.3,0.1c-0.1,0.1-0.2,0.1-0.2,0.2c-0.3,0.3-0.4,0.7-0.4,1.1c0,0.1,0,0.2,0,0.3c0,0.1,0,0.2,0.1,0.3
		c0,0.1,0.1,0.2,0.1,0.3c0.1,0.1,0.1,0.2,0.2,0.2c0.1,0.1,0.1,0.1,0.2,0.2c0.1,0.1,0.2,0.1,0.3,0.1c0.1,0,0.2,0.1,0.3,0.1
		c0.1,0,0.2,0,0.3,0c0.1,0,0.2,0,0.3,0c0.1,0,0.2-0.1,0.3-0.1c0.1,0,0.2-0.1,0.3-0.1c0.1-0.1,0.2-0.1,0.2-0.2
		c0.1-0.1,0.1-0.1,0.2-0.2c0-0.1,0.1-0.2,0.1-0.3c0-0.1,0.1-0.2,0.1-0.3c0-0.1,0-0.2,0-0.3c0-0.4-0.2-0.8-0.4-1.1
		C51,41.4,51,41.3,50.9,41.2z"/>
	<path class="st0" d="M36.2,51c-0.3,0.3-0.4,0.7-0.4,1.1c0,0.4,0.2,0.8,0.4,1.1c0.1,0.1,0.1,0.1,0.2,0.2c0.1,0,0.2,0.1,0.3,0.1
		c0.1,0,0.2,0.1,0.3,0.1c0.1,0,0.2,0,0.3,0s0.2,0,0.3,0c0.1,0,0.2-0.1,0.3-0.1c0.1,0,0.2-0.1,0.3-0.1c0.1-0.1,0.2-0.1,0.2-0.2
		c0.3-0.3,0.4-0.7,0.4-1.1c0-0.4-0.2-0.8-0.4-1.1C37.8,50.5,36.8,50.5,36.2,51z"/>
	<path class="st0" d="M44.5,50.8c-0.1,0-0.2-0.1-0.3-0.1c-0.1,0-0.2-0.1-0.3-0.1c-0.5-0.1-1,0.1-1.4,0.4c-0.3,0.3-0.4,0.7-0.4,1.1
		s0.2,0.8,0.4,1.1c0.3,0.3,0.7,0.4,1.1,0.4c0.1,0,0.2,0,0.3,0c0.1,0,0.2-0.1,0.3-0.1c0.1,0,0.2-0.1,0.3-0.1c0.1-0.1,0.2-0.1,0.2-0.2
		c0.3-0.3,0.4-0.7,0.4-1.1S45,51.3,44.7,51C44.6,51,44.6,50.9,44.5,50.8z"/>
	<path class="st0" d="M40.5,41.7c-5.7,0-10.4,4.6-10.4,10.3s4.6,10.4,10.4,10.4s10.3-4.6,10.3-10.4S46.2,41.7,40.5,41.7z M40.5,60.9
		c-4.9,0-8.9-4-8.9-8.9s4-8.8,8.9-8.8s8.8,4,8.8,8.8S45.3,60.9,40.5,60.9z"/>
</g>
</svg>
