<?xml version="1.0" encoding="utf-8"?>
<!-- Generator: Adobe Illustrator 21.1.0, SVG Export Plug-In . SVG Version: 6.00 Build 0)  -->
<!DOCTYPE svg PUBLIC "-//W3C//DTD SVG 1.1//EN" "http://www.w3.org/Graphics/SVG/1.1/DTD/svg11.dtd">
<svg version="1.1" id="Layer_1" xmlns="http://www.w3.org/2000/svg" xmlns:xlink="http://www.w3.org/1999/xlink" x="0px" y="0px"
	 viewBox="0 0 80 80" style="enable-background:new 0 0 80 80;" xml:space="preserve">
<style type="text/css">
	.st0{fill:#010101;}
</style>
<path class="st0" d="M72.8,23.7l-2.7-8c-0.2-0.5-0.6-0.9-1.1-1.1l-8.8-3.4c-0.8-0.3-1.7,0-2.2,0.7c-0.5,0.8-0.4,1.7,0.2,2.3l1.2,1.2
	c-3,0.7-5.7,1.8-8.5,2.9c-5.8,2.4-12.4,5.1-24.3,5.1c-10.4,0-18.9,8.5-18.9,18.9c0,10.4,8.5,18.9,18.9,18.9c3.1,0,6.3-0.6,9.3-1.6
	c3.1,6.1,9.5,10.3,16.8,10.3c10.4,0,18.9-8.5,18.9-18.9c0-5.4-1.6-9.1-4.7-11c-1.4-0.9-3.1-1.3-4.7-1.4c3.4-4.6,5.9-9.2,7.3-13.1
	l0.1,0.1c0.4,0.4,0.8,0.5,1.3,0.5c0.3,0,0.7-0.1,1-0.3C72.8,25.4,73.1,24.5,72.8,23.7z M26.6,58.1c-8.8,0-15.9-7.1-15.9-15.9
	c0-8.8,7.1-15.9,15.9-15.9c12.6,0,19.4-2.8,25.5-5.3c2.6-1.1,5-2,7.6-2.7l-1.5,4.6c-0.2,0.7-0.1,1.4,0.4,1.9
	c0.5,0.5,1.2,0.7,1.9,0.4l6.5-2.2c0.1,0,0.2,0,0.2,0c-1.2,4-4.1,9.3-8.3,14.6l-2.9-1c-0.1,0-0.3-0.1-0.3-0.3l-1.2-2.5
	c-0.3-0.7-1.1-1.1-1.8-1.1s-1.5,0.4-1.8,1.1l-1.2,2.5c-0.1,0.1-0.2,0.2-0.3,0.3L45,38.3c-0.2,0.1-0.4,0.2-0.5,0.3
	c-2-0.1-4.1,0.3-6,1.4c-3.1,1.9-4.7,5.6-4.7,11c0,2,0.3,4,0.9,5.8C32.1,57.6,29.4,58.1,26.6,58.1z M57.6,43.9l1,3.3
	c0.1,0.3-0.1,0.5-0.2,0.6c-0.1,0.1-0.3,0.2-0.6,0l-3.9-2.7c-0.3-0.2-0.8-0.4-1.2-0.4c-0.4,0-0.8,0.1-1.1,0.3l-4.3,2.7
	c-0.3,0.2-0.6,0-0.6,0c-0.1-0.1-0.3-0.3-0.2-0.6l1.2-3.1c0.4-1,0-2.1-1-2.6l-1.4-0.7c-0.3-0.1-0.3-0.4-0.3-0.5
	c0-0.1,0.1-0.4,0.4-0.5l4.4-1.5c0.5-0.2,0.9-0.5,1.2-1l1.2-2.5c0.1-0.3,0.4-0.3,0.5-0.3s0.4,0,0.5,0.3l1.2,2.5
	c0.2,0.5,0.7,0.9,1.2,1l4.4,1.5c0.3,0.1,0.4,0.4,0.4,0.5c0,0.1,0,0.4-0.3,0.5l-1.5,0.7C57.8,41.9,57.4,42.9,57.6,43.9z M68.7,50.9
	c0,8.8-7.1,15.9-15.9,15.9s-15.9-7.1-15.9-15.9c0-4.2,1.1-7.1,3.2-8.4c1.2-0.7,2.6-1,4-1c0,0,0,0,0,0c0.2,0.2,0.4,0.4,0.7,0.5
	l1.4,0.7c0.3,0.1,0.4,0.4,0.3,0.7l-1.2,3.1c-0.3,0.8-0.1,1.8,0.6,2.3c0.7,0.6,1.6,0.6,2.4,0.2l4.3-2.7c0.2-0.1,0.4-0.1,0.6,0L57,49
	c0.4,0.2,0.8,0.4,1.2,0.4c0.4,0,0.8-0.1,1.2-0.4c0.7-0.5,1-1.4,0.8-2.2l-1-3.3c-0.1-0.3,0-0.5,0.3-0.6l1.5-0.7
	c0.3-0.1,0.5-0.3,0.7-0.5c1.4,0,2.8,0.3,4,1C67.6,43.8,68.7,46.6,68.7,50.9z M71.3,24.5c-0.1,0.1-0.3,0.1-0.4,0l-2.4-2.4
	c-0.4-0.4-0.8-0.5-1.3-0.5c-0.2,0-0.4,0-0.6,0.1l-6.5,2.2c-0.2,0.1-0.3,0-0.4-0.1c0,0-0.1-0.2-0.1-0.4l2.2-6.5
	c0.2-0.7,0.1-1.4-0.4-1.9l-2-2c-0.2-0.2-0.1-0.3,0-0.4c0.1-0.1,0.2-0.2,0.4-0.1l8.8,3.4c0.1,0,0.2,0.1,0.2,0.2l2.7,8
	C71.5,24.4,71.3,24.5,71.3,24.5z"/>
</svg>
