<?xml version="1.0" encoding="utf-8"?>
<!-- Generator: Adobe Illustrator 21.1.0, SVG Export Plug-In . SVG Version: 6.00 Build 0) -->
<!DOCTYPE svg PUBLIC "-//W3C//DTD SVG 1.1//EN" "http://www.w3.org/Graphics/SVG/1.1/DTD/svg11.dtd">
<svg version="1.1" id="Layer_1" xmlns="http://www.w3.org/2000/svg" xmlns:xlink="http://www.w3.org/1999/xlink" x="0px" y="0px" viewBox="0 0 96 96" style="enable-background:new 0 0 96 96;" xml:space="preserve">
	<style type="text/css">
		.st0{display:none;fill:#FF0000;stroke:#000000;stroke-miterlimit:10;}
		.st1{fill:#282828;}
	</style>
	<rect x="-62" y="-58" class="st0" width="590" height="477" />
	<g>
		<path d="M50.3,32.6c3.6,0,6.5-2.9,6.5-6.5s-2.9-6.5-6.5-6.5s-6.5,2.9-6.5,6.5S46.7,32.6,50.3,32.6z M50.3,21.6c2.5,0,4.5,2,4.5,4.5
		s-2,4.5-4.5,4.5s-4.5-2-4.5-4.5S47.8,21.6,50.3,21.6z" />
		<path d="M67.8,58.1c-0.1-0.2-0.4-0.3-0.7-0.2L59,62.6c0.1-0.2,0.1-0.3,0.1-0.5l-0.7-12.7h0.4c2,0,3.6-1.6,3.6-3.6s-1.6-3.6-3.6-3.6
		h-0.8l-0.4-7c0-0.6-0.5-1-1.1-0.9c-0.6,0-1,0.5-0.9,1.1l0.4,6.9h-3.7l-2-6.8c-0.5-1.6-1.9-2.6-3.5-2.6c-1.6,0-3,1.1-3.5,2.6
		L43,36.7c-0.1-1.7-1.2-3.1-2.9-3.5h0c-2.1-0.5-4.1,0.8-4.6,2.8l-1.9,8.2c-0.2,1-0.1,2,0.5,2.9c0.5,0.9,1.4,1.5,2.4,1.7
		c0.3,0.1,0.6,0.1,0.9,0.1c0.7,0,1.4-0.2,2-0.6c0.1-0.1,0.3-0.2,0.4-0.3l-3.8,13l-5.3,8c-1.1,1.7-0.7,3.9,1,5.1
		c0.6,0.4,1.3,0.6,2,0.6c1.2,0,2.4-0.6,3-1.6l5.6-8.5c0.2-0.3,0.4-0.6,0.5-1l2.3-8l2.2,1.4l2.7,6.9c0.5,1.2,1.5,2.1,2.8,2.3l-5.3,3
		c-0.1,0-0.2,0.1-0.2,0.2l-2.7,5.5l-16.7,5.6c-0.3,0.1-0.4,0.4-0.3,0.6c0.1,0.2,0.3,0.3,0.5,0.3c0.1,0,0.1,0,0.2,0l16.9-5.6
		c0.1,0,0.2-0.1,0.3-0.3L48,70l19.6-11.2C67.8,58.7,67.9,58.4,67.8,58.1z M39,45.5c-0.1,0.5-0.4,0.9-0.8,1.1
		c-0.4,0.3-0.9,0.3-1.4,0.2c-0.5-0.1-0.9-0.4-1.1-0.8c-0.3-0.4-0.3-0.9-0.2-1.4l1.9-8.2c0.2-0.8,0.9-1.4,1.8-1.4c0.1,0,0.3,0,0.4,0
		c1,0.2,1.6,1.2,1.4,2.2L39,45.5z M54.8,63.3c-0.2,0.4-0.5,0.7-0.9,0.9c-0.8,0.3-1.8-0.1-2.1-0.9l-2.9-7.5l-5-3.1l-3.1,10.5
		c0,0.2-0.1,0.3-0.2,0.5L34.9,72c-0.5,0.7-1.5,0.9-2.3,0.5c-0.8-0.5-1-1.5-0.5-2.3l5.5-8.3l7.7-26.1c0.2-0.7,0.9-1.2,1.6-1.2
		c0.7,0,1.4,0.5,1.6,1.2l2.5,8.3h5.3l0.2,3.3h-6.7c-0.7,0-1.4-0.5-1.6-1.2L46.9,42l-2.1,7.3l6.2,3.9c0.3,0.2,0.5,0.5,0.7,0.8l3.1,8
		C54.9,62.4,54.9,62.9,54.8,63.3z M56.6,63.9c0.3-0.9,0.3-1.8,0-2.6l-3.1-8c-0.3-0.7-0.8-1.3-1.5-1.8l-4.9-3.1l0-0.1
		c0.7,0.7,1.6,1.1,2.6,1.1h6.8l0.7,12.8c0,0.5,0.4,0.9,0.9,0.9L56.6,63.9z M58.2,44.1h0.7c0.9,0,1.6,0.7,1.6,1.6
		c0,0.9-0.7,1.6-1.6,1.6h-0.5L58.2,44.1z" />
	</g>
</svg>
