<?xml version="1.0" encoding="utf-8"?>
<!-- Generator: Adobe Illustrator 21.1.0, SVG Export Plug-In . SVG Version: 6.00 Build 0)  -->
<!DOCTYPE svg PUBLIC "-//W3C//DTD SVG 1.1//EN" "http://www.w3.org/Graphics/SVG/1.1/DTD/svg11.dtd">
<svg version="1.1" id="Layer_1" xmlns="http://www.w3.org/2000/svg" xmlns:xlink="http://www.w3.org/1999/xlink" x="0px" y="0px"
	 viewBox="0 0 96 96" style="enable-background:new 0 0 96 96;" xml:space="preserve">
<style type="text/css">
	.st0{display:none;fill:#FF0000;stroke:#000000;stroke-miterlimit:10;}
	.st1{fill:#282828;}
</style>
<rect x="-190" y="-58" class="st0" width="590" height="477"/>
<g>
	<path d="M46.6,51.7c4,0,9.1-1.2,14.8-5.5l0.3-0.2l0.1-0.4c3.3-16.4-9.8-26.5-10-26.6l-1.6-1.2v2c0,12.3-12.5,28-12.6,28.2l-0.7,0.9
		l0.9,0.6C38.1,49.5,41.4,51.7,46.6,51.7z M52.1,21.9c3.1,3,10,11.2,7.8,22.9c-9.8,7.2-17.4,4.7-20,3.5C42.5,44.8,51,32.7,52.1,21.9
		z"/>
	<path d="M69.7,64.9c-0.3,0.3-4.9,4.8-12,3.9c5-5.6,6.5-11.2,6.6-11.4l0.2-0.9l-10.7-3.6l-23,3.4l0.3,1.1c0,0.1,0.4,1.5,1.5,3.6
		c-4.7,1.2-7.5,4-7.6,4l1.4,1.4c0.4-0.4,9.2-8.9,21.1,0.1c4.4,3.3,8.5,4.4,12,4.4c7,0,11.6-4.5,11.7-4.5L69.7,64.9z M55.4,68.3
		c-0.6-0.2-1.3-0.4-1.9-0.7c0.7-2.8,1.3-7,1.4-12.3l7.2,2.4C61.4,59.5,59.5,64,55.4,68.3z M34.6,60.5c-0.6-1-1-2-1.2-2.6l20.3-3
		l0.3,0.1c-0.1,5.3-0.7,9.4-1.3,12.2c-1.3-0.6-2.6-1.4-3.9-2.4C43.3,60.8,38.4,60,34.6,60.5z"/>
	<path d="M42.7,72.6c-5.1-3.8-9.6-3.6-12.4-2.8c-3.1,0.9-4.9,2.7-5,2.8l0.7,0.7c0,0,1.8-1.7,4.6-2.6c3.8-1.1,7.7-0.3,11.6,2.6
		c3.4,2.5,6.4,3.3,8.9,3.3c1.3,0,2.5-0.2,3.5-0.5l-0.3-1C50.4,76.4,46.5,75.5,42.7,72.6z"/>
</g>
</svg>
