<?xml version="1.0" encoding="utf-8"?>
<!-- Generator: Adobe Illustrator 21.1.0, SVG Export Plug-In . SVG Version: 6.00 Build 0) -->
<!DOCTYPE svg PUBLIC "-//W3C//DTD SVG 1.1//EN" "http://www.w3.org/Graphics/SVG/1.1/DTD/svg11.dtd">
<svg version="1.1" id="Layer_1" xmlns="http://www.w3.org/2000/svg" xmlns:xlink="http://www.w3.org/1999/xlink" x="0px" y="0px" viewBox="0 0 96 96" style="enable-background:new 0 0 96 96;" xml:space="preserve">
	<style type="text/css">
		.st0{display:none;fill:#FF0000;stroke:#000000;stroke-miterlimit:10;}
		.st1{fill:#282828;}
	</style>
	<rect x="-318" y="-58" class="st0" width="590" height="477" />
	<path d="M39.1,37.9H24.8c0.8,3.2,3.7,5.6,7.2,5.6C35.4,43.5,38.3,41.1,39.1,37.9z" />
	<g>
		<g>
			<path d="M30.7,46.5v10h2v-9.9c5.4-0.4,9.6-4.9,9.6-10.3c0-0.3,0-7.3-2.8-12.9l-0.3-0.6H24.3L24,23.2c-2.8,5.6-2.5,12.7-2.4,12.9
			C21.5,41.5,25.5,45.8,30.7,46.5z M25.5,24.7h12.4c2.3,5.1,2.4,11.4,2.4,11.5c0,4.6-3.8,8.4-8.4,8.4s-8.4-3.8-8.4-8.4
			C23.5,36,23.2,29.7,25.5,24.7z" />
			<path d="M30.1,61.5c-1.3,0.9-4,2.2-8,2.2v2h16.5C34.9,64.5,32.1,63,30.1,61.5z M31.7,62.8c0.3,0.3,0.8,0.6,1.4,0.9h-2.8
			C30.9,63.4,31.3,63.1,31.7,62.8z" />
		</g>
		<path d="M54.1,68.9c-23.4,0-29.4-11.6-29.7-12.1l-0.7-1.4h60.8l-0.7,1.4C83.5,57.4,77.5,68.9,54.1,68.9z M27.2,57.4
		c2.5,3,9.8,9.5,26.9,9.5c11.6,0,18.5-3,22.4-5.5c2.2-1.5,3.7-3,4.5-4H27.2z" />
	</g>
	<path d="M65.3,44.5c-3.2,0-6,1.7-7.6,4.2c-1.1-0.6-2.3-1-3.6-1c-4.1,0-7.4,3.3-7.4,7.4c0,0.4,0,0.9,0.1,1.3h2
	c-0.1-0.4-0.2-0.8-0.2-1.3c0-3,2.4-5.4,5.4-5.4c1,0,1.9,0.3,2.7,0.8c-0.3,1-0.5,2-0.5,3c0,1,0.2,2,0.5,2.9h2.1
	c-0.4-0.9-0.6-1.9-0.6-2.9c0-3.9,3.1-7,7-7s7,3.1,7,7c0,1-0.2,2-0.6,2.9h2.1c0.3-0.9,0.5-1.9,0.5-2.9C74.3,48.6,70.2,44.5,65.3,44.5
	z" />
</svg>
