<?xml version="1.0" encoding="utf-8"?>
<!-- Generator: Adobe Illustrator 17.0.0, SVG Export Plug-In . SVG Version: 6.00 Build 0)  -->
<!DOCTYPE svg PUBLIC "-//W3C//DTD SVG 1.1//EN" "http://www.w3.org/Graphics/SVG/1.1/DTD/svg11.dtd">
<svg version="1.1" id="Layer_1" xmlns="http://www.w3.org/2000/svg" xmlns:xlink="http://www.w3.org/1999/xlink" x="0px" y="0px"
	 width="2402.988px" height="553.601px" viewBox="0 0 2402.988 553.601" enable-background="new 0 0 2402.988 553.601"
	 xml:space="preserve">
<g>
	<polygon fill="#1B2955" points="154.153,129.152 134.985,100.4 115.817,129.152 114.153,128.042 134.985,96.794 155.817,128.042 	
		"/>
	<polygon fill="#1B2955" points="184.153,145.152 164.985,116.4 145.817,145.152 144.153,144.042 164.985,112.794 185.817,144.042 	
		"/>
	<rect x="808.985" y="137.004" fill="#1B2955" width="2" height="15"/>
	<path fill="#1B2955" d="M813.485,142.004h-2c0-2.481-0.971-4-1.5-4s-1.5,1.519-1.5,4h-2c0-3.42,1.505-6,3.5-6
		S813.485,138.584,813.485,142.004z"/>
	<path fill="#1B2955" d="M815.985,142.004h-2c0-2.206-1.794-4-4-4s-4,1.794-4,4h-2c0-3.309,2.691-6,6-6
		S815.985,138.696,815.985,142.004z"/>
	<g>
		<rect x="718.985" y="333.597" fill="#1B2955" width="2" height="15"/>
		<path fill="#1B2955" d="M723.485,338.597h-2c0-2.481-0.971-4-1.5-4s-1.5,1.519-1.5,4h-2c0-3.421,1.505-6,3.5-6
			S723.485,335.176,723.485,338.597z"/>
		<path fill="#1B2955" d="M725.985,338.597h-2c0-2.206-1.794-4-4-4s-4,1.794-4,4h-2c0-3.309,2.691-6,6-6
			S725.985,335.289,725.985,338.597z"/>
	</g>
	<g>
		<path fill="#1B2955" d="M697.398,357.901c-1.277-5.238-1.859-7.629-0.236-8.878c1.583-1.219,4.348-0.092,6.434,2.618l-1.585,1.221
			c-1.514-1.968-3.211-2.575-3.629-2.254c-0.591,0.455,0.093,3.264,0.96,6.818L697.398,357.901z"/>
		<path fill="#1B2955" d="M695.784,356.827h-2c0-3.55,1.073-6.03,3.378-7.804c1.27-0.979,2.844-1.401,4.434-1.196
			c1.589,0.207,3.003,1.021,3.98,2.291l-1.585,1.219c-0.652-0.847-1.594-1.389-2.654-1.526c-1.06-0.142-2.109,0.146-2.956,0.797
			C696.561,352.009,695.784,353.87,695.784,356.827z"/>
		<path fill="#1B2955" d="M701.772,364.816c0-0.097-0.064-9.65-4.707-14.294l1.414-1.414c5.233,5.232,5.293,15.282,5.293,15.707
			L701.772,364.816z"/>
	</g>
	<g>
		<path fill="#1B2955" d="M1152.397,282.9c-1.276-5.238-1.858-7.628-0.235-8.877c0.844-0.65,2.03-0.66,3.34-0.025
			c1.087,0.527,2.186,1.466,3.093,2.645l-1.585,1.22c-0.711-0.924-1.579-1.676-2.38-2.065c-0.634-0.307-1.084-0.317-1.249-0.189
			c-0.591,0.455,0.093,3.264,0.959,6.82L1152.397,282.9z"/>
		<path fill="#1B2955" d="M1150.784,281.827h-2c0-3.551,1.074-6.031,3.378-7.804c1.269-0.978,2.842-1.401,4.434-1.196
			c1.589,0.207,3.003,1.02,3.98,2.29l-1.585,1.22c-0.651-0.847-1.594-1.389-2.654-1.526c-1.056-0.14-2.109,0.146-2.955,0.797
			C1151.561,277.009,1150.784,278.869,1150.784,281.827z"/>
		<path fill="#1B2955" d="M1156.772,289.816c0-0.097-0.064-9.65-4.707-14.294l1.414-1.414c5.233,5.232,5.293,15.282,5.293,15.707
			L1156.772,289.816z"/>
	</g>
	<g>
		<rect x="1223.985" y="130.965" fill="#1B2955" width="2" height="15"/>
		<path fill="#1B2955" d="M1228.485,135.965h-2c0-2.481-0.971-4-1.5-4s-1.5,1.519-1.5,4h-2c0-3.42,1.505-6,3.5-6
			S1228.485,132.545,1228.485,135.965z"/>
		<path fill="#1B2955" d="M1230.985,135.965h-2c0-2.206-1.794-4-4-4s-4,1.794-4,4h-2c0-3.309,2.691-6,6-6
			S1230.985,132.656,1230.985,135.965z"/>
	</g>
	<g>
		<path fill="#1B2955" d="M1237.398,155.269c-1.276-5.239-1.858-7.63-0.235-8.878c0.845-0.652,2.031-0.658,3.339-0.025
			c1.088,0.527,2.187,1.466,3.094,2.645l-1.586,1.22c-0.71-0.924-1.578-1.676-2.379-2.064c-0.634-0.307-1.083-0.318-1.248-0.19
			c-0.592,0.455,0.093,3.264,0.959,6.82L1237.398,155.269z"/>
		<path fill="#1B2955" d="M1235.784,154.196h-2c0-3.551,1.073-6.031,3.379-7.805c1.269-0.978,2.84-1.403,4.434-1.195
			c1.589,0.207,3.003,1.02,3.98,2.29l-1.586,1.22c-0.651-0.847-1.594-1.389-2.653-1.527c-1.059-0.137-2.108,0.146-2.955,0.797
			C1236.561,149.378,1235.784,151.238,1235.784,154.196z"/>
		<path fill="#1B2955" d="M1241.772,162.183c0-0.096-0.063-9.65-4.707-14.293l1.414-1.414c5.232,5.232,5.293,15.282,5.293,15.707
			L1241.772,162.183z"/>
	</g>
	<path fill="#1B2955" d="M907.372,169.051l-1.943-0.473c0.866-3.557,1.549-6.366,0.958-6.82c-0.165-0.128-0.615-0.117-1.248,0.189
		c-0.802,0.389-1.669,1.141-2.38,2.065l-1.585-1.22c0.907-1.179,2.006-2.118,3.093-2.645c1.309-0.634,2.495-0.625,3.34,0.025
		C909.229,161.422,908.647,163.813,907.372,169.051z"/>
	<path fill="#1B2955" d="M910.985,167.978h-2c0-2.958-0.777-4.818-2.598-6.22c-0.846-0.652-1.896-0.932-2.956-0.797
		c-1.06,0.138-2.002,0.68-2.653,1.527l-1.585-1.22c0.977-1.27,2.391-2.083,3.98-2.29c1.593-0.206,3.165,0.218,4.435,1.195
		C909.911,161.947,910.985,164.427,910.985,167.978z"/>
	<path fill="#1B2955" d="M902.997,175.965h-2c0-0.425,0.06-10.475,5.293-15.707l1.414,1.414
		C903.051,166.325,902.997,175.869,902.997,175.965z"/>
	<g>
		<path fill="#1B2955" d="M2147.485,51.097c-3.309,0-6-2.131-6-4.75c0-7.909,5.18-11.885,5.4-12.05l0.6-0.45l0.6,0.45
			c0.221,0.165,5.4,4.141,5.4,12.05C2153.485,48.966,2150.794,51.097,2147.485,51.097z M2147.481,36.43
			c-1.252,1.215-3.996,4.497-3.996,9.917c0,1.491,1.832,2.75,4,2.75s4-1.259,4-2.75C2151.485,40.961,2148.727,37.65,2147.481,36.43z
			"/>
		<rect x="2146.485" y="50.097" fill="#1B2955" width="2" height="5"/>
	</g>
	<g>
		<path fill="#1B2955" d="M2170.485,32.097c-3.309,0-6-2.131-6-4.75c0-7.909,5.18-11.885,5.4-12.05l0.6-0.45l0.6,0.45
			c0.221,0.165,5.4,4.141,5.4,12.05C2176.485,29.966,2173.794,32.097,2170.485,32.097z M2170.481,17.43
			c-1.252,1.215-3.996,4.497-3.996,9.917c0,1.491,1.832,2.75,4,2.75s4-1.259,4-2.75C2174.485,21.961,2171.727,18.65,2170.481,17.43z
			"/>
		<rect x="2169.485" y="31.097" fill="#1B2955" width="2" height="5"/>
	</g>
	<g>
		<path fill="#1B2955" d="M462.985,229.597c-3.309,0-6-2.131-6-4.75c0-7.909,5.18-11.885,5.4-12.05l0.6-0.45l0.6,0.45
			c0.22,0.165,5.4,4.141,5.4,12.05C468.985,227.466,466.294,229.597,462.985,229.597z M462.982,214.93
			c-1.252,1.215-3.997,4.497-3.997,9.917c0,1.491,1.832,2.75,4,2.75s4-1.259,4-2.75C466.985,219.461,464.226,216.15,462.982,214.93z
			"/>
		<rect x="461.985" y="228.597" fill="#1B2955" width="2" height="5"/>
	</g>
	<g>
		<path fill="#1B2955" d="M2077.485,82.097c-3.309,0-6-2.131-6-4.75c0-7.909,5.18-11.885,5.4-12.05l0.6-0.45l0.6,0.45
			c0.221,0.165,5.4,4.141,5.4,12.05C2083.485,79.966,2080.794,82.097,2077.485,82.097z M2077.481,67.43
			c-1.252,1.215-3.996,4.497-3.996,9.917c0,1.491,1.832,2.75,4,2.75s4-1.259,4-2.75C2081.485,71.961,2078.727,68.65,2077.481,67.43z
			"/>
		<rect x="2076.485" y="81.097" fill="#1B2955" width="2" height="5"/>
	</g>
	<g>
		<path fill="#1B2955" d="M1314.985,129.597c-3.309,0-6-2.131-6-4.75c0-7.909,5.18-11.885,5.4-12.05l0.6-0.45l0.6,0.45
			c0.221,0.165,5.4,4.141,5.4,12.05C1320.985,127.466,1318.294,129.597,1314.985,129.597z M1314.981,114.93
			c-1.252,1.215-3.996,4.497-3.996,9.917c0,1.491,1.832,2.75,4,2.75s4-1.259,4-2.75
			C1318.985,119.461,1316.226,116.15,1314.981,114.93z"/>
		<rect x="1313.985" y="128.597" fill="#1B2955" width="2" height="5"/>
	</g>
	<g>
		<path fill="#1B2955" d="M1344.985,139.597c-3.309,0-6-2.131-6-4.75c0-7.909,5.18-11.885,5.4-12.05l0.6-0.45l0.6,0.45
			c0.221,0.165,5.4,4.141,5.4,12.05C1350.985,137.466,1348.294,139.597,1344.985,139.597z M1344.981,124.93
			c-1.252,1.215-3.996,4.497-3.996,9.917c0,1.491,1.832,2.75,4,2.75s4-1.259,4-2.75
			C1348.985,129.461,1346.226,126.15,1344.981,124.93z"/>
		<rect x="1343.985" y="138.597" fill="#1B2955" width="2" height="5"/>
	</g>
	<g>
		<path fill="#1B2955" d="M709.985,244.597c-3.309,0-6-2.131-6-4.75c0-7.909,5.18-11.885,5.4-12.05l0.6-0.45l0.6,0.45
			c0.22,0.165,5.4,4.141,5.4,12.05C715.985,242.466,713.294,244.597,709.985,244.597z M709.982,229.93
			c-1.252,1.215-3.997,4.497-3.997,9.917c0,1.491,1.832,2.75,4,2.75s4-1.259,4-2.75C713.985,234.461,711.226,231.15,709.982,229.93z
			"/>
		<rect x="708.985" y="243.597" fill="#1B2955" width="2" height="5"/>
	</g>
	<g>
		<path fill="#1B2955" d="M1344.985,219.597c-3.309,0-6-2.131-6-4.75c0-7.909,5.18-11.885,5.4-12.05l0.6-0.45l0.6,0.45
			c0.221,0.165,5.4,4.141,5.4,12.05C1350.985,217.466,1348.294,219.597,1344.985,219.597z M1344.981,204.93
			c-1.252,1.215-3.996,4.497-3.996,9.917c0,1.491,1.832,2.75,4,2.75s4-1.259,4-2.75
			C1348.985,209.461,1346.226,206.15,1344.981,204.93z"/>
		<rect x="1343.985" y="218.597" fill="#1B2955" width="2" height="5"/>
	</g>
	<g>
		<path fill="#1B2955" d="M1479.985,339.597c-3.309,0-6-2.131-6-4.75c0-7.909,5.18-11.885,5.4-12.05l0.6-0.45l0.6,0.45
			c0.221,0.165,5.4,4.141,5.4,12.05C1485.985,337.467,1483.294,339.597,1479.985,339.597z M1479.981,324.93
			c-1.252,1.215-3.996,4.496-3.996,9.917c0,1.49,1.832,2.75,4,2.75s4-1.26,4-2.75C1483.985,329.462,1481.226,326.15,1479.981,324.93
			z"/>
		<rect x="1478.985" y="338.597" fill="#1B2955" width="2" height="5"/>
	</g>
	<g>
		<path fill="#1B2955" d="M1539.985,289.597c-3.309,0-6-2.131-6-4.75c0-7.909,5.18-11.885,5.4-12.05l0.6-0.45l0.6,0.45
			c0.221,0.165,5.4,4.141,5.4,12.05C1545.985,287.467,1543.294,289.597,1539.985,289.597z M1539.985,274.926
			c-1.251,1.212-4,4.495-4,9.921c0,1.49,1.832,2.75,4,2.75s4-1.26,4-2.75C1543.985,279.423,1541.237,276.14,1539.985,274.926z"/>
		<rect x="1538.985" y="288.597" fill="#1B2955" width="2" height="5"/>
	</g>
	<g>
		<path fill="#1B2955" d="M1609.985,339.597c-3.309,0-6-2.131-6-4.75c0-7.909,5.18-11.885,5.4-12.05l0.6-0.45l0.6,0.45
			c0.221,0.165,5.4,4.141,5.4,12.05C1615.985,337.467,1613.294,339.597,1609.985,339.597z M1609.981,324.93
			c-1.252,1.215-3.996,4.496-3.996,9.917c0,1.49,1.832,2.75,4,2.75s4-1.26,4-2.75C1613.985,329.462,1611.226,326.15,1609.981,324.93
			z"/>
		<rect x="1608.985" y="338.597" fill="#1B2955" width="2" height="5"/>
	</g>
	<g>
		<path fill="#1B2955" d="M1870.099,201.683c-1.277-5.238-1.86-7.628-0.237-8.878c1.582-1.216,4.349-0.091,6.435,2.62l-1.586,1.22
			c-1.512-1.965-3.203-2.577-3.629-2.254c-0.591,0.455,0.094,3.264,0.961,6.819L1870.099,201.683z"/>
		<path fill="#1B2955" d="M1868.485,200.609h-2c0-3.551,1.073-6.031,3.377-7.805c1.271-0.977,2.846-1.405,4.435-1.195
			c1.59,0.207,3.003,1.02,3.98,2.29l-1.584,1.22c-0.652-0.847-1.595-1.389-2.654-1.527c-1.062-0.136-2.109,0.146-2.956,0.797
			C1869.262,195.791,1868.485,197.651,1868.485,200.609z"/>
		<path fill="#1B2955" d="M1874.473,208.597c0-0.096-0.063-9.65-4.707-14.293l1.414-1.414c5.232,5.232,5.293,15.282,5.293,15.707
			L1874.473,208.597z"/>
	</g>
	<path fill="#1B2955" d="M405.814,346.492c-1.917,0-3.833-0.729-5.293-2.188l-0.707-0.706l1.414-1.415l0.708,0.707
		c2.139,2.137,5.62,2.137,7.757,0c2.92-2.918,7.668-2.917,10.585,0c2.139,2.137,5.619,2.137,7.757,0l0.708-0.707l1.414,1.414
		l-0.707,0.707c-2.917,2.918-7.666,2.919-10.585,0c-2.139-2.139-5.619-2.139-7.757,0
		C409.647,345.763,407.73,346.492,405.814,346.492z"/>
	<path fill="#1B2955" d="M385.814,326.492c-1.917,0-3.833-0.729-5.293-2.188l-0.707-0.706l1.414-1.415l0.708,0.707
		c2.139,2.137,5.62,2.137,7.757,0c2.92-2.918,7.668-2.918,10.585,0c2.139,2.137,5.618,2.137,7.757,0l0.708-0.707l1.414,1.414
		l-0.707,0.707c-2.917,2.918-7.666,2.919-10.585,0c-2.139-2.139-5.619-2.139-7.757,0
		C389.647,325.763,387.73,326.492,385.814,326.492z"/>
	<path fill="#1B2955" d="M1222.057,413.395c-1.999,0-3.879-0.778-5.293-2.192l-0.707-0.707l1.414-1.414l0.707,0.707
		c1.036,1.036,2.414,1.606,3.879,1.606c1.466,0,2.843-0.57,3.878-1.606c2.92-2.919,7.67-2.917,10.586,0
		c2.139,2.139,5.618,2.139,7.757,0l0.707-0.707l1.414,1.414l-0.707,0.707c-2.918,2.918-7.667,2.918-10.585,0
		c-2.138-2.138-5.618-2.14-7.758,0C1225.936,412.617,1224.057,413.395,1222.057,413.395z"/>
	<path fill="#1B2955" d="M1202.057,393.395c-1.999,0-3.879-0.778-5.292-2.192l-0.707-0.707l1.414-1.414l0.707,0.707
		c1.036,1.036,2.414,1.606,3.878,1.606c1.466,0,2.843-0.57,3.878-1.606c2.919-2.918,7.669-2.917,10.586,0
		c2.139,2.139,5.618,2.139,7.757,0l0.707-0.707l1.414,1.414l-0.707,0.707c-2.918,2.918-7.667,2.918-10.585,0
		c-2.138-2.138-5.618-2.14-7.758,0C1205.936,392.617,1204.057,393.395,1202.057,393.395z"/>
	<path fill="#1B2955" d="M1142.058,413.395c-2,0-3.879-0.778-5.293-2.192l-0.707-0.707l1.414-1.414l0.707,0.707
		c1.036,1.036,2.414,1.606,3.879,1.606c1.465,0,2.842-0.57,3.878-1.606c2.92-2.918,7.668-2.917,10.585,0
		c2.139,2.139,5.619,2.139,7.757,0l0.707-0.707l1.414,1.414l-0.707,0.707c-2.917,2.918-7.666,2.919-10.585,0
		c-2.138-2.14-5.617-2.138-7.757,0C1145.937,412.617,1144.057,413.395,1142.058,413.395z"/>
	<path fill="#1B2955" d="M65.814,281.492c-1.917,0-3.833-0.729-5.293-2.188l-0.707-0.706l1.414-1.415l0.708,0.707
		c2.139,2.137,5.62,2.137,7.757,0c2.919-2.918,7.668-2.917,10.585,0c2.139,2.137,5.618,2.137,7.757,0l0.708-0.707l1.414,1.414
		l-0.707,0.707c-2.917,2.918-7.665,2.919-10.585,0c-2.139-2.139-5.619-2.139-7.757,0C69.647,280.763,67.73,281.492,65.814,281.492z"
		/>
	<path fill="#1B2955" d="M121.668,295.292c-1.917,0-3.833-0.729-5.293-2.188c-2.138-2.137-5.618-2.139-7.757,0
		c-2.918,2.919-7.667,2.918-10.585,0l-0.707-0.707l1.414-1.414l0.707,0.707c2.138,2.137,5.618,2.139,7.757,0
		c2.919-2.919,7.668-2.917,10.585,0c2.14,2.139,5.62,2.139,7.757,0l0.707-0.707l1.414,1.414l-0.707,0.707
		C125.501,294.562,123.584,295.292,121.668,295.292z"/>
	<path fill="#1B2955" d="M860.814,411.492c-1.917,0-3.833-0.729-5.293-2.188l-0.707-0.706l1.414-1.415l0.708,0.707
		c2.139,2.138,5.62,2.136,7.757,0c2.92-2.918,7.668-2.917,10.585,0c2.139,2.138,5.618,2.136,7.757,0l0.708-0.707l1.414,1.414
		l-0.707,0.707c-2.917,2.918-7.665,2.919-10.585,0c-2.139-2.139-5.619-2.139-7.757,0
		C864.647,410.763,862.73,411.492,860.814,411.492z"/>
	<path fill="#1B2955" d="M840.814,391.492c-1.917,0-3.833-0.729-5.293-2.188l-0.707-0.706l1.414-1.415l0.708,0.707
		c2.139,2.137,5.62,2.137,7.757,0c2.92-2.917,7.668-2.917,10.585,0c2.139,2.137,5.618,2.137,7.757,0l0.708-0.707l1.414,1.414
		l-0.707,0.707c-2.917,2.918-7.665,2.918-10.585,0c-2.139-2.139-5.619-2.139-7.757,0
		C844.647,390.763,842.73,391.492,840.814,391.492z"/>
	<path fill="#1B2955" d="M2205.814,251.492c-1.917,0-3.833-0.729-5.293-2.188l-0.707-0.707l1.414-1.415l0.707,0.707
		c2.139,2.138,5.618,2.138,7.757,0c2.918-2.917,7.667-2.917,10.585,0c2.139,2.138,5.618,2.138,7.757,0l0.707-0.707l1.414,1.414
		l-0.707,0.707c-2.918,2.918-7.667,2.918-10.585,0c-2.14-2.137-5.619-2.138-7.757,0
		C2209.647,250.763,2207.73,251.492,2205.814,251.492z"/>
	<path fill="#1B2955" d="M2185.814,231.492c-1.917,0-3.833-0.729-5.293-2.188l-0.707-0.707l1.414-1.415l0.707,0.707
		c2.139,2.138,5.618,2.138,7.757,0c2.918-2.917,7.667-2.917,10.585,0c2.139,2.138,5.618,2.138,7.757,0l0.707-0.707l1.414,1.414
		l-0.707,0.707c-2.918,2.918-7.667,2.918-10.585,0c-2.14-2.138-5.619-2.137-7.757,0
		C2189.647,230.763,2187.73,231.492,2185.814,231.492z"/>
	<path fill="#1B2955" d="M1597.057,464.597c-1.999,0-3.879-0.778-5.293-2.192l-0.707-0.707l1.414-1.414l0.707,0.707
		c1.036,1.036,2.414,1.606,3.879,1.606c1.466,0,2.843-0.57,3.878-1.606c2.919-2.918,7.669-2.917,10.586,0
		c2.139,2.139,5.618,2.139,7.757,0l0.707-0.707l1.414,1.414l-0.707,0.707c-2.918,2.918-7.667,2.918-10.585,0
		c-2.139-2.138-5.619-2.14-7.758,0C1600.936,463.819,1599.057,464.597,1597.057,464.597z"/>
	<path fill="#1B2955" d="M1577.057,444.597c-1.999,0-3.879-0.778-5.293-2.192l-0.707-0.707l1.414-1.414l0.707,0.707
		c1.036,1.036,2.414,1.606,3.879,1.606c1.466,0,2.843-0.57,3.878-1.606c2.919-2.919,7.669-2.917,10.586,0
		c2.139,2.139,5.618,2.139,7.757,0l0.707-0.707l1.414,1.414l-0.707,0.707c-2.918,2.918-7.667,2.918-10.585,0
		c-2.138-2.138-5.618-2.14-7.758,0C1580.936,443.819,1579.057,444.597,1577.057,444.597z"/>
	<path fill="#1B2955" d="M1557.057,464.597c-1.999,0-3.879-0.778-5.293-2.192l-0.707-0.707l1.414-1.414l0.707,0.707
		c1.036,1.036,2.414,1.606,3.879,1.606c1.466,0,2.843-0.57,3.878-1.606c2.919-2.918,7.669-2.917,10.586,0
		c2.139,2.139,5.618,2.139,7.757,0l0.707-0.707l1.414,1.414l-0.707,0.707c-2.918,2.918-7.667,2.918-10.585,0
		c-2.138-2.138-5.618-2.14-7.758,0C1560.936,463.819,1559.057,464.597,1557.057,464.597z"/>
	<path fill="#1B2955" d="M560.814,421.492c-1.917,0-3.833-0.729-5.293-2.188l-0.707-0.706l1.414-1.415l0.708,0.707
		c2.139,2.137,5.62,2.137,7.757,0c2.92-2.918,7.668-2.917,10.585,0c2.139,2.137,5.619,2.137,7.757,0l0.708-0.707l1.414,1.414
		l-0.707,0.707c-2.917,2.918-7.665,2.918-10.585,0c-2.139-2.139-5.619-2.139-7.757,0
		C564.647,420.763,562.73,421.492,560.814,421.492z"/>
	<path fill="#1B2955" d="M580.814,441.492c-1.917,0-3.833-0.729-5.293-2.188l-0.707-0.706l1.414-1.415l0.708,0.707
		c2.139,2.137,5.619,2.137,7.757,0c2.92-2.918,7.668-2.918,10.585,0c2.139,2.137,5.619,2.137,7.757,0l0.708-0.707l1.414,1.414
		l-0.707,0.707c-2.917,2.918-7.665,2.919-10.585,0c-2.139-2.139-5.619-2.139-7.757,0
		C584.647,440.763,582.73,441.492,580.814,441.492z"/>
	<path fill="#1B2955" d="M600.814,461.492c-1.917,0-3.833-0.729-5.293-2.188l-0.707-0.706l1.414-1.415l0.708,0.707
		c2.139,2.138,5.619,2.136,7.757,0c2.92-2.918,7.668-2.917,10.585,0c2.139,2.138,5.619,2.136,7.757,0l0.708-0.707l1.414,1.414
		l-0.707,0.707c-2.917,2.918-7.666,2.919-10.585,0c-2.139-2.139-5.619-2.139-7.757,0
		C604.647,460.763,602.73,461.492,600.814,461.492z"/>
	<path fill="#1B2955" d="M1392.912,513.391c-1.917,0-3.833-0.729-5.292-2.189c-2.139-2.139-5.618-2.139-7.757,0
		c-2.918,2.918-7.667,2.918-10.585,0l-0.707-0.707l1.414-1.414l0.707,0.707c2.14,2.14,5.619,2.138,7.757,0
		c2.918-2.918,7.667-2.918,10.585,0c2.139,2.138,5.618,2.138,7.757,0l0.707-0.707l1.414,1.414l-0.707,0.707
		C1396.746,512.662,1394.829,513.391,1392.912,513.391z"/>
	<path fill="#1B2955" d="M1850.814,316.493c-1.917,0-3.833-0.729-5.292-2.188l-0.707-0.707l1.414-1.414l0.707,0.707
		c2.137,2.137,5.618,2.137,7.757,0c1.413-1.414,3.292-2.192,5.292-2.192c1.999,0,3.879,0.778,5.293,2.192
		c2.14,2.137,5.619,2.137,7.757,0l0.708-0.707l1.413,1.415l-0.707,0.706c-2.918,2.916-7.667,2.918-10.585,0
		c-1.036-1.036-2.414-1.606-3.879-1.606c-1.466,0-2.843,0.57-3.878,1.606C1854.647,315.763,1852.73,316.493,1850.814,316.493z"/>
	<path fill="#1B2955" d="M1910.814,336.493c-1.917,0-3.833-0.729-5.292-2.188l-0.707-0.707l1.414-1.414l0.707,0.707
		c2.137,2.137,5.618,2.137,7.757,0c1.413-1.414,3.292-2.192,5.292-2.192c1.999,0,3.879,0.778,5.293,2.192
		c2.14,2.138,5.619,2.136,7.757,0l0.708-0.707l1.413,1.415l-0.707,0.706c-2.918,2.916-7.667,2.918-10.585,0
		c-1.036-1.036-2.414-1.606-3.879-1.606c-1.466,0-2.843,0.57-3.878,1.606C1914.647,335.763,1912.73,336.493,1910.814,336.493z"/>
	<path fill="#1B2955" d="M1890.814,356.493c-1.917,0-3.833-0.729-5.292-2.188l-0.707-0.707l1.414-1.414l0.707,0.707
		c2.137,2.137,5.618,2.137,7.757,0c1.413-1.414,3.292-2.192,5.292-2.192c1.999,0,3.879,0.778,5.293,2.192
		c2.14,2.138,5.619,2.136,7.757,0l0.708-0.707l1.413,1.415l-0.707,0.706c-2.918,2.916-7.667,2.918-10.585,0
		c-1.036-1.036-2.414-1.606-3.879-1.606c-1.466,0-2.843,0.57-3.878,1.606C1894.647,355.763,1892.73,356.493,1890.814,356.493z"/>
	<path fill="#1B2955" d="M1870.814,376.493c-1.917,0-3.833-0.729-5.292-2.188l-0.707-0.707l1.414-1.414l0.707,0.707
		c2.137,2.137,5.618,2.137,7.757,0c1.413-1.414,3.292-2.192,5.292-2.192c1.999,0,3.879,0.778,5.293,2.192
		c2.14,2.138,5.619,2.136,7.757,0l0.708-0.707l1.413,1.415l-0.707,0.706c-2.918,2.916-7.667,2.918-10.585,0
		c-1.036-1.036-2.414-1.606-3.879-1.606c-1.466,0-2.843,0.57-3.878,1.606C1874.647,375.763,1872.73,376.493,1870.814,376.493z"/>
	<path fill="#1B2955" d="M1770.985,429.597h-6c-3.309,0-6-2.691-6-6v-6h6c3.309,0,6,2.691,6,6V429.597z M1760.985,419.597v4
		c0,2.206,1.794,4,4,4h4v-4c0-2.206-1.794-4-4-4H1760.985z"/>
	<path fill="#1B2955" d="M1774.985,429.597h-6v-6c0-3.309,2.691-6,6-6h6v6C1780.985,426.906,1778.294,429.597,1774.985,429.597z
		 M1770.985,427.597h4c2.206,0,4-1.794,4-4v-4h-4c-2.206,0-4,1.794-4,4V427.597z"/>
	<rect x="1768.985" y="428.597" fill="#1B2955" width="2" height="5"/>
	<path fill="#1B2955" d="M1810.985,403.597h-2c0-2.206-1.794-4-4-4s-4,1.794-4,4h-2c0-2.206-1.794-4-4-4s-4,1.794-4,4h-2
		c0-3.309,2.691-6,6-6c2.085,0,3.924,1.068,5,2.687c1.076-1.618,2.915-2.687,5-2.687
		C1808.294,397.597,1810.985,400.289,1810.985,403.597z"/>
	<rect x="1798.985" y="408.597" fill="#1B2955" width="2" height="5"/>
	<rect x="1798.985" y="418.597" fill="#1B2955" width="2" height="5"/>
	<path fill="#1B2955" d="M1815.985,449.597h-41c-3.309,0-6-2.691-6-6v-11h15.083c0.478-2.834,2.949-5,5.917-5h20
		c3.309,0,6,2.691,6,6V449.597z M1770.985,434.597v9c0,2.206,1.794,4,4,4h39v-14c0-2.206-1.794-4-4-4h-20c-2.206,0-4,1.794-4,4v1
		H1770.985z"/>
	<polygon fill="#1B2955" points="1509.153,158.152 1489.985,129.4 1470.817,158.152 1469.153,157.042 1489.985,125.794 
		1510.817,157.042 	"/>
	<polygon fill="#1B2955" points="1539.153,174.152 1519.985,145.4 1500.817,174.152 1499.153,173.042 1519.985,141.794 
		1540.817,173.042 	"/>
	<polygon fill="#1B2955" points="2244.153,99.152 2224.985,70.4 2205.817,99.152 2204.153,98.042 2224.985,66.794 2245.817,98.042 	
		"/>
	<polygon fill="#1B2955" points="2274.153,115.152 2254.985,86.4 2235.817,115.152 2234.153,114.042 2254.985,82.794 
		2275.817,114.042 	"/>
	<g>
		<path fill="#1B2955" d="M1673.485,162.097c-3.309,0-6-2.131-6-4.75c0-7.909,5.18-11.885,5.4-12.05l0.6-0.45l0.6,0.45
			c0.221,0.165,5.4,4.141,5.4,12.05C1679.485,159.966,1676.794,162.097,1673.485,162.097z M1673.481,147.43
			c-1.252,1.215-3.996,4.497-3.996,9.917c0,1.491,1.832,2.75,4,2.75s4-1.259,4-2.75
			C1677.485,151.961,1674.726,148.65,1673.481,147.43z"/>
		<rect x="1672.485" y="161.097" fill="#1B2955" width="2" height="5"/>
	</g>
	<g>
		<path fill="#1B2955" d="M801.485,284.597c-3.309,0-6-2.131-6-4.75c0-7.91,5.18-11.885,5.4-12.05l0.6-0.45l0.6,0.45
			c0.22,0.165,5.4,4.141,5.4,12.05C807.485,282.467,804.794,284.597,801.485,284.597z M801.482,269.93
			c-1.252,1.215-3.997,4.497-3.997,9.917c0,1.49,1.832,2.75,4,2.75s4-1.26,4-2.75C805.485,274.461,802.726,271.15,801.482,269.93z"
			/>
		<rect x="800.485" y="283.597" fill="#1B2955" width="2" height="5"/>
	</g>
	<g>
		<g>
			<path fill="#1B2955" d="M1209.985,349.953h-40c-6.168,0-11-2.714-11-6.178c0-3.132,3.204-8.848,7.294-13.013l5.979-6.092
				c4.027-4.1,11.977-7.434,17.722-7.434h10.796c6.065,0,11,3.894,11,8.679c0,3.559,1.684,6.68,3.604,6.68
				c3.143,0,5.604,3.812,5.604,8.679C1220.985,346.059,1216.051,349.953,1209.985,349.953z M1189.981,319.237
				c-5.193,0-12.655,3.13-16.294,6.835l-5.979,6.091c-4.021,4.095-6.722,9.311-6.722,11.612c0,1.976,3.696,4.178,9,4.178h40
				c4.963,0,9-2.996,9-6.679c0-3.558-1.685-6.679-3.604-6.679c-3.143,0-5.604-3.812-5.604-8.68c0-3.683-4.037-6.679-9-6.679
				H1189.981z"/>
		</g>
		<g>
			<path fill="#1B2955" d="M1229.989,304.597h-10.004c-6.065,0-11-4.935-11-11v-20c0-6.168,2.636-11,6-11
				c3.036,0,6.641,1.227,8.207,2.793c1.196,1.196,4.308,2.207,6.793,2.207c2.66,0,5.389-1.116,6.174-2.117
				c1.415-1.805,5.264-2.883,8.166-2.883c3.539,0,6.418,3.894,6.418,8.679c0,3.558,1.685,6.679,3.604,6.679
				c3.143,0,5.604,3.655,5.604,8.321c0,4.588-3.581,8.321-7.983,8.321c-3.449,0-7.382,2.036-8.586,4.447
				C1241.826,302.158,1235.943,304.597,1229.989,304.597z M1214.985,264.597c-1.892,0-4,3.696-4,9v20c0,4.963,4.037,9,9,9h10.004
				c5.612,0,10.53-2.3,11.604-4.447c1.556-3.113,6.113-5.553,10.375-5.553c3.299,0,5.983-2.836,5.983-6.321
				c0-3.367-1.684-6.321-3.604-6.321c-3.143,0-5.604-3.812-5.604-8.679c0-3.621-2.023-6.679-4.418-6.679
				c-2.906,0-5.807,1.116-6.592,2.117c-1.268,1.617-4.671,2.883-7.748,2.883c-3.036,0-6.641-1.227-8.207-2.793
				C1220.582,265.608,1217.471,264.597,1214.985,264.597z"/>
		</g>
		<g>
			<path fill="#1B2955" d="M2359.09,149.609l-4.227-0.001c-0.383,0-0.712,0-0.995-0.006c-0.361,0.001-0.571,0.001-0.614,0.002v-0.03
				c-0.818-0.071-1.027-0.29-1.027-0.969c0-0.719,0.428-0.921,1.025-0.979v-0.02c0.03,0,0.139,0.001,0.316,0.001
				c0.144-0.004,0.293-0.005,0.445-0.005l48.51-0.006c0.005,0,0.01,0,0.015,0l0.103,0.004c0.991,0.065,1.003,0.957,1.003,0.996
				c0,0.694-0.335,0.907-1.003,0.972v0.028h-0.818c-0.083,0-0.168,0-0.256,0L2359.09,149.609z"/>
		</g>
		<g>
			<path fill="#1B2955" d="M1499.325,549.595h-13.172c-6.065,0-11-4.935-11-11v-41.428c0-4.963-3.271-9-7.293-9
				c-5.124,0-9.293-3.894-9.293-8.679c0-3.683-3.271-6.679-7.293-6.679c-5.124,0-9.293-3.894-9.293-8.68
				c0-3.683-3.271-6.679-7.293-6.679c-5.124,0-9.293-3.894-9.293-8.679c0-3.683-4.037-6.679-9-6.679h-13.172c-4.963,0-9,4.037-9,9
				v10.714c0,6.065-4.169,11-9.293,11s-9.293-4.935-9.293-11v-41.43c0-4.963-4.037-9-9-9h-13.173c-6.065,0-11-4.935-11-11v-10.714
				c0-4.963-4.037-9-9-9h-29.759c-4.963,0-9,2.996-9,6.679c0,4.786-4.169,8.68-9.293,8.68s-9.293-4.935-9.293-11v-26.071
				c0-4.963-4.037-9-9-9h-27.655c-3.074,0-5.482-3.812-5.482-8.679c0-4.867,2.408-8.68,5.482-8.68c1.645,0,3.483-3.849,3.483-9
				V312.88c0-6.065,4.935-11,11-11h13.172c4.963,0,9-4.037,9-9v-10.714c0-4.962-3.271-9-7.293-9c-5.1,0-9.471-4.91-9.744-10.944
				l-0.442-9.781c-0.225-4.99-4.472-9.109-9.467-9.183l-44.999-0.66c-2.381-0.025-4.643,0.869-6.345,2.546
				c-1.702,1.677-2.639,3.917-2.639,6.307v10.714c0,6.065-4.168,11-9.293,11c-4.021,0-7.293,2.997-7.293,6.68
				c0,3.683,3.271,6.679,7.293,6.679c5.125,0,9.293,3.894,9.293,8.679s-4.935,8.679-11,8.679h-46.345c-4.962,0-9,4.037-9,9v10.715
				c0,6.065-4.935,11-11,11h-13.172c-6.065,0-11-3.894-11-8.68c0-3.683-3.271-6.679-7.293-6.679c-5.124,0-9.293-3.894-9.293-8.679
				c0-3.683-3.271-6.68-7.293-6.68c-5.124,0-9.293-3.894-9.293-8.679s4.169-8.679,9.293-8.679h16.586
				c5.124,0,9.293,3.894,9.293,8.679c0,3.683,3.271,6.679,7.293,6.679s7.293-4.037,7.293-9v-10.714c0-6.065,4.935-11,11-11h13.172
				c4.963,0,9-2.996,9-6.679c0-4.786,4.169-8.679,9.293-8.679c4.021,0,7.293-4.038,7.293-9v-72.143c0-4.963-3.271-9-7.293-9
				c-5.124,0-9.293-3.893-9.293-8.679c0-3.683-3.271-6.679-7.293-6.679c-9.293,0-9.293,0-9.293-1.168v-20.547c0-4.962-4.038-9-9-9
				h-29.759c-4.962,0-9,2.996-9,6.679v22.876c0,1.16,0,1.16-11,1.16h-13.172c-4.962,0-9,2.997-9,6.679c0,4.786-4.935,8.679-11,8.679
				h-13.173c-4.963,0-9,2.996-9,6.679c0,4.786-4.935,8.679-11,8.679h-13.172c-4.962,0-9,2.996-9,6.679
				c0,4.786-4.169,8.679-9.293,8.679c-4.021,0-7.293,2.996-7.293,6.679c0,4.785-4.169,8.679-9.293,8.679
				c-4.021,0-7.293,2.997-7.293,6.679s4.038,6.679,9,6.679h46.345c4.962,0,9-2.996,9-6.679c0-4.786,4.168-8.679,9.293-8.679
				c5.124,0,9.293,3.894,9.293,8.679v28.393c0,6.065-4.935,11-11,11h-62.931c-4.962,0-9,2.996-9,6.679c0,4.786-4.935,8.679-11,8.679
				h-29.759c-4.962,0-9,4.037-9,9v10.714c0,6.065-4.935,11-11,11h-13.172c-4.962,0-9,2.997-9,6.68c0,4.785-4.935,8.679-11,8.679
				h-13.173c-4.962,0-9,4.037-9,9v10.724c0,6.065-4.169,11-9.293,11c-4.021,0-7.293,4.037-7.293,9v10.714c0,6.065-4.935,11-11,11
				h-13.172c-4.962,0-9,2.997-9,6.68c0,4.785-4.169,8.679-9.293,8.679c-4.021,0-7.293,2.996-7.293,6.679
				c0,4.785-4.935,8.679-11,8.679h-96.104c-6.065,0-11-3.894-11-8.679c0-3.683-3.271-6.679-7.293-6.679
				c-5.124,0-9.293-3.894-9.293-8.679c0-3.683-3.271-6.68-7.293-6.68c-5.125,0-9.293-3.894-9.293-8.679c0-3.683-4.038-6.679-9-6.679
				h-31.466c-5.124,0-9.293-3.894-9.293-8.68c0-3.683-3.272-6.679-7.293-6.679c-5.124,0-9.293-3.894-9.293-8.679
				c0-3.683-3.271-6.679-7.293-6.679h-16.586c-5.124,0-9.293-3.894-9.293-8.68c0-3.683-3.271-6.679-7.293-6.679
				c-5.124,0-9.293-4.935-9.293-11v-10.714c0-4.963-4.038-9-9-9h-13.172c-6.065,0-11-3.894-11-8.679c0-3.683-4.038-6.679-9-6.679
				h-29.759c-6.065,0-11-3.894-11-8.679c0-3.683-4.038-6.679-9-6.679h-13.172c-4.962,0-9,2.996-9,6.679
				c0,4.786-4.935,8.679-11,8.679h-31.466c-5.124,0-9.293-3.894-9.293-8.679c0-3.683-3.271-6.679-7.293-6.679
				c-5.124,0-9.293-3.894-9.293-8.679c0-3.683-3.271-6.679-7.293-6.679c-5.124,0-9.293-3.894-9.293-8.679
				c0-3.683-4.037-6.679-9-6.679h-79.518c-4.962,0-9,2.996-9,6.679c0,4.786-4.168,8.679-9.293,8.679c-4.021,0-7.293,4.037-7.293,9
				v10.714c0,6.065-4.935,11-11,11H159.26c-6.065,0-11-4.935-11-11v-26.071c0-4.962-3.272-9-7.293-9h-16.586
				c-5.125,0-9.293-3.893-9.293-8.679c0-3.683-3.272-6.679-7.293-6.679c-5.124,0-9.293-3.893-9.293-8.679
				c0-3.683-4.037-6.679-9-6.679H76.33c-6.065,0-11-3.894-11-8.679c0-3.683-4.038-6.679-9-6.679H43.157c-6.065,0-11-3.894-11-8.679
				c0-3.683-3.271-6.679-7.293-6.679c-5.125,0-9.293-3.894-9.293-8.679c0-3.683-3.271-6.679-7.293-6.679h-8.293v-2h8.293
				c5.125,0,9.293,3.893,9.293,8.679c0,3.683,3.271,6.679,7.293,6.679c5.124,0,9.293,3.893,9.293,8.679c0,3.683,4.038,6.679,9,6.679
				H56.33c6.065,0,11,3.893,11,8.679c0,3.683,4.037,6.679,9,6.679h13.172c6.065,0,11,3.894,11,8.679
				c0,3.683,3.271,6.679,7.293,6.679c5.124,0,9.293,3.894,9.293,8.679c0,3.683,3.272,6.679,7.293,6.679h16.586
				c5.124,0,9.293,4.935,9.293,11v26.071c0,4.962,4.038,9,9,9h13.172c4.962,0,9-4.038,9-9v-10.714c0-6.065,4.169-11,9.293-11
				c4.021,0,7.293-2.996,7.293-6.679c0-4.786,4.935-8.679,11-8.679h79.518c6.065,0,11,3.894,11,8.679
				c0,3.683,3.271,6.679,7.293,6.679c5.124,0,9.293,3.893,9.293,8.679c0,3.683,3.272,6.679,7.293,6.679
				c5.124,0,9.293,3.893,9.293,8.679c0,3.683,3.271,6.679,7.293,6.679h31.466c4.963,0,9-2.996,9-6.679c0-4.786,4.935-8.679,11-8.679
				h13.172c6.065,0,11,3.893,11,8.679c0,3.683,4.037,6.679,9,6.679h29.759c6.065,0,11,3.894,11,8.679c0,3.683,4.037,6.679,9,6.679
				h13.172c6.065,0,11,4.935,11,11v10.714c0,4.963,3.271,9,7.293,9c5.124,0,9.293,3.894,9.293,8.679c0,3.683,3.271,6.68,7.293,6.68
				h16.586c5.124,0,9.293,3.894,9.293,8.679c0,3.683,3.271,6.679,7.293,6.679c5.124,0,9.293,3.894,9.293,8.679
				c0,3.684,3.271,6.68,7.293,6.68h31.466c6.065,0,11,3.894,11,8.679c0,3.683,3.271,6.679,7.293,6.679
				c5.124,0,9.293,3.894,9.293,8.68c0,3.683,3.271,6.679,7.293,6.679c5.124,0,9.293,3.894,9.293,8.679c0,3.683,4.038,6.679,9,6.679
				h96.104c4.962,0,9-2.996,9-6.679c0-4.785,4.169-8.679,9.293-8.679c4.021,0,7.293-2.996,7.293-6.679c0-4.786,4.935-8.68,11-8.68
				h13.172c4.963,0,9-4.037,9-9v-10.714c0-6.065,4.169-11,9.293-11c4.021,0,7.293-4.037,7.293-9V328.24c0-6.065,4.935-11,11-11
				h13.173c4.962,0,9-2.996,9-6.679c0-4.786,4.935-8.68,11-8.68h13.172c4.962,0,9-4.037,9-9v-10.714c0-6.065,4.935-11,11-11h29.759
				c4.962,0,9-2.996,9-6.679c0-4.786,4.935-8.679,11-8.679h62.931c4.963,0,9-4.038,9-9v-28.393c0-3.683-3.271-6.679-7.293-6.679
				s-7.293,2.997-7.293,6.679c0,4.785-4.935,8.679-11,8.679h-46.345c-6.065,0-11-3.894-11-8.679c0-4.786,4.168-8.679,9.293-8.679
				c4.021,0,7.293-2.996,7.293-6.679c0-4.786,4.169-8.679,9.293-8.679c4.021,0,7.293-2.996,7.293-6.679
				c0-4.785,4.935-8.679,11-8.679h13.172c4.962,0,9-2.997,9-6.679c0-4.785,4.935-8.679,11-8.679h13.173c4.962,0,9-2.997,9-6.679
				c0-4.786,4.935-8.679,11-8.679h13.172c4.241,0,7.528-0.042,9-0.09V126.27c0-4.786,4.935-8.679,11-8.679h29.759
				c6.065,0,11,4.935,11,11v19.626c1.193,0.044,3.674,0.088,7.293,0.088c5.124,0,9.293,3.894,9.293,8.679
				c0,3.683,3.271,6.679,7.293,6.679c5.124,0,9.293,4.935,9.293,11v72.143c0,6.065-4.169,11-9.293,11
				c-4.021,0-7.293,2.996-7.293,6.679c0,4.785-4.935,8.679-11,8.679h-13.172c-4.962,0-9,4.037-9,9v10.714c0,6.065-4.169,11-9.293,11
				c-5.125,0-9.293-3.894-9.293-8.679c0-3.683-3.271-6.679-7.293-6.679h-16.586c-4.021,0-7.293,2.996-7.293,6.679
				s3.272,6.679,7.293,6.679c5.124,0,9.293,3.894,9.293,8.68c0,3.683,3.271,6.679,7.293,6.679c5.124,0,9.293,3.894,9.293,8.679
				c0,3.684,4.038,6.68,9,6.68h13.172c4.963,0,9-4.037,9-9v-10.715c0-6.065,4.935-11,11-11h46.345c4.962,0,9-2.996,9-6.679
				s-3.271-6.679-7.293-6.679c-5.124,0-9.293-3.894-9.293-8.679c0-4.786,4.169-8.68,9.293-8.68c4.021,0,7.293-4.038,7.293-9v-10.714
				c0-2.93,1.149-5.676,3.235-7.732c2.086-2.056,4.86-3.167,7.778-3.121l44.999,0.66c6.033,0.089,11.163,5.065,11.436,11.092
				l0.442,9.78c0.226,4.982,3.701,9.035,7.746,9.035c5.124,0,9.293,4.935,9.293,11v10.714c0,6.065-4.935,11-11,11h-13.172
				c-4.963,0-9,4.037-9,9v10.714c0,6.271-2.357,11-5.483,11c-1.647,0-3.482,2.743-3.482,6.68c0,3.936,1.835,6.679,3.482,6.679
				h27.655c6.065,0,11,4.935,11,11v26.071c0,4.963,3.271,9,7.293,9s7.293-2.996,7.293-6.68c0-4.785,4.935-8.679,11-8.679h29.759
				c6.065,0,11,4.935,11,11v10.714c0,4.963,4.037,9,9,9h13.173c6.065,0,11,4.935,11,11v41.43c0,4.963,3.271,9,7.293,9
				s7.293-4.037,7.293-9v-10.714c0-6.065,4.935-11,11-11h13.172c6.065,0,11,3.894,11,8.679c0,3.683,3.271,6.679,7.293,6.679
				c5.124,0,9.293,3.894,9.293,8.679c0,3.684,3.271,6.68,7.293,6.68c5.124,0,9.293,3.894,9.293,8.679
				c0,3.683,3.271,6.679,7.293,6.679c5.124,0,9.293,4.935,9.293,11v41.428c0,4.963,4.037,9,9,9h13.172c4.963,0,9-2.996,9-6.679
				c0-4.785,4.169-8.679,9.293-8.679c4.021,0,7.293-4.037,7.293-9V435.74c0-4.963-3.271-9-7.293-9s-7.293,4.037-7.293,9v26.072
				c0,6.065-4.169,11-9.293,11s-9.293-3.894-9.293-8.68c0-3.683-3.271-6.679-7.293-6.679c-5.124,0-9.293-3.894-9.293-8.679v-15.357
				c0-3.683-3.271-6.679-7.293-6.679c-5.124,0-9.293-3.894-9.293-8.679c0-4.786,4.935-8.68,11-8.68h13.172c4.963,0,9-2.996,9-6.679
				c0-4.785,4.935-8.679,11-8.679h96.104c4.963,0,9-2.996,9-6.679c0-4.786,4.935-8.68,11-8.68h46.345c4.963,0,9-4.037,9-9v-10.714
				c0-6.065,4.935-11,11-11h29.759c4.963,0,9-4.037,9-9V328.24c0-6.065,4.935-11,11-11h29.759c4.963,0,9-4.037,9-9v-10.714
				c0-6.065,4.935-11,11-11h29.759c4.963,0,9-4.037,9-9v-10.714c0-6.065,4.935-11,11-11h46.346c4.963,0,9-2.997,9-6.679
				c0-4.786,4.935-8.679,11-8.679h46.345c4.963,0,9-2.996,9-6.679c0-4.786,4.935-8.679,11-8.679h62.931
				c2.393,0,4.646-0.939,6.346-2.644c1.699-1.705,2.631-3.961,2.623-6.353l-0.04-12.5c-0.01-2.927,1.129-5.687,3.205-7.771
				c2.077-2.084,4.834-3.232,7.763-3.232h110.793c4.963,0,9-2.996,9-6.679c0-4.786,4.935-8.679,11-8.679h145.863
				c4.963,0,9-2.996,9-6.679c0-4.785,4.169-8.679,9.293-8.679c4.021,0,7.293-2.752,7.293-6.135v-7.135h2v7.135
				c0,4.486-4.169,8.135-9.293,8.135c-4.021,0-7.293,2.996-7.293,6.679c0,4.786-4.935,8.679-11,8.679h-145.863
				c-4.963,0-9,2.997-9,6.679c0,4.785-4.935,8.679-11,8.679h-110.793c-2.393,0-4.647,0.939-6.346,2.644
				c-1.699,1.705-2.63,3.961-2.622,6.353l0.04,12.5c0.01,2.928-1.13,5.688-3.207,7.771s-4.834,3.232-7.762,3.232h-62.931
				c-4.963,0-9,2.997-9,6.679c0,4.786-4.935,8.679-11,8.679h-46.345c-4.963,0-9,2.997-9,6.679c0,4.786-4.935,8.679-11,8.679h-46.346
				c-4.963,0-9,4.038-9,9v10.714c0,6.065-4.935,11-11,11h-29.759c-4.963,0-9,4.037-9,9v10.714c0,6.065-4.935,11-11,11h-29.759
				c-4.963,0-9,4.037-9,9v10.711c0,6.065-4.935,11-11,11h-29.759c-4.963,0-9,4.037-9,9v10.714c0,6.065-4.935,11-11,11h-46.345
				c-4.963,0-9,2.996-9,6.68c0,4.785-4.935,8.679-11,8.679h-96.104c-4.963,0-9,2.996-9,6.679c0,4.785-4.935,8.679-11,8.679h-13.172
				c-4.963,0-9,2.996-9,6.68c0,3.683,3.271,6.679,7.293,6.679c5.124,0,9.293,3.894,9.293,8.679v15.357
				c0,3.683,3.271,6.679,7.293,6.679c5.124,0,9.293,3.894,9.293,8.679c0,3.684,3.271,6.68,7.293,6.68s7.293-4.037,7.293-9V435.74
				c0-6.065,4.169-11,9.293-11s9.293,4.935,9.293,11v87.498c0,6.065-4.169,11-9.293,11c-4.021,0-7.293,2.996-7.293,6.679
				C1510.325,545.702,1505.391,549.595,1499.325,549.595z"/>
		</g>
	</g>
	<g>
		<path fill="#1B2955" d="M1749.232,194.173c0.094-0.717,0.275-1.407,0.54-2.055c-0.2,0.04-0.407,0.063-0.619,0.063h-3.167v-3.167
			c0-1.746,1.421-3.167,3.167-3.167c1.657,0,3.005,1.284,3.141,2.906c0.554-0.442,1.164-0.814,1.82-1.105
			c-0.604-2.184-2.588-3.801-4.96-3.801c-2.849,0-5.167,2.318-5.167,5.167v5.167h5.167
			C1749.179,194.181,1749.205,194.173,1749.232,194.173z"/>
		<path fill="#1B2955" d="M1757.485,204.597c-5.146,0-9.333-4.187-9.333-9.333s4.187-9.333,9.333-9.333s9.333,4.187,9.333,9.333
			S1762.632,204.597,1757.485,204.597z M1757.485,187.931c-4.043,0-7.333,3.29-7.333,7.333s3.29,7.333,7.333,7.333
			s7.333-3.29,7.333-7.333S1761.528,187.931,1757.485,187.931z"/>
	</g>
	<g>
		<path fill="#1B2955" d="M1753.318,197.014c-0.851,0-1.542-0.692-1.542-1.542s0.691-1.542,1.542-1.542s1.542,0.692,1.542,1.542
			S1754.169,197.014,1753.318,197.014z M1753.318,194.93c-0.299,0-0.542,0.243-0.542,0.542s0.243,0.542,0.542,0.542
			s0.542-0.243,0.542-0.542S1753.617,194.93,1753.318,194.93z"/>
	</g>
	<g>
		<path fill="#1B2955" d="M1761.652,197.014c-0.851,0-1.542-0.692-1.542-1.542s0.691-1.542,1.542-1.542s1.542,0.692,1.542,1.542
			S1762.503,197.014,1761.652,197.014z M1761.652,194.93c-0.299,0-0.542,0.243-0.542,0.542s0.243,0.542,0.542,0.542
			s0.542-0.243,0.542-0.542S1761.951,194.93,1761.652,194.93z"/>
	</g>
	<g>
		<path fill="#1B2955" d="M1757.902,201.681h-1.042c-1.126,0-2.042-0.916-2.042-2.042v-3.125c0-1.126,0.916-2.042,2.042-2.042h1.042
			c1.124,0,2.04,0.915,2.042,2.041v3.126C1759.944,200.765,1759.028,201.681,1757.902,201.681z M1756.86,196.472l-0.042,3.167
			l1.084,0.042c0.022,0,0.042-0.019,0.042-0.042v-3.125L1756.86,196.472z"/>
	</g>
	<path fill="#1B2955" d="M467.888,414.593c-1.917,0-3.833-0.729-5.292-2.188c-2.14-2.139-5.619-2.139-7.757,0
		c-2.919,2.919-7.667,2.918-10.585,0l-0.707-0.707l1.414-1.414l0.707,0.707c2.138,2.139,5.618,2.139,7.757,0
		c2.917-2.917,7.666-2.917,10.585,0c2.138,2.139,5.618,2.139,7.757,0l0.708-0.707l1.414,1.414l-0.707,0.707
		C471.722,413.864,469.805,414.593,467.888,414.593z"/>
	<path fill="#1B2955" d="M502.888,419.593c-1.917,0-3.833-0.729-5.292-2.188c-2.14-2.139-5.619-2.139-7.757,0
		c-2.919,2.919-7.667,2.918-10.585,0l-0.707-0.707l1.414-1.414l0.707,0.707c2.138,2.139,5.618,2.139,7.757,0
		c2.917-2.917,7.666-2.918,10.585,0c2.138,2.139,5.618,2.139,7.757,0l0.708-0.707l1.414,1.414l-0.707,0.707
		C506.722,418.864,504.805,419.593,502.888,419.593z"/>
	<path fill="#1B2955" d="M507.058,409.597c-2,0-3.879-0.778-5.292-2.192l-0.707-0.707l1.414-1.414l0.707,0.707
		c1.036,1.036,2.413,1.606,3.878,1.606c1.465,0,2.843-0.57,3.879-1.606c2.918-2.917,7.666-2.918,10.585,0
		c2.138,2.139,5.618,2.139,7.757,0l0.708-0.707l1.414,1.414l-0.707,0.707c-2.919,2.919-7.667,2.918-10.585,0
		c-2.139-2.139-5.618-2.139-7.757,0C510.937,408.819,509.057,409.597,507.058,409.597z"/>
	<g>
		<path fill="#1B2955" d="M448.473,408.071h-2v-21.053c0-5.194,3.282-9.421,7.316-9.421s7.316,4.698,7.316,10.474
			c0,5.173,1.902,8.474,3.211,8.474c2.874,0,5.211,2.338,5.211,5.211v4.211h-2v-4.211c0-1.771-1.44-3.211-3.211-3.211
			c-2.971,0-5.211-4.503-5.211-10.474c0-4.593-2.435-8.474-5.316-8.474s-5.316,3.398-5.316,7.421V408.071z"/>
	</g>
	<g>
		<path fill="#1B2955" d="M483.473,410.702h-2v-19.474c0-5.333,1.826-11,5.211-11c1.741,0,3.211-2.435,3.211-5.316
			c0-4.034,3.282-7.315,7.316-7.315s7.316,4.935,7.316,11v5.263c0,4.879,2.435,9,5.316,9c4.171,0,7.316,1.788,7.316,4.158v3.157h-2
			v-3.157c0-0.88-2.071-2.158-5.316-2.158c-4.034,0-7.316-4.935-7.316-11v-5.263c0-4.879-2.435-9-5.316-9
			c-2.931,0-5.316,2.385-5.316,5.315c0,4.034-2.337,7.316-5.211,7.316c-1.309,0-3.211,3.506-3.211,9V410.702z"/>
	</g>
</g>
<path fill="#1B2955" d="M1765.818,183.847c-2.389,0-4.386,1.638-4.974,3.845c0.658,0.302,1.274,0.679,1.826,1.134
	c0.1-1.657,1.466-2.979,3.148-2.979c1.746,0,3.167,1.421,3.167,3.167v3.167h-3.167c-0.254,0-0.498-0.038-0.735-0.095
	c0.27,0.654,0.454,1.351,0.55,2.076c0.063,0.002,0.122,0.019,0.185,0.019h5.167v-5.167
	C1770.985,186.165,1768.667,183.847,1765.818,183.847z"/>
<g>
	<path fill="#1B2955" d="M1560.732,275.785c-0.851,0-1.542,0.692-1.542,1.542s0.691,1.542,1.542,1.542s1.542-0.692,1.542-1.542
		S1561.583,275.785,1560.732,275.785z M1560.732,277.869c-0.299,0-0.542-0.243-0.542-0.542s0.243-0.542,0.542-0.542
		s0.542,0.243,0.542,0.542S1561.031,277.869,1560.732,277.869z"/>
	<path fill="#1B2955" d="M1567.524,277.327c0,0.85,0.691,1.542,1.542,1.542s1.542-0.692,1.542-1.542s-0.691-1.542-1.542-1.542
		S1567.524,276.477,1567.524,277.327z M1569.608,277.327c0,0.299-0.243,0.542-0.542,0.542s-0.542-0.243-0.542-0.542
		s0.243-0.542,0.542-0.542S1569.608,277.028,1569.608,277.327z"/>
	<path fill="#1B2955" d="M1565.316,276.327h-1.042c-1.126,0-2.042,0.916-2.042,2.042v3.125c0,1.126,0.916,2.042,2.042,2.042h1.042
		c1.126,0,2.042-0.916,2.042-2.042v-3.126C1567.356,277.242,1566.44,276.327,1565.316,276.327z M1565.358,281.494
		c0,0.023-0.02,0.042-0.042,0.042l-1.084-0.042l0.042-3.167l1.084,0.042V281.494z"/>
	<path fill="#1B2955" d="M1578.399,270.869c0-2.849-2.318-5.167-5.167-5.167c-2.019,0-3.748,1.177-4.593,2.872
		c-1.146-0.504-2.41-0.788-3.74-0.788c-1.33,0-2.594,0.284-3.74,0.788c-0.845-1.695-2.574-2.872-4.593-2.872
		c-2.849,0-5.167,2.318-5.167,5.167v5.167h4.235c-0.042,0.356-0.068,0.716-0.068,1.083c0,5.146,4.187,9.333,9.333,9.333
		s9.333-4.187,9.333-9.333c0-0.367-0.027-0.727-0.068-1.083h4.235V270.869z M1553.399,274.036v-3.167
		c0-1.746,1.421-3.167,3.167-3.167c1.281,0,2.371,0.771,2.865,1.87c-1.522,1.106-2.695,2.657-3.331,4.464H1553.399z
		 M1564.899,284.452c-4.043,0-7.333-3.29-7.333-7.333s3.29-7.333,7.333-7.333s7.333,3.29,7.333,7.333
		S1568.942,284.452,1564.899,284.452z M1576.399,274.036h-2.701c-0.636-1.809-1.811-3.361-3.335-4.468
		c0.495-1.098,1.589-1.866,2.869-1.866c1.746,0,3.167,1.421,3.167,3.167V274.036z"/>
</g>
<g>
	<path fill="#1B2955" d="M1426.785,386.576c-0.851,0-1.542,0.692-1.542,1.542s0.691,1.542,1.542,1.542s1.542-0.692,1.542-1.542
		S1427.636,386.576,1426.785,386.576z M1426.785,388.66c-0.299,0-0.542-0.243-0.542-0.542s0.243-0.542,0.542-0.542
		s0.542,0.243,0.542,0.542S1427.084,388.66,1426.785,388.66z"/>
	<path fill="#1B2955" d="M1433.577,388.118c0,0.85,0.691,1.542,1.542,1.542s1.542-0.692,1.542-1.542s-0.691-1.542-1.542-1.542
		S1433.577,387.268,1433.577,388.118z M1435.661,388.118c0,0.299-0.243,0.542-0.542,0.542s-0.542-0.243-0.542-0.542
		s0.243-0.542,0.542-0.542S1435.661,387.819,1435.661,388.118z"/>
	<path fill="#1B2955" d="M1431.369,387.118h-1.042c-1.126,0-2.042,0.916-2.042,2.042v3.125c0,1.126,0.916,2.042,2.042,2.042h1.042
		c1.126,0,2.042-0.916,2.042-2.042v-3.126C1433.409,388.033,1432.493,387.118,1431.369,387.118z M1431.411,392.285
		c0,0.023-0.02,0.042-0.042,0.042l-1.084-0.042l0.042-3.167l1.084,0.042V392.285z"/>
	<path fill="#1B2955" d="M1444.452,381.66c0-2.849-2.318-5.167-5.167-5.167c-2.019,0-3.748,1.177-4.593,2.872
		c-1.146-0.504-2.41-0.788-3.74-0.788s-2.594,0.284-3.74,0.788c-0.845-1.695-2.574-2.872-4.593-2.872
		c-2.849,0-5.167,2.318-5.167,5.167v5.167h4.235c-0.041,0.356-0.068,0.716-0.068,1.083c0,5.146,4.187,9.333,9.333,9.333
		s9.333-4.187,9.333-9.333c0-0.367-0.027-0.727-0.068-1.083h4.235V381.66z M1419.452,384.827v-3.167
		c0-1.746,1.421-3.167,3.167-3.167c1.281,0,2.371,0.771,2.865,1.87c-1.522,1.106-2.695,2.657-3.331,4.464H1419.452z
		 M1430.952,395.243c-4.043,0-7.333-3.29-7.333-7.333s3.29-7.333,7.333-7.333s7.333,3.29,7.333,7.333
		S1434.995,395.243,1430.952,395.243z M1442.452,384.827h-2.701c-0.636-1.809-1.811-3.361-3.335-4.468
		c0.495-1.098,1.589-1.866,2.869-1.866c1.746,0,3.167,1.421,3.167,3.167V384.827z"/>
</g>
<g>
	<path fill="#1B2955" d="M801.732,198.785c-0.851,0-1.542,0.692-1.542,1.542s0.691,1.542,1.542,1.542s1.542-0.692,1.542-1.542
		S802.583,198.785,801.732,198.785z M801.732,200.869c-0.299,0-0.542-0.243-0.542-0.542s0.243-0.542,0.542-0.542
		s0.542,0.243,0.542,0.542S802.031,200.869,801.732,200.869z"/>
	<path fill="#1B2955" d="M808.524,200.327c0,0.85,0.691,1.542,1.542,1.542s1.542-0.692,1.542-1.542s-0.691-1.542-1.542-1.542
		S808.524,199.477,808.524,200.327z M810.608,200.327c0,0.299-0.243,0.542-0.542,0.542s-0.542-0.243-0.542-0.542
		s0.243-0.542,0.542-0.542S810.608,200.028,810.608,200.327z"/>
	<path fill="#1B2955" d="M806.316,199.327h-1.042c-1.126,0-2.042,0.916-2.042,2.042v3.125c0,1.126,0.916,2.042,2.042,2.042h1.042
		c1.126,0,2.042-0.916,2.042-2.042v-3.126C808.356,200.242,807.44,199.327,806.316,199.327z M806.358,204.494
		c0,0.023-0.02,0.042-0.042,0.042l-1.084-0.042l0.042-3.167l1.084,0.042V204.494z"/>
	<path fill="#1B2955" d="M819.399,193.869c0-2.849-2.318-5.167-5.167-5.167c-2.019,0-3.748,1.177-4.593,2.872
		c-1.146-0.504-2.41-0.788-3.74-0.788c-1.33,0-2.594,0.284-3.74,0.788c-0.845-1.695-2.574-2.872-4.593-2.872
		c-2.849,0-5.167,2.318-5.167,5.167v5.167h4.235c-0.041,0.356-0.068,0.716-0.068,1.083c0,5.146,4.187,9.333,9.333,9.333
		s9.333-4.187,9.333-9.333c0-0.367-0.027-0.727-0.068-1.083h4.235V193.869z M794.399,197.036v-3.167
		c0-1.746,1.421-3.167,3.167-3.167c1.281,0,2.371,0.771,2.865,1.87c-1.522,1.106-2.695,2.657-3.331,4.464H794.399z M805.899,207.452
		c-4.043,0-7.333-3.29-7.333-7.333s3.29-7.333,7.333-7.333s7.333,3.29,7.333,7.333S809.942,207.452,805.899,207.452z
		 M817.399,197.036h-2.701c-0.636-1.809-1.811-3.361-3.335-4.468c0.495-1.098,1.589-1.866,2.869-1.866
		c1.746,0,3.167,1.421,3.167,3.167V197.036z"/>
</g>
<g>
	<path fill="#1B2955" d="M558.119,213.638c-0.851,0-1.542,0.692-1.542,1.542s0.691,1.542,1.542,1.542s1.542-0.692,1.542-1.542
		S558.969,213.638,558.119,213.638z M558.119,215.722c-0.299,0-0.542-0.243-0.542-0.542s0.243-0.542,0.542-0.542
		s0.542,0.243,0.542,0.542S558.418,215.722,558.119,215.722z"/>
	<path fill="#1B2955" d="M564.911,215.18c0,0.85,0.691,1.542,1.542,1.542s1.542-0.692,1.542-1.542s-0.691-1.542-1.542-1.542
		S564.911,214.33,564.911,215.18z M566.995,215.18c0,0.299-0.243,0.542-0.542,0.542s-0.542-0.243-0.542-0.542
		s0.243-0.542,0.542-0.542S566.995,214.881,566.995,215.18z"/>
	<path fill="#1B2955" d="M562.703,214.18h-1.042c-1.126,0-2.042,0.916-2.042,2.042v3.125c0,1.126,0.916,2.042,2.042,2.042h1.042
		c1.126,0,2.042-0.916,2.042-2.042v-3.126C564.743,215.095,563.827,214.18,562.703,214.18z M562.745,219.347
		c0,0.023-0.02,0.042-0.042,0.042l-1.084-0.042l0.042-3.167l1.084,0.042V219.347z"/>
	<path fill="#1B2955" d="M575.786,208.722c0-2.849-2.318-5.167-5.167-5.167c-2.019,0-3.748,1.177-4.593,2.872
		c-1.146-0.504-2.41-0.788-3.74-0.788c-1.33,0-2.594,0.284-3.74,0.788c-0.845-1.695-2.574-2.872-4.593-2.872
		c-2.849,0-5.167,2.318-5.167,5.167v5.167h4.235c-0.041,0.356-0.068,0.716-0.068,1.083c0,5.146,4.187,9.333,9.333,9.333
		s9.333-4.187,9.333-9.333c0-0.367-0.027-0.727-0.068-1.083h4.235V208.722z M550.786,211.889v-3.167
		c0-1.746,1.421-3.167,3.167-3.167c1.281,0,2.371,0.771,2.865,1.87c-1.522,1.106-2.695,2.657-3.331,4.464H550.786z M562.286,222.305
		c-4.043,0-7.333-3.29-7.333-7.333s3.29-7.333,7.333-7.333s7.333,3.29,7.333,7.333S566.329,222.305,562.286,222.305z
		 M573.786,211.889h-2.701c-0.636-1.809-1.811-3.361-3.335-4.468c0.495-1.098,1.589-1.866,2.869-1.866
		c1.746,0,3.167,1.421,3.167,3.167V211.889z"/>
</g>
<g>
	<path fill="#1B2955" d="M744.485,370.721c-0.851,0-1.542,0.692-1.542,1.542s0.691,1.542,1.542,1.542s1.542-0.692,1.542-1.542
		S745.336,370.721,744.485,370.721z M744.485,372.805c-0.299,0-0.542-0.243-0.542-0.542s0.243-0.542,0.542-0.542
		s0.542,0.243,0.542,0.542S744.784,372.805,744.485,372.805z"/>
	<path fill="#1B2955" d="M751.277,372.263c0,0.85,0.691,1.542,1.542,1.542s1.542-0.692,1.542-1.542s-0.691-1.542-1.542-1.542
		S751.277,371.413,751.277,372.263z M753.361,372.263c0,0.299-0.243,0.542-0.542,0.542s-0.542-0.243-0.542-0.542
		s0.243-0.542,0.542-0.542S753.361,371.965,753.361,372.263z"/>
	<path fill="#1B2955" d="M749.069,371.263h-1.042c-1.126,0-2.042,0.916-2.042,2.042v3.125c0,1.126,0.916,2.042,2.042,2.042h1.042
		c1.126,0,2.042-0.916,2.042-2.042v-3.126C751.109,372.178,750.193,371.263,749.069,371.263z M749.111,376.43
		c0,0.023-0.02,0.042-0.042,0.042l-1.084-0.042l0.042-3.167l1.084,0.042V376.43z"/>
	<path fill="#1B2955" d="M762.152,365.805c0-2.849-2.318-5.167-5.167-5.167c-2.019,0-3.748,1.177-4.593,2.872
		c-1.146-0.504-2.41-0.788-3.74-0.788c-1.33,0-2.594,0.284-3.74,0.788c-0.845-1.695-2.574-2.872-4.593-2.872
		c-2.849,0-5.167,2.318-5.167,5.167v5.167h4.235c-0.041,0.356-0.068,0.716-0.068,1.083c0,5.146,4.187,9.333,9.333,9.333
		s9.333-4.187,9.333-9.333c0-0.367-0.027-0.727-0.068-1.083h4.235V365.805z M737.152,368.972v-3.167
		c0-1.746,1.421-3.167,3.167-3.167c1.281,0,2.371,0.771,2.865,1.87c-1.522,1.106-2.695,2.657-3.331,4.464H737.152z M748.652,379.388
		c-4.043,0-7.333-3.29-7.333-7.333s3.29-7.333,7.333-7.333s7.333,3.29,7.333,7.333S752.695,379.388,748.652,379.388z
		 M760.152,368.972h-2.701c-0.636-1.809-1.811-3.361-3.335-4.468c0.495-1.098,1.589-1.866,2.869-1.866
		c1.746,0,3.167,1.421,3.167,3.167V368.972z"/>
</g>
<path fill="#1B2955" d="M239.76,179.858c-0.481-0.481-1.121-0.747-1.801-0.747h-1.761c-0.15,0-0.324-0.103-0.644-0.3
	c-0.605-0.373-1.519-0.936-3.157-0.936c-0.423,0-0.826,0.087-1.196,0.238c-0.039-0.363-0.132-0.737-0.297-1.107l-0.011-0.131
	l-0.023,0.056c-0.033-0.068-0.054-0.138-0.093-0.206c-0.833-1.457-2.614-1.875-2.814-1.918l-0.875-0.188l-0.283,0.85
	c-0.065,0.195-0.608,1.942,0.225,3.399c0.577,1.011,1.602,1.515,2.248,1.748c-0.007,0.048-0.01,0.097-0.015,0.146
	c-0.557,1.284-2.009,3.803-3.287,4.054c-0.226,0.045-0.587,0.045-1.1-0.467c-8.642-8.641-13.905-6.166-23.161,3.09
	c-2.9,2.9-5.472,4.191-7.43,3.736c-2.293-0.534-3.267-3.32-3.276-3.349l-1.896,0.636c0.052,0.157,1.322,3.859,4.702,4.657
	c0.418,0.099,0.847,0.148,1.285,0.148c2.4,0,5.094-1.479,8.029-4.414l0,0c1.165-1.164,2.487-1.681,3.904-1.786
	c0.141,0.474,0.325,0.975,0.6,1.524c0.553,1.105,1.09,2.623,0.508,3.572c-0.577,0.941-2.15,1.158-2.704,1.162h-2.414L214,204.304
	l1.414-1.414l-7.698-7.699c4.239-0.49,8.473-2.279,10.229-4.685c2.163,0.942,4.218,1.695,6.109,1.724v0.006h0.098
	c0.005,0,0.011,0.001,0.016,0.001c0.008,0,0.014-0.001,0.022-0.001h2.954c0.01,0,1.06,0.028,1.652,0.642
	c0.318,0.331,0.461,0.792,0.438,1.411l1.999,0.074c0.043-1.158-0.302-2.151-0.997-2.873c-0.504-0.523-1.105-0.82-1.647-0.998
	c0.067-0.067,0.138-0.128,0.203-0.199c1.607-1.746,2.187-4.329,2.383-6.339c0.376,0.158,0.789,0.246,1.222,0.246h5.562
	c1.403,0,2.545-1.142,2.545-2.544C240.505,180.978,240.241,180.339,239.76,179.858z M228.765,177.875
	c-0.109-0.19-0.163-0.415-0.184-0.641c0.185,0.133,0.351,0.294,0.459,0.484c0.109,0.19,0.163,0.415,0.184,0.642
	C229.039,178.227,228.874,178.066,228.765,177.875z M210.089,192.736c0.564-1.328,0.341-3.019-0.668-5.038
	c-0.751-1.503-0.882-2.789-0.367-3.622c0.437-0.707,1.371-1.112,2.562-1.112c2.518,0,5.181,2.663,5.181,5.181
	C216.797,189.784,213.906,191.766,210.089,192.736z M227.318,188.942c-0.802,0.869-1.829,1.292-3.138,1.294h-0.026
	c-1.551-0.004-3.411-0.692-5.407-1.562c0.027-0.175,0.051-0.35,0.051-0.529c0-2.992-2.426-5.933-5.311-6.869
	c3.327-0.865,6.183,0.695,9.975,4.487c1.096,1.096,2.182,1.156,2.9,1.016c1.02-0.201,1.922-0.94,2.663-1.811
	C228.774,186.386,228.279,187.899,227.318,188.942z M237.959,182.201h-5.562c-0.635,0-1.149-0.512-1.159-1.144
	c-0.001-0.013-0.001-0.017-0.002-0.027c0.005-0.637,0.523-1.154,1.161-1.154c1.071,0,1.575,0.311,2.108,0.639
	c0.454,0.28,0.969,0.597,1.693,0.597h1.761c0.146,0,0.283,0.057,0.386,0.16c0.103,0.103,0.159,0.239,0.159,0.385
	C238.504,181.956,238.259,182.201,237.959,182.201z"/>
<path fill="#1B2955" d="M1369.938,282.743c-0.481-0.481-1.121-0.747-1.801-0.747h-1.761c-0.15,0-0.324-0.103-0.644-0.3
	c-0.605-0.373-1.519-0.936-3.157-0.936c-0.423,0-0.826,0.087-1.196,0.238c-0.039-0.363-0.132-0.737-0.297-1.107l-0.011-0.131
	l-0.023,0.056c-0.033-0.068-0.054-0.138-0.093-0.206c-0.833-1.457-2.614-1.875-2.814-1.918l-0.875-0.188l-0.283,0.85
	c-0.065,0.195-0.608,1.942,0.225,3.399c0.577,1.011,1.601,1.515,2.248,1.748c-0.007,0.048-0.01,0.097-0.015,0.146
	c-0.557,1.284-2.009,3.803-3.287,4.054c-0.226,0.045-0.587,0.045-1.1-0.467c-8.642-8.641-13.905-6.166-23.161,3.09
	c-2.9,2.9-5.472,4.191-7.43,3.736c-2.293-0.534-3.267-3.32-3.276-3.349l-1.896,0.636c0.052,0.157,1.322,3.859,4.702,4.657
	c0.418,0.099,0.847,0.148,1.285,0.148c2.4,0,5.094-1.479,8.029-4.414l0,0c1.165-1.164,2.487-1.681,3.904-1.786
	c0.141,0.474,0.325,0.975,0.6,1.524c0.553,1.105,1.09,2.623,0.508,3.572c-0.577,0.941-2.15,1.158-2.704,1.162h-2.414l10.978,10.978
	l1.414-1.414l-7.698-7.699c4.239-0.49,8.473-2.279,10.229-4.685c2.163,0.942,4.218,1.695,6.109,1.724v0.006h0.098
	c0.005,0,0.011,0.001,0.016,0.001c0.007,0,0.014-0.001,0.022-0.001h2.954c0.01,0,1.06,0.028,1.652,0.642
	c0.318,0.331,0.461,0.792,0.438,1.411l1.999,0.074c0.043-1.158-0.302-2.151-0.997-2.873c-0.504-0.523-1.105-0.82-1.647-0.998
	c0.067-0.067,0.138-0.128,0.203-0.199c1.607-1.746,2.187-4.329,2.383-6.339c0.376,0.158,0.789,0.246,1.222,0.246h5.562
	c1.403,0,2.545-1.142,2.545-2.544C1370.682,283.863,1370.418,283.224,1369.938,282.743z M1358.943,280.761
	c-0.109-0.19-0.163-0.415-0.184-0.641c0.185,0.133,0.351,0.294,0.459,0.484c0.109,0.19,0.163,0.415,0.184,0.642
	C1359.217,281.113,1359.052,280.951,1358.943,280.761z M1340.267,295.621c0.564-1.328,0.341-3.019-0.668-5.038
	c-0.751-1.503-0.882-2.789-0.367-3.622c0.437-0.707,1.371-1.112,2.562-1.112c2.518,0,5.181,2.663,5.181,5.181
	C1346.974,292.67,1344.084,294.652,1340.267,295.621z M1357.495,291.827c-0.802,0.869-1.829,1.292-3.139,1.294h-0.026
	c-1.551-0.004-3.411-0.692-5.407-1.562c0.027-0.175,0.051-0.35,0.051-0.529c0-2.992-2.426-5.933-5.311-6.869
	c3.327-0.865,6.183,0.695,9.975,4.487c1.096,1.096,2.182,1.156,2.9,1.016c1.02-0.201,1.922-0.94,2.663-1.811
	C1358.952,289.272,1358.457,290.785,1357.495,291.827z M1368.137,285.087h-5.562c-0.635,0-1.149-0.512-1.159-1.144
	c-0.001-0.013-0.001-0.017-0.002-0.027c0.005-0.637,0.523-1.154,1.161-1.154c1.071,0,1.575,0.311,2.108,0.639
	c0.454,0.28,0.969,0.597,1.693,0.597h1.761c0.146,0,0.283,0.057,0.386,0.16c0.103,0.103,0.159,0.239,0.159,0.385
	C1368.682,284.842,1368.437,285.087,1368.137,285.087z"/>
<path fill="#1B2955" d="M2129.134,134.211c-0.481-0.481-1.121-0.747-1.801-0.747h-1.761c-0.15,0-0.324-0.103-0.644-0.3
	c-0.605-0.373-1.519-0.936-3.157-0.936c-0.423,0-0.826,0.087-1.196,0.238c-0.039-0.363-0.132-0.737-0.297-1.107l-0.011-0.131
	l-0.023,0.056c-0.033-0.068-0.054-0.138-0.093-0.206c-0.833-1.457-2.614-1.875-2.814-1.918l-0.875-0.188l-0.283,0.85
	c-0.065,0.195-0.608,1.942,0.225,3.399c0.577,1.011,1.601,1.515,2.248,1.748c-0.006,0.048-0.01,0.097-0.015,0.146
	c-0.557,1.284-2.009,3.803-3.287,4.054c-0.226,0.045-0.587,0.045-1.1-0.467c-8.642-8.641-13.905-6.166-23.161,3.09
	c-2.9,2.9-5.472,4.191-7.43,3.736c-2.293-0.534-3.267-3.32-3.276-3.349l-1.896,0.636c0.052,0.157,1.322,3.859,4.702,4.657
	c0.418,0.099,0.847,0.148,1.285,0.148c2.4,0,5.094-1.479,8.029-4.414l0,0c1.165-1.164,2.487-1.681,3.904-1.786
	c0.141,0.474,0.325,0.975,0.6,1.524c0.553,1.105,1.09,2.623,0.508,3.572c-0.577,0.941-2.15,1.158-2.704,1.162h-2.414l10.978,10.978
	l1.414-1.414l-7.698-7.699c4.239-0.49,8.473-2.279,10.229-4.685c2.163,0.942,4.218,1.695,6.109,1.724v0.006h0.098
	c0.005,0,0.011,0.001,0.017,0.001c0.007,0,0.014-0.001,0.022-0.001h2.954c0.01,0,1.06,0.028,1.652,0.642
	c0.318,0.331,0.461,0.792,0.438,1.411l1.999,0.074c0.043-1.158-0.302-2.151-0.997-2.873c-0.504-0.523-1.105-0.82-1.647-0.998
	c0.067-0.067,0.138-0.128,0.203-0.199c1.607-1.746,2.187-4.329,2.383-6.339c0.376,0.158,0.789,0.246,1.222,0.246h5.562
	c1.403,0,2.545-1.142,2.545-2.544C2129.879,135.331,2129.615,134.692,2129.134,134.211z M2118.139,132.229
	c-0.109-0.19-0.163-0.415-0.184-0.641c0.185,0.133,0.351,0.294,0.459,0.484c0.109,0.19,0.163,0.415,0.184,0.642
	C2118.414,132.58,2118.248,132.419,2118.139,132.229z M2099.463,147.089c0.564-1.328,0.341-3.019-0.668-5.038
	c-0.751-1.503-0.882-2.789-0.367-3.622c0.437-0.707,1.371-1.112,2.562-1.112c2.518,0,5.181,2.663,5.181,5.181
	C2106.171,144.137,2103.28,146.12,2099.463,147.089z M2116.692,143.295c-0.802,0.869-1.829,1.292-3.139,1.294h-0.026
	c-1.551-0.004-3.411-0.692-5.407-1.562c0.027-0.175,0.051-0.35,0.051-0.529c0-2.992-2.426-5.933-5.311-6.869
	c3.327-0.865,6.183,0.695,9.975,4.487c1.096,1.096,2.182,1.156,2.9,1.016c1.02-0.201,1.922-0.94,2.663-1.811
	C2118.148,140.739,2117.653,142.253,2116.692,143.295z M2127.333,136.554h-5.562c-0.635,0-1.149-0.512-1.159-1.144
	c-0.001-0.013-0.001-0.017-0.002-0.027c0.005-0.637,0.523-1.154,1.161-1.154c1.071,0,1.575,0.311,2.108,0.639
	c0.454,0.28,0.969,0.597,1.693,0.597h1.761c0.146,0,0.283,0.057,0.386,0.16c0.103,0.103,0.159,0.239,0.159,0.385
	C2127.878,136.31,2127.633,136.554,2127.333,136.554z"/>
<path fill="#1B2955" d="M1898.649,113.292c0,1.402,1.142,2.544,2.545,2.544h5.562c0.433,0,0.846-0.088,1.222-0.246
	c0.195,2.009,0.775,4.593,2.383,6.339c0.065,0.071,0.135,0.132,0.203,0.199c-0.542,0.178-1.143,0.475-1.647,0.998
	c-0.695,0.722-1.04,1.715-0.997,2.873l1.999-0.074c-0.023-0.619,0.12-1.08,0.438-1.411c0.592-0.614,1.642-0.642,1.652-0.642h2.954
	c0.008,0,0.015,0.001,0.022,0.001c0.005,0,0.011-0.001,0.016-0.001h0.098v-0.006c1.891-0.029,3.945-0.782,6.109-1.724
	c1.756,2.405,5.99,4.195,10.229,4.685l-7.698,7.699l1.414,1.414l10.978-10.978h-2.414c-0.554-0.004-2.126-0.221-2.704-1.162
	c-0.582-0.949-0.045-2.466,0.508-3.572c0.274-0.549,0.458-1.05,0.6-1.524c1.417,0.104,2.74,0.622,3.904,1.786l0,0
	c2.935,2.935,5.628,4.414,8.029,4.414c0.438,0,0.867-0.049,1.285-0.148c3.38-0.798,4.65-4.5,4.702-4.657l-1.896-0.636
	c-0.009,0.028-0.983,2.815-3.276,3.349c-1.958,0.455-4.53-0.836-7.43-3.736c-9.256-9.256-14.52-11.731-23.161-3.09
	c-0.513,0.512-0.875,0.513-1.1,0.467c-1.277-0.251-2.729-2.771-3.287-4.054c-0.004-0.049-0.008-0.098-0.015-0.146
	c0.646-0.233,1.671-0.737,2.248-1.748c0.833-1.457,0.29-3.204,0.225-3.399l-0.283-0.85l-0.875,0.188
	c-0.201,0.043-1.982,0.462-2.814,1.918c-0.038,0.067-0.06,0.137-0.093,0.206l-0.023-0.056l-0.011,0.131
	c-0.166,0.369-0.259,0.744-0.297,1.107c-0.369-0.152-0.772-0.238-1.196-0.238c-1.638,0-2.552,0.563-3.157,0.936
	c-0.32,0.197-0.494,0.3-0.644,0.3h-1.761c-0.681,0-1.32,0.265-1.801,0.747C1898.912,111.974,1898.648,112.613,1898.649,113.292z
	 M1909.929,109.995c0.021-0.227,0.075-0.451,0.184-0.642c0.109-0.19,0.274-0.351,0.459-0.484c-0.021,0.227-0.075,0.451-0.184,0.641
	C1910.279,109.701,1910.114,109.862,1909.929,109.995z M1922.356,119.78c0-2.518,2.663-5.181,5.181-5.181
	c1.192,0,2.125,0.405,2.562,1.112c0.515,0.833,0.384,2.119-0.367,3.622c-1.009,2.019-1.233,3.709-0.668,5.038
	C1925.247,123.402,1922.356,121.419,1922.356,119.78z M1910.129,116.603c0.74,0.871,1.643,1.61,2.663,1.811
	c0.718,0.141,1.805,0.08,2.9-1.016c3.792-3.792,6.647-5.352,9.975-4.487c-2.885,0.937-5.311,3.877-5.311,6.869
	c0,0.179,0.024,0.354,0.051,0.529c-1.996,0.87-3.856,1.557-5.407,1.562h-0.026c-1.31-0.003-2.337-0.426-3.139-1.294
	C1910.874,119.534,1910.379,118.021,1910.129,116.603z M1900.649,113.291c0-0.146,0.056-0.282,0.159-0.385
	c0.103-0.103,0.24-0.16,0.386-0.16h1.761c0.724,0,1.239-0.317,1.693-0.597c0.533-0.328,1.037-0.639,2.108-0.639
	c0.638,0,1.156,0.517,1.161,1.154c-0.001,0.011-0.001,0.014-0.002,0.027c-0.01,0.632-0.525,1.144-1.159,1.144h-5.562
	C1900.894,113.836,1900.649,113.592,1900.649,113.291z"/>
<path fill="#1B2955" d="M1218.076,180.792c0,1.402,1.142,2.544,2.545,2.544h5.562c0.433,0,0.846-0.088,1.222-0.246
	c0.195,2.009,0.775,4.593,2.383,6.339c0.065,0.071,0.135,0.132,0.203,0.199c-0.542,0.178-1.143,0.475-1.647,0.998
	c-0.695,0.722-1.04,1.715-0.997,2.873l1.999-0.074c-0.023-0.619,0.12-1.08,0.438-1.411c0.592-0.614,1.642-0.642,1.652-0.642h2.954
	c0.008,0,0.015,0.001,0.022,0.001c0.005,0,0.011-0.001,0.016-0.001h0.098v-0.006c1.891-0.029,3.945-0.782,6.109-1.724
	c1.756,2.405,5.99,4.195,10.229,4.685l-7.698,7.699l1.414,1.414l10.978-10.978h-2.414c-0.554-0.004-2.126-0.221-2.704-1.162
	c-0.582-0.949-0.045-2.466,0.508-3.572c0.274-0.549,0.458-1.05,0.6-1.524c1.417,0.104,2.74,0.622,3.904,1.786l0,0
	c2.935,2.935,5.628,4.414,8.029,4.414c0.438,0,0.867-0.049,1.285-0.148c3.38-0.798,4.65-4.5,4.702-4.657l-1.896-0.636
	c-0.009,0.028-0.983,2.815-3.276,3.349c-1.958,0.455-4.53-0.836-7.43-3.736c-9.256-9.256-14.52-11.731-23.161-3.09
	c-0.513,0.512-0.875,0.513-1.1,0.467c-1.277-0.251-2.729-2.771-3.287-4.054c-0.004-0.049-0.008-0.098-0.015-0.146
	c0.646-0.233,1.671-0.737,2.248-1.748c0.833-1.457,0.29-3.204,0.225-3.399l-0.283-0.85l-0.875,0.188
	c-0.201,0.043-1.982,0.462-2.814,1.918c-0.038,0.067-0.06,0.137-0.093,0.206l-0.023-0.056l-0.011,0.131
	c-0.166,0.369-0.259,0.744-0.297,1.107c-0.369-0.152-0.772-0.238-1.196-0.238c-1.638,0-2.552,0.563-3.157,0.936
	c-0.32,0.197-0.494,0.3-0.644,0.3h-1.761c-0.681,0-1.32,0.265-1.801,0.747C1218.339,179.474,1218.075,180.113,1218.076,180.792z
	 M1229.356,177.495c0.021-0.227,0.075-0.451,0.184-0.642c0.109-0.19,0.274-0.351,0.459-0.484c-0.021,0.227-0.075,0.451-0.184,0.641
	C1229.706,177.201,1229.54,177.362,1229.356,177.495z M1241.783,187.28c0-2.518,2.663-5.181,5.181-5.181
	c1.192,0,2.125,0.405,2.562,1.112c0.515,0.833,0.384,2.119-0.367,3.622c-1.009,2.019-1.233,3.709-0.668,5.038
	C1244.674,190.902,1241.783,188.919,1241.783,187.28z M1229.556,184.103c0.74,0.871,1.643,1.61,2.663,1.811
	c0.718,0.141,1.805,0.08,2.9-1.016c3.792-3.792,6.647-5.352,9.975-4.487c-2.885,0.937-5.311,3.877-5.311,6.869
	c0,0.179,0.024,0.354,0.051,0.529c-1.996,0.87-3.856,1.557-5.407,1.562h-0.026c-1.31-0.003-2.337-0.426-3.139-1.294
	C1230.301,187.034,1229.806,185.521,1229.556,184.103z M1220.076,180.791c0-0.146,0.056-0.282,0.159-0.385
	c0.103-0.103,0.24-0.16,0.386-0.16h1.761c0.724,0,1.239-0.317,1.693-0.597c0.533-0.328,1.037-0.639,2.108-0.639
	c0.638,0,1.156,0.517,1.161,1.154c-0.001,0.011-0.001,0.014-0.002,0.027c-0.01,0.632-0.525,1.144-1.159,1.144h-5.562
	C1220.321,181.336,1220.076,181.092,1220.076,180.791z"/>
<path fill="#1B2955" d="M614.541,282.897c0,1.402,1.142,2.544,2.545,2.544h5.562c0.433,0,0.846-0.088,1.222-0.246
	c0.195,2.009,0.775,4.593,2.383,6.339c0.065,0.071,0.135,0.132,0.203,0.199c-0.542,0.178-1.143,0.475-1.647,0.998
	c-0.695,0.722-1.04,1.715-0.997,2.873l1.999-0.074c-0.023-0.619,0.12-1.08,0.438-1.411c0.592-0.614,1.642-0.642,1.652-0.642h2.954
	c0.008,0,0.014,0.001,0.022,0.001c0.005,0,0.011-0.001,0.016-0.001h0.098v-0.006c1.891-0.029,3.945-0.782,6.109-1.724
	c1.756,2.405,5.99,4.195,10.229,4.685l-7.698,7.699l1.414,1.414l10.978-10.978h-2.414c-0.554-0.004-2.126-0.221-2.704-1.162
	c-0.582-0.949-0.045-2.466,0.508-3.572c0.274-0.549,0.458-1.05,0.6-1.524c1.417,0.104,2.74,0.622,3.904,1.786l0,0
	c2.935,2.935,5.628,4.414,8.029,4.414c0.438,0,0.867-0.049,1.285-0.148c3.38-0.798,4.65-4.5,4.702-4.657l-1.896-0.636
	c-0.009,0.028-0.983,2.815-3.276,3.349c-1.958,0.455-4.53-0.836-7.43-3.736c-9.256-9.256-14.52-11.731-23.161-3.09
	c-0.513,0.512-0.875,0.513-1.1,0.467c-1.277-0.251-2.729-2.771-3.287-4.054c-0.004-0.049-0.008-0.098-0.015-0.146
	c0.646-0.233,1.671-0.737,2.248-1.748c0.833-1.457,0.29-3.204,0.225-3.399l-0.283-0.85l-0.875,0.188
	c-0.201,0.043-1.982,0.462-2.814,1.918c-0.038,0.067-0.06,0.137-0.093,0.206l-0.023-0.056l-0.011,0.131
	c-0.166,0.369-0.259,0.744-0.297,1.107c-0.369-0.152-0.772-0.238-1.196-0.238c-1.638,0-2.552,0.563-3.157,0.936
	c-0.32,0.197-0.494,0.3-0.644,0.3h-1.761c-0.681,0-1.32,0.265-1.801,0.747C614.804,281.579,614.54,282.218,614.541,282.897z
	 M625.821,279.6c0.021-0.227,0.075-0.451,0.184-0.642c0.109-0.19,0.274-0.351,0.459-0.484c-0.021,0.227-0.075,0.451-0.184,0.641
	C626.171,279.306,626.005,279.467,625.821,279.6z M638.248,289.385c0-2.518,2.663-5.181,5.181-5.181
	c1.192,0,2.125,0.405,2.562,1.112c0.515,0.833,0.384,2.119-0.367,3.622c-1.009,2.019-1.233,3.709-0.668,5.038
	C641.138,293.007,638.248,291.024,638.248,289.385z M626.021,286.208c0.74,0.871,1.643,1.61,2.663,1.811
	c0.718,0.141,1.805,0.08,2.9-1.016c3.792-3.792,6.647-5.352,9.975-4.487c-2.885,0.937-5.311,3.877-5.311,6.869
	c0,0.179,0.024,0.354,0.051,0.529c-1.996,0.87-3.856,1.557-5.407,1.562h-0.026c-1.31-0.003-2.337-0.426-3.138-1.294
	C626.766,289.139,626.27,287.626,626.021,286.208z M616.541,282.896c0-0.146,0.056-0.282,0.159-0.385
	c0.103-0.103,0.24-0.16,0.386-0.16h1.761c0.724,0,1.239-0.317,1.693-0.597c0.533-0.328,1.037-0.639,2.108-0.639
	c0.638,0,1.156,0.517,1.161,1.154c-0.001,0.011-0.001,0.014-0.002,0.027c-0.011,0.632-0.525,1.144-1.159,1.144h-5.562
	C616.786,283.441,616.541,283.197,616.541,282.896z"/>
</svg>
