<?xml version="1.0" encoding="utf-8"?>
<!-- Generator: Adobe Illustrator 21.1.0, SVG Export Plug-In . SVG Version: 6.00 Build 0) -->
<!DOCTYPE svg PUBLIC "-//W3C//DTD SVG 1.1//EN" "http://www.w3.org/Graphics/SVG/1.1/DTD/svg11.dtd">
<svg version="1.1" id="Layer_1" xmlns="http://www.w3.org/2000/svg" xmlns:xlink="http://www.w3.org/1999/xlink" x="0px" y="0px" viewBox="0 0 96 96" style="enable-background:new 0 0 96 96;" xml:space="preserve">
	<style type="text/css">
		.st0{display:none;fill:#FF0000;stroke:#000000;stroke-miterlimit:10;}
		.st1{fill:#282828;}
	</style>
	<rect x="-62" y="-186" class="st0" width="590" height="477" />
	<path d="M77.2,38l-6.4-6.4c-0.1-0.1-0.2-0.1-0.4-0.1H52.2v-9.1c0-0.6-0.4-1-1-1h-6.4c-0.6,0-1,0.4-1,1v2.7H22.4
	c-0.1,0-0.3,0.1-0.4,0.1l-6.4,6.4c-0.2,0.2-0.2,0.5,0,0.7l6.4,6.4c0.1,0.1,0.2,0.1,0.4,0.1h21.4v34.7c0,0.6,0.4,1,1,1h6.4
	c0.6,0,1-0.4,1-1V45.3h18.2c0.1,0,0.3-0.1,0.4-0.1l6.4-6.4C77.3,38.6,77.3,38.2,77.2,38z M43.8,37.9H22.6L16.7,32l5.9-5.9h21.2V37.9
	z M50.2,72.6h-4.4V23.4h4.4v8.1H48c-0.3,0-0.5,0.2-0.5,0.5v12.8c0,0.3,0.2,0.5,0.5,0.5h2.2V72.6z M70.2,44.3H48.5V32.5h21.7l5.9,5.9
	L70.2,44.3z" />
</svg>
