<?xml version="1.0" encoding="utf-8"?>
<!-- Generator: Adobe Illustrator 21.1.0, SVG Export Plug-In . SVG Version: 6.00 Build 0)  -->
<!DOCTYPE svg PUBLIC "-//W3C//DTD SVG 1.1//EN" "http://www.w3.org/Graphics/SVG/1.1/DTD/svg11.dtd">
<svg version="1.1" id="Layer_1" xmlns="http://www.w3.org/2000/svg" xmlns:xlink="http://www.w3.org/1999/xlink" x="0px" y="0px"
	 viewBox="0 0 96 96" style="enable-background:new 0 0 96 96;" xml:space="preserve">
<style type="text/css">
	.st0{display:none;fill:#FF0000;stroke:#000000;stroke-miterlimit:10;}
	.st1{fill:#282828;}
</style>
<rect x="-190" y="-186" class="st0" width="590" height="477"/>
<g>
	<path d="M81,47.5c-0.1-0.4-0.4-0.6-0.8-0.7l-17.6-2.6l-7.9-15.9c-0.3-0.7-1.5-0.7-1.8,0l-7.9,15.9l-17.6,2.6
		c-0.4,0.1-0.7,0.3-0.8,0.7c-0.1,0.4,0,0.8,0.3,1l12.7,12.4l-3,17.5c-0.1,0.4,0.1,0.8,0.4,1c0.2,0.1,0.4,0.2,0.6,0.2
		c0.2,0,0.3,0,0.5-0.1l15.7-8.3l15.7,8.3c0.3,0.2,0.7,0.1,1.1-0.1c0.3-0.2,0.5-0.6,0.4-1l-3-17.5l12.7-12.4
		C81,48.3,81.1,47.9,81,47.5z M66.2,59.9c-0.2,0.2-0.3,0.6-0.3,0.9l2.7,16l-14.4-7.6c-0.1-0.1-0.3-0.1-0.5-0.1s-0.3,0-0.5,0.1
		L39,76.8l2.7-16c0.1-0.3-0.1-0.7-0.3-0.9L29.8,48.5l16.1-2.3c0.3,0,0.6-0.3,0.8-0.5l7.2-14.6L61,45.6c0.1,0.3,0.4,0.5,0.8,0.5
		l16.1,2.3L66.2,59.9z"/>
	<path d="M39.9,39.7c0.1,0,0.2,0.1,0.2,0.1c0.1,0,0.2,0,0.3-0.1c0.2-0.1,0.2-0.3,0.2-0.5L39.2,31l5.9-5.8c0.1-0.1,0.2-0.3,0.1-0.5
		c-0.1-0.2-0.2-0.3-0.4-0.3l-8.2-1.2L33,15.8c-0.2-0.3-0.7-0.3-0.9,0l-3.7,7.4l-8.2,1.2c-0.2,0-0.3,0.2-0.4,0.3
		c-0.1,0.2,0,0.4,0.1,0.5l5.9,5.8l-1.4,8.2c0,0.2,0,0.4,0.2,0.5c0.2,0.1,0.4,0.1,0.5,0l7.3-3.8L39.9,39.7z M25.7,38.3l1.3-7.4
		c0-0.2,0-0.3-0.1-0.4l-5.4-5.2l7.4-1.1c0.2,0,0.3-0.1,0.4-0.3l3.3-6.7l3.3,6.7c0.1,0.1,0.2,0.2,0.4,0.3l7.4,1.1l-5.4,5.2
		c-0.1,0.1-0.2,0.3-0.1,0.4l1.3,7.4l-6.7-3.5c-0.1,0-0.2-0.1-0.2-0.1s-0.2,0-0.2,0.1L25.7,38.3z"/>
</g>
</svg>
