<?xml version="1.0" encoding="utf-8"?>
<!-- Generator: Adobe Illustrator 21.1.0, SVG Export Plug-In . SVG Version: 6.00 Build 0)  -->
<!DOCTYPE svg PUBLIC "-//W3C//DTD SVG 1.1//EN" "http://www.w3.org/Graphics/SVG/1.1/DTD/svg11.dtd">
<svg version="1.1" id="Layer_1" xmlns="http://www.w3.org/2000/svg" xmlns:xlink="http://www.w3.org/1999/xlink" x="0px" y="0px"
	 viewBox="0 0 96 96" style="enable-background:new 0 0 96 96;" xml:space="preserve">
<style type="text/css">
	.st0{display:none;fill:#FF0000;stroke:#000000;stroke-miterlimit:10;}
	.st1{fill:#282828;}
</style>
<rect x="-318" y="-186" class="st0" width="590" height="477"/>
<g>
	<path d="M74.1,34.3l-16-9.6c-0.3-0.2-0.7-0.2-1,0l-18.7,9.4l-15.5-9.3c-0.3-0.2-0.7-0.2-1,0c-0.3,0.2-0.5,0.5-0.5,0.9v35.2
		c0,0.4,0.2,0.7,0.5,0.9l16,9.6c0.2,0.1,0.3,0.1,0.5,0.1c0.2,0,0.3,0,0.4-0.1l18.7-9.4l15.5,9.3c0.3,0.2,0.7,0.2,1,0
		c0.3-0.2,0.5-0.5,0.5-0.9V35.2C74.6,34.8,74.4,34.5,74.1,34.3z M37.9,59.9l-0.4,0.2l0.4,0.8v8l-14.5-8.7V27.4l14.5,8.7c0,0,0,0,0,0
		V59.9z M57.1,35l-0.5,0.7l0.5,0.4v23.9L38.9,69V61l0.5-0.7l-0.5-0.4V36.1L57.1,27V35z M72.6,68.6l-14.5-8.7c0,0,0,0,0,0V36.1
		l0.4-0.2l-0.4-0.8v-8l14.5,8.7V68.6z"/>
	<rect x="36" y="55.9" transform="matrix(0.8944 -0.4472 0.4472 0.8944 -21.6393 22.3421)" width="1" height="2.2"/>
	<rect x="32.1" y="48.2" transform="matrix(0.8944 -0.4472 0.4472 0.8944 -18.5871 19.7948)" width="1" height="2.2"/>
	<rect x="34.1" y="52.1" transform="matrix(0.8944 -0.4472 0.4472 0.8944 -20.1132 21.0685)" width="1" height="2.2"/>
	<rect x="49.4" y="44.3" transform="matrix(0.5998 -0.8001 0.8001 0.5998 -15.6772 58.2529)" width="2" height="1"/>
	<rect x="42.2" y="53.9" transform="matrix(0.6005 -0.7996 0.7996 0.6005 -26.241 56.2794)" width="2" height="1"/>
	<rect x="44.6" y="50.7" transform="matrix(0.5998 -0.8001 0.8001 0.5998 -22.7188 56.9734)" width="2" height="1"/>
	<rect x="39.8" y="57.1" transform="matrix(0.5998 -0.8001 0.8001 0.5998 -29.7601 55.694)" width="2" height="1"/>
	<rect x="51.8" y="41.1" transform="matrix(0.5998 -0.8001 0.8001 0.5998 -12.1565 58.8927)" width="2" height="1"/>
	<rect x="47" y="47.5" transform="matrix(0.5998 -0.8001 0.8001 0.5998 -19.1979 57.613)" width="2" height="1"/>
	<rect x="54.2" y="37.9" transform="matrix(0.5998 -0.8001 0.8001 0.5998 -8.6356 59.5323)" width="2" height="1"/>
	<rect x="60.9" y="41.8" transform="matrix(0.8944 -0.4472 0.4472 0.8944 -12.6843 31.999)" width="1" height="2.2"/>
	<rect x="62.9" y="45.7" transform="matrix(0.8944 -0.4472 0.4472 0.8944 -14.2104 33.2727)" width="1" height="2.2"/>
	<rect x="59" y="37.9" transform="matrix(0.8944 -0.4472 0.4472 0.8944 -11.1582 30.7254)" width="1" height="2.2"/>
	<path d="M32.5,41.6c0-2-1.7-3.7-3.7-3.7c-2,0-3.7,1.7-3.7,3.7c0,2,1.7,3.7,3.7,3.7c0.4,0,0.8-0.1,1.2-0.2l0.7,1.5l0.9-0.4l-0.7-1.5
		C31.9,44,32.5,42.9,32.5,41.6z M28.8,44.3c-1.5,0-2.7-1.2-2.7-2.7s1.2-2.7,2.7-2.7s2.7,1.2,2.7,2.7S30.3,44.3,28.8,44.3z"/>
	<path d="M63.5,54.4c0,2,1.7,3.7,3.7,3.7c2,0,3.7-1.7,3.7-3.7c0-2-1.7-3.7-3.7-3.7c-0.4,0-0.8,0.1-1.2,0.2l-0.7-1.5l-0.9,0.4
		l0.7,1.5C64.1,52,63.5,53.1,63.5,54.4z M67.2,51.7c1.5,0,2.7,1.2,2.7,2.7s-1.2,2.7-2.7,2.7s-2.7-1.2-2.7-2.7S65.7,51.7,67.2,51.7z"
		/>
</g>
</svg>
