<?xml version="1.0" encoding="utf-8"?>
<!-- Generator: Adobe Illustrator 21.1.0, SVG Export Plug-In . SVG Version: 6.00 Build 0)  -->
<!DOCTYPE svg PUBLIC "-//W3C//DTD SVG 1.1//EN" "http://www.w3.org/Graphics/SVG/1.1/DTD/svg11.dtd">
<svg version="1.1" id="Layer_1" xmlns="http://www.w3.org/2000/svg" xmlns:xlink="http://www.w3.org/1999/xlink" x="0px" y="0px"
	 viewBox="0 0 96 96" style="enable-background:new 0 0 96 96;" xml:space="preserve">
<style type="text/css">
	.st0{display:none;fill:#FF0000;stroke:#000000;stroke-miterlimit:10;}
	.st1{fill:#282828;}
</style>
<rect x="-62" y="-314" class="st0" width="590" height="477"/>
<g>
	<path d="M54.8,31.3c-0.2-0.2-0.4-0.3-0.7-0.3c-0.3,0-0.5,0.1-0.7,0.3L40.1,45.1l-7.4-7.4c-0.4-0.4-1-0.4-1.4,0l-16,16l1.4,1.4
		L32,39.8l6.8,6.8L28.1,57.8l1.4,1.4L42.1,46l5.9,5.9l6.4-6.4l3.2,3.2l5.8-5.8l9.1,9.3c-3.1,5.1-16.7,24.4-40.3,14.6l-0.4,0.9
		c4.8,2,9.3,2.8,13.3,2.8c15.9,0,25.3-13.1,28.1-17.6l6.1,6.2l1.4-1.4L54.8,31.3z M57.6,47.3l-3.2-3.2L48,50.5l-5.2-5.2l11.3-11.8
		l8.6,8.8L57.6,47.3z"/>
	<path d="M70.4,32.5c3.8,0,6.9-3.1,6.9-6.9s-3.1-6.9-6.9-6.9s-6.9,3.1-6.9,6.9S66.6,32.5,70.4,32.5z M70.4,19.7
		c3.3,0,5.9,2.6,5.9,5.9s-2.6,5.9-5.9,5.9s-5.9-2.6-5.9-5.9S67.1,19.7,70.4,19.7z"/>
</g>
</svg>
