<?xml version="1.0" encoding="utf-8"?>
<!-- Generator: Adobe Illustrator 21.1.0, SVG Export Plug-In . SVG Version: 6.00 Build 0)  -->
<!DOCTYPE svg PUBLIC "-//W3C//DTD SVG 1.1//EN" "http://www.w3.org/Graphics/SVG/1.1/DTD/svg11.dtd">
<svg version="1.1" id="Layer_1" xmlns="http://www.w3.org/2000/svg" xmlns:xlink="http://www.w3.org/1999/xlink" x="0px" y="0px"
	 viewBox="0 0 96 96" style="enable-background:new 0 0 96 96;" xml:space="preserve">
<style type="text/css">
	.st0{display:none;fill:#FF0000;stroke:#000000;stroke-miterlimit:10;}
	.st1{fill:#282828;}
</style>
<rect x="-190" y="-314" class="st0" width="590" height="477"/>
<g>
	<path d="M84.7,46.1c-0.3-4.3-3.5-7.7-7.6-8.6l-0.4-6.8c0-0.8-0.7-1.4-1.5-1.4s-1.5,0.6-1.5,1.4l-0.4,6.8c-2.5,0.5-4.7,2-6.1,4.2
		h-4.9V40v-3.2c0-7.1-5.3-13.1-12.2-14.1l-0.6-11.5c0-0.8-0.7-1.4-1.5-1.4s-1.5,0.6-1.5,1.4l-0.6,11.5c-6.9,1-12.2,7-12.2,14.1V40
		v1.7h-4.9c-1.4-2.2-3.6-3.7-6.1-4.2l-0.4-6.8c0-0.8-0.7-1.4-1.5-1.4s-1.5,0.6-1.5,1.4l-0.4,6.8c-4.1,0.8-7.2,4.3-7.6,8.6
		c0,0.1,0,0.2,0,0.3v19.2c0,0.8,0.7,1.5,1.5,1.5H16h2.8h2.1v1.7c0,0.8,0.7,1.5,1.5,1.5h11.3V72c0,0.8,0.7,1.5,1.5,1.5h3.2h6.4h6.4
		h6.4h3.2c0.8,0,1.5-0.7,1.5-1.5v-1.7h11.3c0.8,0,1.5-0.7,1.5-1.5v-1.7h2.1H80h3.2c0.8,0,1.5-0.7,1.5-1.5V46.8v-0.4
		C84.7,46.3,84.7,46.2,84.7,46.1z M27.1,42.7h-3.5c-0.3-1.4-0.6-2.4-1.1-3.2C24.4,39.9,26,41.1,27.1,42.7z M19.1,39.5
		c-0.9,1.5-1.4,4.1-1.5,6.8h-4.3C13.5,43,15.9,40.2,19.1,39.5z M21.9,65.1h-5.4V52.8c0-1.5,1.2-2.7,2.7-2.7s2.7,1.2,2.7,2.7V65.1z
		 M21.9,50.3c-0.7-0.7-1.6-1.2-2.7-1.2c-2,0-3.7,1.7-3.7,3.7v12.3h-2.2V47.3h8.6V50.3z M21.9,42.7v3.6h-3.3c0.1-4.3,1.3-7,2.2-7
		c0.6,0,1.3,1.2,1.8,3.4H21.9z M31.5,68.3h-5.4V52.8c0-1.5,1.2-2.7,2.7-2.7s2.7,1.2,2.7,2.7V68.3z M34.7,68.3h-2.2V52.8
		c0-2-1.7-3.7-3.7-3.7c-2,0-3.7,1.7-3.7,3.7v15.5h-2.2v-2.2V52.8v-5.9h11.8V68.3z M34.7,45.9H22.9v-2.2h11.8V45.9z M60.3,36.3h-5.8
		l-1.8-0.9c-0.2-4.4-1.1-8.7-2.7-10.7C55.7,25.6,60,30.4,60.3,36.3z M48,20.7l0.1,2.8h-0.3L48,20.7z M48,24.5
		c1.6,0,3.4,4.1,3.7,10.4L48,33l-3.7,1.9C44.6,28.6,46.4,24.5,48,24.5z M46,24.7c-1.6,2-2.5,6.4-2.7,10.7l-1.8,0.9h-5.8
		C36,30.4,40.3,25.6,46,24.7z M35.7,37.3h3.8l-3.8,1.9V37.3z M57.1,71.5H38.9v-8.6h18.2V71.5z M38.9,61.9c0.1-2.1,0.9-3.9,2.2-5.4
		v5.4H38.9z M42.1,61.9v-6.4c0.7-0.6,1.4-1,2.2-1.4v7.8H42.1z M45.3,61.9v-8.2c0.7-0.2,1.4-0.3,2.2-0.4v8.6H45.3z M48.5,61.9v-8.6
		c0.8,0,1.5,0.2,2.2,0.4v8.2H48.5z M51.7,61.9v-7.8c0.8,0.4,1.5,0.8,2.2,1.4v6.4H51.7z M54.9,61.9v-5.4c1.3,1.5,2.1,3.4,2.2,5.4
		H54.9z M60.3,42.7v4.2v22.4v2.2h-2.2v-9.1c0-5.6-4.5-10.1-10.1-10.1s-10.1,4.5-10.1,10.1v9.1h-2.2v-2.2V46.9v-4.2v-2.4L48,34.2
		l12.3,6.1V42.7z M60.3,39.2l-3.8-1.9h3.8V39.2z M82.7,46.3h-4.3c-0.1-2.7-0.5-5.3-1.5-6.8C80.1,40.2,82.5,43,82.7,46.3z M73.5,39.5
		c-0.5,0.8-0.8,1.8-1.1,3.2h-3.5C70,41.1,71.6,39.9,73.5,39.5z M69.9,68.3h-5.4V52.8c0-1.5,1.2-2.7,2.7-2.7s2.7,1.2,2.7,2.7V68.3z
		 M73.1,52.8v13.3v2.2h-2.2V52.8c0-2-1.7-3.7-3.7-3.7c-2,0-3.7,1.7-3.7,3.7v15.5h-2.2V46.9h11.8V52.8z M73.1,45.9H61.3v-2.2h11.8
		V45.9z M73.4,42.7c0.5-2.2,1.2-3.4,1.8-3.4c0.9,0,2.1,2.7,2.2,7h-3.3v-3.6H73.4z M79.5,65.1h-5.4V52.8c0-1.5,1.2-2.7,2.7-2.7
		s2.7,1.2,2.7,2.7V65.1z M82.7,65.1h-2.2V52.8c0-2-1.7-3.7-3.7-3.7c-1.1,0-2,0.5-2.7,1.2v-3h8.6V65.1z"/>
	<path d="M47.5,45.9h-3.8h-1h-4.8v4.2h4.8h1h3.8h1h3.8h1h4.8v-4.2h-4.8h-1h-3.8H47.5z M42.7,49.1h-3.8v-2.2h3.8V49.1z M47.5,49.1
		h-3.8v-2.2h3.8V49.1z M53.3,46.9h3.8v2.2h-3.8V46.9z M52.3,49.1h-3.8v-2.2h3.8V49.1z"/>
	<path d="M44.3,40c0,2,1.7,3.7,3.7,3.7s3.7-1.7,3.7-3.7S50,36.3,48,36.3S44.3,38,44.3,40z M50.7,40c0,1.5-1.2,2.7-2.7,2.7
		s-2.7-1.2-2.7-2.7s1.2-2.7,2.7-2.7S50.7,38.5,50.7,40z"/>
</g>
</svg>
