<?xml version="1.0" encoding="utf-8"?>
<!-- Generator: Adobe Illustrator 21.1.0, SVG Export Plug-In . SVG Version: 6.00 Build 0)  -->
<!DOCTYPE svg PUBLIC "-//W3C//DTD SVG 1.1//EN" "http://www.w3.org/Graphics/SVG/1.1/DTD/svg11.dtd">
<svg version="1.1" id="Layer_1" xmlns="http://www.w3.org/2000/svg" xmlns:xlink="http://www.w3.org/1999/xlink" x="0px" y="0px"
	 viewBox="0 0 96 96" style="enable-background:new 0 0 96 96;" xml:space="preserve">
<style type="text/css">
	.st0{display:none;fill:#FF0000;stroke:#000000;stroke-miterlimit:10;}
	.st1{fill:#282828;}
</style>
<rect x="-318" y="-314" class="st0" width="590" height="477"/>
<g>
	<path d="M70.4,31h-3.2h-16h-15v-3.2H24.6v3.3c-1.8,0.5-3.2,2.1-3.2,4.1v32c0,2.3,1.9,4.2,4.2,4.2h44.8c2.3,0,4.2-1.9,4.2-4.2v-32
		C74.6,32.9,72.7,31,70.4,31z M58.1,33h8.6v4.9h-8.1c-0.1-0.1-0.3-0.2-0.5-0.3V33z M63,51.2c0,8.3-6.7,15-15,15s-15-6.7-15-15
		s6.7-15,15-15S63,42.9,63,51.2z M26.6,29.8h7.6V31h-7.6V29.8z M23.4,35.2c0-1.2,1-2.2,2.2-2.2h10.6h15h5.9v3.9
		c-2.6-1.7-5.8-2.7-9.1-2.7c-5.6,0-10.5,2.7-13.6,6.9h-11V35.2z M23.4,42.1h10.3C32,44.7,31,47.9,31,51.2c0,4.8,2,9.2,5.3,12.3H23.4
		V42.1z M72.6,67.2c0,1.2-1,2.2-2.2,2.2H25.6c-1.2,0-2.2-1-2.2-2.2v-2.7h14c2.9,2.3,6.6,3.7,10.6,3.7s7.7-1.4,10.6-3.7h14V67.2z
		 M72.6,63.5H59.7C63,60.4,65,56,65,51.2c0-3.3-1-6.5-2.7-9.1h10.3V63.5z M72.6,41.1h-11c-0.6-0.8-1.2-1.5-1.9-2.2h8V33h2.7
		c1.2,0,2.2,1,2.2,2.2V41.1z"/>
	<path d="M34.7,51.2c0,7.3,6,13.3,13.3,13.3s13.3-6,13.3-13.3c0-7.3-6-13.3-13.3-13.3S34.7,43.9,34.7,51.2z M60.3,51.2
		c0,6.8-5.5,12.3-12.3,12.3S35.7,58,35.7,51.2S41.2,38.9,48,38.9S60.3,44.4,60.3,51.2z"/>
	<rect x="42.8" y="52.3" transform="matrix(0.7071 -0.7071 0.7071 0.7071 -22.8078 50.5372)" width="13.6" height="1"/>
	<rect x="50.5" y="55.5" transform="matrix(0.7071 -0.7071 0.7071 0.7071 -24.1332 53.7373)" width="4.5" height="1"/>
</g>
</svg>
