<?xml version="1.0" encoding="utf-8"?>
<!-- Generator: Adobe Illustrator 21.1.0, SVG Export Plug-In . SVG Version: 6.00 Build 0)  -->
<!DOCTYPE svg PUBLIC "-//W3C//DTD SVG 1.1//EN" "http://www.w3.org/Graphics/SVG/1.1/DTD/svg11.dtd">
<svg version="1.1" id="Layer_1" xmlns="http://www.w3.org/2000/svg" xmlns:xlink="http://www.w3.org/1999/xlink" x="0px" y="0px"
	 viewBox="0 0 96 96" style="enable-background:new 0 0 96 96;" xml:space="preserve">
<style type="text/css">
	.st0{display:none;fill:#FF0000;stroke:#000000;stroke-miterlimit:10;}
	.st1{fill:#282828;}
</style>
<rect x="-446" y="-58" class="st0" width="590" height="477"/>
<g>
	<path d="M48,27.8c-9.4,0-17,7.6-17,17c0,6,3.5,10.3,6.3,13.7c1.7,2.1,3.3,3.9,3.3,5.4v6.4c0,2.3,1.9,4.2,4.2,4.2h6.4
		c2.3,0,4.2-1.9,4.2-4.2V64c0-0.8,1.4-2.5,2.7-4.1c2.9-3.6,6.9-8.6,6.9-15C65,35.4,57.4,27.8,48,27.8z M56.5,58.6
		c-1.8,2.3-3.1,3.9-3.1,5.4v6.4c0,1.2-1,2.2-2.2,2.2h-6.4c-1.2,0-2.2-1-2.2-2.2V64c0-2.2-1.7-4.3-3.7-6.7c-2.8-3.3-5.9-7.1-5.9-12.5
		c0-8.3,6.7-15,15-15s15,6.7,15,15C63,50.5,59.3,55.2,56.5,58.6z"/>
	<path d="M48.4,63.6c-0.2-0.2-0.5-0.2-0.7,0l-3.2,3.2c-0.2,0.2-0.2,0.5,0,0.7c0.1,0.1,0.2,0.1,0.4,0.1s0.3,0,0.4-0.1l3.2-3.2
		C48.5,64.2,48.5,63.8,48.4,63.6z"/>
	<path d="M50.8,66.8L47.6,70c-0.2,0.2-0.2,0.5,0,0.7c0.1,0.1,0.2,0.1,0.4,0.1s0.3,0,0.4-0.1l3.2-3.2c0.2-0.2,0.2-0.5,0-0.7
		S51,66.7,50.8,66.8z"/>
	<path d="M31.6,57.2l-6.4,6.4c-0.2,0.2-0.2,0.5,0,0.7c0.1,0.1,0.2,0.1,0.4,0.1s0.3,0,0.4-0.1l6.4-6.4c0.2-0.2,0.2-0.5,0-0.7
		S31.8,57.1,31.6,57.2z"/>
	<path d="M64,32.5c0.1,0,0.3,0,0.4-0.1l6.4-6.4c0.2-0.2,0.2-0.5,0-0.7s-0.5-0.2-0.7,0l-6.4,6.4c-0.2,0.2-0.2,0.5,0,0.7
		C63.7,32.5,63.9,32.5,64,32.5z"/>
	<path d="M64.4,57.2c-0.2-0.2-0.5-0.2-0.7,0s-0.2,0.5,0,0.7l6.4,6.4c0.1,0.1,0.2,0.1,0.4,0.1s0.3,0,0.4-0.1c0.2-0.2,0.2-0.5,0-0.7
		L64.4,57.2z"/>
	<path d="M31.6,32.4c0.1,0.1,0.2,0.1,0.4,0.1s0.3,0,0.4-0.1c0.2-0.2,0.2-0.5,0-0.7L26,25.2c-0.2-0.2-0.5-0.2-0.7,0s-0.2,0.5,0,0.7
		L31.6,32.4z"/>
	<path d="M76.8,44.3h-9.6c-0.3,0-0.5,0.2-0.5,0.5s0.2,0.5,0.5,0.5h9.6c0.3,0,0.5-0.2,0.5-0.5S77.1,44.3,76.8,44.3z"/>
	<path d="M29.3,44.8c0-0.3-0.2-0.5-0.5-0.5h-9.6c-0.3,0-0.5,0.2-0.5,0.5s0.2,0.5,0.5,0.5h9.6C29.1,45.3,29.3,45.1,29.3,44.8z"/>
	<path d="M48,26.1c0.3,0,0.5-0.2,0.5-0.5V16c0-0.3-0.2-0.5-0.5-0.5s-0.5,0.2-0.5,0.5v9.6C47.5,25.9,47.7,26.1,48,26.1z"/>
</g>
</svg>
