<?xml version="1.0" encoding="utf-8"?>
<!-- Generator: Adobe Illustrator 21.1.0, SVG Export Plug-In . SVG Version: 6.00 Build 0) -->
<!DOCTYPE svg PUBLIC "-//W3C//DTD SVG 1.1//EN" "http://www.w3.org/Graphics/SVG/1.1/DTD/svg11.dtd">
<svg version="1.1" id="Layer_1" xmlns="http://www.w3.org/2000/svg" xmlns:xlink="http://www.w3.org/1999/xlink" x="0px" y="0px" viewBox="0 0 96.3 96" style="enable-background:new 0 0 96.3 96;" xml:space="preserve">
	<style type="text/css">
		.st0{display:none;fill:#FF0000;stroke:#000000;stroke-miterlimit:10;}
		.st1{fill:#282828;}
	</style>
	<rect x="-446" y="-186" class="st0" width="590" height="477" />
	<g>
		<circle class="st1" cx="38.2" cy="43.8" r="2.5" />
		<circle class="st1" cx="58.2" cy="43.8" r="2.5" />
		<path class="st1" d="M46.7,56.5h2.5c1.4,0,2.5-1.1,2.5-2.5v-7.5c0-1.4-1.1-2.5-2.5-2.5h-2.5c-1.4,0-2.5,1.1-2.5,2.5V54
		C44.2,55.4,45.3,56.5,46.7,56.5z" />
		<path class="st1" d="M79.2,28.3c0-6.1-4.9-11-11-11c-4.8,0-8.9,3.1-10.4,7.4c-2.9-1.5-6.2-2.4-9.6-2.4c-3.5,0-6.7,0.9-9.6,2.4
		c-1.5-4.3-5.6-7.4-10.4-7.4c-6.1,0-11,4.9-11,11c0,5.9,4.6,10.7,10.4,11c-0.3,1.3-0.4,2.7-0.4,4c0,1.7,0.2,3.4,0.6,5
		c-0.4,1.6-0.6,3.3-0.6,5c0,0.2,0,0.4,0,0.5l0,0.2c0,0.3,0,0.5,0,0.8c0,3.2,0.8,7,2,10.7c-3,2-5.3,4.4-6.4,6.6
		c-1,2.1-0.8,4.1,0.4,5.6c1.8,2.1,3.8,1.8,7.2,1.3c1.8-0.3,4.1-0.6,7.1-0.8c0.5,0.3,1,0.6,1.4,0.8c0.7,0.3,1.3,0.4,2,0.4
		c1.1,0,2.1-0.4,3-1.3c1.1-1.1,1.5-2.2,1.6-3.6c0.1-0.1,0.1-0.2,0.2-0.3c1.8,0.2,3.5,0.2,5.2,0c0,1.5,0.4,2.7,1.6,3.9
		c1.3,1.3,3.1,1.6,4.9,0.9c0.5-0.2,1-0.5,1.5-0.8c3.5,0.1,6,0.5,8,0.8c1.4,0.2,2.5,0.4,3.5,0.4c1.5,0,2.6-0.4,3.7-1.7
		c1.2-1.5,1.4-3.5,0.4-5.6c-1.1-2.4-3.8-5-7.2-7.1c1.2-3.5,1.9-7.1,1.9-10.2c0-0.3,0-0.5,0-0.8l0-0.2c0-0.2,0-0.3,0-0.5
		c0-1.7-0.2-3.4-0.6-5c0.4-1.6,0.6-3.3,0.6-5c0-1.4-0.1-2.7-0.4-4C74.6,39,79.2,34.2,79.2,28.3z M48.2,24.3c10.5,0,19,8.5,19,19
		s-8.5,19-19,19s-19-8.5-19-19S37.7,24.3,48.2,24.3z M19.2,28.3c0-5,4-9,9-9c4,0,7.5,2.7,8.6,6.3c-1.5-1.7-3.7-2.8-6.1-2.8
		c-4.4,0-8,3.6-8,8c0,2.4,1.1,4.6,2.8,6.1C21.8,35.8,19.2,32.3,19.2,28.3z M23.7,30.8c0-3.9,3.1-7,7-7c2.1,0,4,1,5.3,2.5
		c-3.7,2.7-6.6,6.5-7.9,11C25.5,36.2,23.7,33.7,23.7,30.8z M30.1,76.9c-3.3,0.5-4.3,0.6-5.3-0.6c-0.7-0.9-0.8-2-0.1-3.4
		c0.9-1.8,2.8-3.8,5.3-5.5c1.4,3.5,3.3,6.6,5.4,8.8C33.2,76.4,31.5,76.7,30.1,76.9z M56.6,77c-1.1,0.5-2,0.3-2.8-0.4
		c-0.9-0.9-1.1-1.8-1-3.6l0.1-1.3L51.7,72c-2.4,0.5-4.7,0.5-7.1,0l-1.3-0.2l0.1,1.3c0.1,1.8-0.1,2.7-1,3.6c-0.8,0.8-1.6,0.9-2.8,0.4
		c-4.6-1.9-10.5-12.8-10.5-22.2c0-0.2,0-0.4,0-0.7l0-0.1l0-0.1c0-0.1,0-0.2,0-0.3c0-0.1,0-0.3,0-0.4c0-0.3,0-0.7,0-1
		c3.4,7.1,10.6,12,19,12s15.6-4.9,19-12c0,0.3,0,0.7,0,1c0,0.1,0,0.3,0,0.4l0,0.4l0,0.1c0,0.2,0,0.4,0,0.7
		C67.2,64.3,61.3,75.1,56.6,77z M72.7,72.9c0.7,1.4,0.6,2.6-0.1,3.4c-1,1.2-2,1.1-5.3,0.6c-1.6-0.3-3.6-0.6-6.1-0.8
		c2.2-2.3,4.1-5.7,5.5-9.3C69.5,68.7,71.7,70.9,72.7,72.9z M68.3,37.3c-1.3-4.5-4.2-8.4-7.9-11c1.3-1.5,3.2-2.5,5.3-2.5
		c3.9,0,7,3.1,7,7C72.7,33.7,70.8,36.2,68.3,37.3z M70.8,36.9c1.7-1.5,2.8-3.7,2.8-6.1c0-4.4-3.6-8-8-8c-2.4,0-4.6,1.1-6.1,2.8
		c1.1-3.7,4.6-6.3,8.6-6.3c5,0,9,4,9,9C77.2,32.3,74.5,35.8,70.8,36.9z" />
	</g>
</svg>
