<?xml version="1.0" encoding="utf-8"?>
<!-- Generator: Adobe Illustrator 21.1.0, SVG Export Plug-In . SVG Version: 6.00 Build 0) -->
<!DOCTYPE svg PUBLIC "-//W3C//DTD SVG 1.1//EN" "http://www.w3.org/Graphics/SVG/1.1/DTD/svg11.dtd">
<svg version="1.1" id="Layer_1" xmlns="http://www.w3.org/2000/svg" xmlns:xlink="http://www.w3.org/1999/xlink" x="0px" y="0px" viewBox="0 0 144 144" style="enable-background:new 0 0 144 144;" xml:space="preserve">
	<path d="M97.3,69c1.4,1,2.1,3.6,1.1,5s-3.7,1.7-5.1,0.7s-1.8-2.9-0.8-4.3C93.5,69,95.9,68,97.3,69z" />
	<path d="M72,121c-12.5,0-25.1-4.8-34.6-14.3c-19.1-19.1-19.1-50.2,0-69.3l0,0c19.1-19.1,50.2-19.1,69.3,0
	c19.1,19.1,19.1,50.2,0,69.3C97.1,116.2,84.5,121,72,121z M38.1,38.1l0.7,0.7c-18.3,18.3-18.3,48.1,0,66.5
	c18.3,18.3,48.1,18.3,66.5,0c18.3-18.3,18.3-48.1,0-66.5c-18.3-18.3-48.1-18.3-66.5,0L38.1,38.1z" />
	<path d="M72,121c-27,0-49-22-49-49c0-27,22-49,49-49s49,22,49,49C121,99,99,121,72,121z M72,25c-25.9,0-47,21.1-47,47
	c0,25.9,21.1,47,47,47s47-21.1,47-47C119,46.1,97.9,25,72,25z" />
	<path d="M90.8,83.8c-4.1-7.8-4.9-10.3-4.2-14.6c0.7-4.3,9.1-13.4,2.5-16.6c-0.4-0.2-0.8-0.3-1.2-0.3c-2.7,0-5.5,4-8.1,4
	c-1,0-1.9-0.6-2.8-2.2c-1.9-3.5-6.3-6-10.8-6c-3.8,0-7.8,1.9-10.4,6.6c-1.2,2.1-2.2,4.3-4.6,4.6l-2.4,0.4c-4.4,0.7-5.4,6.4-3,9.1
	c2.5,2.7,3.9,3.7,6.2,8.3c2.3,4.6-2.3,16.1,2.3,20.7c1.7,1.7,2.9,2.3,3.9,2.3c1.7,0,2.7-1.9,4.2-3.5l1-1c0.8-0.8,3.2-2.3,7-2.3
	c2.8,0,6.4,0.8,10.8,3.4c2.2,1.3,4.2,1.9,5.8,1.9C92.9,98.6,94.7,91.2,90.8,83.8z" />
	<g>
		<path d="M41.2,61.9c0,1.5-2,2.8-3.6,2.8c-1.5,0-2.8-1.3-2.8-2.8s1.3-2.8,2.8-2.8C39.2,59.1,41.2,60.4,41.2,61.9z" />
	</g>
	<path d="M42.3,54.9c-0.5,0.7-0.4,1.8,0.4,2.3c0.3,0.2,0.7,0.3,1,0.3c0.5,0,1-0.2,1.3-0.7c0.5-0.8,0.6-2.2-0.2-2.7
	c-0.2-0.1-0.4-0.2-0.7-0.2C43.4,53.9,42.7,54.3,42.3,54.9z" />
	<path d="M73.3,96c-0.2-0.2-0.6-0.3-0.9-0.3c-0.9,0-1.9,0.6-2.3,1.3c-0.7,0.9-0.5,2.2,0.5,2.9c0.4,0.3,0.9,0.4,1.4,0.4
	c0.8,0,1.6-0.3,2-0.9C74.7,98.4,74.3,96.7,73.3,96z" />
	<g>
		<path d="M55.9,54.7c-0.3,0.6-0.6,1.1-1,1.7l37.7,37.7c0.2-0.8,0.3-1.6,0.3-2.5l-37-37C56,54.6,55.9,54.7,55.9,54.7z" />
		<path d="M54.1,53.9l0.1-0.2c0.1-0.2,0.2-0.4,0.3-0.6L38.8,37.4l-1.4,1.4l16.1,16.1C53.7,54.6,53.9,54.3,54.1,53.9z" />
		<path d="M94.7,93.3c-0.1,0.8-0.3,1.5-0.6,2.2l11.1,11.1l1.4-1.4L94.7,93.3z" />
	</g>
</svg>
