<?xml version="1.0" encoding="utf-8"?>
<!-- Generator: Adobe Illustrator 21.1.0, SVG Export Plug-In . SVG Version: 6.00 Build 0)  -->
<!DOCTYPE svg PUBLIC "-//W3C//DTD SVG 1.1//EN" "http://www.w3.org/Graphics/SVG/1.1/DTD/svg11.dtd">
<svg version="1.1" id="Layer_1" xmlns="http://www.w3.org/2000/svg" xmlns:xlink="http://www.w3.org/1999/xlink" x="0px" y="0px"
	 viewBox="0 0 144 144" style="enable-background:new 0 0 144 144;" xml:space="preserve">
<style type="text/css">
	.st0{fill:none;stroke:#000000;stroke-width:4;stroke-linecap:round;stroke-linejoin:round;stroke-miterlimit:10;}
	
		.st1{fill:none;stroke:#000000;stroke-width:2;stroke-linecap:round;stroke-linejoin:round;stroke-miterlimit:10;stroke-dasharray:0,4;}
	.st2{stroke:#000000;stroke-miterlimit:10;}
	.st3{fill:#FFFFFF;}
	.st4{fill:none;stroke:#424143;stroke-width:2;stroke-miterlimit:10;}
	.st5{fill:none;stroke:#000000;stroke-width:2;stroke-miterlimit:10;}
	.st6{fill:none;stroke:#231F20;stroke-width:2;stroke-miterlimit:10;}
	.st7{fill:none;stroke:#231F20;stroke-miterlimit:10;}
	.st8{fill:#231F20;}
	.st9{fill:#FFFFFF;stroke:#000000;stroke-width:2;stroke-linecap:round;stroke-miterlimit:10;}
	.st10{fill:#FFFFFF;stroke:#404041;stroke-width:2;stroke-linecap:round;stroke-miterlimit:10;}
	.st11{fill:none;stroke:#000000;stroke-width:2;stroke-linecap:square;stroke-miterlimit:10;}
	.st12{fill:none;stroke:#000000;stroke-width:2;stroke-linecap:round;stroke-miterlimit:10;}
	.st13{stroke:#000000;stroke-width:2;stroke-linecap:round;stroke-miterlimit:10;}
	.st14{fill:#FFFFFF;stroke:#000000;stroke-width:2;stroke-miterlimit:10;}
	.st15{fill:none;stroke:#000000;stroke-width:2;stroke-linecap:round;stroke-miterlimit:10;stroke-dasharray:0,3.9906;}
	.st16{fill:none;stroke:#000000;stroke-width:2;stroke-linecap:round;stroke-miterlimit:10;stroke-dasharray:0,3.9889;}
	.st17{fill:none;stroke:#000000;stroke-width:2;stroke-linecap:round;stroke-miterlimit:10;stroke-dasharray:0,3.9411;}
	.st18{fill:none;stroke:#000000;stroke-width:2;stroke-linecap:round;stroke-miterlimit:10;stroke-dasharray:0,3.6822;}
	.st19{fill:none;stroke:#000000;stroke-width:2;stroke-linecap:round;stroke-miterlimit:10;stroke-dasharray:0,4.2;}
	.st20{fill:#FFFFFF;stroke:#000000;stroke-linecap:round;stroke-miterlimit:10;}
	.st21{fill:#FFFFFF;stroke:#000000;stroke-width:2;stroke-linecap:round;stroke-linejoin:round;stroke-miterlimit:10;}
	.st22{fill:none;stroke:#000000;stroke-linecap:round;stroke-miterlimit:10;}
	.st23{fill:none;stroke:#000000;stroke-linecap:round;stroke-miterlimit:10;stroke-dasharray:0,3;}
	.st24{fill:none;stroke:#000000;stroke-linecap:square;stroke-miterlimit:10;}
	.st25{fill:none;stroke:#000000;stroke-width:2;stroke-linecap:round;stroke-linejoin:round;stroke-miterlimit:10;}
	.st26{fill:none;stroke:#000000;stroke-linecap:round;stroke-linejoin:round;stroke-miterlimit:10;}
	.st27{fill:none;stroke:#000000;stroke-width:2;stroke-linecap:round;stroke-miterlimit:10;stroke-dasharray:0,3.9673;}
	.st28{fill:none;stroke:#000000;stroke-miterlimit:10;}
	.st29{fill:none;stroke:#FFFFFF;stroke-width:8;stroke-miterlimit:10;}
	.st30{fill:#FFFFFF;stroke:#000000;stroke-width:2;stroke-linecap:square;stroke-miterlimit:10;}
	.st31{fill:#231F20;stroke:#000000;stroke-width:2;stroke-linecap:round;stroke-linejoin:round;stroke-miterlimit:10;}
	.st32{fill:none;stroke:#000000;stroke-width:2;stroke-linecap:round;stroke-miterlimit:10;stroke-dasharray:0,4.0343;}
	.st33{fill:none;stroke:#000000;stroke-width:2;stroke-linecap:round;stroke-miterlimit:10;stroke-dasharray:0,3.902;}
	.st34{fill:none;stroke:#000000;stroke-width:2;stroke-linecap:round;stroke-miterlimit:10;stroke-dasharray:0,4.1907;}
	.st35{fill:none;stroke:#000000;stroke-width:2;stroke-linecap:round;stroke-miterlimit:10;stroke-dasharray:0,4.0256;}
	.st36{fill:none;stroke:#000000;stroke-width:2;stroke-linecap:round;stroke-miterlimit:10;stroke-dasharray:0,4.5618;}
	.st37{fill:none;stroke:#000000;stroke-width:2;stroke-linecap:round;stroke-miterlimit:10;stroke-dasharray:0,4.2271;}
	.st38{fill:#231F20;stroke:#000000;stroke-width:2;stroke-miterlimit:10;}
	.st39{fill:none;stroke:#000000;stroke-width:2;stroke-linecap:round;stroke-linejoin:round;}
	.st40{fill:none;stroke:#000000;stroke-width:2;stroke-linecap:round;stroke-linejoin:round;stroke-dasharray:0,3.902;}
	.st41{fill:none;stroke:#000000;stroke-width:2;stroke-linecap:round;stroke-linejoin:round;stroke-dasharray:0,4.1027;}
	.st42{fill:none;stroke:#000000;stroke-width:2;stroke-linecap:round;stroke-linejoin:round;stroke-dasharray:0,3.5807;}
	.st43{fill:none;stroke:#000000;stroke-width:2;stroke-linecap:round;stroke-linejoin:round;stroke-dasharray:0,3.9986;}
	.st44{fill:none;stroke:#000000;stroke-width:2;stroke-linecap:round;stroke-linejoin:round;stroke-dasharray:0,4.0137;}
	.st45{fill:#FFFFFF;stroke:#231F20;stroke-width:2;stroke-miterlimit:10;}
	.st46{fill:none;stroke:#231F20;stroke-width:2;stroke-linecap:round;stroke-linejoin:round;}
	.st47{fill:none;stroke:#231F20;stroke-width:2;stroke-linecap:round;stroke-linejoin:round;stroke-dasharray:0,4.0311;}
	.st48{stroke:#000000;stroke-width:2;stroke-linecap:square;stroke-miterlimit:10;}
	.st49{fill:#404041;stroke:#FFFFFF;stroke-width:8;stroke-miterlimit:10;}
	.st50{fill:none;stroke:#000000;stroke-width:3;stroke-linecap:round;stroke-linejoin:round;stroke-miterlimit:10;}
	.st51{fill:#231F20;stroke:#231F20;stroke-width:2;stroke-linecap:round;stroke-miterlimit:10;}
	.st52{fill:#FFFFFF;stroke:#231F20;stroke-width:2;stroke-linecap:round;stroke-miterlimit:10;}
	.st53{stroke:#000000;stroke-width:2;stroke-linecap:round;stroke-miterlimit:1;}
	.st54{stroke:#000000;stroke-width:2;stroke-miterlimit:10;}
	.st55{stroke:#FFFFFF;stroke-width:2;stroke-linecap:round;stroke-miterlimit:1;}
	.st56{fill:#FFFFFF;stroke:#000000;stroke-miterlimit:10;}
	.st57{fill:#FFFFFF;stroke:#000000;stroke-width:0.5;stroke-linecap:round;stroke-miterlimit:10;}
</style>
<circle class="st21" cx="24" cy="24" r="0"/>
<circle class="st21" cx="24" cy="30" r="0"/>
<circle class="st21" cx="30" cy="24" r="0"/>
<circle class="st21" cx="24" cy="36" r="0"/>
<circle class="st21" cx="24" cy="42" r="0"/>
<circle class="st21" cx="30" cy="36" r="0"/>
<circle class="st21" cx="36" cy="24" r="0"/>
<circle class="st21" cx="36" cy="30" r="0"/>
<circle class="st21" cx="42" cy="24" r="0"/>
<circle class="st21" cx="36" cy="36" r="0"/>
<circle class="st21" cx="36" cy="42" r="0"/>
<circle class="st21" cx="42" cy="36" r="0"/>
<circle class="st21" cx="24" cy="48" r="0"/>
<circle class="st21" cx="24" cy="54" r="0"/>
<circle class="st21" cx="30" cy="48" r="0"/>
<circle class="st21" cx="24" cy="60" r="0"/>
<circle class="st21" cx="24" cy="66" r="0"/>
<circle class="st21" cx="30" cy="60" r="0"/>
<circle class="st21" cx="36" cy="48" r="0"/>
<circle class="st21" cx="36" cy="54" r="0"/>
<circle class="st21" cx="42" cy="48" r="0"/>
<circle class="st21" cx="36" cy="60" r="0"/>
<circle class="st21" cx="36" cy="66" r="0"/>
<circle class="st21" cx="42" cy="60" r="0"/>
<circle class="st21" cx="48" cy="24" r="0"/>
<circle class="st21" cx="48" cy="30" r="0"/>
<circle class="st21" cx="54" cy="24" r="0"/>
<circle class="st21" cx="48" cy="36" r="0"/>
<circle class="st21" cx="48" cy="42" r="0"/>
<circle class="st21" cx="54" cy="36" r="0"/>
<circle class="st21" cx="60" cy="24" r="0"/>
<circle class="st21" cx="60" cy="30" r="0"/>
<circle class="st21" cx="66" cy="24" r="0"/>
<circle class="st21" cx="60" cy="36" r="0"/>
<circle class="st21" cx="60" cy="42" r="0"/>
<circle class="st21" cx="66" cy="36" r="0"/>
<circle class="st21" cx="48" cy="48" r="0"/>
<circle class="st21" cx="48" cy="54" r="0"/>
<circle class="st21" cx="54" cy="48" r="0"/>
<circle class="st21" cx="48" cy="60" r="0"/>
<circle class="st21" cx="48" cy="66" r="0"/>
<circle class="st21" cx="54" cy="60" r="0"/>
<circle class="st21" cx="60" cy="48" r="0"/>
<circle class="st21" cx="60" cy="54" r="0"/>
<circle class="st21" cx="66" cy="48" r="0"/>
<circle class="st21" cx="60" cy="60" r="0"/>
<circle class="st21" cx="60" cy="66" r="0"/>
<circle class="st21" cx="66" cy="60" r="0"/>
<circle class="st21" cx="72" cy="24" r="0"/>
<circle class="st21" cx="72" cy="30" r="0"/>
<circle class="st21" cx="78" cy="24" r="0"/>
<circle class="st21" cx="72" cy="36" r="0"/>
<circle class="st21" cx="72" cy="42" r="0"/>
<circle class="st21" cx="78" cy="36" r="0"/>
<circle class="st21" cx="84" cy="24" r="0"/>
<circle class="st21" cx="84" cy="30" r="0"/>
<circle class="st21" cx="90" cy="24" r="0"/>
<circle class="st21" cx="84" cy="36" r="0"/>
<circle class="st21" cx="84" cy="42" r="0"/>
<circle class="st21" cx="90" cy="36" r="0"/>
<circle class="st21" cx="72" cy="48" r="0"/>
<circle class="st21" cx="72" cy="54" r="0"/>
<circle class="st21" cx="78" cy="48" r="0"/>
<circle class="st21" cx="72" cy="60" r="0"/>
<circle class="st21" cx="72" cy="66" r="0"/>
<circle class="st21" cx="78" cy="60" r="0"/>
<circle class="st21" cx="84" cy="48" r="0"/>
<circle class="st21" cx="84" cy="54" r="0"/>
<circle class="st21" cx="90" cy="48" r="0"/>
<circle class="st21" cx="84" cy="60" r="0"/>
<circle class="st21" cx="84" cy="66" r="0"/>
<circle class="st21" cx="90" cy="60" r="0"/>
<circle class="st21" cx="96" cy="24" r="0"/>
<circle class="st21" cx="96" cy="30" r="0"/>
<circle class="st21" cx="102" cy="24" r="0"/>
<circle class="st21" cx="96" cy="36" r="0"/>
<circle class="st21" cx="96" cy="42" r="0"/>
<circle class="st21" cx="102" cy="36" r="0"/>
<circle class="st21" cx="108" cy="24" r="0"/>
<circle class="st21" cx="108" cy="30" r="0"/>
<circle class="st21" cx="114" cy="24" r="0"/>
<circle class="st21" cx="108" cy="36" r="0"/>
<circle class="st21" cx="108" cy="42" r="0"/>
<circle class="st21" cx="114" cy="36" r="0"/>
<circle class="st21" cx="96" cy="48" r="0"/>
<circle class="st21" cx="96" cy="54" r="0"/>
<circle class="st21" cx="102" cy="48" r="0"/>
<circle class="st21" cx="96" cy="60" r="0"/>
<circle class="st21" cx="96" cy="66" r="0"/>
<circle class="st21" cx="102" cy="60" r="0"/>
<circle class="st21" cx="108" cy="48" r="0"/>
<circle class="st21" cx="108" cy="54" r="0"/>
<circle class="st21" cx="114" cy="48" r="0"/>
<circle class="st21" cx="108" cy="60" r="0"/>
<circle class="st21" cx="108" cy="66" r="0"/>
<circle class="st21" cx="114" cy="60" r="0"/>
<circle class="st21" cx="120" cy="24" r="0"/>
<circle class="st21" cx="120" cy="30" r="0"/>
<circle class="st21" cx="120" cy="36" r="0"/>
<circle class="st21" cx="120" cy="42" r="0"/>
<circle class="st21" cx="120" cy="48" r="0"/>
<circle class="st21" cx="120" cy="54" r="0"/>
<circle class="st21" cx="120" cy="60" r="0"/>
<circle class="st21" cx="120" cy="66" r="0"/>
<circle class="st21" cx="24" cy="72" r="0"/>
<circle class="st21" cx="24" cy="78" r="0"/>
<circle class="st21" cx="30" cy="72" r="0"/>
<circle class="st21" cx="24" cy="84" r="0"/>
<circle class="st21" cx="24" cy="90" r="0"/>
<circle class="st21" cx="30" cy="84" r="0"/>
<circle class="st21" cx="36" cy="72" r="0"/>
<circle class="st21" cx="36" cy="78" r="0"/>
<circle class="st21" cx="42" cy="72" r="0"/>
<circle class="st21" cx="36" cy="84" r="0"/>
<circle class="st21" cx="36" cy="90" r="0"/>
<circle class="st21" cx="42" cy="84" r="0"/>
<circle class="st21" cx="24" cy="96" r="0"/>
<circle class="st21" cx="24" cy="102" r="0"/>
<circle class="st21" cx="30" cy="96" r="0"/>
<circle class="st21" cx="24" cy="108" r="0"/>
<circle class="st21" cx="24" cy="114" r="0"/>
<circle class="st21" cx="30" cy="108" r="0"/>
<circle class="st21" cx="36" cy="96" r="0"/>
<circle class="st21" cx="36" cy="102" r="0"/>
<circle class="st21" cx="42" cy="96" r="0"/>
<circle class="st21" cx="36" cy="108" r="0"/>
<circle class="st21" cx="36" cy="114" r="0"/>
<circle class="st21" cx="42" cy="108" r="0"/>
<circle class="st21" cx="48" cy="72" r="0"/>
<circle class="st21" cx="48" cy="78" r="0"/>
<circle class="st21" cx="54" cy="72" r="0"/>
<circle class="st21" cx="48" cy="84" r="0"/>
<circle class="st21" cx="48" cy="90" r="0"/>
<circle class="st21" cx="54" cy="84" r="0"/>
<circle class="st21" cx="60" cy="72" r="0"/>
<circle class="st21" cx="60" cy="78" r="0"/>
<circle class="st21" cx="66" cy="72" r="0"/>
<circle class="st21" cx="60" cy="84" r="0"/>
<circle class="st21" cx="60" cy="90" r="0"/>
<circle class="st21" cx="66" cy="84" r="0"/>
<circle class="st21" cx="48" cy="96" r="0"/>
<circle class="st21" cx="48" cy="102" r="0"/>
<circle class="st21" cx="54" cy="96" r="0"/>
<circle class="st21" cx="48" cy="108" r="0"/>
<circle class="st21" cx="48" cy="114" r="0"/>
<circle class="st21" cx="54" cy="108" r="0"/>
<circle class="st21" cx="60" cy="96" r="0"/>
<circle class="st21" cx="60" cy="102" r="0"/>
<circle class="st21" cx="66" cy="96" r="0"/>
<circle class="st21" cx="60" cy="108" r="0"/>
<circle class="st21" cx="60" cy="114" r="0"/>
<circle class="st21" cx="66" cy="108" r="0"/>
<circle class="st21" cx="72" cy="72" r="0"/>
<circle class="st21" cx="72" cy="78" r="0"/>
<circle class="st21" cx="78" cy="72" r="0"/>
<circle class="st21" cx="72" cy="84" r="0"/>
<circle class="st21" cx="72" cy="90" r="0"/>
<circle class="st21" cx="78" cy="84" r="0"/>
<circle class="st21" cx="84" cy="72" r="0"/>
<circle class="st21" cx="84" cy="78" r="0"/>
<circle class="st21" cx="90" cy="72" r="0"/>
<circle class="st21" cx="84" cy="84" r="0"/>
<circle class="st21" cx="84" cy="90" r="0"/>
<circle class="st21" cx="90" cy="84" r="0"/>
<circle class="st21" cx="72" cy="96" r="0"/>
<circle class="st21" cx="72" cy="102" r="0"/>
<circle class="st21" cx="78" cy="96" r="0"/>
<circle class="st21" cx="72" cy="108" r="0"/>
<circle class="st21" cx="72" cy="114" r="0"/>
<circle class="st21" cx="78" cy="108" r="0"/>
<circle class="st21" cx="84" cy="96" r="0"/>
<circle class="st21" cx="84" cy="102" r="0"/>
<circle class="st21" cx="90" cy="96" r="0"/>
<circle class="st21" cx="84" cy="108" r="0"/>
<circle class="st21" cx="84" cy="114" r="0"/>
<circle class="st21" cx="90" cy="108" r="0"/>
<circle class="st21" cx="96" cy="72" r="0"/>
<circle class="st21" cx="96" cy="78" r="0"/>
<circle class="st21" cx="102" cy="72" r="0"/>
<circle class="st21" cx="96" cy="84" r="0"/>
<circle class="st21" cx="96" cy="90" r="0"/>
<circle class="st21" cx="102" cy="84" r="0"/>
<circle class="st21" cx="108" cy="72" r="0"/>
<circle class="st21" cx="108" cy="78" r="0"/>
<circle class="st21" cx="114" cy="72" r="0"/>
<circle class="st21" cx="108" cy="84" r="0"/>
<circle class="st21" cx="108" cy="90" r="0"/>
<circle class="st21" cx="114" cy="84" r="0"/>
<circle class="st21" cx="96" cy="96" r="0"/>
<circle class="st21" cx="96" cy="102" r="0"/>
<circle class="st21" cx="102" cy="96" r="0"/>
<circle class="st21" cx="96" cy="108" r="0"/>
<circle class="st21" cx="96" cy="114" r="0"/>
<circle class="st21" cx="102" cy="108" r="0"/>
<circle class="st21" cx="108" cy="96" r="0"/>
<circle class="st21" cx="108" cy="102" r="0"/>
<circle class="st21" cx="114" cy="96" r="0"/>
<circle class="st21" cx="108" cy="108" r="0"/>
<circle class="st21" cx="108" cy="114" r="0"/>
<circle class="st21" cx="114" cy="108" r="0"/>
<circle class="st21" cx="120" cy="72" r="0"/>
<circle class="st21" cx="120" cy="78" r="0"/>
<circle class="st21" cx="120" cy="84" r="0"/>
<circle class="st21" cx="120" cy="90" r="0"/>
<circle class="st21" cx="120" cy="96" r="0"/>
<circle class="st21" cx="120" cy="102" r="0"/>
<circle class="st21" cx="120" cy="108" r="0"/>
<circle class="st21" cx="24" cy="120" r="0"/>
<circle class="st21" cx="30" cy="120" r="0"/>
<circle class="st21" cx="36" cy="120" r="0"/>
<circle class="st21" cx="42" cy="120" r="0"/>
<circle class="st21" cx="48" cy="120" r="0"/>
<circle class="st21" cx="54" cy="120" r="0"/>
<circle class="st21" cx="60" cy="120" r="0"/>
<circle class="st21" cx="66" cy="120" r="0"/>
<circle class="st21" cx="72" cy="120" r="0"/>
<circle class="st21" cx="78" cy="120" r="0"/>
<circle class="st21" cx="84" cy="120" r="0"/>
<circle class="st21" cx="90" cy="120" r="0"/>
<circle class="st21" cx="96" cy="120" r="0"/>
<circle class="st21" cx="102" cy="120" r="0"/>
<circle class="st21" cx="108" cy="120" r="0"/>
<circle class="st21" cx="114" cy="120" r="0"/>
<circle class="st21" cx="120" cy="120" r="0"/>
<circle class="st21" cx="120" cy="114" r="0"/>
<g>
	<polyline class="st11" points="73.6,83.8 71.5,68.9 86.3,71 	"/>
	<polyline class="st11" points="67.2,51.9 69.4,66.8 54.5,64.7 	"/>
	<path class="st48" d="M69.4,75.3c-4.2-4.2-2.1-10.6-2.1-10.6s6.4-2.1,10.6,2.1c2.3,2.3,2.3,6.1,0,8.5S71.7,77.6,69.4,75.3z"/>
	<path class="st30" d="M64.7,63c0,0,6,9,6,18c0,5-2.7,9-6,9c-3.3,0-6-4-6-9C58.7,72,64.7,63,64.7,63z"/>
	<path class="st30" d="M66,62.5c0,0,9,6,18,6c5,0,9-2.7,9-6c0-3.3-4-6-9-6C75,56.5,66,62.5,66,62.5z"/>
	<ellipse transform="matrix(0.7071 -0.7071 0.7071 0.7071 -26.4772 67.5416)" class="st48" cx="68.3" cy="65.7" rx="4.5" ry="4.5"/>
	<ellipse transform="matrix(0.7071 -0.7071 0.7071 0.7071 -23.8412 61.1776)" class="st48" cx="61.9" cy="59.4" rx="4.5" ry="4.5"/>
	<line class="st30" x1="56.6" y1="54.1" x2="58.7" y2="56.2"/>
</g>
</svg>
