<?xml version="1.0" encoding="utf-8"?>
<!-- Generator: Adobe Illustrator 22.0.1, SVG Export Plug-In . SVG Version: 6.00 Build 0)  -->
<svg version="1.1" id="Layer_1" xmlns="http://www.w3.org/2000/svg" xmlns:xlink="http://www.w3.org/1999/xlink" x="0px" y="0px"
	 viewBox="0 0 144 144" style="enable-background:new 0 0 144 144;" xml:space="preserve">
<style type="text/css">
	.st0{fill:#2D396B;}
</style>
<g>
	<path class="st0" d="M103.1,76c2.1,1.5,6,1,7.5-1c1.5-2,0.4-5.8-1.6-7.3s-5.6,0-7,2C100.4,71.8,101,74.6,103.1,76z"/>
	<path class="st0" d="M79.2,143.3L79.2,143.3c16.4-1.6,31.7-8.8,43.6-20.6c5.7-5.7,10.4-12.3,13.8-19.3c0.1-0.1,0.1-0.3,0.3-0.6
		c0.3-0.7,0.6-1.5,1-2.2c0.1-0.4,0.4-0.9,0.6-1.3s0.4-0.9,0.6-1.5c0.3-0.7,0.6-1.3,0.7-2c0.1-0.3,0.1-0.4,0.3-0.7
		c2.5-7.3,4-15.1,4-23.2s-1.3-15.9-4-23.2c-0.1-0.3-0.1-0.4-0.3-0.7c-0.3-0.7-0.6-1.5-0.7-2c-0.1-0.4-0.3-0.9-0.6-1.5
		c-0.1-0.4-0.4-0.9-0.6-1.3c-0.3-0.7-0.6-1.5-1-2.2c-0.1-0.1-0.1-0.3-0.3-0.6c-3.4-7-7.9-13.4-13.8-19.3c-11.9-11.8-27-19-43.4-20.6
		c0,0,0,0-0.1,0c-1-0.1-2.1-0.1-3.2-0.3c-0.1,0-0.3,0-0.4,0c-1.2,0.4-2.5,0.4-3.7,0.4c-1.2,0-2.5,0-3.7,0.1c-0.1,0-0.3,0-0.4,0
		c-1,0-2.1,0.1-3.2,0.3c0,0,0,0-0.1,0C48,2.5,32.8,9.6,21,21.5c-5.7,5.7-10.4,12.3-13.8,19.3C7,40.9,7,41.1,6.9,41.4
		c-0.3,0.7-0.6,1.5-1,2.2c-0.1,0.4-0.4,0.9-0.6,1.3c-0.1,0.4-0.4,0.9-0.6,1.5c-0.3,0.7-0.6,1.3-0.7,2c-0.1,0.3-0.1,0.4-0.3,0.7
		c-2.3,7-3.7,14.8-3.7,23C0,80.3,1.3,88,4,95.3c0.1,0.3,0.1,0.4,0.3,0.7c0.3,0.7,0.6,1.5,0.7,2c0.1,0.4,0.3,0.9,0.6,1.5
		c0.1,0.4,0.4,0.9,0.6,1.3c0.3,0.7,0.6,1.5,1,2.2c0.1,0.1,0.1,0.3,0.3,0.6c3.4,7,7.9,13.4,13.8,19.3c11.9,11.8,27,19,43.4,20.6
		c0,0,0,0,0.1,0c1,0.1,2.1,0.1,3.2,0.3c0.1,0,0.3,0,0.4,0c1.2,0,2.5,0.1,3.7,0.1s2.5,0,3.7-0.1c0.1,0,0.3,0,0.4,0
		C77.1,143.6,78.2,143.4,79.2,143.3z M78.9,140.5c-1,0.1-2.1,0.1-3.1,0.3c-0.1,0-0.3,0-0.4,0c-1.2,0-2.3,0.1-3.5,0.1
		c-1.2,0-2.3,0-3.5-0.1c-0.1,0-0.3,0-0.4,0c-1,0-2.1-0.1-3.1-0.3c0,0,0,0-0.1,0c-24-2.5-44.6-17.4-54.8-38.2
		c-0.1-0.1-0.1-0.3-0.3-0.6c-0.3-0.7-0.6-1.3-0.9-2c-0.1-0.4-0.4-0.9-0.6-1.3c-0.1-0.4-0.3-0.9-0.6-1.3c-0.3-0.7-0.6-1.3-0.7-2
		c-0.1-0.1-0.1-0.4-0.1-0.6c-5-14.5-5-30.3,0-44.6c0-0.1,0.1-0.4,0.1-0.6c0.3-0.7,0.4-1.3,0.7-2c0.1-0.4,0.3-0.9,0.6-1.3
		c0.1-0.4,0.3-0.9,0.6-1.3c0.3-0.7,0.6-1.3,0.9-2c0.1-0.1,0.1-0.3,0.3-0.6c3.2-6.4,7.3-12.3,12.2-17.4l22.6,22.5
		c0.3-0.4,0.6-0.9,0.7-1.5l0.1-0.3c0.1-0.3,0.3-0.6,0.6-0.9L24,22.5C34.8,12.3,49,5.4,64.5,3.8c0,0,0,0,0.1,0c1-0.1,2.1-0.1,3.1-0.3
		c0.1,0,0.3,0,0.4,0c1.2,0,2.3-0.1,3.5-0.1s2.3,0,3.5,0.1c0.1,0,0.3,0,0.4,0c1,0,2.1,0.1,3.1,0.3c0,0,0,0,0.1,0
		c24,2.5,44.6,17.4,54.8,38.2c0.1,0.1,0.1,0.3,0.3,0.6c0.3,0.7,0.6,1.3,0.9,2c0.1,0.4,0.4,0.9,0.6,1.3c0.1,0.4,0.3,0.9,0.6,1.3
		c0.3,0.7,0.6,1.3,0.7,2c0.1,0.1,0.1,0.4,0.1,0.6c5,14.5,5,30.3,0,44.6c0,0.1-0.1,0.4-0.1,0.6c-0.3,0.7-0.4,1.3-0.7,2
		c-0.1,0.4-0.3,0.9-0.6,1.3c-0.1,0.4-0.4,0.9-0.6,1.3c-0.3,0.7-0.6,1.3-0.9,2c-0.1,0.1-0.1,0.3-0.3,0.6c-3.2,6.4-7.3,12.3-12.2,17.4
		l-16.3-16.5c-0.1,1.2-0.4,2.2-0.9,3.2l15.1,15.1C108.7,132,94.6,138.7,78.9,140.5L78.9,140.5z"/>
	<path class="st0" d="M102.1,104.2c1-4.1,0.3-9.5-2.5-14.9c-6-11.4-7.2-15.1-6.2-21.3c1-6.3,13.3-19.4,3.7-24.3
		c-6-2.9-12.5,11.7-17.7,2.2c-5.1-9.4-22.7-14-30.8,0.7l0,0c0,0,0,0.1-0.1,0.1c-0.4,0.9-0.9,1.6-1.3,2.5l0,0c-1.3,2-2.8,3.8-5.3,4.2
		l-3.5,0.6c-6.5,0.9-7.9,9.4-4.4,13.3c3.5,3.9,5.7,5.4,9.1,12.1c3.4,6.7-3.4,23.5,3.4,30.3c6.7,6.7,8.4,1.9,11.9-1.8l1.5-1.5
		c1.9-2,11.1-7.2,26.1,1.6C94.6,113.4,100.4,110.5,102.1,104.2L102.1,104.2L102.1,104.2z"/>
	<path class="st0" d="M21.6,53.2c-2.2,0-4.1,1.9-4.1,4.1s1.9,4.1,4.1,4.1s5.3-1.9,5.3-4.1C26.7,55.1,23.8,53.2,21.6,53.2z"/>
	<path class="st0" d="M32.3,49.9c0.7-1,0.9-3.1-0.3-3.9c-1.2-0.7-2.9,0-3.8,1.2c-0.7,1-0.4,2.6,0.6,3.4
		C30.1,51.2,31.5,50.9,32.3,49.9z"/>
	<path class="st0" d="M73.8,107.2c-1.5-1-3.8,0-4.7,1.5c-0.9,1.5-0.6,3.2,0.7,4.2c1.5,1,4.1,0.6,5-0.7S75.2,108,73.8,107.2z"/>
</g>
</svg>
