<?xml version="1.0" encoding="utf-8"?>
<!-- Generator: Adobe Illustrator 22.0.1, SVG Export Plug-In . SVG Version: 6.00 Build 0)  -->
<svg version="1.1" id="Layer_1" xmlns="http://www.w3.org/2000/svg" xmlns:xlink="http://www.w3.org/1999/xlink" x="0px" y="0px"
	 viewBox="0 0 144 144" style="enable-background:new 0 0 144 144;" xml:space="preserve">
<style type="text/css">
	.st0{fill:#2D396B;}
</style>
<g>
	<path class="st0" d="M2.1,0.1C1-0.3,0,0.4,0,1.5c0,0.9,0.7,1.5,1.5,1.5c0.3,0,0.7-0.1,0.9-0.3c0.3-0.3,0.6-0.7,0.6-1.2
		C2.9,0.9,2.5,0.3,2.1,0.1z"/>
	<path class="st0" d="M2.1,9C1.9,8.8,1.6,8.8,1.5,8.8C0.6,8.8,0,9.5,0,10.3c0,0.7,0.7,1.5,1.5,1.5c0.3,0,0.7-0.1,0.9-0.3
		c0.3-0.3,0.6-0.7,0.6-1.2C2.9,9.7,2.6,9.3,2.1,9z"/>
	<path class="st0" d="M10.9,0.1c-1-0.4-2.1,0.3-2.1,1.3c0,0.9,0.7,1.5,1.5,1.5c0.3,0,0.7-0.1,0.9-0.3c0.3-0.3,0.6-0.7,0.6-1.2
		C11.8,0.9,11.3,0.3,10.9,0.1z"/>
	<path class="st0" d="M2.1,17.8C1,17.3,0,18.1,0,19.1c0,0.9,0.7,1.5,1.5,1.5c0.3,0,0.7-0.1,0.9-0.3c0.3-0.3,0.6-0.7,0.6-1.2
		C2.9,18.5,2.5,17.9,2.1,17.8z"/>
	<path class="st0" d="M2.1,26.6c-0.1-0.1-0.4-0.1-0.6-0.1c-0.9,0-1.5,0.7-1.5,1.5s0.7,1.5,1.5,1.5c0.3,0,0.7-0.1,0.9-0.3
		c0.3-0.3,0.6-0.7,0.6-1.2C2.9,27.3,2.6,26.9,2.1,26.6z"/>
	<path class="st0" d="M10.9,17.8c-1-0.4-2.1,0.3-2.1,1.3c0,0.9,0.7,1.5,1.5,1.5c0.3,0,0.7-0.1,0.9-0.3c0.3-0.3,0.6-0.7,0.6-1.2
		C11.8,18.5,11.3,17.9,10.9,17.8z"/>
	<path class="st0" d="M19.7,0.1c-1-0.4-2.1,0.3-2.1,1.3c0,0.9,0.7,1.5,1.5,1.5c0.3,0,0.7-0.1,0.9-0.3c0.3-0.3,0.6-0.7,0.6-1.2
		C20.6,0.9,20.1,0.3,19.7,0.1z"/>
	<path class="st0" d="M19.7,9c-0.1-0.1-0.4-0.1-0.6-0.1c-0.9,0-1.5,0.7-1.5,1.5c0,0.7,0.7,1.5,1.5,1.5c0.3,0,0.7-0.1,0.9-0.3
		c0.3-0.3,0.6-0.7,0.6-1.2C20.6,9.7,20.3,9.3,19.7,9z"/>
	<path class="st0" d="M28.5,0.1c-1-0.4-2.1,0.3-2.1,1.3c0,0.9,0.7,1.5,1.5,1.5c0.3,0,0.7-0.1,0.9-0.3c0.3-0.3,0.6-0.7,0.6-1.2
		C29.4,0.9,28.9,0.3,28.5,0.1z"/>
	<path class="st0" d="M19.7,17.8c-1-0.4-2.1,0.3-2.1,1.3c0,0.9,0.7,1.5,1.5,1.5c0.3,0,0.7-0.1,0.9-0.3c0.3-0.3,0.6-0.7,0.6-1.2
		C20.6,18.5,20.1,17.9,19.7,17.8z"/>
	<path class="st0" d="M19.7,26.6c-0.1-0.1-0.4-0.1-0.6-0.1c-0.9,0-1.5,0.7-1.5,1.5s0.7,1.5,1.5,1.5c0.3,0,0.7-0.1,0.9-0.3
		c0.3-0.3,0.6-0.7,0.6-1.2C20.6,27.3,20.3,26.9,19.7,26.6z"/>
	<path class="st0" d="M28.5,17.8c-1-0.4-2.1,0.3-2.1,1.3c0,0.9,0.7,1.5,1.5,1.5c0.3,0,0.7-0.1,0.9-0.3c0.3-0.3,0.6-0.7,0.6-1.2
		C29.4,18.5,28.9,17.9,28.5,17.8z"/>
	<path class="st0" d="M2.1,35.4C1,35,0,35.7,0,36.7c0,0.9,0.7,1.5,1.5,1.5c0.3,0,0.7-0.1,0.9-0.3c0.3-0.3,0.6-0.7,0.6-1.2
		C2.9,36.1,2.5,35.6,2.1,35.4z"/>
	<path class="st0" d="M2.1,44.2c-0.1-0.1-0.4-0.1-0.6-0.1c-0.9,0-1.5,0.7-1.5,1.5C0,46.3,0.7,47,1.5,47c0.3,0,0.7-0.1,0.9-0.3
		c0.3-0.3,0.6-0.7,0.6-1.2C2.9,45,2.6,44.5,2.1,44.2z"/>
	<path class="st0" d="M10.9,35.4c-1-0.4-2.1,0.3-2.1,1.3c0,0.9,0.7,1.5,1.5,1.5c0.3,0,0.7-0.1,0.9-0.3c0.3-0.3,0.6-0.7,0.6-1.2
		C11.8,36.1,11.3,35.6,10.9,35.4z"/>
	<path class="st0" d="M2.1,53C1,52.6,0,53.3,0,54.4c0,0.9,0.7,1.5,1.5,1.5c0.3,0,0.7-0.1,0.9-0.3c0.3-0.3,0.6-0.7,0.6-1.2
		C2.9,53.8,2.5,53.2,2.1,53z"/>
	<path class="st0" d="M2.1,61.9c-0.1-0.1-0.4-0.1-0.6-0.1c-0.9,0-1.5,0.7-1.5,1.5s0.7,1.5,1.5,1.5c0.3,0,0.7-0.1,0.9-0.3
		c0.3-0.3,0.6-0.7,0.6-1.2C2.9,62.6,2.6,62.2,2.1,61.9z"/>
	<path class="st0" d="M10.9,53c-1-0.4-2.1,0.3-2.1,1.3c0,0.9,0.7,1.5,1.5,1.5c0.3,0,0.7-0.1,0.9-0.3c0.3-0.3,0.6-0.7,0.6-1.2
		C11.8,53.8,11.3,53.2,10.9,53z"/>
	<path class="st0" d="M19.7,35.4c-1-0.4-2.1,0.3-2.1,1.3c0,0.9,0.7,1.5,1.5,1.5c0.3,0,0.7-0.1,0.9-0.3c0.3-0.3,0.6-0.7,0.6-1.2
		C20.6,36.1,20.1,35.6,19.7,35.4z"/>
	<path class="st0" d="M19.7,44.2c-0.1-0.1-0.4-0.1-0.6-0.1c-0.9,0-1.5,0.7-1.5,1.5c0,0.7,0.7,1.5,1.5,1.5c0.3,0,0.7-0.1,0.9-0.3
		c0.3-0.3,0.6-0.7,0.6-1.2C20.6,45,20.3,44.5,19.7,44.2z"/>
	<path class="st0" d="M28.5,35.4c-1-0.4-2.1,0.3-2.1,1.3c0,0.9,0.7,1.5,1.5,1.5c0.3,0,0.7-0.1,0.9-0.3c0.3-0.3,0.6-0.7,0.6-1.2
		C29.4,36.1,28.9,35.6,28.5,35.4z"/>
	<path class="st0" d="M19.7,53c-1-0.4-2.1,0.3-2.1,1.3c0,0.9,0.7,1.5,1.5,1.5c0.3,0,0.7-0.1,0.9-0.3c0.3-0.3,0.6-0.7,0.6-1.2
		C20.6,53.8,20.1,53.2,19.7,53z"/>
	<path class="st0" d="M19.7,61.9c-0.1-0.1-0.4-0.1-0.6-0.1c-0.9,0-1.5,0.7-1.5,1.5s0.7,1.5,1.5,1.5c0.3,0,0.7-0.1,0.9-0.3
		c0.3-0.3,0.6-0.7,0.6-1.2C20.6,62.6,20.3,62.2,19.7,61.9z"/>
	<path class="st0" d="M28.5,53c-1-0.4-2.1,0.3-2.1,1.3c0,0.9,0.7,1.5,1.5,1.5c0.3,0,0.7-0.1,0.9-0.3c0.3-0.3,0.6-0.7,0.6-1.2
		C29.4,53.8,28.9,53.2,28.5,53z"/>
	<path class="st0" d="M37.3,0.1c-1-0.4-2.1,0.3-2.1,1.3c0,0.9,0.7,1.5,1.5,1.5c0.4,0,0.9-0.1,1.2-0.6c0.1-0.3,0.3-0.6,0.3-0.9
		C38.2,0.9,37.8,0.3,37.3,0.1z"/>
	<path class="st0" d="M37.3,9c-0.1-0.1-0.3-0.1-0.6-0.1c-0.9,0-1.5,0.7-1.5,1.5c0,0.7,0.7,1.5,1.5,1.5c0.4,0,0.9-0.1,1.2-0.6
		c0.1-0.3,0.3-0.6,0.3-0.9C38.2,9.7,37.9,9.3,37.3,9z"/>
	<path class="st0" d="M45.6,2.9c0.4,0,0.9-0.1,1.2-0.6C46.9,2.1,47,1.8,47,1.5c0-0.6-0.4-1.2-0.9-1.3c-1-0.4-2.1,0.3-2.1,1.3
		C44.1,2.2,44.7,2.9,45.6,2.9z"/>
	<path class="st0" d="M37.3,17.8c-1-0.4-2.1,0.3-2.1,1.3c0,0.9,0.7,1.5,1.5,1.5c0.4,0,0.9-0.1,1.2-0.6c0.1-0.3,0.3-0.6,0.3-0.9
		C38.2,18.5,37.8,17.9,37.3,17.8z"/>
	<path class="st0" d="M37.3,26.6c-0.1-0.1-0.3-0.1-0.6-0.1c-0.9,0-1.5,0.7-1.5,1.5s0.7,1.5,1.5,1.5c0.4,0,0.9-0.1,1.2-0.6
		c0.1-0.3,0.3-0.6,0.3-0.9C38.2,27.3,37.9,26.9,37.3,26.6z"/>
	<path class="st0" d="M45.6,20.6c0.4,0,0.9-0.1,1.2-0.6c0.1-0.3,0.3-0.6,0.3-0.9c0-0.6-0.4-1.2-0.9-1.3c-1-0.4-2.1,0.3-2.1,1.3
		C44.1,19.8,44.7,20.6,45.6,20.6z"/>
	<path class="st0" d="M54.4,2.9c0.4,0,0.9-0.1,1.2-0.6c0.1-0.3,0.3-0.6,0.3-0.9c0-0.6-0.4-1.2-0.9-1.3c-1-0.4-2.1,0.3-2.1,1.3
		C52.9,2.2,53.5,2.9,54.4,2.9z"/>
	<path class="st0" d="M54.4,11.8c0.4,0,0.9-0.1,1.2-0.6c0.1-0.3,0.3-0.6,0.3-0.9c0-0.6-0.3-1-0.9-1.3c-0.1-0.1-0.3-0.1-0.6-0.1
		c-0.9,0-1.5,0.7-1.5,1.5C52.9,11,53.5,11.8,54.4,11.8z"/>
	<path class="st0" d="M63.2,2.9c0.4,0,0.9-0.1,1.2-0.6c0.1-0.3,0.3-0.6,0.3-0.9c0-0.6-0.4-1.2-0.9-1.3c-1-0.4-2.1,0.3-2.1,1.3
		C61.7,2.2,62.3,2.9,63.2,2.9z"/>
	<path class="st0" d="M54.4,20.6c0.4,0,0.9-0.1,1.2-0.6c0.1-0.3,0.3-0.6,0.3-0.9c0-0.6-0.4-1.2-0.9-1.3c-1-0.4-2.1,0.3-2.1,1.3
		C52.9,19.8,53.5,20.6,54.4,20.6z"/>
	<path class="st0" d="M54.4,29.4c0.4,0,0.9-0.1,1.2-0.6c0.1-0.3,0.3-0.6,0.3-0.9c0-0.6-0.3-1-0.9-1.3c-0.1-0.1-0.3-0.1-0.6-0.1
		c-0.9,0-1.5,0.7-1.5,1.5S53.5,29.4,54.4,29.4z"/>
	<path class="st0" d="M63.2,20.6c0.4,0,0.9-0.1,1.2-0.6c0.1-0.3,0.3-0.6,0.3-0.9c0-0.6-0.4-1.2-0.9-1.3c-1-0.4-2.1,0.3-2.1,1.3
		C61.7,19.8,62.3,20.6,63.2,20.6z"/>
	<path class="st0" d="M37.3,35.4c-1-0.4-2.1,0.3-2.1,1.3c0,0.9,0.7,1.5,1.5,1.5c0.4,0,0.9-0.1,1.2-0.6c0.1-0.3,0.3-0.6,0.3-0.9
		C38.2,36.1,37.8,35.6,37.3,35.4z"/>
	<path class="st0" d="M37.3,44.2c-0.1-0.1-0.3-0.1-0.6-0.1c-0.9,0-1.5,0.7-1.5,1.5c0,0.7,0.7,1.5,1.5,1.5c0.4,0,0.9-0.1,1.2-0.6
		c0.1-0.3,0.3-0.6,0.3-0.9C38.2,45,37.9,44.5,37.3,44.2z"/>
	<path class="st0" d="M45.6,38.2c0.4,0,0.9-0.1,1.2-0.6c0.1-0.3,0.3-0.6,0.3-0.9c0-0.6-0.4-1.2-0.9-1.3c-1-0.4-2.1,0.3-2.1,1.3
		C44.1,37.5,44.7,38.2,45.6,38.2z"/>
	<path class="st0" d="M37.3,53c-1-0.4-2.1,0.3-2.1,1.3c0,0.9,0.7,1.5,1.5,1.5c0.4,0,0.9-0.1,1.2-0.6c0.1-0.3,0.3-0.6,0.3-0.9
		C38.2,53.8,37.8,53.2,37.3,53z"/>
	<path class="st0" d="M37.3,61.9c-0.1-0.1-0.3-0.1-0.6-0.1c-0.9,0-1.5,0.7-1.5,1.5s0.7,1.5,1.5,1.5c0.4,0,0.9-0.1,1.2-0.6
		c0.1-0.3,0.3-0.6,0.3-0.9C38.2,62.6,37.9,62.2,37.3,61.9z"/>
	<path class="st0" d="M45.6,55.8c0.4,0,0.9-0.1,1.2-0.6c0.1-0.3,0.3-0.6,0.3-0.9c0-0.6-0.4-1.2-0.9-1.3c-1-0.4-2.1,0.3-2.1,1.3
		C44.1,55.1,44.7,55.8,45.6,55.8z"/>
	<path class="st0" d="M54.4,38.2c0.4,0,0.9-0.1,1.2-0.6c0.1-0.3,0.3-0.6,0.3-0.9c0-0.6-0.4-1.2-0.9-1.3c-1-0.4-2.1,0.3-2.1,1.3
		C52.9,37.5,53.5,38.2,54.4,38.2z"/>
	<path class="st0" d="M63.2,38.2c0.4,0,0.9-0.1,1.2-0.6c0.1-0.3,0.3-0.6,0.3-0.9c0-0.6-0.4-1.2-0.9-1.3c-1-0.4-2.1,0.3-2.1,1.3
		C61.7,37.5,62.3,38.2,63.2,38.2z"/>
	<path class="st0" d="M72,2.9c0.4,0,0.9-0.1,1.2-0.6c0.1-0.3,0.3-0.6,0.3-0.9c0-0.6-0.4-1.2-0.9-1.3c-1-0.4-2.1,0.3-2.1,1.3
		C70.5,2.2,71.1,2.9,72,2.9z"/>
	<path class="st0" d="M72,11.8c0.4,0,0.9-0.1,1.2-0.6c0.1-0.3,0.3-0.6,0.3-0.9c0-0.6-0.3-1-0.9-1.3c-0.1-0.1-0.3-0.1-0.6-0.1
		c-0.9,0-1.5,0.7-1.5,1.5C70.5,11,71.1,11.8,72,11.8z"/>
	<path class="st0" d="M80.8,2.9c0.4,0,0.9-0.1,1.2-0.6c0.1-0.3,0.3-0.6,0.3-0.9c0-0.6-0.4-1.2-0.9-1.3c-1-0.4-2.1,0.3-2.1,1.3
		C79.3,2.2,79.9,2.9,80.8,2.9z"/>
	<path class="st0" d="M72,20.6c0.4,0,0.9-0.1,1.2-0.6c0.1-0.3,0.3-0.6,0.3-0.9c0-0.6-0.4-1.2-0.9-1.3c-1-0.4-2.1,0.3-2.1,1.3
		C70.5,19.8,71.1,20.6,72,20.6z"/>
	<path class="st0" d="M72,29.4c0.4,0,0.9-0.1,1.2-0.6c0.1-0.3,0.3-0.6,0.3-0.9c0-0.6-0.3-1-0.9-1.3c-0.1-0.1-0.3-0.1-0.6-0.1
		c-0.9,0-1.5,0.7-1.5,1.5S71.1,29.4,72,29.4z"/>
	<path class="st0" d="M80.8,20.6c0.4,0,0.9-0.1,1.2-0.6c0.1-0.3,0.3-0.6,0.3-0.9c0-0.6-0.4-1.2-0.9-1.3c-1-0.4-2.1,0.3-2.1,1.3
		C79.3,19.8,79.9,20.6,80.8,20.6z"/>
	<path class="st0" d="M89.6,2.9c0.4,0,0.9-0.1,1.2-0.6c0.1-0.3,0.3-0.6,0.3-0.9c0-0.6-0.4-1.2-0.9-1.3c-1-0.4-2.1,0.3-2.1,1.3
		C88.2,2.2,88.8,2.9,89.6,2.9z"/>
	<path class="st0" d="M89.6,11.8c0.4,0,0.9-0.1,1.2-0.6c0.1-0.3,0.3-0.6,0.3-0.9c0-0.6-0.3-1-0.9-1.3c-0.1-0.1-0.3-0.1-0.6-0.1
		c-0.9,0-1.5,0.7-1.5,1.5C88.2,11,88.8,11.8,89.6,11.8z"/>
	<path class="st0" d="M98.4,2.9c0.4,0,0.9-0.1,1.2-0.6c0.1-0.3,0.3-0.6,0.3-0.9c0-0.6-0.4-1.2-0.9-1.3C98-0.3,97,0.4,97,1.5
		C97,2.2,97.6,2.9,98.4,2.9z"/>
	<path class="st0" d="M89.6,20.6c0.4,0,0.9-0.1,1.2-0.6c0.1-0.3,0.3-0.6,0.3-0.9c0-0.6-0.4-1.2-0.9-1.3c-1-0.4-2.1,0.3-2.1,1.3
		C88.2,19.8,88.8,20.6,89.6,20.6z"/>
	<path class="st0" d="M89.6,29.4c0.4,0,0.9-0.1,1.2-0.6c0.1-0.3,0.3-0.6,0.3-0.9c0-0.6-0.3-1-0.9-1.3c-0.1-0.1-0.3-0.1-0.6-0.1
		c-0.9,0-1.5,0.7-1.5,1.5S88.8,29.4,89.6,29.4z"/>
	<path class="st0" d="M98.4,20.6c0.4,0,0.9-0.1,1.2-0.6c0.1-0.3,0.3-0.6,0.3-0.9c0-0.6-0.4-1.2-0.9-1.3c-1-0.4-2.1,0.3-2.1,1.3
		C97,19.8,97.6,20.6,98.4,20.6z"/>
	<path class="st0" d="M72,38.2c0.4,0,0.9-0.1,1.2-0.6c0.1-0.3,0.3-0.6,0.3-0.9c0-0.6-0.4-1.2-0.9-1.3c-1-0.4-2.1,0.3-2.1,1.3
		C70.5,37.5,71.1,38.2,72,38.2z"/>
	<path class="st0" d="M72,47c0.4,0,0.9-0.1,1.2-0.6c0.1-0.3,0.3-0.6,0.3-0.9c0-0.6-0.3-1-0.9-1.3c-0.1-0.1-0.3-0.1-0.6-0.1
		c-0.9,0-1.5,0.7-1.5,1.5C70.5,46.3,71.1,47,72,47z"/>
	<path class="st0" d="M80.8,38.2c0.4,0,0.9-0.1,1.2-0.6c0.1-0.3,0.3-0.6,0.3-0.9c0-0.6-0.4-1.2-0.9-1.3c-1-0.4-2.1,0.3-2.1,1.3
		C79.3,37.5,79.9,38.2,80.8,38.2z"/>
	<path class="st0" d="M89.6,38.2c0.4,0,0.9-0.1,1.2-0.6c0.1-0.3,0.3-0.6,0.3-0.9c0-0.6-0.4-1.2-0.9-1.3c-1-0.4-2.1,0.3-2.1,1.3
		C88.2,37.5,88.8,38.2,89.6,38.2z"/>
	<path class="st0" d="M89.6,47c0.4,0,0.9-0.1,1.2-0.6c0.1-0.3,0.3-0.6,0.3-0.9c0-0.6-0.3-1-0.9-1.3c-0.1-0.1-0.3-0.1-0.6-0.1
		c-0.9,0-1.5,0.7-1.5,1.5C88.2,46.3,88.8,47,89.6,47z"/>
	<path class="st0" d="M98.4,38.2c0.4,0,0.9-0.1,1.2-0.6c0.1-0.3,0.3-0.6,0.3-0.9c0-0.6-0.4-1.2-0.9-1.3C98,35,97,35.7,97,36.7
		C97,37.5,97.6,38.2,98.4,38.2z"/>
	<path class="st0" d="M98.4,54.4L98.4,54.4L98.4,54.4L98.4,54.4L98.4,54.4z"/>
	<path class="st0" d="M107.9,0.1c-1-0.4-2.1,0.3-2.1,1.3c0,0.9,0.7,1.5,1.5,1.5c0.4,0,0.9-0.1,1.2-0.6c0.1-0.3,0.3-0.6,0.3-0.9
		C108.7,0.9,108.4,0.3,107.9,0.1z"/>
	<path class="st0" d="M108,9c-0.3-0.1-0.4-0.1-0.7-0.1c-0.9,0-1.5,0.7-1.5,1.5c0,0.7,0.7,1.5,1.5,1.5c0.4,0,0.9-0.1,1.2-0.6
		c0.1-0.3,0.3-0.6,0.3-0.9C108.7,9.7,108.4,9.3,108,9z"/>
	<path class="st0" d="M116.7,0.1c-0.9-0.4-2.1,0.4-2.1,1.3s0.7,1.5,1.5,1.5c0.4,0,0.9-0.1,1.2-0.6c0.1-0.3,0.3-0.6,0.3-0.9
		C117.6,0.9,117.3,0.3,116.7,0.1z"/>
	<path class="st0" d="M107.9,17.8c-1-0.4-2.1,0.3-2.1,1.3c0,0.9,0.7,1.5,1.5,1.5c0.4,0,0.9-0.1,1.2-0.6c0.1-0.3,0.3-0.6,0.3-0.9
		C108.7,18.5,108.4,17.9,107.9,17.8z"/>
	<path class="st0" d="M108,26.6c-0.3-0.1-0.4-0.1-0.7-0.1c-0.9,0-1.5,0.7-1.5,1.5s0.7,1.5,1.5,1.5c0.4,0,0.9-0.1,1.2-0.6
		c0.1-0.3,0.3-0.6,0.3-0.9C108.7,27.3,108.4,26.9,108,26.6z"/>
	<path class="st0" d="M116.7,17.8c-0.9-0.4-2.1,0.4-2.1,1.3c0,0.9,0.7,1.5,1.5,1.5c0.4,0,0.9-0.1,1.2-0.6c0.1-0.3,0.3-0.6,0.3-0.9
		C117.6,18.5,117.3,17.9,116.7,17.8z"/>
	<path class="st0" d="M125.5,0.1c-0.9-0.4-2.1,0.4-2.1,1.3s0.7,1.5,1.5,1.5c0.4,0,0.9-0.1,1.2-0.6c0.1-0.3,0.3-0.6,0.3-0.9
		C126.4,0.9,126.1,0.3,125.5,0.1z"/>
	<path class="st0" d="M125.6,9c-0.1-0.1-0.4-0.1-0.6-0.1c-0.9,0-1.5,0.7-1.5,1.5c0,0.7,0.7,1.5,1.5,1.5c0.4,0,0.9-0.1,1.2-0.6
		c0.1-0.3,0.3-0.6,0.3-0.9C126.4,9.7,126.1,9.3,125.6,9z"/>
	<path class="st0" d="M134.3,0.1c-0.9-0.4-2.1,0.4-2.1,1.3s0.7,1.5,1.5,1.5c0.4,0,0.9-0.1,1.2-0.6c0.1-0.3,0.3-0.6,0.3-0.9
		C135.2,0.9,134.9,0.3,134.3,0.1z"/>
	<path class="st0" d="M125.5,17.8c-0.9-0.4-2.1,0.4-2.1,1.3c0,0.9,0.7,1.5,1.5,1.5c0.4,0,0.9-0.1,1.2-0.6c0.1-0.3,0.3-0.6,0.3-0.9
		C126.4,18.5,126.1,17.9,125.5,17.8z"/>
	<path class="st0" d="M125.6,26.6c-0.1-0.1-0.4-0.1-0.6-0.1c-0.9,0-1.5,0.7-1.5,1.5s0.7,1.5,1.5,1.5c0.4,0,0.9-0.1,1.2-0.6
		c0.1-0.3,0.3-0.6,0.3-0.9C126.4,27.3,126.1,26.9,125.6,26.6z"/>
	<path class="st0" d="M134.3,17.8c-0.9-0.4-2.1,0.4-2.1,1.3c0,0.9,0.7,1.5,1.5,1.5c0.4,0,0.9-0.1,1.2-0.6c0.1-0.3,0.3-0.6,0.3-0.9
		C135.2,18.5,134.9,17.9,134.3,17.8z"/>
	<path class="st0" d="M107.9,35.4c-1-0.4-2.1,0.3-2.1,1.3c0,0.9,0.7,1.5,1.5,1.5c0.4,0,0.9-0.1,1.2-0.6c0.1-0.3,0.3-0.6,0.3-0.9
		C108.7,36.1,108.4,35.6,107.9,35.4z"/>
	<path class="st0" d="M108,44.2c-0.3-0.1-0.4-0.1-0.7-0.1c-0.9,0-1.5,0.7-1.5,1.5c0,0.7,0.7,1.5,1.5,1.5c0.4,0,0.9-0.1,1.2-0.6
		c0.1-0.3,0.3-0.6,0.3-0.9C108.7,45,108.4,44.5,108,44.2z"/>
	<path class="st0" d="M116.7,35.4c-0.9-0.4-2.1,0.4-2.1,1.3c0,0.9,0.7,1.5,1.5,1.5c0.4,0,0.9-0.1,1.2-0.6c0.1-0.3,0.3-0.6,0.3-0.9
		C117.6,36.1,117.3,35.6,116.7,35.4z"/>
	<path class="st0" d="M107.9,53c-1-0.4-2.1,0.3-2.1,1.3c0,0.9,0.7,1.5,1.5,1.5c0.4,0,0.9-0.1,1.2-0.6c0.1-0.3,0.3-0.6,0.3-0.9
		C108.7,53.8,108.4,53.2,107.9,53z"/>
	<path class="st0" d="M108,61.9c-0.3-0.1-0.4-0.1-0.7-0.1c-0.9,0-1.5,0.7-1.5,1.5s0.7,1.5,1.5,1.5c0.4,0,0.9-0.1,1.2-0.6
		c0.1-0.3,0.3-0.6,0.3-0.9C108.7,62.6,108.4,62.2,108,61.9z"/>
	<path class="st0" d="M116.7,53c-0.9-0.4-2.1,0.4-2.1,1.3c0,0.9,0.7,1.5,1.5,1.5c0.4,0,0.9-0.1,1.2-0.6c0.1-0.3,0.3-0.6,0.3-0.9
		C117.6,53.8,117.3,53.2,116.7,53z"/>
	<path class="st0" d="M125.5,35.4c-0.9-0.4-2.1,0.4-2.1,1.3c0,0.9,0.7,1.5,1.5,1.5c0.4,0,0.9-0.1,1.2-0.6c0.1-0.3,0.3-0.6,0.3-0.9
		C126.4,36.1,126.1,35.6,125.5,35.4z"/>
	<path class="st0" d="M125.6,44.2c-0.1-0.1-0.4-0.1-0.6-0.1c-0.9,0-1.5,0.7-1.5,1.5c0,0.7,0.7,1.5,1.5,1.5c0.4,0,0.9-0.1,1.2-0.6
		c0.1-0.3,0.3-0.6,0.3-0.9C126.4,45,126.1,44.5,125.6,44.2z"/>
	<path class="st0" d="M134.3,35.4c-0.9-0.4-2.1,0.4-2.1,1.3c0,0.9,0.7,1.5,1.5,1.5c0.4,0,0.9-0.1,1.2-0.6c0.1-0.3,0.3-0.6,0.3-0.9
		C135.2,36.1,134.9,35.6,134.3,35.4z"/>
	<path class="st0" d="M125.5,53c-0.9-0.4-2.1,0.4-2.1,1.3c0,0.9,0.7,1.5,1.5,1.5c0.4,0,0.9-0.1,1.2-0.6c0.1-0.3,0.3-0.6,0.3-0.9
		C126.4,53.8,126.1,53.2,125.5,53z"/>
	<path class="st0" d="M125.6,61.9c-0.1-0.1-0.4-0.1-0.6-0.1c-0.9,0-1.5,0.7-1.5,1.5s0.7,1.5,1.5,1.5c0.4,0,0.9-0.1,1.2-0.6
		c0.1-0.3,0.3-0.6,0.3-0.9C126.4,62.6,126.1,62.2,125.6,61.9z"/>
	<path class="st0" d="M134.3,53c-0.9-0.4-2.1,0.4-2.1,1.3c0,0.9,0.7,1.5,1.5,1.5c0.4,0,0.9-0.1,1.2-0.6c0.1-0.3,0.3-0.6,0.3-0.9
		C135.2,53.8,134.9,53.2,134.3,53z"/>
	<path class="st0" d="M142.5,2.9c0.4,0,0.9-0.1,1.2-0.6c0.1-0.3,0.3-0.6,0.3-0.9c0-0.6-0.4-1.2-0.9-1.3c-0.9-0.4-2.1,0.4-2.1,1.3
		C141.1,2.2,141.6,2.9,142.5,2.9z"/>
	<path class="st0" d="M143.1,9c-0.1-0.1-0.4-0.1-0.6-0.1c-0.9,0-1.5,0.7-1.5,1.5c0,0.7,0.7,1.5,1.5,1.5c0.4,0,0.9-0.1,1.2-0.6
		c0.1-0.3,0.3-0.6,0.3-0.9C144,9.7,143.7,9.3,143.1,9z"/>
	<path class="st0" d="M143.1,17.8c-0.9-0.4-2.1,0.4-2.1,1.3c0,0.9,0.7,1.5,1.5,1.5c0.4,0,0.9-0.1,1.2-0.6c0.1-0.3,0.3-0.6,0.3-0.9
		C144,18.5,143.6,17.9,143.1,17.8z"/>
	<path class="st0" d="M143.1,26.6c-0.1-0.1-0.4-0.1-0.6-0.1c-0.9,0-1.5,0.7-1.5,1.5s0.7,1.5,1.5,1.5c0.4,0,0.9-0.1,1.2-0.6
		c0.1-0.3,0.3-0.6,0.3-0.9C144,27.3,143.7,26.9,143.1,26.6z"/>
	<path class="st0" d="M143.1,35.4c-0.9-0.4-2.1,0.4-2.1,1.3c0,0.9,0.7,1.5,1.5,1.5c0.4,0,0.9-0.1,1.2-0.6c0.1-0.3,0.3-0.6,0.3-0.9
		C144,36.1,143.6,35.6,143.1,35.4z"/>
	<path class="st0" d="M143.1,44.2c-0.1-0.1-0.4-0.1-0.6-0.1c-0.9,0-1.5,0.7-1.5,1.5c0,0.7,0.7,1.5,1.5,1.5c0.4,0,0.9-0.1,1.2-0.6
		c0.1-0.3,0.3-0.6,0.3-0.9C144,45,143.7,44.5,143.1,44.2z"/>
	<path class="st0" d="M143.1,53c-0.9-0.4-2.1,0.4-2.1,1.3c0,0.9,0.7,1.5,1.5,1.5c0.4,0,0.9-0.1,1.2-0.6c0.1-0.3,0.3-0.6,0.3-0.9
		C144,53.8,143.6,53.2,143.1,53z"/>
	<path class="st0" d="M143.1,61.9c-0.1-0.1-0.4-0.1-0.6-0.1c-0.9,0-1.5,0.7-1.5,1.5s0.7,1.5,1.5,1.5c0.4,0,0.9-0.1,1.2-0.6
		c0.1-0.3,0.3-0.6,0.3-0.9C144,62.6,143.7,62.2,143.1,61.9z"/>
	<path class="st0" d="M2.1,70.7C1,70.2,0,71,0,72c0,0.9,0.7,1.5,1.5,1.5c0.3,0,0.7-0.1,0.9-0.3c0.3-0.3,0.6-0.7,0.6-1.2
		C2.9,71.4,2.5,70.8,2.1,70.7z"/>
	<path class="st0" d="M2.1,79.5c-0.1-0.1-0.4-0.1-0.6-0.1c-0.9,0-1.5,0.7-1.5,1.5c0,0.7,0.7,1.5,1.5,1.5c0.3,0,0.7-0.1,0.9-0.3
		c0.3-0.3,0.6-0.7,0.6-1.2C2.9,80.2,2.6,79.8,2.1,79.5z"/>
	<path class="st0" d="M10.9,70.7c-1-0.4-2.1,0.3-2.1,1.3c0,0.9,0.7,1.5,1.5,1.5c0.3,0,0.7-0.1,0.9-0.3c0.3-0.3,0.6-0.7,0.6-1.2
		C11.8,71.4,11.3,70.8,10.9,70.7z"/>
	<path class="st0" d="M2.1,88.3C1,87.9,0,88.6,0,89.6c0,0.9,0.7,1.5,1.5,1.5c0.3,0,0.7-0.1,0.9-0.3c0.3-0.3,0.6-0.7,0.6-1.2
		C2.9,89,2.5,88.5,2.1,88.3z"/>
	<path class="st0" d="M2.1,97.1C1.9,97,1.6,97,1.5,97C0.6,97,0,97.7,0,98.4c0,0.7,0.7,1.5,1.5,1.5c0.3,0,0.7-0.1,0.9-0.3
		c0.3-0.3,0.6-0.7,0.6-1.2C2.9,97.9,2.6,97.4,2.1,97.1z"/>
	<path class="st0" d="M10.9,88.3c-1-0.4-2.1,0.3-2.1,1.3c0,0.9,0.7,1.5,1.5,1.5c0.3,0,0.7-0.1,0.9-0.3c0.3-0.3,0.6-0.7,0.6-1.2
		C11.8,89,11.3,88.5,10.9,88.3z"/>
	<path class="st0" d="M19.7,70.7c-1-0.4-2.1,0.3-2.1,1.3c0,0.9,0.7,1.5,1.5,1.5c0.3,0,0.7-0.1,0.9-0.3c0.3-0.3,0.6-0.7,0.6-1.2
		C20.6,71.4,20.1,70.8,19.7,70.7z"/>
	<path class="st0" d="M19.7,79.5c-0.1-0.1-0.4-0.1-0.6-0.1c-0.9,0-1.5,0.7-1.5,1.5c0,0.7,0.7,1.5,1.5,1.5c0.3,0,0.7-0.1,0.9-0.3
		c0.3-0.3,0.6-0.7,0.6-1.2C20.6,80.2,20.3,79.8,19.7,79.5z"/>
	<path class="st0" d="M28.5,70.7c-1-0.4-2.1,0.3-2.1,1.3c0,0.9,0.7,1.5,1.5,1.5c0.3,0,0.7-0.1,0.9-0.3c0.3-0.3,0.6-0.7,0.6-1.2
		C29.4,71.4,28.9,70.8,28.5,70.7z"/>
	<path class="st0" d="M19.7,88.3c-1-0.4-2.1,0.3-2.1,1.3c0,0.9,0.7,1.5,1.5,1.5c0.3,0,0.7-0.1,0.9-0.3c0.3-0.3,0.6-0.7,0.6-1.2
		C20.6,89,20.1,88.5,19.7,88.3z"/>
	<path class="st0" d="M19.7,97.1C19.5,97,19.2,97,19.1,97c-0.9,0-1.5,0.7-1.5,1.5c0,0.7,0.7,1.5,1.5,1.5c0.3,0,0.7-0.1,0.9-0.3
		c0.3-0.3,0.6-0.7,0.6-1.2C20.6,97.9,20.3,97.4,19.7,97.1z"/>
	<path class="st0" d="M28.5,88.3c-1-0.4-2.1,0.3-2.1,1.3c0,0.9,0.7,1.5,1.5,1.5c0.3,0,0.7-0.1,0.9-0.3c0.3-0.3,0.6-0.7,0.6-1.2
		C29.4,89,28.9,88.5,28.5,88.3z"/>
	<path class="st0" d="M2.1,105.9c-1-0.4-2.1,0.3-2.1,1.3c0,0.9,0.7,1.5,1.5,1.5c0.3,0,0.7-0.1,0.9-0.3c0.3-0.3,0.6-0.7,0.6-1.2
		C2.9,106.7,2.5,106.1,2.1,105.9z"/>
	<path class="st0" d="M2.1,114.8c-0.1-0.1-0.4-0.1-0.6-0.1c-0.9,0-1.5,0.7-1.5,1.5s0.7,1.5,1.5,1.5c0.3,0,0.7-0.1,0.9-0.3
		c0.3-0.3,0.6-0.7,0.6-1.2C2.9,115.5,2.6,115.1,2.1,114.8z"/>
	<path class="st0" d="M10.9,105.9c-1-0.4-2.1,0.3-2.1,1.3c0,0.9,0.7,1.5,1.5,1.5c0.3,0,0.7-0.1,0.9-0.3c0.3-0.3,0.6-0.7,0.6-1.2
		C11.8,106.7,11.3,106.1,10.9,105.9z"/>
	<path class="st0" d="M2.1,123.6C1.2,123.1,0,124,0,124.9s0.7,1.5,1.5,1.5c0.3,0,0.7-0.1,0.9-0.3c0.3-0.3,0.6-0.7,0.6-1.2
		C2.9,124.3,2.5,123.7,2.1,123.6z"/>
	<path class="st0" d="M2.1,132.4c-0.1-0.1-0.4-0.1-0.6-0.1c-0.9,0-1.5,0.7-1.5,1.5c0,0.7,0.7,1.5,1.5,1.5c0.3,0,0.7-0.1,0.9-0.3
		c0.3-0.3,0.6-0.7,0.6-1.2C2.9,133.1,2.6,132.7,2.1,132.4z"/>
	<path class="st0" d="M10.9,123.6c-0.9-0.4-2.1,0.4-2.1,1.3s0.7,1.5,1.5,1.5c0.3,0,0.7-0.1,0.9-0.3c0.3-0.3,0.6-0.7,0.6-1.2
		C11.8,124.3,11.3,123.7,10.9,123.6z"/>
	<path class="st0" d="M19.7,105.9c-1-0.4-2.1,0.3-2.1,1.3c0,0.9,0.7,1.5,1.5,1.5c0.3,0,0.7-0.1,0.9-0.3c0.3-0.3,0.6-0.7,0.6-1.2
		C20.6,106.7,20.1,106.1,19.7,105.9z"/>
	<path class="st0" d="M19.7,114.8c-0.1-0.1-0.4-0.1-0.6-0.1c-0.9,0-1.5,0.7-1.5,1.5s0.7,1.5,1.5,1.5c0.3,0,0.7-0.1,0.9-0.3
		c0.3-0.3,0.6-0.7,0.6-1.2C20.6,115.5,20.3,115.1,19.7,114.8z"/>
	<path class="st0" d="M28.5,105.9c-1-0.4-2.1,0.3-2.1,1.3c0,0.9,0.7,1.5,1.5,1.5c0.3,0,0.7-0.1,0.9-0.3c0.3-0.3,0.6-0.7,0.6-1.2
		C29.4,106.7,28.9,106.1,28.5,105.9z"/>
	<path class="st0" d="M19.7,123.6c-0.9-0.4-2.1,0.4-2.1,1.3s0.7,1.5,1.5,1.5c0.3,0,0.7-0.1,0.9-0.3c0.3-0.3,0.6-0.7,0.6-1.2
		C20.6,124.3,20.1,123.7,19.7,123.6z"/>
	<path class="st0" d="M19.7,132.4c-0.1-0.1-0.4-0.1-0.6-0.1c-0.9,0-1.5,0.7-1.5,1.5c0,0.7,0.7,1.5,1.5,1.5c0.3,0,0.7-0.1,0.9-0.3
		c0.3-0.3,0.6-0.7,0.6-1.2C20.6,133.1,20.3,132.7,19.7,132.4z"/>
	<path class="st0" d="M28.5,123.6c-0.9-0.4-2.1,0.4-2.1,1.3s0.7,1.5,1.5,1.5c0.3,0,0.7-0.1,0.9-0.3c0.3-0.3,0.6-0.7,0.6-1.2
		C29.4,124.3,28.9,123.7,28.5,123.6z"/>
	<path class="st0" d="M37.3,70.7c-1-0.4-2.1,0.3-2.1,1.3c0,0.9,0.7,1.5,1.5,1.5c0.4,0,0.9-0.1,1.2-0.6c0.1-0.3,0.3-0.6,0.3-0.9
		C38.2,71.4,37.8,70.8,37.3,70.7z"/>
	<path class="st0" d="M37.3,79.5c-0.1-0.1-0.3-0.1-0.6-0.1c-0.9,0-1.5,0.7-1.5,1.5c0,0.7,0.7,1.5,1.5,1.5c0.4,0,0.9-0.1,1.2-0.6
		c0.1-0.3,0.3-0.6,0.3-0.9C38.2,80.2,37.9,79.8,37.3,79.5z"/>
	<path class="st0" d="M46.1,70.7c-1-0.4-2.1,0.3-2.1,1.3c0,0.9,0.7,1.5,1.5,1.5c0.4,0,0.9-0.1,1.2-0.6c0.1-0.3,0.3-0.6,0.3-0.9
		C47,71.4,46.6,70.8,46.1,70.7z"/>
	<path class="st0" d="M37.3,88.3c-1-0.4-2.1,0.3-2.1,1.3c0,0.9,0.7,1.5,1.5,1.5c0.4,0,0.9-0.1,1.2-0.6c0.1-0.3,0.3-0.6,0.3-0.9
		C38.2,89,37.8,88.5,37.3,88.3z"/>
	<path class="st0" d="M37.3,97.1C37.2,97,37,97,36.7,97c-0.9,0-1.5,0.7-1.5,1.5c0,0.7,0.7,1.5,1.5,1.5c0.4,0,0.9-0.1,1.2-0.6
		c0.1-0.3,0.3-0.6,0.3-0.9C38.2,97.9,37.9,97.4,37.3,97.1z"/>
	<path class="st0" d="M46.1,88.3c-1-0.4-2.1,0.3-2.1,1.3c0,0.9,0.7,1.5,1.5,1.5c0.4,0,0.9-0.1,1.2-0.6c0.1-0.3,0.3-0.6,0.3-0.9
		C47,89,46.6,88.5,46.1,88.3z"/>
	<path class="st0" d="M54.4,80.8L54.4,80.8L54.4,80.8L54.4,80.8L54.4,80.8z"/>
	<path class="st0" d="M37.3,105.9c-1-0.4-2.1,0.3-2.1,1.3c0,0.9,0.7,1.5,1.5,1.5c0.4,0,0.9-0.1,1.2-0.6c0.1-0.3,0.3-0.6,0.3-0.9
		C38.2,106.7,37.8,106.1,37.3,105.9z"/>
	<path class="st0" d="M37.3,114.8c-0.1-0.1-0.4-0.1-0.6-0.1c-0.9,0-1.5,0.7-1.5,1.5s0.7,1.5,1.5,1.5c0.4,0,0.9-0.1,1.2-0.6
		c0.1-0.3,0.3-0.6,0.3-0.9C38.2,115.5,37.9,115.1,37.3,114.8z"/>
	<path class="st0" d="M46.1,105.9c-1-0.4-2.1,0.3-2.1,1.3c0,0.9,0.7,1.5,1.5,1.5c0.4,0,0.9-0.1,1.2-0.6c0.1-0.3,0.3-0.6,0.3-0.9
		C47,106.7,46.6,106.1,46.1,105.9z"/>
	<path class="st0" d="M37.3,123.6c-0.9-0.4-2.1,0.4-2.1,1.3s0.7,1.5,1.5,1.5c0.4,0,0.9-0.1,1.2-0.6c0.1-0.3,0.3-0.6,0.3-0.9
		C38.2,124.3,37.8,123.7,37.3,123.6z"/>
	<path class="st0" d="M37.3,132.4c-0.1-0.1-0.4-0.1-0.6-0.1c-0.9,0-1.5,0.7-1.5,1.5c0,0.7,0.7,1.5,1.5,1.5c0.4,0,0.9-0.1,1.2-0.6
		c0.1-0.3,0.3-0.6,0.3-0.9C38.2,133.1,37.9,132.7,37.3,132.4z"/>
	<path class="st0" d="M46.1,123.6c-0.9-0.4-2.1,0.4-2.1,1.3s0.7,1.5,1.5,1.5c0.4,0,0.9-0.1,1.2-0.6c0.1-0.3,0.3-0.6,0.3-0.9
		C47,124.3,46.6,123.7,46.1,123.6z"/>
	<path class="st0" d="M55,105.9c-1-0.4-2.1,0.3-2.1,1.3c0,0.9,0.7,1.5,1.5,1.5c0.4,0,0.9-0.1,1.2-0.6c0.1-0.3,0.3-0.6,0.3-0.9
		C55.8,106.7,55.4,106.1,55,105.9z"/>
	<path class="st0" d="M55,114.8c-0.1-0.1-0.4-0.1-0.6-0.1c-0.9,0-1.5,0.7-1.5,1.5s0.7,1.5,1.5,1.5c0.4,0,0.9-0.1,1.2-0.6
		c0.1-0.3,0.3-0.6,0.3-0.9C55.8,115.5,55.5,115.1,55,114.8z"/>
	<path class="st0" d="M63.8,105.9c-1-0.4-2.1,0.3-2.1,1.3c0,0.9,0.7,1.5,1.5,1.5c0.4,0,0.9-0.1,1.2-0.6c0.1-0.3,0.3-0.6,0.3-0.9
		C64.7,106.7,64.2,106.1,63.8,105.9z"/>
	<path class="st0" d="M55,123.6c-0.9-0.4-2.1,0.4-2.1,1.3s0.7,1.5,1.5,1.5c0.4,0,0.9-0.1,1.2-0.6c0.1-0.3,0.3-0.6,0.3-0.9
		C55.8,124.3,55.4,123.7,55,123.6z"/>
	<path class="st0" d="M55,132.4c-0.1-0.1-0.4-0.1-0.6-0.1c-0.9,0-1.5,0.7-1.5,1.5c0,0.7,0.7,1.5,1.5,1.5c0.4,0,0.9-0.1,1.2-0.6
		c0.1-0.3,0.3-0.6,0.3-0.9C55.8,133.1,55.5,132.7,55,132.4z"/>
	<path class="st0" d="M63.8,123.6c-0.9-0.4-2.1,0.4-2.1,1.3s0.7,1.5,1.5,1.5c0.4,0,0.9-0.1,1.2-0.6c0.1-0.3,0.3-0.6,0.3-0.9
		C64.7,124.3,64.2,123.7,63.8,123.6z"/>
	<path class="st0" d="M72.6,97.1C72.4,97,72.3,97,72,97c-0.9,0-1.5,0.7-1.5,1.5c0,0.7,0.7,1.5,1.5,1.5c0.4,0,0.9-0.1,1.2-0.6
		c0.1-0.3,0.3-0.6,0.3-0.9C73.5,97.9,73.2,97.4,72.6,97.1z"/>
	<path class="st0" d="M81.4,88.3c-1-0.4-2.1,0.3-2.1,1.3c0,0.9,0.7,1.5,1.5,1.5c0.4,0,0.9-0.1,1.2-0.6c0.1-0.3,0.3-0.6,0.3-0.9
		C82.3,89,81.8,88.5,81.4,88.3z"/>
	<path class="st0" d="M90.2,79.5c-0.1-0.1-0.3-0.1-0.6-0.1c-0.9,0-1.5,0.7-1.5,1.5c0,0.7,0.7,1.5,1.5,1.5c0.4,0,0.9-0.1,1.2-0.6
		c0.1-0.3,0.3-0.6,0.3-0.9C91.1,80.2,90.8,79.8,90.2,79.5z"/>
	<path class="st0" d="M99,70.7C98,70.2,97,71,97,72c0,0.9,0.7,1.5,1.5,1.5c0.4,0,0.9-0.1,1.2-0.6c0.1-0.3,0.3-0.6,0.3-0.9
		C99.9,71.4,99.5,70.8,99,70.7z"/>
	<path class="st0" d="M90.2,88.3c-1-0.4-2.1,0.3-2.1,1.3c0,0.9,0.7,1.5,1.5,1.5c0.4,0,0.9-0.1,1.2-0.6c0.1-0.3,0.3-0.6,0.3-0.9
		C91.1,89,90.7,88.5,90.2,88.3z"/>
	<path class="st0" d="M90.2,97.1C90.1,97,89.9,97,89.6,97c-0.9,0-1.5,0.7-1.5,1.5c0,0.7,0.7,1.5,1.5,1.5c0.4,0,0.9-0.1,1.2-0.6
		c0.1-0.3,0.3-0.6,0.3-0.9C91.1,97.9,90.8,97.4,90.2,97.1z"/>
	<path class="st0" d="M99,88.3c-1-0.4-2.1,0.3-2.1,1.3c0,0.9,0.7,1.5,1.5,1.5c0.4,0,0.9-0.1,1.2-0.6c0.1-0.3,0.3-0.6,0.3-0.9
		C99.9,89,99.5,88.5,99,88.3z"/>
	<path class="st0" d="M72.6,105.9c-1-0.4-2.1,0.3-2.1,1.3c0,0.9,0.7,1.5,1.5,1.5c0.4,0,0.9-0.1,1.2-0.6c0.1-0.3,0.3-0.6,0.3-0.9
		C73.5,106.7,73,106.1,72.6,105.9z"/>
	<path class="st0" d="M72.6,114.8c-0.1-0.1-0.4-0.1-0.6-0.1c-0.9,0-1.5,0.7-1.5,1.5s0.7,1.5,1.5,1.5c0.4,0,0.9-0.1,1.2-0.6
		c0.1-0.3,0.3-0.6,0.3-0.9C73.5,115.5,73.2,115.1,72.6,114.8z"/>
	<path class="st0" d="M81.4,105.9c-1-0.4-2.1,0.3-2.1,1.3c0,0.9,0.7,1.5,1.5,1.5c0.4,0,0.9-0.1,1.2-0.6c0.1-0.3,0.3-0.6,0.3-0.9
		C82.3,106.7,81.8,106.1,81.4,105.9z"/>
	<path class="st0" d="M72.6,123.6c-0.9-0.4-2.1,0.4-2.1,1.3s0.7,1.5,1.5,1.5c0.4,0,0.9-0.1,1.2-0.6c0.1-0.3,0.3-0.6,0.3-0.9
		C73.5,124.3,73,123.7,72.6,123.6z"/>
	<path class="st0" d="M72.6,132.4c-0.1-0.1-0.4-0.1-0.6-0.1c-0.9,0-1.5,0.7-1.5,1.5c0,0.7,0.7,1.5,1.5,1.5c0.4,0,0.9-0.1,1.2-0.6
		c0.1-0.3,0.3-0.6,0.3-0.9C73.5,133.1,73.2,132.7,72.6,132.4z"/>
	<path class="st0" d="M81.4,123.6c-0.9-0.4-2.1,0.4-2.1,1.3s0.7,1.5,1.5,1.5c0.4,0,0.9-0.1,1.2-0.6c0.1-0.3,0.3-0.6,0.3-0.9
		C82.3,124.3,81.8,123.7,81.4,123.6z"/>
	<path class="st0" d="M90.2,105.9c-1-0.4-2.1,0.3-2.1,1.3c0,0.9,0.7,1.5,1.5,1.5c0.4,0,0.9-0.1,1.2-0.6c0.1-0.3,0.3-0.6,0.3-0.9
		C91.1,106.7,90.7,106.1,90.2,105.9z"/>
	<path class="st0" d="M90.2,114.8c-0.1-0.1-0.4-0.1-0.6-0.1c-0.9,0-1.5,0.7-1.5,1.5s0.7,1.5,1.5,1.5c0.4,0,0.9-0.1,1.2-0.6
		c0.1-0.3,0.3-0.6,0.3-0.9C91.1,115.5,90.8,115.1,90.2,114.8z"/>
	<path class="st0" d="M99,105.9c-1-0.4-2.1,0.3-2.1,1.3c0,0.9,0.7,1.5,1.5,1.5c0.4,0,0.9-0.1,1.2-0.6c0.1-0.3,0.3-0.6,0.3-0.9
		C99.9,106.7,99.5,106.1,99,105.9z"/>
	<path class="st0" d="M90.2,123.6c-0.9-0.4-2.1,0.4-2.1,1.3s0.7,1.5,1.5,1.5c0.4,0,0.9-0.1,1.2-0.6c0.1-0.3,0.3-0.6,0.3-0.9
		C91.1,124.3,90.7,123.7,90.2,123.6z"/>
	<path class="st0" d="M90.2,132.4c-0.1-0.1-0.4-0.1-0.6-0.1c-0.9,0-1.5,0.7-1.5,1.5c0,0.7,0.7,1.5,1.5,1.5c0.4,0,0.9-0.1,1.2-0.6
		c0.1-0.3,0.3-0.6,0.3-0.9C91.1,133.1,90.8,132.7,90.2,132.4z"/>
	<path class="st0" d="M99,123.6c-0.9-0.4-2.1,0.4-2.1,1.3s0.7,1.5,1.5,1.5c0.4,0,0.9-0.1,1.2-0.6c0.1-0.3,0.3-0.6,0.3-0.9
		C99.9,124.3,99.5,123.7,99,123.6z"/>
	<path class="st0" d="M107.9,70.7c-1-0.4-2.1,0.3-2.1,1.3c0,0.9,0.7,1.5,1.5,1.5c0.4,0,0.9-0.1,1.2-0.6c0.1-0.3,0.3-0.6,0.3-0.9
		C108.7,71.4,108.4,70.8,107.9,70.7z"/>
	<path class="st0" d="M108,79.5c-0.3-0.1-0.4-0.1-0.7-0.1c-0.9,0-1.5,0.7-1.5,1.5c0,0.7,0.7,1.5,1.5,1.5c0.4,0,0.9-0.1,1.2-0.6
		c0.1-0.3,0.3-0.6,0.3-0.9C108.7,80.2,108.4,79.8,108,79.5z"/>
	<path class="st0" d="M116.7,70.7c-0.9-0.4-2.1,0.4-2.1,1.3s0.7,1.5,1.5,1.5c0.4,0,0.9-0.1,1.2-0.6c0.1-0.3,0.3-0.6,0.3-0.9
		C117.6,71.4,117.3,70.8,116.7,70.7z"/>
	<path class="st0" d="M107.9,88.3c-1-0.4-2.1,0.3-2.1,1.3c0,0.9,0.7,1.5,1.5,1.5c0.4,0,0.9-0.1,1.2-0.6c0.1-0.3,0.3-0.6,0.3-0.9
		C108.7,89,108.4,88.5,107.9,88.3z"/>
	<path class="st0" d="M108,97.1c-0.3-0.1-0.4-0.1-0.7-0.1c-0.9,0-1.5,0.7-1.5,1.5c0,0.7,0.7,1.5,1.5,1.5c0.4,0,0.9-0.1,1.2-0.6
		c0.1-0.3,0.3-0.6,0.3-0.9C108.7,97.9,108.4,97.4,108,97.1z"/>
	<path class="st0" d="M116.7,88.3c-0.9-0.4-2.1,0.4-2.1,1.3s0.7,1.5,1.5,1.5c0.4,0,0.9-0.1,1.2-0.6c0.1-0.3,0.3-0.6,0.3-0.9
		C117.6,89,117.3,88.5,116.7,88.3z"/>
	<path class="st0" d="M125.5,70.7c-0.9-0.4-2.1,0.4-2.1,1.3s0.7,1.5,1.5,1.5c0.4,0,0.9-0.1,1.2-0.6c0.1-0.3,0.3-0.6,0.3-0.9
		C126.4,71.4,126.1,70.8,125.5,70.7z"/>
	<path class="st0" d="M125.6,79.5c-0.1-0.1-0.4-0.1-0.6-0.1c-0.9,0-1.5,0.7-1.5,1.5c0,0.7,0.7,1.5,1.5,1.5c0.4,0,0.9-0.1,1.2-0.6
		c0.1-0.3,0.3-0.6,0.3-0.9C126.4,80.2,126.1,79.8,125.6,79.5z"/>
	<path class="st0" d="M134.3,70.7c-0.9-0.4-2.1,0.4-2.1,1.3s0.7,1.5,1.5,1.5c0.4,0,0.9-0.1,1.2-0.6c0.1-0.3,0.3-0.6,0.3-0.9
		C135.2,71.4,134.9,70.8,134.3,70.7z"/>
	<path class="st0" d="M125.5,88.3c-0.9-0.4-2.1,0.4-2.1,1.3s0.7,1.5,1.5,1.5c0.4,0,0.9-0.1,1.2-0.6c0.1-0.3,0.3-0.6,0.3-0.9
		C126.4,89,126.1,88.5,125.5,88.3z"/>
	<path class="st0" d="M125.6,97.1c-0.1-0.1-0.4-0.1-0.6-0.1c-0.9,0-1.5,0.7-1.5,1.5c0,0.7,0.7,1.5,1.5,1.5c0.4,0,0.9-0.1,1.2-0.6
		c0.1-0.3,0.3-0.6,0.3-0.9C126.4,97.9,126.1,97.4,125.6,97.1z"/>
	<path class="st0" d="M134.3,88.3c-0.9-0.4-2.1,0.4-2.1,1.3s0.7,1.5,1.5,1.5c0.4,0,0.9-0.1,1.2-0.6c0.1-0.3,0.3-0.6,0.3-0.9
		C135.2,89,134.9,88.5,134.3,88.3z"/>
	<path class="st0" d="M107.9,105.9c-1-0.4-2.1,0.3-2.1,1.3c0,0.9,0.7,1.5,1.5,1.5c0.4,0,0.9-0.1,1.2-0.6c0.1-0.3,0.3-0.6,0.3-0.9
		C108.7,106.7,108.4,106.1,107.9,105.9z"/>
	<path class="st0" d="M108,114.8c-0.1-0.1-0.4-0.1-0.6-0.1c-0.9,0-1.5,0.7-1.5,1.5s0.7,1.5,1.5,1.5c0.4,0,0.9-0.1,1.2-0.6
		c0.1-0.3,0.3-0.6,0.3-0.9C108.7,115.5,108.4,115.1,108,114.8z"/>
	<path class="st0" d="M116.7,105.9c-0.9-0.4-2.1,0.4-2.1,1.3s0.7,1.5,1.5,1.5c0.4,0,0.9-0.1,1.2-0.6c0.1-0.3,0.3-0.6,0.3-0.9
		C117.6,106.7,117.3,106.1,116.7,105.9z"/>
	<path class="st0" d="M107.9,123.6c-0.9-0.4-2.1,0.4-2.1,1.3s0.7,1.5,1.5,1.5c0.4,0,0.9-0.1,1.2-0.6c0.1-0.3,0.3-0.6,0.3-0.9
		C108.7,124.3,108.4,123.7,107.9,123.6z"/>
	<path class="st0" d="M108,132.4c-0.1-0.1-0.4-0.1-0.6-0.1c-0.9,0-1.5,0.7-1.5,1.5c0,0.7,0.7,1.5,1.5,1.5c0.4,0,0.9-0.1,1.2-0.6
		c0.1-0.3,0.3-0.6,0.3-0.9C108.7,133.1,108.4,132.7,108,132.4z"/>
	<path class="st0" d="M116.7,123.6c-0.9-0.4-2.1,0.4-2.1,1.3s0.7,1.5,1.5,1.5c0.4,0,0.9-0.1,1.2-0.6c0.1-0.3,0.3-0.6,0.3-0.9
		C117.6,124.3,117.3,123.7,116.7,123.6z"/>
	<path class="st0" d="M125.5,105.9c-0.9-0.4-2.1,0.4-2.1,1.3s0.7,1.5,1.5,1.5c0.4,0,0.9-0.1,1.2-0.6c0.1-0.3,0.3-0.6,0.3-0.9
		C126.4,106.7,126.1,106.1,125.5,105.9z"/>
	<path class="st0" d="M125.6,114.8c-0.1-0.1-0.4-0.1-0.6-0.1c-0.9,0-1.5,0.7-1.5,1.5s0.7,1.5,1.5,1.5c0.4,0,0.9-0.1,1.2-0.6
		c0.1-0.3,0.3-0.6,0.3-0.9C126.4,115.5,126.1,115.1,125.6,114.8z"/>
	<path class="st0" d="M134.3,105.9c-0.9-0.4-2.1,0.4-2.1,1.3s0.7,1.5,1.5,1.5c0.4,0,0.9-0.1,1.2-0.6c0.1-0.3,0.3-0.6,0.3-0.9
		C135.2,106.7,134.9,106.1,134.3,105.9z"/>
	<path class="st0" d="M125.5,123.6c-0.9-0.4-2.1,0.4-2.1,1.3s0.7,1.5,1.5,1.5c0.4,0,0.9-0.1,1.2-0.6c0.1-0.3,0.3-0.6,0.3-0.9
		C126.4,124.3,126.1,123.7,125.5,123.6z"/>
	<path class="st0" d="M125.6,132.4c-0.1-0.1-0.4-0.1-0.6-0.1c-0.9,0-1.5,0.7-1.5,1.5c0,0.7,0.7,1.5,1.5,1.5c0.4,0,0.9-0.1,1.2-0.6
		c0.1-0.3,0.3-0.6,0.3-0.9C126.4,133.1,126.1,132.7,125.6,132.4z"/>
	<path class="st0" d="M134.3,123.6c-0.9-0.4-2.1,0.4-2.1,1.3s0.7,1.5,1.5,1.5c0.4,0,0.9-0.1,1.2-0.6c0.1-0.3,0.3-0.6,0.3-0.9
		C135.2,124.3,134.9,123.7,134.3,123.6z"/>
	<path class="st0" d="M143.1,70.7c-0.9-0.4-2.1,0.4-2.1,1.3s0.7,1.5,1.5,1.5c0.4,0,0.9-0.1,1.2-0.6c0.1-0.3,0.3-0.6,0.3-0.9
		C144,71.4,143.6,70.8,143.1,70.7z"/>
	<path class="st0" d="M143.1,79.5c-0.1-0.1-0.4-0.1-0.6-0.1c-0.9,0-1.5,0.7-1.5,1.5c0,0.7,0.7,1.5,1.5,1.5c0.4,0,0.9-0.1,1.2-0.6
		c0.1-0.3,0.3-0.6,0.3-0.9C144,80.2,143.7,79.8,143.1,79.5z"/>
	<path class="st0" d="M143.1,88.3c-0.9-0.4-2.1,0.4-2.1,1.3s0.7,1.5,1.5,1.5c0.4,0,0.9-0.1,1.2-0.6c0.1-0.3,0.3-0.6,0.3-0.9
		C144,89,143.6,88.5,143.1,88.3z"/>
	<path class="st0" d="M143.1,97.1c-0.1-0.1-0.4-0.1-0.6-0.1c-0.9,0-1.5,0.7-1.5,1.5c0,0.7,0.7,1.5,1.5,1.5c0.4,0,0.9-0.1,1.2-0.6
		c0.1-0.3,0.3-0.6,0.3-0.9C144,97.9,143.7,97.4,143.1,97.1z"/>
	<path class="st0" d="M143.1,105.9c-0.9-0.4-2.1,0.4-2.1,1.3s0.7,1.5,1.5,1.5c0.4,0,0.9-0.1,1.2-0.6c0.1-0.3,0.3-0.6,0.3-0.9
		C144,106.7,143.6,106.1,143.1,105.9z"/>
	<path class="st0" d="M143.1,114.8c-0.1-0.1-0.4-0.1-0.6-0.1c-0.9,0-1.5,0.7-1.5,1.5s0.7,1.5,1.5,1.5c0.4,0,0.9-0.1,1.2-0.6
		c0.1-0.3,0.3-0.6,0.3-0.9C144,115.5,143.7,115.1,143.1,114.8z"/>
	<path class="st0" d="M143.1,123.6c-0.9-0.4-2.1,0.4-2.1,1.3s0.7,1.5,1.5,1.5c0.4,0,0.9-0.1,1.2-0.6c0.1-0.3,0.3-0.6,0.3-0.9
		C144,124.3,143.6,123.7,143.1,123.6z"/>
	<path class="st0" d="M2.1,141.2c-0.9-0.4-2.1,0.4-2.1,1.3c0,0.9,0.7,1.5,1.5,1.5c0.3,0,0.7-0.1,0.9-0.3c0.3-0.3,0.6-0.7,0.6-1.2
		C2.9,141.9,2.5,141.4,2.1,141.2z"/>
	<path class="st0" d="M10.9,141.2c-0.9-0.4-2.1,0.4-2.1,1.3c0,0.9,0.7,1.5,1.5,1.5c0.3,0,0.7-0.1,0.9-0.3c0.3-0.3,0.6-0.7,0.6-1.2
		C11.8,141.9,11.3,141.4,10.9,141.2z"/>
	<path class="st0" d="M19.7,141.2c-0.9-0.4-2.1,0.4-2.1,1.3c0,0.9,0.7,1.5,1.5,1.5c0.3,0,0.7-0.1,0.9-0.3c0.3-0.3,0.6-0.7,0.6-1.2
		C20.6,141.9,20.1,141.4,19.7,141.2z"/>
	<path class="st0" d="M28.5,141.2c-0.9-0.4-2.1,0.4-2.1,1.3c0,0.9,0.7,1.5,1.5,1.5c0.3,0,0.7-0.1,0.9-0.3c0.3-0.3,0.6-0.7,0.6-1.2
		C29.4,141.9,28.9,141.4,28.5,141.2z"/>
	<path class="st0" d="M37.3,141.2c-0.9-0.4-2.1,0.4-2.1,1.3c0,0.9,0.7,1.5,1.5,1.5c0.4,0,0.9-0.1,1.2-0.6c0.1-0.3,0.3-0.6,0.3-0.9
		C38.2,141.9,37.8,141.4,37.3,141.2z"/>
	<path class="st0" d="M46.1,141.2c-0.9-0.4-2.1,0.4-2.1,1.3c0,0.9,0.7,1.5,1.5,1.5c0.4,0,0.9-0.1,1.2-0.6c0.1-0.3,0.3-0.6,0.3-0.9
		C47,141.9,46.6,141.4,46.1,141.2z"/>
	<path class="st0" d="M55,141.2c-0.9-0.4-2.1,0.4-2.1,1.3c0,0.9,0.7,1.5,1.5,1.5c0.4,0,0.9-0.1,1.2-0.6c0.1-0.3,0.3-0.6,0.3-0.9
		C55.8,141.9,55.4,141.4,55,141.2z"/>
	<path class="st0" d="M63.8,141.2c-0.9-0.4-2.1,0.4-2.1,1.3c0,0.9,0.7,1.5,1.5,1.5c0.4,0,0.9-0.1,1.2-0.6c0.1-0.3,0.3-0.6,0.3-0.9
		C64.7,141.9,64.2,141.4,63.8,141.2z"/>
	<path class="st0" d="M72.6,141.2c-0.9-0.4-2.1,0.4-2.1,1.3c0,0.9,0.7,1.5,1.5,1.5c0.4,0,0.9-0.1,1.2-0.6c0.1-0.3,0.3-0.6,0.3-0.9
		C73.5,141.9,73,141.4,72.6,141.2z"/>
	<path class="st0" d="M81.4,141.2c-0.9-0.4-2.1,0.4-2.1,1.3c0,0.9,0.7,1.5,1.5,1.5c0.4,0,0.9-0.1,1.2-0.6c0.1-0.3,0.3-0.6,0.3-0.9
		C82.3,141.9,81.8,141.4,81.4,141.2z"/>
	<path class="st0" d="M90.2,141.2c-0.9-0.4-2.1,0.4-2.1,1.3c0,0.9,0.7,1.5,1.5,1.5c0.4,0,0.9-0.1,1.2-0.6c0.1-0.3,0.3-0.6,0.3-0.9
		C91.1,141.9,90.7,141.4,90.2,141.2z"/>
	<path class="st0" d="M99,141.2c-0.9-0.4-2.1,0.4-2.1,1.3c0,0.9,0.7,1.5,1.5,1.5c0.4,0,0.9-0.1,1.2-0.6c0.1-0.3,0.3-0.6,0.3-0.9
		C99.9,141.9,99.5,141.4,99,141.2z"/>
	<path class="st0" d="M107.9,141.2c-0.9-0.4-2.1,0.4-2.1,1.3c0,0.9,0.7,1.5,1.5,1.5c0.4,0,0.9-0.1,1.2-0.6c0.1-0.3,0.3-0.6,0.3-0.9
		C108.7,141.9,108.4,141.4,107.9,141.2z"/>
	<path class="st0" d="M116.7,141.2c-0.9-0.4-2.1,0.4-2.1,1.3c0,0.9,0.7,1.5,1.5,1.5c0.4,0,0.9-0.1,1.2-0.6c0.1-0.3,0.3-0.6,0.3-0.9
		C117.6,141.9,117.3,141.4,116.7,141.2z"/>
	<path class="st0" d="M125.5,141.2c-0.9-0.4-2.1,0.4-2.1,1.3c0,0.9,0.7,1.5,1.5,1.5c0.4,0,0.9-0.1,1.2-0.6c0.1-0.3,0.3-0.6,0.3-0.9
		C126.4,141.9,126.1,141.4,125.5,141.2z"/>
	<path class="st0" d="M134.3,141.2c-0.9-0.4-2.1,0.4-2.1,1.3c0,0.9,0.7,1.5,1.5,1.5c0.4,0,0.9-0.1,1.2-0.6c0.1-0.3,0.3-0.6,0.3-0.9
		C135.2,141.9,134.9,141.4,134.3,141.2z"/>
	<path class="st0" d="M143.1,141.2c-0.9-0.4-2.1,0.4-2.1,1.3c0,0.9,0.7,1.5,1.5,1.5c0.4,0,0.9-0.1,1.2-0.6c0.1-0.3,0.3-0.6,0.3-0.9
		C144,141.9,143.6,141.4,143.1,141.2z"/>
	<path class="st0" d="M143.1,132.4c-0.1-0.1-0.4-0.1-0.6-0.1c-0.9,0-1.5,0.7-1.5,1.5c0,0.7,0.7,1.5,1.5,1.5c0.4,0,0.9-0.1,1.2-0.6
		c0.1-0.3,0.3-0.6,0.3-0.9C144,133.1,143.7,132.7,143.1,132.4z"/>
	<path class="st0" d="M89.6,47.8c-8.2,0-16.3,3.2-21.6,5.9l-1.8-12.8l-2.9,0.4l1.3,9c-0.4-0.9-0.9-1.8-1.8-2.5
		c-1.9-1.9-4.6-2.6-7.1-2.2c0-0.6-0.3-1-0.9-1.3c-0.1-0.1-0.3-0.1-0.6-0.1c-0.9,0-1.5,0.7-1.5,1.5c0,0.3,0.1,0.6,0.3,0.9
		c-0.1,0.1-0.4,0.1-0.6,0.3l-3.2-3.2l-2.1,2.1l3.2,3.2c-2.2,3.1-1.9,7.5,0.9,10.3c0.7,0.7,1.6,1.3,2.5,1.8l-9-1.3l-0.4,2.9l8.4,1.2
		c0.1,0.6,0.7,1,1.3,1c0.4,0,0.9-0.1,1.2-0.6l0,0l1,0.1c-0.9,1.9-1.9,4.1-2.8,6.5c-0.4,0.3-0.7,0.7-0.7,1.3c0,0.3,0.1,0.4,0.1,0.7
		c-1.2,3.8-2.2,8.2-2.2,12.5c0,5.1,1.8,9.6,4.4,12.2c-0.1-0.1-0.1-0.1-0.3-0.3C54.8,97,54.7,97,54.4,97c-0.9,0-1.5,0.7-1.5,1.5
		c0,0.7,0.7,1.5,1.5,1.5c0.4,0,0.9-0.1,1.2-0.6c0.1-0.3,0.3-0.6,0.3-0.9c0-0.4-0.1-0.9-0.4-1c1.6,1.6,3.7,2.5,5.9,2.5
		c4.4,0,8.1-3.8,9.6-9.4c0.3,0.3,0.7,0.6,1.2,0.6s0.7-0.1,1-0.4V91l2.9-0.4l-1.3-9.7c2.6,0,5.1-1.2,7.1-2.9c1.9-1.9,2.9-4.4,2.9-7.1
		l3.7,0.6c-0.1,0.1-0.1,0.3-0.1,0.6c0,0.9,0.7,1.5,1.5,1.5c0.4,0,0.9-0.1,1.2-0.6c0.1-0.3,0.3-0.6,0.3-0.9v-0.1l3.2,0.4l0.4-2.9
		l-7.1-1c0.7,0,1.3,0.1,2.1,0.1c8.2,0,14.7-4.6,14.7-10.3S97.9,47.8,89.6,47.8z M71.4,78.9v0.3v0.3c-0.1,0-0.3,0.1-0.3,0.3
		c0-0.3-0.1-0.7-0.1-1C71,78.8,71.3,78.8,71.4,78.9z M65.2,54.8L65.2,54.8c-0.1-0.1-0.1-0.3,0-0.4V54.8z M61.3,97
		c-4,0-7.3-5.4-7.3-11.8c0-7.2,2.8-14.5,5.1-19.4c0.4,1,1,1.9,1.8,2.8c1,1,2.4,1.8,3.8,2.1c0.4,1.8,1.2,3.5,2.5,5.1
		c0.9,2.9,1.3,6.2,1.3,9.4C68.6,91.5,65.2,97,61.3,97z M72.6,88.3c-0.4-0.1-0.9-0.1-1.3,0.1c0.1-1,0.3-2.1,0.3-3.2
		c0-1,0-2.1-0.1-3.1c0.1,0.1,0.3,0.1,0.4,0.1l0.9,6.2C72.7,88.3,72.6,88.3,72.6,88.3z M89.6,65.4c-3.1,0-6.3-0.6-9.3-1.3
		c-1.9-1.8-4-2.8-6-3.2c-0.3-1.5-1-2.8-2.1-3.8c-0.6-0.6-1.2-0.9-1.8-1.3c5-2.4,12-5,19.1-5c6.3,0,11.8,3.4,11.8,7.3
		C101.4,62,96,65.4,89.6,65.4z"/>
</g>
</svg>
