<?xml version="1.0" encoding="utf-8"?>
<!-- Generator: Adobe Illustrator 21.1.0, SVG Export Plug-In . SVG Version: 6.00 Build 0)  -->
<!DOCTYPE svg PUBLIC "-//W3C//DTD SVG 1.1//EN" "http://www.w3.org/Graphics/SVG/1.1/DTD/svg11.dtd">
<svg version="1.1" id="Layer_1" xmlns="http://www.w3.org/2000/svg" xmlns:xlink="http://www.w3.org/1999/xlink" x="0px" y="0px"
	 viewBox="0 0 144 144" style="enable-background:new 0 0 144 144;" xml:space="preserve">
<style type="text/css">
	.st0{fill:none;stroke:#000000;stroke-width:4;stroke-linecap:round;stroke-linejoin:round;stroke-miterlimit:10;}
	
		.st1{fill:none;stroke:#000000;stroke-width:2;stroke-linecap:round;stroke-linejoin:round;stroke-miterlimit:10;stroke-dasharray:0,4;}
	.st2{stroke:#000000;stroke-miterlimit:10;}
	.st3{fill:#FFFFFF;}
	.st4{fill:none;stroke:#424143;stroke-width:2;stroke-miterlimit:10;}
	.st5{fill:none;stroke:#000000;stroke-width:2;stroke-miterlimit:10;}
	.st6{fill:none;stroke:#231F20;stroke-width:2;stroke-miterlimit:10;}
	.st7{fill:none;stroke:#231F20;stroke-miterlimit:10;}
	.st8{fill:#231F20;}
	.st9{fill:#FFFFFF;stroke:#000000;stroke-width:2;stroke-linecap:round;stroke-miterlimit:10;}
	.st10{fill:#FFFFFF;stroke:#404041;stroke-width:2;stroke-linecap:round;stroke-miterlimit:10;}
	.st11{fill:none;stroke:#000000;stroke-width:2;stroke-linecap:square;stroke-miterlimit:10;}
	.st12{fill:none;stroke:#000000;stroke-width:2;stroke-linecap:round;stroke-miterlimit:10;}
	.st13{stroke:#000000;stroke-width:2;stroke-linecap:round;stroke-miterlimit:10;}
	.st14{fill:#FFFFFF;stroke:#000000;stroke-width:2;stroke-miterlimit:10;}
	.st15{fill:none;stroke:#000000;stroke-width:2;stroke-linecap:round;stroke-miterlimit:10;stroke-dasharray:0,3.9906;}
	.st16{fill:none;stroke:#000000;stroke-width:2;stroke-linecap:round;stroke-miterlimit:10;stroke-dasharray:0,3.9889;}
	.st17{fill:none;stroke:#000000;stroke-width:2;stroke-linecap:round;stroke-miterlimit:10;stroke-dasharray:0,3.9411;}
	.st18{fill:none;stroke:#000000;stroke-width:2;stroke-linecap:round;stroke-miterlimit:10;stroke-dasharray:0,3.6822;}
	.st19{fill:none;stroke:#000000;stroke-width:2;stroke-linecap:round;stroke-miterlimit:10;stroke-dasharray:0,4.2;}
	.st20{fill:#FFFFFF;stroke:#000000;stroke-linecap:round;stroke-miterlimit:10;}
	.st21{fill:#FFFFFF;stroke:#000000;stroke-width:2;stroke-linecap:round;stroke-linejoin:round;stroke-miterlimit:10;}
	.st22{fill:none;stroke:#000000;stroke-linecap:round;stroke-miterlimit:10;}
	.st23{fill:none;stroke:#000000;stroke-linecap:round;stroke-miterlimit:10;stroke-dasharray:0,3;}
	.st24{fill:none;stroke:#000000;stroke-linecap:square;stroke-miterlimit:10;}
	.st25{fill:none;stroke:#000000;stroke-width:2;stroke-linecap:round;stroke-linejoin:round;stroke-miterlimit:10;}
	.st26{fill:none;stroke:#000000;stroke-linecap:round;stroke-linejoin:round;stroke-miterlimit:10;}
	.st27{fill:none;stroke:#000000;stroke-width:2;stroke-linecap:round;stroke-miterlimit:10;stroke-dasharray:0,3.9673;}
	.st28{fill:none;stroke:#000000;stroke-miterlimit:10;}
	.st29{fill:none;stroke:#FFFFFF;stroke-width:8;stroke-miterlimit:10;}
	.st30{fill:#FFFFFF;stroke:#000000;stroke-width:2;stroke-linecap:square;stroke-miterlimit:10;}
	.st31{fill:#231F20;stroke:#000000;stroke-width:2;stroke-linecap:round;stroke-linejoin:round;stroke-miterlimit:10;}
	.st32{fill:none;stroke:#000000;stroke-width:2;stroke-linecap:round;stroke-miterlimit:10;stroke-dasharray:0,4.0343;}
	.st33{fill:none;stroke:#000000;stroke-width:2;stroke-linecap:round;stroke-miterlimit:10;stroke-dasharray:0,3.902;}
	.st34{fill:none;stroke:#000000;stroke-width:2;stroke-linecap:round;stroke-miterlimit:10;stroke-dasharray:0,4.1907;}
	.st35{fill:none;stroke:#000000;stroke-width:2;stroke-linecap:round;stroke-miterlimit:10;stroke-dasharray:0,4.0256;}
	.st36{fill:none;stroke:#000000;stroke-width:2;stroke-linecap:round;stroke-miterlimit:10;stroke-dasharray:0,4.5618;}
	.st37{fill:none;stroke:#000000;stroke-width:2;stroke-linecap:round;stroke-miterlimit:10;stroke-dasharray:0,4.2271;}
	.st38{fill:#231F20;stroke:#000000;stroke-width:2;stroke-miterlimit:10;}
	.st39{fill:none;stroke:#000000;stroke-width:2;stroke-linecap:round;stroke-linejoin:round;}
	.st40{fill:none;stroke:#000000;stroke-width:2;stroke-linecap:round;stroke-linejoin:round;stroke-dasharray:0,3.902;}
	.st41{fill:none;stroke:#000000;stroke-width:2;stroke-linecap:round;stroke-linejoin:round;stroke-dasharray:0,4.1027;}
	.st42{fill:none;stroke:#000000;stroke-width:2;stroke-linecap:round;stroke-linejoin:round;stroke-dasharray:0,3.5807;}
	.st43{fill:none;stroke:#000000;stroke-width:2;stroke-linecap:round;stroke-linejoin:round;stroke-dasharray:0,3.9986;}
	.st44{fill:none;stroke:#000000;stroke-width:2;stroke-linecap:round;stroke-linejoin:round;stroke-dasharray:0,4.0137;}
	.st45{fill:#FFFFFF;stroke:#231F20;stroke-width:2;stroke-miterlimit:10;}
	.st46{fill:none;stroke:#231F20;stroke-width:2;stroke-linecap:round;stroke-linejoin:round;}
	.st47{fill:none;stroke:#231F20;stroke-width:2;stroke-linecap:round;stroke-linejoin:round;stroke-dasharray:0,4.0311;}
	.st48{stroke:#000000;stroke-width:2;stroke-linecap:square;stroke-miterlimit:10;}
	.st49{fill:#404041;stroke:#FFFFFF;stroke-width:8;stroke-miterlimit:10;}
	.st50{fill:none;stroke:#000000;stroke-width:3;stroke-linecap:round;stroke-linejoin:round;stroke-miterlimit:10;}
	.st51{fill:#231F20;stroke:#231F20;stroke-width:2;stroke-linecap:round;stroke-miterlimit:10;}
	.st52{fill:#FFFFFF;stroke:#231F20;stroke-width:2;stroke-linecap:round;stroke-miterlimit:10;}
	.st53{stroke:#000000;stroke-width:2;stroke-linecap:round;stroke-miterlimit:1;}
	.st54{stroke:#000000;stroke-width:2;stroke-miterlimit:10;}
	.st55{stroke:#FFFFFF;stroke-width:2;stroke-linecap:round;stroke-miterlimit:1;}
	.st56{fill:#FFFFFF;stroke:#000000;stroke-miterlimit:10;}
	.st57{fill:#FFFFFF;stroke:#000000;stroke-width:0.5;stroke-linecap:round;stroke-miterlimit:10;}
</style>
<circle class="st0" cx="42" cy="84" r="18"/>
<circle class="st0" cx="102" cy="84" r="18"/>
<polygon class="st50" points="60,64.4 86.8,54.5 88.5,59.3 72,84 "/>
<polygon class="st50" points="72,84 42,84 60,64.4 "/>
<line class="st50" x1="49.8" y1="49.4" x2="60.9" y2="49.4"/>
<path class="st50" d="M96,45H84c0,0,6.9,26.3,18,39"/>
<g>
	<path d="M102,62C102,62,102,62,102,62L102,62c-1.2,0-2.1,0.9-2.1,2c0,1.1,0.9,2,2,2c0,0,0,0,0,0c0,0,0,0,0,0c0,0,0,0,0,0
		c0.9,0,1.7-0.6,1.9-1.5c0,0.9,0.7,1.7,1.6,1.9c0,0,0,0,0,0c0,0,0,0,0,0c0,0,0,0,0,0c0,0,0,0,0,0c0.1,0,0.3,0,0.4,0
		c0.9,0,1.8-0.7,2-1.6c0.2-1.1-0.5-2.1-1.6-2.4l-0.1,0c-0.1,0-0.3,0-0.4,0c-0.9,0-1.7,0.6-1.9,1.5C104,62.8,103.1,62,102,62L102,62z
		 M97.5,62.5c-0.1,0-0.3,0-0.4,0.1l-0.1,0c-1.1,0.2-1.7,1.3-1.5,2.4c0.2,0.9,1,1.6,2,1.6c0.1,0,0.3,0,0.4-0.1c0,0,0,0,0,0
		c0,0,0,0,0,0l0,0c0,0,0,0,0,0c0,0,0,0,0,0c1.1-0.2,1.7-1.3,1.5-2.4C99.3,63.1,98.4,62.5,97.5,62.5L97.5,62.5z M93.3,64
		c-0.3,0-0.6,0.1-0.9,0.2l-0.1,0c-1,0.5-1.4,1.7-0.9,2.7c0.3,0.7,1.1,1.1,1.8,1.1c0.3,0,0.6-0.1,0.9-0.2c0,0,0,0,0,0c0,0,0,0,0,0
		c0,0,0,0,0,0c1-0.5,1.4-1.7,0.9-2.7C94.7,64.4,94,64,93.3,64L93.3,64z M89.5,66.4c-0.4,0-0.9,0.1-1.3,0.4l-0.1,0
		c-0.9,0.7-1,2-0.3,2.8c0.4,0.5,1,0.7,1.6,0.7c0.4,0,0.9-0.1,1.3-0.4c0,0,0,0,0,0l0,0c0,0,0,0,0,0c0,0,0,0,0,0c0,0,0,0,0,0
		c0,0,0,0,0,0c0.9-0.7,1-2,0.3-2.8C90.7,66.6,90.1,66.4,89.5,66.4L89.5,66.4z M86.3,69.6c-0.6,0-1.2,0.3-1.6,0.8l0,0.1
		c-0.7,0.9-0.5,2.1,0.3,2.8c0.4,0.3,0.8,0.4,1.2,0.4c0.6,0,1.2-0.3,1.6-0.8c0,0,0,0,0,0c0,0,0,0,0,0c0.7-0.9,0.5-2.1-0.3-2.8
		C87.2,69.7,86.8,69.6,86.3,69.6L86.3,69.6z M83.9,73.4c-0.7,0-1.5,0.4-1.8,1.1l0,0.1c-0.5,1,0,2.2,0.9,2.7c0.3,0.1,0.6,0.2,0.9,0.2
		c0.7,0,1.5-0.4,1.8-1.1c0,0,0,0,0-0.1c0.5-1,0-2.2-0.9-2.7C84.5,73.5,84.2,73.4,83.9,73.4L83.9,73.4z M82.5,77.6
		c-0.9,0-1.7,0.6-1.9,1.6l0,0.1c-0.2,1.1,0.4,2.1,1.5,2.4c0.1,0,0.3,0,0.4,0c0.9,0,1.7-0.6,2-1.6c0,0,0,0,0,0c0,0,0,0,0,0
		c0,0,0,0,0,0c0,0,0,0,0,0c0.2-1.1-0.4-2.1-1.5-2.4C82.8,77.7,82.6,77.6,82.5,77.6L82.5,77.6z M82,82.1C82,82.1,82,82.1,82,82.1
		c-1.1,0-2,0.9-2,2l0,0.1c0,1.1,0.9,2,2,2c0,0,0,0,0,0c1.1,0,2-0.9,2-2c0,0,0,0,0,0c0,0,0,0,0,0c0,0,0,0,0,0
		C84,83,83.1,82.1,82,82.1L82,82.1z M82.5,86.6c-0.2,0-0.3,0-0.5,0.1C81,86.9,80.3,88,80.6,89l0,0.1c0.2,0.9,1,1.5,1.9,1.5
		c0.2,0,0.3,0,0.5-0.1c1.1-0.3,1.7-1.3,1.5-2.4c0,0,0,0,0-0.1C84.3,87.2,83.4,86.6,82.5,86.6L82.5,86.6z M84,90.8
		c-0.3,0-0.6,0.1-0.9,0.2c-1,0.5-1.4,1.7-0.9,2.7l0,0.1c0.3,0.7,1.1,1.1,1.8,1.1c0.3,0,0.6-0.1,0.9-0.2c1-0.5,1.4-1.7,0.9-2.7
		c0,0,0,0,0,0c0,0,0,0,0,0C85.5,91.2,84.8,90.8,84,90.8L84,90.8z M86.5,94.6c-0.4,0-0.9,0.1-1.3,0.4c-0.9,0.7-1,2-0.3,2.8l0,0.1
		c0.4,0.5,1,0.7,1.5,0.7c0.4,0,0.9-0.1,1.3-0.5c0.9-0.7,1-2,0.3-2.8c0,0,0,0,0,0c0,0,0,0,0,0C87.6,94.9,87.1,94.6,86.5,94.6
		L86.5,94.6z M89.7,97.8c-0.6,0-1.2,0.3-1.6,0.8c-0.7,0.9-0.5,2.1,0.3,2.8l0.1,0c0.4,0.3,0.8,0.4,1.2,0.4c0.6,0,1.2-0.3,1.6-0.8
		c0.7-0.9,0.5-2.1-0.3-2.8c0,0,0,0,0,0c0,0,0,0,0,0c0,0,0,0,0,0c0,0,0,0,0,0C90.5,97.9,90.1,97.8,89.7,97.8L89.7,97.8z M93.5,100.1
		c-0.8,0-1.5,0.4-1.8,1.2c-0.5,1,0,2.2,1,2.7l0.1,0c0.3,0.1,0.6,0.2,0.8,0.2c0.8,0,1.5-0.4,1.8-1.2c0.5-1,0-2.2-1-2.7c0,0,0,0,0,0
		C94.1,100.2,93.8,100.1,93.5,100.1L93.5,100.1z M97.8,101.6c-0.9,0-1.8,0.6-2,1.6c-0.2,1.1,0.5,2.1,1.5,2.4l0.1,0
		c0.1,0,0.3,0,0.4,0c0.9,0,1.8-0.6,2-1.6c0.2-1.1-0.5-2.1-1.5-2.4c0,0,0,0-0.1,0C98,101.6,97.9,101.6,97.8,101.6L97.8,101.6z
		 M102.3,102C102.3,102,102.3,102,102.3,102C102.3,102,102.3,102,102.3,102C102.3,102,102.3,102,102.3,102
		C102.2,102,102.2,102,102.3,102C102.2,102,102.2,102,102.3,102C102.2,102,102.2,102,102.3,102C102.2,102,102.2,102,102.3,102
		c-1.2,0-2.1,0.9-2.1,2c0,1.1,0.9,2,2,2c0,0,0,0,0,0l0.1,0c1.1,0,2-0.9,2-2C104.3,102.9,103.4,102,102.3,102L102.3,102z
		 M106.8,101.4c-0.2,0-0.3,0-0.5,0.1l0,0c0,0,0,0,0,0c0,0,0,0,0,0c0,0,0,0,0,0c0,0,0,0,0,0c-1.1,0.3-1.7,1.3-1.5,2.4
		c0.2,0.9,1,1.5,1.9,1.5c0.2,0,0.3,0,0.5-0.1l0.1,0c1.1-0.3,1.7-1.3,1.5-2.4C108.5,102,107.7,101.4,106.8,101.4L106.8,101.4z
		 M111,99.9c-0.3,0-0.6,0.1-0.9,0.2c0,0,0,0,0,0c0,0,0,0,0,0c-1,0.5-1.4,1.7-0.9,2.7c0.3,0.7,1.1,1.1,1.8,1.1c0.3,0,0.6-0.1,0.9-0.2
		l0.1,0c1-0.5,1.4-1.7,0.9-2.7C112.4,100.3,111.7,99.9,111,99.9L111,99.9z M114.7,97.4c-0.4,0-0.9,0.1-1.3,0.5c0,0,0,0,0,0
		c0,0,0,0,0,0c-0.9,0.7-1,2-0.3,2.8c0.4,0.5,1,0.7,1.5,0.7c0.4,0,0.9-0.1,1.3-0.5l0.1,0c0.9-0.7,1-2,0.3-2.8
		C115.9,97.7,115.3,97.4,114.7,97.4L114.7,97.4z M117.9,94.2c-0.6,0-1.2,0.3-1.6,0.8c0,0,0,0,0,0c0,0,0,0,0,0
		c-0.7,0.9-0.5,2.1,0.4,2.8c0.4,0.3,0.8,0.4,1.2,0.4c0.6,0,1.2-0.3,1.6-0.8l0-0.1c0.7-0.9,0.5-2.1-0.4-2.8
		C118.7,94.3,118.3,94.2,117.9,94.2L117.9,94.2z M120.2,90.3c-0.8,0-1.5,0.4-1.8,1.2c0,0,0,0,0,0.1c-0.5,1,0,2.2,1,2.7
		c0.3,0.1,0.6,0.2,0.8,0.2c0.8,0,1.5-0.4,1.8-1.2l0-0.1c0.5-1,0-2.2-1-2.7C120.8,90.4,120.5,90.3,120.2,90.3L120.2,90.3z
		 M121.6,86.1c-0.9,0-1.8,0.7-2,1.6c0,0,0,0,0,0c0,0,0,0,0,0c0,0,0,0,0,0c0,0,0,0,0,0c-0.2,1.1,0.5,2.1,1.6,2.4c0.1,0,0.3,0,0.4,0
		c0.9,0,1.8-0.6,2-1.6l0-0.1c0.2-1.1-0.5-2.1-1.6-2.4C121.9,86.1,121.7,86.1,121.6,86.1L121.6,86.1z M122,81.6
		C122,81.6,122,81.6,122,81.6c-1.1,0-2,0.9-2,2c0,0,0,0,0,0.1c0,1.1,0.9,2,2,2c0,0,0,0,0,0c1.1,0,2-0.9,2-2l0-0.1
		C124,82.5,123.1,81.6,122,81.6L122,81.6z M121.4,77.1c-0.2,0-0.3,0-0.5,0.1c-1.1,0.3-1.7,1.4-1.5,2.4c0,0,0,0,0,0c0,0,0,0,0,0
		c0.2,0.9,1,1.5,1.9,1.5c0.2,0,0.3,0,0.5-0.1c1.1-0.3,1.7-1.3,1.5-2.4l0-0.1C123.1,77.7,122.3,77.1,121.4,77.1L121.4,77.1z
		 M119.8,72.9c-0.3,0-0.6,0.1-0.9,0.2c-1,0.5-1.4,1.7-0.9,2.7c0,0,0,0,0,0c0,0,0,0,0,0c0,0,0,0,0,0c0.4,0.7,1.1,1.1,1.8,1.1
		c0.3,0,0.6-0.1,0.9-0.2c1-0.5,1.4-1.7,0.9-2.7l0-0.1C121.2,73.3,120.5,72.9,119.8,72.9L119.8,72.9z M117.3,69.2
		c-0.5,0-0.9,0.2-1.3,0.5c-0.8,0.7-1,2-0.3,2.8c0,0,0,0,0,0c0,0,0,0,0,0c0,0,0,0,0,0c0,0,0,0,0,0c0,0,0,0,0,0c0.4,0.5,1,0.7,1.5,0.7
		c0.5,0,0.9-0.2,1.3-0.5c0.8-0.7,1-2,0.3-2.8l0-0.1C118.5,69.4,117.9,69.2,117.3,69.2L117.3,69.2z M114.1,66.1
		c-0.6,0-1.2,0.3-1.6,0.8c-0.7,0.9-0.5,2.1,0.4,2.8c0,0,0,0,0,0c0,0,0,0,0,0c0.4,0.3,0.8,0.4,1.2,0.4c0.6,0,1.2-0.3,1.6-0.8
		c0.7-0.9,0.5-2.1-0.4-2.8l-0.1,0C114.9,66.2,114.5,66.1,114.1,66.1L114.1,66.1z M110.2,63.8c-0.8,0-1.5,0.4-1.8,1.2
		c-0.5,1,0,2.2,1,2.6c0,0,0,0,0,0c0,0,0,0,0,0c0,0,0,0,0,0l0,0c0,0,0,0,0,0c0.3,0.1,0.5,0.2,0.8,0.2c0.8,0,1.5-0.4,1.8-1.2
		c0.5-1,0-2.2-1-2.6l-0.1,0C110.8,63.8,110.5,63.8,110.2,63.8L110.2,63.8z"/>
</g>
<g>
	<path d="M42,62C42,62,42,62,42,62L42,62c-1.2,0-2.1,0.9-2.1,2c0,1.1,0.9,2,2,2c0,0,0,0,0,0c0,0,0,0,0,0c0,0,0,0,0,0
		c0.9,0,1.7-0.6,1.9-1.5c0,0.9,0.7,1.7,1.6,1.9c0,0,0,0,0,0c0,0,0,0,0,0c0,0,0,0,0,0c0,0,0,0,0,0c0.1,0,0.3,0,0.4,0
		c0.9,0,1.8-0.7,2-1.6c0.2-1.1-0.5-2.1-1.6-2.4l-0.1,0c-0.1,0-0.3,0-0.4,0c-0.9,0-1.7,0.6-1.9,1.5C44,62.8,43.1,62,42,62L42,62z
		 M37.5,62.5c-0.1,0-0.3,0-0.4,0.1l-0.1,0c-1.1,0.2-1.7,1.3-1.5,2.4c0.2,0.9,1,1.6,2,1.6c0.1,0,0.3,0,0.4-0.1c0,0,0,0,0,0
		c0,0,0,0,0,0l0,0c0,0,0,0,0,0c0,0,0,0,0,0c1.1-0.2,1.7-1.3,1.5-2.4C39.3,63.1,38.4,62.5,37.5,62.5L37.5,62.5z M33.3,64
		c-0.3,0-0.6,0.1-0.9,0.2l-0.1,0c-1,0.5-1.4,1.7-0.9,2.7c0.3,0.7,1.1,1.1,1.8,1.1c0.3,0,0.6-0.1,0.9-0.2c0,0,0,0,0,0c0,0,0,0,0,0
		c0,0,0,0,0,0c1-0.5,1.4-1.7,0.9-2.7C34.7,64.4,34,64,33.3,64L33.3,64z M29.5,66.4c-0.4,0-0.9,0.1-1.3,0.4l-0.1,0
		c-0.9,0.7-1,2-0.3,2.8c0.4,0.5,1,0.7,1.6,0.7c0.4,0,0.9-0.1,1.3-0.4c0,0,0,0,0,0l0,0c0,0,0,0,0,0c0,0,0,0,0,0c0,0,0,0,0,0
		c0,0,0,0,0,0c0.9-0.7,1-2,0.3-2.8C30.7,66.6,30.1,66.4,29.5,66.4L29.5,66.4z M26.3,69.6c-0.6,0-1.2,0.3-1.6,0.8l0,0.1
		c-0.7,0.9-0.5,2.1,0.3,2.8c0.4,0.3,0.8,0.4,1.2,0.4c0.6,0,1.2-0.3,1.6-0.8c0,0,0,0,0,0c0,0,0,0,0,0c0.7-0.9,0.5-2.1-0.3-2.8
		C27.2,69.7,26.8,69.6,26.3,69.6L26.3,69.6z M23.9,73.4c-0.7,0-1.5,0.4-1.8,1.1l0,0.1c-0.5,1,0,2.2,0.9,2.7c0.3,0.1,0.6,0.2,0.9,0.2
		c0.7,0,1.5-0.4,1.8-1.1c0,0,0,0,0-0.1c0.5-1,0-2.2-0.9-2.7C24.5,73.5,24.2,73.4,23.9,73.4L23.9,73.4z M22.5,77.6
		c-0.9,0-1.7,0.6-1.9,1.6l0,0.1c-0.2,1.1,0.4,2.1,1.5,2.4c0.1,0,0.3,0,0.4,0c0.9,0,1.7-0.6,2-1.6c0,0,0,0,0,0c0,0,0,0,0,0
		c0,0,0,0,0,0c0,0,0,0,0,0c0.2-1.1-0.4-2.1-1.5-2.4C22.8,77.7,22.6,77.6,22.5,77.6L22.5,77.6z M22,82.1C22,82.1,22,82.1,22,82.1
		c-1.1,0-2,0.9-2,2l0,0.1c0,1.1,0.9,2,2,2c0,0,0,0,0,0c1.1,0,2-0.9,2-2c0,0,0,0,0,0c0,0,0,0,0,0c0,0,0,0,0,0
		C24,83,23.1,82.1,22,82.1L22,82.1z M22.5,86.6c-0.2,0-0.3,0-0.5,0.1C21,86.9,20.3,88,20.6,89l0,0.1c0.2,0.9,1,1.5,1.9,1.5
		c0.2,0,0.3,0,0.5-0.1c1.1-0.3,1.7-1.3,1.5-2.4c0,0,0,0,0-0.1C24.3,87.2,23.4,86.6,22.5,86.6L22.5,86.6z M24,90.8
		c-0.3,0-0.6,0.1-0.9,0.2c-1,0.5-1.4,1.7-0.9,2.7l0,0.1c0.3,0.7,1.1,1.1,1.8,1.1c0.3,0,0.6-0.1,0.9-0.2c1-0.5,1.4-1.7,0.9-2.7
		c0,0,0,0,0,0c0,0,0,0,0,0C25.5,91.2,24.8,90.8,24,90.8L24,90.8z M26.5,94.6c-0.4,0-0.9,0.1-1.3,0.4c-0.9,0.7-1,2-0.3,2.8l0,0.1
		c0.4,0.5,1,0.7,1.5,0.7c0.4,0,0.9-0.1,1.3-0.5c0.9-0.7,1-2,0.3-2.8c0,0,0,0,0,0c0,0,0,0,0,0C27.6,94.9,27.1,94.6,26.5,94.6
		L26.5,94.6z M29.7,97.8c-0.6,0-1.2,0.3-1.6,0.8c-0.7,0.9-0.5,2.1,0.3,2.8l0.1,0c0.4,0.3,0.8,0.4,1.2,0.4c0.6,0,1.2-0.3,1.6-0.8
		c0.7-0.9,0.5-2.1-0.3-2.8c0,0,0,0,0,0c0,0,0,0,0,0c0,0,0,0,0,0c0,0,0,0,0,0C30.5,97.9,30.1,97.8,29.7,97.8L29.7,97.8z M33.5,100.1
		c-0.8,0-1.5,0.4-1.8,1.2c-0.5,1,0,2.2,1,2.7l0.1,0c0.3,0.1,0.6,0.2,0.8,0.2c0.8,0,1.5-0.4,1.8-1.2c0.5-1,0-2.2-1-2.7c0,0,0,0,0,0
		C34.1,100.2,33.8,100.1,33.5,100.1L33.5,100.1z M37.8,101.6c-0.9,0-1.8,0.6-2,1.6c-0.2,1.1,0.5,2.1,1.5,2.4l0.1,0
		c0.1,0,0.3,0,0.4,0c0.9,0,1.8-0.6,2-1.6c0.2-1.1-0.5-2.1-1.5-2.4c0,0,0,0-0.1,0C38,101.6,37.9,101.6,37.8,101.6L37.8,101.6z
		 M42.3,102C42.3,102,42.3,102,42.3,102C42.3,102,42.3,102,42.3,102C42.3,102,42.3,102,42.3,102C42.2,102,42.2,102,42.3,102
		C42.2,102,42.2,102,42.3,102C42.2,102,42.2,102,42.3,102C42.2,102,42.2,102,42.3,102c-1.2,0-2.1,0.9-2.1,2c0,1.1,0.9,2,2,2
		c0,0,0,0,0,0l0.1,0c1.1,0,2-0.9,2-2C44.3,102.9,43.4,102,42.3,102L42.3,102z M46.8,101.4c-0.2,0-0.3,0-0.5,0.1l0,0c0,0,0,0,0,0
		c0,0,0,0,0,0c0,0,0,0,0,0c0,0,0,0,0,0c-1.1,0.3-1.7,1.3-1.5,2.4c0.2,0.9,1,1.5,1.9,1.5c0.2,0,0.3,0,0.5-0.1l0.1,0
		c1.1-0.3,1.7-1.3,1.5-2.4C48.5,102,47.7,101.4,46.8,101.4L46.8,101.4z M51,99.9c-0.3,0-0.6,0.1-0.9,0.2c0,0,0,0,0,0c0,0,0,0,0,0
		c-1,0.5-1.4,1.7-0.9,2.7c0.3,0.7,1.1,1.1,1.8,1.1c0.3,0,0.6-0.1,0.9-0.2l0.1,0c1-0.5,1.4-1.7,0.9-2.7C52.4,100.3,51.7,99.9,51,99.9
		L51,99.9z M54.7,97.4c-0.4,0-0.9,0.1-1.3,0.5c0,0,0,0,0,0c0,0,0,0,0,0c-0.9,0.7-1,2-0.3,2.8c0.4,0.5,1,0.7,1.5,0.7
		c0.4,0,0.9-0.1,1.3-0.5l0.1,0c0.9-0.7,1-2,0.3-2.8C55.9,97.7,55.3,97.4,54.7,97.4L54.7,97.4z M57.9,94.2c-0.6,0-1.2,0.3-1.6,0.8
		c0,0,0,0,0,0c0,0,0,0,0,0c-0.7,0.9-0.5,2.1,0.4,2.8c0.4,0.3,0.8,0.4,1.2,0.4c0.6,0,1.2-0.3,1.6-0.8l0-0.1c0.7-0.9,0.5-2.1-0.4-2.8
		C58.7,94.3,58.3,94.2,57.9,94.2L57.9,94.2z M60.2,90.3c-0.8,0-1.5,0.4-1.8,1.2c0,0,0,0,0,0.1c-0.5,1,0,2.2,1,2.7
		c0.3,0.1,0.6,0.2,0.8,0.2c0.8,0,1.5-0.4,1.8-1.2l0-0.1c0.5-1,0-2.2-1-2.7C60.8,90.4,60.5,90.3,60.2,90.3L60.2,90.3z M61.6,86.1
		c-0.9,0-1.8,0.7-2,1.6c0,0,0,0,0,0c0,0,0,0,0,0c0,0,0,0,0,0c0,0,0,0,0,0c-0.2,1.1,0.5,2.1,1.6,2.4c0.1,0,0.3,0,0.4,0
		c0.9,0,1.8-0.6,2-1.6l0-0.1c0.2-1.1-0.5-2.1-1.6-2.4C61.9,86.1,61.7,86.1,61.6,86.1L61.6,86.1z M62,81.6C62,81.6,62,81.6,62,81.6
		c-1.1,0-2,0.9-2,2c0,0,0,0,0,0.1c0,1.1,0.9,2,2,2c0,0,0,0,0,0c1.1,0,2-0.9,2-2l0-0.1C64,82.5,63.1,81.6,62,81.6L62,81.6z
		 M61.4,77.1c-0.2,0-0.3,0-0.5,0.1c-1.1,0.3-1.7,1.4-1.5,2.4c0,0,0,0,0,0c0,0,0,0,0,0c0.2,0.9,1,1.5,1.9,1.5c0.2,0,0.3,0,0.5-0.1
		c1.1-0.3,1.7-1.3,1.5-2.4l0-0.1C63.1,77.7,62.3,77.1,61.4,77.1L61.4,77.1z M59.8,72.9c-0.3,0-0.6,0.1-0.9,0.2
		c-1,0.5-1.4,1.7-0.9,2.7c0,0,0,0,0,0c0,0,0,0,0,0c0,0,0,0,0,0c0.4,0.7,1.1,1.1,1.8,1.1c0.3,0,0.6-0.1,0.9-0.2
		c1-0.5,1.4-1.7,0.9-2.7l0-0.1C61.2,73.3,60.5,72.9,59.8,72.9L59.8,72.9z M57.3,69.2c-0.5,0-0.9,0.2-1.3,0.5c-0.8,0.7-1,2-0.3,2.8
		c0,0,0,0,0,0c0,0,0,0,0,0c0,0,0,0,0,0c0,0,0,0,0,0c0,0,0,0,0,0c0.4,0.5,1,0.7,1.5,0.7c0.5,0,0.9-0.2,1.3-0.5c0.8-0.7,1-2,0.3-2.8
		l0-0.1C58.5,69.4,57.9,69.2,57.3,69.2L57.3,69.2z M54.1,66.1c-0.6,0-1.2,0.3-1.6,0.8c-0.7,0.9-0.5,2.1,0.4,2.8c0,0,0,0,0,0
		c0,0,0,0,0,0c0.4,0.3,0.8,0.4,1.2,0.4c0.6,0,1.2-0.3,1.6-0.8c0.7-0.9,0.5-2.1-0.4-2.8l-0.1,0C54.9,66.2,54.5,66.1,54.1,66.1
		L54.1,66.1z M50.2,63.8c-0.8,0-1.5,0.4-1.8,1.2c-0.5,1,0,2.2,1,2.6c0,0,0,0,0,0c0,0,0,0,0,0c0,0,0,0,0,0l0,0c0,0,0,0,0,0
		c0.3,0.1,0.5,0.2,0.8,0.2c0.8,0,1.5-0.4,1.8-1.2c0.5-1,0-2.2-1-2.6l-0.1,0C50.8,63.8,50.5,63.8,50.2,63.8L50.2,63.8z"/>
</g>
</svg>
