<?xml version="1.0" encoding="utf-8"?>
<!-- Generator: Adobe Illustrator 22.0.1, SVG Export Plug-In . SVG Version: 6.00 Build 0)  -->
<svg version="1.1" id="Layer_1" xmlns="http://www.w3.org/2000/svg" xmlns:xlink="http://www.w3.org/1999/xlink" x="0px" y="0px"
	 viewBox="0 0 144 144" style="enable-background:new 0 0 144 144;" xml:space="preserve">
<style type="text/css">
	.st0{fill:#2D396B;}
</style>
<g>
	<path class="st0" d="M41.1,41.4h16.3c1.2,0,2.2-1,2.2-2.2c0-1.2-1-2.2-2.2-2.2H41.1c-1.2,0-2.2,1-2.2,2.2
		C38.9,40.3,40,41.4,41.1,41.4z"/>
	<path class="st0" d="M94,41.4h13.5c3.2,0,5.9,2.6,5.9,5.9s-2.6,5.9-5.9,5.9c-1.2,0-2.2,1-2.2,2.2c0,1.2,1,2.2,2.2,2.2
		c5.7,0,10.3-4.7,10.3-10.3s-4.7-10.3-10.3-10.3H94c-1.2,0-2.2,1-2.2,2.2C91.8,40.3,92.9,41.4,94,41.4z"/>
	<path class="st0" d="M116.1,59.7c-5.1,0-9.8,1.5-14.1,3.8c-4.3-9-5.9-15.9-5.9-16l0,0v-0.1c0-0.1-0.1-0.3-0.1-0.3s0,0,0-0.1l0,0
		c-0.1-0.1-0.1-0.1-0.3-0.3c0,0,0,0-0.1-0.1c-0.1-0.1-0.3-0.1-0.4-0.3c0,0-0.1,0-0.1-0.1c-0.1,0-0.1-0.1-0.3-0.1h-0.1
		c-0.1,0-0.3,0-0.4,0c0,0,0,0-0.1,0H50c-0.1,0-0.4,0-0.6,0.1c0,0-0.1,0-0.1,0.1c-0.1,0-0.3,0.1-0.3,0.1l-0.1,0.1
		c-0.1,0-0.1,0.1-0.3,0.1l-0.1,0.1c0,0.1-0.1,0.1-0.1,0.3l0,0l0,0l-8.5,15.4c-3.7-1.9-7.6-2.8-11.8-2.8C12.5,59.7,0,72.2,0,87.6
		s12.5,27.9,27.9,27.9c14.7,0,26.7-11.3,27.8-25.7H72c0.1,0,0.4,0,0.6-0.1c0,0,0.1,0,0.1-0.1c0.1,0,0.3-0.1,0.3-0.1l0.1-0.1
		c0.1,0,0.1-0.1,0.3-0.1l0.1-0.1c0-0.1,0.1-0.1,0.1-0.3l0,0l0,0l19.4-35c1,3.2,2.6,7.5,5,12.3c-6,5.1-10,12.9-10,21.6
		c0,15.4,12.5,27.9,27.9,27.9S144,103.1,144,87.6S131.5,59.7,116.1,59.7z M50,52.5l18.4,32.9H55.8c-0.7-8.8-5.4-16.5-12.3-21
		L50,52.5z M52.8,85.4H31.6l10.3-18.5C47.9,71,52.2,77.8,52.8,85.4z M27.9,112.6c-13.8,0-25-11.2-25-25s11.2-25,25-25
		c3.7,0,7.1,0.7,10.1,2.2L26,86.6c-0.4,0.7-0.4,1.5,0,2.2c0.4,0.7,1.2,1,1.9,1h24.8C51.7,102.6,41,112.6,27.9,112.6z M72,83.1
		L53.6,50.2h36.6L72,83.1z M116.1,112.6c-13.8,0-25-11.2-25-25c0-7.5,3.4-14.3,8.5-18.8c3.4,6.5,7.9,13.5,14.1,19.7
		c0.4,0.4,1,0.6,1.6,0.6c0.6,0,1.2-0.1,1.6-0.6c0.9-0.9,0.9-2.2,0-3.1c-6-6-10.4-12.9-13.7-19.2c3.7-2.2,8.1-3.5,12.8-3.5
		c13.8,0,25,11.2,25,25S129.9,112.6,116.1,112.6z"/>
</g>
</svg>
