<?xml version="1.0" encoding="utf-8"?>
<!-- Generator: Adobe Illustrator 22.0.1, SVG Export Plug-In . SVG Version: 6.00 Build 0)  -->
<svg version="1.1" id="Layer_1" xmlns="http://www.w3.org/2000/svg" xmlns:xlink="http://www.w3.org/1999/xlink" x="0px" y="0px"
	 viewBox="0 0 144 144" style="enable-background:new 0 0 144 144;" xml:space="preserve">
<style type="text/css">
	.st0{fill:#2D396B;}
</style>
<g>
	<path class="st0" d="M41.3,41.8h15.4c1.1,0,2.1-1,2.1-2.1c0-1.1-1-2.1-2.1-2.1H41.3c-1.1,0-2.1,1-2.1,2.1
		C39.2,40.9,40.2,41.8,41.3,41.8z"/>
	<path class="st0" d="M141.2,90.5h-0.1c0-0.1,0-0.4,0-0.7h0.1l0,0c1.5,0,2.8-1.2,2.8-2.8v-0.1c0-1.5-1.2-2.8-2.8-2.8l0,0h-0.1
		c0-0.3,0-0.4-0.1-0.7h0.1c1.5-0.4,2.4-1.8,2.1-3.3V80c-0.3-1.2-1.4-2.1-2.6-2.1c-0.3,0-0.4,0-0.7,0.1h-0.1
		c-0.1-0.1-0.1-0.4-0.3-0.6h0.1c1.4-0.7,1.9-2.4,1.2-3.7v-0.1c-0.6-1-1.5-1.5-2.5-1.5c-0.4,0-0.8,0.1-1.2,0.3c0,0-0.1,0-0.1,0.1
		c-0.1-0.1-0.3-0.4-0.3-0.6c0,0,0.1,0,0.1-0.1c1.1-1,1.4-2.8,0.4-3.9v-0.1c-0.6-0.7-1.4-1-2.1-1c-0.7,0-1.2,0.3-1.8,0.7l-0.1,0.1
		c-0.1-0.1-0.3-0.3-0.4-0.4l0.1-0.1c1-1.2,0.7-2.9-0.6-3.9h-0.1c-0.6-0.4-1.1-0.6-1.7-0.6c-0.8,0-1.7,0.4-2.2,1.1c0,0,0,0.1-0.1,0.1
		c-0.1-0.1-0.4-0.3-0.6-0.3l0.1-0.1c0.7-1.4,0-3-1.4-3.6h-0.1c-0.4-0.1-0.7-0.3-1.1-0.3c-1.1,0-2.1,0.6-2.5,1.7v0.1
		c-0.1,0-0.4-0.1-0.6-0.3v-0.1c0.3-1.5-0.7-2.9-2.2-3.3h-0.1c-0.1,0-0.4,0-0.6,0c-1.2,0-2.4,0.8-2.6,2.1c0-1.5-1.2-2.6-2.8-2.6l0,0
		h-0.1c-1.5,0-2.8,1.2-2.8,2.8v0.1c-0.3,0-0.4,0.1-0.7,0.1v-0.1c-0.3-1.2-1.4-2.2-2.6-2.2c-0.1,0-0.4,0-0.6,0.1h-0.1
		c-1.5,0.3-2.4,1.8-2.1,3.3v0.1c-0.1,0-0.4,0.1-0.6,0.3v-0.1c-0.8-1.1-1.8-1.7-2.8-1.7c-0.4,0-0.8,0.1-1.2,0.3h-0.1c0,0,0,0-0.1,0
		c-4.4-10.4-7.5-20.1-8.7-24.6h13.8c1.1,0,2.1-1,2.1-2.1s-1-2.1-2.1-2.1H88.6c-0.7,0-1.2,0.3-1.7,0.8c-0.4,0.6-0.6,1.1-0.4,1.8
		c0.1,0.6,1.2,5,3.5,11.2L54.7,58.6c-0.1,0-0.3,0.1-0.4,0.3c0,0,0,0-0.1,0C54,59,54,59,53.9,59.1l0,0L49.5,64
		c-0.1-0.1-0.3-0.3-0.4-0.4h-0.1c-0.6-0.4-1.1-0.6-1.7-0.6c-0.8,0-1.7,0.4-2.2,1.1c0,0,0,0.1-0.1,0.1c-0.1-0.1-0.4-0.3-0.6-0.3
		l0.1-0.1c0.7-1.4,0-3-1.4-3.6H43c-0.4-0.1-0.7-0.3-1.1-0.3c-1.1,0-2.1,0.6-2.5,1.7v0.1c-0.1,0-0.4-0.1-0.6-0.3v-0.1
		c0.3-1.5-0.7-2.9-2.2-3.3h-0.1c-0.1,0-0.4,0-0.6,0c-1.2,0-2.4,0.8-2.6,2.1c0-1.5-1.2-2.6-2.8-2.6l0,0h-0.1c-1.5,0-2.8,1.2-2.8,2.8
		v0.1c-0.3,0-0.4,0.1-0.7,0.1v-0.1c-0.3-1.2-1.4-2.2-2.6-2.2c-0.1,0-0.4,0-0.6,0.1h-0.1c-1.5,0.3-2.4,1.8-2.1,3.3v0.1
		c-0.1,0-0.4,0.1-0.6,0.3v-0.1c-0.6-1.4-1.5-1.9-2.5-1.9c-0.4,0-0.8,0.1-1.2,0.3h-0.1c-1.4,0.7-1.9,2.4-1.2,3.7l0.1,0.1
		c-0.1,0.1-0.4,0.3-0.6,0.3c0,0,0-0.1-0.1-0.1c-0.6-0.7-1.4-1-2.2-1c-0.6,0-1.2,0.1-1.8,0.6h-0.1c-1.2,1-1.4,2.8-0.4,3.9l0.1,0.1
		c-0.1,0.1-0.3,0.3-0.4,0.4l-0.1-0.1c-0.6-0.4-1.1-0.6-1.7-0.6c-0.8,0-1.7,0.4-2.2,1.1v0.1c-1,1.2-0.7,2.9,0.4,3.9
		c0,0,0.1,0,0.1,0.1c-0.1,0.1-0.3,0.4-0.3,0.6c0,0-0.1,0-0.1-0.1C6.2,73.1,5.8,73,5.3,73c-1,0-2.1,0.6-2.5,1.5v0.1
		c-0.7,1.4,0,3,1.2,3.7h0.1c-0.1,0.1-0.1,0.4-0.3,0.6H3.8c-0.1,0-0.4,0-0.6,0c-1.2,0-2.4,0.8-2.6,2.2v0.1c-0.3,1.5,0.6,2.9,2.1,3.3
		h0.1c0,0.3,0,0.4-0.1,0.7H2.6l0,0c-1.5,0-2.8,1.2-2.8,2.8v0.1c0,1.5,1.2,2.8,2.8,2.8l0,0h0.1c0,0.3,0,0.4,0.1,0.7H2.7
		c-1.2,0-2.2,1.5-1.8,2.9v0.1c0.3,1.2,1.4,2.1,2.6,2.1c0.3,0,0.4,0,0.7-0.1h0.1c0.1,0.1,0.1,0.4,0.3,0.6H4.5
		c-1.4,0.7-1.9,2.4-1.2,3.7v0.1c0.4,1,1.5,1.5,2.5,1.5c0.4,0,0.8-0.1,1.2-0.3c0,0,0.1,0,0.1-0.1c0.1,0.1,0.3,0.4,0.3,0.6
		c0,0-0.1,0-0.1,0.1c-1.2,1-1.4,2.8-0.4,3.9v0.1c0.6,0.7,1.4,1,2.1,1c0.6,0,1.2-0.1,1.8-0.7l0.1-0.1c0.1,0.1,0.3,0.3,0.4,0.4
		l-0.1,0.1c-1,1.2-0.7,2.9,0.4,3.9h0.1c0.6,0.4,1.1,0.6,1.7,0.6c0.8,0,1.7-0.4,2.2-1.1c0,0,0-0.1,0.1-0.1c0.1,0.1,0.4,0.3,0.6,0.3
		l-0.1,0.1c-0.7,1.4,0,3,1.4,3.7h0.1c0.4,0.1,0.8,0.3,1.1,0.3c1.1,0,2.1-0.6,2.5-1.7v-0.1c0.1,0.1,0.4,0.1,0.6,0.3v0.1
		c-0.3,1.5,0.7,2.9,2.1,3.3H24c0.1,0,0.4,0,0.6,0c1.2,0,2.5-0.8,2.8-2.2v-0.1c0.3,0,0.4,0,0.7,0v0.1c0,1.5,1.2,2.8,2.8,2.8l0,0h0.1
		c1.5,0,2.8-1.2,2.8-2.8v-0.1c0.3,0,0.4,0,0.7-0.1v0.1c0.3,1.2,1.4,2.1,2.6,2.1c0.3,0,0.4,0,0.7-0.1h0.1c1.5-0.4,2.4-1.8,2.1-3.3
		v-0.1c0.1-0.1,0.4-0.1,0.6-0.3v0.1c0.4,1,1.5,1.5,2.5,1.5c0.4,0,0.8-0.1,1.2-0.3h0.1c1.4-0.7,1.9-2.4,1.2-3.7l-0.1-0.1
		c0.1-0.1,0.4-0.3,0.6-0.3c0,0,0,0.1,0.1,0.1c0.6,0.7,1.4,1,2.1,1c0.6,0,1.2-0.1,1.8-0.7h0.1c1.2-1,1.4-2.8,0.4-3.9l-0.1-0.1
		c0.1-0.1,0.3-0.3,0.4-0.4l0.1,0.1c0.6,0.4,1.1,0.6,1.7,0.6c0.8,0,1.7-0.4,2.2-1.1v-0.1c1-1.2,0.7-2.9-0.6-3.9c0,0-0.1,0-0.1-0.1
		c0.1-0.1,0.3-0.4,0.3-0.6c0,0,0.1,0,0.1,0.1c0.4,0.1,0.8,0.3,1.1,0.3c1.1,0,2.1-0.6,2.5-1.7v-0.1c0.7-1.4,0-3-1.4-3.7h-0.1
		c0.1-0.1,0.1-0.4,0.3-0.6h0.1c0.1,0,0.4,0,0.6,0c1.2,0,2.5-0.8,2.8-2.2V93c0.3-1.5-0.7-2.9-2.2-3.3h-0.1c0-0.1,0-0.4,0-0.7h0.1l0,0
		c0.3,0,0.7-0.1,1-0.1H72c0.1,0,0.4,0,0.6-0.1h0.1c0.1,0,0.3-0.1,0.3-0.1l0.1-0.1c0.1,0,0.1-0.1,0.3-0.1l0.1-0.1l0.1-0.1l20.8-31
		c0.7,1.8,1.5,3.7,2.4,5.5c-0.1,0-0.4-0.1-0.7-0.1c-0.6,0-1.2,0.1-1.8,0.6h-0.1c-1.2,1-1.4,2.8-0.4,3.9l0.1,0.1
		c-0.1,0.1-0.3,0.3-0.4,0.4l-0.1-0.1c-0.6-0.4-1.1-0.6-1.7-0.6c-0.8,0-1.7,0.4-2.2,1.1V68c-1,1.2-0.7,2.9,0.4,3.9c0,0,0.1,0,0.1,0.1
		c-0.1,0.1-0.3,0.4-0.3,0.6c0,0-0.1,0-0.1-0.1c-0.4-0.1-0.8-0.3-1.2-0.3c-1,0-2.1,0.6-2.5,1.5v0.1c-0.7,1.4,0,3,1.2,3.7h0.1
		c-0.1,0.1-0.1,0.4-0.3,0.6h-0.1c-0.1,0-0.4,0-0.6,0c-1.2,0-2.4,0.8-2.6,2.2v0.1c-0.3,1.5,0.6,2.9,2.1,3.3h0.1c0,0.3,0,0.4-0.1,0.7
		h-0.1l0,0c-1.5,0-2.8,1.2-2.8,2.8v0.1c0,1.5,1.2,2.8,2.8,2.8l0,0h0.1c0,0.3,0,0.4,0.1,0.7h-0.1c-1.2,0.8-2.2,2.4-1.8,3.7v0.1
		c0.3,1.2,1.4,2.1,2.6,2.1c0.3,0,0.4,0,0.7-0.1h0.1c0.1,0.1,0.1,0.4,0.3,0.6h-0.1c-1.4,0.7-1.9,2.4-1.2,3.7v0.1
		c0.4,1,1.5,1.5,2.5,1.5c0.4,0,0.8-0.1,1.2-0.3c0,0,0.1,0,0.1-0.1c0.1,0.1,0.3,0.4,0.3,0.6c0,0-0.1,0-0.1,0.1
		c-1.2,1-1.4,2.8-0.4,3.9v0.1c0.6,0.7,1.4,1,2.1,1c0.6,0,1.2-0.1,1.8-0.7l0.1-0.1c0.1,0.1,0.3,0.3,0.4,0.4l-0.1,0.1
		c-1,1.2-0.7,2.9,0.4,3.9h0.1c0.6,0.4,1.1,0.6,1.7,0.6c0.8,0,1.7-0.4,2.2-1.1c0,0,0-0.1,0.1-0.1c0.1,0.1,0.4,0.3,0.6,0.3l-0.1,0.1
		c-0.7,1.4,0,3,1.4,3.7h0.1c0.4,0.1,0.8,0.3,1.1,0.3c1.1,0,2.1-0.6,2.5-1.7v-0.1c0.1,0.1,0.4,0.1,0.6,0.3v0.1
		c-0.3,1.5,0.7,2.9,2.1,3.3h0.1c0.1,0,0.4,0,0.6,0c1.2,0,2.5-0.8,2.8-2.2v-0.1c0.3,0,0.4,0,0.7,0v0.1c0,1.5,1.2,2.8,2.8,2.8l0,0h0.1
		c1.5,0,2.8-1.2,2.8-2.8v-0.1c0.3,0,0.4,0,0.7-0.1v0.1c0.3,1.2,1.4,2.1,2.6,2.1c0.3,0,0.4,0,0.7-0.1h0.1c1.5-0.4,2.4-1.8,2.1-3.3
		v-0.1c0.1-0.1,0.4-0.1,0.6-0.3v0.1c0.4,1,1.5,1.5,2.5,1.5c0.4,0,0.8-0.1,1.2-0.3h0.1c1.4-0.7,1.9-2.4,1.2-3.7l-0.1-0.1
		c0.1-0.1,0.4-0.3,0.6-0.3c0,0,0,0.1,0.1,0.1c0.6,0.7,1.4,1,2.1,1c0.6,0,1.2-0.1,1.8-0.7h0.1c1.2-1,1.4-2.8,0.4-3.9l-0.1-0.1
		c0.1-0.1,0.3-0.3,0.4-0.4l0.1,0.1c0.6,0.4,1.1,0.6,1.7,0.6c0.8,0,1.7-0.4,2.2-1.1v-0.1c1-1.2,0.7-2.9-0.6-3.9c0,0-0.1,0-0.1-0.1
		c0.1-0.1,0.3-0.4,0.3-0.6c0,0,0.1,0,0.1,0.1c0.4,0.1,0.8,0.3,1.1,0.3c1.1,0,2.1-0.6,2.5-1.7v-0.1c0.7-1.4,0-3-1.4-3.7h-0.1
		c0.1-0.1,0.1-0.4,0.3-0.6h0.1c0.1,0,0.4,0,0.6,0c1.2,0,2.5-0.8,2.8-2.2V93C143.7,92.3,142.8,90.8,141.2,90.5z M60.6,85.6
		c-0.6-0.8-1.4-1.2-2.4-1.2l0,0h-0.1c0-0.3,0-0.4-0.1-0.7h0.1c1.5-0.4,2.4-1.8,2.1-3.3v-0.1c-0.3-1.2-1.4-2.1-2.6-2.1
		c-0.3,0-0.4,0-0.7,0.1h-0.1c-0.1-0.1-0.1-0.4-0.3-0.6h0.1c1.4-0.7,1.9-2.4,1.2-3.7v-0.1c-0.6-1-1.5-1.5-2.5-1.5
		c-0.4,0-0.8,0.1-1.2,0.3c0,0-0.1,0-0.1,0.1c-0.1-0.1-0.3-0.4-0.3-0.6c0,0,0.1,0,0.1-0.1c1.1-1,1.4-2.8,0.4-3.9V68
		c-0.4-0.6-1.1-0.8-1.7-1l2.9-3.2l13.3,21.6h-8.2V85.6z M30.5,109.8c-12.2,0-22.1-10-22.1-22.1s10-22.1,22.1-22.1
		c5,0,9.7,1.7,13.3,4.6L29,86.2c-0.6,0.6-0.7,1.5-0.4,2.2c0.3,0.7,1.1,1.2,1.9,1.2h22C51.6,100.9,42,109.8,30.5,109.8z M47,72.8
		c3,3.5,5.1,7.9,5.7,12.7H35.2L47,72.8z M72.2,83.8l-0.3-0.4L58.6,61.5l32.7-12.2l1.4,3.7L72.2,83.8z M113.6,109.8
		c-12.2,0-22.1-10-22.1-22.1c0-7.1,3.3-13.4,8.6-17.4c3.5,6.9,7.5,13.7,12,18.8c0.4,0.4,1,0.7,1.5,0.7c0.6,0,1-0.1,1.4-0.6
		c0.8-0.7,1-2.1,0.1-2.9c-4.3-5-8.2-11.5-11.5-18.4c3-1.5,6.4-2.4,10-2.4c12.2,0,22.1,10,22.1,22.1S125.7,109.8,113.6,109.8z"/>
</g>
</svg>
