<?xml version="1.0" encoding="utf-8"?>
<!-- Generator: Adobe Illustrator 21.1.0, SVG Export Plug-In . SVG Version: 6.00 Build 0) -->
<!DOCTYPE svg PUBLIC "-//W3C//DTD SVG 1.1//EN" "http://www.w3.org/Graphics/SVG/1.1/DTD/svg11.dtd">
<svg version="1.1" id="Layer_1" xmlns="http://www.w3.org/2000/svg" xmlns:xlink="http://www.w3.org/1999/xlink" x="0px" y="0px" viewBox="0 0 144 144" style="enable-background:new 0 0 144 144;" xml:space="preserve">
	<g>
		<path d="M84,95.5c-2,0-3.5,1.5-3.5,3.5v3c0,2,1.5,3.5,3.5,3.5s3.5-1.5,3.5-3.5v-3C87.5,97,86,95.5,84,95.5z M86.5,102
		c0,1.4-1.1,2.5-2.5,2.5s-2.5-1.1-2.5-2.5v-3c0-1.4,1.1-2.5,2.5-2.5s2.5,1.1,2.5,2.5V102z" />
		<path d="M33,98.8c-1.8,0-3.2,1.5-3.2,3.2s1.5,3.2,3.2,3.2s3.2-1.5,3.2-3.2S34.8,98.8,33,98.8z M33,104.8c-1.5,0-2.8-1.2-2.8-2.8
		s1.2-2.8,2.8-2.8s2.8,1.2,2.8,2.8S34.5,104.8,33,104.8z" />
		<path d="M40.5,104.8c-2.6,0-4.8,2.1-4.8,4.8s2.1,4.8,4.8,4.8s4.8-2.1,4.8-4.8S43.1,104.8,40.5,104.8z M40.5,113.8
		c-2.3,0-4.2-1.9-4.2-4.2s1.9-4.2,4.2-4.2s4.2,1.9,4.2,4.2S42.8,113.8,40.5,113.8z" />
		<path d="M66,107.8c-1.8,0-3.2,1.5-3.2,3.2s1.5,3.2,3.2,3.2s3.2-1.5,3.2-3.2S67.8,107.8,66,107.8z M66,113.8c-1.5,0-2.8-1.2-2.8-2.8
		s1.2-2.8,2.8-2.8s2.8,1.2,2.8,2.8S67.5,113.8,66,113.8z" />
		<path d="M43.5,98.8c-1,0-1.8,0.8-1.8,1.8s0.8,1.8,1.8,1.8s1.8-0.8,1.8-1.8S44.5,98.8,43.5,98.8z M43.5,101.8
		c-0.7,0-1.2-0.6-1.2-1.2s0.6-1.2,1.2-1.2s1.2,0.6,1.2,1.2S44.2,101.8,43.5,101.8z" />
		<path d="M108,101.8c-1.8,0-3.2,1.5-3.2,3.2s1.5,3.2,3.2,3.2s3.2-1.5,3.2-3.2S109.8,101.8,108,101.8z M108,107.8
		c-1.5,0-2.8-1.2-2.8-2.8s1.2-2.8,2.8-2.8s2.8,1.2,2.8,2.8S109.5,107.8,108,107.8z" />
		<path d="M112.5,111.3c1,0,1.8-0.8,1.8-1.8s-0.8-1.8-1.8-1.8s-1.8,0.8-1.8,1.8S111.5,111.3,112.5,111.3z M112.5,108.3
		c0.7,0,1.2,0.6,1.2,1.2s-0.6,1.2-1.2,1.2s-1.2-0.6-1.2-1.2S111.8,108.3,112.5,108.3z" />
		<path d="M121,95h-10c-4.5,0-8.2,2.7-12.1,5.5c-2.8,2.1-5.8,4.2-9.2,5.4c0.8-1.1,1.2-2.5,1.2-4V76.9c1.3,1.3,3,2.1,5,2.1h7V48
		c0-13.8-11.2-25-25-25H66c-13.8,0-25,11.2-25,25v21c0,3.9,3.1,7,7,7c2,0,3.7-0.8,5-2.1V75c0,3.9,3.1,7,7,7c2,0,3.7-0.8,5-2.1V81
		c0,3.9,3.1,7,7,7c2,0,3.7-0.8,5-2.1V102c0,1.5,0.5,2.8,1.2,4c-3.4-1.2-6.3-3.3-9.2-5.4C65.2,97.7,61.5,95,57,95H23v2h0.5v23.5h97
		V97h0.5V95z M79,102V81V69h-2v12c0,2.8-2.2,5-5,5s-5-2.2-5-5v-9h-2v3c0,2.8-2.2,5-5,5s-5-2.2-5-5v-6h-2c0,2.8-2.2,5-5,5s-5-2.2-5-5
		V48c0-12.7,10.3-23,23-23h12c12.7,0,23,10.3,23,23v29h-5c-2.8,0-5-2.2-5-5V51h-2v51c0,2.8-2.2,5-5,5S79,104.8,79,102z M119.5,119.5
		h-95V97H57c3.9,0,7.3,2.5,10.9,5.2c4.4,3.2,9.3,6.8,16.1,6.8s11.7-3.6,16.1-6.8c3.6-2.7,7.1-5.2,10.9-5.2h8.5V119.5z" />
	</g>
</svg>
