<?xml version="1.0" encoding="utf-8"?>
<!-- Generator: Adobe Illustrator 21.1.0, SVG Export Plug-In . SVG Version: 6.00 Build 0)  -->
<!DOCTYPE svg PUBLIC "-//W3C//DTD SVG 1.1//EN" "http://www.w3.org/Graphics/SVG/1.1/DTD/svg11.dtd">
<svg version="1.1" id="Layer_1" xmlns="http://www.w3.org/2000/svg" xmlns:xlink="http://www.w3.org/1999/xlink" x="0px" y="0px"
	 viewBox="0 0 144 144" style="enable-background:new 0 0 144 144;" xml:space="preserve">
<g>
	<path d="M96,50c-2,0-3.7,0.8-5,2.1V51c0-3.9-3.1-7-7-7c-2,0-3.7,0.8-5,2.1V45c0-2.4-1.2-4.5-3-5.7V34h3.9L72,22.2L64.1,34H68v5.3
		c-1.8,1.3-3,3.4-3,5.7v1.1c-1.3-1.3-3-2.1-5-2.1c-3.9,0-7,3.1-7,7v28.1c-1.3-1.3-3-2.1-5-2.1h-7v32h6.7c4.4,7.2,12.3,12,21.3,12h6
		c9,0,16.9-4.8,21.3-12h6.7V57C103,53.1,99.9,50,96,50z M75,119h-6c-7.9,0-14.8-4-19-10H94C89.8,115,82.9,119,75,119z M101,107H43
		V79h5c2.8,0,5,2.2,5,5v4.1c-0.4-0.2-0.8-0.2-1.1,0.1c-0.4,0.4-0.5,1-0.1,1.4c0,0,0,0,0,0c0.2,0.2,0.5,0.3,0.8,0.3
		c0.2,0,0.3-0.1,0.5-0.1V99h2V57.7c0.3,0,0.6-0.2,0.8-0.4c0.3-0.5,0.2-1.1-0.3-1.4c-0.2-0.1-0.3-0.1-0.5-0.1V51c0-2.8,2.2-5,5-5
		s5,2.2,5,5v4.7c-0.2,0-0.4,0-0.6,0.2c-0.5,0.3-0.6,0.9-0.3,1.4c0.2,0.3,0.5,0.4,0.8,0.4c0,0,0,0,0,0V87h2V52.8
		c0.1-0.1,0.2-0.2,0.3-0.4c0.1-0.4,0-0.8-0.3-1V45c0-2.8,2.2-5,5-5s5,2.2,5,5v4.2c-0.1-0.1-0.1-0.3-0.2-0.4c-0.4-0.4-1-0.4-1.4,0.1
		c-0.4,0.4-0.4,1,0,1.4c0.2,0.2,0.4,0.3,0.7,0.3c0.3,0,0.5-0.1,0.7-0.3c0.1-0.1,0.1-0.2,0.2-0.3v2.7c-0.1,0.2-0.1,0.3-0.1,0.5
		c0,0.1,0,0.1,0.1,0.2V84h2V58.1c0.2-0.1,0.5-0.2,0.6-0.5c0.3-0.5,0.1-1.1-0.4-1.4c-0.1,0-0.1,0-0.2-0.1V51c0-2.8,2.2-5,5-5
		s5,2.2,5,5v4.4c-0.3-0.1-0.6,0-0.9,0.2c-0.4,0.3-0.5,1-0.2,1.4c0.2,0.2,0.5,0.4,0.8,0.4c0.1,0,0.2,0,0.2,0V87h2V64.8
		c0.1-0.1,0.2-0.2,0.3-0.4c0.1-0.4,0-0.8-0.3-1.1V57c0-2.8,2.2-5,5-5s5,2.2,5,5v4.2c-0.1-0.1-0.1-0.2-0.2-0.3c-0.4-0.4-1-0.4-1.4,0
		c-0.4,0.4-0.4,1,0,1.4c0.2,0.2,0.4,0.3,0.7,0.3c0.3,0,0.5-0.1,0.7-0.3c0.1-0.1,0.1-0.2,0.2-0.3v2.7c-0.1,0.2-0.1,0.3-0.1,0.5
		c0,0.1,0,0.1,0.1,0.2V107z"/>
	<path d="M92.2,60.1c-0.5,0.3-0.6,0.9-0.3,1.4c0.2,0.3,0.5,0.5,0.8,0.5c0.2,0,0.4-0.1,0.6-0.2c0.5-0.3,0.6-0.9,0.3-1.4
		C93.3,60,92.6,59.8,92.2,60.1z"/>
	<path d="M96.6,59c-0.5,0-1,0.4-1.1,0.9c-0.1,0.5,0.4,1,0.9,1.1c0,0,0.1,0,0.1,0c0.5,0,1-0.4,1-0.9C97.6,59.6,97.2,59.1,96.6,59z"/>
	<path d="M85.7,53.2c-0.5-0.1-1.1,0.2-1.2,0.7c-0.1,0.5,0.2,1.1,0.7,1.2c0,0,0,0,0,0c0.1,0,0.2,0,0.2,0c0.5,0,0.9-0.3,1-0.8
		C86.6,53.9,86.3,53.3,85.7,53.2z"/>
	<path d="M81.2,53.6c-0.5,0.2-0.7,0.8-0.5,1.3c0.2,0.4,0.5,0.6,0.9,0.6c0.1,0,0.3,0,0.4-0.1c0.5-0.2,0.7-0.8,0.5-1.3
		C82.3,53.6,81.7,53.4,81.2,53.6z"/>
	<path d="M68.1,48.2c-0.5,0.3-0.6,0.9-0.3,1.4c0.2,0.3,0.5,0.4,0.8,0.4c0.2,0,0.4,0,0.5-0.2c0.5-0.3,0.6-0.9,0.3-1.4
		C69.2,48,68.6,47.8,68.1,48.2z"/>
	<path d="M72.6,47c-0.5,0-1,0.4-1.1,0.9c0,0.5,0.4,1,0.9,1.1c0,0,0.1,0,0.1,0c0.5,0,1-0.4,1-0.9C73.5,47.5,73.1,47.1,72.6,47z"/>
	<path d="M57.7,53.4c-0.5,0.2-0.8,0.8-0.6,1.3c0.1,0.4,0.5,0.7,0.9,0.7c0.1,0,0.2,0,0.3-0.1c0.5-0.2,0.8-0.8,0.6-1.3
		C58.8,53.5,58.2,53.2,57.7,53.4z"/>
	<path d="M62.2,53.4c-0.5-0.2-1.1,0.1-1.3,0.6c-0.2,0.5,0.1,1.1,0.6,1.3c0.1,0,0.2,0.1,0.3,0.1c0.4,0,0.8-0.3,0.9-0.7
		C63,54.1,62.7,53.5,62.2,53.4z"/>
	<circle cx="45.7" cy="87" r="1"/>
	<path d="M49.6,86.2c-0.5-0.1-1.1,0.2-1.2,0.7c-0.1,0.5,0.2,1.1,0.7,1.2c0.1,0,0.1,0,0.2,0c0.4,0,0.9-0.3,1-0.8
		C50.5,86.8,50.2,86.3,49.6,86.2z"/>
</g>
</svg>
