<?xml version="1.0" encoding="utf-8"?>
<!-- Generator: Adobe Illustrator 21.1.0, SVG Export Plug-In . SVG Version: 6.00 Build 0)  -->
<!DOCTYPE svg PUBLIC "-//W3C//DTD SVG 1.1//EN" "http://www.w3.org/Graphics/SVG/1.1/DTD/svg11.dtd">
<svg version="1.1" id="Layer_1" xmlns="http://www.w3.org/2000/svg" xmlns:xlink="http://www.w3.org/1999/xlink" x="0px" y="0px"
	 viewBox="0 0 144 144" style="enable-background:new 0 0 144 144;" xml:space="preserve">
<g>
	<path d="M91,56v-3H79v-3H65v3H53v14.1c0,0,0,0,0,0c-0.1-0.1-0.2-0.2-0.3-0.2c-0.1-0.1-0.2-0.2-0.2-0.2c-0.1-0.1-0.2-0.1-0.3-0.2
		c-0.1-0.1-0.2-0.1-0.3-0.2c-0.1-0.1-0.2-0.1-0.3-0.2c-0.1-0.1-0.2-0.1-0.3-0.2c-0.1-0.1-0.2-0.1-0.3-0.2c-0.1,0-0.2-0.1-0.3-0.1
		c-0.1-0.1-0.2-0.1-0.4-0.1c-0.1,0-0.2-0.1-0.3-0.1c-0.1,0-0.3-0.1-0.4-0.1c-0.1,0-0.2,0-0.3-0.1c-0.2,0-0.3-0.1-0.5-0.1
		c-0.1,0-0.1,0-0.2,0c-0.2,0-0.5,0-0.7,0h-7v31c0,0.5,0,0.9,0,1.4c0,0.3,0,0.6,0.1,0.8c0,0.1,0,0.3,0,0.4c0,0.4,0.1,0.8,0.1,1.1
		c0,0,0,0,0,0c0.4,2.6,1.2,5.2,2.4,7.5l0.4,0.8l0,0C48.4,115.8,56.6,121,66,121h12c13.8,0,25-11.2,25-25V56H91z M43,67h5
		c2.8,0,5,2.2,5,5v21c0,5.4-3.1,10.3-7.9,12.6c-1.2-2.6-1.9-5.4-2.1-8.4c0-0.4,0-0.8,0-1.2V67z M101,96c0,12.7-10.3,23-23,23H66
		c-8.6,0-16-4.7-20-11.6c5.5-2.7,9-8.2,9-14.4V72V55h10v17h2V52h10v20h2V55h10v20h2V58h10V96z"/>
	<path d="M45,70c0.6,0,1-0.4,1-1s-0.4-1-1-1h0c-0.6,0-1,0.4-1,1S44.5,70,45,70z"/>
	<path d="M48,70c0.6,0,1-0.4,1-1s-0.4-1-1-1h0c-0.6,0-1,0.4-1,1S47.5,70,48,70z"/>
	<path d="M45,73c0.6,0,1-0.4,1-1s-0.4-1-1-1h0c-0.6,0-1,0.4-1,1S44.5,73,45,73z"/>
	<path d="M51,73c0.6,0,1-0.4,1-1s-0.4-1-1-1h0c-0.6,0-1,0.4-1,1S50.5,73,51,73z"/>
	<path d="M48,73c0.6,0,1-0.4,1-1s-0.4-1-1-1h0c-0.6,0-1,0.4-1,1S47.5,73,48,73z"/>
	<path d="M45,76c0.6,0,1-0.4,1-1s-0.4-1-1-1h0c-0.6,0-1,0.4-1,1S44.5,76,45,76z"/>
	<path d="M45,79c0.6,0,1-0.4,1-1s-0.4-1-1-1h0c-0.6,0-1,0.4-1,1S44.5,79,45,79z"/>
	<path d="M45,82c0.6,0,1-0.4,1-1s-0.4-1-1-1h0c-0.6,0-1,0.4-1,1S44.5,82,45,82z"/>
	<path d="M45,85c0.6,0,1-0.4,1-1s-0.4-1-1-1h0c-0.6,0-1,0.4-1,1S44.5,85,45,85z"/>
	<path d="M45,88c0.6,0,1-0.4,1-1s-0.4-1-1-1h0c-0.6,0-1,0.4-1,1S44.5,88,45,88z"/>
	<path d="M45,91c0.6,0,1-0.4,1-1s-0.4-1-1-1h0c-0.6,0-1,0.4-1,1S44.5,91,45,91z"/>
	<path d="M45,94c0.6,0,1-0.4,1-1s-0.4-1-1-1h0c-0.6,0-1,0.4-1,1S44.5,94,45,94z"/>
	<path d="M45,97c0.6,0,1-0.4,1-1s-0.4-1-1-1h0c-0.6,0-1,0.4-1,1S44.5,97,45,97z"/>
	<path d="M45,100c0.6,0,1-0.4,1-1s-0.4-1-1-1h0c-0.6,0-1,0.4-1,1S44.5,100,45,100z"/>
	<path d="M48,103c0.6,0,1-0.4,1-1s-0.4-1-1-1h0c-0.6,0-1,0.4-1,1S47.5,103,48,103z"/>
	<path d="M48,100c0.6,0,1-0.4,1-1s-0.4-1-1-1h0c-0.6,0-1,0.4-1,1S47.5,100,48,100z"/>
	<path d="M48,97c0.6,0,1-0.4,1-1s-0.4-1-1-1h0c-0.6,0-1,0.4-1,1S47.5,97,48,97z"/>
	<path d="M48,94c0.6,0,1-0.4,1-1s-0.4-1-1-1h0c-0.6,0-1,0.4-1,1S47.5,94,48,94z"/>
	<path d="M48,91c0.6,0,1-0.4,1-1s-0.4-1-1-1h0c-0.6,0-1,0.4-1,1S47.5,91,48,91z"/>
	<path d="M48,88c0.6,0,1-0.4,1-1s-0.4-1-1-1h0c-0.6,0-1,0.4-1,1S47.5,88,48,88z"/>
	<path d="M48,85c0.6,0,1-0.4,1-1s-0.4-1-1-1h0c-0.6,0-1,0.4-1,1S47.5,85,48,85z"/>
	<path d="M48,82c0.6,0,1-0.4,1-1s-0.4-1-1-1h0c-0.6,0-1,0.4-1,1S47.5,82,48,82z"/>
	<path d="M48,79c0.6,0,1-0.4,1-1s-0.4-1-1-1h0c-0.6,0-1,0.4-1,1S47.5,79,48,79z"/>
	<path d="M48,76c0.6,0,1-0.4,1-1s-0.4-1-1-1h0c-0.6,0-1,0.4-1,1S47.5,76,48,76z"/>
	<path d="M51,76c0.6,0,1-0.4,1-1s-0.4-1-1-1h0c-0.6,0-1,0.4-1,1S50.5,76,51,76z"/>
	<path d="M51,79c0.6,0,1-0.4,1-1s-0.4-1-1-1h0c-0.6,0-1,0.4-1,1S50.5,79,51,79z"/>
	<path d="M51,82c0.6,0,1-0.4,1-1s-0.4-1-1-1h0c-0.6,0-1,0.4-1,1S50.5,82,51,82z"/>
	<path d="M51,85c0.6,0,1-0.4,1-1s-0.4-1-1-1h0c-0.6,0-1,0.4-1,1S50.5,85,51,85z"/>
	<path d="M51,88c0.6,0,1-0.4,1-1s-0.4-1-1-1h0c-0.6,0-1,0.4-1,1S50.5,88,51,88z"/>
	<path d="M51,91c0.6,0,1-0.4,1-1s-0.4-1-1-1h0c-0.6,0-1,0.4-1,1S50.5,91,51,91z"/>
	<path d="M51,94c0.6,0,1-0.4,1-1s-0.4-1-1-1h0c-0.6,0-1,0.4-1,1S50.5,94,51,94z"/>
	<path d="M51,97c0.6,0,1-0.4,1-1s-0.4-1-1-1h0c-0.6,0-1,0.4-1,1S50.5,97,51,97z"/>
	<path d="M69,77c-5.5,0-10,4.5-10,10s4.5,10,10,10h15c5.5,0,10-4.5,10-10s-4.5-10-10-10H69z M92,87c0,4.4-3.6,8-8,8H69
		c-4.4,0-8-3.6-8-8s3.6-8,8-8h15C88.4,79,92,82.6,92,87z"/>
	<path d="M63,83L63,83c-0.6,0-1,0.4-1,1s0.5,1,1,1s1-0.4,1-1S63.6,83,63,83z"/>
	<path d="M63,86L63,86c-0.6,0-1,0.4-1,1s0.5,1,1,1s1-0.4,1-1S63.6,86,63,86z"/>
	<path d="M63,89L63,89c-0.6,0-1,0.4-1,1s0.5,1,1,1s1-0.4,1-1S63.6,89,63,89z"/>
	<path d="M66,92L66,92c-0.6,0-1,0.4-1,1s0.5,1,1,1s1-0.4,1-1S66.6,92,66,92z"/>
	<path d="M66,89L66,89c-0.6,0-1,0.4-1,1s0.5,1,1,1s1-0.4,1-1S66.6,89,66,89z"/>
	<path d="M66,86L66,86c-0.6,0-1,0.4-1,1s0.5,1,1,1s1-0.4,1-1S66.6,86,66,86z"/>
	<path d="M66,83L66,83c-0.6,0-1,0.4-1,1s0.5,1,1,1s1-0.4,1-1S66.6,83,66,83z"/>
	<path d="M69,83L69,83c-0.6,0-1,0.4-1,1s0.5,1,1,1s1-0.4,1-1S69.6,83,69,83z"/>
	<path d="M66,80L66,80c-0.6,0-1,0.4-1,1s0.5,1,1,1s1-0.4,1-1S66.6,80,66,80z"/>
	<path d="M69,80L69,80c-0.6,0-1,0.4-1,1s0.5,1,1,1s1-0.4,1-1S69.6,80,69,80z"/>
	<path d="M69,86L69,86c-0.6,0-1,0.4-1,1s0.5,1,1,1s1-0.4,1-1S69.6,86,69,86z"/>
	<path d="M69,89L69,89c-0.6,0-1,0.4-1,1s0.5,1,1,1s1-0.4,1-1S69.6,89,69,89z"/>
	<path d="M69,92L69,92c-0.6,0-1,0.4-1,1s0.5,1,1,1s1-0.4,1-1S69.6,92,69,92z"/>
	<path d="M72,83L72,83c-0.6,0-1,0.4-1,1s0.5,1,1,1s1-0.4,1-1S72.6,83,72,83z"/>
	<path d="M72,86L72,86c-0.6,0-1,0.4-1,1s0.5,1,1,1s1-0.4,1-1S72.6,86,72,86z"/>
	<path d="M72,89L72,89c-0.6,0-1,0.4-1,1s0.5,1,1,1s1-0.4,1-1S72.6,89,72,89z"/>
	<path d="M72,92L72,92c-0.6,0-1,0.4-1,1s0.5,1,1,1s1-0.4,1-1S72.6,92,72,92z"/>
	<path d="M75,92L75,92c-0.6,0-1,0.4-1,1s0.5,1,1,1c0.6,0,1-0.4,1-1S75.6,92,75,92z"/>
	<path d="M75,89L75,89c-0.6,0-1,0.4-1,1s0.5,1,1,1c0.6,0,1-0.4,1-1S75.6,89,75,89z"/>
	<path d="M75,86L75,86c-0.6,0-1,0.4-1,1s0.5,1,1,1c0.6,0,1-0.4,1-1S75.6,86,75,86z"/>
	<path d="M75,83L75,83c-0.6,0-1,0.4-1,1s0.5,1,1,1c0.6,0,1-0.4,1-1S75.6,83,75,83z"/>
	<path d="M78,83L78,83c-0.6,0-1,0.4-1,1s0.5,1,1,1c0.6,0,1-0.4,1-1S78.6,83,78,83z"/>
	<path d="M72,80L72,80c-0.6,0-1,0.4-1,1s0.5,1,1,1s1-0.4,1-1S72.6,80,72,80z"/>
	<path d="M75,80L75,80c-0.6,0-1,0.4-1,1s0.5,1,1,1c0.6,0,1-0.4,1-1S75.6,80,75,80z"/>
	<path d="M78,80L78,80c-0.6,0-1,0.4-1,1s0.5,1,1,1c0.6,0,1-0.4,1-1S78.6,80,78,80z"/>
	<path d="M78,86L78,86c-0.6,0-1,0.4-1,1s0.5,1,1,1c0.6,0,1-0.4,1-1S78.6,86,78,86z"/>
	<path d="M78,89L78,89c-0.6,0-1,0.4-1,1s0.5,1,1,1c0.6,0,1-0.4,1-1S78.6,89,78,89z"/>
	<path d="M78,92L78,92c-0.6,0-1,0.4-1,1s0.5,1,1,1c0.6,0,1-0.4,1-1S78.6,92,78,92z"/>
	<path d="M81,83L81,83c-0.6,0-1,0.4-1,1s0.5,1,1,1c0.6,0,1-0.4,1-1S81.6,83,81,83z"/>
	<path d="M81,86L81,86c-0.6,0-1,0.4-1,1s0.5,1,1,1c0.6,0,1-0.4,1-1S81.6,86,81,86z"/>
	<path d="M81,89L81,89c-0.6,0-1,0.4-1,1s0.5,1,1,1c0.6,0,1-0.4,1-1S81.6,89,81,89z"/>
	<path d="M81,92L81,92c-0.6,0-1,0.4-1,1s0.5,1,1,1c0.6,0,1-0.4,1-1S81.6,92,81,92z"/>
	<path d="M81,80L81,80c-0.6,0-1,0.4-1,1s0.5,1,1,1c0.6,0,1-0.4,1-1S81.6,80,81,80z"/>
	<path d="M84,83L84,83c-0.6,0-1,0.4-1,1s0.5,1,1,1c0.6,0,1-0.4,1-1S84.6,83,84,83z"/>
	<path d="M84,86L84,86c-0.6,0-1,0.4-1,1s0.5,1,1,1c0.6,0,1-0.4,1-1S84.6,86,84,86z"/>
	<path d="M84,89L84,89c-0.6,0-1,0.4-1,1s0.5,1,1,1c0.6,0,1-0.4,1-1S84.6,89,84,89z"/>
	<path d="M84,92L84,92c-0.6,0-1,0.4-1,1s0.5,1,1,1c0.6,0,1-0.4,1-1S84.6,92,84,92z"/>
	<path d="M87,94c0.6,0,1-0.4,1-1s-0.4-1-1-1h0c-0.6,0-1,0.4-1,1S86.5,94,87,94z"/>
	<path d="M87,91c0.6,0,1-0.4,1-1s-0.4-1-1-1h0c-0.6,0-1,0.4-1,1S86.5,91,87,91z"/>
	<path d="M87,88c0.6,0,1-0.4,1-1s-0.4-1-1-1h0c-0.6,0-1,0.4-1,1S86.5,88,87,88z"/>
	<path d="M87,85c0.6,0,1-0.4,1-1s-0.4-1-1-1h0c-0.6,0-1,0.4-1,1S86.5,85,87,85z"/>
	<path d="M90,85c0.6,0,1-0.4,1-1s-0.4-1-1-1h0c-0.6,0-1,0.4-1,1S89.5,85,90,85z"/>
	<path d="M83,81c0,0.6,0.5,1,1,1c0.6,0,1-0.4,1-1s-0.4-1-1-1h0C83.5,80,83,80.4,83,81z"/>
	<path d="M87,82c0.6,0,1-0.4,1-1s-0.4-1-1-1h0c-0.6,0-1,0.4-1,1S86.5,82,87,82z"/>
	<path d="M90,88c0.6,0,1-0.4,1-1s-0.4-1-1-1h0c-0.6,0-1,0.4-1,1S89.5,88,90,88z"/>
	<path d="M90,91c0.6,0,1-0.4,1-1s-0.4-1-1-1h0c-0.6,0-1,0.4-1,1S89.5,91,90,91z"/>
	<path d="M84,101H66c-3.9,0-7,3.1-7,7s3.1,7,7,7h18c3.9,0,7-3.1,7-7S87.9,101,84,101z M84,113H66c-2.8,0-5-2.2-5-5s2.2-5,5-5h18
		c2.8,0,5,2.2,5,5S86.8,113,84,113z"/>
	<path d="M63,107L63,107c-0.6,0-1,0.4-1,1s0.5,1,1,1s1-0.4,1-1S63.6,107,63,107z"/>
	<path d="M66,110L66,110c-0.6,0-1,0.4-1,1s0.5,1,1,1s1-0.4,1-1S66.6,110,66,110z"/>
	<path d="M66,107L66,107c-0.6,0-1,0.4-1,1s0.5,1,1,1s1-0.4,1-1S66.6,107,66,107z"/>
	<path d="M66,104L66,104c-0.6,0-1,0.4-1,1s0.5,1,1,1s1-0.4,1-1S66.6,104,66,104z"/>
	<path d="M69,104L69,104c-0.6,0-1,0.4-1,1s0.5,1,1,1s1-0.4,1-1S69.6,104,69,104z"/>
	<path d="M69,107L69,107c-0.6,0-1,0.4-1,1s0.5,1,1,1s1-0.4,1-1S69.6,107,69,107z"/>
	<path d="M69,110L69,110c-0.6,0-1,0.4-1,1s0.5,1,1,1s1-0.4,1-1S69.6,110,69,110z"/>
	<path d="M72,104L72,104c-0.6,0-1,0.4-1,1s0.5,1,1,1s1-0.4,1-1S72.6,104,72,104z"/>
	<path d="M72,107L72,107c-0.6,0-1,0.4-1,1s0.5,1,1,1s1-0.4,1-1S72.6,107,72,107z"/>
	<path d="M72,110L72,110c-0.6,0-1,0.4-1,1s0.5,1,1,1s1-0.4,1-1S72.6,110,72,110z"/>
	<path d="M75,110L75,110c-0.6,0-1,0.4-1,1s0.5,1,1,1c0.6,0,1-0.4,1-1S75.6,110,75,110z"/>
	<path d="M75,107L75,107c-0.6,0-1,0.4-1,1s0.5,1,1,1c0.6,0,1-0.4,1-1S75.6,107,75,107z"/>
	<path d="M75,104L75,104c-0.6,0-1,0.4-1,1s0.5,1,1,1c0.6,0,1-0.4,1-1S75.6,104,75,104z"/>
	<path d="M78,104L78,104c-0.6,0-1,0.4-1,1s0.5,1,1,1c0.6,0,1-0.4,1-1S78.6,104,78,104z"/>
	<path d="M78,107L78,107c-0.6,0-1,0.4-1,1s0.5,1,1,1c0.6,0,1-0.4,1-1S78.6,107,78,107z"/>
	<path d="M78,110L78,110c-0.6,0-1,0.4-1,1s0.5,1,1,1c0.6,0,1-0.4,1-1S78.6,110,78,110z"/>
	<path d="M81,104L81,104c-0.6,0-1,0.4-1,1s0.5,1,1,1c0.6,0,1-0.4,1-1S81.6,104,81,104z"/>
	<path d="M81,107L81,107c-0.6,0-1,0.4-1,1s0.5,1,1,1c0.6,0,1-0.4,1-1S81.6,107,81,107z"/>
	<path d="M81,110L81,110c-0.6,0-1,0.4-1,1s0.5,1,1,1c0.6,0,1-0.4,1-1S81.6,110,81,110z"/>
	<path d="M84,104L84,104c-0.6,0-1,0.4-1,1s0.5,1,1,1c0.6,0,1-0.4,1-1S84.6,104,84,104z"/>
	<path d="M84,107L84,107c-0.6,0-1,0.4-1,1s0.5,1,1,1c0.6,0,1-0.4,1-1S84.6,107,84,107z"/>
	<path d="M84,110L84,110c-0.6,0-1,0.4-1,1s0.5,1,1,1c0.6,0,1-0.4,1-1S84.6,110,84,110z"/>
	<path d="M87,107c-0.6,0-1,0.4-1,1s0.5,1,1,1c0.6,0,1-0.4,1-1S87.6,107,87,107L87,107z"/>
</g>
</svg>
