<?xml version="1.0" encoding="utf-8"?>
<!-- Generator: Adobe Illustrator 21.1.0, SVG Export Plug-In . SVG Version: 6.00 Build 0)  -->
<!DOCTYPE svg PUBLIC "-//W3C//DTD SVG 1.1//EN" "http://www.w3.org/Graphics/SVG/1.1/DTD/svg11.dtd">
<svg version="1.1" id="Layer_1" xmlns="http://www.w3.org/2000/svg" xmlns:xlink="http://www.w3.org/1999/xlink" x="0px" y="0px"
	 viewBox="0 0 144 144" style="enable-background:new 0 0 144 144;" xml:space="preserve">
<g>
	<path d="M45,73c0.6,0,1-0.4,1-1s-0.4-1-1-1h0c-0.6,0-1,0.4-1,1S44.5,73,45,73z"/>
	<path d="M51,73c0.6,0,1-0.4,1-1s-0.4-1-1-1h0c-0.6,0-1,0.4-1,1S50.5,73,51,73z"/>
	<path d="M48,73c0.6,0,1-0.4,1-1s-0.4-1-1-1h0c-0.6,0-1,0.4-1,1S47.5,73,48,73z"/>
	<path d="M45,76c0.6,0,1-0.4,1-1s-0.4-1-1-1h0c-0.6,0-1,0.4-1,1S44.5,76,45,76z"/>
	<path d="M45,79c0.6,0,1-0.4,1-1s-0.4-1-1-1h0c-0.6,0-1,0.4-1,1S44.5,79,45,79z"/>
	<path d="M45,82c0.6,0,1-0.4,1-1s-0.4-1-1-1h0c-0.6,0-1,0.4-1,1S44.5,82,45,82z"/>
	<path d="M45,85c0.6,0,1-0.4,1-1s-0.4-1-1-1h0c-0.6,0-1,0.4-1,1S44.5,85,45,85z"/>
	<path d="M45,88c0.6,0,1-0.4,1-1s-0.4-1-1-1h0c-0.6,0-1,0.4-1,1S44.5,88,45,88z"/>
	<path d="M45,91c0.6,0,1-0.4,1-1s-0.4-1-1-1h0c-0.6,0-1,0.4-1,1S44.5,91,45,91z"/>
	<path d="M45,94c0.6,0,1-0.4,1-1s-0.4-1-1-1h0c-0.6,0-1,0.4-1,1S44.5,94,45,94z"/>
	<path d="M45,97c0.6,0,1-0.4,1-1s-0.4-1-1-1h0c-0.6,0-1,0.4-1,1S44.5,97,45,97z"/>
	<path d="M45,100c0.6,0,1-0.4,1-1s-0.4-1-1-1h0c-0.6,0-1,0.4-1,1S44.5,100,45,100z"/>
	<path d="M48,103c0.6,0,1-0.4,1-1s-0.4-1-1-1h0c-0.6,0-1,0.4-1,1S47.5,103,48,103z"/>
	<path d="M48,100c0.6,0,1-0.4,1-1s-0.4-1-1-1h0c-0.6,0-1,0.4-1,1S47.5,100,48,100z"/>
	<path d="M48,97c0.6,0,1-0.4,1-1s-0.4-1-1-1h0c-0.6,0-1,0.4-1,1S47.5,97,48,97z"/>
	<path d="M48,94c0.6,0,1-0.4,1-1s-0.4-1-1-1h0c-0.6,0-1,0.4-1,1S47.5,94,48,94z"/>
	<path d="M48,91c0.6,0,1-0.4,1-1s-0.4-1-1-1h0c-0.6,0-1,0.4-1,1S47.5,91,48,91z"/>
	<path d="M48,88c0.6,0,1-0.4,1-1s-0.4-1-1-1h0c-0.6,0-1,0.4-1,1S47.5,88,48,88z"/>
	<path d="M48,85c0.6,0,1-0.4,1-1s-0.4-1-1-1h0c-0.6,0-1,0.4-1,1S47.5,85,48,85z"/>
	<path d="M48,82c0.6,0,1-0.4,1-1s-0.4-1-1-1h0c-0.6,0-1,0.4-1,1S47.5,82,48,82z"/>
	<path d="M48,79c0.6,0,1-0.4,1-1s-0.4-1-1-1h0c-0.6,0-1,0.4-1,1S47.5,79,48,79z"/>
	<path d="M48,76c0.6,0,1-0.4,1-1s-0.4-1-1-1h0c-0.6,0-1,0.4-1,1S47.5,76,48,76z"/>
	<path d="M51,76c0.6,0,1-0.4,1-1s-0.4-1-1-1h0c-0.6,0-1,0.4-1,1S50.5,76,51,76z"/>
	<path d="M51,79c0.6,0,1-0.4,1-1s-0.4-1-1-1h0c-0.6,0-1,0.4-1,1S50.5,79,51,79z"/>
	<path d="M51,82c0.6,0,1-0.4,1-1s-0.4-1-1-1h0c-0.6,0-1,0.4-1,1S50.5,82,51,82z"/>
	<path d="M51,85c0.6,0,1-0.4,1-1s-0.4-1-1-1h0c-0.6,0-1,0.4-1,1S50.5,85,51,85z"/>
	<path d="M51,88c0.6,0,1-0.4,1-1s-0.4-1-1-1h0c-0.6,0-1,0.4-1,1S50.5,88,51,88z"/>
	<path d="M51,91c0.6,0,1-0.4,1-1s-0.4-1-1-1h0c-0.6,0-1,0.4-1,1S50.5,91,51,91z"/>
	<path d="M51,94c0.6,0,1-0.4,1-1s-0.4-1-1-1h0c-0.6,0-1,0.4-1,1S50.5,94,51,94z"/>
	<path d="M51,97c0.6,0,1-0.4,1-1s-0.4-1-1-1h0c-0.6,0-1,0.4-1,1S50.5,97,51,97z"/>
	<path d="M40,54c0-1.9-2.6-5.8-3.2-6.6L36,46.3l-0.8,1.2C34.6,48.2,32,52.1,32,54c0,2.2,1.8,4,4,4S40,56.2,40,54z M36,56
		c-1.1,0-2-0.9-2-2c0-0.7,0.9-2.5,2-4.2c1.1,1.7,2,3.5,2,4.2C38,55.1,37.1,56,36,56z"/>
	<path d="M56.6,44.6c-0.1,0.1-0.1,0.2-0.1,0.4c0,0.1,0,0.1,0,0.2c0,0.1,0.1,0.1,0.1,0.2c0,0,0.1,0.1,0.2,0.1c0.1,0,0.1,0,0.2,0
		s0.1,0,0.2,0c0.1,0,0.1-0.1,0.2-0.1c0.1-0.1,0.2-0.2,0.2-0.4s-0.1-0.3-0.2-0.4C57.2,44.5,56.8,44.5,56.6,44.6z"/>
	<circle cx="60" cy="45" r="0.5"/>
	<path d="M63.3,44.6c-0.2-0.2-0.5-0.2-0.7,0c-0.1,0-0.1,0.1-0.1,0.2c0,0.1,0,0.1,0,0.2c0,0.1,0,0.3,0.1,0.4c0.1,0.1,0.2,0.1,0.4,0.1
		c0.1,0,0.3,0,0.3-0.1c0.1-0.1,0.2-0.2,0.2-0.4c0-0.1,0-0.1,0-0.2C63.4,44.7,63.4,44.7,63.3,44.6z"/>
	<path d="M57.3,59.6c-0.1-0.1-0.4-0.2-0.5-0.1c-0.1,0-0.1,0.1-0.2,0.1c-0.1,0.1-0.1,0.2-0.1,0.4s0,0.3,0.1,0.4
		c0.1,0.1,0.2,0.1,0.4,0.1c0.1,0,0.1,0,0.2,0c0.1,0,0.1-0.1,0.2-0.1c0.1-0.1,0.2-0.2,0.2-0.4c0-0.1,0-0.1,0-0.2
		C57.4,59.7,57.4,59.7,57.3,59.6z"/>
	<circle cx="60" cy="60" r="0.5"/>
	<path d="M62.6,59.6c-0.1,0.1-0.1,0.2-0.1,0.4c0,0.1,0,0.1,0,0.2c0,0.1,0.1,0.1,0.1,0.2c0,0,0.1,0.1,0.2,0.1c0.1,0,0.1,0,0.2,0
		s0.1,0,0.2,0c0.1,0,0.1-0.1,0.2-0.1c0.1,0,0.1-0.1,0.1-0.2c0-0.1,0-0.1,0-0.2c0-0.1-0.1-0.3-0.2-0.4C63.2,59.5,62.8,59.5,62.6,59.6
		z"/>
	<path d="M69.3,56.6c0,0-0.1-0.1-0.2-0.1c-0.1-0.1-0.3-0.1-0.4,0c-0.1,0-0.1,0.1-0.2,0.1c-0.1,0.1-0.1,0.2-0.1,0.4
		c0,0.1,0,0.1,0,0.2c0,0.1,0.1,0.1,0.1,0.2c0,0,0.1,0.1,0.2,0.1c0.1,0,0.1,0,0.2,0c0.1,0,0.1,0,0.2,0c0.1,0,0.1-0.1,0.2-0.1
		c0.1,0,0.1-0.1,0.1-0.2c0-0.1,0-0.1,0-0.2c0-0.1,0-0.1,0-0.2C69.4,56.7,69.4,56.7,69.3,56.6z"/>
	<circle cx="72" cy="57" r="0.5"/>
	<path d="M74.8,56.5c-0.1,0-0.1,0.1-0.2,0.1c-0.1,0.1-0.1,0.2-0.1,0.4s0,0.3,0.1,0.4c0,0,0.1,0.1,0.2,0.1c0.1,0,0.1,0,0.2,0
		c0.1,0,0.3,0,0.3-0.1c0,0,0.1-0.1,0.1-0.2c0-0.1,0-0.1,0-0.2c0-0.1,0-0.3-0.2-0.4C75.2,56.5,75,56.5,74.8,56.5z"/>
	<path d="M69.2,41.5c-0.1-0.1-0.3-0.1-0.4,0c-0.1,0-0.1,0.1-0.2,0.1c-0.1,0-0.1,0.1-0.1,0.2c0,0.1,0,0.1,0,0.2s0,0.1,0,0.2
		c0,0.1,0.1,0.1,0.1,0.2c0,0,0.1,0.1,0.2,0.1c0.1,0,0.1,0,0.2,0c0.1,0,0.1,0,0.2,0c0.1,0,0.1-0.1,0.2-0.1c0.1-0.1,0.2-0.2,0.2-0.4
		s-0.1-0.3-0.2-0.4C69.3,41.6,69.2,41.6,69.2,41.5z"/>
	<circle cx="72" cy="42" r="0.5"/>
	<path d="M75.3,41.6c-0.1-0.1-0.4-0.2-0.5-0.1c-0.1,0-0.1,0.1-0.2,0.1c0,0-0.1,0.1-0.1,0.2c0,0.1,0,0.1,0,0.2s0,0.1,0,0.2
		c0,0.1,0.1,0.1,0.1,0.2c0,0,0.1,0.1,0.2,0.1c0.1,0,0.1,0,0.2,0c0.1,0,0.3,0,0.3-0.1c0,0,0.1-0.1,0.1-0.2c0-0.1,0-0.1,0-0.2
		s0-0.1,0-0.2C75.4,41.7,75.4,41.7,75.3,41.6z"/>
	<path d="M81.3,44.6c0,0-0.1-0.1-0.2-0.1c-0.2-0.1-0.4,0-0.5,0.1c-0.1,0.1-0.1,0.2-0.1,0.4c0,0.1,0,0.1,0,0.2c0,0.1,0.1,0.1,0.1,0.2
		c0.1,0.1,0.2,0.1,0.4,0.1s0.3,0,0.3-0.1c0.1-0.1,0.2-0.2,0.2-0.4c0-0.1,0-0.1,0-0.2C81.4,44.7,81.4,44.7,81.3,44.6z"/>
	<circle cx="84" cy="45" r="0.5"/>
	<path d="M87.3,44.6c-0.2-0.2-0.5-0.2-0.7,0c0,0-0.1,0.1-0.1,0.2c0,0.1,0,0.1,0,0.2c0,0.1,0,0.3,0.1,0.4c0.1,0.1,0.2,0.1,0.4,0.1
		s0.3,0,0.3-0.1c0,0,0.1-0.1,0.1-0.2c0-0.1,0-0.1,0-0.2s0-0.1,0-0.2C87.4,44.7,87.4,44.7,87.3,44.6z"/>
	<path d="M80.6,59.6c0,0-0.1,0.1-0.1,0.2c0,0.1,0,0.1,0,0.2c0,0.1,0,0.3,0.1,0.4c0.1,0.1,0.2,0.1,0.4,0.1s0.3,0,0.3-0.1
		c0.1-0.1,0.2-0.2,0.2-0.4s0-0.3-0.2-0.4C81.2,59.5,80.8,59.5,80.6,59.6z"/>
	<circle cx="84" cy="60" r="0.5"/>
	<path d="M87.3,59.6c-0.1-0.1-0.4-0.2-0.5-0.1c-0.1,0-0.1,0.1-0.2,0.1c0,0-0.1,0.1-0.1,0.2c0,0.1,0,0.1,0,0.2c0,0.1,0,0.3,0.1,0.4
		c0,0,0.1,0.1,0.2,0.1c0.1,0,0.1,0,0.2,0c0.1,0,0.3,0,0.3-0.1c0.1-0.1,0.2-0.2,0.2-0.4c0-0.1,0-0.1,0-0.2
		C87.4,59.7,87.4,59.7,87.3,59.6z"/>
	<path d="M93.2,62.5c-0.1-0.1-0.3-0.1-0.4,0c-0.1,0-0.1,0.1-0.2,0.1c-0.1,0.1-0.1,0.2-0.1,0.4s0,0.3,0.1,0.4c0,0,0.1,0.1,0.2,0.1
		c0.1,0,0.1,0,0.2,0c0.1,0,0.1,0,0.2,0c0.1,0,0.1-0.1,0.2-0.1c0.1-0.1,0.2-0.2,0.2-0.4s0-0.3-0.2-0.4C93.3,62.6,93.2,62.6,93.2,62.5
		z"/>
	<circle cx="96" cy="63" r="0.5"/>
	<path d="M99.3,62.6c0,0-0.1-0.1-0.2-0.1c-0.2-0.1-0.4,0-0.5,0.1c-0.1,0.1-0.1,0.2-0.1,0.4s0,0.3,0.1,0.4c0.1,0.1,0.2,0.1,0.4,0.1
		c0.1,0,0.1,0,0.2,0c0.1,0,0.1-0.1,0.2-0.1c0,0,0.1-0.1,0.1-0.2c0-0.1,0-0.1,0-0.2s0-0.1,0-0.2C99.4,62.7,99.4,62.7,99.3,62.6z"/>
	<path d="M93.2,47.5c-0.1-0.1-0.3-0.1-0.4,0c-0.1,0-0.1,0.1-0.2,0.1c-0.1,0.1-0.1,0.2-0.1,0.4c0,0.1,0,0.1,0,0.2
		c0,0.1,0.1,0.1,0.1,0.2c0,0,0.1,0.1,0.2,0.1c0.1,0,0.1,0,0.2,0c0.1,0,0.1,0,0.2,0c0.1,0,0.1-0.1,0.2-0.1c0,0,0.1-0.1,0.1-0.2
		c0-0.1,0-0.1,0-0.2c0-0.1,0-0.3-0.2-0.4C93.3,47.6,93.2,47.6,93.2,47.5z"/>
	<circle cx="96" cy="48" r="0.5"/>
	<path d="M99.3,47.6c0,0-0.1-0.1-0.2-0.1c-0.2-0.1-0.4,0-0.5,0.1c0,0-0.1,0.1-0.1,0.2c0,0.1,0,0.1,0,0.2c0,0.1,0,0.1,0,0.2
		c0,0.1,0.1,0.1,0.1,0.2c0.1,0.1,0.2,0.1,0.4,0.1c0.1,0,0.1,0,0.2,0c0.1,0,0.1-0.1,0.2-0.1c0,0,0.1-0.1,0.1-0.2c0-0.1,0-0.1,0-0.2
		c0-0.1,0-0.1,0-0.2C99.4,47.7,99.4,47.7,99.3,47.6z"/>
	<path d="M96,35c-2,0-3.7,0.8-5,2.1V36c0-3.9-3.1-7-7-7c-2,0-3.7,0.8-5,2.1V30c0-3.9-3.1-7-7-7c-3.9,0-7,3.1-7,7v1.1
		c-1.3-1.3-3-2.1-5-2.1c-3.9,0-7,3.1-7,7v31.1c0,0,0,0,0,0c-0.1-0.1-0.2-0.2-0.3-0.2c-0.1-0.1-0.2-0.2-0.2-0.2
		c-0.1-0.1-0.2-0.1-0.3-0.2c-0.1-0.1-0.2-0.1-0.3-0.2c-0.1-0.1-0.2-0.1-0.3-0.2c-0.1-0.1-0.2-0.1-0.3-0.2c-0.1-0.1-0.2-0.1-0.3-0.2
		c-0.1,0-0.2-0.1-0.3-0.1c-0.1-0.1-0.2-0.1-0.4-0.1c-0.1,0-0.2-0.1-0.3-0.1c-0.1,0-0.3-0.1-0.4-0.1c-0.1,0-0.2,0-0.3-0.1
		c-0.1,0-0.3,0-0.4-0.1c0-0.2,0-0.4,0-0.6c0-2.7-3.9-8.4-4.7-9.6l-0.8-1.2l-0.8,1.2c-0.8,1.1-4.7,6.9-4.7,9.6c0,2.1,1.2,4,3,4.9V96
		c0,0.5,0,0.9,0,1.4c0,0.3,0,0.6,0.1,0.8c0,0.1,0,0.3,0,0.4c0,0.4,0.1,0.8,0.1,1.1c0,0,0,0,0,0c0.4,2.6,1.2,5.2,2.4,7.5l0.4,0.8l0,0
		C48.4,115.8,56.6,121,66,121h12c13.8,0,25-11.2,25-25V42C103,38.1,99.9,35,96,35z M43.5,57.3c1.6,2.5,3.5,5.9,3.5,7.2
		c0,2-1.5,3.5-3.5,3.5S40,66.5,40,64.5C40,63.2,41.9,59.8,43.5,57.3z M43.5,70c0.4,0,0.7,0,1.1-0.1C44.7,70,44.9,70,45,70
		c0.4,0,0.7-0.2,0.9-0.6c0.4-0.2,0.8-0.5,1.2-0.8c0,0.1-0.1,0.2-0.1,0.3c0,0.6,0.5,1,1,1s1-0.4,1-1s-0.4-1-1-1h0
		c-0.1,0-0.2,0-0.3,0.1c0.3-0.3,0.5-0.7,0.7-1c2.6,0.2,4.6,2.3,4.6,5v21c0,5.4-3.1,10.3-7.9,12.6c-1.2-2.6-1.9-5.4-2.1-8.4
		c0-0.4,0-0.8,0-1.2V70C43.2,70,43.3,70,43.5,70z M101,96c0,12.7-10.3,23-23,23H66c-8.6,0-16-4.7-20-11.6c5.5-2.7,9-8.2,9-14.4V72
		V36c0-2.8,2.2-5,5-5s5,2.2,5,5v39h2V30c0-2.8,2.2-5,5-5s5,2.2,5,5v42h2V36c0-2.8,2.2-5,5-5s5,2.2,5,5v39h2V42c0-2.8,2.2-5,5-5
		s5,2.2,5,5V96z"/>
</g>
</svg>
