<?xml version="1.0" encoding="utf-8"?>
<!-- Generator: Adobe Illustrator 21.1.0, SVG Export Plug-In . SVG Version: 6.00 Build 0)  -->
<!DOCTYPE svg PUBLIC "-//W3C//DTD SVG 1.1//EN" "http://www.w3.org/Graphics/SVG/1.1/DTD/svg11.dtd">
<svg version="1.1" id="Layer_1" xmlns="http://www.w3.org/2000/svg" xmlns:xlink="http://www.w3.org/1999/xlink" x="0px" y="0px"
	 viewBox="0 0 144 144" style="enable-background:new 0 0 144 144;" xml:space="preserve">
<g>
	<path d="M48,76c2,0,3.7-0.8,5-2.1V75c0,3.9,3.1,7,7,7c2,0,3.7-0.8,5-2.1V81c0,3.9,3.1,7,7,7c2,0,3.7-0.8,5-2.1V105c0,3.9,3.1,7,7,7
		s7-3.1,7-7V76.9c1.3,1.3,3,2.1,5,2.1h7V48c0-13.8-11.2-25-25-25H66c-13.8,0-25,11.2-25,25v21C41,72.9,44.1,76,48,76z M43,48
		c0-12.7,10.3-23,23-23h12c12.7,0,23,10.3,23,23v29h-5c-2.8,0-5-2.2-5-5V51h-2v54c0,2.8-2.2,5-5,5s-5-2.2-5-5V81V69h-2v12
		c0,2.8-2.2,5-5,5s-5-2.2-5-5v-9h-2v3c0,2.8-2.2,5-5,5s-5-2.2-5-5v-6h-2c0,2.8-2.2,5-5,5s-5-2.2-5-5V48z"/>
	<path d="M95.5,104.5v0.5c0,6.3-5.2,11.5-11.5,11.5s-11.5-5.2-11.5-11.5v-0.5h-49v16h97v-16H95.5z"/>
	<path d="M84,108.5c2,0,3.5-1.5,3.5-3.5v-3c0-2-1.5-3.5-3.5-3.5s-3.5,1.5-3.5,3.5v3C80.5,107,82,108.5,84,108.5z M81.5,102
		c0-1.4,1.1-2.5,2.5-2.5s2.5,1.1,2.5,2.5v3c0,1.4-1.1,2.5-2.5,2.5s-2.5-1.1-2.5-2.5V102z"/>
</g>
</svg>
