<?xml version="1.0" encoding="utf-8"?>
<!-- Generator: Adobe Illustrator 22.0.1, SVG Export Plug-In . SVG Version: 6.00 Build 0)  -->
<svg version="1.1" id="Layer_1" xmlns="http://www.w3.org/2000/svg" xmlns:xlink="http://www.w3.org/1999/xlink" x="0px" y="0px"
	 viewBox="0 0 144 144" style="enable-background:new 0 0 144 144;" xml:space="preserve">
<style type="text/css">
	.st0{fill:#2D396B;}
</style>
<g>
	<path class="st0" d="M36.2,78.3c3,0,5.5-1.2,7.4-3.1v1.6c0,5.8,4.6,10.3,10.3,10.3c3,0,5.5-1.2,7.4-3.1v1.6
		c0,5.8,4.6,10.3,10.3,10.3c3,0,5.5-1.2,7.4-3.1v28.2c0,5.8,4.6,10.3,10.3,10.3s10.3-4.6,10.3-10.3V79.6c1.9,1.9,4.4,3.1,7.4,3.1
		h10.3V36.9C117.4,16.5,100.9,0,80.5,0H62.8C42.4,0,25.8,16.5,25.8,36.9v31C25.8,73.7,30.4,78.3,36.2,78.3z M28.8,36.9
		c0-18.8,15.2-34,34-34h17.7c18.8,0,34,15.2,34,34v42.8h-7.4c-4.1,0-7.4-3.2-7.4-7.4v-31h-3v79.8c0,4.1-3.2,7.4-7.4,7.4
		c-4.1,0-7.4-3.2-7.4-7.4V85.7V67.9h-3v17.7c0,4.1-3.2,7.4-7.4,7.4s-7.4-3.2-7.4-7.4V72.4h-3v4.4c0,4.1-3.2,7.4-7.4,7.4
		s-7.4-3.2-7.4-7.4v-8.9h-3c0,4.1-3.2,7.4-7.4,7.4s-7.4-3.2-7.4-7.4V36.9z"/>
	<path class="st0" d="M106.3,120.4v0.7c0,9.3-7.7,17-17,17s-17-7.7-17-17v-0.7H0V144h143.3v-23.6H106.3z"/>
	<path class="st0" d="M89.4,126.3c2.8,0,5.2-2.4,5.2-5.2v-4.4c0-2.8-2.4-5.2-5.2-5.2c-2.8,0-5.2,2.4-5.2,5.2v4.4
		C84.2,123.9,86.5,126.3,89.4,126.3z M85.7,116.7c0-2.1,1.6-3.7,3.7-3.7s3.7,1.6,3.7,3.7v4.4c0,2.1-1.6,3.7-3.7,3.7
		s-3.7-1.6-3.7-3.7V116.7z"/>
</g>
</svg>
