<?xml version="1.0" encoding="utf-8"?>
<!-- Generator: Adobe Illustrator 21.1.0, SVG Export Plug-In . SVG Version: 6.00 Build 0)  -->
<!DOCTYPE svg PUBLIC "-//W3C//DTD SVG 1.1//EN" "http://www.w3.org/Graphics/SVG/1.1/DTD/svg11.dtd">
<svg version="1.1" id="Layer_1" xmlns="http://www.w3.org/2000/svg" xmlns:xlink="http://www.w3.org/1999/xlink" x="0px" y="0px"
	 viewBox="0 0 144 144" style="enable-background:new 0 0 144 144;" xml:space="preserve">
<g>
	<path d="M72,23c-27,0-49,22-49,49c0,27,22,49,49,49s49-22,49-49C121,45,99,23,72,23z M72,119c-25.9,0-47-21.1-47-47
		c0-25.9,21.1-47,47-47s47,21.1,47,47C119,97.9,97.9,119,72,119z"/>
	<path d="M72,71L72,71c-0.6,0-1,0.4-1,1s0.5,1,1,1s1-0.4,1-1S72.6,71,72,71z"/>
	<path d="M72,29.5c-23.4,0-42.5,19.1-42.5,42.5c0,23.4,19.1,42.5,42.5,42.5s42.5-19.1,42.5-42.5C114.5,48.6,95.4,29.5,72,29.5z
		 M73.9,86h-3.9l0.4-7.2c0.5,0.1,1,0.2,1.6,0.2c0.5,0,1.1-0.1,1.6-0.2L73.9,86z M72,77c-2.8,0-5-2.2-5-5c0-2.8,2.2-5,5-5s5,2.2,5,5
		C77,74.8,74.8,77,72,77z M72,65c-0.3,0-0.6,0-0.8,0.1L72,49l0.8,16C72.6,65,72.3,65,72,65z M72,113.5c-22.9,0-41.5-18.6-41.5-41.5
		c0-22.5,18.1-40.9,40.5-41.5l-0.3,5c-0.5,0-1,0-1.4,0.1c-18,1.2-32.5,15.8-33.8,33.9c-0.3,5.9,0.6,11.5,2.7,16.5l0.2,0.5L50,81.7
		c0.3-0.1,0.4-0.4,0.3-0.7c-0.1-0.3-0.4-0.4-0.7-0.3L39,85.1c-1.9-4.8-2.8-10-2.5-15.6c1.2-17.6,15.3-31.7,32.8-32.9
		c0.4,0,0.9,0,1.3-0.1l-1.5,29.1C66.7,66.7,65,69.2,65,72c0,2.6,1.4,4.8,3.5,6l-0.5,10h8.1l-0.5-10c2.1-1.2,3.5-3.5,3.5-6
		c0-2.8-1.7-5.3-4.1-6.4l-1.5-29.1c8.5,0.3,16.5,3.6,22.9,9.5c7.2,6.7,11.3,16.2,11.3,26c0,4.6-0.9,9-2.6,13.2l-10.3-4.3
		c-0.3-0.1-0.5,0-0.7,0.3c-0.1,0.3,0,0.5,0.3,0.7l11.3,4.7l0.2-0.5c1.9-4.5,2.8-9.2,2.8-14.1c0-10.1-4.2-19.8-11.6-26.7
		c-6.5-6.1-14.8-9.5-23.6-9.8l-0.3-5c22.4,0.5,40.5,18.9,40.5,41.5C113.5,94.9,94.9,113.5,72,113.5z"/>
</g>
</svg>
