<?xml version="1.0" encoding="utf-8"?>
<!-- Generator: Adobe Illustrator 22.0.1, SVG Export Plug-In . SVG Version: 6.00 Build 0)  -->
<svg version="1.1" id="Layer_1" xmlns="http://www.w3.org/2000/svg" xmlns:xlink="http://www.w3.org/1999/xlink" x="0px" y="0px"
	 viewBox="0 0 144 144" style="enable-background:new 0 0 144 144;" xml:space="preserve">
<style type="text/css">
	.st0{fill:#2D396B;}
</style>
<g>
	<path class="st0" d="M102.2,16.2l2.1-2.1c-17.9-17.9-47.2-17.9-64.9,0l2.1,2.1C58.1-0.6,85.4-0.6,102.2,16.2z"/>
	<path class="st0" d="M99,49.4h-54C39.4,49.4,35,54,35,59.5V144h3V59.5c0-4,3.3-7.1,7.1-7.1h53.8c4,0,7.1,3.3,7.1,7.1V144h3V59.5
		C109.1,53.9,104.5,49.4,99,49.4z"/>
	<path class="st0" d="M60.2,35.2c3.1-3.1,7.1-4.7,11.6-4.7c4.3,0,8.5,1.6,11.6,4.7l2.1-2.1c-3.7-3.7-8.5-5.6-13.6-5.6
		c-5.2,0-9.9,2.1-13.6,5.6L60.2,35.2z"/>
	<path class="st0" d="M94.7,23.6c-12.8-12.8-33.4-12.8-46.1,0l2.1,2.1c11.6-11.6,30.4-11.6,42,0L94.7,23.6z"/>
	<path class="st0" d="M60.9,67.6c-4.2,0-7.4,3.3-7.4,7.4s3.3,7.4,7.4,7.4c4.2,0,7.4-3.3,7.4-7.4S65.1,67.6,60.9,67.6z M60.9,81
		c-3.3,0-5.9-2.7-5.9-5.9c0-3.3,2.7-5.9,5.9-5.9c3.3,0,5.9,2.7,5.9,5.9C66.9,78.3,64.2,81,60.9,81z"/>
	<path class="st0" d="M83.2,67.6c-4.2,0-7.4,3.3-7.4,7.4s3.3,7.4,7.4,7.4s7.4-3.3,7.4-7.4S87.3,67.6,83.2,67.6z M83.2,81
		c-3.3,0-5.9-2.7-5.9-5.9c0-3.3,2.7-5.9,5.9-5.9s5.9,2.7,5.9,5.9C89.1,78.3,86.4,81,83.2,81z"/>
	<path class="st0" d="M60.9,89.9c-4.2,0-7.4,3.3-7.4,7.4c0,4.2,3.3,7.4,7.4,7.4c4.2,0,7.4-3.3,7.4-7.4
		C68.4,93.1,65.1,89.9,60.9,89.9z M60.9,103.2c-3.3,0-5.9-2.7-5.9-5.9c0-3.3,2.7-5.9,5.9-5.9c3.3,0,5.9,2.7,5.9,5.9
		C66.9,100.6,64.2,103.2,60.9,103.2z"/>
	<path class="st0" d="M83.2,89.9c-4.2,0-7.4,3.3-7.4,7.4c0,4.2,3.3,7.4,7.4,7.4s7.4-3.3,7.4-7.4C90.6,93.1,87.3,89.9,83.2,89.9z
		 M83.2,103.2c-3.3,0-5.9-2.7-5.9-5.9c0-3.3,2.7-5.9,5.9-5.9s5.9,2.7,5.9,5.9C89.1,100.6,86.4,103.2,83.2,103.2z"/>
	<path class="st0" d="M60.9,112.1c-4.2,0-7.4,3.3-7.4,7.4s3.3,7.4,7.4,7.4c4.2,0,7.4-3.3,7.4-7.4S65.1,112.1,60.9,112.1z
		 M60.9,125.5c-3.3,0-5.9-2.7-5.9-5.9c0-3.3,2.7-5.9,5.9-5.9c3.3,0,5.9,2.7,5.9,5.9C66.9,122.8,64.2,125.5,60.9,125.5z"/>
	<path class="st0" d="M83.2,112.1c-4.2,0-7.4,3.3-7.4,7.4s3.3,7.4,7.4,7.4s7.4-3.3,7.4-7.4S87.3,112.1,83.2,112.1z M83.2,125.5
		c-3.3,0-5.9-2.7-5.9-5.9c0-3.3,2.7-5.9,5.9-5.9s5.9,2.7,5.9,5.9C89.1,122.8,86.4,125.5,83.2,125.5z"/>
</g>
</svg>
