<?xml version="1.0" encoding="utf-8"?>
<!-- Generator: Adobe Illustrator 21.1.0, SVG Export Plug-In . SVG Version: 6.00 Build 0)  -->
<!DOCTYPE svg PUBLIC "-//W3C//DTD SVG 1.1//EN" "http://www.w3.org/Graphics/SVG/1.1/DTD/svg11.dtd">
<svg version="1.1" id="Layer_1" xmlns="http://www.w3.org/2000/svg" xmlns:xlink="http://www.w3.org/1999/xlink" x="0px" y="0px"
	 viewBox="0 0 144 144" style="enable-background:new 0 0 144 144;" xml:space="preserve">
<g>
	<path d="M96,68c-2,0-3.7,0.8-5,2.1V69c0-3.9-3.1-7-7-7c-2,0-3.7,0.8-5,2.1V63c0-3.9-3.1-7-7-7c-2,0-3.7,0.8-5,2.1V46.9
		c3.6-2.3,6-6.3,6-10.9c0-7.2-5.8-13-13-13s-13,5.8-13,13c0,4.6,2.4,8.6,6,10.9v20.2c-1.3-1.3-3-2.1-5-2.1h-7v31
		c0,13.8,11.2,25,25,25h12c13.8,0,25-11.2,25-25V75C103,71.1,99.9,68,96,68z M49,36c0-6.1,4.9-11,11-11s11,4.9,11,11
		c0,3.4-1.6,6.4-4,8.5V39c0-3.9-3.1-7-7-7s-7,3.1-7,7v5.5C50.6,42.4,49,39.4,49,36z M101,96c0,12.7-10.3,23-23,23H66
		c-12.7,0-23-10.3-23-23V67h5c2.8,0,5,2.2,5,5v21h2V39c0-2.8,2.2-5,5-5s5,2.2,5,5v36h2V63c0-2.8,2.2-5,5-5s5,2.2,5,5v9h2v-3
		c0-2.8,2.2-5,5-5s5,2.2,5,5v6h2c0-2.8,2.2-5,5-5s5,2.2,5,5V96z"/>
	<path d="M60,35.5c-2,0-3.5,1.5-3.5,3.5v3c0,2,1.5,3.5,3.5,3.5s3.5-1.5,3.5-3.5v-3C63.5,37,62,35.5,60,35.5z M62.5,42
		c0,1.4-1.1,2.5-2.5,2.5s-2.5-1.1-2.5-2.5v-3c0-1.4,1.1-2.5,2.5-2.5s2.5,1.1,2.5,2.5V42z"/>
</g>
</svg>
