<?xml version="1.0" encoding="utf-8"?>
<!-- Generator: Adobe Illustrator 22.0.1, SVG Export Plug-In . SVG Version: 6.00 Build 0)  -->
<svg version="1.1" id="Layer_1" xmlns="http://www.w3.org/2000/svg" xmlns:xlink="http://www.w3.org/1999/xlink" x="0px" y="0px"
	 viewBox="0 0 144 144" style="enable-background:new 0 0 144 144;" xml:space="preserve">
<style type="text/css">
	.st0{fill:#2D396B;}
</style>
<g>
	<path class="st0" d="M105.5,144h-3.9v-10.7c0-2.1-1.8-3.9-3.9-3.9H39.4c-2.1,0-3.9,1.8-3.9,3.9V144h-3.9v-10.7
		c0-4.3,3.5-7.8,7.8-7.8h58.4c4.3,0,7.8,3.5,7.8,7.8V144z"/>
	<path class="st0" d="M80.2,79.8H56.9c-4.3,0-7.8-3.5-7.8-7.8V37c0-4.3,3.5-7.8,7.8-7.8h23.4c4.3,0,7.8,3.5,7.8,7.8v35
		C88,76.3,84.5,79.8,80.2,79.8z M56.9,33.1c-2.1,0-3.9,1.8-3.9,3.9v35c0,2.1,1.8,3.9,3.9,3.9h23.4c2.1,0,3.9-1.8,3.9-3.9V37
		c0-2.1-1.8-3.9-3.9-3.9H56.9z"/>
	<path class="st0" d="M76.4,33.1H60.8V0h15.6V33.1z M64.7,29.2h7.8V3.9h-7.8V29.2z"/>
	<path class="st0" d="M63.7,78.8h-7.8V65.2h7.8V78.8z M57.9,76.9h3.9v-9.7h-3.9V76.9z"/>
	<path class="st0" d="M93.9,129.4H43.3v-11.5l3.1-3.1h-3.1v-8.6l3.1-3.1h-3.1v-8.6l3.1-3.1h-3.1v-7.8c0-4.3,3.5-7.8,7.8-7.8h35
		c4.3,0,7.8,3.5,7.8,7.8v0.8l-3.1,3.1h3.1v8.6l-3.1,3.1h3.1v8.6l-3.1,3.1h3.1V129.4z M47.2,125.5H90v-10.7h-8.6l8.6-8.6v-3.1h-8.6
		l8.6-8.6v-3.1h-8.6l8.6-8.6c-0.4-1.8-1.9-3.1-3.9-3.1h-35c-2.1,0-3.9,1.8-3.9,3.9v3.9h8.6l-8.6,8.6v3.1h8.6l-8.6,8.6v3.1h8.6
		l-8.6,8.6V125.5z M91.9,83.7L91.9,83.7L91.9,83.7z"/>
	<path class="st0" d="M33.5,134.3c-0.6,0-1-0.4-1-1c0-0.6,0.4-1,1-1l64.2-5.8c0.6,0,1,0.4,1,1s-0.4,1-1,1L33.5,134.3L33.5,134.3z"/>
	<path class="st0" d="M62.7,26.3c-0.4,0-0.8-0.2-0.8-0.6c-0.2-0.4,0-1,0.4-1.4L74,18.5c0.4-0.2,1,0,1.4,0.4c0.2,0.4,0,1-0.4,1.4
		l-11.7,5.8C63.1,26.3,62.9,26.3,62.7,26.3z"/>
	<path class="st0" d="M62.7,20.4c-0.4,0-0.8-0.2-0.8-0.6c-0.2-0.4,0-1,0.4-1.4L74,12.6c0.4-0.2,1,0,1.4,0.4c0.2,0.4,0,1-0.4,1.4
		l-11.7,5.8C63.1,20.4,62.9,20.4,62.7,20.4z"/>
	<path class="st0" d="M62.7,14.6c-0.4,0-0.8-0.2-0.8-0.6c-0.2-0.4,0-1,0.4-1.4L74,6.8c0.4-0.2,1,0,1.4,0.4c0.2,0.4,0,1-0.4,1.4
		l-11.7,5.8C63.1,14.6,62.9,14.6,62.7,14.6z"/>
	<path class="st0" d="M62.7,8.8c-0.4,0-0.8-0.2-0.8-0.6c-0.2-0.4,0-1,0.4-1.4L74,1c0.4-0.2,1,0,1.4,0.4c0.2,0.4,0,1-0.4,1.4
		L63.3,8.6C63.1,8.8,62.9,8.8,62.7,8.8z"/>
	<path class="st0" d="M33.5,140.1c-0.6,0-1-0.4-1-1s0.4-1,1-1l70.1-5.8c0.6,0,1,0.4,1,1c0,0.6-0.4,1-1,1L33.5,140.1L33.5,140.1z"/>
	
		<rect x="67.6" y="139.5" transform="matrix(0.9965 -8.300913e-02 8.300913e-02 0.9965 -11.3639 7.6371)" class="st0" width="37.2" height="1.9"/>
	<g>
		<polygon class="st0" points="68.6,42.8 68.6,42.8 68.6,42.8 68.6,42.8 		"/>
		<path class="st0" d="M68.6,44.8c-1.2,0-1.9-1-1.9-1.9s1-1.9,1.9-1.9c1,0,1.9,1,1.9,1.9S69.7,44.8,68.6,44.8z"/>
	</g>
	<g>
		<polygon class="st0" points="80.2,42.8 80.2,42.8 80.2,42.8 80.2,42.8 		"/>
		<path class="st0" d="M80.2,44.8c-1.2,0-1.9-1-1.9-1.9s1-1.9,1.9-1.9c1,0,1.9,1,1.9,1.9S81.2,44.8,80.2,44.8z"/>
	</g>
	<g>
		<polygon class="st0" points="74.4,42.8 74.4,42.8 74.4,42.8 74.4,42.8 		"/>
		<path class="st0" d="M74.4,44.8c-1.2,0-1.9-1-1.9-1.9s1-1.9,1.9-1.9c1,0,1.9,1,1.9,1.9S75.6,44.8,74.4,44.8z"/>
	</g>
	<g>
		<polygon class="st0" points="68.6,37 68.6,37 68.6,37 68.6,37 		"/>
		<circle class="st0" cx="68.6" cy="37" r="1.9"/>
	</g>
	<g>
		<polygon class="st0" points="80.2,37 80.2,37 80.2,37 80.2,37 		"/>
		<circle class="st0" cx="80.2" cy="37" r="1.9"/>
	</g>
	<g>
		<polygon class="st0" points="74.4,37 74.4,37 74.4,37 74.4,37 		"/>
		<circle class="st0" cx="74.4" cy="37" r="1.9"/>
	</g>
	<g>
		<polygon class="st0" points="62.7,37 62.7,37 62.7,37 62.7,37 		"/>
		<circle class="st0" cx="62.7" cy="37" r="1.9"/>
	</g>
	<g>
		<polygon class="st0" points="56.9,37 56.9,37 56.9,37 56.9,37 		"/>
		<circle class="st0" cx="56.9" cy="37" r="1.9"/>
	</g>
	<g>
		<polygon class="st0" points="62.7,42.8 62.7,42.8 62.7,42.8 62.7,42.8 		"/>
		<circle class="st0" cx="62.7" cy="42.8" r="1.9"/>
	</g>
	<g>
		<polygon class="st0" points="56.9,42.8 56.9,42.8 56.9,42.8 56.9,42.8 		"/>
		<circle class="st0" cx="56.9" cy="42.8" r="1.9"/>
	</g>
	<g>
		<polygon class="st0" points="62.7,48.6 62.7,48.6 62.7,48.6 62.7,48.6 		"/>
		<circle class="st0" cx="62.7" cy="48.6" r="1.9"/>
	</g>
	<g>
		<polygon class="st0" points="56.9,48.6 56.9,48.6 56.9,48.6 56.9,48.6 		"/>
		<circle class="st0" cx="56.9" cy="48.6" r="1.9"/>
	</g>
	<g>
		<polygon class="st0" points="62.7,54.5 62.7,54.5 62.7,54.5 62.7,54.5 		"/>
		<circle class="st0" cx="62.7" cy="54.5" r="1.9"/>
	</g>
	<g>
		<polygon class="st0" points="56.9,54.5 56.9,54.5 56.9,54.5 56.9,54.5 		"/>
		<circle class="st0" cx="56.9" cy="54.5" r="1.9"/>
	</g>
	<g>
		<polygon class="st0" points="62.7,60.3 62.7,60.3 62.7,60.3 62.7,60.3 		"/>
		<circle class="st0" cx="62.7" cy="60.3" r="1.9"/>
	</g>
	<g>
		<polygon class="st0" points="56.9,60.3 56.9,60.3 56.9,60.3 56.9,60.3 		"/>
		<circle class="st0" cx="56.9" cy="60.3" r="1.9"/>
	</g>
	<g>
		<polygon class="st0" points="68.6,48.6 68.6,48.6 68.6,48.6 68.6,48.6 		"/>
		<path class="st0" d="M68.6,50.6c-1.2,0-1.9-1-1.9-1.9s1-1.9,1.9-1.9c1,0,1.9,1,1.9,1.9S69.7,50.6,68.6,50.6z"/>
	</g>
	<g>
		<polygon class="st0" points="68.6,54.5 68.6,54.5 68.6,54.5 68.6,54.5 		"/>
		<path class="st0" d="M68.6,56.4c-1.2,0-1.9-1-1.9-1.9c0-1,1-1.9,1.9-1.9c1,0,1.9,1,1.9,1.9C70.5,55.5,69.7,56.4,68.6,56.4z"/>
	</g>
	<g>
		<polygon class="st0" points="68.6,60.3 68.6,60.3 68.6,60.3 68.6,60.3 		"/>
		<path class="st0" d="M68.6,62.3c-1.2,0-1.9-1-1.9-1.9s1-1.9,1.9-1.9c1,0,1.9,1,1.9,1.9S69.7,62.3,68.6,62.3z"/>
	</g>
	<g>
		<polygon class="st0" points="68.6,66.2 68.6,66.2 68.6,66.2 68.6,66.2 		"/>
		<path class="st0" d="M68.6,68.1c-1.2,0-1.9-1-1.9-1.9c0-1,1-1.9,1.9-1.9c1,0,1.9,1,1.9,1.9C70.5,67.1,69.7,68.1,68.6,68.1z"/>
	</g>
	<g>
		<polygon class="st0" points="68.6,72 68.6,72 68.6,72 68.6,72 		"/>
		<path class="st0" d="M68.6,73.9c-1.2,0-1.9-1-1.9-1.9s1-1.9,1.9-1.9c1,0,1.9,1,1.9,1.9S69.7,73.9,68.6,73.9z"/>
	</g>
	<g>
		<polygon class="st0" points="74.4,72 74.4,72 74.4,72 74.4,72 		"/>
		<circle class="st0" cx="74.4" cy="72" r="1.9"/>
	</g>
	<g>
		<polygon class="st0" points="74.4,66.2 74.4,66.2 74.4,66.2 74.4,66.2 		"/>
		<circle class="st0" cx="74.4" cy="66.2" r="1.9"/>
	</g>
	<g>
		<polygon class="st0" points="74.4,60.3 74.4,60.3 74.4,60.3 74.4,60.3 		"/>
		<circle class="st0" cx="74.4" cy="60.3" r="1.9"/>
	</g>
	<g>
		<polygon class="st0" points="74.4,54.5 74.4,54.5 74.4,54.5 74.4,54.5 		"/>
		<circle class="st0" cx="74.4" cy="54.5" r="1.9"/>
	</g>
	<g>
		<polygon class="st0" points="74.4,48.6 74.4,48.6 74.4,48.6 74.4,48.6 		"/>
		<circle class="st0" cx="74.4" cy="48.6" r="1.9"/>
	</g>
	<g>
		<polygon class="st0" points="80.2,48.6 80.2,48.6 80.2,48.6 80.2,48.6 		"/>
		<circle class="st0" cx="80.2" cy="48.6" r="1.9"/>
	</g>
	<g>
		<polygon class="st0" points="80.2,54.5 80.2,54.5 80.2,54.5 80.2,54.5 		"/>
		<path class="st0" d="M80.2,56.4c-1.2,0-1.9-1-1.9-1.9c0-1,1-1.9,1.9-1.9c1,0,1.9,1,1.9,1.9C82.2,55.5,81.2,56.4,80.2,56.4z"/>
	</g>
	<g>
		<polygon class="st0" points="80.2,60.3 80.2,60.3 80.2,60.3 80.2,60.3 		"/>
		<path class="st0" d="M80.2,62.3c-1.2,0-1.9-1-1.9-1.9s1-1.9,1.9-1.9c1,0,1.9,1,1.9,1.9S81.2,62.3,80.2,62.3z"/>
	</g>
	<g>
		<polygon class="st0" points="80.2,66.2 80.2,66.2 80.2,66.2 80.2,66.2 		"/>
		<path class="st0" d="M80.2,68.1c-1.2,0-1.9-1-1.9-1.9c0-1,1-1.9,1.9-1.9c1,0,1.9,1,1.9,1.9C82.2,67.1,81.2,68.1,80.2,68.1z"/>
	</g>
	<g>
		<polygon class="st0" points="80.2,72 80.2,72 80.2,72 80.2,72 		"/>
		<path class="st0" d="M80.2,73.9c-1.2,0-1.9-1-1.9-1.9s1-1.9,1.9-1.9c1,0,1.9,1,1.9,1.9S81.2,73.9,80.2,73.9z"/>
	</g>
	
		<rect x="49.1" y="94.4" transform="matrix(0.9486 -0.3164 0.3164 0.9486 -26.6448 26.5932)" class="st0" width="38.9" height="1.9"/>
	
		<rect x="49.1" y="106" transform="matrix(0.9486 -0.3164 0.3164 0.9486 -30.3389 27.1932)" class="st0" width="38.9" height="1.9"/>
	
		<rect x="49.1" y="82.7" transform="matrix(0.9486 -0.3164 0.3164 0.9486 -22.9506 25.9933)" class="st0" width="38.9" height="1.9"/>
	
		<rect x="67.2" y="114.8" transform="matrix(0.9486 -0.3164 0.3164 0.9486 -32.645 30.4413)" class="st0" width="20.4" height="1.9"/>
</g>
</svg>
