<?xml version="1.0" encoding="utf-8"?>
<!-- Generator: Adobe Illustrator 21.1.0, SVG Export Plug-In . SVG Version: 6.00 Build 0) -->
<!DOCTYPE svg PUBLIC "-//W3C//DTD SVG 1.1//EN" "http://www.w3.org/Graphics/SVG/1.1/DTD/svg11.dtd">
<svg version="1.1" id="Layer_1" xmlns="http://www.w3.org/2000/svg" xmlns:xlink="http://www.w3.org/1999/xlink" x="0px" y="0px" viewBox="0 0 144 144" style="enable-background:new 0 0 144 144;" xml:space="preserve">
	<style type="text/css">
		.st0{fill:none;stroke:#000000;stroke-width:4;stroke-linecap:round;stroke-linejoin:round;stroke-miterlimit:10;}
		
		.st1{fill:none;stroke:#000000;stroke-width:2;stroke-linecap:round;stroke-linejoin:round;stroke-miterlimit:10;stroke-dasharray:0,4;}
		.st2{stroke:#000000;stroke-miterlimit:10;}
		.st3{fill:#FFFFFF;}
		.st4{fill:none;stroke:#424143;stroke-width:2;stroke-miterlimit:10;}
		.st5{fill:none;stroke:#000000;stroke-width:2;stroke-miterlimit:10;}
		.st6{fill:none;stroke:#231F20;stroke-width:2;stroke-miterlimit:10;}
		.st7{fill:none;stroke:#231F20;stroke-miterlimit:10;}
		.st8{fill:#231F20;}
		.st9{fill:#FFFFFF;stroke:#000000;stroke-width:2;stroke-linecap:round;stroke-miterlimit:10;}
		.st10{fill:#FFFFFF;stroke:#404041;stroke-width:2;stroke-linecap:round;stroke-miterlimit:10;}
		.st11{fill:none;stroke:#000000;stroke-width:2;stroke-linecap:square;stroke-miterlimit:10;}
		.st12{fill:none;stroke:#000000;stroke-width:2;stroke-linecap:round;stroke-miterlimit:10;}
		.st13{stroke:#000000;stroke-width:2;stroke-linecap:round;stroke-miterlimit:10;}
		.st14{fill:#FFFFFF;stroke:#000000;stroke-width:2;stroke-miterlimit:10;}
		.st15{fill:none;stroke:#000000;stroke-width:2;stroke-linecap:round;stroke-miterlimit:10;stroke-dasharray:0,3.9906;}
		.st16{fill:none;stroke:#000000;stroke-width:2;stroke-linecap:round;stroke-miterlimit:10;stroke-dasharray:0,3.9889;}
		.st17{fill:none;stroke:#000000;stroke-width:2;stroke-linecap:round;stroke-miterlimit:10;stroke-dasharray:0,3.9411;}
		.st18{fill:none;stroke:#000000;stroke-width:2;stroke-linecap:round;stroke-miterlimit:10;stroke-dasharray:0,3.6822;}
		.st19{fill:none;stroke:#000000;stroke-width:2;stroke-linecap:round;stroke-miterlimit:10;stroke-dasharray:0,4.2;}
		.st20{fill:#FFFFFF;stroke:#000000;stroke-linecap:round;stroke-miterlimit:10;}
		.st21{fill:#FFFFFF;stroke:#000000;stroke-width:2;stroke-linecap:round;stroke-linejoin:round;stroke-miterlimit:10;}
		.st22{fill:none;stroke:#000000;stroke-linecap:round;stroke-miterlimit:10;}
		.st23{fill:none;stroke:#000000;stroke-linecap:round;stroke-miterlimit:10;stroke-dasharray:0,3;}
		.st24{fill:none;stroke:#000000;stroke-linecap:square;stroke-miterlimit:10;}
		.st25{fill:none;}
		.st26{font-family:'RobotoCondensed-Bold';}
		.st27{font-size:24px;}
		.st28{fill:none;stroke:#000000;stroke-width:2;stroke-linecap:round;stroke-linejoin:round;stroke-miterlimit:10;}
		.st29{fill:none;stroke:#000000;stroke-linecap:round;stroke-linejoin:round;stroke-miterlimit:10;}
		.st30{fill:none;stroke:#000000;stroke-width:2;stroke-linecap:round;stroke-miterlimit:10;stroke-dasharray:0,3.9673;}
		.st31{fill:none;stroke:#000000;stroke-miterlimit:10;}
		.st32{fill:none;stroke:#FFFFFF;stroke-width:8;stroke-miterlimit:10;}
		.st33{fill:#FFFFFF;stroke:#000000;stroke-width:2;stroke-linecap:square;stroke-miterlimit:10;}
		.st34{fill:#231F20;stroke:#000000;stroke-width:2;stroke-linecap:round;stroke-linejoin:round;stroke-miterlimit:10;}
		.st35{fill:none;stroke:#000000;stroke-width:2;stroke-linecap:round;stroke-miterlimit:10;stroke-dasharray:0,4.0343;}
		.st36{fill:none;stroke:#000000;stroke-width:2;stroke-linecap:round;stroke-miterlimit:10;stroke-dasharray:0,3.902;}
		.st37{fill:none;stroke:#000000;stroke-width:2;stroke-linecap:round;stroke-miterlimit:10;stroke-dasharray:0,4.1907;}
		.st38{fill:none;stroke:#000000;stroke-width:2;stroke-linecap:round;stroke-miterlimit:10;stroke-dasharray:0,4.0256;}
		.st39{fill:none;stroke:#000000;stroke-width:2;stroke-linecap:round;stroke-miterlimit:10;stroke-dasharray:0,4.5618;}
		.st40{fill:none;stroke:#000000;stroke-width:2;stroke-linecap:round;stroke-miterlimit:10;stroke-dasharray:0,4.2271;}
		.st41{fill:#231F20;stroke:#000000;stroke-width:2;stroke-miterlimit:10;}
		.st42{fill:none;stroke:#000000;stroke-width:2;stroke-linecap:round;stroke-linejoin:round;}
		.st43{fill:none;stroke:#000000;stroke-width:2;stroke-linecap:round;stroke-linejoin:round;stroke-dasharray:0,3.902;}
		.st44{fill:none;stroke:#000000;stroke-width:2;stroke-linecap:round;stroke-linejoin:round;stroke-dasharray:0,4.1027;}
		.st45{fill:none;stroke:#000000;stroke-width:2;stroke-linecap:round;stroke-linejoin:round;stroke-dasharray:0,3.5807;}
		.st46{fill:none;stroke:#000000;stroke-width:2;stroke-linecap:round;stroke-linejoin:round;stroke-dasharray:0,3.9986;}
		.st47{fill:none;stroke:#000000;stroke-width:2;stroke-linecap:round;stroke-linejoin:round;stroke-dasharray:0,4.0137;}
		.st48{fill:#FFFFFF;stroke:#231F20;stroke-width:2;stroke-miterlimit:10;}
		.st49{fill:none;stroke:#231F20;stroke-width:2;stroke-linecap:round;stroke-linejoin:round;}
		.st50{fill:none;stroke:#231F20;stroke-width:2;stroke-linecap:round;stroke-linejoin:round;stroke-dasharray:0,4.0311;}
		.st51{stroke:#000000;stroke-width:2;stroke-linecap:square;stroke-miterlimit:10;}
		.st52{fill:#404041;stroke:#FFFFFF;stroke-width:8;stroke-miterlimit:10;}
		.st53{fill:none;stroke:#000000;stroke-width:3;stroke-linecap:round;stroke-linejoin:round;stroke-miterlimit:10;}
		.st54{fill:#231F20;stroke:#231F20;stroke-width:2;stroke-linecap:round;stroke-miterlimit:10;}
		.st55{fill:#FFFFFF;stroke:#231F20;stroke-width:2;stroke-linecap:round;stroke-miterlimit:10;}
		.st56{stroke:#000000;stroke-width:2;stroke-linecap:round;stroke-miterlimit:1;}
		.st57{stroke:#000000;stroke-width:2;stroke-miterlimit:10;}
		.st58{stroke:#FFFFFF;stroke-width:2;stroke-linecap:round;stroke-miterlimit:1;}
		.st59{fill:#FFFFFF;stroke:#000000;stroke-miterlimit:10;}
		.st60{fill:#FFFFFF;stroke:#000000;stroke-width:0.5;stroke-linecap:round;stroke-miterlimit:10;}
	</style>
	<path class="st11" d="M90,87v-4.5c0-1.7-1.3-3-3-3H57c-1.7,0-3,1.3-3,3V87" />
	<path class="st12" d="M78,30H66c-1.7,0-3,1.3-3,3v18c0,1.7,1.3,3,3,3h12c1.7,0,3-1.3,3-3V33C81,31.3,79.7,30,78,30z" />
	<rect x="69" y="15" class="st12" width="6" height="15" />
	<rect x="66" y="48" class="st22" width="3" height="6" />
	<path class="st12" d="M81,54H63c-1.7,0-3,1.3-3,3v3h3l-3,3v3h3l-3,3v3l3,0l-3,3v4.5h24v-0.4V72h-3l3-3v-3h-3l3-3v-3h-3l3-3l0,0
	C84,55.3,82.7,54,81,54z" />
	<line class="st22" x1="54" y1="82.5" x2="87" y2="79.5" />
	<line class="st22" x1="69" y1="27" x2="75" y2="24" />
	<line class="st22" x1="69" y1="24" x2="75" y2="21" />
	<line class="st22" x1="69" y1="21" x2="75" y2="18" />
	<line class="st22" x1="69" y1="18" x2="75" y2="15" />
	<line class="st22" x1="54" y1="85.5" x2="90" y2="82.5" />
	<line class="st24" x1="72" y1="87" x2="90" y2="85.5" />
	<circle class="st21" cx="72" cy="36" r="0" />
	<circle class="st21" cx="78" cy="36" r="0" />
	<circle class="st21" cx="75" cy="36" r="0" />
	<circle class="st21" cx="72" cy="33" r="0" />
	<circle class="st21" cx="78" cy="33" r="0" />
	<circle class="st21" cx="75" cy="33" r="0" />
	<circle class="st21" cx="69" cy="33" r="0" />
	<circle class="st21" cx="66" cy="33" r="0" />
	<circle class="st21" cx="69" cy="36" r="0" />
	<circle class="st21" cx="66" cy="36" r="0" />
	<circle class="st21" cx="69" cy="39" r="0" />
	<circle class="st21" cx="66" cy="39" r="0" />
	<circle class="st21" cx="69" cy="42" r="0" />
	<circle class="st21" cx="66" cy="42" r="0" />
	<circle class="st21" cx="69" cy="45" r="0" />
	<circle class="st21" cx="66" cy="45" r="0" />
	<circle class="st21" cx="72" cy="39" r="0" />
	<circle class="st21" cx="72" cy="42" r="0" />
	<circle class="st21" cx="72" cy="45" r="0" />
	<circle class="st21" cx="72" cy="48" r="0" />
	<circle class="st21" cx="72" cy="51" r="0" />
	<circle class="st21" cx="75" cy="51" r="0" />
	<circle class="st21" cx="75" cy="48" r="0" />
	<circle class="st21" cx="75" cy="45" r="0" />
	<circle class="st21" cx="75" cy="42" r="0" />
	<circle class="st21" cx="75" cy="39" r="0" />
	<circle class="st21" cx="78" cy="39" r="0" />
	<circle class="st21" cx="78" cy="42" r="0" />
	<circle class="st21" cx="78" cy="45" r="0" />
	<circle class="st21" cx="78" cy="48" r="0" />
	<circle class="st21" cx="78" cy="51" r="0" />
	<line class="st24" x1="63" y1="66" x2="81" y2="60" />
	<line class="st24" x1="63" y1="72" x2="81" y2="66" />
	<line class="st24" x1="63" y1="60" x2="81" y2="54" />
	<line class="st24" x1="72" y1="75" x2="81" y2="72" />
</svg>
