<?xml version="1.0" encoding="utf-8"?>
<!-- Generator: Adobe Illustrator 22.0.1, SVG Export Plug-In . SVG Version: 6.00 Build 0)  -->
<svg version="1.1" id="Layer_1" xmlns="http://www.w3.org/2000/svg" xmlns:xlink="http://www.w3.org/1999/xlink" x="0px" y="0px"
	 viewBox="0 0 144 144" style="enable-background:new 0 0 144 144;" xml:space="preserve">
<style type="text/css">
	.st0{fill:#2D396B;}
</style>
<g>
	<path class="st0" d="M32.2,78.1l2.1,0.5l-0.5-2.1c-0.3-1.8-2.1-11.1-4.6-13.7c-1.4-1.5-3.3-2.3-5.3-2.3s-3.9,0.8-5.2,2.3
		c-2.9,2.9-2.9,7.7,0,10.8C21.3,75.9,30.4,77.8,32.2,78.1z M20.9,64.9c0.9-0.9,1.9-1.4,3.1-1.4s2.4,0.5,3.1,1.4
		c1.2,1.2,2.6,5.9,3.4,9.9c-3.9-0.9-8.6-2.3-9.8-3.5C19.1,69.6,19.1,66.5,20.9,64.9z"/>
	<path class="st0" d="M102,36.2c6.6,0,12-5.5,12-12.2c0-6.2-9.6-20.5-10.8-22.2L102,0l-1.2,1.8C99.6,3.5,90,17.8,90,24
		C90,30.7,95.4,36.2,102,36.2z M102,5.5c3.3,5.2,9,14.7,9,18.5c0,5-4,9.1-9,9.1S93,29,93,24C93,20.1,98.7,10.6,102,5.5z"/>
	<path class="st0" d="M26.1,110.3c4.4,4.4,21.1,7.6,23.1,7.9l2.1,0.5l-0.5-2.1c-0.3-2-3.6-19-7.8-23.4c-2.2-2.3-5.2-3.5-8.5-3.5
		c-3.3,0-6.1,1.2-8.6,3.5C21.4,97.8,21.4,105.4,26.1,110.3z M34.6,92.5c2.4,0,4.6,0.9,6.3,2.7c2.7,2.7,5.4,13.5,6.6,19.6
		c-5.9-1.2-16.7-3.9-19.3-6.7c-3.4-3.5-3.4-9.3,0-12.9C30,93.4,32.2,92.5,34.6,92.5z"/>
	<path class="st0" d="M103.8,94.2c-2,2-3.3,9.1-3.6,10.5l-0.5,2.1l2.1-0.5c1.4-0.3,8.4-1.7,10.4-3.6c1.2-1.2,1.8-2.7,1.8-4.3
		s-0.6-3.2-1.8-4.3C110,91.9,106,91.9,103.8,94.2z M111,98.4c0,0.8-0.3,1.5-0.9,2.1c-0.8,0.8-3.6,1.7-6.6,2.4c0.8-3,1.6-5.9,2.2-6.7
		c0.8-0.6,1.5-0.9,2.2-0.9s1.5,0.3,2.1,0.9C110.7,96.9,111,97.7,111,98.4z"/>
	<rect y="130.3" class="st0" width="144" height="13.7"/>
	<path class="st0" d="M75,99.9c12.5,0,22.5-10.2,22.5-22.8c0-12.2-20.4-42.1-21.3-43.4L75,31.9l-1.2,1.8
		C72.9,35.1,52.5,65,52.5,77.2C52.5,89.8,62.5,99.9,75,99.9z M75,37.4c4.5,6.8,19.5,30.2,19.5,39.8c0,10.9-8.7,19.7-19.5,19.7
		s-19.5-8.8-19.5-19.7C55.5,67.6,70.5,44.1,75,37.4z"/>
</g>
</svg>
