<?xml version="1.0" encoding="utf-8"?>
<!-- Generator: Adobe Illustrator 21.1.0, SVG Export Plug-In . SVG Version: 6.00 Build 0)  -->
<!DOCTYPE svg PUBLIC "-//W3C//DTD SVG 1.1//EN" "http://www.w3.org/Graphics/SVG/1.1/DTD/svg11.dtd">
<svg version="1.1" id="Layer_1" xmlns="http://www.w3.org/2000/svg" xmlns:xlink="http://www.w3.org/1999/xlink" x="0px" y="0px"
	 viewBox="0 0 144 144" style="enable-background:new 0 0 144 144;" xml:space="preserve">
<g>
	<path d="M54,37c2.2,0,4-1.8,4-4c0-1.9-2.6-5.8-3.2-6.6L54,25.3l-0.8,1.2C52.6,27.2,50,31.1,50,33C50,35.2,51.8,37,54,37z M54,28.8
		c1.1,1.7,2,3.5,2,4.2c0,1.1-0.9,2-2,2s-2-0.9-2-2C52,32.3,52.9,30.5,54,28.8z"/>
	<path d="M90.3,74.7C94,72,105.1,72.1,108,75c0-13.2-7.1-24.7-17.7-31c-1.7-4.5-5.9-10.7-6.5-11.6L83,31.2l-0.8,1.2
		c-0.4,0.6-2.5,3.7-4.4,7.1C75.9,39.2,74,39,72,39c-19.6,0-35.6,15.7-36,35.2c2.9-2.8,14-2.9,17.5-0.3c3.6-2.6,14.7-2.5,17.5,0.4
		V102c0,5.5,4.5,10,10,10s10-4.5,10-10v-1h-2v1c0,4.4-3.6,8-8,8s-8-3.6-8-8V74.9C76.2,72.2,86.9,72.2,90.3,74.7z M65,65
		c-1.7,0-3-1.3-3-3c0-1.1,1.6-3.9,3-6.2c1.4,2.3,3,5.1,3,6.2C68,63.7,66.7,65,65,65z M83,34.8c2.2,3.4,6,9.6,6,12.2c0,3.4-2.6,6-6,6
		s-6-2.6-6-6C77,44.4,80.8,38.1,83,34.8z"/>
</g>
</svg>
