<?xml version="1.0" encoding="utf-8"?>
<!-- Generator: Adobe Illustrator 21.1.0, SVG Export Plug-In . SVG Version: 6.00 Build 0) -->
<!DOCTYPE svg PUBLIC "-//W3C//DTD SVG 1.1//EN" "http://www.w3.org/Graphics/SVG/1.1/DTD/svg11.dtd">
<svg version="1.1" id="Layer_1" xmlns="http://www.w3.org/2000/svg" xmlns:xlink="http://www.w3.org/1999/xlink" x="0px" y="0px" viewBox="0 0 144 144" style="enable-background:new 0 0 144 144;" xml:space="preserve">
	<style type="text/css">
		.st0{fill:none;stroke:#000000;stroke-width:4;stroke-linecap:round;stroke-linejoin:round;stroke-miterlimit:10;}
		
		.st1{fill:none;stroke:#000000;stroke-width:2;stroke-linecap:round;stroke-linejoin:round;stroke-miterlimit:10;stroke-dasharray:0,4;}
		.st2{stroke:#000000;stroke-miterlimit:10;}
		.st3{fill:#FFFFFF;}
		.st4{fill:none;stroke:#424143;stroke-width:2;stroke-miterlimit:10;}
		.st5{fill:none;stroke:#000000;stroke-width:2;stroke-miterlimit:10;}
		.st6{fill:none;stroke:#231F20;stroke-width:2;stroke-miterlimit:10;}
		.st7{fill:none;stroke:#231F20;stroke-miterlimit:10;}
		.st8{fill:#231F20;}
		.st9{fill:#FFFFFF;stroke:#000000;stroke-width:2;stroke-linecap:round;stroke-miterlimit:10;}
		.st10{fill:#FFFFFF;stroke:#404041;stroke-width:2;stroke-linecap:round;stroke-miterlimit:10;}
		.st11{fill:none;stroke:#000000;stroke-width:2;stroke-linecap:square;stroke-miterlimit:10;}
		.st12{fill:none;stroke:#000000;stroke-width:2;stroke-linecap:round;stroke-miterlimit:10;}
		.st13{stroke:#000000;stroke-width:2;stroke-linecap:round;stroke-miterlimit:10;}
		.st14{fill:#FFFFFF;stroke:#000000;stroke-width:2;stroke-miterlimit:10;}
		.st15{fill:none;stroke:#000000;stroke-width:2;stroke-linecap:round;stroke-miterlimit:10;stroke-dasharray:0,3.9906;}
		.st16{fill:none;stroke:#000000;stroke-width:2;stroke-linecap:round;stroke-miterlimit:10;stroke-dasharray:0,3.9889;}
		.st17{fill:none;stroke:#000000;stroke-width:2;stroke-linecap:round;stroke-miterlimit:10;stroke-dasharray:0,3.9411;}
		.st18{fill:none;stroke:#000000;stroke-width:2;stroke-linecap:round;stroke-miterlimit:10;stroke-dasharray:0,3.6822;}
		.st19{fill:none;stroke:#000000;stroke-width:2;stroke-linecap:round;stroke-miterlimit:10;stroke-dasharray:0,4.2;}
		.st20{fill:#FFFFFF;stroke:#000000;stroke-linecap:round;stroke-miterlimit:10;}
		.st21{fill:#FFFFFF;stroke:#000000;stroke-width:2;stroke-linecap:round;stroke-linejoin:round;stroke-miterlimit:10;}
		.st22{fill:none;stroke:#000000;stroke-linecap:round;stroke-miterlimit:10;}
		.st23{fill:none;stroke:#000000;stroke-linecap:round;stroke-miterlimit:10;stroke-dasharray:0,3;}
		.st24{fill:none;stroke:#000000;stroke-linecap:square;stroke-miterlimit:10;}
		.st25{fill:none;stroke:#000000;stroke-width:2;stroke-linecap:round;stroke-linejoin:round;stroke-miterlimit:10;}
		.st26{fill:none;stroke:#000000;stroke-linecap:round;stroke-linejoin:round;stroke-miterlimit:10;}
		.st27{fill:none;stroke:#000000;stroke-width:2;stroke-linecap:round;stroke-miterlimit:10;stroke-dasharray:0,3.9673;}
		.st28{fill:none;stroke:#000000;stroke-miterlimit:10;}
		.st29{fill:none;stroke:#FFFFFF;stroke-width:8;stroke-miterlimit:10;}
		.st30{fill:#FFFFFF;stroke:#000000;stroke-width:2;stroke-linecap:square;stroke-miterlimit:10;}
		.st31{fill:#231F20;stroke:#000000;stroke-width:2;stroke-linecap:round;stroke-linejoin:round;stroke-miterlimit:10;}
		.st32{fill:none;stroke:#000000;stroke-width:2;stroke-linecap:round;stroke-miterlimit:10;stroke-dasharray:0,4.0343;}
		.st33{fill:none;stroke:#000000;stroke-width:2;stroke-linecap:round;stroke-miterlimit:10;stroke-dasharray:0,3.902;}
		.st34{fill:none;stroke:#000000;stroke-width:2;stroke-linecap:round;stroke-miterlimit:10;stroke-dasharray:0,4.1907;}
		.st35{fill:none;stroke:#000000;stroke-width:2;stroke-linecap:round;stroke-miterlimit:10;stroke-dasharray:0,4.0256;}
		.st36{fill:none;stroke:#000000;stroke-width:2;stroke-linecap:round;stroke-miterlimit:10;stroke-dasharray:0,4.5618;}
		.st37{fill:none;stroke:#000000;stroke-width:2;stroke-linecap:round;stroke-miterlimit:10;stroke-dasharray:0,4.2271;}
		.st38{fill:#231F20;stroke:#000000;stroke-width:2;stroke-miterlimit:10;}
		.st39{fill:none;stroke:#000000;stroke-width:2;stroke-linecap:round;stroke-linejoin:round;}
		.st40{fill:none;stroke:#000000;stroke-width:2;stroke-linecap:round;stroke-linejoin:round;stroke-dasharray:0,3.902;}
		.st41{fill:none;stroke:#000000;stroke-width:2;stroke-linecap:round;stroke-linejoin:round;stroke-dasharray:0,4.1027;}
		.st42{fill:none;stroke:#000000;stroke-width:2;stroke-linecap:round;stroke-linejoin:round;stroke-dasharray:0,3.5807;}
		.st43{fill:none;stroke:#000000;stroke-width:2;stroke-linecap:round;stroke-linejoin:round;stroke-dasharray:0,3.9986;}
		.st44{fill:none;stroke:#000000;stroke-width:2;stroke-linecap:round;stroke-linejoin:round;stroke-dasharray:0,4.0137;}
		.st45{fill:#FFFFFF;stroke:#231F20;stroke-width:2;stroke-miterlimit:10;}
		.st46{fill:none;stroke:#231F20;stroke-width:2;stroke-linecap:round;stroke-linejoin:round;}
		.st47{fill:none;stroke:#231F20;stroke-width:2;stroke-linecap:round;stroke-linejoin:round;stroke-dasharray:0,4.0311;}
		.st48{stroke:#000000;stroke-width:2;stroke-linecap:square;stroke-miterlimit:10;}
		.st49{fill:#404041;stroke:#FFFFFF;stroke-width:8;stroke-miterlimit:10;}
		.st50{fill:none;stroke:#000000;stroke-width:3;stroke-linecap:round;stroke-linejoin:round;stroke-miterlimit:10;}
		.st51{fill:#231F20;stroke:#231F20;stroke-width:2;stroke-linecap:round;stroke-miterlimit:10;}
		.st52{fill:#FFFFFF;stroke:#231F20;stroke-width:2;stroke-linecap:round;stroke-miterlimit:10;}
		.st53{stroke:#000000;stroke-width:2;stroke-linecap:round;stroke-miterlimit:1;}
		.st54{stroke:#000000;stroke-width:2;stroke-miterlimit:10;}
		.st55{stroke:#FFFFFF;stroke-width:2;stroke-linecap:round;stroke-miterlimit:1;}
		.st56{fill:#FFFFFF;stroke:#000000;stroke-miterlimit:10;}
		.st57{fill:#FFFFFF;stroke:#000000;stroke-width:0.5;stroke-linecap:round;stroke-miterlimit:10;}
	</style>
	<path class="st28" d="M100,99H44c-4.4,0-8-3.6-8-8V62c0-4.4,3.6-8,8-8h56c4.4,0,8,3.6,8,8v29C108,95.4,104.4,99,100,99z" />
	<path class="st28" d="M99.1,48.2C98,47.4,96.7,47,95.3,47H72H48.7c-1.4,0-2.7,0.4-3.8,1.2s-5.9,4.3-7,5.7S36,57,36,59v16v16
	c0,2.2,0.9,4.2,2.3,5.7S41.8,99,44,99h28h28c2.2,0,4.2-0.9,5.7-2.3s2.3-3.4,2.3-5.7V75V59c0-2-0.7-3.7-1.9-5.1S100.2,48.9,99.1,48.2
	z" />
	<path class="st5" d="M108,58.2c0-0.1,0-0.2,0-0.3c0-0.2,0-0.3-0.1-0.5c0-0.1,0-0.2-0.1-0.3c0-0.1-0.1-0.3-0.1-0.4
	c0-0.1-0.1-0.2-0.1-0.3c0-0.1-0.1-0.3-0.1-0.4c0-0.1-0.1-0.2-0.1-0.3c-0.1-0.1-0.1-0.2-0.2-0.4c-0.1-0.1-0.1-0.2-0.2-0.3
	c-0.1-0.1-0.1-0.2-0.2-0.3c-0.1-0.1-0.1-0.2-0.2-0.3c-0.1-0.1-0.1-0.2-0.2-0.3c-0.1-0.1-0.1-0.2-0.2-0.3c0,0,0,0,0,0
	c-0.1-0.1-0.2-0.2-0.3-0.3c-0.3-0.3-0.6-0.6-0.9-0.8c-1.9-1.7-5-4-5.9-4.6C98,47.4,96.7,47,95.3,47H72H48.7c-1.4,0-2.7,0.4-3.8,1.2
	c-0.8,0.6-4,2.9-5.9,4.6c-0.3,0.3-0.6,0.5-0.9,0.8c-0.1,0.1-0.2,0.2-0.3,0.3c0,0,0,0,0,0c-0.1,0.1-0.2,0.2-0.2,0.3
	c-0.1,0.1-0.1,0.2-0.2,0.3c-0.1,0.1-0.1,0.2-0.2,0.3c-0.1,0.1-0.1,0.2-0.2,0.3c-0.1,0.1-0.1,0.2-0.2,0.3c-0.1,0.1-0.1,0.2-0.2,0.4
	c0,0.1-0.1,0.2-0.1,0.3c-0.1,0.1-0.1,0.3-0.1,0.4c0,0.1-0.1,0.2-0.1,0.3c0,0.1-0.1,0.3-0.1,0.4c0,0.1,0,0.2-0.1,0.3
	c0,0.2-0.1,0.3-0.1,0.5c0,0.1,0,0.2,0,0.3c0,0.3,0,0.5,0,0.8v16v16c0,0.3,0,0.5,0,0.8c0.4,3.8,3.4,6.8,7.1,7.1c0.3,0,0.5,0,0.8,0h28
	h28c0.3,0,0.5,0,0.8,0c1.6-0.2,3.1-0.8,4.3-1.8c0.2-0.2,0.4-0.3,0.6-0.5c0.2-0.2,0.4-0.4,0.5-0.6c1-1.2,1.6-2.7,1.8-4.3
	c0-0.3,0-0.5,0-0.8V75V59C108,58.7,108,58.5,108,58.2z" />
	<path class="st5" d="M60,51v-3c0-3.3,2.7-6,6-6h12c3.3,0,6,2.7,6,6v3" />
	<line class="st28" x1="36" y1="69" x2="108" y2="69" />
</svg>
