<?xml version="1.0" encoding="utf-8"?>
<!-- Generator: Adobe Illustrator 23.0.2, SVG Export Plug-In . SVG Version: 6.00 Build 0)  -->
<svg version="1.1" id="Layer_1" xmlns="http://www.w3.org/2000/svg" xmlns:xlink="http://www.w3.org/1999/xlink" x="0px" y="0px"
	 viewBox="0 0 141.73 141.73" style="enable-background:new 0 0 141.73 141.73;" xml:space="preserve">
<style type="text/css">
	.st0{fill:none;stroke:#000000;stroke-width:2;stroke-miterlimit:10;}
</style>
<polygon points="108.3,108.3 33.43,108.3 33.43,70.87 37.43,70.87 37.43,104.3 104.3,104.3 104.3,70.87 108.3,70.87 "/>
<rect x="43.29" y="70.87" width="2" height="35.43"/>
<rect x="52.15" y="70.87" width="2" height="35.43"/>
<rect x="61.01" y="70.87" width="2" height="35.43"/>
<rect x="69.87" y="70.87" width="2" height="35.43"/>
<rect x="78.72" y="70.87" width="2" height="35.43"/>
<rect x="87.58" y="70.87" width="2" height="35.43"/>
<rect x="96.44" y="70.87" width="2" height="35.43"/>
<rect x="26.57" y="68.87" width="88.58" height="4"/>
<polygon points="98.44,70.87 96.44,70.87 96.44,27.57 45.29,27.57 45.29,70.87 43.29,70.87 43.29,25.57 98.44,25.57 "/>
<rect x="69.87" y="26.57" width="2" height="44.29"/>
<rect x="44.29" y="34.43" width="53.15" height="2"/>
</svg>
