<?xml version="1.0" encoding="utf-8"?>
<!-- Generator: Adobe Illustrator 23.0.2, SVG Export Plug-In . SVG Version: 6.00 Build 0) -->
<svg version="1.1" id="Layer_1" xmlns="http://www.w3.org/2000/svg" xmlns:xlink="http://www.w3.org/1999/xlink" x="0px" y="0px" viewBox="0 0 141.73 141.73" style="enable-background:new 0 0 141.73 141.73;" xml:space="preserve">
	<style type="text/css">
		.st0{fill:none;stroke:#000000;stroke-width:2;stroke-miterlimit:10;}
	</style>
	<g>
		<path d="M43.71,51.15L27.57,35.02v-1.77h-2v1.89h1.3l-1,1l0.89,0.89h-1.18v1.89h2v-1.07l13.3,13.3h-14.3v1h-1v2h1v1h6.86v8.86h8.86
		v8.86h8.86v8.86h8.86v8.86h8.86v8.86h8.86v8.86h39.43V51.15H43.71z M113.16,104.3H81.72v-8.86h-8.86v-8.86h-8.86v-8.86h-8.86v-8.86
		h-8.86v-8.86h-8.86v-4.86h7.44l34.14,34.14l1.41-1.41L47.7,55.15h65.45V104.3z" />
		<rect x="25.57" y="26.57" width="2" height="1" />
		<rect x="25.57" y="29.47" width="2" height="1.89" />
		<rect x="25.57" y="44.59" width="2" height="1.89" />
		<rect x="25.57" y="48.37" width="2" height="1.89" />
		<rect x="25.57" y="40.81" width="2" height="1.89" />
		<rect x="114.16" y="33.25" width="2" height="1.89" />
		<rect x="114.16" y="37.03" width="2" height="1.89" />
		<rect x="114.16" y="29.47" width="2" height="1.89" />
		<rect x="114.16" y="40.81" width="2" height="1.89" />
		<rect x="114.16" y="48.37" width="2" height="1.89" />
		<rect x="114.16" y="44.59" width="2" height="1.89" />
		<rect x="114.16" y="26.57" width="2" height="1" />
	</g>
</svg>
