<?xml version="1.0" encoding="utf-8"?>
<!-- Generator: Adobe Illustrator 23.0.2, SVG Export Plug-In . SVG Version: 6.00 Build 0) -->
<svg version="1.1" id="Layer_1" xmlns="http://www.w3.org/2000/svg" xmlns:xlink="http://www.w3.org/1999/xlink" x="0px" y="0px" viewBox="0 0 141.73 141.73" style="enable-background:new 0 0 141.73 141.73;" xml:space="preserve">
	<style type="text/css">
		.st0{fill:none;stroke:#000000;stroke-width:2;stroke-miterlimit:10;}
	</style>
	<path d="M119.59,81.68c-4.42,0-8.44-0.1-12.13-0.28V28.57c0-2.63-1.03-5.11-2.89-6.97c-1.86-1.86-4.34-2.89-6.97-2.89
	c-2.4,0-4.66,0.86-6.45,2.41l-6.59-2.96L83.74,20l15.27,6.86l0.82-1.82l-6.62-2.97c1.29-0.87,2.8-1.34,4.39-1.34
	c2.1,0,4.07,0.82,5.56,2.3c1.48,1.48,2.3,3.46,2.3,5.56v52.71c-19.43-1.15-29.14-4.69-38.58-8.14c-10.87-3.97-21.13-7.71-44.73-7.71
	v2c2.25,0,4.37,0.04,6.38,0.1l11.91,35.72c2.77,8.32,10.52,13.9,19.29,13.9h0.17l-3.21,6.41l1.79,0.89l3.65-7.31h26.91
	c1.26,0,2.49-0.12,3.69-0.34l3.82,7.65l1.79-0.89l-3.62-7.23c6.81-1.98,12.25-7.42,14.04-14.58l4.54-18.15
	c2.01,0.05,4.1,0.07,6.29,0.07V81.68z M104.88,100.79c-1.82,7.28-8.34,12.37-15.85,12.37H59.72c-7.04,0-13.27-4.49-15.5-11.17
	L32.81,67.73c15.99,0.95,24.49,4.05,33.39,7.29c10.19,3.72,20.68,7.55,43.01,8.45L104.88,100.79z" />
</svg>
