<?xml version="1.0" encoding="utf-8"?>
<!-- Generator: Adobe Illustrator 23.0.2, SVG Export Plug-In . SVG Version: 6.00 Build 0) -->
<svg version="1.1" id="Layer_1" xmlns="http://www.w3.org/2000/svg" xmlns:xlink="http://www.w3.org/1999/xlink" x="0px" y="0px" viewBox="0 0 141.73 141.73" style="enable-background:new 0 0 141.73 141.73;" xml:space="preserve">
	<style type="text/css">
		.st0{fill:none;stroke:#000000;stroke-width:2;stroke-miterlimit:10;}
	</style>
	<path d="M124.02,76.72h-5.86V45.43v-3h-3H26.57h-3v3v31.29h-5.86h-3v3v26.57v3h3h16.72v7h2v-7h68.87v7h2v-7h16.72h3v-3V79.72v-3
	H124.02z M27.57,46.43h86.58v32.29h-6.86v-8.86H78.72v8.86H63.01v-8.86H34.43v8.86h-6.86V46.43z M105.3,78.72H80.72v-6.86h24.57
	V78.72z M61.01,78.72H36.43v-6.86h24.57V78.72z M34.43,80.72h28.57h15.72h28.57h8.86h6.86v24.57H18.72V80.72h6.86H34.43z" />
</svg>
