<?xml version="1.0" encoding="utf-8"?>
<!-- Generator: Adobe Illustrator 23.0.2, SVG Export Plug-In . SVG Version: 6.00 Build 0) -->
<svg version="1.1" id="Layer_1" xmlns="http://www.w3.org/2000/svg" xmlns:xlink="http://www.w3.org/1999/xlink" x="0px" y="0px" viewBox="0 0 141.73 141.73" style="enable-background:new 0 0 141.73 141.73;" xml:space="preserve">
	<style type="text/css">
		.st0{fill:none;stroke:#000000;stroke-width:2;stroke-miterlimit:10;}
	</style>
	<g>
		<path d="M108.3,33.43H33.43v83.72h9.86v6.86h2v-6.86h51.15v6.86h2v-6.86h9.86V33.43z M104.3,37.43v14.72H37.43V37.43H104.3z
		 M37.43,113.16V54.15h66.87v59.01H37.43z" />
		<path d="M70.87,61.01c-12.76,0-23.15,10.38-23.15,23.15S58.1,107.3,70.87,107.3s23.15-10.38,23.15-23.15S83.63,61.01,70.87,61.01z
		 M70.87,63.01c9.82,0,18.07,6.73,20.44,15.81c-8.85-4.6-15.04,0.03-21.04,4.53c-6.07,4.55-11.8,8.85-20.35,3.54
		c-0.12-0.9-0.2-1.81-0.2-2.74C49.72,72.49,59.21,63.01,70.87,63.01z M70.87,105.3c-9.82,0-18.07-6.73-20.44-15.81
		c2.58,1.34,4.95,1.91,7.14,1.91c5.31,0,9.65-3.26,13.9-6.44c6.06-4.55,11.8-8.85,20.35-3.54c0.12,0.9,0.2,1.81,0.2,2.74
		C92.01,95.81,82.53,105.3,70.87,105.3z" />
		<rect x="79.72" y="43.29" width="17.72" height="2" />
	</g>
</svg>
