<?xml version="1.0" encoding="utf-8"?>
<!-- Generator: Adobe Illustrator 23.0.2, SVG Export Plug-In . SVG Version: 6.00 Build 0) -->
<svg version="1.1" id="Layer_1" xmlns="http://www.w3.org/2000/svg" xmlns:xlink="http://www.w3.org/1999/xlink" x="0px" y="0px" viewBox="0 0 141.73 141.73" style="enable-background:new 0 0 141.73 141.73;" xml:space="preserve">
	<style type="text/css">
		.st0{fill:none;stroke:#000000;stroke-width:2;stroke-miterlimit:10;}
	</style>
	<g>
		<path d="M108.3,105.3V24.57H42.29v80.72h-6.86v2h52.15h10.86h16.72v-2H108.3z M96.44,105.3h-6.86V89.58h6.86V105.3z M104.3,105.3
		h-5.86V87.58H87.58v17.72H46.29V28.57h58.01V105.3z" />
		<path d="M80.72,34.43H69.87v10.86h10.86V34.43z M78.72,43.29h-6.86v-6.86h6.86V43.29z" />
		<path d="M98.44,34.43H87.58v10.86h10.86V34.43z M96.44,43.29h-6.86v-6.86h6.86V43.29z" />
		<path d="M98.44,52.15H87.58v10.86h10.86V52.15z M96.44,61.01h-6.86v-6.86h6.86V61.01z" />
		<path d="M80.72,52.15H69.87v10.86h10.86V52.15z M78.72,61.01h-6.86v-6.86h6.86V61.01z" />
		<path d="M80.72,69.87H69.87v10.86h10.86V69.87z M78.72,78.72h-6.86v-6.86h6.86V78.72z" />
		<path d="M98.44,69.87H87.58v10.86h10.86V69.87z M96.44,78.72h-6.86v-6.86h6.86V78.72z" />
		<path d="M80.72,87.58H69.87v10.86h10.86V87.58z M78.72,96.44h-6.86v-6.86h6.86V96.44z" />
		<path d="M63.01,34.43H52.15v10.86h10.86V34.43z M61.01,43.29h-6.86v-6.86h6.86V43.29z" />
		<path d="M63.01,52.15H52.15v10.86h10.86V52.15z M61.01,61.01h-6.86v-6.86h6.86V61.01z" />
		<path d="M63.01,69.87H52.15v10.86h10.86V69.87z M61.01,78.72h-6.86v-6.86h6.86V78.72z" />
		<path d="M63.01,87.58H52.15v10.86h10.86V87.58z M61.01,96.44h-6.86v-6.86h6.86V96.44z" />
	</g>
</svg>
