<?xml version="1.0" encoding="utf-8"?>
<!-- Generator: Adobe Illustrator 23.0.2, SVG Export Plug-In . SVG Version: 6.00 Build 0) -->
<svg version="1.1" id="Layer_1" xmlns="http://www.w3.org/2000/svg" xmlns:xlink="http://www.w3.org/1999/xlink" x="0px" y="0px" viewBox="0 0 141.73 141.73" style="enable-background:new 0 0 141.73 141.73;" xml:space="preserve">
	<style type="text/css">
		.st0{fill:none;stroke:#000000;stroke-width:2;stroke-miterlimit:10;}
	</style>
	<path d="M107.73,82.28L96.91,66.05c2-0.83,3.17-1.48,3.23-1.51l0.95-0.53L91.75,50c1.08-0.47,1.72-0.82,1.75-0.84l0.89-0.49
	L79.72,23.02L68.56,42.56c-3.38-4.9-9.02-8.12-15.41-8.12c-10.32,0-18.72,8.4-18.72,18.72c0,0.03,0,0.06,0,0.08
	c-5.33,2.19-8.86,7.4-8.86,13.2c0,5.8,3.53,11.01,8.86,13.2c0,0.03,0,0.06,0,0.08c0,9.64,7.33,17.6,16.72,18.61v16.83h4V98.33
	c6.26-0.67,11.61-4.43,14.47-9.73c2.74,0.52,5.45,0.83,8.1,0.93v16.77h4V89.54c13.82-0.54,24.59-6.46,25.06-6.73L107.73,82.28z
	 M53.15,96.44c-9.22,0-16.72-7.5-16.72-16.72c0-0.14,0.01-0.27,0.02-0.4l0.05-1.06l-0.7-0.25c-4.92-1.72-8.23-6.38-8.23-11.59
	c0-5.2,3.31-9.86,8.23-11.58l0.7-0.25l-0.05-1.06c-0.01-0.13-0.02-0.27-0.02-0.4c0-9.22,7.5-16.72,16.72-16.72
	c9.22,0,16.72,7.5,16.72,16.72c0,0.14-0.01,0.27-0.02,0.4l-0.05,1.05l0.7,0.25c4.92,1.72,8.23,6.38,8.23,11.58
	c0,5.21-3.31,9.86-8.23,11.59l-0.7,0.25l0.05,1.05c0.01,0.13,0.02,0.27,0.02,0.4C69.87,88.94,62.37,96.44,53.15,96.44z M79.72,87.58
	c-2.99,0-6.09-0.3-9.23-0.86c0.88-2.16,1.37-4.52,1.37-7c0-0.03,0-0.06,0-0.08c5.33-2.19,8.86-7.4,8.86-13.2
	c0-5.8-3.53-11.01-8.86-13.2c0-0.03,0-0.06,0-0.08c0-3.11-0.77-6.04-2.12-8.63l9.98-17.47l11.89,20.81
	c-0.44,0.21-1.03,0.47-1.74,0.74l-1.16,0.45l9.49,14.23c-0.71,0.34-1.8,0.84-3.16,1.36l-1.17,0.45l10.98,16.46
	C101.75,83.08,91.61,87.58,79.72,87.58z" />
</svg>
