<?xml version="1.0" encoding="utf-8"?>
<!-- Generator: Adobe Illustrator 23.0.2, SVG Export Plug-In . SVG Version: 6.00 Build 0) -->
<svg version="1.1" id="Layer_1" xmlns="http://www.w3.org/2000/svg" xmlns:xlink="http://www.w3.org/1999/xlink" x="0px" y="0px" viewBox="0 0 141.73 141.73" style="enable-background:new 0 0 141.73 141.73;" xml:space="preserve">
	<style type="text/css">
		.st0{fill:none;stroke:#000000;stroke-width:2;stroke-miterlimit:10;}
	</style>
	<path d="M124.02,76.72h-5.86V62.01v-3h-3H26.57h-3v3v14.72h-5.86h-3v3v26.57v3h3h16.72v5.86h2v-5.86h68.87v5.86h2v-5.86h16.72h3v-3
	V79.72v-3H124.02z M18.72,80.72h6.86h8.86v6.86v2v15.72H18.72V80.72z M27.57,63.01h86.58v15.72h-8.86v8.86H36.43v-8.86h-8.86V63.01z
	 M36.43,89.58h68.87v15.72H36.43V89.58z M107.3,89.58v-2v-6.86h8.86h6.86v24.57H107.3V89.58z" />
</svg>
