<?xml version="1.0" encoding="utf-8"?>
<!-- Generator: Adobe Illustrator 23.0.2, SVG Export Plug-In . SVG Version: 6.00 Build 0) -->
<svg version="1.1" id="Layer_1" xmlns="http://www.w3.org/2000/svg" xmlns:xlink="http://www.w3.org/1999/xlink" x="0px" y="0px" viewBox="0 0 141.73 141.73" style="enable-background:new 0 0 141.73 141.73;" xml:space="preserve">
	<style type="text/css">
		.st0{fill:none;stroke:#000000;stroke-width:2;stroke-miterlimit:10;}
	</style>
	<path d="M119.4,68.52l-0.55-3.96l-3.47,0.48c-1.42-7.22-4.54-14.05-8.33-15.21c0.85-1.16,1.2-2.58,0.98-4.01
	c-0.22-1.43-0.98-2.7-2.15-3.56c-1.17-0.86-2.6-1.21-4.03-1c-2.96,0.45-5,3.22-4.55,6.18c0.22,1.43,0.98,2.7,2.15,3.56
	c0.84,0.62,1.82,0.96,2.83,1.03c-0.68,1.09-1.23,2.51-1.6,4.28c-0.64,3.05-0.75,6.82-0.33,10.81L76.64,70.4
	c-1.21-2.59-3.93-4.19-6.78-3.76c-2.85,0.43-4.97,2.77-5.36,5.6l-23.6,3.89c-0.78-3.93-2.01-7.5-3.53-10.22
	c-0.88-1.57-1.82-2.77-2.79-3.6c0.95-0.37,1.78-0.99,2.39-1.83c0.86-1.17,1.21-2.6,1-4.03c-0.22-1.43-0.98-2.7-2.15-3.56
	c-1.17-0.86-2.6-1.21-4.03-1c-2.96,0.45-5,3.22-4.55,6.18c0.22,1.43,0.97,2.68,2.13,3.54c-1.43,0.99-2.51,3.04-3.13,5.98
	c-0.65,3.1-0.76,6.95-0.32,11.01l-3.46,0.57l0.65,3.95l9.97-1.64l-1.43,8.3l4.82-0.73l4.12-8.8l24.52-4.04
	c0.45,0.94,1.1,1.77,1.93,2.42c0.8,0.63,1.7,1.03,2.65,1.23l-8.3,16.59h-17.1v2h16.1h20.95h16.1v-2h-17.1l-8.28-16.56
	c1.64-0.3,3.07-1.23,4.05-2.64c0.6-0.87,0.97-1.85,1.12-2.88l24.62-3.41l6.54,7.19l4.82-0.73l-3.83-7.5L119.4,68.52z M29.21,57.78
	c-0.14-0.91,0.09-1.81,0.63-2.55c0.54-0.74,1.34-1.22,2.25-1.36c0.17-0.03,0.35-0.04,0.52-0.04c0.73,0,1.43,0.23,2.03,0.67
	c0.74,0.54,1.22,1.34,1.36,2.25c0.14,0.91-0.09,1.81-0.63,2.55c-0.54,0.74-1.34,1.22-2.25,1.36c-0.91,0.14-1.81-0.09-2.55-0.63
	C29.83,59.48,29.34,58.69,29.21,57.78z M35.11,87.23l-1.02,0.15l1.08-6.25l3.02-0.5L35.11,87.23z M27.89,78.28
	c-0.41-3.81-0.31-7.4,0.29-10.27c0.63-2.97,1.76-4.86,3.04-5.05c1.28-0.2,2.92,1.27,4.4,3.92c1.41,2.53,2.55,5.87,3.3,9.57
	L27.89,78.28z M78.11,96.44H63.63l7.24-14.48L78.11,96.44z M72.82,74.97c-0.38,0.55-0.92,0.9-1.54,0.99
	c-0.62,0.09-1.25-0.08-1.77-0.49c-0.56-0.44-0.93-1.09-1.04-1.83c-0.22-1.48,0.67-2.85,1.99-3.05c0.11-0.02,0.22-0.02,0.33-0.02
	c1.2,0,2.28,0.99,2.48,2.34C73.38,73.66,73.22,74.39,72.82,74.97z M100.63,49.4c-0.74-0.54-1.22-1.34-1.36-2.25
	c-0.14-0.91,0.09-1.81,0.63-2.55c0.54-0.74,1.34-1.22,2.25-1.36c0.17-0.03,0.35-0.04,0.52-0.04c0.73,0,1.43,0.23,2.03,0.67
	c0.74,0.54,1.22,1.34,1.36,2.25c0.14,0.91-0.09,1.81-0.63,2.55c-0.54,0.74-1.34,1.22-2.25,1.36
	C102.27,50.16,101.37,49.94,100.63,49.4z M102.63,56.72c0.63-2.97,1.76-4.86,3.04-5.05c2.46-0.39,6.04,5.07,7.73,13.64l-11.07,1.53
	C101.93,63.09,102.03,59.56,102.63,56.72z M110.17,75.84L109.15,76l-4.9-5.38l3.03-0.42L110.17,75.84z" />
</svg>
