<?xml version="1.0" encoding="utf-8"?>
<!-- Generator: Adobe Illustrator 23.0.2, SVG Export Plug-In . SVG Version: 6.00 Build 0)  -->
<svg version="1.1" id="Layer_1" xmlns="http://www.w3.org/2000/svg" xmlns:xlink="http://www.w3.org/1999/xlink" x="0px" y="0px"
	 viewBox="0 0 141.73 141.73" style="enable-background:new 0 0 141.73 141.73;" xml:space="preserve">
<style type="text/css">
	.st0{fill:none;stroke:#000000;stroke-width:2;stroke-miterlimit:10;}
</style>
<path d="M112.73,92.4V36.05c2.01-0.8,3.43-2.76,3.43-5.04c0-2.99-2.44-5.43-5.43-5.43c-2.29,0-4.24,1.42-5.04,3.43H36.05
	c-0.8-2.01-2.76-3.43-5.04-3.43c-2.99,0-5.43,2.44-5.43,5.43c0,2.29,1.42,4.24,3.43,5.04v74.07c-2.01,0.8-3.43,2.76-3.43,5.04
	c0,2.99,2.44,5.43,5.43,5.43c2.25,0,4.19-1.38,5.01-3.34l34.21,4.28c0.78,2.04,2.76,3.49,5.07,3.49c2.99,0,5.43-2.44,5.43-5.43
	c0-2.29-1.42-4.24-3.43-5.04v-12.06c1.39-0.55,2.49-1.66,3.04-3.04h25.35c0.8,2.01,2.76,3.43,5.04,3.43c2.99,0,5.43-2.44,5.43-5.43
	C116.16,95.15,114.73,93.2,112.73,92.4z M110.73,27.57c1.89,0,3.43,1.54,3.43,3.43c0,1.89-1.54,3.43-3.43,3.43
	c-1.89,0-3.43-1.54-3.43-3.43C107.3,29.11,108.84,27.57,110.73,27.57z M27.57,31c0-1.89,1.54-3.43,3.43-3.43s3.43,1.54,3.43,3.43
	c0,1.89-1.54,3.43-3.43,3.43S27.57,32.89,27.57,31z M31,118.59c-1.89,0-3.43-1.54-3.43-3.43c0-1.89,1.54-3.43,3.43-3.43
	s3.43,1.54,3.43,3.43C34.43,117.05,32.9,118.59,31,118.59z M78.72,119.59c0,1.89-1.54,3.43-3.43,3.43s-3.43-1.54-3.43-3.43
	c0-1.89,1.54-3.43,3.43-3.43S78.72,117.7,78.72,119.59z M75.3,100.87c-1.89,0-3.43-1.54-3.43-3.43c0-1.89,1.54-3.43,3.43-3.43
	s3.43,1.54,3.43,3.43C78.72,99.33,77.19,100.87,75.3,100.87z M105.69,95.44H80.34c-0.8-2.01-2.76-3.43-5.04-3.43
	c-2.99,0-5.43,2.44-5.43,5.43c0,2.29,1.42,4.24,3.43,5.04v12.06c-1.36,0.54-2.45,1.61-3.01,2.96l-34.21-4.28
	c-0.54-1.42-1.66-2.55-3.07-3.11V36.05c1.39-0.55,2.49-1.66,3.04-3.04h69.64c0.55,1.39,1.66,2.49,3.04,3.04V92.4
	C107.34,92.95,106.24,94.05,105.69,95.44z M110.73,100.87c-1.89,0-3.43-1.54-3.43-3.43c0-1.89,1.54-3.43,3.43-3.43
	c1.89,0,3.43,1.54,3.43,3.43C114.16,99.33,112.62,100.87,110.73,100.87z"/>
</svg>
