<?xml version="1.0" encoding="utf-8"?>
<!-- Generator: Adobe Illustrator 23.0.2, SVG Export Plug-In . SVG Version: 6.00 Build 0)  -->
<svg version="1.1" id="Layer_1" xmlns="http://www.w3.org/2000/svg" xmlns:xlink="http://www.w3.org/1999/xlink" x="0px" y="0px"
	 viewBox="0 0 141.73 141.73" style="enable-background:new 0 0 141.73 141.73;" xml:space="preserve">
<style type="text/css">
	.st0{fill:none;stroke:#000000;stroke-width:2;stroke-miterlimit:10;}
</style>
<path d="M108.37,51.15v-6.86c0-6.83,2.66-13.25,7.49-18.08l-1.41-1.41c-5.21,5.21-8.08,12.13-8.08,19.5v6.86H80.72v-6.86
	c0-6.83,2.66-13.25,7.49-18.08l-1.41-1.41c-5.21,5.21-8.08,12.13-8.08,19.5v6.86H15.72v66.01h110.3V51.15H108.37z M122.02,113.16
	H19.72V55.15h59.01v24.58h2v-7.86h25.57v-2H80.72v-6.86h25.57v-2H80.72v-5.86h25.65v24.58h2V55.15h13.64V113.16z"/>
</svg>
