<?xml version="1.0" encoding="utf-8"?>
<!-- Generator: Adobe Illustrator 23.1.1, SVG Export Plug-In . SVG Version: 6.00 Build 0) -->
<svg version="1.1" id="Layer_1" xmlns="http://www.w3.org/2000/svg" xmlns:xlink="http://www.w3.org/1999/xlink" x="0px" y="0px" viewBox="0 0 100 100" style="enable-background:new 0 0 100 100;" xml:space="preserve">
	<style type="text/css">
		.st0{fill:#231F20;}
	</style>
	<g>
		<path class="st0" d="M81.8,56.2L72,36.6V32c0-3.9-3.1-7-7-7H35c-3.9,0-7,3.1-7,7v4.5l-9.8,19.6L18,56.6V57v5c0,3.2,2.1,5.8,5,6.7
		V72v2h2h5h2v-2v-3h36v3v2h2h5h2v-2v-3.3c2.9-0.9,5-3.5,5-6.7v-5v-0.5L81.8,56.2z M27.3,42.5h15.2h15h15.2l7,14H20.3L27.3,42.5z
		 M28.7,39.7C28.7,39.7,28.7,39.8,28.7,39.7c0.2,0,0.3-0.1,0.3-0.2c0-0.1-0.1-0.1-0.1-0.2l0.9-1.8h0.7c0,0-0.1,0.1-0.1,0.1
		c0,0.1,0.1,0.2,0.2,0.2c0.1,0,0.2-0.1,0.2-0.2c0,0,0-0.1-0.1-0.1h0.9c0,0-0.1,0.1-0.1,0.1c0,0.1,0.1,0.2,0.2,0.2
		c0.1,0,0.2-0.1,0.2-0.2c0,0,0-0.1-0.1-0.1H33c0,0-0.1,0.1-0.1,0.1c0,0.1,0.1,0.2,0.2,0.2c0.1,0,0.2-0.1,0.2-0.2c0,0,0-0.1-0.1-0.1
		h0.9c0,0-0.1,0.1-0.1,0.1c0,0.1,0.1,0.2,0.2,0.2c0.1,0,0.2-0.1,0.2-0.2c0,0,0-0.1-0.1-0.1h0.9c0,0-0.1,0.1-0.1,0.1
		c0,0.1,0.1,0.2,0.2,0.2c0.1,0,0.2-0.1,0.2-0.2c0,0,0-0.1-0.1-0.1h0.9c0,0-0.1,0.1-0.1,0.1c0,0.1,0.1,0.2,0.2,0.2
		c0.1,0,0.2-0.1,0.2-0.2c0,0,0-0.1-0.1-0.1H38c0,0-0.1,0.1-0.1,0.1c0,0.1,0.1,0.2,0.2,0.2c0.1,0,0.2-0.1,0.2-0.2c0,0,0-0.1-0.1-0.1
		h0.9c0,0-0.1,0.1-0.1,0.1c0,0.1,0.1,0.2,0.2,0.2c0,0,0.1,0,0.1-0.1v0.9c0,0-0.1-0.1-0.1-0.1c-0.1,0-0.2,0.1-0.2,0.2
		s0.1,0.2,0.2,0.2c0,0,0.1,0,0.1-0.1v0.5c0,0.2,0,0.4,0.1,0.5c0-0.1-0.1-0.1-0.2-0.1c-0.1,0-0.2,0.1-0.2,0.2s0.1,0.2,0.2,0.2
		c0.1,0,0.2-0.1,0.2-0.2c0.1,0.2,0.1,0.4,0.2,0.6c0,0,0,0.1,0.1,0.1c0.1,0.2,0.3,0.4,0.4,0.6h-0.7c0,0,0.1-0.1,0.1-0.1
		c0-0.1-0.1-0.2-0.2-0.2c-0.1,0-0.2,0.1-0.2,0.2c0,0,0,0.1,0.1,0.1h-0.9c0,0,0.1-0.1,0.1-0.1c0-0.1-0.1-0.2-0.2-0.2
		c-0.1,0-0.2,0.1-0.2,0.2c0,0,0,0.1,0.1,0.1H37c0,0,0.1-0.1,0.1-0.1c0-0.1-0.1-0.2-0.2-0.2c-0.1,0-0.2,0.1-0.2,0.2
		c0,0,0,0.1,0.1,0.1h-0.9c0,0,0.1-0.1,0.1-0.1c0-0.1-0.1-0.2-0.2-0.2c-0.1,0-0.2,0.1-0.2,0.2c0,0,0,0.1,0.1,0.1h-0.9
		c0,0,0.1-0.1,0.1-0.1c0-0.1-0.1-0.2-0.2-0.2c-0.1,0-0.2,0.1-0.2,0.2c0,0,0,0.1,0.1,0.1h-0.9c0,0,0.1-0.1,0.1-0.1
		c0-0.1-0.1-0.2-0.2-0.2c-0.1,0-0.2,0.1-0.2,0.2c0,0,0,0.1,0.1,0.1H32c0,0,0.1-0.1,0.1-0.1c0-0.1-0.1-0.2-0.2-0.2
		c-0.1,0-0.2,0.1-0.2,0.2c0,0,0,0.1,0.1,0.1h-0.9c0,0,0.1-0.1,0.1-0.1c0-0.1-0.1-0.2-0.2-0.2c-0.1,0-0.2,0.1-0.2,0.2
		c0,0,0,0.1,0.1,0.1h-0.9c0,0,0.1-0.1,0.1-0.1c0-0.1-0.1-0.2-0.2-0.2c-0.1,0-0.2,0.1-0.2,0.2c0,0,0,0.1,0.1,0.1h-0.9
		c0,0,0.1-0.1,0.1-0.1c0-0.1-0.1-0.2-0.2-0.2c-0.1,0-0.2,0.1-0.2,0.2c0,0,0,0.1,0.1,0.1h-0.2L28.7,39.7z M71.2,39.4l0.8,1.5
		c0,0,0,0-0.1,0c-0.1,0-0.2,0.1-0.2,0.2s0.1,0.2,0.2,0.2c0.1,0,0.2-0.1,0.2-0.2l0.2,0.4h-0.9c0,0,0,0-0.1,0c0,0,0,0-0.1,0h-1.1
		c0,0,0,0-0.1,0c0,0,0,0-0.1,0h-1.1c0,0,0,0-0.1,0c0,0,0,0-0.1,0h-1.1c0,0,0,0-0.1,0c0,0,0,0-0.1,0h-1.1c0,0,0,0-0.1,0
		c0,0,0,0-0.1,0h-1.1c0,0,0,0-0.1,0c0,0,0,0-0.1,0h-1.1c0,0,0,0-0.1,0c0,0,0,0-0.1,0h-1.1c0,0,0,0-0.1,0c0,0,0,0-0.1,0h-1.1
		c0,0,0,0-0.1,0c0,0,0,0-0.1,0h-1.1c0,0,0,0-0.1,0c0,0,0,0-0.1,0h-0.2c0.4-0.4,0.7-1,0.7-1.6c0,0.1,0.1,0.1,0.2,0.1
		c0.1,0,0.2-0.1,0.2-0.2s-0.1-0.2-0.2-0.2c-0.1,0-0.1,0-0.1,0.1c0-0.1,0-0.1,0-0.2v-0.8c0,0,0.1,0.1,0.1,0.1c0.1,0,0.2-0.1,0.2-0.2
		s-0.1-0.2-0.2-0.2c0,0-0.1,0-0.1,0.1v-0.9h0.1c0,0,0,0,0.1,0s0,0,0.1,0h1.1c0,0,0,0,0.1,0s0,0,0.1,0h1.1c0,0,0,0,0.1,0s0,0,0.1,0
		h1.1c0,0,0,0,0.1,0s0,0,0.1,0h1.1c0,0,0,0,0.1,0s0,0,0.1,0h1.1c0,0,0,0,0.1,0s0,0,0.1,0h1.1c0,0,0,0,0.1,0s0,0,0.1,0h1.1
		c0,0,0,0,0.1,0s0,0,0.1,0h0.8l0.4,0.9c0,0,0,0-0.1,0c-0.1,0-0.2,0.1-0.2,0.2s0.1,0.2,0.2,0.2c0.1,0,0.2-0.1,0.2-0.2l0.3,0.5
		c0,0,0,0,0,0.1C71,39.3,71.1,39.4,71.2,39.4z M59.5,39.5c0,1.1-0.9,2-2,2h-15c-1.1,0-2-0.9-2-2v-5c0-1.1,0.9-2,2-2h15
		c1.1,0,2,0.9,2,2V39.5z M35,27h30c2.8,0,5,2.2,5,5v4.5h-9.5v-2c0-1.7-1.3-3-3-3h-15c-1.7,0-3,1.3-3,3v2H30V32
		C30,29.3,32.2,27,35,27z M75,68v0.2c-0.1,0-0.1,0.1-0.1,0.2s0,0.1,0.1,0.2v0.9c-0.1,0-0.1,0.1-0.1,0.2s0,0.1,0.1,0.2v0.9
		c-0.1,0-0.1,0.1-0.1,0.2s0,0.1,0.1,0.2V72c0,0,0,0.1-0.1,0.1h-0.9c0-0.1-0.1-0.2-0.2-0.2c-0.1,0-0.2,0.1-0.2,0.2h-0.9
		c0-0.1-0.1-0.2-0.2-0.2c-0.1,0-0.2,0.1-0.2,0.2h-0.9c0-0.1-0.1-0.2-0.2-0.2c-0.1,0-0.2,0.1-0.2,0.2h-0.9c0-0.1-0.1-0.2-0.2-0.2
		c0,0-0.1,0-0.1,0.1V71c0,0,0.1,0.1,0.1,0.1c0.1,0,0.2-0.1,0.2-0.2s-0.1-0.2-0.2-0.2c0,0-0.1,0-0.1,0.1v-0.9c0,0,0.1,0.1,0.1,0.1
		c0.1,0,0.2-0.1,0.2-0.2s-0.1-0.2-0.2-0.2c0,0-0.1,0-0.1,0.1v-0.9c0,0,0.1,0.1,0.1,0.1c0.1,0,0.2-0.1,0.2-0.2s-0.1-0.2-0.2-0.2
		c0,0-0.1,0-0.1,0.1V68H75z M75,67L75,67l-50,0v1h5v0.7c-0.1,0-0.2,0.1-0.2,0.2s0.1,0.2,0.2,0.2V70c-0.1,0-0.2,0.1-0.2,0.2
		s0.1,0.2,0.2,0.2v0.8c-0.1,0-0.2,0.1-0.2,0.2s0.1,0.2,0.2,0.2V72h-0.4c0-0.1-0.1-0.2-0.2-0.2c-0.1,0-0.2,0.1-0.2,0.2h-0.9
		c0-0.1-0.1-0.2-0.2-0.2C28,71.9,28,72,27.9,72h-0.9c0-0.1-0.1-0.2-0.2-0.2c-0.1,0-0.2,0.1-0.2,0.2h-0.9c0-0.1-0.1-0.2-0.2-0.2
		c-0.1,0-0.2,0.1-0.2,0.2H25v-0.4c0.1,0,0.2-0.1,0.2-0.2s-0.1-0.2-0.2-0.2v-0.8c0.1,0,0.2-0.1,0.2-0.2S25.1,70,25,70v-0.8
		c0.1,0,0.2-0.1,0.2-0.2s-0.1-0.2-0.2-0.2V67c-2.8,0-5-2.2-5-5v-5l0,0v0.5h60V62C80,64.8,77.8,67,75,67z" />
		<path class="st0" d="M32.5,38.5c0.1,0,0.2-0.1,0.2-0.2s-0.1-0.2-0.2-0.2c-0.1,0-0.2,0.1-0.2,0.2S32.4,38.5,32.5,38.5z" />
		<path class="st0" d="M31.9,39.1c0.1,0,0.2-0.1,0.2-0.2s-0.1-0.2-0.2-0.2c-0.1,0-0.2,0.1-0.2,0.2S31.8,39.1,31.9,39.1z" />
		<path class="st0" d="M33.1,39.1c0.1,0,0.2-0.1,0.2-0.2s-0.1-0.2-0.2-0.2c-0.1,0-0.2,0.1-0.2,0.2S33,39.1,33.1,39.1z" />
		<path class="st0" d="M32.5,39.8c0.1,0,0.2-0.1,0.2-0.2s-0.1-0.2-0.2-0.2c-0.1,0-0.2,0.1-0.2,0.2S32.4,39.8,32.5,39.8z" />
		<path class="st0" d="M35,38.5c0.1,0,0.2-0.1,0.2-0.2s-0.1-0.2-0.2-0.2c-0.1,0-0.2,0.1-0.2,0.2S34.9,38.5,35,38.5z" />
		<path class="st0" d="M34.4,39.1c0.1,0,0.2-0.1,0.2-0.2s-0.1-0.2-0.2-0.2c-0.1,0-0.2,0.1-0.2,0.2S34.3,39.1,34.4,39.1z" />
		<path class="st0" d="M35.6,39.1c0.1,0,0.2-0.1,0.2-0.2s-0.1-0.2-0.2-0.2c-0.1,0-0.2,0.1-0.2,0.2S35.5,39.1,35.6,39.1z" />
		<path class="st0" d="M35,39.8c0.1,0,0.2-0.1,0.2-0.2s-0.1-0.2-0.2-0.2c-0.1,0-0.2,0.1-0.2,0.2S34.9,39.8,35,39.8z" />
		<path class="st0" d="M33.8,38.5c0.1,0,0.2-0.1,0.2-0.2s-0.1-0.2-0.2-0.2c-0.1,0-0.2,0.1-0.2,0.2S33.6,38.5,33.8,38.5z" />
		<path class="st0" d="M33.8,39.8c0.1,0,0.2-0.1,0.2-0.2s-0.1-0.2-0.2-0.2c-0.1,0-0.2,0.1-0.2,0.2S33.6,39.8,33.8,39.8z" />
		<path class="st0" d="M36.3,38.5c0.1,0,0.2-0.1,0.2-0.2s-0.1-0.2-0.2-0.2c-0.1,0-0.2,0.1-0.2,0.2S36.1,38.5,36.3,38.5z" />
		<path class="st0" d="M36.3,39.8c0.1,0,0.2-0.1,0.2-0.2s-0.1-0.2-0.2-0.2c-0.1,0-0.2,0.1-0.2,0.2S36.1,39.8,36.3,39.8z" />
		<path class="st0" d="M31.9,40.4c0.1,0,0.2-0.1,0.2-0.2S32,40,31.9,40c-0.1,0-0.2,0.1-0.2,0.2S31.8,40.4,31.9,40.4z" />
		<path class="st0" d="M33.1,40.4c0.1,0,0.2-0.1,0.2-0.2S33.2,40,33.1,40c-0.1,0-0.2,0.1-0.2,0.2S33,40.4,33.1,40.4z" />
		<path class="st0" d="M32.5,41c0.1,0,0.2-0.1,0.2-0.2s-0.1-0.2-0.2-0.2c-0.1,0-0.2,0.1-0.2,0.2S32.4,41,32.5,41z" />
		<path class="st0" d="M34.4,40.4c0.1,0,0.2-0.1,0.2-0.2S34.5,40,34.4,40c-0.1,0-0.2,0.1-0.2,0.2S34.3,40.4,34.4,40.4z" />
		<path class="st0" d="M35.6,40.4c0.1,0,0.2-0.1,0.2-0.2S35.7,40,35.6,40c-0.1,0-0.2,0.1-0.2,0.2S35.5,40.4,35.6,40.4z" />
		<path class="st0" d="M35,41c0.1,0,0.2-0.1,0.2-0.2s-0.1-0.2-0.2-0.2c-0.1,0-0.2,0.1-0.2,0.2S34.9,41,35,41z" />
		<path class="st0" d="M33.8,41c0.1,0,0.2-0.1,0.2-0.2s-0.1-0.2-0.2-0.2c-0.1,0-0.2,0.1-0.2,0.2S33.6,41,33.8,41z" />
		<path class="st0" d="M36.3,41c0.1,0,0.2-0.1,0.2-0.2s-0.1-0.2-0.2-0.2c-0.1,0-0.2,0.1-0.2,0.2S36.1,41,36.3,41z" />
		<path class="st0" d="M37.5,38.5c0.1,0,0.2-0.1,0.2-0.2s-0.1-0.2-0.2-0.2c-0.1,0-0.2,0.1-0.2,0.2S37.4,38.5,37.5,38.5z" />
		<path class="st0" d="M36.9,39.1c0.1,0,0.2-0.1,0.2-0.2s-0.1-0.2-0.2-0.2c-0.1,0-0.2,0.1-0.2,0.2S36.8,39.1,36.9,39.1z" />
		<path class="st0" d="M38.1,39.1c0.1,0,0.2-0.1,0.2-0.2s-0.1-0.2-0.2-0.2c-0.1,0-0.2,0.1-0.2,0.2S38,39.1,38.1,39.1z" />
		<path class="st0" d="M37.5,39.8c0.1,0,0.2-0.1,0.2-0.2s-0.1-0.2-0.2-0.2c-0.1,0-0.2,0.1-0.2,0.2S37.4,39.8,37.5,39.8z" />
		<path class="st0" d="M38.8,38.5c0.1,0,0.2-0.1,0.2-0.2s-0.1-0.2-0.2-0.2c-0.1,0-0.2,0.1-0.2,0.2S38.6,38.5,38.8,38.5z" />
		<path class="st0" d="M38.8,39.8c0.1,0,0.2-0.1,0.2-0.2s-0.1-0.2-0.2-0.2c-0.1,0-0.2,0.1-0.2,0.2S38.6,39.8,38.8,39.8z" />
		<path class="st0" d="M36.9,40.4c0.1,0,0.2-0.1,0.2-0.2S37,40,36.9,40c-0.1,0-0.2,0.1-0.2,0.2S36.8,40.4,36.9,40.4z" />
		<path class="st0" d="M38.1,40.4c0.1,0,0.2-0.1,0.2-0.2S38.2,40,38.1,40c-0.1,0-0.2,0.1-0.2,0.2S38,40.4,38.1,40.4z" />
		<path class="st0" d="M37.5,41c0.1,0,0.2-0.1,0.2-0.2s-0.1-0.2-0.2-0.2c-0.1,0-0.2,0.1-0.2,0.2S37.4,41,37.5,41z" />
		<path class="st0" d="M38.8,41c0.1,0,0.2-0.1,0.2-0.2s-0.1-0.2-0.2-0.2c-0.1,0-0.2,0.1-0.2,0.2S38.6,41,38.8,41z" />
		<path class="st0" d="M30,38.5c0.1,0,0.2-0.1,0.2-0.2s-0.1-0.2-0.2-0.2c-0.1,0-0.2,0.1-0.2,0.2S29.9,38.5,30,38.5z" />
		<path class="st0" d="M29.4,39.1c0.1,0,0.2-0.1,0.2-0.2s-0.1-0.2-0.2-0.2c-0.1,0-0.2,0.1-0.2,0.2S29.3,39.1,29.4,39.1z" />
		<path class="st0" d="M30.6,39.1c0.1,0,0.2-0.1,0.2-0.2s-0.1-0.2-0.2-0.2c-0.1,0-0.2,0.1-0.2,0.2S30.5,39.1,30.6,39.1z" />
		<path class="st0" d="M30,39.8c0.1,0,0.2-0.1,0.2-0.2s-0.1-0.2-0.2-0.2c-0.1,0-0.2,0.1-0.2,0.2S29.9,39.8,30,39.8z" />
		<path class="st0" d="M31.3,38.5c0.1,0,0.2-0.1,0.2-0.2s-0.1-0.2-0.2-0.2c-0.1,0-0.2,0.1-0.2,0.2S31.1,38.5,31.3,38.5z" />
		<path class="st0" d="M31.3,39.8c0.1,0,0.2-0.1,0.2-0.2s-0.1-0.2-0.2-0.2c-0.1,0-0.2,0.1-0.2,0.2S31.1,39.8,31.3,39.8z" />
		<path class="st0" d="M29.4,40.4c0.1,0,0.2-0.1,0.2-0.2S29.5,40,29.4,40c-0.1,0-0.2,0.1-0.2,0.2S29.3,40.4,29.4,40.4z" />
		<path class="st0" d="M30.6,40.4c0.1,0,0.2-0.1,0.2-0.2S30.7,40,30.6,40c-0.1,0-0.2,0.1-0.2,0.2S30.5,40.4,30.6,40.4z" />
		<path class="st0" d="M30,41c0.1,0,0.2-0.1,0.2-0.2s-0.1-0.2-0.2-0.2c-0.1,0-0.2,0.1-0.2,0.2S29.9,41,30,41z" />
		<path class="st0" d="M28.8,41c0.1,0,0.2-0.1,0.2-0.2s-0.1-0.2-0.2-0.2c-0.1,0-0.2,0.1-0.2,0.2S28.6,41,28.8,41z" />
		<path class="st0" d="M31.3,41c0.1,0,0.2-0.1,0.2-0.2s-0.1-0.2-0.2-0.2c-0.1,0-0.2,0.1-0.2,0.2S31.1,41,31.3,41z" />
		<path class="st0" d="M67.5,37.8c-0.1,0-0.2,0.1-0.2,0.2s0.1,0.2,0.2,0.2c0.1,0,0.2-0.1,0.2-0.2S67.6,37.8,67.5,37.8z" />
		<path class="st0" d="M68.8,37.8c-0.1,0-0.2,0.1-0.2,0.2s0.1,0.2,0.2,0.2c0.1,0,0.2-0.1,0.2-0.2S68.9,37.8,68.8,37.8z" />
		<path class="st0" d="M68.1,38.4c-0.1,0-0.2,0.1-0.2,0.2s0.1,0.2,0.2,0.2c0.1,0,0.2-0.1,0.2-0.2S68.2,38.4,68.1,38.4z" />
		<path class="st0" d="M67.5,39c-0.1,0-0.2,0.1-0.2,0.2s0.1,0.2,0.2,0.2c0.1,0,0.2-0.1,0.2-0.2S67.6,39,67.5,39z" />
		<path class="st0" d="M68.8,39c-0.1,0-0.2,0.1-0.2,0.2s0.1,0.2,0.2,0.2c0.1,0,0.2-0.1,0.2-0.2S68.9,39,68.8,39z" />
		<path class="st0" d="M68.1,39.6c-0.1,0-0.2,0.1-0.2,0.2s0.1,0.2,0.2,0.2c0.1,0,0.2-0.1,0.2-0.2S68.2,39.6,68.1,39.6z" />
		<path class="st0" d="M70,37.8c-0.1,0-0.2,0.1-0.2,0.2s0.1,0.2,0.2,0.2c0.1,0,0.2-0.1,0.2-0.2S70.1,37.8,70,37.8z" />
		<path class="st0" d="M70,39c-0.1,0-0.2,0.1-0.2,0.2s0.1,0.2,0.2,0.2c0.1,0,0.2-0.1,0.2-0.2S70.1,39,70,39z" />
		<path class="st0" d="M70.6,39.6c-0.1,0-0.2,0.1-0.2,0.2s0.1,0.2,0.2,0.2c0.1,0,0.2-0.1,0.2-0.2S70.7,39.6,70.6,39.6z" />
		<path class="st0" d="M69.4,38.4c-0.1,0-0.2,0.1-0.2,0.2s0.1,0.2,0.2,0.2c0.1,0,0.2-0.1,0.2-0.2S69.5,38.4,69.4,38.4z" />
		<path class="st0" d="M69.4,39.6c-0.1,0-0.2,0.1-0.2,0.2s0.1,0.2,0.2,0.2c0.1,0,0.2-0.1,0.2-0.2S69.5,39.6,69.4,39.6z" />
		<path class="st0" d="M67.5,40.3c-0.1,0-0.2,0.1-0.2,0.2s0.1,0.2,0.2,0.2c0.1,0,0.2-0.1,0.2-0.2S67.6,40.3,67.5,40.3z" />
		<path class="st0" d="M68.8,40.3c-0.1,0-0.2,0.1-0.2,0.2s0.1,0.2,0.2,0.2c0.1,0,0.2-0.1,0.2-0.2S68.9,40.3,68.8,40.3z" />
		<path class="st0" d="M68.1,40.9c-0.1,0-0.2,0.1-0.2,0.2s0.1,0.2,0.2,0.2c0.1,0,0.2-0.1,0.2-0.2S68.2,40.9,68.1,40.9z" />
		<path class="st0" d="M70,40.3c-0.1,0-0.2,0.1-0.2,0.2s0.1,0.2,0.2,0.2c0.1,0,0.2-0.1,0.2-0.2S70.1,40.3,70,40.3z" />
		<path class="st0" d="M71.3,40.7c0.1,0,0.2-0.1,0.2-0.2s-0.1-0.2-0.2-0.2c-0.1,0-0.2,0.1-0.2,0.2S71.1,40.7,71.3,40.7z" />
		<path class="st0" d="M70.6,40.9c-0.1,0-0.2,0.1-0.2,0.2s0.1,0.2,0.2,0.2c0.1,0,0.2-0.1,0.2-0.2S70.7,40.9,70.6,40.9z" />
		<path class="st0" d="M69.4,40.9c-0.1,0-0.2,0.1-0.2,0.2s0.1,0.2,0.2,0.2c0.1,0,0.2-0.1,0.2-0.2S69.5,40.9,69.4,40.9z" />
		<path class="st0" d="M61.3,37.8c-0.1,0-0.2,0.1-0.2,0.2s0.1,0.2,0.2,0.2c0.1,0,0.2-0.1,0.2-0.2S61.4,37.8,61.3,37.8z" />
		<path class="st0" d="M61.3,39c-0.1,0-0.2,0.1-0.2,0.2s0.1,0.2,0.2,0.2c0.1,0,0.2-0.1,0.2-0.2S61.4,39,61.3,39z" />
		<path class="st0" d="M61.9,38.4c-0.1,0-0.2,0.1-0.2,0.2s0.1,0.2,0.2,0.2c0.1,0,0.2-0.1,0.2-0.2S62,38.4,61.9,38.4z" />
		<path class="st0" d="M61.9,39.6c-0.1,0-0.2,0.1-0.2,0.2s0.1,0.2,0.2,0.2c0.1,0,0.2-0.1,0.2-0.2S62,39.6,61.9,39.6z" />
		<path class="st0" d="M61.3,40.3c-0.1,0-0.2,0.1-0.2,0.2s0.1,0.2,0.2,0.2c0.1,0,0.2-0.1,0.2-0.2S61.4,40.3,61.3,40.3z" />
		<path class="st0" d="M60.6,40.9c-0.1,0-0.2,0.1-0.2,0.2s0.1,0.2,0.2,0.2c0.1,0,0.2-0.1,0.2-0.2S60.7,40.9,60.6,40.9z" />
		<path class="st0" d="M61.9,40.9c-0.1,0-0.2,0.1-0.2,0.2s0.1,0.2,0.2,0.2c0.1,0,0.2-0.1,0.2-0.2S62,40.9,61.9,40.9z" />
		<path class="st0" d="M62.5,37.8c-0.1,0-0.2,0.1-0.2,0.2s0.1,0.2,0.2,0.2c0.1,0,0.2-0.1,0.2-0.2S62.6,37.8,62.5,37.8z" />
		<path class="st0" d="M63.8,37.8c-0.1,0-0.2,0.1-0.2,0.2s0.1,0.2,0.2,0.2c0.1,0,0.2-0.1,0.2-0.2S63.9,37.8,63.8,37.8z" />
		<path class="st0" d="M63.1,38.4c-0.1,0-0.2,0.1-0.2,0.2s0.1,0.2,0.2,0.2c0.1,0,0.2-0.1,0.2-0.2S63.2,38.4,63.1,38.4z" />
		<path class="st0" d="M62.5,39c-0.1,0-0.2,0.1-0.2,0.2s0.1,0.2,0.2,0.2c0.1,0,0.2-0.1,0.2-0.2S62.6,39,62.5,39z" />
		<path class="st0" d="M63.8,39c-0.1,0-0.2,0.1-0.2,0.2s0.1,0.2,0.2,0.2c0.1,0,0.2-0.1,0.2-0.2S63.9,39,63.8,39z" />
		<path class="st0" d="M63.1,39.6c-0.1,0-0.2,0.1-0.2,0.2s0.1,0.2,0.2,0.2c0.1,0,0.2-0.1,0.2-0.2S63.2,39.6,63.1,39.6z" />
		<path class="st0" d="M65,37.8c-0.1,0-0.2,0.1-0.2,0.2s0.1,0.2,0.2,0.2c0.1,0,0.2-0.1,0.2-0.2S65.1,37.8,65,37.8z" />
		<path class="st0" d="M66.3,37.8c-0.1,0-0.2,0.1-0.2,0.2s0.1,0.2,0.2,0.2c0.1,0,0.2-0.1,0.2-0.2S66.4,37.8,66.3,37.8z" />
		<path class="st0" d="M65.6,38.4c-0.1,0-0.2,0.1-0.2,0.2s0.1,0.2,0.2,0.2c0.1,0,0.2-0.1,0.2-0.2S65.7,38.4,65.6,38.4z" />
		<path class="st0" d="M65,39c-0.1,0-0.2,0.1-0.2,0.2s0.1,0.2,0.2,0.2c0.1,0,0.2-0.1,0.2-0.2S65.1,39,65,39z" />
		<path class="st0" d="M66.3,39c-0.1,0-0.2,0.1-0.2,0.2s0.1,0.2,0.2,0.2c0.1,0,0.2-0.1,0.2-0.2S66.4,39,66.3,39z" />
		<path class="st0" d="M65.6,39.6c-0.1,0-0.2,0.1-0.2,0.2s0.1,0.2,0.2,0.2c0.1,0,0.2-0.1,0.2-0.2S65.7,39.6,65.6,39.6z" />
		<path class="st0" d="M64.4,38.4c-0.1,0-0.2,0.1-0.2,0.2s0.1,0.2,0.2,0.2c0.1,0,0.2-0.1,0.2-0.2S64.5,38.4,64.4,38.4z" />
		<path class="st0" d="M64.4,39.6c-0.1,0-0.2,0.1-0.2,0.2s0.1,0.2,0.2,0.2c0.1,0,0.2-0.1,0.2-0.2S64.5,39.6,64.4,39.6z" />
		<path class="st0" d="M66.9,38.4c-0.1,0-0.2,0.1-0.2,0.2s0.1,0.2,0.2,0.2c0.1,0,0.2-0.1,0.2-0.2S67,38.4,66.9,38.4z" />
		<path class="st0" d="M66.9,39.6c-0.1,0-0.2,0.1-0.2,0.2s0.1,0.2,0.2,0.2c0.1,0,0.2-0.1,0.2-0.2S67,39.6,66.9,39.6z" />
		<path class="st0" d="M62.5,40.3c-0.1,0-0.2,0.1-0.2,0.2s0.1,0.2,0.2,0.2c0.1,0,0.2-0.1,0.2-0.2S62.6,40.3,62.5,40.3z" />
		<path class="st0" d="M63.8,40.3c-0.1,0-0.2,0.1-0.2,0.2s0.1,0.2,0.2,0.2c0.1,0,0.2-0.1,0.2-0.2S63.9,40.3,63.8,40.3z" />
		<path class="st0" d="M63.1,40.9c-0.1,0-0.2,0.1-0.2,0.2s0.1,0.2,0.2,0.2c0.1,0,0.2-0.1,0.2-0.2S63.2,40.9,63.1,40.9z" />
		<path class="st0" d="M65,40.3c-0.1,0-0.2,0.1-0.2,0.2s0.1,0.2,0.2,0.2c0.1,0,0.2-0.1,0.2-0.2S65.1,40.3,65,40.3z" />
		<path class="st0" d="M66.3,40.3c-0.1,0-0.2,0.1-0.2,0.2s0.1,0.2,0.2,0.2c0.1,0,0.2-0.1,0.2-0.2S66.4,40.3,66.3,40.3z" />
		<path class="st0" d="M65.6,40.9c-0.1,0-0.2,0.1-0.2,0.2s0.1,0.2,0.2,0.2c0.1,0,0.2-0.1,0.2-0.2S65.7,40.9,65.6,40.9z" />
		<path class="st0" d="M64.4,40.9c-0.1,0-0.2,0.1-0.2,0.2s0.1,0.2,0.2,0.2c0.1,0,0.2-0.1,0.2-0.2S64.5,40.9,64.4,40.9z" />
		<path class="st0" d="M66.9,40.9c-0.1,0-0.2,0.1-0.2,0.2s0.1,0.2,0.2,0.2c0.1,0,0.2-0.1,0.2-0.2S67,40.9,66.9,40.9z" />
		<path class="st0" d="M25.6,68.6c0.1,0,0.2-0.1,0.2-0.2s-0.1-0.2-0.2-0.2c-0.1,0-0.2,0.1-0.2,0.2S25.5,68.6,25.6,68.6z" />
		<path class="st0" d="M25.6,69.8c0.1,0,0.2-0.1,0.2-0.2s-0.1-0.2-0.2-0.2c-0.1,0-0.2,0.1-0.2,0.2S25.5,69.8,25.6,69.8z" />
		<path class="st0" d="M26.9,68.6c0.1,0,0.2-0.1,0.2-0.2s-0.1-0.2-0.2-0.2c-0.1,0-0.2,0.1-0.2,0.2S26.8,68.6,26.9,68.6z" />
		<path class="st0" d="M28.1,68.6c0.1,0,0.2-0.1,0.2-0.2s-0.1-0.2-0.2-0.2c-0.1,0-0.2,0.1-0.2,0.2S28,68.6,28.1,68.6z" />
		<path class="st0" d="M27.5,69.2c0.1,0,0.2-0.1,0.2-0.2s-0.1-0.2-0.2-0.2c-0.1,0-0.2,0.1-0.2,0.2S27.4,69.2,27.5,69.2z" />
		<path class="st0" d="M26.9,69.8c0.1,0,0.2-0.1,0.2-0.2s-0.1-0.2-0.2-0.2c-0.1,0-0.2,0.1-0.2,0.2S26.8,69.8,26.9,69.8z" />
		<path class="st0" d="M28.1,69.8c0.1,0,0.2-0.1,0.2-0.2s-0.1-0.2-0.2-0.2c-0.1,0-0.2,0.1-0.2,0.2S28,69.8,28.1,69.8z" />
		<path class="st0" d="M27.5,70.4c0.1,0,0.2-0.1,0.2-0.2S27.6,70,27.5,70c-0.1,0-0.2,0.1-0.2,0.2S27.4,70.4,27.5,70.4z" />
		<path class="st0" d="M26.3,69.2c0.1,0,0.2-0.1,0.2-0.2s-0.1-0.2-0.2-0.2c-0.1,0-0.2,0.1-0.2,0.2S26.1,69.2,26.3,69.2z" />
		<path class="st0" d="M26.3,70.4c0.1,0,0.2-0.1,0.2-0.2S26.4,70,26.3,70c-0.1,0-0.2,0.1-0.2,0.2S26.1,70.4,26.3,70.4z" />
		<path class="st0" d="M28.8,69.2c0.1,0,0.2-0.1,0.2-0.2s-0.1-0.2-0.2-0.2c-0.1,0-0.2,0.1-0.2,0.2S28.6,69.2,28.8,69.2z" />
		<path class="st0" d="M28.8,70.4c0.1,0,0.2-0.1,0.2-0.2S28.9,70,28.8,70c-0.1,0-0.2,0.1-0.2,0.2S28.6,70.4,28.8,70.4z" />
		<path class="st0" d="M25.6,71.1c0.1,0,0.2-0.1,0.2-0.2s-0.1-0.2-0.2-0.2c-0.1,0-0.2,0.1-0.2,0.2S25.5,71.1,25.6,71.1z" />
		<path class="st0" d="M26.9,71.1c0.1,0,0.2-0.1,0.2-0.2s-0.1-0.2-0.2-0.2c-0.1,0-0.2,0.1-0.2,0.2S26.8,71.1,26.9,71.1z" />
		<path class="st0" d="M28.1,71.1c0.1,0,0.2-0.1,0.2-0.2s-0.1-0.2-0.2-0.2c-0.1,0-0.2,0.1-0.2,0.2S28,71.1,28.1,71.1z" />
		<path class="st0" d="M27.5,71.7c0.1,0,0.2-0.1,0.2-0.2s-0.1-0.2-0.2-0.2c-0.1,0-0.2,0.1-0.2,0.2S27.4,71.7,27.5,71.7z" />
		<path class="st0" d="M26.3,71.7c0.1,0,0.2-0.1,0.2-0.2s-0.1-0.2-0.2-0.2c-0.1,0-0.2,0.1-0.2,0.2S26.1,71.7,26.3,71.7z" />
		<path class="st0" d="M28.8,71.7c0.1,0,0.2-0.1,0.2-0.2s-0.1-0.2-0.2-0.2c-0.1,0-0.2,0.1-0.2,0.2S28.6,71.7,28.8,71.7z" />
		<path class="st0" d="M29.4,68.6c0.1,0,0.2-0.1,0.2-0.2s-0.1-0.2-0.2-0.2c-0.1,0-0.2,0.1-0.2,0.2S29.3,68.6,29.4,68.6z" />
		<path class="st0" d="M29.4,69.8c0.1,0,0.2-0.1,0.2-0.2s-0.1-0.2-0.2-0.2c-0.1,0-0.2,0.1-0.2,0.2S29.3,69.8,29.4,69.8z" />
		<path class="st0" d="M29.4,71.1c0.1,0,0.2-0.1,0.2-0.2s-0.1-0.2-0.2-0.2c-0.1,0-0.2,0.1-0.2,0.2S29.3,71.1,29.4,71.1z" />
		<path class="st0" d="M70.8,69.2c0.1,0,0.2-0.1,0.2-0.2s-0.1-0.2-0.2-0.2c-0.1,0-0.2,0.1-0.2,0.2S70.6,69.2,70.8,69.2z" />
		<path class="st0" d="M70.8,70.4c0.1,0,0.2-0.1,0.2-0.2S70.9,70,70.8,70c-0.1,0-0.2,0.1-0.2,0.2S70.6,70.4,70.8,70.4z" />
		<path class="st0" d="M70.8,71.7c0.1,0,0.2-0.1,0.2-0.2s-0.1-0.2-0.2-0.2c-0.1,0-0.2,0.1-0.2,0.2S70.6,71.7,70.8,71.7z" />
		<path class="st0" d="M71.4,68.6c0.1,0,0.2-0.1,0.2-0.2s-0.1-0.2-0.2-0.2c-0.1,0-0.2,0.1-0.2,0.2S71.3,68.6,71.4,68.6z" />
		<path class="st0" d="M72.6,68.6c0.1,0,0.2-0.1,0.2-0.2s-0.1-0.2-0.2-0.2c-0.1,0-0.2,0.1-0.2,0.2S72.5,68.6,72.6,68.6z" />
		<path class="st0" d="M72,69.2c0.1,0,0.2-0.1,0.2-0.2s-0.1-0.2-0.2-0.2c-0.1,0-0.2,0.1-0.2,0.2S71.9,69.2,72,69.2z" />
		<path class="st0" d="M71.4,69.8c0.1,0,0.2-0.1,0.2-0.2s-0.1-0.2-0.2-0.2c-0.1,0-0.2,0.1-0.2,0.2S71.3,69.8,71.4,69.8z" />
		<path class="st0" d="M72.6,69.8c0.1,0,0.2-0.1,0.2-0.2s-0.1-0.2-0.2-0.2c-0.1,0-0.2,0.1-0.2,0.2S72.5,69.8,72.6,69.8z" />
		<path class="st0" d="M72,70.4c0.1,0,0.2-0.1,0.2-0.2S72.1,70,72,70c-0.1,0-0.2,0.1-0.2,0.2S71.9,70.4,72,70.4z" />
		<path class="st0" d="M73.9,68.6c0.1,0,0.2-0.1,0.2-0.2s-0.1-0.2-0.2-0.2c-0.1,0-0.2,0.1-0.2,0.2S73.8,68.6,73.9,68.6z" />
		<path class="st0" d="M74.5,69.2c0.1,0,0.2-0.1,0.2-0.2s-0.1-0.2-0.2-0.2c-0.1,0-0.2,0.1-0.2,0.2S74.4,69.2,74.5,69.2z" />
		<path class="st0" d="M73.9,69.8c0.1,0,0.2-0.1,0.2-0.2s-0.1-0.2-0.2-0.2c-0.1,0-0.2,0.1-0.2,0.2S73.8,69.8,73.9,69.8z" />
		<path class="st0" d="M74.5,70.4c0.1,0,0.2-0.1,0.2-0.2S74.6,70,74.5,70c-0.1,0-0.2,0.1-0.2,0.2S74.4,70.4,74.5,70.4z" />
		<path class="st0" d="M73.3,69.2c0.1,0,0.2-0.1,0.2-0.2s-0.1-0.2-0.2-0.2c-0.1,0-0.2,0.1-0.2,0.2S73.1,69.2,73.3,69.2z" />
		<path class="st0" d="M73.3,70.4c0.1,0,0.2-0.1,0.2-0.2S73.4,70,73.3,70c-0.1,0-0.2,0.1-0.2,0.2S73.1,70.4,73.3,70.4z" />
		<path class="st0" d="M71.4,71.1c0.1,0,0.2-0.1,0.2-0.2s-0.1-0.2-0.2-0.2c-0.1,0-0.2,0.1-0.2,0.2S71.3,71.1,71.4,71.1z" />
		<path class="st0" d="M72.6,71.1c0.1,0,0.2-0.1,0.2-0.2s-0.1-0.2-0.2-0.2c-0.1,0-0.2,0.1-0.2,0.2S72.5,71.1,72.6,71.1z" />
		<path class="st0" d="M72,71.7c0.1,0,0.2-0.1,0.2-0.2s-0.1-0.2-0.2-0.2c-0.1,0-0.2,0.1-0.2,0.2S71.9,71.7,72,71.7z" />
		<path class="st0" d="M73.9,71.1c0.1,0,0.2-0.1,0.2-0.2s-0.1-0.2-0.2-0.2c-0.1,0-0.2,0.1-0.2,0.2S73.8,71.1,73.9,71.1z" />
		<path class="st0" d="M74.5,71.7c0.1,0,0.2-0.1,0.2-0.2s-0.1-0.2-0.2-0.2c-0.1,0-0.2,0.1-0.2,0.2S74.4,71.7,74.5,71.7z" />
		<path class="st0" d="M73.3,71.7c0.1,0,0.2-0.1,0.2-0.2s-0.1-0.2-0.2-0.2c-0.1,0-0.2,0.1-0.2,0.2S73.1,71.7,73.3,71.7z" />
	</g>
</svg>
