<?xml version="1.0" encoding="utf-8"?>
<!-- Generator: Adobe Illustrator 23.1.1, SVG Export Plug-In . SVG Version: 6.00 Build 0) -->
<svg version="1.1" id="Layer_1" xmlns="http://www.w3.org/2000/svg" xmlns:xlink="http://www.w3.org/1999/xlink" x="0px" y="0px" viewBox="0 0 100 100" style="enable-background:new 0 0 100 100;" xml:space="preserve">
	<style type="text/css">
		.st0{fill:#231F20;}
	</style>
	<g>
		<path class="st0" d="M59.3,57.4c-1.3-1.2-2.6-2.5-3.9-3.9c0.9-1.1,1.7-2.1,2.5-3c1.4-1.6,3.3-3.8,5.6-6.2
		c11.9-13,16.8-18.9,16.6-22.1c0-0.8-0.4-1.5-0.9-1.9c-0.9-0.7-2-1.1-3.3-1.1c-4.2,0-10.5,4-15.8,10.3c-6.2,7.2-7.2,11-8.1,16.7
		c-0.4,0.4-1.1,1.2-2,2.1c-2-2-3.6-3.7-5-5.1c2.3-3.4,1.7-6.4,0.6-8.5c-1.5-2.9-12.9-12.9-16.7-12.9c-0.9,0-1.5,0.4-1.8,0.7
		c-0.4,0.4-0.6,0.8-0.7,1.3c-0.5,0-1,0.3-1.4,0.6c-0.4,0.4-0.6,0.8-0.7,1.4c-0.5,0-1,0.3-1.4,0.6c-0.4,0.4-0.7,0.8-0.7,1.4
		c-0.5,0-1,0.3-1.4,0.6c-0.4,0.4-0.9,1.1-0.8,2.3c0.3,3.9,8.7,15.4,11.3,17.2c1.3,0.9,2.8,1.4,4.3,1.4c1.3,0,2.6-0.3,3.9-1
		c1.2,1.5,2.9,3.6,4.9,5.9c-5.7,5.8-9.3,9.6-10.6,11.1c-2.4,2.8-4,5-4.9,6.7c-1.9,3.6-0.9,5.6,0.3,6.6c0.7,0.6,1.6,0.9,2.6,0.9
		c2.6,0,5.7-2.3,10-7.4c1.4-1.6,3.4-4.4,5.7-7.6c0.8-1.2,1.7-2.4,2.6-3.6c6,7.2,9.7,11.5,10.9,12.9c4.7,5.2,7.5,7.2,10,7.2
		c1,0,1.9-0.3,2.6-1c4-3.6-2.2-10.4-4.9-13.3C67.1,65.1,63.5,61.5,59.3,57.4z M68.6,78.1c-0.8-0.5-1.7-1.2-2.7-2.1
		c-1.1-1-2.4-2.3-3.6-3.7c-0.1-0.1-0.2-0.2-0.3-0.4c0,0-0.1-0.1-0.1-0.1c-0.1-0.1-0.2-0.2-0.3-0.3c-0.1-0.1-0.1-0.1-0.2-0.2
		c-0.1-0.1-0.2-0.2-0.3-0.4c-0.1-0.1-0.1-0.1-0.2-0.2c-0.1-0.1-0.3-0.3-0.4-0.4c-0.1-0.1-0.1-0.2-0.2-0.2c-0.1-0.2-0.3-0.3-0.4-0.5
		c-0.1-0.1-0.1-0.2-0.2-0.2c-0.2-0.2-0.3-0.4-0.5-0.6c-0.1-0.1-0.1-0.2-0.2-0.2c-0.2-0.2-0.4-0.4-0.6-0.7c-0.1-0.1-0.1-0.1-0.2-0.2
		c-0.2-0.3-0.5-0.6-0.8-0.9c0,0,0,0,0,0c-0.6-0.7-1.1-1.4-1.7-2.1c0-0.1-0.1-0.1-0.1-0.2c-0.3-0.3-0.5-0.6-0.8-0.9
		c-0.1-0.1-0.1-0.1-0.2-0.2c-0.3-0.3-0.5-0.7-0.8-1c0,0,0,0,0,0c-0.3-0.4-0.6-0.8-0.9-1.1c0,0,0,0,0,0c-0.3-0.4-0.6-0.7-0.9-1.1
		c-0.1-0.1-0.1-0.1-0.2-0.2c-0.3-0.3-0.5-0.6-0.8-0.9c-0.1-0.1-0.1-0.2-0.2-0.2c-0.3-0.4-0.6-0.7-0.9-1.1v0c-1-1.2-2-2.4-2.9-3.5
		l0,0c-3.1-3.7-5.8-6.9-7.1-8.6h0l0,0c-1.1,0.8-2.2,1.3-3.3,1.5c-0.4,0.1-0.7,0.1-1.1,0.1c-0.5,0-1.1-0.1-1.6-0.3
		c-0.5-0.2-1-0.4-1.5-0.8c-0.4-0.3-1-0.9-1.7-1.6c-1.2-1.4-2.7-3.3-4.1-5.4c-0.2-0.2-0.3-0.5-0.5-0.7c-1.4-2.1-2.7-4.2-3.4-5.8
		c-0.1-0.2-0.2-0.4-0.2-0.5c-0.3-0.7-0.5-1.3-0.5-1.7c0-0.1,0-0.2,0-0.4c0-0.1,0-0.2,0.1-0.2c0,0,0-0.1,0.1-0.1
		c0.1-0.1,0.1-0.1,0.2-0.1c0,0,0,0,0,0c0.5,0,1.5,0.8,2.5,2.1l7.3,9.1c0.2,0.2,0.4,0.4,0.6,0.5c0.2,0.1,0.4,0.2,0.5,0.2
		c0.1,0,0.2,0,0.2-0.1c0.1-0.1,0.2-0.4,0.1-0.6c-0.1-0.3-0.2-0.6-0.5-0.9l-7.4-9c-1.2-1.5-1.8-2.9-1.4-3.2c0.1-0.1,0.2-0.1,0.3-0.1
		c0.3,0,0.7,0.2,1.1,0.5c0.3,0.2,0.7,0.6,1.1,1c0.1,0.1,0.3,0.3,0.4,0.4l7.8,8.7c0.4,0.4,0.8,0.7,1.1,0.7c0.1,0,0.2,0,0.3-0.1
		c0.3-0.2,0.1-0.9-0.5-1.5l-7.9-8.5c-1.3-1.4-2-2.7-1.6-3.1c0.1-0.1,0.2-0.1,0.3-0.1c0,0,0,0,0,0c0.6,0,1.7,0.7,2.8,1.7l8.3,8.2
		c0.4,0.4,0.9,0.6,1.2,0.6l0,0h0c0.1,0,0.2,0,0.3-0.1c0.1-0.1,0.1-0.1,0.1-0.2c0-0.3-0.2-0.7-0.6-1.1l-8.5-8.1
		c-0.7-0.6-1.2-1.3-1.6-1.8c-0.1-0.1-0.1-0.3-0.2-0.4c-0.1-0.3-0.2-0.6,0-0.7c0.1,0,0.1-0.1,0.2-0.1c0.1,0,0.2,0,0.3,0c0,0,0,0,0,0
		c2.2,0.1,9.8,6,13.3,9.7c0.3,0.3,0.5,0.6,0.7,0.8c0.4,0.5,0.8,1,0.9,1.3c0.3,0.6,0.5,1.3,0.6,1.9c0.2,1,0.1,1.9-0.3,2.9
		c-0.2,0.6-0.6,1.3-1,1.9c-0.2,0.3-0.5,0.6-0.8,1l0,0v0c0.2,0.3,0.5,0.5,0.7,0.8c0.1,0.1,0.2,0.2,0.2,0.2c0.2,0.2,0.4,0.4,0.6,0.6
		c0.1,0.1,0.2,0.2,0.3,0.3c0.2,0.2,0.4,0.4,0.6,0.6c0.1,0.1,0.2,0.2,0.3,0.3c0.2,0.2,0.5,0.5,0.7,0.7c0.1,0.1,0.1,0.1,0.2,0.2
		c0.3,0.3,0.6,0.6,0.9,0.9c0,0,0,0,0,0c4.8,4.8,10.8,10.6,15.1,14.9c0.1,0.1,0.2,0.2,0.4,0.3c0.1,0.1,0.3,0.3,0.4,0.4
		c0.1,0.1,0.3,0.3,0.4,0.4c0.1,0.1,0.3,0.3,0.4,0.4c0.1,0.1,0.3,0.3,0.4,0.4c0.1,0.1,0.2,0.2,0.3,0.3c0.2,0.2,0.4,0.4,0.7,0.7
		c0.1,0.1,0.1,0.1,0.2,0.2c0.2,0.2,0.3,0.3,0.4,0.4c0.1,0.1,0.1,0.1,0.2,0.2c0.1,0.1,0.2,0.2,0.4,0.4c0.1,0.1,0.1,0.1,0.2,0.2
		c0.1,0.1,0.2,0.2,0.3,0.3c0,0.1,0.1,0.1,0.1,0.2c0.1,0.1,0.3,0.3,0.4,0.4c1,1.1,2,2.2,2.8,3.3c1.2,1.6,2.1,3,2.6,4.3
		c0.1,0.2,0.1,0.4,0.2,0.6c0.2,1,0.1,1.7-0.5,2.3c-0.2,0.2-0.4,0.3-0.6,0.4c-0.1,0-0.2,0.1-0.3,0.1s-0.2,0-0.4,0
		C70.1,78.9,69.4,78.6,68.6,78.1z M61.6,30.7c5.1-5.9,10.9-9.6,14.3-9.6c0.8,0,1.5,0.2,2,0.6c2.5,2.2-15.3,20.2-21.5,27.5
		c-0.3,0.4-0.6,0.8-0.9,1.1c0,0-0.1-0.1-0.2-0.1c-0.1,0-0.2,0.1-0.2,0.2c0,0.1,0,0.1,0.1,0.2c-0.1,0.1-0.2,0.3-0.3,0.4
		c0-0.1-0.1-0.2-0.2-0.2c-0.1,0-0.2,0.1-0.2,0.2c0,0.1,0.1,0.2,0.2,0.2c-0.1,0.2-0.3,0.4-0.4,0.5c0,0,0-0.1,0-0.1
		c0-0.1-0.1-0.2-0.2-0.2s-0.2,0.1-0.2,0.2s0.1,0.2,0.2,0.2c0,0,0.1,0,0.1-0.1c-0.3,0.3-0.5,0.7-0.8,1c-0.9-0.9-1.8-1.8-2.7-2.7
		c0.1-0.1,0.1-0.1,0.2-0.2c0,0,0.1,0,0.1,0c0.1,0,0.2-0.1,0.2-0.2c0,0,0-0.1,0-0.1c0.1-0.1,0.2-0.2,0.4-0.4c0,0,0.1,0,0.1,0
		c0.1,0,0.2-0.1,0.2-0.2c0,0,0-0.1,0-0.1c0.1-0.1,0.2-0.2,0.4-0.4c0,0,0.1,0,0.1,0c0.1,0,0.2-0.1,0.2-0.2c0,0,0-0.1,0-0.1
		c0.1-0.1,0.2-0.2,0.4-0.4c0,0,0.1,0,0.1,0c0.1,0,0.2-0.1,0.2-0.2c0,0,0-0.1,0-0.1c0.5-0.6,0.9-0.9,0.9-0.9
		C54.7,41.5,55.3,38,61.6,30.7z M40,70.7c-3.3,3.8-6.4,6.7-8.5,6.7c-0.5,0-0.9-0.1-1.3-0.5c-2-1.7,0.8-5.8,4.8-10.5
		c1.4-1.6,5.2-5.5,9-9.4c0,0,0,0,0,0c0.1,0,0.2-0.1,0.2-0.2c0,0,0,0,0,0c0.1-0.1,0.3-0.3,0.4-0.4c0,0,0,0,0,0c0.1,0,0.2-0.1,0.2-0.2
		c0,0,0,0,0,0c0.1-0.1,0.3-0.3,0.4-0.4c0,0,0,0,0,0c0.1,0,0.2-0.1,0.2-0.2c0,0,0,0,0,0c0.1-0.1,0.3-0.3,0.4-0.4c0,0,0,0,0,0
		c0.1,0,0.2-0.1,0.2-0.2c0,0,0,0,0,0c0,0,0,0,0,0c0.1,0.2,0.3,0.3,0.4,0.5c-0.1,0-0.2,0.1-0.2,0.2c0,0.1,0.1,0.2,0.2,0.2
		c0.1,0,0.2-0.1,0.2-0.2c0.1,0.1,0.2,0.3,0.3,0.4C47,56,47,56,47,56.1c0,0.1,0.1,0.2,0.2,0.2c0.1,0,0.1,0,0.2-0.1
		c0.1,0.1,0.2,0.2,0.3,0.4c0,0-0.1,0.1-0.1,0.1c0,0.1,0.1,0.2,0.2,0.2c0,0,0.1,0,0.1,0c0.1,0.1,0.2,0.3,0.3,0.4c0,0,0,0,0,0
		c0,0.1,0.1,0.2,0.2,0.2c0,0,0,0,0,0c0.1,0.2,0.3,0.4,0.4,0.5c0,0,0,0,0,0.1c0.1,0.1,0.2,0.2,0.2,0.3c-0.5,0.6-0.9,1.2-1.4,1.9
		c-0.1,0-0.2,0.1-0.2,0.2c0,0,0,0,0,0C44.5,64.8,41.7,68.7,40,70.7z" />
		<path class="st0" d="M44.7,57.2c-0.1,0-0.2,0.1-0.2,0.2s0.1,0.2,0.2,0.2s0.2-0.1,0.2-0.2S44.8,57.2,44.7,57.2z" />
		<path class="st0" d="M45.9,55.9c-0.1,0-0.2,0.1-0.2,0.2s0.1,0.2,0.2,0.2s0.2-0.1,0.2-0.2S46.1,55.9,45.9,55.9z" />
		<path class="st0" d="M45.3,56.5c-0.1,0-0.2,0.1-0.2,0.2s0.1,0.2,0.2,0.2s0.2-0.1,0.2-0.2S45.4,56.5,45.3,56.5z" />
		<path class="st0" d="M46.6,56.5c-0.1,0-0.2,0.1-0.2,0.2s0.1,0.2,0.2,0.2s0.2-0.1,0.2-0.2S46.7,56.5,46.6,56.5z" />
		<path class="st0" d="M45.9,57.2c-0.1,0-0.2,0.1-0.2,0.2s0.1,0.2,0.2,0.2s0.2-0.1,0.2-0.2S46.1,57.2,45.9,57.2z" />
		<path class="st0" d="M47.2,57.2c-0.1,0-0.2,0.1-0.2,0.2s0.1,0.2,0.2,0.2s0.2-0.1,0.2-0.2S47.3,57.2,47.2,57.2z" />
		<path class="st0" d="M45.3,57.8c-0.1,0-0.2,0.1-0.2,0.2s0.1,0.2,0.2,0.2s0.2-0.1,0.2-0.2S45.4,57.8,45.3,57.8z" />
		<path class="st0" d="M46.6,57.8c-0.1,0-0.2,0.1-0.2,0.2s0.1,0.2,0.2,0.2s0.2-0.1,0.2-0.2S46.7,57.8,46.6,57.8z" />
		<path class="st0" d="M45.9,58.4c-0.1,0-0.2,0.1-0.2,0.2s0.1,0.2,0.2,0.2s0.2-0.1,0.2-0.2S46.1,58.4,45.9,58.4z" />
		<path class="st0" d="M46.6,59c-0.1,0-0.2,0.1-0.2,0.2s0.1,0.2,0.2,0.2s0.2-0.1,0.2-0.2S46.7,59,46.6,59z" />
		<path class="st0" d="M47.8,58.2c0.1,0,0.2-0.1,0.2-0.2s-0.1-0.2-0.2-0.2s-0.2,0.1-0.2,0.2S47.7,58.2,47.8,58.2z" />
		<path class="st0" d="M48.4,58.8c0.1,0,0.2-0.1,0.2-0.2s-0.1-0.2-0.2-0.2s-0.2,0.1-0.2,0.2S48.3,58.8,48.4,58.8z" />
		<path class="st0" d="M47.8,59.5c0.1,0,0.2-0.1,0.2-0.2S47.9,59,47.8,59s-0.2,0.1-0.2,0.2S47.7,59.5,47.8,59.5z" />
		<path class="st0" d="M47.2,58.4c-0.1,0-0.2,0.1-0.2,0.2s0.1,0.2,0.2,0.2s0.2-0.1,0.2-0.2S47.3,58.4,47.2,58.4z" />
		<path class="st0" d="M47.2,59.7c-0.1,0-0.2,0.1-0.2,0.2s0.1,0.2,0.2,0.2s0.2-0.1,0.2-0.2S47.3,59.7,47.2,59.7z" />
		<path class="st0" d="M53.4,48.8c0.1,0,0.2-0.1,0.2-0.2s-0.1-0.2-0.2-0.2s-0.2,0.1-0.2,0.2S53.3,48.8,53.4,48.8z" />
		<path class="st0" d="M52.8,49c-0.1,0-0.2,0.1-0.2,0.2s0.1,0.2,0.2,0.2s0.2-0.1,0.2-0.2S52.9,49,52.8,49z" />
		<path class="st0" d="M54.1,49.5c0.1,0,0.2-0.1,0.2-0.2S54.2,49,54.1,49s-0.2,0.1-0.2,0.2S53.9,49.5,54.1,49.5z" />
		<path class="st0" d="M53.4,50.1c0.1,0,0.2-0.1,0.2-0.2s-0.1-0.2-0.2-0.2s-0.2,0.1-0.2,0.2S53.3,50.1,53.4,50.1z" />
		<path class="st0" d="M52.2,49.7c-0.1,0-0.2,0.1-0.2,0.2s0.1,0.2,0.2,0.2s0.2-0.1,0.2-0.2S52.3,49.7,52.2,49.7z" />
		<path class="st0" d="M54.7,50.1c0.1,0,0.2-0.1,0.2-0.2s-0.1-0.2-0.2-0.2s-0.2,0.1-0.2,0.2S54.6,50.1,54.7,50.1z" />
		<path class="st0" d="M51.6,50.3c-0.1,0-0.2,0.1-0.2,0.2s0.1,0.2,0.2,0.2s0.2-0.1,0.2-0.2S51.7,50.3,51.6,50.3z" />
		<path class="st0" d="M52.8,50.3c-0.1,0-0.2,0.1-0.2,0.2s0.1,0.2,0.2,0.2s0.2-0.1,0.2-0.2S52.9,50.3,52.8,50.3z" />
		<path class="st0" d="M54.1,50.7c0.1,0,0.2-0.1,0.2-0.2s-0.1-0.2-0.2-0.2s-0.2,0.1-0.2,0.2S53.9,50.7,54.1,50.7z" />
		<path class="st0" d="M53.4,51.3c0.1,0,0.2-0.1,0.2-0.2s-0.1-0.2-0.2-0.2s-0.2,0.1-0.2,0.2S53.3,51.3,53.4,51.3z" />
		<path class="st0" d="M52.8,51.5c-0.1,0-0.2,0.1-0.2,0.2s0.1,0.2,0.2,0.2s0.2-0.1,0.2-0.2S52.9,51.5,52.8,51.5z" />
		<path class="st0" d="M53.4,52.6c0.1,0,0.2-0.1,0.2-0.2s-0.1-0.2-0.2-0.2s-0.2,0.1-0.2,0.2S53.3,52.6,53.4,52.6z" />
		<path class="st0" d="M52.2,50.9c-0.1,0-0.2,0.1-0.2,0.2s0.1,0.2,0.2,0.2s0.2-0.1,0.2-0.2S52.3,50.9,52.2,50.9z" />
	</g>
</svg>
