<?xml version="1.0" encoding="utf-8"?>
<!-- Generator: Adobe Illustrator 23.1.1, SVG Export Plug-In . SVG Version: 6.00 Build 0)  -->
<svg version="1.1" id="Layer_1" xmlns="http://www.w3.org/2000/svg" xmlns:xlink="http://www.w3.org/1999/xlink" x="0px" y="0px"
	 viewBox="0 0 100 100" style="enable-background:new 0 0 100 100;" xml:space="preserve">
<style type="text/css">
	.st0{fill:#231F20;}
</style>
<g>
	<path class="st0" d="M47.2,32.4c0.1,0,0.2-0.1,0.2-0.2S47.3,32,47.2,32S47,32.1,47,32.2S47.1,32.4,47.2,32.4z"/>
	<path class="st0" d="M48.4,32.4c0.1,0,0.2-0.1,0.2-0.2S48.6,32,48.4,32s-0.2,0.1-0.2,0.2S48.3,32.4,48.4,32.4z"/>
	<path class="st0" d="M47.8,33c0.1,0,0.2-0.1,0.2-0.2s-0.1-0.2-0.2-0.2s-0.2,0.1-0.2,0.2S47.7,33,47.8,33z"/>
	<path class="st0" d="M47.2,33.6c0.1,0,0.2-0.1,0.2-0.2s-0.1-0.2-0.2-0.2S47,33.3,47,33.4S47.1,33.6,47.2,33.6z"/>
	<path class="st0" d="M48.4,33.6c0.1,0,0.2-0.1,0.2-0.2s-0.1-0.2-0.2-0.2s-0.2,0.1-0.2,0.2S48.3,33.6,48.4,33.6z"/>
	<path class="st0" d="M47.8,34.3c0.1,0,0.2-0.1,0.2-0.2s-0.1-0.2-0.2-0.2s-0.2,0.1-0.2,0.2S47.7,34.3,47.8,34.3z"/>
	<path class="st0" d="M50.3,33c0.1,0,0.2-0.1,0.2-0.2s-0.1-0.2-0.2-0.2s-0.2,0.1-0.2,0.2S50.2,33,50.3,33z"/>
	<path class="st0" d="M49.7,33.6c0.1,0,0.2-0.1,0.2-0.2s-0.1-0.2-0.2-0.2s-0.2,0.1-0.2,0.2S49.6,33.6,49.7,33.6z"/>
	<path class="st0" d="M50.9,33.6c0.1,0,0.2-0.1,0.2-0.2s-0.1-0.2-0.2-0.2s-0.2,0.1-0.2,0.2S50.8,33.6,50.9,33.6z"/>
	<path class="st0" d="M50.3,34.3c0.1,0,0.2-0.1,0.2-0.2s-0.1-0.2-0.2-0.2s-0.2,0.1-0.2,0.2S50.2,34.3,50.3,34.3z"/>
	<path class="st0" d="M49.1,33c0.1,0,0.2-0.1,0.2-0.2s-0.1-0.2-0.2-0.2s-0.2,0.1-0.2,0.2S48.9,33,49.1,33z"/>
	<path class="st0" d="M49.1,34.3c0.1,0,0.2-0.1,0.2-0.2s-0.1-0.2-0.2-0.2s-0.2,0.1-0.2,0.2S48.9,34.3,49.1,34.3z"/>
	<path class="st0" d="M51.6,34.3c0.1,0,0.2-0.1,0.2-0.2s-0.1-0.2-0.2-0.2s-0.2,0.1-0.2,0.2S51.4,34.3,51.6,34.3z"/>
	<path class="st0" d="M47.2,34.9c0.1,0,0.2-0.1,0.2-0.2s-0.1-0.2-0.2-0.2S47,34.6,47,34.7S47.1,34.9,47.2,34.9z"/>
	<path class="st0" d="M48.4,34.9c0.1,0,0.2-0.1,0.2-0.2s-0.1-0.2-0.2-0.2s-0.2,0.1-0.2,0.2S48.3,34.9,48.4,34.9z"/>
	<path class="st0" d="M47.8,35.5c0.1,0,0.2-0.1,0.2-0.2s-0.1-0.2-0.2-0.2s-0.2,0.1-0.2,0.2S47.7,35.5,47.8,35.5z"/>
	<path class="st0" d="M47.2,36.1c0.1,0,0.2-0.1,0.2-0.2s-0.1-0.2-0.2-0.2S47,35.8,47,35.9S47.1,36.1,47.2,36.1z"/>
	<path class="st0" d="M48.4,36.1c0.1,0,0.2-0.1,0.2-0.2s-0.1-0.2-0.2-0.2s-0.2,0.1-0.2,0.2S48.3,36.1,48.4,36.1z"/>
	<path class="st0" d="M47.8,36.8c0.1,0,0.2-0.1,0.2-0.2s-0.1-0.2-0.2-0.2s-0.2,0.1-0.2,0.2S47.7,36.8,47.8,36.8z"/>
	<path class="st0" d="M49.7,34.9c0.1,0,0.2-0.1,0.2-0.2s-0.1-0.2-0.2-0.2s-0.2,0.1-0.2,0.2S49.6,34.9,49.7,34.9z"/>
	<path class="st0" d="M50.9,34.9c0.1,0,0.2-0.1,0.2-0.2s-0.1-0.2-0.2-0.2s-0.2,0.1-0.2,0.2S50.8,34.9,50.9,34.9z"/>
	<path class="st0" d="M50.3,35.5c0.1,0,0.2-0.1,0.2-0.2s-0.1-0.2-0.2-0.2s-0.2,0.1-0.2,0.2S50.2,35.5,50.3,35.5z"/>
	<path class="st0" d="M49.7,36.1c0.1,0,0.2-0.1,0.2-0.2s-0.1-0.2-0.2-0.2s-0.2,0.1-0.2,0.2S49.6,36.1,49.7,36.1z"/>
	<path class="st0" d="M50.9,36.1c0.1,0,0.2-0.1,0.2-0.2s-0.1-0.2-0.2-0.2s-0.2,0.1-0.2,0.2S50.8,36.1,50.9,36.1z"/>
	<path class="st0" d="M50.3,36.8c0.1,0,0.2-0.1,0.2-0.2s-0.1-0.2-0.2-0.2s-0.2,0.1-0.2,0.2S50.2,36.8,50.3,36.8z"/>
	<path class="st0" d="M49.1,35.5c0.1,0,0.2-0.1,0.2-0.2s-0.1-0.2-0.2-0.2s-0.2,0.1-0.2,0.2S48.9,35.5,49.1,35.5z"/>
	<path class="st0" d="M49.1,36.8c0.1,0,0.2-0.1,0.2-0.2s-0.1-0.2-0.2-0.2s-0.2,0.1-0.2,0.2S48.9,36.8,49.1,36.8z"/>
	<path class="st0" d="M51.6,35.5c0.1,0,0.2-0.1,0.2-0.2s-0.1-0.2-0.2-0.2s-0.2,0.1-0.2,0.2S51.4,35.5,51.6,35.5z"/>
	<path class="st0" d="M51.6,36.8c0.1,0,0.2-0.1,0.2-0.2s-0.1-0.2-0.2-0.2s-0.2,0.1-0.2,0.2S51.4,36.8,51.6,36.8z"/>
	<path class="st0" d="M52.2,34.9c0.1,0,0.2-0.1,0.2-0.2s-0.1-0.2-0.2-0.2S52,34.6,52,34.7S52.1,34.9,52.2,34.9z"/>
	<path class="st0" d="M52.8,35.5c0.1,0,0.2-0.1,0.2-0.2s-0.1-0.2-0.2-0.2s-0.2,0.1-0.2,0.2S52.7,35.5,52.8,35.5z"/>
	<path class="st0" d="M52.2,36.1c0.1,0,0.2-0.1,0.2-0.2s-0.1-0.2-0.2-0.2S52,35.8,52,35.9S52.1,36.1,52.2,36.1z"/>
	<path class="st0" d="M52.8,36.8c0.1,0,0.2-0.1,0.2-0.2s-0.1-0.2-0.2-0.2s-0.2,0.1-0.2,0.2S52.7,36.8,52.8,36.8z"/>
	<path class="st0" d="M47.2,37.4c0.1,0,0.2-0.1,0.2-0.2S47.3,37,47.2,37S47,37.1,47,37.2S47.1,37.4,47.2,37.4z"/>
	<path class="st0" d="M48.4,37.4c0.1,0,0.2-0.1,0.2-0.2S48.6,37,48.4,37s-0.2,0.1-0.2,0.2S48.3,37.4,48.4,37.4z"/>
	<path class="st0" d="M49.7,37.4c0.1,0,0.2-0.1,0.2-0.2S49.8,37,49.7,37s-0.2,0.1-0.2,0.2S49.6,37.4,49.7,37.4z"/>
	<path class="st0" d="M50.9,37.4c0.1,0,0.2-0.1,0.2-0.2S51.1,37,50.9,37s-0.2,0.1-0.2,0.2S50.8,37.4,50.9,37.4z"/>
	<path class="st0" d="M52.2,37.4c0.1,0,0.2-0.1,0.2-0.2S52.3,37,52.2,37S52,37.1,52,37.2S52.1,37.4,52.2,37.4z"/>
	<path class="st0" d="M45.9,32.4c0.1,0,0.2-0.1,0.2-0.2S46.1,32,45.9,32s-0.2,0.1-0.2,0.2S45.8,32.4,45.9,32.4z"/>
	<path class="st0" d="M45.3,33c0.1,0,0.2-0.1,0.2-0.2s-0.1-0.2-0.2-0.2s-0.2,0.1-0.2,0.2S45.2,33,45.3,33z"/>
	<path class="st0" d="M44.7,33.6c0.1,0,0.2-0.1,0.2-0.2s-0.1-0.2-0.2-0.2s-0.2,0.1-0.2,0.2S44.6,33.6,44.7,33.6z"/>
	<path class="st0" d="M45.9,33.6c0.1,0,0.2-0.1,0.2-0.2s-0.1-0.2-0.2-0.2s-0.2,0.1-0.2,0.2S45.8,33.6,45.9,33.6z"/>
	<path class="st0" d="M45.3,34.3c0.1,0,0.2-0.1,0.2-0.2s-0.1-0.2-0.2-0.2s-0.2,0.1-0.2,0.2S45.2,34.3,45.3,34.3z"/>
	<path class="st0" d="M44.1,34.3c0.1,0,0.2-0.1,0.2-0.2s-0.1-0.2-0.2-0.2s-0.2,0.1-0.2,0.2S43.9,34.3,44.1,34.3z"/>
	<path class="st0" d="M46.6,33c0.1,0,0.2-0.1,0.2-0.2s-0.1-0.2-0.2-0.2s-0.2,0.1-0.2,0.2S46.4,33,46.6,33z"/>
	<path class="st0" d="M46.6,34.3c0.1,0,0.2-0.1,0.2-0.2s-0.1-0.2-0.2-0.2s-0.2,0.1-0.2,0.2S46.4,34.3,46.6,34.3z"/>
	<path class="st0" d="M43.4,36.1c0.1,0,0.2-0.1,0.2-0.2s-0.1-0.2-0.2-0.2s-0.2,0.1-0.2,0.2S43.3,36.1,43.4,36.1z"/>
	<path class="st0" d="M44.7,34.9c0.1,0,0.2-0.1,0.2-0.2s-0.1-0.2-0.2-0.2s-0.2,0.1-0.2,0.2S44.6,34.9,44.7,34.9z"/>
	<path class="st0" d="M45.9,34.9c0.1,0,0.2-0.1,0.2-0.2s-0.1-0.2-0.2-0.2s-0.2,0.1-0.2,0.2S45.8,34.9,45.9,34.9z"/>
	<path class="st0" d="M45.3,35.5c0.1,0,0.2-0.1,0.2-0.2s-0.1-0.2-0.2-0.2s-0.2,0.1-0.2,0.2S45.2,35.5,45.3,35.5z"/>
	<path class="st0" d="M44.7,36.1c0.1,0,0.2-0.1,0.2-0.2s-0.1-0.2-0.2-0.2s-0.2,0.1-0.2,0.2S44.6,36.1,44.7,36.1z"/>
	<path class="st0" d="M45.9,36.1c0.1,0,0.2-0.1,0.2-0.2s-0.1-0.2-0.2-0.2s-0.2,0.1-0.2,0.2S45.8,36.1,45.9,36.1z"/>
	<path class="st0" d="M45.3,36.8c0.1,0,0.2-0.1,0.2-0.2s-0.1-0.2-0.2-0.2s-0.2,0.1-0.2,0.2S45.2,36.8,45.3,36.8z"/>
	<path class="st0" d="M44.1,35.5c0.1,0,0.2-0.1,0.2-0.2s-0.1-0.2-0.2-0.2s-0.2,0.1-0.2,0.2S43.9,35.5,44.1,35.5z"/>
	<path class="st0" d="M44.1,36.8c0.1,0,0.2-0.1,0.2-0.2s-0.1-0.2-0.2-0.2s-0.2,0.1-0.2,0.2S43.9,36.8,44.1,36.8z"/>
	<path class="st0" d="M46.6,35.5c0.1,0,0.2-0.1,0.2-0.2s-0.1-0.2-0.2-0.2s-0.2,0.1-0.2,0.2S46.4,35.5,46.6,35.5z"/>
	<path class="st0" d="M46.6,36.8c0.1,0,0.2-0.1,0.2-0.2s-0.1-0.2-0.2-0.2s-0.2,0.1-0.2,0.2S46.4,36.8,46.6,36.8z"/>
	<path class="st0" d="M43.4,37.4c0.1,0,0.2-0.1,0.2-0.2S43.6,37,43.4,37s-0.2,0.1-0.2,0.2S43.3,37.4,43.4,37.4z"/>
	<path class="st0" d="M44.7,37.4c0.1,0,0.2-0.1,0.2-0.2S44.8,37,44.7,37s-0.2,0.1-0.2,0.2S44.6,37.4,44.7,37.4z"/>
	<path class="st0" d="M45.9,37.4c0.1,0,0.2-0.1,0.2-0.2S46.1,37,45.9,37s-0.2,0.1-0.2,0.2S45.8,37.4,45.9,37.4z"/>
	<path class="st0" d="M67.5,51.4l-6.2-5.9l-4.6-9.1l-0.1-0.1l-0.1-0.1c-0.3-0.5-0.8-0.9-1.6-1.3c0,0,0-0.1,0-0.1
		c3.9-0.5,6.9-3.9,7.2-8.3c0.3-5-3.1-9.4-7.6-9.8c-0.2,0-0.5,0-0.7,0c-4.3,0-8,3.7-8.3,8.4c-0.1,1.9,0,3.4,0.6,4.5
		c-2.1,0.3-3.9,1.9-4.6,4.2l-2.2,6.5L37.2,42l0,0l0,0c-0.5,0.5-1,1.2-1.2,1.9l0,0.1l0,0.1l-2.1,10.1l-0.4,1.7l1.7,0.6l2.4,0.8
		l1.8,0.6l0.7-1.8l1.4-3.5l0.2,0.1l-1.9,12.8l-7.5,11.5l-1,1.5l1.4,1.1l2.9,2.4l1.6,1.3l1.3-1.6L47.4,70l0.1-0.2l0.1-0.2
		c0-0.1,0.1-0.1,0.1-0.2c0.3-0.5,0.5-1,0.6-1.4l1.1-3.8l3.3,4.2l1.2,13.1l0.2,2.3l2.2-0.5l4.5-1.1l1.7-0.4l-0.2-1.7l-1.4-14.5l0-0.1
		l0-0.1c-0.1-0.6-0.4-1.2-0.7-1.7l-6.1-9.2l0.8-3.5c0.1,0.1,0.1,0.1,0.2,0.2l0.1,0.1l0.1,0.1l8.8,5.7l2.3,1.5l0.7-2.7l0.7-2.6
		l0.3-1.1L67.5,51.4z M50,20.1c1.1-0.9,2.4-1.5,3.8-1.5c0.2,0,0.3,0,0.5,0c3.5,0.3,6.1,3.7,5.8,7.7c-0.2,2.1-1.1,3.9-2.5,5.1
		c-1,0.9-2.2,1.4-3.5,1.4c-0.6-0.9-1.5-1.7-2.6-2l-2.9-1c-0.8-1.3-1.2-2.9-1.1-4.6C47.7,23.1,48.7,21.3,50,20.1z M38.2,55.5
		l-2.4-0.8l2.1-10.1c0.1-0.4,0.3-0.7,0.6-1l1.2-0.9l-1,2.9c-0.4,1.2-0.4,2.5,0,3.7c0.3,0.7,0.7,1.3,1.3,1.8L38.2,55.5z M41.5,50.7
		c-0.1,0-0.3-0.1-0.4-0.2c-0.1-0.1-0.2-0.1-0.3-0.2c-0.2-0.1-0.3-0.2-0.4-0.4l0,0c0,0,0,0,0,0c-0.4-0.4-0.6-0.8-0.8-1.4
		c0,0,0.1,0,0.1,0c0.1,0,0.2-0.1,0.2-0.2s-0.1-0.2-0.2-0.2c-0.1,0-0.1,0.1-0.2,0.1c-0.2-0.7-0.2-1.5,0-2.2c0,0,0.1,0.1,0.1,0.1
		c0.1,0,0.2-0.1,0.2-0.2s-0.1-0.2-0.2-0.2c0,0,0,0,0,0l0.5-1.5c0,0,0.1,0.1,0.2,0.1c0.1,0,0.2-0.1,0.2-0.2s-0.1-0.2-0.2-0.2
		c0,0,0,0,0,0l0.5-1.5c0,0,0.1,0.1,0.2,0.1c0.1,0,0.2-0.1,0.2-0.2S41.1,42,40.9,42c0,0,0,0,0,0l0.2-0.5l0,0l0.3-1
		c0,0,0.1,0.1,0.1,0.1c0.1,0,0.2-0.1,0.2-0.2s-0.1-0.2-0.2-0.2c0,0,0,0,0,0l0.5-1.5c0,0,0.1,0.1,0.1,0.1c0.1,0,0.2-0.1,0.2-0.2
		s-0.1-0.2-0.2-0.2c0,0,0,0,0,0l0.5-1.5c0,0,0.1,0.1,0.1,0.1c0.1,0,0.2-0.1,0.2-0.2s-0.1-0.2-0.2-0.2c0,0,0,0,0,0l0.5-1.5
		c0,0,0.1,0.1,0.1,0.1c0.1,0,0.2-0.1,0.2-0.2s-0.1-0.2-0.2-0.2c0,0,0,0,0,0l0,0c0.3-0.9,0.8-1.6,1.4-2.1c0.6-0.5,1.4-0.8,2.1-0.8
		c0.3,0,0.6,0,0.9,0.1l0.9,0.3c0.2,0.1,0.5,0.2,0.8,0.3c0,0.1,0.1,0.1,0.2,0.1c0,0,0.1,0,0.1,0l1.2,0.4c0.1,0,0.3,0.1,0.4,0.2
		c0,0,0.1,0.1,0.1,0.1c0,0,0,0,0.1,0c0,0,0,0,0,0c0.1,0.1,0.2,0.2,0.4,0.3c0,0,0,0,0,0.1c0,0.1,0.1,0.2,0.2,0.2c0,0,0,0,0.1,0
		c0.1,0.1,0.2,0.2,0.2,0.3c0,0,0.1,0.1,0.1,0.1c0,0,0,0.1,0.1,0.1c0,0,0,0,0,0c0.1,0.1,0.1,0.2,0.2,0.3c0,0.1,0.1,0.2,0.1,0.4
		c0,0.1,0.1,0.2,0.1,0.3c0,0.1,0,0.3,0.1,0.4c0,0.1,0,0.1,0,0.2c0,0.1,0,0.1,0,0.2c0,0.1,0,0.2,0,0.3c0,0.4-0.1,0.8-0.2,1.3l0,0
		c0,0,0,0-0.1,0c-0.1,0-0.2,0.1-0.2,0.2c0,0.1,0.1,0.2,0.2,0.2l-0.5,1.5c0,0,0,0-0.1,0c-0.1,0-0.2,0.1-0.2,0.2
		c0,0.1,0.1,0.2,0.2,0.2l-0.5,1.5c0,0,0,0-0.1,0c-0.1,0-0.2,0.1-0.2,0.2c0,0.1,0.1,0.2,0.2,0.2L51,43.3c0,0,0,0-0.1,0
		c-0.1,0-0.2,0.1-0.2,0.2c0,0.1,0.1,0.2,0.2,0.2l-0.5,1.5c0,0,0,0-0.1,0c-0.1,0-0.2,0.1-0.2,0.2c0,0.1,0.1,0.2,0.2,0.2L49.8,47
		c0,0,0,0-0.1,0c-0.1,0-0.2,0.1-0.2,0.2c0,0.1,0.1,0.2,0.2,0.2l-0.5,1.5c0,0,0,0-0.1,0c-0.1,0-0.2,0.1-0.2,0.2
		c0,0.1,0.1,0.2,0.2,0.2c-0.5,1.1-1.3,2-2.3,2.4c0,0,0,0,0-0.1c0-0.1-0.1-0.2-0.2-0.2s-0.2,0.1-0.2,0.2c0,0.1,0,0.1,0.1,0.2
		c-0.3,0.1-0.6,0.1-0.9,0.1c-0.3,0-0.6,0-0.9-0.1l-0.4-0.1c0,0,0,0,0,0c0-0.1-0.1-0.2-0.2-0.2c-0.1,0-0.1,0.1-0.2,0.1l0,0l0,0
		L42.4,51c0,0,0,0,0,0c0-0.1-0.1-0.2-0.2-0.2c-0.1,0-0.1,0.1-0.2,0.1L41.5,50.7z M65.4,55.5l-8.8-5.7c-0.2-0.2-0.4-0.4-0.5-0.6
		l-1.8-3.5l0,0l0,0L52.2,55l6.6,9.8c0.2,0.3,0.3,0.7,0.4,1l1.4,14.4l-4.5,1l-1.3-13.7l-6.1-7.8l0,0l0,0l-0.5,1.6c0,0-0.1,0-0.1,0
		c-0.1,0-0.2,0.1-0.2,0.2c0,0.1,0.1,0.2,0.2,0.2l-0.5,1.5c0-0.1-0.1-0.1-0.2-0.1c-0.1,0-0.2,0.1-0.2,0.2s0.1,0.2,0.2,0.2
		c0,0,0,0,0.1,0l-0.5,1.7c0-0.1-0.1-0.2-0.2-0.2c-0.1,0-0.2,0.1-0.2,0.2s0.1,0.2,0.2,0.2c0.1,0,0.1,0,0.2-0.1l-0.3,1
		c-0.1,0-0.1,0.1-0.1,0.2c0,0,0,0,0,0.1l-0.2,0.8c-0.1,0.3-0.5,1.1-0.6,1.3l-9.1,11.8l-2.9-2.4l7.8-11.8l2.1-13.9l0.7,0.2
		c0.4,0.1,0.8,0.2,1.2,0.2c1.9,0,3.8-1.5,4.5-3.6l3.8-11.4c0.1-0.4,0.2-0.8,0.2-1.2c0.4,0.2,0.7,0.4,0.8,0.6l4.7,9.4l6.5,6.2
		L65.4,55.5z"/>
	<path class="st0" d="M47.2,42.4c0.1,0,0.2-0.1,0.2-0.2S47.3,42,47.2,42S47,42.1,47,42.2S47.1,42.4,47.2,42.4z"/>
	<path class="st0" d="M48.4,42.4c0.1,0,0.2-0.1,0.2-0.2S48.6,42,48.4,42s-0.2,0.1-0.2,0.2S48.3,42.4,48.4,42.4z"/>
	<path class="st0" d="M47.8,43c0.1,0,0.2-0.1,0.2-0.2s-0.1-0.2-0.2-0.2s-0.2,0.1-0.2,0.2S47.7,43,47.8,43z"/>
	<path class="st0" d="M47.2,43.6c0.1,0,0.2-0.1,0.2-0.2s-0.1-0.2-0.2-0.2S47,43.3,47,43.4S47.1,43.6,47.2,43.6z"/>
	<path class="st0" d="M48.4,43.6c0.1,0,0.2-0.1,0.2-0.2s-0.1-0.2-0.2-0.2s-0.2,0.1-0.2,0.2S48.3,43.6,48.4,43.6z"/>
	<path class="st0" d="M47.8,44.3c0.1,0,0.2-0.1,0.2-0.2s-0.1-0.2-0.2-0.2s-0.2,0.1-0.2,0.2S47.7,44.3,47.8,44.3z"/>
	<path class="st0" d="M49.7,42.4c0.1,0,0.2-0.1,0.2-0.2S49.8,42,49.7,42s-0.2,0.1-0.2,0.2S49.6,42.4,49.7,42.4z"/>
	<path class="st0" d="M50.9,42.4c0.1,0,0.2-0.1,0.2-0.2S51.1,42,50.9,42s-0.2,0.1-0.2,0.2S50.8,42.4,50.9,42.4z"/>
	<path class="st0" d="M50.3,43c0.1,0,0.2-0.1,0.2-0.2s-0.1-0.2-0.2-0.2s-0.2,0.1-0.2,0.2S50.2,43,50.3,43z"/>
	<path class="st0" d="M49.7,43.6c0.1,0,0.2-0.1,0.2-0.2s-0.1-0.2-0.2-0.2s-0.2,0.1-0.2,0.2S49.6,43.6,49.7,43.6z"/>
	<path class="st0" d="M50.3,44.3c0.1,0,0.2-0.1,0.2-0.2s-0.1-0.2-0.2-0.2s-0.2,0.1-0.2,0.2S50.2,44.3,50.3,44.3z"/>
	<path class="st0" d="M49.1,43c0.1,0,0.2-0.1,0.2-0.2s-0.1-0.2-0.2-0.2s-0.2,0.1-0.2,0.2S48.9,43,49.1,43z"/>
	<path class="st0" d="M49.1,44.3c0.1,0,0.2-0.1,0.2-0.2s-0.1-0.2-0.2-0.2s-0.2,0.1-0.2,0.2S48.9,44.3,49.1,44.3z"/>
	<path class="st0" d="M47.2,44.9c0.1,0,0.2-0.1,0.2-0.2s-0.1-0.2-0.2-0.2S47,44.6,47,44.7S47.1,44.9,47.2,44.9z"/>
	<path class="st0" d="M48.4,44.9c0.1,0,0.2-0.1,0.2-0.2s-0.1-0.2-0.2-0.2s-0.2,0.1-0.2,0.2S48.3,44.9,48.4,44.9z"/>
	<path class="st0" d="M47.8,45.5c0.1,0,0.2-0.1,0.2-0.2s-0.1-0.2-0.2-0.2s-0.2,0.1-0.2,0.2S47.7,45.5,47.8,45.5z"/>
	<path class="st0" d="M47.2,46.1c0.1,0,0.2-0.1,0.2-0.2s-0.1-0.2-0.2-0.2S47,45.8,47,45.9S47.1,46.1,47.2,46.1z"/>
	<path class="st0" d="M48.4,46.1c0.1,0,0.2-0.1,0.2-0.2s-0.1-0.2-0.2-0.2s-0.2,0.1-0.2,0.2S48.3,46.1,48.4,46.1z"/>
	<path class="st0" d="M47.8,46.8c0.1,0,0.2-0.1,0.2-0.2s-0.1-0.2-0.2-0.2s-0.2,0.1-0.2,0.2S47.7,46.8,47.8,46.8z"/>
	<path class="st0" d="M49.7,44.9c0.1,0,0.2-0.1,0.2-0.2s-0.1-0.2-0.2-0.2s-0.2,0.1-0.2,0.2S49.6,44.9,49.7,44.9z"/>
	<path class="st0" d="M49.7,46.1c0.1,0,0.2-0.1,0.2-0.2s-0.1-0.2-0.2-0.2s-0.2,0.1-0.2,0.2S49.6,46.1,49.7,46.1z"/>
	<path class="st0" d="M49.1,45.5c0.1,0,0.2-0.1,0.2-0.2s-0.1-0.2-0.2-0.2s-0.2,0.1-0.2,0.2S48.9,45.5,49.1,45.5z"/>
	<path class="st0" d="M49.1,46.8c0.1,0,0.2-0.1,0.2-0.2s-0.1-0.2-0.2-0.2s-0.2,0.1-0.2,0.2S48.9,46.8,49.1,46.8z"/>
	<path class="st0" d="M47.2,47.4c0.1,0,0.2-0.1,0.2-0.2S47.3,47,47.2,47S47,47.1,47,47.2S47.1,47.4,47.2,47.4z"/>
	<path class="st0" d="M48.4,47.4c0.1,0,0.2-0.1,0.2-0.2S48.6,47,48.4,47s-0.2,0.1-0.2,0.2S48.3,47.4,48.4,47.4z"/>
	<path class="st0" d="M47.8,48c0.1,0,0.2-0.1,0.2-0.2s-0.1-0.2-0.2-0.2s-0.2,0.1-0.2,0.2S47.7,48,47.8,48z"/>
	<path class="st0" d="M47.2,48.6c0.1,0,0.2-0.1,0.2-0.2s-0.1-0.2-0.2-0.2S47,48.3,47,48.4S47.1,48.6,47.2,48.6z"/>
	<path class="st0" d="M48.4,48.6c0.1,0,0.2-0.1,0.2-0.2s-0.1-0.2-0.2-0.2s-0.2,0.1-0.2,0.2S48.3,48.6,48.4,48.6z"/>
	<path class="st0" d="M47.8,49.3c0.1,0,0.2-0.1,0.2-0.2s-0.1-0.2-0.2-0.2s-0.2,0.1-0.2,0.2S47.7,49.3,47.8,49.3z"/>
	<path class="st0" d="M49.1,48c0.1,0,0.2-0.1,0.2-0.2s-0.1-0.2-0.2-0.2s-0.2,0.1-0.2,0.2S48.9,48,49.1,48z"/>
	<path class="st0" d="M47.2,49.9c0.1,0,0.2-0.1,0.2-0.2s-0.1-0.2-0.2-0.2S47,49.6,47,49.7S47.1,49.9,47.2,49.9z"/>
	<path class="st0" d="M48.4,49.9c0.1,0,0.2-0.1,0.2-0.2s-0.1-0.2-0.2-0.2s-0.2,0.1-0.2,0.2S48.3,49.9,48.4,49.9z"/>
	<path class="st0" d="M47.8,50.5c0.1,0,0.2-0.1,0.2-0.2s-0.1-0.2-0.2-0.2s-0.2,0.1-0.2,0.2S47.7,50.5,47.8,50.5z"/>
	<path class="st0" d="M47.2,51.1c0.1,0,0.2-0.1,0.2-0.2s-0.1-0.2-0.2-0.2S47,50.8,47,50.9S47.1,51.1,47.2,51.1z"/>
	<path class="st0" d="M40.9,43.2c-0.1,0-0.2,0.1-0.2,0.2s0.1,0.2,0.2,0.2s0.2-0.1,0.2-0.2S41.1,43.2,40.9,43.2z"/>
	<path class="st0" d="M41.6,42.6c-0.1,0-0.2,0.1-0.2,0.2s0.1,0.2,0.2,0.2s0.2-0.1,0.2-0.2S41.7,42.6,41.6,42.6z"/>
	<path class="st0" d="M41.6,43.8c-0.1,0-0.2,0.1-0.2,0.2s0.1,0.2,0.2,0.2s0.2-0.1,0.2-0.2S41.7,43.8,41.6,43.8z"/>
	<path class="st0" d="M40.9,44.5c-0.1,0-0.2,0.1-0.2,0.2s0.1,0.2,0.2,0.2s0.2-0.1,0.2-0.2S41.1,44.5,40.9,44.5z"/>
	<path class="st0" d="M40.3,45.1c-0.1,0-0.2,0.1-0.2,0.2s0.1,0.2,0.2,0.2s0.2-0.1,0.2-0.2S40.4,45.1,40.3,45.1z"/>
	<path class="st0" d="M40.9,45.7c-0.1,0-0.2,0.1-0.2,0.2s0.1,0.2,0.2,0.2s0.2-0.1,0.2-0.2S41.1,45.7,40.9,45.7z"/>
	<path class="st0" d="M40.3,46.3c-0.1,0-0.2,0.1-0.2,0.2s0.1,0.2,0.2,0.2s0.2-0.1,0.2-0.2S40.4,46.3,40.3,46.3z"/>
	<path class="st0" d="M41.6,45.1c-0.1,0-0.2,0.1-0.2,0.2s0.1,0.2,0.2,0.2s0.2-0.1,0.2-0.2S41.7,45.1,41.6,45.1z"/>
	<path class="st0" d="M41.6,46.3c-0.1,0-0.2,0.1-0.2,0.2s0.1,0.2,0.2,0.2s0.2-0.1,0.2-0.2S41.7,46.3,41.6,46.3z"/>
	<path class="st0" d="M42.2,42.4c0.1,0,0.2-0.1,0.2-0.2S42.3,42,42.2,42S42,42.1,42,42.2S42.1,42.4,42.2,42.4z"/>
	<path class="st0" d="M43.4,42.4c0.1,0,0.2-0.1,0.2-0.2S43.6,42,43.4,42s-0.2,0.1-0.2,0.2S43.3,42.4,43.4,42.4z"/>
	<path class="st0" d="M42.8,43c0.1,0,0.2-0.1,0.2-0.2s-0.1-0.2-0.2-0.2s-0.2,0.1-0.2,0.2S42.7,43,42.8,43z"/>
	<path class="st0" d="M42.2,43.6c0.1,0,0.2-0.1,0.2-0.2s-0.1-0.2-0.2-0.2S42,43.3,42,43.4S42.1,43.6,42.2,43.6z"/>
	<path class="st0" d="M43.4,43.6c0.1,0,0.2-0.1,0.2-0.2s-0.1-0.2-0.2-0.2s-0.2,0.1-0.2,0.2S43.3,43.6,43.4,43.6z"/>
	<path class="st0" d="M42.8,44.3c0.1,0,0.2-0.1,0.2-0.2s-0.1-0.2-0.2-0.2s-0.2,0.1-0.2,0.2S42.7,44.3,42.8,44.3z"/>
	<path class="st0" d="M44.7,42.4c0.1,0,0.2-0.1,0.2-0.2S44.8,42,44.7,42s-0.2,0.1-0.2,0.2S44.6,42.4,44.7,42.4z"/>
	<path class="st0" d="M45.9,42.4c0.1,0,0.2-0.1,0.2-0.2S46.1,42,45.9,42s-0.2,0.1-0.2,0.2S45.8,42.4,45.9,42.4z"/>
	<path class="st0" d="M45.3,43c0.1,0,0.2-0.1,0.2-0.2s-0.1-0.2-0.2-0.2s-0.2,0.1-0.2,0.2S45.2,43,45.3,43z"/>
	<path class="st0" d="M44.7,43.6c0.1,0,0.2-0.1,0.2-0.2s-0.1-0.2-0.2-0.2s-0.2,0.1-0.2,0.2S44.6,43.6,44.7,43.6z"/>
	<path class="st0" d="M45.9,43.6c0.1,0,0.2-0.1,0.2-0.2s-0.1-0.2-0.2-0.2s-0.2,0.1-0.2,0.2S45.8,43.6,45.9,43.6z"/>
	<path class="st0" d="M45.3,44.3c0.1,0,0.2-0.1,0.2-0.2s-0.1-0.2-0.2-0.2s-0.2,0.1-0.2,0.2S45.2,44.3,45.3,44.3z"/>
	<path class="st0" d="M44.1,43c0.1,0,0.2-0.1,0.2-0.2s-0.1-0.2-0.2-0.2s-0.2,0.1-0.2,0.2S43.9,43,44.1,43z"/>
	<path class="st0" d="M44.1,44.3c0.1,0,0.2-0.1,0.2-0.2s-0.1-0.2-0.2-0.2s-0.2,0.1-0.2,0.2S43.9,44.3,44.1,44.3z"/>
	<path class="st0" d="M46.6,43c0.1,0,0.2-0.1,0.2-0.2s-0.1-0.2-0.2-0.2s-0.2,0.1-0.2,0.2S46.4,43,46.6,43z"/>
	<path class="st0" d="M46.6,44.3c0.1,0,0.2-0.1,0.2-0.2s-0.1-0.2-0.2-0.2s-0.2,0.1-0.2,0.2S46.4,44.3,46.6,44.3z"/>
	<path class="st0" d="M42.2,44.9c0.1,0,0.2-0.1,0.2-0.2s-0.1-0.2-0.2-0.2S42,44.6,42,44.7S42.1,44.9,42.2,44.9z"/>
	<path class="st0" d="M43.4,44.9c0.1,0,0.2-0.1,0.2-0.2s-0.1-0.2-0.2-0.2s-0.2,0.1-0.2,0.2S43.3,44.9,43.4,44.9z"/>
	<path class="st0" d="M42.8,45.5c0.1,0,0.2-0.1,0.2-0.2s-0.1-0.2-0.2-0.2s-0.2,0.1-0.2,0.2S42.7,45.5,42.8,45.5z"/>
	<path class="st0" d="M42.2,46.1c0.1,0,0.2-0.1,0.2-0.2s-0.1-0.2-0.2-0.2S42,45.8,42,45.9S42.1,46.1,42.2,46.1z"/>
	<path class="st0" d="M43.4,46.1c0.1,0,0.2-0.1,0.2-0.2s-0.1-0.2-0.2-0.2s-0.2,0.1-0.2,0.2S43.3,46.1,43.4,46.1z"/>
	<path class="st0" d="M42.8,46.8c0.1,0,0.2-0.1,0.2-0.2s-0.1-0.2-0.2-0.2s-0.2,0.1-0.2,0.2S42.7,46.8,42.8,46.8z"/>
	<path class="st0" d="M44.7,44.9c0.1,0,0.2-0.1,0.2-0.2s-0.1-0.2-0.2-0.2s-0.2,0.1-0.2,0.2S44.6,44.9,44.7,44.9z"/>
	<path class="st0" d="M45.9,44.9c0.1,0,0.2-0.1,0.2-0.2s-0.1-0.2-0.2-0.2s-0.2,0.1-0.2,0.2S45.8,44.9,45.9,44.9z"/>
	<path class="st0" d="M45.3,45.5c0.1,0,0.2-0.1,0.2-0.2s-0.1-0.2-0.2-0.2s-0.2,0.1-0.2,0.2S45.2,45.5,45.3,45.5z"/>
	<path class="st0" d="M44.7,46.1c0.1,0,0.2-0.1,0.2-0.2s-0.1-0.2-0.2-0.2s-0.2,0.1-0.2,0.2S44.6,46.1,44.7,46.1z"/>
	<path class="st0" d="M45.9,46.1c0.1,0,0.2-0.1,0.2-0.2s-0.1-0.2-0.2-0.2s-0.2,0.1-0.2,0.2S45.8,46.1,45.9,46.1z"/>
	<path class="st0" d="M45.3,46.8c0.1,0,0.2-0.1,0.2-0.2s-0.1-0.2-0.2-0.2s-0.2,0.1-0.2,0.2S45.2,46.8,45.3,46.8z"/>
	<path class="st0" d="M44.1,45.5c0.1,0,0.2-0.1,0.2-0.2s-0.1-0.2-0.2-0.2s-0.2,0.1-0.2,0.2S43.9,45.5,44.1,45.5z"/>
	<path class="st0" d="M44.1,46.8c0.1,0,0.2-0.1,0.2-0.2s-0.1-0.2-0.2-0.2s-0.2,0.1-0.2,0.2S43.9,46.8,44.1,46.8z"/>
	<path class="st0" d="M46.6,45.5c0.1,0,0.2-0.1,0.2-0.2s-0.1-0.2-0.2-0.2s-0.2,0.1-0.2,0.2S46.4,45.5,46.6,45.5z"/>
	<path class="st0" d="M46.6,46.8c0.1,0,0.2-0.1,0.2-0.2s-0.1-0.2-0.2-0.2s-0.2,0.1-0.2,0.2S46.4,46.8,46.6,46.8z"/>
	<path class="st0" d="M39.7,47c-0.1,0-0.2,0.1-0.2,0.2s0.1,0.2,0.2,0.2s0.2-0.1,0.2-0.2S39.8,47,39.7,47z"/>
	<path class="st0" d="M40.9,47c-0.1,0-0.2,0.1-0.2,0.2s0.1,0.2,0.2,0.2s0.2-0.1,0.2-0.2S41.1,47,40.9,47z"/>
	<path class="st0" d="M40.3,47.6c-0.1,0-0.2,0.1-0.2,0.2s0.1,0.2,0.2,0.2s0.2-0.1,0.2-0.2S40.4,47.6,40.3,47.6z"/>
	<path class="st0" d="M40.9,48.2c-0.1,0-0.2,0.1-0.2,0.2s0.1,0.2,0.2,0.2s0.2-0.1,0.2-0.2S41.1,48.2,40.9,48.2z"/>
	<path class="st0" d="M40.3,48.8c-0.1,0-0.2,0.1-0.2,0.2s0.1,0.2,0.2,0.2s0.2-0.1,0.2-0.2S40.4,48.8,40.3,48.8z"/>
	<path class="st0" d="M41.6,47.6c-0.1,0-0.2,0.1-0.2,0.2s0.1,0.2,0.2,0.2s0.2-0.1,0.2-0.2S41.7,47.6,41.6,47.6z"/>
	<path class="st0" d="M41.6,48.8c-0.1,0-0.2,0.1-0.2,0.2s0.1,0.2,0.2,0.2s0.2-0.1,0.2-0.2S41.7,48.8,41.6,48.8z"/>
	<path class="st0" d="M40.9,49.5c-0.1,0-0.2,0.1-0.2,0.2s0.1,0.2,0.2,0.2s0.2-0.1,0.2-0.2S41.1,49.5,40.9,49.5z"/>
	<path class="st0" d="M41.6,50.1c-0.1,0-0.2,0.1-0.2,0.2s0.1,0.2,0.2,0.2s0.2-0.1,0.2-0.2S41.7,50.1,41.6,50.1z"/>
	<path class="st0" d="M42.2,47.4c0.1,0,0.2-0.1,0.2-0.2S42.3,47,42.2,47S42,47.1,42,47.2S42.1,47.4,42.2,47.4z"/>
	<path class="st0" d="M43.4,47.4c0.1,0,0.2-0.1,0.2-0.2S43.6,47,43.4,47s-0.2,0.1-0.2,0.2S43.3,47.4,43.4,47.4z"/>
	<path class="st0" d="M42.8,48c0.1,0,0.2-0.1,0.2-0.2s-0.1-0.2-0.2-0.2s-0.2,0.1-0.2,0.2S42.7,48,42.8,48z"/>
	<path class="st0" d="M42.2,48.6c0.1,0,0.2-0.1,0.2-0.2s-0.1-0.2-0.2-0.2S42,48.3,42,48.4S42.1,48.6,42.2,48.6z"/>
	<path class="st0" d="M43.4,48.6c0.1,0,0.2-0.1,0.2-0.2s-0.1-0.2-0.2-0.2s-0.2,0.1-0.2,0.2S43.3,48.6,43.4,48.6z"/>
	<path class="st0" d="M42.8,49.3c0.1,0,0.2-0.1,0.2-0.2s-0.1-0.2-0.2-0.2s-0.2,0.1-0.2,0.2S42.7,49.3,42.8,49.3z"/>
	<path class="st0" d="M44.7,47.4c0.1,0,0.2-0.1,0.2-0.2S44.8,47,44.7,47s-0.2,0.1-0.2,0.2S44.6,47.4,44.7,47.4z"/>
	<path class="st0" d="M45.9,47.4c0.1,0,0.2-0.1,0.2-0.2S46.1,47,45.9,47s-0.2,0.1-0.2,0.2S45.8,47.4,45.9,47.4z"/>
	<path class="st0" d="M45.3,48c0.1,0,0.2-0.1,0.2-0.2s-0.1-0.2-0.2-0.2s-0.2,0.1-0.2,0.2S45.2,48,45.3,48z"/>
	<path class="st0" d="M44.7,48.6c0.1,0,0.2-0.1,0.2-0.2s-0.1-0.2-0.2-0.2s-0.2,0.1-0.2,0.2S44.6,48.6,44.7,48.6z"/>
	<path class="st0" d="M45.9,48.6c0.1,0,0.2-0.1,0.2-0.2s-0.1-0.2-0.2-0.2s-0.2,0.1-0.2,0.2S45.8,48.6,45.9,48.6z"/>
	<path class="st0" d="M45.3,49.3c0.1,0,0.2-0.1,0.2-0.2s-0.1-0.2-0.2-0.2s-0.2,0.1-0.2,0.2S45.2,49.3,45.3,49.3z"/>
	<path class="st0" d="M44.1,48c0.1,0,0.2-0.1,0.2-0.2s-0.1-0.2-0.2-0.2s-0.2,0.1-0.2,0.2S43.9,48,44.1,48z"/>
	<path class="st0" d="M44.1,49.3c0.1,0,0.2-0.1,0.2-0.2s-0.1-0.2-0.2-0.2s-0.2,0.1-0.2,0.2S43.9,49.3,44.1,49.3z"/>
	<path class="st0" d="M46.6,48c0.1,0,0.2-0.1,0.2-0.2s-0.1-0.2-0.2-0.2s-0.2,0.1-0.2,0.2S46.4,48,46.6,48z"/>
	<path class="st0" d="M46.6,49.3c0.1,0,0.2-0.1,0.2-0.2s-0.1-0.2-0.2-0.2s-0.2,0.1-0.2,0.2S46.4,49.3,46.6,49.3z"/>
	<path class="st0" d="M42.2,49.9c0.1,0,0.2-0.1,0.2-0.2s-0.1-0.2-0.2-0.2S42,49.6,42,49.7S42.1,49.9,42.2,49.9z"/>
	<path class="st0" d="M43.4,49.9c0.1,0,0.2-0.1,0.2-0.2s-0.1-0.2-0.2-0.2s-0.2,0.1-0.2,0.2S43.3,49.9,43.4,49.9z"/>
	<path class="st0" d="M42.8,50.5c0.1,0,0.2-0.1,0.2-0.2s-0.1-0.2-0.2-0.2s-0.2,0.1-0.2,0.2S42.7,50.5,42.8,50.5z"/>
	<path class="st0" d="M43.4,51.1c0.1,0,0.2-0.1,0.2-0.2s-0.1-0.2-0.2-0.2s-0.2,0.1-0.2,0.2S43.3,51.1,43.4,51.1z"/>
	<path class="st0" d="M44.7,49.9c0.1,0,0.2-0.1,0.2-0.2s-0.1-0.2-0.2-0.2s-0.2,0.1-0.2,0.2S44.6,49.9,44.7,49.9z"/>
	<path class="st0" d="M45.9,49.9c0.1,0,0.2-0.1,0.2-0.2s-0.1-0.2-0.2-0.2s-0.2,0.1-0.2,0.2S45.8,49.9,45.9,49.9z"/>
	<path class="st0" d="M45.3,50.5c0.1,0,0.2-0.1,0.2-0.2s-0.1-0.2-0.2-0.2s-0.2,0.1-0.2,0.2S45.2,50.5,45.3,50.5z"/>
	<path class="st0" d="M44.7,51.1c0.1,0,0.2-0.1,0.2-0.2s-0.1-0.2-0.2-0.2s-0.2,0.1-0.2,0.2S44.6,51.1,44.7,51.1z"/>
	<path class="st0" d="M45.9,51.1c0.1,0,0.2-0.1,0.2-0.2s-0.1-0.2-0.2-0.2s-0.2,0.1-0.2,0.2S45.8,51.1,45.9,51.1z"/>
	<path class="st0" d="M45.3,51.8c0.1,0,0.2-0.1,0.2-0.2s-0.1-0.2-0.2-0.2s-0.2,0.1-0.2,0.2S45.2,51.8,45.3,51.8z"/>
	<path class="st0" d="M44.1,50.5c0.1,0,0.2-0.1,0.2-0.2s-0.1-0.2-0.2-0.2s-0.2,0.1-0.2,0.2S43.9,50.5,44.1,50.5z"/>
	<path class="st0" d="M46.6,50.5c0.1,0,0.2-0.1,0.2-0.2s-0.1-0.2-0.2-0.2s-0.2,0.1-0.2,0.2S46.4,50.5,46.6,50.5z"/>
	<path class="st0" d="M47.8,38c0.1,0,0.2-0.1,0.2-0.2s-0.1-0.2-0.2-0.2s-0.2,0.1-0.2,0.2S47.7,38,47.8,38z"/>
	<path class="st0" d="M47.2,38.6c0.1,0,0.2-0.1,0.2-0.2s-0.1-0.2-0.2-0.2S47,38.3,47,38.4S47.1,38.6,47.2,38.6z"/>
	<path class="st0" d="M48.4,38.6c0.1,0,0.2-0.1,0.2-0.2s-0.1-0.2-0.2-0.2s-0.2,0.1-0.2,0.2S48.3,38.6,48.4,38.6z"/>
	<path class="st0" d="M47.8,39.3c0.1,0,0.2-0.1,0.2-0.2s-0.1-0.2-0.2-0.2s-0.2,0.1-0.2,0.2S47.7,39.3,47.8,39.3z"/>
	<path class="st0" d="M50.3,38c0.1,0,0.2-0.1,0.2-0.2s-0.1-0.2-0.2-0.2s-0.2,0.1-0.2,0.2S50.2,38,50.3,38z"/>
	<path class="st0" d="M49.7,38.6c0.1,0,0.2-0.1,0.2-0.2s-0.1-0.2-0.2-0.2s-0.2,0.1-0.2,0.2S49.6,38.6,49.7,38.6z"/>
	<path class="st0" d="M50.9,38.6c0.1,0,0.2-0.1,0.2-0.2s-0.1-0.2-0.2-0.2s-0.2,0.1-0.2,0.2S50.8,38.6,50.9,38.6z"/>
	<path class="st0" d="M50.3,39.3c0.1,0,0.2-0.1,0.2-0.2s-0.1-0.2-0.2-0.2s-0.2,0.1-0.2,0.2S50.2,39.3,50.3,39.3z"/>
	<path class="st0" d="M49.1,38c0.1,0,0.2-0.1,0.2-0.2s-0.1-0.2-0.2-0.2s-0.2,0.1-0.2,0.2S48.9,38,49.1,38z"/>
	<path class="st0" d="M49.1,39.3c0.1,0,0.2-0.1,0.2-0.2s-0.1-0.2-0.2-0.2s-0.2,0.1-0.2,0.2S48.9,39.3,49.1,39.3z"/>
	<path class="st0" d="M51.6,38c0.1,0,0.2-0.1,0.2-0.2s-0.1-0.2-0.2-0.2s-0.2,0.1-0.2,0.2S51.4,38,51.6,38z"/>
	<path class="st0" d="M51.6,39.3c0.1,0,0.2-0.1,0.2-0.2s-0.1-0.2-0.2-0.2s-0.2,0.1-0.2,0.2S51.4,39.3,51.6,39.3z"/>
	<path class="st0" d="M47.2,39.9c0.1,0,0.2-0.1,0.2-0.2s-0.1-0.2-0.2-0.2S47,39.6,47,39.7S47.1,39.9,47.2,39.9z"/>
	<path class="st0" d="M48.4,39.9c0.1,0,0.2-0.1,0.2-0.2s-0.1-0.2-0.2-0.2s-0.2,0.1-0.2,0.2S48.3,39.9,48.4,39.9z"/>
	<path class="st0" d="M47.8,40.5c0.1,0,0.2-0.1,0.2-0.2s-0.1-0.2-0.2-0.2s-0.2,0.1-0.2,0.2S47.7,40.5,47.8,40.5z"/>
	<path class="st0" d="M47.2,41.1c0.1,0,0.2-0.1,0.2-0.2s-0.1-0.2-0.2-0.2S47,40.8,47,40.9S47.1,41.1,47.2,41.1z"/>
	<path class="st0" d="M48.4,41.1c0.1,0,0.2-0.1,0.2-0.2s-0.1-0.2-0.2-0.2s-0.2,0.1-0.2,0.2S48.3,41.1,48.4,41.1z"/>
	<path class="st0" d="M47.8,41.8c0.1,0,0.2-0.1,0.2-0.2s-0.1-0.2-0.2-0.2s-0.2,0.1-0.2,0.2S47.7,41.8,47.8,41.8z"/>
	<path class="st0" d="M49.7,39.9c0.1,0,0.2-0.1,0.2-0.2s-0.1-0.2-0.2-0.2s-0.2,0.1-0.2,0.2S49.6,39.9,49.7,39.9z"/>
	<path class="st0" d="M50.9,39.9c0.1,0,0.2-0.1,0.2-0.2s-0.1-0.2-0.2-0.2s-0.2,0.1-0.2,0.2S50.8,39.9,50.9,39.9z"/>
	<path class="st0" d="M50.3,40.5c0.1,0,0.2-0.1,0.2-0.2s-0.1-0.2-0.2-0.2s-0.2,0.1-0.2,0.2S50.2,40.5,50.3,40.5z"/>
	<path class="st0" d="M49.7,41.1c0.1,0,0.2-0.1,0.2-0.2s-0.1-0.2-0.2-0.2s-0.2,0.1-0.2,0.2S49.6,41.1,49.7,41.1z"/>
	<path class="st0" d="M50.9,41.1c0.1,0,0.2-0.1,0.2-0.2s-0.1-0.2-0.2-0.2s-0.2,0.1-0.2,0.2S50.8,41.1,50.9,41.1z"/>
	<path class="st0" d="M50.3,41.8c0.1,0,0.2-0.1,0.2-0.2s-0.1-0.2-0.2-0.2s-0.2,0.1-0.2,0.2S50.2,41.8,50.3,41.8z"/>
	<path class="st0" d="M49.1,40.5c0.1,0,0.2-0.1,0.2-0.2s-0.1-0.2-0.2-0.2s-0.2,0.1-0.2,0.2S48.9,40.5,49.1,40.5z"/>
	<path class="st0" d="M49.1,41.8c0.1,0,0.2-0.1,0.2-0.2s-0.1-0.2-0.2-0.2s-0.2,0.1-0.2,0.2S48.9,41.8,49.1,41.8z"/>
	<path class="st0" d="M51.6,40.5c0.1,0,0.2-0.1,0.2-0.2s-0.1-0.2-0.2-0.2s-0.2,0.1-0.2,0.2S51.4,40.5,51.6,40.5z"/>
	<path class="st0" d="M52.2,38.6c0.1,0,0.2-0.1,0.2-0.2s-0.1-0.2-0.2-0.2S52,38.3,52,38.4S52.1,38.6,52.2,38.6z"/>
	<path class="st0" d="M41.6,41.3c-0.1,0-0.2,0.1-0.2,0.2s0.1,0.2,0.2,0.2s0.2-0.1,0.2-0.2S41.7,41.3,41.6,41.3z"/>
	<path class="st0" d="M42.8,38c0.1,0,0.2-0.1,0.2-0.2s-0.1-0.2-0.2-0.2s-0.2,0.1-0.2,0.2S42.7,38,42.8,38z"/>
	<path class="st0" d="M43.4,38.6c0.1,0,0.2-0.1,0.2-0.2s-0.1-0.2-0.2-0.2s-0.2,0.1-0.2,0.2S43.3,38.6,43.4,38.6z"/>
	<path class="st0" d="M42.8,39.3c0.1,0,0.2-0.1,0.2-0.2s-0.1-0.2-0.2-0.2s-0.2,0.1-0.2,0.2S42.7,39.3,42.8,39.3z"/>
	<path class="st0" d="M45.3,38c0.1,0,0.2-0.1,0.2-0.2s-0.1-0.2-0.2-0.2s-0.2,0.1-0.2,0.2S45.2,38,45.3,38z"/>
	<path class="st0" d="M44.7,38.6c0.1,0,0.2-0.1,0.2-0.2s-0.1-0.2-0.2-0.2s-0.2,0.1-0.2,0.2S44.6,38.6,44.7,38.6z"/>
	<path class="st0" d="M45.9,38.6c0.1,0,0.2-0.1,0.2-0.2s-0.1-0.2-0.2-0.2s-0.2,0.1-0.2,0.2S45.8,38.6,45.9,38.6z"/>
	<path class="st0" d="M45.3,39.3c0.1,0,0.2-0.1,0.2-0.2s-0.1-0.2-0.2-0.2s-0.2,0.1-0.2,0.2S45.2,39.3,45.3,39.3z"/>
	<path class="st0" d="M44.1,38c0.1,0,0.2-0.1,0.2-0.2s-0.1-0.2-0.2-0.2s-0.2,0.1-0.2,0.2S43.9,38,44.1,38z"/>
	<path class="st0" d="M44.1,39.3c0.1,0,0.2-0.1,0.2-0.2s-0.1-0.2-0.2-0.2s-0.2,0.1-0.2,0.2S43.9,39.3,44.1,39.3z"/>
	<path class="st0" d="M46.6,38c0.1,0,0.2-0.1,0.2-0.2s-0.1-0.2-0.2-0.2s-0.2,0.1-0.2,0.2S46.4,38,46.6,38z"/>
	<path class="st0" d="M46.6,39.3c0.1,0,0.2-0.1,0.2-0.2s-0.1-0.2-0.2-0.2s-0.2,0.1-0.2,0.2S46.4,39.3,46.6,39.3z"/>
	<path class="st0" d="M42.2,39.9c0.1,0,0.2-0.1,0.2-0.2s-0.1-0.2-0.2-0.2S42,39.6,42,39.7S42.1,39.9,42.2,39.9z"/>
	<path class="st0" d="M43.4,39.9c0.1,0,0.2-0.1,0.2-0.2s-0.1-0.2-0.2-0.2s-0.2,0.1-0.2,0.2S43.3,39.9,43.4,39.9z"/>
	<path class="st0" d="M42.8,40.5c0.1,0,0.2-0.1,0.2-0.2s-0.1-0.2-0.2-0.2s-0.2,0.1-0.2,0.2S42.7,40.5,42.8,40.5z"/>
	<path class="st0" d="M42.2,41.1c0.1,0,0.2-0.1,0.2-0.2s-0.1-0.2-0.2-0.2S42,40.8,42,40.9S42.1,41.1,42.2,41.1z"/>
	<path class="st0" d="M43.4,41.1c0.1,0,0.2-0.1,0.2-0.2s-0.1-0.2-0.2-0.2s-0.2,0.1-0.2,0.2S43.3,41.1,43.4,41.1z"/>
	<path class="st0" d="M42.8,41.8c0.1,0,0.2-0.1,0.2-0.2s-0.1-0.2-0.2-0.2s-0.2,0.1-0.2,0.2S42.7,41.8,42.8,41.8z"/>
	<path class="st0" d="M44.7,39.9c0.1,0,0.2-0.1,0.2-0.2s-0.1-0.2-0.2-0.2s-0.2,0.1-0.2,0.2S44.6,39.9,44.7,39.9z"/>
	<path class="st0" d="M45.9,39.9c0.1,0,0.2-0.1,0.2-0.2s-0.1-0.2-0.2-0.2s-0.2,0.1-0.2,0.2S45.8,39.9,45.9,39.9z"/>
	<path class="st0" d="M45.3,40.5c0.1,0,0.2-0.1,0.2-0.2s-0.1-0.2-0.2-0.2s-0.2,0.1-0.2,0.2S45.2,40.5,45.3,40.5z"/>
	<path class="st0" d="M44.7,41.1c0.1,0,0.2-0.1,0.2-0.2s-0.1-0.2-0.2-0.2s-0.2,0.1-0.2,0.2S44.6,41.1,44.7,41.1z"/>
	<path class="st0" d="M45.9,41.1c0.1,0,0.2-0.1,0.2-0.2s-0.1-0.2-0.2-0.2s-0.2,0.1-0.2,0.2S45.8,41.1,45.9,41.1z"/>
	<path class="st0" d="M45.3,41.8c0.1,0,0.2-0.1,0.2-0.2s-0.1-0.2-0.2-0.2s-0.2,0.1-0.2,0.2S45.2,41.8,45.3,41.8z"/>
	<path class="st0" d="M44.1,40.5c0.1,0,0.2-0.1,0.2-0.2s-0.1-0.2-0.2-0.2s-0.2,0.1-0.2,0.2S43.9,40.5,44.1,40.5z"/>
	<path class="st0" d="M44.1,41.8c0.1,0,0.2-0.1,0.2-0.2s-0.1-0.2-0.2-0.2s-0.2,0.1-0.2,0.2S43.9,41.8,44.1,41.8z"/>
	<path class="st0" d="M46.6,40.5c0.1,0,0.2-0.1,0.2-0.2s-0.1-0.2-0.2-0.2s-0.2,0.1-0.2,0.2S46.4,40.5,46.6,40.5z"/>
	<path class="st0" d="M46.6,41.8c0.1,0,0.2-0.1,0.2-0.2s-0.1-0.2-0.2-0.2s-0.2,0.1-0.2,0.2S46.4,41.8,46.6,41.8z"/>
	<path class="st0" d="M45.6,57.7c-0.1,0-0.2,0.1-0.2,0.2s0.1,0.2,0.2,0.2s0.2-0.1,0.2-0.2S45.7,57.7,45.6,57.7z"/>
	<path class="st0" d="M45,58.3c-0.1,0-0.2,0.1-0.2,0.2s0.1,0.2,0.2,0.2s0.2-0.1,0.2-0.2S45.1,58.3,45,58.3z"/>
	<path class="st0" d="M45.6,58.9c-0.1,0-0.2,0.1-0.2,0.2s0.1,0.2,0.2,0.2s0.2-0.1,0.2-0.2S45.7,58.9,45.6,58.9z"/>
	<path class="st0" d="M45,59.5c-0.1,0-0.2,0.1-0.2,0.2S44.9,60,45,60s0.2-0.1,0.2-0.2S45.1,59.5,45,59.5z"/>
	<path class="st0" d="M46.9,58.9c-0.1,0-0.2,0.1-0.2,0.2s0.1,0.2,0.2,0.2s0.2-0.1,0.2-0.2S47,58.9,46.9,58.9z"/>
	<path class="st0" d="M47.5,59.5c-0.1,0-0.2,0.1-0.2,0.2s0.1,0.2,0.2,0.2s0.2-0.1,0.2-0.2S47.6,59.5,47.5,59.5z"/>
	<path class="st0" d="M46.3,58.3c-0.1,0-0.2,0.1-0.2,0.2s0.1,0.2,0.2,0.2s0.2-0.1,0.2-0.2S46.4,58.3,46.3,58.3z"/>
	<path class="st0" d="M46.3,59.5c-0.1,0-0.2,0.1-0.2,0.2s0.1,0.2,0.2,0.2s0.2-0.1,0.2-0.2S46.4,59.5,46.3,59.5z"/>
	<path class="st0" d="M45.6,60.2c-0.1,0-0.2,0.1-0.2,0.2s0.1,0.2,0.2,0.2s0.2-0.1,0.2-0.2S45.7,60.2,45.6,60.2z"/>
	<path class="st0" d="M45,60.8c-0.1,0-0.2,0.1-0.2,0.2s0.1,0.2,0.2,0.2s0.2-0.1,0.2-0.2S45.1,60.8,45,60.8z"/>
	<path class="st0" d="M45.6,61.4c-0.1,0-0.2,0.1-0.2,0.2s0.1,0.2,0.2,0.2s0.2-0.1,0.2-0.2S45.7,61.4,45.6,61.4z"/>
	<path class="st0" d="M45,62c-0.1,0-0.2,0.1-0.2,0.2s0.1,0.2,0.2,0.2s0.2-0.1,0.2-0.2S45.1,62,45,62z"/>
	<path class="st0" d="M46.9,60.2c-0.1,0-0.2,0.1-0.2,0.2s0.1,0.2,0.2,0.2s0.2-0.1,0.2-0.2S47,60.2,46.9,60.2z"/>
	<path class="st0" d="M48.1,60.2c-0.1,0-0.2,0.1-0.2,0.2s0.1,0.2,0.2,0.2s0.2-0.1,0.2-0.2S48.2,60.2,48.1,60.2z"/>
	<path class="st0" d="M47.5,60.8c-0.1,0-0.2,0.1-0.2,0.2s0.1,0.2,0.2,0.2s0.2-0.1,0.2-0.2S47.6,60.8,47.5,60.8z"/>
	<path class="st0" d="M46.9,61.4c-0.1,0-0.2,0.1-0.2,0.2s0.1,0.2,0.2,0.2s0.2-0.1,0.2-0.2S47,61.4,46.9,61.4z"/>
	<path class="st0" d="M47.5,62c-0.1,0-0.2,0.1-0.2,0.2s0.1,0.2,0.2,0.2s0.2-0.1,0.2-0.2S47.6,62,47.5,62z"/>
	<path class="st0" d="M46.3,60.8c-0.1,0-0.2,0.1-0.2,0.2s0.1,0.2,0.2,0.2s0.2-0.1,0.2-0.2S46.4,60.8,46.3,60.8z"/>
	<path class="st0" d="M46.3,62c-0.1,0-0.2,0.1-0.2,0.2s0.1,0.2,0.2,0.2s0.2-0.1,0.2-0.2S46.4,62,46.3,62z"/>
	<path class="st0" d="M45.6,62.7c-0.1,0-0.2,0.1-0.2,0.2s0.1,0.2,0.2,0.2s0.2-0.1,0.2-0.2S45.7,62.7,45.6,62.7z"/>
	<path class="st0" d="M45.6,63.9c-0.1,0-0.2,0.1-0.2,0.2s0.1,0.2,0.2,0.2s0.2-0.1,0.2-0.2S45.7,63.9,45.6,63.9z"/>
	<path class="st0" d="M46.9,62.7c-0.1,0-0.2,0.1-0.2,0.2s0.1,0.2,0.2,0.2s0.2-0.1,0.2-0.2S47,62.7,46.9,62.7z"/>
	<path class="st0" d="M46.9,63.9c-0.1,0-0.2,0.1-0.2,0.2s0.1,0.2,0.2,0.2s0.2-0.1,0.2-0.2S47,63.9,46.9,63.9z"/>
	<path class="st0" d="M46.3,63.3c-0.1,0-0.2,0.1-0.2,0.2s0.1,0.2,0.2,0.2s0.2-0.1,0.2-0.2S46.4,63.3,46.3,63.3z"/>
	<path class="st0" d="M46.3,64.5c-0.1,0-0.2,0.1-0.2,0.2s0.1,0.2,0.2,0.2s0.2-0.1,0.2-0.2S46.4,64.5,46.3,64.5z"/>
	<path class="st0" d="M46.3,65.8c-0.1,0-0.2,0.1-0.2,0.2s0.1,0.2,0.2,0.2s0.2-0.1,0.2-0.2S46.4,65.8,46.3,65.8z"/>
</g>
</svg>
