<?xml version="1.0" encoding="utf-8"?>
<!-- Generator: Adobe Illustrator 23.1.1, SVG Export Plug-In . SVG Version: 6.00 Build 0) -->
<svg version="1.1" id="Layer_1" xmlns="http://www.w3.org/2000/svg" xmlns:xlink="http://www.w3.org/1999/xlink" x="0px" y="0px" viewBox="0 0 100 100" style="enable-background:new 0 0 100 100;" xml:space="preserve">
	<style type="text/css">
		.st0{fill:#231F20;}
	</style>
	<g>
		<path class="st0" d="M85,73h-3v-3v-2h-2h-3V37h3h2v-2v-5v-1.4l-1.4-0.5l-30-10L50,17.9l-0.6,0.2l-30,10L18,28.6V30v5v2h2h3v31h-3
		h-2v2v3h-3h-2v2v5v2h2h70h2v-2v-5v-2H85z M38,37v31h-6V37H38z M40,35.5h0.2c0,0,0,0,0.1,0s0,0,0.1,0h1.1c0,0,0,0,0.1,0s0,0,0.1,0
		h1.1c0,0,0,0,0.1,0s0,0,0.1,0H44c0,0,0,0,0.1,0s0,0,0.1,0H45v34h-5V35.5z M53,37v31h-6V37H53z M55,35.5L55,35.5c0.1,0,0,0.1,0,0.1
		c0,0.1,0.1,0.2,0.2,0.2s0.2-0.1,0.2-0.2c0,0,0-0.1-0.1-0.1h0.9c0,0-0.1,0.1-0.1,0.1c0,0.1,0.1,0.2,0.2,0.2s0.2-0.1,0.2-0.2
		c0,0,0-0.1-0.1-0.1h0.9c0,0-0.1,0.1-0.1,0.1c0,0.1,0.1,0.2,0.2,0.2s0.2-0.1,0.2-0.2c0,0,0-0.1-0.1-0.1h0.9c0,0-0.1,0.1-0.1,0.1
		c0,0.1,0.1,0.2,0.2,0.2s0.2-0.1,0.2-0.2c0,0,0-0.1-0.1-0.1H60v34h-5V35.5z M68,37v31h-6V37H68z M70,35.5L70,35.5c0.1,0,0,0.1,0,0.1
		c0,0.1,0.1,0.2,0.2,0.2s0.2-0.1,0.2-0.2c0,0,0-0.1-0.1-0.1h0.9c0,0-0.1,0.1-0.1,0.1c0,0.1,0.1,0.2,0.2,0.2s0.2-0.1,0.2-0.2
		c0,0,0-0.1-0.1-0.1h0.9c0,0-0.1,0.1-0.1,0.1c0,0.1,0.1,0.2,0.2,0.2s0.2-0.1,0.2-0.2c0,0,0-0.1-0.1-0.1h0.9c0,0-0.1,0.1-0.1,0.1
		c0,0.1,0.1,0.2,0.2,0.2s0.2-0.1,0.2-0.2c0,0,0-0.1-0.1-0.1H75v34h-5V35.5z M25.2,35.5C25.3,35.5,25.3,35.5,25.2,35.5
		c0.1,0,0.1,0,0.1,0h1.1c0,0,0,0,0.1,0s0,0,0.1,0h1.1c0,0,0,0,0.1,0s0,0,0.1,0H29c0,0,0,0,0.1,0s0,0,0.1,0H30v34h-5v-34H25.2z
		 M20,30l30-10l30,10v4.5H20V35h0V30z M20,70v0.5h60v4H20L20,70L20,70z M15,80v-5h0v0.5h70V80H15z" />
		<path class="st0" d="M40.9,35.7c-0.1,0-0.2,0.1-0.2,0.2s0.1,0.2,0.2,0.2s0.2-0.1,0.2-0.2S41,35.7,40.9,35.7z" />
		<path class="st0" d="M40.3,36.3c-0.1,0-0.2,0.1-0.2,0.2s0.1,0.2,0.2,0.2s0.2-0.1,0.2-0.2S40.4,36.3,40.3,36.3z" />
		<path class="st0" d="M41.5,36.3c-0.1,0-0.2,0.1-0.2,0.2s0.1,0.2,0.2,0.2s0.2-0.1,0.2-0.2S41.7,36.3,41.5,36.3z" />
		<path class="st0" d="M40.9,37c-0.1,0-0.2,0.1-0.2,0.2s0.1,0.2,0.2,0.2s0.2-0.1,0.2-0.2S41,37,40.9,37z" />
		<path class="st0" d="M43.4,35.7c-0.1,0-0.2,0.1-0.2,0.2s0.1,0.2,0.2,0.2s0.2-0.1,0.2-0.2S43.5,35.7,43.4,35.7z" />
		<path class="st0" d="M42.8,36.3c-0.1,0-0.2,0.1-0.2,0.2s0.1,0.2,0.2,0.2s0.2-0.1,0.2-0.2S42.9,36.3,42.8,36.3z" />
		<path class="st0" d="M44,36.3c-0.1,0-0.2,0.1-0.2,0.2s0.1,0.2,0.2,0.2s0.2-0.1,0.2-0.2S44.2,36.3,44,36.3z" />
		<path class="st0" d="M43.4,37c-0.1,0-0.2,0.1-0.2,0.2s0.1,0.2,0.2,0.2s0.2-0.1,0.2-0.2S43.5,37,43.4,37z" />
		<path class="st0" d="M42.2,35.7c-0.1,0-0.2,0.1-0.2,0.2s0.1,0.2,0.2,0.2s0.2-0.1,0.2-0.2S42.3,35.7,42.2,35.7z" />
		<path class="st0" d="M42.2,37C42,37,42,37.1,42,37.2s0.1,0.2,0.2,0.2s0.2-0.1,0.2-0.2S42.3,37,42.2,37z" />
		<path class="st0" d="M44.7,36.1c0.1,0,0.2-0.1,0.2-0.2s-0.1-0.2-0.2-0.2s-0.2,0.1-0.2,0.2S44.5,36.1,44.7,36.1z" />
		<path class="st0" d="M44.7,37c-0.1,0-0.2,0.1-0.2,0.2s0.1,0.2,0.2,0.2s0.2-0.1,0.2-0.2S44.8,37,44.7,37z" />
		<path class="st0" d="M40.3,37.6c-0.1,0-0.2,0.1-0.2,0.2s0.1,0.2,0.2,0.2s0.2-0.1,0.2-0.2S40.4,37.6,40.3,37.6z" />
		<path class="st0" d="M41.5,37.6c-0.1,0-0.2,0.1-0.2,0.2s0.1,0.2,0.2,0.2s0.2-0.1,0.2-0.2S41.7,37.6,41.5,37.6z" />
		<path class="st0" d="M40.9,38.2c-0.1,0-0.2,0.1-0.2,0.2s0.1,0.2,0.2,0.2s0.2-0.1,0.2-0.2S41,38.2,40.9,38.2z" />
		<path class="st0" d="M40.3,38.8c-0.1,0-0.2,0.1-0.2,0.2s0.1,0.2,0.2,0.2s0.2-0.1,0.2-0.2S40.4,38.8,40.3,38.8z" />
		<path class="st0" d="M41.5,38.8c-0.1,0-0.2,0.1-0.2,0.2s0.1,0.2,0.2,0.2s0.2-0.1,0.2-0.2S41.7,38.8,41.5,38.8z" />
		<path class="st0" d="M40.9,39.5c-0.1,0-0.2,0.1-0.2,0.2s0.1,0.2,0.2,0.2s0.2-0.1,0.2-0.2S41,39.5,40.9,39.5z" />
		<path class="st0" d="M42.8,37.6c-0.1,0-0.2,0.1-0.2,0.2s0.1,0.2,0.2,0.2s0.2-0.1,0.2-0.2S42.9,37.6,42.8,37.6z" />
		<path class="st0" d="M44,37.6c-0.1,0-0.2,0.1-0.2,0.2S43.9,38,44,38s0.2-0.1,0.2-0.2S44.2,37.6,44,37.6z" />
		<path class="st0" d="M43.4,38.2c-0.1,0-0.2,0.1-0.2,0.2s0.1,0.2,0.2,0.2s0.2-0.1,0.2-0.2S43.5,38.2,43.4,38.2z" />
		<path class="st0" d="M42.8,38.8c-0.1,0-0.2,0.1-0.2,0.2s0.1,0.2,0.2,0.2s0.2-0.1,0.2-0.2S42.9,38.8,42.8,38.8z" />
		<path class="st0" d="M44,38.8c-0.1,0-0.2,0.1-0.2,0.2s0.1,0.2,0.2,0.2s0.2-0.1,0.2-0.2S44.2,38.8,44,38.8z" />
		<path class="st0" d="M43.4,39.5c-0.1,0-0.2,0.1-0.2,0.2s0.1,0.2,0.2,0.2s0.2-0.1,0.2-0.2S43.5,39.5,43.4,39.5z" />
		<path class="st0" d="M42.2,38.2c-0.1,0-0.2,0.1-0.2,0.2s0.1,0.2,0.2,0.2s0.2-0.1,0.2-0.2S42.3,38.2,42.2,38.2z" />
		<path class="st0" d="M42.2,39.5c-0.1,0-0.2,0.1-0.2,0.2s0.1,0.2,0.2,0.2s0.2-0.1,0.2-0.2S42.3,39.5,42.2,39.5z" />
		<path class="st0" d="M44.7,38.2c-0.1,0-0.2,0.1-0.2,0.2s0.1,0.2,0.2,0.2s0.2-0.1,0.2-0.2S44.8,38.2,44.7,38.2z" />
		<path class="st0" d="M44.7,39.5c-0.1,0-0.2,0.1-0.2,0.2s0.1,0.2,0.2,0.2s0.2-0.1,0.2-0.2S44.8,39.5,44.7,39.5z" />
		<path class="st0" d="M40.3,40.1c-0.1,0-0.2,0.1-0.2,0.2s0.1,0.2,0.2,0.2s0.2-0.1,0.2-0.2S40.4,40.1,40.3,40.1z" />
		<path class="st0" d="M41.5,40.1c-0.1,0-0.2,0.1-0.2,0.2s0.1,0.2,0.2,0.2s0.2-0.1,0.2-0.2S41.7,40.1,41.5,40.1z" />
		<path class="st0" d="M42.8,40.1c-0.1,0-0.2,0.1-0.2,0.2s0.1,0.2,0.2,0.2s0.2-0.1,0.2-0.2S42.9,40.1,42.8,40.1z" />
		<path class="st0" d="M44,40.1c-0.1,0-0.2,0.1-0.2,0.2s0.1,0.2,0.2,0.2s0.2-0.1,0.2-0.2S44.2,40.1,44,40.1z" />
		<path class="st0" d="M25.9,36.1c0.1,0,0.2-0.1,0.2-0.2s-0.1-0.2-0.2-0.2s-0.2,0.1-0.2,0.2S25.8,36.1,25.9,36.1z" />
		<path class="st0" d="M25.3,36.8c0.1,0,0.2-0.1,0.2-0.2s-0.1-0.2-0.2-0.2s-0.2,0.1-0.2,0.2S25.2,36.8,25.3,36.8z" />
		<path class="st0" d="M26.5,36.8c0.1,0,0.2-0.1,0.2-0.2s-0.1-0.2-0.2-0.2s-0.2,0.1-0.2,0.2S26.4,36.8,26.5,36.8z" />
		<path class="st0" d="M25.9,37.4c0.1,0,0.2-0.1,0.2-0.2S26,37,25.9,37s-0.2,0.1-0.2,0.2S25.8,37.4,25.9,37.4z" />
		<path class="st0" d="M28.4,36.1c0.1,0,0.2-0.1,0.2-0.2s-0.1-0.2-0.2-0.2s-0.2,0.1-0.2,0.2S28.3,36.1,28.4,36.1z" />
		<path class="st0" d="M27.8,36.8c0.1,0,0.2-0.1,0.2-0.2s-0.1-0.2-0.2-0.2s-0.2,0.1-0.2,0.2S27.7,36.8,27.8,36.8z" />
		<path class="st0" d="M29,36.8c0.1,0,0.2-0.1,0.2-0.2s-0.1-0.2-0.2-0.2s-0.2,0.1-0.2,0.2S28.9,36.8,29,36.8z" />
		<path class="st0" d="M28.4,37.4c0.1,0,0.2-0.1,0.2-0.2S28.5,37,28.4,37s-0.2,0.1-0.2,0.2S28.3,37.4,28.4,37.4z" />
		<path class="st0" d="M27.2,36.1c0.1,0,0.2-0.1,0.2-0.2s-0.1-0.2-0.2-0.2S27,35.8,27,35.9S27,36.1,27.2,36.1z" />
		<path class="st0" d="M27.2,37.4c0.1,0,0.2-0.1,0.2-0.2S27.3,37,27.2,37S27,37.1,27,37.2S27,37.4,27.2,37.4z" />
		<path class="st0" d="M29.7,36.1c0.1,0,0.2-0.1,0.2-0.2s-0.1-0.2-0.2-0.2s-0.2,0.1-0.2,0.2S29.5,36.1,29.7,36.1z" />
		<path class="st0" d="M29.7,37.4c0.1,0,0.2-0.1,0.2-0.2S29.8,37,29.7,37s-0.2,0.1-0.2,0.2S29.5,37.4,29.7,37.4z" />
		<path class="st0" d="M25.3,38c0.1,0,0.2-0.1,0.2-0.2s-0.1-0.2-0.2-0.2s-0.2,0.1-0.2,0.2S25.2,38,25.3,38z" />
		<path class="st0" d="M26.5,38c0.1,0,0.2-0.1,0.2-0.2s-0.1-0.2-0.2-0.2s-0.2,0.1-0.2,0.2S26.4,38,26.5,38z" />
		<path class="st0" d="M25.9,38.6c0.1,0,0.2-0.1,0.2-0.2s-0.1-0.2-0.2-0.2s-0.2,0.1-0.2,0.2S25.8,38.6,25.9,38.6z" />
		<path class="st0" d="M25.3,39.3c0.1,0,0.2-0.1,0.2-0.2s-0.1-0.2-0.2-0.2s-0.2,0.1-0.2,0.2S25.2,39.3,25.3,39.3z" />
		<path class="st0" d="M26.5,39.3c0.1,0,0.2-0.1,0.2-0.2s-0.1-0.2-0.2-0.2s-0.2,0.1-0.2,0.2S26.4,39.3,26.5,39.3z" />
		<path class="st0" d="M25.9,39.9c0.1,0,0.2-0.1,0.2-0.2s-0.1-0.2-0.2-0.2s-0.2,0.1-0.2,0.2S25.8,39.9,25.9,39.9z" />
		<path class="st0" d="M27.8,38c0.1,0,0.2-0.1,0.2-0.2s-0.1-0.2-0.2-0.2s-0.2,0.1-0.2,0.2S27.7,38,27.8,38z" />
		<path class="st0" d="M29,38c0.1,0,0.2-0.1,0.2-0.2s-0.1-0.2-0.2-0.2s-0.2,0.1-0.2,0.2S28.9,38,29,38z" />
		<path class="st0" d="M28.4,38.6c0.1,0,0.2-0.1,0.2-0.2s-0.1-0.2-0.2-0.2s-0.2,0.1-0.2,0.2S28.3,38.6,28.4,38.6z" />
		<path class="st0" d="M27.8,39.3c0.1,0,0.2-0.1,0.2-0.2s-0.1-0.2-0.2-0.2s-0.2,0.1-0.2,0.2S27.7,39.3,27.8,39.3z" />
		<path class="st0" d="M29,39.3c0.1,0,0.2-0.1,0.2-0.2s-0.1-0.2-0.2-0.2s-0.2,0.1-0.2,0.2S28.9,39.3,29,39.3z" />
		<path class="st0" d="M28.4,39.9c0.1,0,0.2-0.1,0.2-0.2s-0.1-0.2-0.2-0.2s-0.2,0.1-0.2,0.2S28.3,39.9,28.4,39.9z" />
		<path class="st0" d="M27.2,38.6c0.1,0,0.2-0.1,0.2-0.2s-0.1-0.2-0.2-0.2S27,38.3,27,38.4S27,38.6,27.2,38.6z" />
		<path class="st0" d="M27.2,39.9c0.1,0,0.2-0.1,0.2-0.2s-0.1-0.2-0.2-0.2S27,39.6,27,39.7S27,39.9,27.2,39.9z" />
		<path class="st0" d="M29.7,38.6c0.1,0,0.2-0.1,0.2-0.2s-0.1-0.2-0.2-0.2s-0.2,0.1-0.2,0.2S29.5,38.6,29.7,38.6z" />
		<path class="st0" d="M29.7,39.9c0.1,0,0.2-0.1,0.2-0.2s-0.1-0.2-0.2-0.2s-0.2,0.1-0.2,0.2S29.5,39.9,29.7,39.9z" />
		<path class="st0" d="M25.3,40.1c-0.1,0-0.2,0.1-0.2,0.2s0.1,0.2,0.2,0.2s0.2-0.1,0.2-0.2S25.4,40.1,25.3,40.1z" />
		<path class="st0" d="M26.5,40.5c0.1,0,0.2-0.1,0.2-0.2s-0.1-0.2-0.2-0.2s-0.2,0.1-0.2,0.2S26.4,40.5,26.5,40.5z" />
		<path class="st0" d="M27.8,40.5c0.1,0,0.2-0.1,0.2-0.2s-0.1-0.2-0.2-0.2s-0.2,0.1-0.2,0.2S27.7,40.5,27.8,40.5z" />
		<path class="st0" d="M29,40.5c0.1,0,0.2-0.1,0.2-0.2s-0.1-0.2-0.2-0.2s-0.2,0.1-0.2,0.2S28.9,40.5,29,40.5z" />
		<path class="st0" d="M70.9,36c-0.1,0-0.2,0.1-0.2,0.2s0.1,0.2,0.2,0.2s0.2-0.1,0.2-0.2S71,36,70.9,36z" />
		<path class="st0" d="M70.3,36.7c-0.1,0-0.2,0.1-0.2,0.2s0.1,0.2,0.2,0.2s0.2-0.1,0.2-0.2S70.4,36.7,70.3,36.7z" />
		<path class="st0" d="M71.5,36.7c-0.1,0-0.2,0.1-0.2,0.2s0.1,0.2,0.2,0.2s0.2-0.1,0.2-0.2S71.6,36.7,71.5,36.7z" />
		<path class="st0" d="M70.9,37.3c-0.1,0-0.2,0.1-0.2,0.2s0.1,0.2,0.2,0.2s0.2-0.1,0.2-0.2S71,37.3,70.9,37.3z" />
		<path class="st0" d="M73.4,36c-0.1,0-0.2,0.1-0.2,0.2s0.1,0.2,0.2,0.2s0.2-0.1,0.2-0.2S73.5,36,73.4,36z" />
		<path class="st0" d="M72.8,36.7c-0.1,0-0.2,0.1-0.2,0.2s0.1,0.2,0.2,0.2S73,37,73,36.9S72.9,36.7,72.8,36.7z" />
		<path class="st0" d="M74,36.7c-0.1,0-0.2,0.1-0.2,0.2s0.1,0.2,0.2,0.2s0.2-0.1,0.2-0.2S74.1,36.7,74,36.7z" />
		<path class="st0" d="M73.4,37.3c-0.1,0-0.2,0.1-0.2,0.2s0.1,0.2,0.2,0.2s0.2-0.1,0.2-0.2S73.5,37.3,73.4,37.3z" />
		<path class="st0" d="M72.1,36c-0.1,0-0.2,0.1-0.2,0.2s0.1,0.2,0.2,0.2s0.2-0.1,0.2-0.2S72.2,36,72.1,36z" />
		<path class="st0" d="M72.1,37.3c-0.1,0-0.2,0.1-0.2,0.2s0.1,0.2,0.2,0.2s0.2-0.1,0.2-0.2S72.2,37.3,72.1,37.3z" />
		<path class="st0" d="M74.6,36.5c0.1,0,0.2-0.1,0.2-0.2S74.7,36,74.6,36s-0.2,0.1-0.2,0.2S74.5,36.5,74.6,36.5z" />
		<path class="st0" d="M74.6,37.3c-0.1,0-0.2,0.1-0.2,0.2s0.1,0.2,0.2,0.2s0.2-0.1,0.2-0.2S74.7,37.3,74.6,37.3z" />
		<path class="st0" d="M70.3,37.9c-0.1,0-0.2,0.1-0.2,0.2s0.1,0.2,0.2,0.2s0.2-0.1,0.2-0.2S70.4,37.9,70.3,37.9z" />
		<path class="st0" d="M71.5,37.9c-0.1,0-0.2,0.1-0.2,0.2s0.1,0.2,0.2,0.2s0.2-0.1,0.2-0.2S71.6,37.9,71.5,37.9z" />
		<path class="st0" d="M70.9,38.5c-0.1,0-0.2,0.1-0.2,0.2s0.1,0.2,0.2,0.2s0.2-0.1,0.2-0.2S71,38.5,70.9,38.5z" />
		<path class="st0" d="M70.3,39.2c-0.1,0-0.2,0.1-0.2,0.2s0.1,0.2,0.2,0.2s0.2-0.1,0.2-0.2S70.4,39.2,70.3,39.2z" />
		<path class="st0" d="M71.5,39.2c-0.1,0-0.2,0.1-0.2,0.2s0.1,0.2,0.2,0.2s0.2-0.1,0.2-0.2S71.6,39.2,71.5,39.2z" />
		<path class="st0" d="M70.9,39.8c-0.1,0-0.2,0.1-0.2,0.2s0.1,0.2,0.2,0.2s0.2-0.1,0.2-0.2S71,39.8,70.9,39.8z" />
		<path class="st0" d="M72.8,37.9c-0.1,0-0.2,0.1-0.2,0.2s0.1,0.2,0.2,0.2s0.2-0.1,0.2-0.2S72.9,37.9,72.8,37.9z" />
		<path class="st0" d="M74,37.9c-0.1,0-0.2,0.1-0.2,0.2s0.1,0.2,0.2,0.2s0.2-0.1,0.2-0.2S74.1,37.9,74,37.9z" />
		<path class="st0" d="M73.4,38.5c-0.1,0-0.2,0.1-0.2,0.2s0.1,0.2,0.2,0.2s0.2-0.1,0.2-0.2S73.5,38.5,73.4,38.5z" />
		<path class="st0" d="M72.8,39.2c-0.1,0-0.2,0.1-0.2,0.2s0.1,0.2,0.2,0.2s0.2-0.1,0.2-0.2S72.9,39.2,72.8,39.2z" />
		<path class="st0" d="M74,39.2c-0.1,0-0.2,0.1-0.2,0.2s0.1,0.2,0.2,0.2s0.2-0.1,0.2-0.2S74.1,39.2,74,39.2z" />
		<path class="st0" d="M73.4,39.8c-0.1,0-0.2,0.1-0.2,0.2s0.1,0.2,0.2,0.2s0.2-0.1,0.2-0.2S73.5,39.8,73.4,39.8z" />
		<path class="st0" d="M72.1,38.5c-0.1,0-0.2,0.1-0.2,0.2S72,39,72.1,39s0.2-0.1,0.2-0.2S72.2,38.5,72.1,38.5z" />
		<path class="st0" d="M72.1,39.8c-0.1,0-0.2,0.1-0.2,0.2s0.1,0.2,0.2,0.2s0.2-0.1,0.2-0.2S72.2,39.8,72.1,39.8z" />
		<path class="st0" d="M74.6,38.5c-0.1,0-0.2,0.1-0.2,0.2s0.1,0.2,0.2,0.2s0.2-0.1,0.2-0.2S74.7,38.5,74.6,38.5z" />
		<path class="st0" d="M74.6,39.8c-0.1,0-0.2,0.1-0.2,0.2s0.1,0.2,0.2,0.2s0.2-0.1,0.2-0.2S74.7,39.8,74.6,39.8z" />
		<path class="st0" d="M55.9,36c-0.1,0-0.2,0.1-0.2,0.2s0.1,0.2,0.2,0.2s0.2-0.1,0.2-0.2S56,36,55.9,36z" />
		<path class="st0" d="M55.3,36.7c-0.1,0-0.2,0.1-0.2,0.2s0.1,0.2,0.2,0.2s0.2-0.1,0.2-0.2S55.4,36.7,55.3,36.7z" />
		<path class="st0" d="M56.5,36.7c-0.1,0-0.2,0.1-0.2,0.2s0.1,0.2,0.2,0.2s0.2-0.1,0.2-0.2S56.6,36.7,56.5,36.7z" />
		<path class="st0" d="M55.9,37.3c-0.1,0-0.2,0.1-0.2,0.2s0.1,0.2,0.2,0.2s0.2-0.1,0.2-0.2S56,37.3,55.9,37.3z" />
		<path class="st0" d="M58.4,36c-0.1,0-0.2,0.1-0.2,0.2s0.1,0.2,0.2,0.2s0.2-0.1,0.2-0.2S58.5,36,58.4,36z" />
		<path class="st0" d="M57.8,36.7c-0.1,0-0.2,0.1-0.2,0.2s0.1,0.2,0.2,0.2S58,37,58,36.9S57.9,36.7,57.8,36.7z" />
		<path class="st0" d="M59,36.7c-0.1,0-0.2,0.1-0.2,0.2s0.1,0.2,0.2,0.2s0.2-0.1,0.2-0.2S59.1,36.7,59,36.7z" />
		<path class="st0" d="M58.4,37.3c-0.1,0-0.2,0.1-0.2,0.2s0.1,0.2,0.2,0.2s0.2-0.1,0.2-0.2S58.5,37.3,58.4,37.3z" />
		<path class="st0" d="M57.1,36c-0.1,0-0.2,0.1-0.2,0.2s0.1,0.2,0.2,0.2s0.2-0.1,0.2-0.2S57.2,36,57.1,36z" />
		<path class="st0" d="M57.1,37.3c-0.1,0-0.2,0.1-0.2,0.2s0.1,0.2,0.2,0.2s0.2-0.1,0.2-0.2S57.2,37.3,57.1,37.3z" />
		<path class="st0" d="M59.6,36.5c0.1,0,0.2-0.1,0.2-0.2S59.7,36,59.6,36s-0.2,0.1-0.2,0.2S59.5,36.5,59.6,36.5z" />
		<path class="st0" d="M59.6,37.3c-0.1,0-0.2,0.1-0.2,0.2s0.1,0.2,0.2,0.2s0.2-0.1,0.2-0.2S59.7,37.3,59.6,37.3z" />
		<path class="st0" d="M55.3,37.9c-0.1,0-0.2,0.1-0.2,0.2s0.1,0.2,0.2,0.2s0.2-0.1,0.2-0.2S55.4,37.9,55.3,37.9z" />
		<path class="st0" d="M56.5,37.9c-0.1,0-0.2,0.1-0.2,0.2s0.1,0.2,0.2,0.2s0.2-0.1,0.2-0.2S56.6,37.9,56.5,37.9z" />
		<path class="st0" d="M55.9,38.5c-0.1,0-0.2,0.1-0.2,0.2s0.1,0.2,0.2,0.2s0.2-0.1,0.2-0.2S56,38.5,55.9,38.5z" />
		<path class="st0" d="M55.3,39.2c-0.1,0-0.2,0.1-0.2,0.2s0.1,0.2,0.2,0.2s0.2-0.1,0.2-0.2S55.4,39.2,55.3,39.2z" />
		<path class="st0" d="M56.5,39.2c-0.1,0-0.2,0.1-0.2,0.2s0.1,0.2,0.2,0.2s0.2-0.1,0.2-0.2S56.6,39.2,56.5,39.2z" />
		<path class="st0" d="M55.9,39.8c-0.1,0-0.2,0.1-0.2,0.2s0.1,0.2,0.2,0.2s0.2-0.1,0.2-0.2S56,39.8,55.9,39.8z" />
		<path class="st0" d="M57.8,37.9c-0.1,0-0.2,0.1-0.2,0.2s0.1,0.2,0.2,0.2s0.2-0.1,0.2-0.2S57.9,37.9,57.8,37.9z" />
		<path class="st0" d="M59,37.9c-0.1,0-0.2,0.1-0.2,0.2s0.1,0.2,0.2,0.2s0.2-0.1,0.2-0.2S59.1,37.9,59,37.9z" />
		<path class="st0" d="M58.4,38.5c-0.1,0-0.2,0.1-0.2,0.2s0.1,0.2,0.2,0.2s0.2-0.1,0.2-0.2S58.5,38.5,58.4,38.5z" />
		<path class="st0" d="M57.8,39.2c-0.1,0-0.2,0.1-0.2,0.2s0.1,0.2,0.2,0.2s0.2-0.1,0.2-0.2S57.9,39.2,57.8,39.2z" />
		<path class="st0" d="M59,39.2c-0.1,0-0.2,0.1-0.2,0.2s0.1,0.2,0.2,0.2s0.2-0.1,0.2-0.2S59.1,39.2,59,39.2z" />
		<path class="st0" d="M58.4,39.8c-0.1,0-0.2,0.1-0.2,0.2s0.1,0.2,0.2,0.2s0.2-0.1,0.2-0.2S58.5,39.8,58.4,39.8z" />
		<path class="st0" d="M57.1,38.5c-0.1,0-0.2,0.1-0.2,0.2S57,39,57.1,39s0.2-0.1,0.2-0.2S57.2,38.5,57.1,38.5z" />
		<path class="st0" d="M57.1,39.8c-0.1,0-0.2,0.1-0.2,0.2s0.1,0.2,0.2,0.2s0.2-0.1,0.2-0.2S57.2,39.8,57.1,39.8z" />
		<path class="st0" d="M59.6,38.5c-0.1,0-0.2,0.1-0.2,0.2s0.1,0.2,0.2,0.2s0.2-0.1,0.2-0.2S59.7,38.5,59.6,38.5z" />
		<path class="st0" d="M59.6,39.8c-0.1,0-0.2,0.1-0.2,0.2s0.1,0.2,0.2,0.2s0.2-0.1,0.2-0.2S59.7,39.8,59.6,39.8z" />
	</g>
</svg>
