<?xml version="1.0" encoding="utf-8"?>
<!-- Generator: Adobe Illustrator 23.1.1, SVG Export Plug-In . SVG Version: 6.00 Build 0) -->
<svg version="1.1" id="Layer_1" xmlns="http://www.w3.org/2000/svg" xmlns:xlink="http://www.w3.org/1999/xlink" x="0px" y="0px" viewBox="0 0 100 100" style="enable-background:new 0 0 100 100;" xml:space="preserve">
	<style type="text/css">
		.st0{fill:#231F20;}
	</style>
	<g>
		<circle class="st0" cx="42.6" cy="33.3" r="0.3" />
		<circle class="st0" cx="43.8" cy="33.3" r="0.3" />
		<circle class="st0" cx="43.2" cy="33.9" r="0.3" />
		<circle class="st0" cx="49.4" cy="23.9" r="0.3" />
		<circle class="st0" cx="49.4" cy="25.1" r="0.3" />
		<circle class="st0" cx="48.8" cy="25.8" r="0.3" />
		<circle class="st0" cx="48.8" cy="27" r="0.3" />
		<circle class="st0" cx="48.2" cy="27.6" r="0.3" />
		<circle class="st0" cx="49.4" cy="26.4" r="0.3" />
		<circle class="st0" cx="49.4" cy="27.6" r="0.3" />
		<circle class="st0" cx="48.8" cy="28.3" r="0.3" />
		<circle class="st0" cx="48.2" cy="28.9" r="0.3" />
		<circle class="st0" cx="47.6" cy="29.5" r="0.3" />
		<circle class="st0" cx="48.8" cy="29.5" r="0.3" />
		<circle class="st0" cx="48.2" cy="30.1" r="0.3" />
		<circle class="st0" cx="49.4" cy="28.9" r="0.3" />
		<circle class="st0" cx="49.4" cy="30.1" r="0.3" />
		<circle class="st0" cx="46.3" cy="32" r="0.3" />
		<circle class="st0" cx="47.6" cy="30.8" r="0.3" />
		<circle class="st0" cx="48.8" cy="30.8" r="0.3" />
		<circle class="st0" cx="48.2" cy="31.4" r="0.3" />
		<circle class="st0" cx="47.6" cy="32" r="0.3" />
		<circle class="st0" cx="48.8" cy="32" r="0.3" />
		<circle class="st0" cx="46.9" cy="31.4" r="0.3" />
		<circle class="st0" cx="49.4" cy="31.4" r="0.3" />
		<path class="st0" d="M29.4,38c0.2,0,0.3-0.1,0.3-0.3l0,0l0,0c0-0.2-0.1-0.3-0.3-0.3c-0.2,0-0.3,0.1-0.3,0.3l0,0l0,0
		C29.1,37.8,29.3,38,29.4,38z" />
		<circle class="st0" cx="36.3" cy="37" r="0.3" />
		<circle class="st0" cx="37.6" cy="37" r="0.3" />
		<circle class="st0" cx="36.9" cy="37.6" r="0.3" />
		<circle class="st0" cx="36.3" cy="38.3" r="0.3" />
		<circle class="st0" cx="37.6" cy="38.3" r="0.3" />
		<circle class="st0" cx="36.9" cy="38.9" r="0.3" />
		<circle class="st0" cx="38.8" cy="37" r="0.3" />
		<circle class="st0" cx="38.2" cy="37.6" r="0.3" />
		<circle class="st0" cx="38.2" cy="38.9" r="0.3" />
		<path class="st0" d="M36.3,39.2c-0.2,0-0.3,0.1-0.3,0.3l0,0l0,0c0,0.2,0.1,0.3,0.3,0.3c0.2,0,0.3-0.1,0.3-0.3l0,0l0,0
		C36.6,39.3,36.5,39.2,36.3,39.2z" />
		<path class="st0" d="M36.9,39.8c-0.2,0-0.3,0.1-0.3,0.3l0,0l0,0c0,0.2,0.1,0.3,0.3,0.3c0.2,0,0.3-0.1,0.3-0.3l0,0l0,0
		C37.3,40,37.1,39.8,36.9,39.8z" />
		<path class="st0" d="M36.9,42.3c-0.2,0-0.3,0.1-0.3,0.3l0,0l0,0c0,0.2,0.1,0.3,0.3,0.3c0.2,0,0.3-0.1,0.3-0.3l0,0l0,0
		C37.3,42.5,37.1,42.3,36.9,42.3z" />
		<path class="st0" d="M36.3,44.2c-0.2,0-0.3,0.1-0.3,0.3l0,0l0,0c0,0.2,0.1,0.3,0.3,0.3c0.2,0,0.3-0.1,0.3-0.3l0,0l0,0
		C36.6,44.3,36.5,44.2,36.3,44.2z" />
		<circle class="st0" cx="30.1" cy="37" r="0.3" />
		<circle class="st0" cx="30.1" cy="38.3" r="0.3" />
		<circle class="st0" cx="30.7" cy="37.6" r="0.3" />
		<circle class="st0" cx="30.7" cy="38.9" r="0.3" />
		<path class="st0" d="M30.1,39.8c0.2,0,0.3-0.1,0.3-0.3l0,0l0,0c0-0.2-0.1-0.3-0.3-0.3c-0.2,0-0.3,0.1-0.3,0.3l0,0l0,0
		C29.8,39.7,29.9,39.8,30.1,39.8z" />
		<circle class="st0" cx="29.4" cy="40.1" r="0.3" />
		<path class="st0" d="M28.8,41.1c0.2,0,0.3-0.1,0.3-0.3l0,0l0,0c0-0.2-0.1-0.3-0.3-0.3c-0.2,0-0.3,0.1-0.3,0.3l0,0l0,0
		C28.5,40.9,28.6,41.1,28.8,41.1z" />
		<path class="st0" d="M30.7,41.7c0.2,0,0.3-0.1,0.3-0.3l0,0l0,0c0-0.2-0.1-0.3-0.3-0.3c-0.2,0-0.3,0.1-0.3,0.3l0,0l0,0
		C30.4,41.6,30.5,41.7,30.7,41.7z" />
		<circle class="st0" cx="31.3" cy="37" r="0.3" />
		<circle class="st0" cx="32.6" cy="37" r="0.3" />
		<circle class="st0" cx="31.9" cy="37.6" r="0.3" />
		<circle class="st0" cx="31.3" cy="38.3" r="0.3" />
		<circle class="st0" cx="32.6" cy="38.3" r="0.3" />
		<circle class="st0" cx="31.9" cy="38.9" r="0.3" />
		<circle class="st0" cx="33.8" cy="37" r="0.3" />
		<circle class="st0" cx="35.1" cy="37" r="0.3" />
		<circle class="st0" cx="34.4" cy="37.6" r="0.3" />
		<circle class="st0" cx="33.8" cy="38.3" r="0.3" />
		<circle class="st0" cx="35.1" cy="38.3" r="0.3" />
		<circle class="st0" cx="34.4" cy="38.9" r="0.3" />
		<circle class="st0" cx="33.2" cy="37.6" r="0.3" />
		<circle class="st0" cx="33.2" cy="38.9" r="0.3" />
		<circle class="st0" cx="35.7" cy="37.6" r="0.3" />
		<circle class="st0" cx="35.7" cy="38.9" r="0.3" />
		<path class="st0" d="M31,40.8L31,40.8c0,0.2,0.1,0.3,0.3,0.3c0.2,0,0.3-0.1,0.3-0.3l0,0l0,0c0-0.2-0.1-0.3-0.3-0.3
		C31.1,40.5,31,40.6,31,40.8L31,40.8z" />
		<path class="st0" d="M32.3,40.8L32.3,40.8c0,0.2,0.1,0.3,0.3,0.3c0.2,0,0.3-0.1,0.3-0.3l0,0l0,0c0-0.2-0.1-0.3-0.3-0.3
		C32.4,40.5,32.3,40.6,32.3,40.8L32.3,40.8z" />
		<path class="st0" d="M35.1,39.2c-0.2,0-0.3,0.1-0.3,0.3l0,0l0,0c0,0.2,0.1,0.3,0.3,0.3c0.2,0,0.3-0.1,0.3-0.3l0,0l0,0
		C35.4,39.3,35.2,39.2,35.1,39.2z" />
		<path class="st0" d="M34.4,39.8c-0.2,0-0.3,0.1-0.3,0.3l0,0l0,0c0,0.2,0.1,0.3,0.3,0.3c0.2,0,0.3-0.1,0.3-0.3l0,0l0,0
		C34.8,40,34.6,39.8,34.4,39.8z" />
		<path class="st0" d="M33.8,41.1c0.2,0,0.3-0.1,0.3-0.3l0,0l0,0c0-0.2-0.1-0.3-0.3-0.3c-0.2,0-0.3,0.1-0.3,0.3l0,0l0,0
		C33.5,40.9,33.6,41.1,33.8,41.1z" />
		<path class="st0" d="M36,40.1L36,40.1c0-0.2-0.1-0.3-0.3-0.3c-0.2,0-0.3,0.1-0.3,0.3l0,0l0,0c0,0.2,0.1,0.3,0.3,0.3
		C35.9,40.5,36,40.3,36,40.1L36,40.1z" />
		<path class="st0" d="M35.7,41.1c-0.2,0-0.3,0.1-0.3,0.3l0,0l0,0c0,0.2,0.1,0.3,0.3,0.3c0.2,0,0.3-0.1,0.3-0.3l0,0l0,0
		C36,41.2,35.9,41.1,35.7,41.1z" />
		<path class="st0" d="M30.1,42.3c0.2,0,0.3-0.1,0.3-0.3l0,0l0,0c0-0.2-0.1-0.3-0.3-0.3c-0.2,0-0.3,0.1-0.3,0.3l0,0l0,0
		C29.8,42.2,29.9,42.3,30.1,42.3z" />
		<path class="st0" d="M29.1,42.6L29.1,42.6c0,0.2,0.1,0.3,0.3,0.3c0.2,0,0.3-0.1,0.3-0.3l0,0l0,0c0-0.2-0.1-0.3-0.3-0.3
		C29.3,42.3,29.1,42.5,29.1,42.6L29.1,42.6z" />
		<path class="st0" d="M28.8,43.6c0.2,0,0.3-0.1,0.3-0.3l0,0l0,0c0-0.2-0.1-0.3-0.3-0.3c-0.2,0-0.3,0.1-0.3,0.3l0,0l0,0
		C28.5,43.4,28.6,43.6,28.8,43.6z" />
		<path class="st0" d="M30.7,44.2c0.2,0,0.3-0.1,0.3-0.3l0,0l0,0c0-0.2-0.1-0.3-0.3-0.3c-0.2,0-0.3,0.1-0.3,0.3l0,0l0,0
		C30.4,44.1,30.5,44.2,30.7,44.2z" />
		<path class="st0" d="M29.8,44.5L29.8,44.5c0,0.2,0.1,0.3,0.3,0.3c0.2,0,0.3-0.1,0.3-0.3l0,0l0,0c0-0.2-0.1-0.3-0.3-0.3
		C29.9,44.2,29.8,44.3,29.8,44.5L29.8,44.5z" />
		<path class="st0" d="M31.6,42.6L31.6,42.6c0,0.2,0.1,0.3,0.3,0.3c0.2,0,0.3-0.1,0.3-0.3l0,0l0,0c0-0.2-0.1-0.3-0.3-0.3
		C31.8,42.3,31.6,42.5,31.6,42.6L31.6,42.6z" />
		<path class="st0" d="M31.3,43.6c0.2,0,0.3-0.1,0.3-0.3l0,0l0,0c0-0.2-0.1-0.3-0.3-0.3c-0.2,0-0.3,0.1-0.3,0.3l0,0l0,0
		C31,43.4,31.1,43.6,31.3,43.6z" />
		<path class="st0" d="M35.1,41.7c-0.2,0-0.3,0.1-0.3,0.3l0,0l0,0c0,0.2,0.1,0.3,0.3,0.3c0.2,0,0.3-0.1,0.3-0.3l0,0l0,0
		C35.4,41.8,35.2,41.7,35.1,41.7z" />
		<path class="st0" d="M34.4,42.3c-0.2,0-0.3,0.1-0.3,0.3l0,0l0,0c0,0.2,0.1,0.3,0.3,0.3c0.2,0,0.3-0.1,0.3-0.3l0,0l0,0
		C34.8,42.5,34.6,42.3,34.4,42.3z" />
		<path class="st0" d="M32.9,42.6L32.9,42.6c0,0.2,0.1,0.3,0.3,0.3c0.2,0,0.3-0.1,0.3-0.3l0,0l0,0c0-0.2-0.1-0.3-0.3-0.3
		C33,42.3,32.9,42.5,32.9,42.6L32.9,42.6z" />
		<path class="st0" d="M32.3,44.5L32.3,44.5c0,0.2,0.1,0.3,0.3,0.3c0.2,0,0.3-0.1,0.3-0.3l0,0l0,0c0-0.2-0.1-0.3-0.3-0.3
		C32.4,44.2,32.3,44.3,32.3,44.5L32.3,44.5z" />
		<path class="st0" d="M31.9,45.5c0.2,0,0.3-0.1,0.3-0.3l0,0l0,0c0-0.2-0.1-0.3-0.3-0.3c-0.2,0-0.3,0.1-0.3,0.3l0,0l0,0
		C31.6,45.3,31.8,45.5,31.9,45.5z" />
		<path class="st0" d="M31.3,46.1c0.2,0,0.3-0.1,0.3-0.3l0,0l0,0c0-0.2-0.1-0.3-0.3-0.3c-0.2,0-0.3,0.1-0.3,0.3l0,0l0,0
		C31,45.9,31.1,46.1,31.3,46.1z" />
		<path class="st0" d="M33.8,44.2c-0.2,0-0.3,0.1-0.3,0.3l0,0l0,0c0,0.2,0.1,0.3,0.3,0.3c0.2,0,0.3-0.1,0.3-0.3l0,0l0,0
		C34.1,44.3,34,44.2,33.8,44.2z" />
		<path class="st0" d="M35.1,44.2c-0.2,0-0.3,0.1-0.3,0.3l0,0l0,0c0,0.2,0.1,0.3,0.3,0.3c0.2,0,0.3-0.1,0.3-0.3l0,0l0,0
		C35.4,44.3,35.2,44.2,35.1,44.2z" />
		<path class="st0" d="M34.4,44.8c-0.2,0-0.3,0.1-0.3,0.3l0,0l0,0c0,0.2,0.1,0.3,0.3,0.3c0.2,0,0.3-0.1,0.3-0.3l0,0l0,0
		C34.8,45,34.6,44.8,34.4,44.8z" />
		<path class="st0" d="M35.7,46.1c-0.2,0-0.3,0.1-0.3,0.3l0,0l0,0c0,0.2,0.1,0.3,0.3,0.3c0.2,0,0.3-0.1,0.3-0.3l0,0l0,0
		C36,46.2,35.9,46.1,35.7,46.1z" />
		<circle class="st0" cx="36.9" cy="27.6" r="0.3" />
		<circle class="st0" cx="36.9" cy="28.9" r="0.3" />
		<circle class="st0" cx="36.3" cy="29.5" r="0.3" />
		<circle class="st0" cx="36.9" cy="30.1" r="0.3" />
		<circle class="st0" cx="36.3" cy="30.8" r="0.3" />
		<circle class="st0" cx="37.6" cy="30.8" r="0.3" />
		<circle class="st0" cx="36.9" cy="31.4" r="0.3" />
		<circle class="st0" cx="38.2" cy="31.4" r="0.3" />
		<circle class="st0" cx="36.3" cy="32" r="0.3" />
		<circle class="st0" cx="37.6" cy="32" r="0.3" />
		<circle class="st0" cx="36.9" cy="32.6" r="0.3" />
		<circle class="st0" cx="36.3" cy="33.3" r="0.3" />
		<circle class="st0" cx="37.6" cy="33.3" r="0.3" />
		<circle class="st0" cx="36.9" cy="33.9" r="0.3" />
		<circle class="st0" cx="38.8" cy="32" r="0.3" />
		<circle class="st0" cx="39.4" cy="32.6" r="0.3" />
		<circle class="st0" cx="38.8" cy="33.3" r="0.3" />
		<circle class="st0" cx="40.1" cy="33.3" r="0.3" />
		<circle class="st0" cx="39.4" cy="33.9" r="0.3" />
		<circle class="st0" cx="38.2" cy="32.6" r="0.3" />
		<circle class="st0" cx="38.2" cy="33.9" r="0.3" />
		<circle class="st0" cx="40.7" cy="33.9" r="0.3" />
		<circle class="st0" cx="36.3" cy="34.5" r="0.3" />
		<circle class="st0" cx="37.6" cy="34.5" r="0.3" />
		<circle class="st0" cx="36.9" cy="35.1" r="0.3" />
		<circle class="st0" cx="36.3" cy="35.8" r="0.3" />
		<circle class="st0" cx="37.6" cy="35.8" r="0.3" />
		<circle class="st0" cx="36.9" cy="36.4" r="0.3" />
		<circle class="st0" cx="38.8" cy="34.5" r="0.3" />
		<circle class="st0" cx="40.1" cy="34.5" r="0.3" />
		<circle class="st0" cx="39.4" cy="35.1" r="0.3" />
		<circle class="st0" cx="38.8" cy="35.8" r="0.3" />
		<circle class="st0" cx="40.1" cy="35.8" r="0.3" />
		<circle class="st0" cx="39.4" cy="36.4" r="0.3" />
		<circle class="st0" cx="38.2" cy="35.1" r="0.3" />
		<circle class="st0" cx="38.2" cy="36.4" r="0.3" />
		<circle class="st0" cx="40.7" cy="35.1" r="0.3" />
		<circle class="st0" cx="41.3" cy="33.3" r="0.3" />
		<circle class="st0" cx="41.9" cy="33.9" r="0.3" />
		<circle class="st0" cx="41.3" cy="34.5" r="0.3" />
		<circle class="st0" cx="35.7" cy="28.9" r="0.3" />
		<circle class="st0" cx="35.1" cy="29.5" r="0.3" />
		<circle class="st0" cx="34.4" cy="30.1" r="0.3" />
		<circle class="st0" cx="33.8" cy="30.8" r="0.3" />
		<circle class="st0" cx="35.1" cy="30.8" r="0.3" />
		<circle class="st0" cx="34.4" cy="31.4" r="0.3" />
		<circle class="st0" cx="33.2" cy="31.4" r="0.3" />
		<circle class="st0" cx="35.7" cy="30.1" r="0.3" />
		<circle class="st0" cx="35.7" cy="31.4" r="0.3" />
		<circle class="st0" cx="30.1" cy="35.8" r="0.3" />
		<circle class="st0" cx="30.7" cy="35.1" r="0.3" />
		<circle class="st0" cx="30.7" cy="36.4" r="0.3" />
		<circle class="st0" cx="32.6" cy="32" r="0.3" />
		<circle class="st0" cx="31.9" cy="32.6" r="0.3" />
		<circle class="st0" cx="32.6" cy="33.3" r="0.3" />
		<circle class="st0" cx="31.9" cy="33.9" r="0.3" />
		<circle class="st0" cx="33.8" cy="32" r="0.3" />
		<circle class="st0" cx="35.1" cy="32" r="0.3" />
		<circle class="st0" cx="34.4" cy="32.6" r="0.3" />
		<circle class="st0" cx="33.8" cy="33.3" r="0.3" />
		<circle class="st0" cx="35.1" cy="33.3" r="0.3" />
		<circle class="st0" cx="34.4" cy="33.9" r="0.3" />
		<circle class="st0" cx="33.2" cy="32.6" r="0.3" />
		<circle class="st0" cx="33.2" cy="33.9" r="0.3" />
		<circle class="st0" cx="35.7" cy="32.6" r="0.3" />
		<circle class="st0" cx="35.7" cy="33.9" r="0.3" />
		<circle class="st0" cx="31.3" cy="34.5" r="0.3" />
		<circle class="st0" cx="32.6" cy="34.5" r="0.3" />
		<circle class="st0" cx="31.9" cy="35.1" r="0.3" />
		<circle class="st0" cx="31.3" cy="35.8" r="0.3" />
		<circle class="st0" cx="32.6" cy="35.8" r="0.3" />
		<circle class="st0" cx="31.9" cy="36.4" r="0.3" />
		<circle class="st0" cx="33.8" cy="34.5" r="0.3" />
		<circle class="st0" cx="35.1" cy="34.5" r="0.3" />
		<circle class="st0" cx="34.4" cy="35.1" r="0.3" />
		<circle class="st0" cx="33.8" cy="35.8" r="0.3" />
		<circle class="st0" cx="35.1" cy="35.8" r="0.3" />
		<circle class="st0" cx="34.4" cy="36.4" r="0.3" />
		<circle class="st0" cx="33.2" cy="35.1" r="0.3" />
		<circle class="st0" cx="33.2" cy="36.4" r="0.3" />
		<circle class="st0" cx="35.7" cy="35.1" r="0.3" />
		<circle class="st0" cx="35.7" cy="36.4" r="0.3" />
		<circle class="st0" cx="36.3" cy="28.3" r="0.3" />
		<circle class="st0" cx="45.7" cy="23.9" r="0.3" />
		<circle class="st0" cx="45.1" cy="24.5" r="0.3" />
		<circle class="st0" cx="46.3" cy="24.5" r="0.3" />
		<circle class="st0" cx="45.7" cy="25.1" r="0.3" />
		<circle class="st0" cx="48.8" cy="23.3" r="0.3" />
		<circle class="st0" cx="48.2" cy="23.9" r="0.3" />
		<circle class="st0" cx="47.6" cy="24.5" r="0.3" />
		<circle class="st0" cx="48.8" cy="24.5" r="0.3" />
		<circle class="st0" cx="48.2" cy="25.1" r="0.3" />
		<circle class="st0" cx="46.9" cy="23.9" r="0.3" />
		<circle class="st0" cx="46.9" cy="25.1" r="0.3" />
		<circle class="st0" cx="45.1" cy="25.8" r="0.3" />
		<circle class="st0" cx="46.3" cy="25.8" r="0.3" />
		<circle class="st0" cx="45.7" cy="26.4" r="0.3" />
		<circle class="st0" cx="45.1" cy="27" r="0.3" />
		<circle class="st0" cx="46.3" cy="27" r="0.3" />
		<circle class="st0" cx="45.7" cy="27.6" r="0.3" />
		<circle class="st0" cx="47.6" cy="25.8" r="0.3" />
		<circle class="st0" cx="48.2" cy="26.4" r="0.3" />
		<circle class="st0" cx="47.6" cy="27" r="0.3" />
		<circle class="st0" cx="46.9" cy="26.4" r="0.3" />
		<circle class="st0" cx="46.9" cy="27.6" r="0.3" />
		<circle class="st0" cx="45.1" cy="28.3" r="0.3" />
		<circle class="st0" cx="46.3" cy="28.3" r="0.3" />
		<circle class="st0" cx="45.7" cy="28.9" r="0.3" />
		<circle class="st0" cx="45.1" cy="29.5" r="0.3" />
		<circle class="st0" cx="46.3" cy="29.5" r="0.3" />
		<circle class="st0" cx="45.7" cy="30.1" r="0.3" />
		<circle class="st0" cx="47.6" cy="28.3" r="0.3" />
		<circle class="st0" cx="46.9" cy="28.9" r="0.3" />
		<circle class="st0" cx="46.9" cy="30.1" r="0.3" />
		<circle class="st0" cx="45.1" cy="30.8" r="0.3" />
		<circle class="st0" cx="46.3" cy="30.8" r="0.3" />
		<circle class="st0" cx="45.7" cy="31.4" r="0.3" />
		<circle class="st0" cx="45.1" cy="32" r="0.3" />
		<circle class="st0" cx="45.7" cy="32.6" r="0.3" />
		<circle class="st0" cx="37.6" cy="27" r="0.3" />
		<circle class="st0" cx="38.8" cy="27" r="0.3" />
		<circle class="st0" cx="38.2" cy="27.6" r="0.3" />
		<circle class="st0" cx="39.4" cy="26.4" r="0.3" />
		<circle class="st0" cx="39.4" cy="27.6" r="0.3" />
		<circle class="st0" cx="42.6" cy="24.5" r="0.3" />
		<circle class="st0" cx="43.8" cy="24.5" r="0.3" />
		<circle class="st0" cx="43.2" cy="25.1" r="0.3" />
		<circle class="st0" cx="41.9" cy="25.1" r="0.3" />
		<circle class="st0" cx="44.4" cy="23.9" r="0.3" />
		<circle class="st0" cx="44.4" cy="25.1" r="0.3" />
		<circle class="st0" cx="40.1" cy="25.8" r="0.3" />
		<circle class="st0" cx="41.3" cy="25.8" r="0.3" />
		<circle class="st0" cx="40.7" cy="26.4" r="0.3" />
		<circle class="st0" cx="40.1" cy="27" r="0.3" />
		<circle class="st0" cx="41.3" cy="27" r="0.3" />
		<circle class="st0" cx="40.7" cy="27.6" r="0.3" />
		<circle class="st0" cx="42.6" cy="25.8" r="0.3" />
		<circle class="st0" cx="43.8" cy="25.8" r="0.3" />
		<circle class="st0" cx="43.2" cy="26.4" r="0.3" />
		<circle class="st0" cx="42.6" cy="27" r="0.3" />
		<circle class="st0" cx="43.8" cy="27" r="0.3" />
		<circle class="st0" cx="43.2" cy="27.6" r="0.3" />
		<circle class="st0" cx="41.9" cy="26.4" r="0.3" />
		<circle class="st0" cx="41.9" cy="27.6" r="0.3" />
		<circle class="st0" cx="44.4" cy="26.4" r="0.3" />
		<circle class="st0" cx="44.4" cy="27.6" r="0.3" />
		<circle class="st0" cx="37.6" cy="28.3" r="0.3" />
		<circle class="st0" cx="38.8" cy="28.3" r="0.3" />
		<circle class="st0" cx="38.2" cy="28.9" r="0.3" />
		<circle class="st0" cx="37.6" cy="29.5" r="0.3" />
		<circle class="st0" cx="38.8" cy="29.5" r="0.3" />
		<circle class="st0" cx="38.2" cy="30.1" r="0.3" />
		<circle class="st0" cx="39.4" cy="28.9" r="0.3" />
		<circle class="st0" cx="39.4" cy="30.1" r="0.3" />
		<circle class="st0" cx="38.8" cy="30.8" r="0.3" />
		<circle class="st0" cx="39.4" cy="31.4" r="0.3" />
		<circle class="st0" cx="40.1" cy="28.3" r="0.3" />
		<circle class="st0" cx="41.3" cy="28.3" r="0.3" />
		<circle class="st0" cx="40.7" cy="28.9" r="0.3" />
		<circle class="st0" cx="40.1" cy="29.5" r="0.3" />
		<circle class="st0" cx="41.3" cy="29.5" r="0.3" />
		<circle class="st0" cx="40.7" cy="30.1" r="0.3" />
		<circle class="st0" cx="42.6" cy="28.3" r="0.3" />
		<circle class="st0" cx="43.8" cy="28.3" r="0.3" />
		<circle class="st0" cx="43.2" cy="28.9" r="0.3" />
		<circle class="st0" cx="42.6" cy="29.5" r="0.3" />
		<circle class="st0" cx="43.8" cy="29.5" r="0.3" />
		<circle class="st0" cx="43.2" cy="30.1" r="0.3" />
		<circle class="st0" cx="41.9" cy="28.9" r="0.3" />
		<circle class="st0" cx="41.9" cy="30.1" r="0.3" />
		<circle class="st0" cx="44.4" cy="28.9" r="0.3" />
		<circle class="st0" cx="44.4" cy="30.1" r="0.3" />
		<circle class="st0" cx="40.1" cy="30.8" r="0.3" />
		<circle class="st0" cx="41.3" cy="30.8" r="0.3" />
		<circle class="st0" cx="40.7" cy="31.4" r="0.3" />
		<circle class="st0" cx="40.1" cy="32" r="0.3" />
		<circle class="st0" cx="41.3" cy="32" r="0.3" />
		<circle class="st0" cx="40.7" cy="32.6" r="0.3" />
		<circle class="st0" cx="42.6" cy="30.8" r="0.3" />
		<circle class="st0" cx="43.8" cy="30.8" r="0.3" />
		<circle class="st0" cx="43.2" cy="31.4" r="0.3" />
		<circle class="st0" cx="42.6" cy="32" r="0.3" />
		<circle class="st0" cx="43.8" cy="32" r="0.3" />
		<circle class="st0" cx="43.2" cy="32.6" r="0.3" />
		<circle class="st0" cx="41.9" cy="31.4" r="0.3" />
		<circle class="st0" cx="41.9" cy="32.6" r="0.3" />
		<circle class="st0" cx="44.4" cy="31.4" r="0.3" />
		<circle class="st0" cx="44.4" cy="32.6" r="0.3" />
		<circle class="st0" cx="32.6" cy="59.5" r="0.3" />
		<circle class="st0" cx="33.2" cy="60.1" r="0.3" />
		<circle class="st0" cx="33.8" cy="59.5" r="0.3" />
		<circle class="st0" cx="38.8" cy="58.3" r="0.3" />
		<circle class="st0" cx="38.8" cy="59.5" r="0.3" />
		<circle class="st0" cx="38.2" cy="60.1" r="0.3" />
		<circle class="st0" cx="38.2" cy="61.4" r="0.3" />
		<circle class="st0" cx="36.3" cy="59.5" r="0.3" />
		<circle class="st0" cx="35.1" cy="59.5" r="0.3" />
		<circle class="st0" cx="37.6" cy="59.5" r="0.3" />
		<circle class="st0" cx="34.4" cy="60.1" r="0.3" />
		<circle class="st0" cx="33.8" cy="60.8" r="0.3" />
		<circle class="st0" cx="34.4" cy="61.4" r="0.3" />
		<circle class="st0" cx="35.7" cy="60.1" r="0.3" />
		<circle class="st0" cx="36.9" cy="60.1" r="0.3" />
		<circle class="st0" cx="36.3" cy="60.8" r="0.3" />
		<circle class="st0" cx="35.7" cy="61.4" r="0.3" />
		<circle class="st0" cx="36.9" cy="61.4" r="0.3" />
		<circle class="st0" cx="36.3" cy="62" r="0.3" />
		<circle class="st0" cx="35.1" cy="60.8" r="0.3" />
		<circle class="st0" cx="35.1" cy="62" r="0.3" />
		<circle class="st0" cx="37.6" cy="60.8" r="0.3" />
		<circle class="st0" cx="37.6" cy="62" r="0.3" />
		<circle class="st0" cx="35.7" cy="62.6" r="0.3" />
		<circle class="st0" cx="36.9" cy="62.6" r="0.3" />
		<circle class="st0" cx="36.3" cy="63.3" r="0.3" />
		<circle class="st0" cx="35.7" cy="63.9" r="0.3" />
		<circle class="st0" cx="36.9" cy="63.9" r="0.3" />
		<circle class="st0" cx="36.3" cy="64.5" r="0.3" />
		<circle class="st0" cx="37.6" cy="63.3" r="0.3" />
		<circle class="st0" cx="36.9" cy="65.1" r="0.3" />
		<circle class="st0" cx="37.6" cy="50.8" r="0.3" />
		<circle class="st0" cx="37.6" cy="52" r="0.3" />
		<circle class="st0" cx="38.2" cy="52.6" r="0.3" />
		<circle class="st0" cx="37.6" cy="53.3" r="0.3" />
		<circle class="st0" cx="38.8" cy="53.3" r="0.3" />
		<circle class="st0" cx="38.2" cy="53.9" r="0.3" />
		<circle class="st0" cx="39.4" cy="53.9" r="0.3" />
		<circle class="st0" cx="37.6" cy="54.5" r="0.3" />
		<circle class="st0" cx="38.8" cy="54.5" r="0.3" />
		<circle class="st0" cx="38.2" cy="55.1" r="0.3" />
		<circle class="st0" cx="37.6" cy="55.8" r="0.3" />
		<circle class="st0" cx="38.8" cy="55.8" r="0.3" />
		<circle class="st0" cx="38.2" cy="56.4" r="0.3" />
		<circle class="st0" cx="40.1" cy="54.5" r="0.3" />
		<circle class="st0" cx="39.4" cy="55.1" r="0.3" />
		<circle class="st0" cx="39.4" cy="56.4" r="0.3" />
		<circle class="st0" cx="37.6" cy="57" r="0.3" />
		<circle class="st0" cx="38.8" cy="57" r="0.3" />
		<circle class="st0" cx="38.2" cy="57.6" r="0.3" />
		<circle class="st0" cx="37.6" cy="58.3" r="0.3" />
		<circle class="st0" cx="38.2" cy="58.9" r="0.3" />
		<circle class="st0" cx="36.9" cy="50.1" r="0.3" />
		<circle class="st0" cx="36.9" cy="51.4" r="0.3" />
		<circle class="st0" cx="36.3" cy="52" r="0.3" />
		<circle class="st0" cx="36.3" cy="53.3" r="0.3" />
		<circle class="st0" cx="35.7" cy="53.9" r="0.3" />
		<circle class="st0" cx="36.9" cy="52.6" r="0.3" />
		<circle class="st0" cx="36.9" cy="53.9" r="0.3" />
		<circle class="st0" cx="36.3" cy="54.5" r="0.3" />
		<circle class="st0" cx="35.7" cy="55.1" r="0.3" />
		<circle class="st0" cx="35.1" cy="55.8" r="0.3" />
		<circle class="st0" cx="36.3" cy="55.8" r="0.3" />
		<circle class="st0" cx="35.7" cy="56.4" r="0.3" />
		<circle class="st0" cx="36.9" cy="55.1" r="0.3" />
		<circle class="st0" cx="36.9" cy="56.4" r="0.3" />
		<circle class="st0" cx="33.8" cy="58.3" r="0.3" />
		<circle class="st0" cx="35.1" cy="57" r="0.3" />
		<circle class="st0" cx="36.3" cy="57" r="0.3" />
		<circle class="st0" cx="35.7" cy="57.6" r="0.3" />
		<circle class="st0" cx="35.1" cy="58.3" r="0.3" />
		<circle class="st0" cx="36.3" cy="58.3" r="0.3" />
		<circle class="st0" cx="35.7" cy="58.9" r="0.3" />
		<circle class="st0" cx="34.4" cy="57.6" r="0.3" />
		<circle class="st0" cx="34.4" cy="58.9" r="0.3" />
		<circle class="st0" cx="36.9" cy="57.6" r="0.3" />
		<circle class="st0" cx="36.9" cy="58.9" r="0.3" />
		<path class="st0" d="M37.6,39.2c-0.2,0-0.3,0.1-0.3,0.3l0,0l0,0c0,0.2,0.1,0.3,0.3,0.3c0.2,0,0.3-0.1,0.3-0.3l0,0l0,0
		C37.9,39.3,37.7,39.2,37.6,39.2z" />
		<circle class="st0" cx="40.7" cy="55.1" r="0.3" />
		<circle class="st0" cx="40.1" cy="55.8" r="0.3" />
		<circle class="st0" cx="41.3" cy="55.8" r="0.3" />
		<circle class="st0" cx="40.7" cy="56.4" r="0.3" />
		<circle class="st0" cx="40.1" cy="57" r="0.3" />
		<circle class="st0" cx="39.4" cy="57.6" r="0.3" />
		<circle class="st0" cx="40.1" cy="58.3" r="0.3" />
		<circle class="st0" cx="41.3" cy="57" r="0.3" />
		<circle class="st0" cx="41.9" cy="56.4" r="0.3" />
		<circle class="st0" cx="42.6" cy="57" r="0.3" />
		<circle class="st0" cx="39.4" cy="58.9" r="0.3" />
		<path class="st0" d="M29.4,39.2c0.2,0,0.3-0.1,0.3-0.3l0,0l0,0c0-0.2-0.1-0.3-0.3-0.3c-0.2,0-0.3,0.1-0.3,0.3l0,0l0,0
		C29.1,39.1,29.3,39.2,29.4,39.2z" />
		<path class="st0" d="M28.8,39.8c0.2,0,0.3-0.1,0.3-0.3l0,0l0,0c0-0.2-0.1-0.3-0.3-0.3c-0.2,0-0.3,0.1-0.3,0.3l0,0l0,0
		C28.5,39.7,28.6,39.8,28.8,39.8z" />
		<circle class="st0" cx="28.2" cy="41.4" r="0.3" />
		<circle class="st0" cx="32.6" cy="49.5" r="0.3" />
		<circle class="st0" cx="33.8" cy="49.5" r="0.3" />
		<circle class="st0" cx="33.2" cy="50.1" r="0.3" />
		<circle class="st0" cx="32.6" cy="50.8" r="0.3" />
		<circle class="st0" cx="33.8" cy="50.8" r="0.3" />
		<circle class="st0" cx="33.2" cy="51.4" r="0.3" />
		<circle class="st0" cx="35.1" cy="49.5" r="0.3" />
		<circle class="st0" cx="36.3" cy="49.5" r="0.3" />
		<circle class="st0" cx="35.7" cy="50.1" r="0.3" />
		<circle class="st0" cx="35.1" cy="50.8" r="0.3" />
		<circle class="st0" cx="36.3" cy="50.8" r="0.3" />
		<circle class="st0" cx="35.7" cy="51.4" r="0.3" />
		<circle class="st0" cx="34.4" cy="50.1" r="0.3" />
		<circle class="st0" cx="34.4" cy="51.4" r="0.3" />
		<circle class="st0" cx="32.6" cy="52" r="0.3" />
		<circle class="st0" cx="33.8" cy="52" r="0.3" />
		<circle class="st0" cx="33.2" cy="52.6" r="0.3" />
		<circle class="st0" cx="32.6" cy="53.3" r="0.3" />
		<circle class="st0" cx="33.8" cy="53.3" r="0.3" />
		<circle class="st0" cx="33.2" cy="53.9" r="0.3" />
		<circle class="st0" cx="35.1" cy="52" r="0.3" />
		<circle class="st0" cx="35.7" cy="52.6" r="0.3" />
		<circle class="st0" cx="35.1" cy="53.3" r="0.3" />
		<circle class="st0" cx="34.4" cy="52.6" r="0.3" />
		<circle class="st0" cx="34.4" cy="53.9" r="0.3" />
		<circle class="st0" cx="32.6" cy="54.5" r="0.3" />
		<circle class="st0" cx="33.8" cy="54.5" r="0.3" />
		<circle class="st0" cx="33.2" cy="55.1" r="0.3" />
		<circle class="st0" cx="32.6" cy="55.8" r="0.3" />
		<circle class="st0" cx="33.8" cy="55.8" r="0.3" />
		<circle class="st0" cx="33.2" cy="56.4" r="0.3" />
		<circle class="st0" cx="35.1" cy="54.5" r="0.3" />
		<circle class="st0" cx="34.4" cy="55.1" r="0.3" />
		<circle class="st0" cx="34.4" cy="56.4" r="0.3" />
		<circle class="st0" cx="32.6" cy="57" r="0.3" />
		<circle class="st0" cx="33.8" cy="57" r="0.3" />
		<circle class="st0" cx="33.2" cy="57.6" r="0.3" />
		<circle class="st0" cx="32.6" cy="58.3" r="0.3" />
		<circle class="st0" cx="33.2" cy="58.9" r="0.3" />
		<circle class="st0" cx="28.8" cy="49.5" r="0.3" />
		<circle class="st0" cx="28.8" cy="50.8" r="0.3" />
		<circle class="st0" cx="30.1" cy="49.5" r="0.3" />
		<circle class="st0" cx="31.3" cy="49.5" r="0.3" />
		<circle class="st0" cx="30.7" cy="50.1" r="0.3" />
		<circle class="st0" cx="30.1" cy="50.8" r="0.3" />
		<circle class="st0" cx="31.3" cy="50.8" r="0.3" />
		<circle class="st0" cx="30.7" cy="51.4" r="0.3" />
		<circle class="st0" cx="29.4" cy="50.1" r="0.3" />
		<circle class="st0" cx="29.4" cy="51.4" r="0.3" />
		<circle class="st0" cx="31.9" cy="50.1" r="0.3" />
		<circle class="st0" cx="31.9" cy="51.4" r="0.3" />
		<circle class="st0" cx="30.1" cy="52" r="0.3" />
		<circle class="st0" cx="31.3" cy="52" r="0.3" />
		<circle class="st0" cx="30.7" cy="52.6" r="0.3" />
		<circle class="st0" cx="30.1" cy="53.3" r="0.3" />
		<circle class="st0" cx="31.3" cy="53.3" r="0.3" />
		<circle class="st0" cx="30.7" cy="53.9" r="0.3" />
		<circle class="st0" cx="29.4" cy="52.6" r="0.3" />
		<circle class="st0" cx="31.9" cy="52.6" r="0.3" />
		<circle class="st0" cx="31.9" cy="53.9" r="0.3" />
		<circle class="st0" cx="30.1" cy="54.5" r="0.3" />
		<circle class="st0" cx="31.3" cy="54.5" r="0.3" />
		<circle class="st0" cx="30.7" cy="55.1" r="0.3" />
		<circle class="st0" cx="31.3" cy="55.8" r="0.3" />
		<circle class="st0" cx="30.7" cy="56.4" r="0.3" />
		<circle class="st0" cx="31.9" cy="55.1" r="0.3" />
		<circle class="st0" cx="31.9" cy="56.4" r="0.3" />
		<circle class="st0" cx="31.3" cy="57" r="0.3" />
		<circle class="st0" cx="31.9" cy="57.6" r="0.3" />
		<path class="st0" d="M32.6,39.8c0.2,0,0.3-0.1,0.3-0.3l0,0l0,0c0-0.2-0.1-0.3-0.3-0.3c-0.2,0-0.3,0.1-0.3,0.3l0,0l0,0
		C32.3,39.7,32.4,39.8,32.6,39.8z" />
		<path class="st0" d="M33.5,39.5L33.5,39.5c0,0.2,0.1,0.3,0.3,0.3c0.2,0,0.3-0.1,0.3-0.3l0,0l0,0c0-0.2-0.1-0.3-0.3-0.3
		C33.6,39.2,33.5,39.3,33.5,39.5L33.5,39.5z" />
		<path class="st0" d="M32.9,40.1L32.9,40.1c0,0.2,0.1,0.3,0.3,0.3c0.2,0,0.3-0.1,0.3-0.3l0,0l0,0c0-0.2-0.1-0.3-0.3-0.3
		C33,39.8,32.9,40,32.9,40.1L32.9,40.1z" />
		<path class="st0" d="M33.2,41.7c0.2,0,0.3-0.1,0.3-0.3l0,0l0,0c0-0.2-0.1-0.3-0.3-0.3c-0.2,0-0.3,0.1-0.3,0.3l0,0l0,0
		C32.9,41.6,33,41.7,33.2,41.7z" />
		<path class="st0" d="M35.1,40.5c-0.2,0-0.3,0.1-0.3,0.3l0,0l0,0c0,0.2,0.1,0.3,0.3,0.3c0.2,0,0.3-0.1,0.3-0.3l0,0l0,0
		C35.4,40.6,35.2,40.5,35.1,40.5z" />
		<path class="st0" d="M36.3,40.5c-0.2,0-0.3,0.1-0.3,0.3l0,0l0,0c0,0.2,0.1,0.3,0.3,0.3c0.2,0,0.3-0.1,0.3-0.3l0,0l0,0
		C36.6,40.6,36.5,40.5,36.3,40.5z" />
		<path class="st0" d="M34.4,41.1c-0.2,0-0.3,0.1-0.3,0.3l0,0l0,0c0,0.2,0.1,0.3,0.3,0.3c0.2,0,0.3-0.1,0.3-0.3l0,0l0,0
		C34.8,41.2,34.6,41.1,34.4,41.1z" />
		<path class="st0" d="M36.9,41.1c-0.2,0-0.3,0.1-0.3,0.3l0,0l0,0c0,0.2,0.1,0.3,0.3,0.3c0.2,0,0.3-0.1,0.3-0.3l0,0l0,0
		C37.3,41.2,37.1,41.1,36.9,41.1z" />
		<path class="st0" d="M32.6,42.3c0.2,0,0.3-0.1,0.3-0.3l0,0l0,0c0-0.2-0.1-0.3-0.3-0.3c-0.2,0-0.3,0.1-0.3,0.3l0,0l0,0
		C32.3,42.2,32.4,42.3,32.6,42.3z" />
		<path class="st0" d="M33.5,42L33.5,42c0,0.2,0.1,0.3,0.3,0.3c0.2,0,0.3-0.1,0.3-0.3l0,0l0,0c0-0.2-0.1-0.3-0.3-0.3
		C33.6,41.7,33.5,41.8,33.5,42L33.5,42z" />
		<path class="st0" d="M32.6,43.6c0.2,0,0.3-0.1,0.3-0.3l0,0l0,0c0-0.2-0.1-0.3-0.3-0.3c-0.2,0-0.3,0.1-0.3,0.3l0,0l0,0
		C32.3,43.4,32.4,43.6,32.6,43.6z" />
		<path class="st0" d="M33.8,43c-0.2,0-0.3,0.1-0.3,0.3l0,0l0,0c0,0.2,0.1,0.3,0.3,0.3c0.2,0,0.3-0.1,0.3-0.3l0,0l0,0
		C34.1,43.1,34,43,33.8,43z" />
		<path class="st0" d="M33.2,44.2c0.2,0,0.3-0.1,0.3-0.3l0,0l0,0c0-0.2-0.1-0.3-0.3-0.3c-0.2,0-0.3,0.1-0.3,0.3l0,0l0,0
		C32.9,44.1,33,44.2,33.2,44.2z" />
		<path class="st0" d="M36.6,42L36.6,42c0-0.2-0.1-0.3-0.3-0.3c-0.2,0-0.3,0.1-0.3,0.3l0,0l0,0c0,0.2,0.1,0.3,0.3,0.3
		C36.5,42.3,36.6,42.2,36.6,42L36.6,42z" />
		<path class="st0" d="M35.7,42.3c-0.2,0-0.3,0.1-0.3,0.3l0,0l0,0c0,0.2,0.1,0.3,0.3,0.3c0.2,0,0.3-0.1,0.3-0.3l0,0l0,0
		C36,42.5,35.9,42.3,35.7,42.3z" />
		<path class="st0" d="M35.1,43c-0.2,0-0.3,0.1-0.3,0.3l0,0l0,0c0,0.2,0.1,0.3,0.3,0.3c0.2,0,0.3-0.1,0.3-0.3l0,0l0,0
		C35.4,43.1,35.2,43,35.1,43z" />
		<path class="st0" d="M36.3,43c-0.2,0-0.3,0.1-0.3,0.3l0,0l0,0c0,0.2,0.1,0.3,0.3,0.3c0.2,0,0.3-0.1,0.3-0.3l0,0l0,0
		C36.6,43.1,36.5,43,36.3,43z" />
		<path class="st0" d="M35.7,43.6c-0.2,0-0.3,0.1-0.3,0.3l0,0l0,0c0,0.2,0.1,0.3,0.3,0.3c0.2,0,0.3-0.1,0.3-0.3l0,0l0,0
		C36,43.7,35.9,43.6,35.7,43.6z" />
		<path class="st0" d="M34.4,43.6c-0.2,0-0.3,0.1-0.3,0.3l0,0l0,0c0,0.2,0.1,0.3,0.3,0.3c0.2,0,0.3-0.1,0.3-0.3l0,0l0,0
		C34.8,43.7,34.6,43.6,34.4,43.6z" />
		<path class="st0" d="M33.2,45.5c0.2,0,0.3-0.1,0.3-0.3l0,0l0,0c0-0.2-0.1-0.3-0.3-0.3c-0.2,0-0.3,0.1-0.3,0.3l0,0l0,0
		C32.9,45.3,33,45.5,33.2,45.5z" />
		<path class="st0" d="M32.6,46.1c0.2,0,0.3-0.1,0.3-0.3l0,0l0,0c0-0.2-0.1-0.3-0.3-0.3c-0.2,0-0.3,0.1-0.3,0.3l0,0l0,0
		C32.3,45.9,32.4,46.1,32.6,46.1z" />
		<path class="st0" d="M33.8,45.5c-0.2,0-0.3,0.1-0.3,0.3l0,0l0,0c0,0.2,0.1,0.3,0.3,0.3c0.2,0,0.3-0.1,0.3-0.3l0,0l0,0
		C34.1,45.6,34,45.5,33.8,45.5z" />
		<path class="st0" d="M32.9,46.4L32.9,46.4c0,0.2,0.1,0.3,0.3,0.3c0.2,0,0.3-0.1,0.3-0.3l0,0l0,0c0-0.2-0.1-0.3-0.3-0.3
		C33,46.1,32.9,46.2,32.9,46.4L32.9,46.4z" />
		<path class="st0" d="M35.7,44.8c-0.2,0-0.3,0.1-0.3,0.3l0,0l0,0c0,0.2,0.1,0.3,0.3,0.3c0.2,0,0.3-0.1,0.3-0.3l0,0l0,0
		C36,45,35.9,44.8,35.7,44.8z" />
		<path class="st0" d="M35.1,45.5c-0.2,0-0.3,0.1-0.3,0.3l0,0l0,0c0,0.2,0.1,0.3,0.3,0.3c0.2,0,0.3-0.1,0.3-0.3l0,0l0,0
		C35.4,45.6,35.2,45.5,35.1,45.5z" />
		<path class="st0" d="M36.3,45.5c-0.2,0-0.3,0.1-0.3,0.3l0,0l0,0c0,0.2,0.1,0.3,0.3,0.3c0.2,0,0.3-0.1,0.3-0.3l0,0l0,0
		C36.6,45.6,36.5,45.5,36.3,45.5z" />
		<path class="st0" d="M34.4,46.1c-0.2,0-0.3,0.1-0.3,0.3l0,0l0,0c0,0.2,0.1,0.3,0.3,0.3c0.2,0,0.3-0.1,0.3-0.3l0,0l0,0
		C34.8,46.2,34.6,46.1,34.4,46.1z" />
		<circle class="st0" cx="32.6" cy="47" r="0.3" />
		<circle class="st0" cx="33.8" cy="47" r="0.3" />
		<circle class="st0" cx="33.2" cy="47.6" r="0.3" />
		<circle class="st0" cx="32.6" cy="48.3" r="0.3" />
		<circle class="st0" cx="33.8" cy="48.3" r="0.3" />
		<circle class="st0" cx="33.2" cy="48.9" r="0.3" />
		<circle class="st0" cx="35.1" cy="47" r="0.3" />
		<circle class="st0" cx="36.3" cy="47" r="0.3" />
		<circle class="st0" cx="35.7" cy="47.6" r="0.3" />
		<circle class="st0" cx="35.1" cy="48.3" r="0.3" />
		<circle class="st0" cx="36.3" cy="48.3" r="0.3" />
		<circle class="st0" cx="35.7" cy="48.9" r="0.3" />
		<circle class="st0" cx="34.4" cy="47.6" r="0.3" />
		<circle class="st0" cx="34.4" cy="48.9" r="0.3" />
		<circle class="st0" cx="36.9" cy="48.9" r="0.3" />
		<path class="st0" d="M31.3,39.8c0.2,0,0.3-0.1,0.3-0.3l0,0l0,0c0-0.2-0.1-0.3-0.3-0.3c-0.2,0-0.3,0.1-0.3,0.3l0,0l0,0
		C31,39.7,31.1,39.8,31.3,39.8z" />
		<path class="st0" d="M30.7,40.5c0.2,0,0.3-0.1,0.3-0.3l0,0l0,0c0-0.2-0.1-0.3-0.3-0.3c-0.2,0-0.3,0.1-0.3,0.3l0,0l0,0
		C30.4,40.3,30.5,40.5,30.7,40.5z" />
		<path class="st0" d="M29.8,40.8L29.8,40.8c0,0.2,0.1,0.3,0.3,0.3c0.2,0,0.3-0.1,0.3-0.3l0,0l0,0c0-0.2-0.1-0.3-0.3-0.3
		C29.9,40.5,29.8,40.6,29.8,40.8L29.8,40.8z" />
		<path class="st0" d="M29.4,41.7c0.2,0,0.3-0.1,0.3-0.3l0,0l0,0c0-0.2-0.1-0.3-0.3-0.3c-0.2,0-0.3,0.1-0.3,0.3l0,0l0,0
		C29.1,41.6,29.3,41.7,29.4,41.7z" />
		<path class="st0" d="M31.9,40.5c0.2,0,0.3-0.1,0.3-0.3l0,0l0,0c0-0.2-0.1-0.3-0.3-0.3c-0.2,0-0.3,0.1-0.3,0.3l0,0l0,0
		C31.6,40.3,31.8,40.5,31.9,40.5z" />
		<path class="st0" d="M31.9,41.7c0.2,0,0.3-0.1,0.3-0.3l0,0l0,0c0-0.2-0.1-0.3-0.3-0.3c-0.2,0-0.3,0.1-0.3,0.3l0,0l0,0
		C31.6,41.6,31.8,41.7,31.9,41.7z" />
		<path class="st0" d="M28.8,42.3c0.2,0,0.3-0.1,0.3-0.3l0,0l0,0c0-0.2-0.1-0.3-0.3-0.3c-0.2,0-0.3,0.1-0.3,0.3l0,0l0,0
		C28.5,42.2,28.6,42.3,28.8,42.3z" />
		<circle class="st0" cx="28.2" cy="42.6" r="0.3" />
		<circle class="st0" cx="28.2" cy="43.9" r="0.3" />
		<path class="st0" d="M31.3,42.3c0.2,0,0.3-0.1,0.3-0.3l0,0l0,0c0-0.2-0.1-0.3-0.3-0.3c-0.2,0-0.3,0.1-0.3,0.3l0,0l0,0
		C31,42.2,31.1,42.3,31.3,42.3z" />
		<path class="st0" d="M30.4,42.6L30.4,42.6c0,0.2,0.1,0.3,0.3,0.3c0.2,0,0.3-0.1,0.3-0.3l0,0l0,0c0-0.2-0.1-0.3-0.3-0.3
		C30.5,42.3,30.4,42.5,30.4,42.6L30.4,42.6z" />
		<path class="st0" d="M30.1,43.6c0.2,0,0.3-0.1,0.3-0.3l0,0l0,0c0-0.2-0.1-0.3-0.3-0.3c-0.2,0-0.3,0.1-0.3,0.3l0,0l0,0
		C29.8,43.4,29.9,43.6,30.1,43.6z" />
		<path class="st0" d="M29.4,44.2c0.2,0,0.3-0.1,0.3-0.3l0,0l0,0c0-0.2-0.1-0.3-0.3-0.3c-0.2,0-0.3,0.1-0.3,0.3l0,0l0,0
		C29.1,44.1,29.3,44.2,29.4,44.2z" />
		<path class="st0" d="M31.9,44.2c0.2,0,0.3-0.1,0.3-0.3l0,0l0,0c0-0.2-0.1-0.3-0.3-0.3c-0.2,0-0.3,0.1-0.3,0.3l0,0l0,0
		C31.6,44.1,31.8,44.2,31.9,44.2z" />
		<circle class="st0" cx="28.8" cy="44.5" r="0.3" />
		<circle class="st0" cx="28.2" cy="45.1" r="0.3" />
		<circle class="st0" cx="28.8" cy="45.8" r="0.3" />
		<circle class="st0" cx="28.2" cy="46.4" r="0.3" />
		<path class="st0" d="M31,44.5L31,44.5c0,0.2,0.1,0.3,0.3,0.3c0.2,0,0.3-0.1,0.3-0.3l0,0l0,0c0-0.2-0.1-0.3-0.3-0.3
		C31.1,44.2,31,44.3,31,44.5L31,44.5z" />
		<path class="st0" d="M30.7,45.5c0.2,0,0.3-0.1,0.3-0.3l0,0l0,0c0-0.2-0.1-0.3-0.3-0.3c-0.2,0-0.3,0.1-0.3,0.3l0,0l0,0
		C30.4,45.3,30.5,45.5,30.7,45.5z" />
		<circle class="st0" cx="30.1" cy="45.8" r="0.3" />
		<circle class="st0" cx="30.7" cy="46.4" r="0.3" />
		<circle class="st0" cx="29.4" cy="45.1" r="0.3" />
		<circle class="st0" cx="29.4" cy="46.4" r="0.3" />
		<path class="st0" d="M31.6,46.4L31.6,46.4c0,0.2,0.1,0.3,0.3,0.3c0.2,0,0.3-0.1,0.3-0.3l0,0l0,0c0-0.2-0.1-0.3-0.3-0.3
		C31.8,46.1,31.6,46.2,31.6,46.4L31.6,46.4z" />
		<circle class="st0" cx="28.8" cy="47" r="0.3" />
		<circle class="st0" cx="28.2" cy="47.6" r="0.3" />
		<circle class="st0" cx="28.8" cy="48.3" r="0.3" />
		<circle class="st0" cx="28.2" cy="48.9" r="0.3" />
		<circle class="st0" cx="30.1" cy="47" r="0.3" />
		<circle class="st0" cx="31.3" cy="47" r="0.3" />
		<circle class="st0" cx="30.7" cy="47.6" r="0.3" />
		<circle class="st0" cx="30.1" cy="48.3" r="0.3" />
		<circle class="st0" cx="31.3" cy="48.3" r="0.3" />
		<circle class="st0" cx="30.7" cy="48.9" r="0.3" />
		<circle class="st0" cx="29.4" cy="47.6" r="0.3" />
		<circle class="st0" cx="29.4" cy="48.9" r="0.3" />
		<circle class="st0" cx="31.9" cy="47.6" r="0.3" />
		<circle class="st0" cx="31.9" cy="48.9" r="0.3" />
		<circle class="st0" cx="43.2" cy="67.6" r="0.3" />
		<circle class="st0" cx="44.4" cy="67.6" r="0.3" />
		<circle class="st0" cx="43.8" cy="68.3" r="0.3" />
		<circle class="st0" cx="43.2" cy="68.9" r="0.3" />
		<circle class="st0" cx="44.4" cy="68.9" r="0.3" />
		<circle class="st0" cx="43.8" cy="69.5" r="0.3" />
		<circle class="st0" cx="45.7" cy="67.6" r="0.3" />
		<circle class="st0" cx="46.9" cy="67.6" r="0.3" />
		<circle class="st0" cx="46.3" cy="68.3" r="0.3" />
		<circle class="st0" cx="45.7" cy="68.9" r="0.3" />
		<circle class="st0" cx="46.3" cy="69.5" r="0.3" />
		<circle class="st0" cx="45.1" cy="68.3" r="0.3" />
		<circle class="st0" cx="45.1" cy="69.5" r="0.3" />
		<circle class="st0" cx="43.2" cy="70.1" r="0.3" />
		<circle class="st0" cx="44.4" cy="70.1" r="0.3" />
		<circle class="st0" cx="43.8" cy="70.8" r="0.3" />
		<circle class="st0" cx="43.2" cy="71.4" r="0.3" />
		<circle class="st0" cx="44.4" cy="71.4" r="0.3" />
		<circle class="st0" cx="45.7" cy="70.1" r="0.3" />
		<circle class="st0" cx="45.7" cy="71.4" r="0.3" />
		<circle class="st0" cx="45.1" cy="70.8" r="0.3" />
		<circle class="st0" cx="45.1" cy="72" r="0.3" />
		<circle class="st0" cx="45.7" cy="72.6" r="0.3" />
		<circle class="st0" cx="39.4" cy="67.6" r="0.3" />
		<circle class="st0" cx="40.7" cy="67.6" r="0.3" />
		<circle class="st0" cx="41.9" cy="67.6" r="0.3" />
		<circle class="st0" cx="41.3" cy="68.3" r="0.3" />
		<circle class="st0" cx="40.7" cy="68.9" r="0.3" />
		<circle class="st0" cx="41.9" cy="68.9" r="0.3" />
		<circle class="st0" cx="41.3" cy="69.5" r="0.3" />
		<circle class="st0" cx="40.1" cy="68.3" r="0.3" />
		<circle class="st0" cx="42.6" cy="68.3" r="0.3" />
		<circle class="st0" cx="42.6" cy="69.5" r="0.3" />
		<circle class="st0" cx="41.9" cy="70.1" r="0.3" />
		<circle class="st0" cx="42.6" cy="70.8" r="0.3" />
		<circle class="st0" cx="43.2" cy="57.6" r="0.3" />
		<circle class="st0" cx="43.8" cy="58.3" r="0.3" />
		<circle class="st0" cx="43.2" cy="58.9" r="0.3" />
		<circle class="st0" cx="43.8" cy="59.5" r="0.3" />
		<circle class="st0" cx="43.2" cy="60.1" r="0.3" />
		<circle class="st0" cx="43.8" cy="60.8" r="0.3" />
		<circle class="st0" cx="43.2" cy="61.4" r="0.3" />
		<circle class="st0" cx="44.4" cy="61.4" r="0.3" />
		<circle class="st0" cx="43.8" cy="62" r="0.3" />
		<circle class="st0" cx="45.1" cy="62" r="0.3" />
		<circle class="st0" cx="43.2" cy="62.6" r="0.3" />
		<circle class="st0" cx="44.4" cy="62.6" r="0.3" />
		<circle class="st0" cx="43.8" cy="63.3" r="0.3" />
		<circle class="st0" cx="43.2" cy="63.9" r="0.3" />
		<circle class="st0" cx="44.4" cy="63.9" r="0.3" />
		<circle class="st0" cx="43.8" cy="64.5" r="0.3" />
		<circle class="st0" cx="45.7" cy="62.6" r="0.3" />
		<circle class="st0" cx="46.3" cy="63.3" r="0.3" />
		<circle class="st0" cx="45.7" cy="63.9" r="0.3" />
		<circle class="st0" cx="46.9" cy="63.9" r="0.3" />
		<circle class="st0" cx="46.3" cy="64.5" r="0.3" />
		<circle class="st0" cx="45.1" cy="63.3" r="0.3" />
		<circle class="st0" cx="45.1" cy="64.5" r="0.3" />
		<circle class="st0" cx="47.6" cy="64.5" r="0.3" />
		<circle class="st0" cx="43.2" cy="65.1" r="0.3" />
		<circle class="st0" cx="44.4" cy="65.1" r="0.3" />
		<circle class="st0" cx="43.8" cy="65.8" r="0.3" />
		<circle class="st0" cx="43.2" cy="66.4" r="0.3" />
		<circle class="st0" cx="44.4" cy="66.4" r="0.3" />
		<circle class="st0" cx="43.8" cy="67" r="0.3" />
		<circle class="st0" cx="45.7" cy="65.1" r="0.3" />
		<circle class="st0" cx="46.9" cy="65.1" r="0.3" />
		<circle class="st0" cx="46.3" cy="65.8" r="0.3" />
		<circle class="st0" cx="45.7" cy="66.4" r="0.3" />
		<circle class="st0" cx="46.9" cy="66.4" r="0.3" />
		<circle class="st0" cx="46.3" cy="67" r="0.3" />
		<circle class="st0" cx="45.1" cy="65.8" r="0.3" />
		<circle class="st0" cx="45.1" cy="67" r="0.3" />
		<circle class="st0" cx="47.6" cy="65.8" r="0.3" />
		<circle class="st0" cx="48.2" cy="63.9" r="0.3" />
		<circle class="st0" cx="40.7" cy="57.6" r="0.3" />
		<circle class="st0" cx="41.9" cy="57.6" r="0.3" />
		<circle class="st0" cx="41.3" cy="58.3" r="0.3" />
		<circle class="st0" cx="40.7" cy="58.9" r="0.3" />
		<circle class="st0" cx="41.9" cy="58.9" r="0.3" />
		<circle class="st0" cx="41.3" cy="59.5" r="0.3" />
		<circle class="st0" cx="40.1" cy="59.5" r="0.3" />
		<circle class="st0" cx="42.6" cy="58.3" r="0.3" />
		<circle class="st0" cx="42.6" cy="59.5" r="0.3" />
		<circle class="st0" cx="39.4" cy="60.1" r="0.3" />
		<circle class="st0" cx="38.8" cy="60.8" r="0.3" />
		<circle class="st0" cx="39.4" cy="61.4" r="0.3" />
		<circle class="st0" cx="38.8" cy="62" r="0.3" />
		<circle class="st0" cx="40.7" cy="60.1" r="0.3" />
		<circle class="st0" cx="41.9" cy="60.1" r="0.3" />
		<circle class="st0" cx="41.3" cy="60.8" r="0.3" />
		<circle class="st0" cx="40.7" cy="61.4" r="0.3" />
		<circle class="st0" cx="41.9" cy="61.4" r="0.3" />
		<circle class="st0" cx="41.3" cy="62" r="0.3" />
		<circle class="st0" cx="40.1" cy="60.8" r="0.3" />
		<circle class="st0" cx="40.1" cy="62" r="0.3" />
		<circle class="st0" cx="42.6" cy="60.8" r="0.3" />
		<circle class="st0" cx="42.6" cy="62" r="0.3" />
		<circle class="st0" cx="37.6" cy="64.5" r="0.3" />
		<circle class="st0" cx="37.6" cy="65.8" r="0.3" />
		<circle class="st0" cx="38.2" cy="62.6" r="0.3" />
		<circle class="st0" cx="39.4" cy="62.6" r="0.3" />
		<circle class="st0" cx="38.8" cy="63.3" r="0.3" />
		<circle class="st0" cx="38.2" cy="63.9" r="0.3" />
		<circle class="st0" cx="39.4" cy="63.9" r="0.3" />
		<circle class="st0" cx="38.8" cy="64.5" r="0.3" />
		<circle class="st0" cx="40.7" cy="62.6" r="0.3" />
		<circle class="st0" cx="41.9" cy="62.6" r="0.3" />
		<circle class="st0" cx="41.3" cy="63.3" r="0.3" />
		<circle class="st0" cx="40.7" cy="63.9" r="0.3" />
		<circle class="st0" cx="41.9" cy="63.9" r="0.3" />
		<circle class="st0" cx="41.3" cy="64.5" r="0.3" />
		<circle class="st0" cx="40.1" cy="63.3" r="0.3" />
		<circle class="st0" cx="40.1" cy="64.5" r="0.3" />
		<circle class="st0" cx="42.6" cy="63.3" r="0.3" />
		<circle class="st0" cx="42.6" cy="64.5" r="0.3" />
		<circle class="st0" cx="38.2" cy="65.1" r="0.3" />
		<circle class="st0" cx="39.4" cy="65.1" r="0.3" />
		<circle class="st0" cx="38.8" cy="65.8" r="0.3" />
		<circle class="st0" cx="38.2" cy="66.4" r="0.3" />
		<circle class="st0" cx="39.4" cy="66.4" r="0.3" />
		<circle class="st0" cx="38.8" cy="67" r="0.3" />
		<circle class="st0" cx="40.7" cy="65.1" r="0.3" />
		<circle class="st0" cx="41.9" cy="65.1" r="0.3" />
		<circle class="st0" cx="41.3" cy="65.8" r="0.3" />
		<circle class="st0" cx="40.7" cy="66.4" r="0.3" />
		<circle class="st0" cx="41.9" cy="66.4" r="0.3" />
		<circle class="st0" cx="41.3" cy="67" r="0.3" />
		<circle class="st0" cx="40.1" cy="65.8" r="0.3" />
		<circle class="st0" cx="40.1" cy="67" r="0.3" />
		<circle class="st0" cx="42.6" cy="65.8" r="0.3" />
		<circle class="st0" cx="42.6" cy="67" r="0.3" />
		<circle class="st0" cx="46.3" cy="72" r="0.3" />
		<circle class="st0" cx="46.3" cy="73.3" r="0.3" />
		<circle class="st0" cx="46.9" cy="72.6" r="0.3" />
		<circle class="st0" cx="46.9" cy="73.9" r="0.3" />
		<circle class="st0" cx="47.6" cy="72" r="0.3" />
		<circle class="st0" cx="48.8" cy="72" r="0.3" />
		<circle class="st0" cx="48.2" cy="72.6" r="0.3" />
		<circle class="st0" cx="47.6" cy="73.3" r="0.3" />
		<circle class="st0" cx="48.8" cy="73.3" r="0.3" />
		<circle class="st0" cx="48.2" cy="73.9" r="0.3" />
		<circle class="st0" cx="49.4" cy="72.6" r="0.3" />
		<circle class="st0" cx="49.4" cy="73.9" r="0.3" />
		<circle class="st0" cx="47.6" cy="74.5" r="0.3" />
		<circle class="st0" cx="48.8" cy="74.5" r="0.3" />
		<circle class="st0" cx="48.2" cy="75.1" r="0.3" />
		<circle class="st0" cx="49.4" cy="75.1" r="0.3" />
		<circle class="st0" cx="49.4" cy="63.9" r="0.3" />
		<circle class="st0" cx="48.8" cy="64.5" r="0.3" />
		<circle class="st0" cx="48.2" cy="65.1" r="0.3" />
		<circle class="st0" cx="48.8" cy="65.8" r="0.3" />
		<circle class="st0" cx="48.2" cy="66.4" r="0.3" />
		<circle class="st0" cx="49.4" cy="65.1" r="0.3" />
		<circle class="st0" cx="49.4" cy="66.4" r="0.3" />
		<circle class="st0" cx="46.9" cy="68.9" r="0.3" />
		<circle class="st0" cx="46.3" cy="70.8" r="0.3" />
		<circle class="st0" cx="46.9" cy="70.1" r="0.3" />
		<circle class="st0" cx="46.9" cy="71.4" r="0.3" />
		<circle class="st0" cx="47.6" cy="67" r="0.3" />
		<circle class="st0" cx="48.8" cy="67" r="0.3" />
		<circle class="st0" cx="48.2" cy="67.6" r="0.3" />
		<circle class="st0" cx="47.6" cy="68.3" r="0.3" />
		<circle class="st0" cx="48.8" cy="68.3" r="0.3" />
		<circle class="st0" cx="48.2" cy="68.9" r="0.3" />
		<circle class="st0" cx="49.4" cy="67.6" r="0.3" />
		<circle class="st0" cx="49.4" cy="68.9" r="0.3" />
		<circle class="st0" cx="47.6" cy="69.5" r="0.3" />
		<circle class="st0" cx="48.8" cy="69.5" r="0.3" />
		<circle class="st0" cx="48.2" cy="70.1" r="0.3" />
		<circle class="st0" cx="47.6" cy="70.8" r="0.3" />
		<circle class="st0" cx="48.8" cy="70.8" r="0.3" />
		<circle class="st0" cx="48.2" cy="71.4" r="0.3" />
		<circle class="st0" cx="49.4" cy="70.1" r="0.3" />
		<circle class="st0" cx="49.4" cy="71.4" r="0.3" />
		<circle class="st0" cx="44.4" cy="57.6" r="0.3" />
		<circle class="st0" cx="45.1" cy="58.3" r="0.3" />
		<circle class="st0" cx="46.3" cy="58.3" r="0.3" />
		<circle class="st0" cx="44.4" cy="58.9" r="0.3" />
		<circle class="st0" cx="45.7" cy="58.9" r="0.3" />
		<circle class="st0" cx="45.1" cy="59.5" r="0.3" />
		<circle class="st0" cx="44.4" cy="60.1" r="0.3" />
		<circle class="st0" cx="45.7" cy="60.1" r="0.3" />
		<circle class="st0" cx="45.1" cy="60.8" r="0.3" />
		<circle class="st0" cx="46.3" cy="59.5" r="0.3" />
		<circle class="st0" cx="46.3" cy="60.8" r="0.3" />
		<circle class="st0" cx="45.7" cy="61.4" r="0.3" />
		<circle class="st0" cx="46.3" cy="62" r="0.3" />
		<circle class="st0" cx="46.9" cy="58.9" r="0.3" />
		<circle class="st0" cx="48.2" cy="58.9" r="0.3" />
		<circle class="st0" cx="47.6" cy="59.5" r="0.3" />
		<circle class="st0" cx="46.9" cy="60.1" r="0.3" />
		<circle class="st0" cx="48.2" cy="60.1" r="0.3" />
		<circle class="st0" cx="47.6" cy="60.8" r="0.3" />
		<circle class="st0" cx="49.4" cy="58.9" r="0.3" />
		<circle class="st0" cx="49.4" cy="60.1" r="0.3" />
		<circle class="st0" cx="48.8" cy="59.5" r="0.3" />
		<circle class="st0" cx="48.8" cy="60.8" r="0.3" />
		<circle class="st0" cx="46.9" cy="61.4" r="0.3" />
		<circle class="st0" cx="48.2" cy="61.4" r="0.3" />
		<circle class="st0" cx="47.6" cy="62" r="0.3" />
		<circle class="st0" cx="46.9" cy="62.6" r="0.3" />
		<circle class="st0" cx="48.2" cy="62.6" r="0.3" />
		<circle class="st0" cx="47.6" cy="63.3" r="0.3" />
		<circle class="st0" cx="49.4" cy="61.4" r="0.3" />
		<circle class="st0" cx="49.4" cy="62.6" r="0.3" />
		<circle class="st0" cx="48.8" cy="62" r="0.3" />
		<circle class="st0" cx="48.8" cy="63.3" r="0.3" />
		<path class="st0" d="M50,20.8c-13.5,0-24.5,11-24.5,24.5c0,7.9,4.1,16.2,11.8,23.9c5.7,5.7,11.4,9.2,11.6,9.3l1,0.6l1-0.6
		c0.2-0.1,5.9-3.6,11.6-9.3c7.7-7.7,11.8-16,11.8-23.9C74.5,31.8,63.5,20.8,50,20.8z M50,76.8c0,0-0.1-0.1-0.3-0.2
		c0.1-0.1,0.1-0.1,0.1-0.2c0-0.2-0.1-0.3-0.3-0.3c-0.1,0-0.2,0.1-0.3,0.2c-0.1-0.1-0.2-0.1-0.3-0.2c0.2,0,0.3-0.1,0.3-0.3
		c0-0.2-0.1-0.3-0.3-0.3c-0.2,0-0.3,0.1-0.3,0.3c0,0.1,0,0.1,0.1,0.1c-0.4-0.3-0.9-0.6-1.4-1c0,0,0,0,0,0c-0.2-0.1-0.3-0.2-0.5-0.4
		c0,0,0,0,0,0c0-0.2-0.1-0.3-0.3-0.3c0,0-0.1,0-0.1,0c-0.1-0.1-0.2-0.1-0.3-0.2c0,0,0.1-0.1,0.1-0.1c0-0.2-0.1-0.3-0.3-0.3
		c-0.1,0-0.2,0-0.2,0.1c-0.1-0.1-0.1-0.1-0.2-0.2c0.1-0.1,0.1-0.1,0.1-0.2c0-0.2-0.1-0.3-0.3-0.3c-0.1,0-0.2,0.1-0.3,0.2
		c-0.1-0.1-0.2-0.2-0.3-0.2c0.1,0,0.2-0.1,0.2-0.3c0-0.2-0.1-0.3-0.3-0.3c-0.2,0-0.3,0.1-0.3,0.3c-0.1-0.1-0.3-0.2-0.4-0.4
		c0,0,0.1,0,0.1,0c0.2,0,0.3-0.1,0.3-0.3c0-0.2-0.1-0.3-0.3-0.3c-0.2,0-0.3,0.1-0.3,0.3c0,0.1,0,0.1,0.1,0.2c-1-0.9-2.1-1.8-3.3-2.9
		c0,0,0,0,0,0c-0.2-0.2-0.4-0.4-0.6-0.5c0-0.1-0.1-0.1-0.1-0.1c-0.2-0.2-0.3-0.3-0.5-0.5c0-0.1-0.1-0.1-0.2-0.1
		c-0.2-0.2-0.3-0.3-0.5-0.5c0-0.1-0.1-0.1-0.1-0.1c-0.2-0.2-0.3-0.3-0.5-0.5c0,0-0.1-0.1-0.1-0.1c-1-1-1.9-2.1-2.9-3.3
		c0.1,0.1,0.1,0.1,0.2,0.1c0.2,0,0.3-0.1,0.3-0.3c0-0.2-0.1-0.3-0.3-0.3c-0.2,0-0.3,0.1-0.3,0.3c0,0.1,0,0.1,0.1,0.2
		c-0.1-0.2-0.3-0.3-0.4-0.5c0,0,0,0,0,0c0.2,0,0.3-0.1,0.3-0.3c0-0.2-0.1-0.3-0.3-0.3c-0.2,0-0.3,0.1-0.3,0.3
		c-0.1-0.1-0.2-0.2-0.2-0.3c0.1,0,0.2-0.1,0.2-0.3c0-0.2-0.1-0.3-0.3-0.3c-0.1,0-0.2,0.1-0.2,0.1c-0.1-0.1-0.1-0.2-0.2-0.2
		c0.1-0.1,0.1-0.1,0.1-0.2c0-0.2-0.1-0.3-0.3-0.3c0,0-0.1,0-0.1,0c-0.1-0.1-0.1-0.2-0.2-0.3c0,0,0,0,0,0c0-0.1-0.1-0.2-0.2-0.3
		c-0.3-0.4-0.6-0.9-0.9-1.3c0,0,0.1,0.1,0.2,0.1c0.2,0,0.3-0.1,0.3-0.3c0-0.2-0.1-0.3-0.3-0.3c-0.2,0-0.3,0.1-0.3,0.3
		c-0.1-0.1-0.1-0.2-0.2-0.4c0.1,0,0.2-0.1,0.2-0.3c0-0.2-0.1-0.3-0.3-0.3c-0.1,0-0.1,0-0.2,0.1c-0.1-0.1-0.1-0.2-0.2-0.3
		c0,0,0-0.1,0-0.1c0-0.1-0.1-0.2-0.2-0.3c-0.2-0.4-0.4-0.9-0.7-1.3c0.2,0,0.3-0.1,0.3-0.3c0-0.2-0.1-0.3-0.3-0.3
		c-0.1,0-0.1,0-0.2,0.1c0-0.1-0.1-0.2-0.1-0.3c0,0,0-0.1,0-0.1c0-0.1-0.1-0.2-0.2-0.3c-0.1-0.2-0.2-0.5-0.3-0.7
		c0.1,0,0.1,0.1,0.2,0.1c0.2,0,0.3-0.1,0.3-0.3c0-0.2-0.1-0.3-0.3-0.3c-0.2,0-0.3,0.1-0.3,0.3c0-0.1-0.1-0.2-0.1-0.3
		c0.1-0.1,0.1-0.1,0.1-0.2c0-0.2-0.1-0.3-0.3-0.3c-0.1-0.2-0.2-0.5-0.2-0.7c0.1,0.1,0.1,0.1,0.2,0.1c0.2,0,0.3-0.1,0.3-0.3
		c0-0.2-0.1-0.3-0.3-0.3c-0.2,0-0.3,0.1-0.3,0.3c0-0.1-0.1-0.2-0.1-0.4c0.1-0.1,0.1-0.1,0.1-0.2c0-0.1-0.1-0.2-0.2-0.3
		c-0.1-0.2-0.1-0.5-0.2-0.7c0,0,0.1,0,0.1,0c0.2,0,0.3-0.1,0.3-0.3c0-0.2-0.1-0.3-0.3-0.3c-0.1,0-0.1,0-0.2,0.1
		c-0.1-0.5-0.2-0.9-0.3-1.4c0.1-0.1,0.1-0.1,0.1-0.2c0-0.1-0.1-0.2-0.2-0.3c0-0.2-0.1-0.5-0.1-0.7c0.2,0,0.3-0.1,0.3-0.3
		c0-0.2-0.1-0.3-0.3-0.3c0,0,0,0,0,0c0-0.2,0-0.4,0-0.6c0,0,0,0,0,0c0.2,0,0.3-0.1,0.3-0.3c0-0.2-0.1-0.3-0.3-0.3c0,0,0,0-0.1,0
		c0,0,0-0.1,0-0.1c0-0.2,0-0.3,0-0.5c0,0,0,0,0,0c0.2,0,0.3-0.1,0.3-0.3c0-0.2-0.1-0.3-0.3-0.3c0,0,0,0,0,0c0-0.2,0-0.4,0-0.6
		c0.2,0,0.3-0.1,0.3-0.3c0-0.1-0.1-0.3-0.3-0.3c0-0.2,0.1-0.5,0.1-0.7c0.1-0.1,0.2-0.1,0.2-0.3l0,0l0,0c0-0.1,0-0.2-0.1-0.2
		c0.1-0.5,0.2-0.9,0.3-1.4c0,0,0.1,0.1,0.1,0.1c0.2,0,0.3-0.1,0.3-0.3l0,0l0,0c0-0.2-0.1-0.3-0.3-0.3c0,0,0,0,0,0
		c0.1-0.2,0.1-0.5,0.2-0.7c0.1-0.1,0.1-0.1,0.1-0.2l0,0l0,0c0,0,0-0.1,0-0.1c0-0.1,0.1-0.2,0.1-0.4c0.1,0.1,0.1,0.1,0.2,0.1
		c0.2,0,0.3-0.1,0.3-0.3l0,0l0,0c0-0.2-0.1-0.3-0.3-0.3c0,0-0.1,0-0.1,0c0.1-0.2,0.2-0.5,0.3-0.7c0.1-0.1,0.1-0.1,0.1-0.2l0,0l0,0
		c0,0,0,0,0,0c0-0.1,0.1-0.2,0.1-0.4c0.1,0,0.1,0.1,0.2,0.1c0.2,0,0.3-0.1,0.3-0.3c0-0.2-0.1-0.3-0.3-0.3c0.2-0.4,0.4-0.9,0.6-1.3
		c0.1,0,0.3-0.1,0.3-0.3c0,0,0-0.1,0-0.1c0.1-0.1,0.1-0.2,0.2-0.3c0.1,0,0.1,0.1,0.2,0.1c0.2,0,0.3-0.1,0.3-0.3
		c0-0.1-0.1-0.2-0.2-0.3c0.1-0.1,0.1-0.2,0.2-0.3c0,0.2,0.1,0.3,0.3,0.3c0.2,0,0.3-0.1,0.3-0.3c0-0.2-0.1-0.3-0.3-0.3
		c-0.1,0-0.1,0-0.1,0.1c0.4-0.7,0.9-1.3,1.4-1.9c0.2,0,0.3-0.1,0.3-0.3c0,0,0,0,0,0c0.1-0.1,0.2-0.2,0.3-0.3c0,0,0,0,0,0
		c0.2,0,0.3-0.1,0.3-0.3c0,0,0,0,0-0.1c0.1-0.1,0.2-0.2,0.3-0.3c0,0,0,0,0.1,0c0.2,0,0.3-0.1,0.3-0.3c0,0,0-0.1,0-0.1
		c0.1-0.1,0.2-0.2,0.3-0.3c0,0,0.1,0,0.1,0c0.2,0,0.3-0.1,0.3-0.3c0,0,0,0,0-0.1c0.1-0.1,0.2-0.2,0.3-0.3c0,0,0,0,0.1,0
		c0.2,0,0.3-0.1,0.3-0.3c0,0,0,0,0,0c0.1-0.1,0.2-0.2,0.4-0.3c0.1,0,0.2-0.1,0.2-0.2c0.6-0.5,1.3-1,1.9-1.4c0,0,0,0,0,0
		c0,0.2,0.1,0.3,0.3,0.3c0.2,0,0.3-0.1,0.3-0.3c0-0.1-0.1-0.2-0.2-0.3c0.1-0.1,0.2-0.1,0.3-0.2c0.1,0.1,0.1,0.1,0.2,0.1
		c0.2,0,0.3-0.1,0.3-0.3c0,0,0-0.1,0-0.1c0.1-0.1,0.3-0.2,0.4-0.2c0.1,0,0.1,0,0.2-0.1c0.3-0.1,0.5-0.3,0.8-0.4
		c0,0.1-0.1,0.1-0.1,0.2c0,0.2,0.1,0.3,0.3,0.3c0.2,0,0.3-0.1,0.3-0.3c0-0.2-0.1-0.3-0.3-0.3c0.1-0.1,0.2-0.1,0.4-0.2
		c0.1,0.1,0.1,0.2,0.2,0.2c0.2,0,0.3-0.1,0.3-0.3c0,0,0,0,0-0.1c0.4-0.2,0.9-0.3,1.3-0.5c0,0.1,0.1,0.2,0.3,0.2
		c0.2,0,0.3-0.1,0.3-0.3c0,0,0-0.1,0-0.1c0.4-0.1,0.9-0.3,1.4-0.4c0.1,0.1,0.1,0.1,0.2,0.1c0.2,0,0.3-0.1,0.3-0.3
		c0.2,0,0.5-0.1,0.7-0.1c0,0,0,0,0,0.1c0,0.2,0.1,0.3,0.3,0.3c0.2,0,0.3-0.1,0.3-0.3c0-0.1,0-0.1-0.1-0.2c0.3,0,0.7-0.1,1-0.1
		c-0.2,0-0.3,0.1-0.3,0.3c0,0.2,0.1,0.3,0.3,0.3c0.2,0,0.3-0.1,0.3-0.3c0-0.2-0.1-0.3-0.3-0.3c0.2,0,0.3,0,0.5,0c0,0,0.1,0,0.1,0
		c0.1,0,0.1,0,0.1-0.1c0.3,0,0.6,0,0.9,0c0.1,0.1,0.1,0.1,0.2,0.1c0.1,0,0.2,0,0.2-0.1c0.1,0,0.2,0,0.3,0
		c12.4,0,22.5,10.1,22.5,22.5C72.5,63.3,50,76.8,50,76.8z" />
		<path class="st0" d="M50,32.3c-0.2,0-0.3,0-0.5,0c0,0,0,0-0.1,0c0,0-0.1,0-0.1,0c-0.3,0-0.6,0-0.9,0.1c-0.1-0.1-0.1-0.1-0.2-0.1
		c-0.1,0-0.2,0.1-0.3,0.2c-0.2,0-0.5,0.1-0.7,0.1c0-0.2-0.1-0.3-0.3-0.3c-0.2,0-0.3,0.1-0.3,0.3c0,0.1,0,0.1,0.1,0.1
		c-0.5,0.1-0.9,0.3-1.3,0.4c0-0.1-0.1-0.2-0.3-0.2c-0.2,0-0.3,0.1-0.3,0.3c0,0.1,0,0.1,0.1,0.1c-0.1,0.1-0.2,0.1-0.4,0.2
		c0,0,0,0,0,0c-0.1,0-0.2,0.1-0.2,0.1c-0.5,0.2-0.9,0.5-1.3,0.8c0-0.2-0.1-0.3-0.3-0.3c-0.2,0-0.3,0.1-0.3,0.3
		c0,0.1,0.1,0.2,0.2,0.3c-0.1,0.1-0.2,0.1-0.3,0.2c-0.1-0.1-0.1-0.1-0.2-0.1c-0.2,0-0.3,0.1-0.3,0.3c0,0.1,0,0.1,0.1,0.2
		c-0.1,0.1-0.1,0.1-0.2,0.2c-0.1,0-0.1-0.1-0.2-0.1c-0.2,0-0.3,0.1-0.3,0.3c0,0.1,0,0.1,0.1,0.1c-0.1,0.1-0.2,0.1-0.2,0.2
		c0,0-0.1-0.1-0.1-0.1c-0.2,0-0.3,0.1-0.3,0.3c0,0.1,0,0.1,0.1,0.2c-0.1,0.1-0.1,0.1-0.2,0.2c-0.1,0-0.1-0.1-0.2-0.1
		c-0.2,0-0.3,0.1-0.3,0.3c0,0.1,0,0.2,0.1,0.2c-0.1,0.1-0.1,0.1-0.2,0.2c-0.1-0.1-0.1-0.1-0.2-0.1c-0.2,0-0.3,0.1-0.3,0.3
		c0,0.1,0.1,0.2,0.2,0.3c-0.1,0.1-0.1,0.2-0.2,0.3c0-0.2-0.1-0.3-0.3-0.3c-0.2,0-0.3,0.1-0.3,0.3c0,0.2,0.1,0.3,0.3,0.3
		c0.1,0,0.1,0,0.1-0.1c-0.3,0.4-0.5,0.9-0.7,1.3c0,0,0,0,0,0c-0.2,0-0.3,0.1-0.3,0.3l0,0l0,0c0,0.1,0,0.2,0.1,0.2
		c0,0.1-0.1,0.2-0.1,0.4c0-0.1-0.1-0.3-0.3-0.3c-0.2,0-0.3,0.1-0.3,0.3l0,0l0,0c0,0.2,0.1,0.3,0.3,0.3c0.1,0,0.1,0,0.2-0.1
		c-0.1,0.2-0.2,0.5-0.2,0.7c-0.1,0-0.3,0.1-0.3,0.3l0,0l0,0c0,0.1,0.1,0.2,0.1,0.2c-0.1,0.5-0.2,0.9-0.3,1.4c-0.1,0-0.1-0.1-0.2-0.1
		c-0.2,0-0.3,0.1-0.3,0.3l0,0l0,0c0,0.2,0.1,0.3,0.3,0.3c0,0,0.1,0,0.1-0.1c0,0.2,0,0.5,0,0.7c0,0-0.1,0-0.1,0
		c-0.2,0-0.3,0.1-0.3,0.3l0,0l0,0c0,0.2,0.1,0.3,0.3,0.3c0,0,0,0,0.1,0c0,0.2,0,0.5,0,0.7c0,0-0.1,0-0.1,0c-0.2,0-0.3,0.1-0.3,0.3
		l0,0l0,0c0,0.2,0.1,0.3,0.3,0.3c0.1,0,0.1,0,0.1-0.1c0,0.3,0.1,0.6,0.1,0.9c-0.1-0.1-0.1-0.2-0.3-0.2c-0.2,0-0.3,0.1-0.3,0.3
		c0,0.2,0.1,0.3,0.3,0.3c0.2,0,0.3-0.1,0.3-0.3c0,0.1,0.1,0.3,0.1,0.4c0,0-0.1,0.1-0.1,0.1c0,0.1,0.1,0.2,0.2,0.2
		c0.1,0.2,0.1,0.5,0.2,0.7c0,0,0,0,0,0c-0.2,0-0.3,0.1-0.3,0.3c0,0.2,0.1,0.3,0.3,0.3c0.1,0,0.2,0,0.2-0.1c0,0.1,0.1,0.2,0.1,0.3
		c0,0,0,0,0,0.1c0,0.1,0.1,0.2,0.1,0.2c0.1,0.3,0.2,0.5,0.4,0.8c-0.1-0.1-0.1-0.1-0.2-0.1c-0.2,0-0.3,0.1-0.3,0.3
		c0,0.2,0.1,0.3,0.3,0.3c0.2,0,0.3-0.1,0.3-0.3c0,0,0-0.1-0.1-0.1c0.1,0.2,0.2,0.3,0.3,0.5c-0.1,0-0.2,0.1-0.2,0.3
		c0,0.2,0.1,0.3,0.3,0.3c0.1,0,0.1,0,0.2-0.1c0.9,1.4,2,2.5,3.2,3.5c0,0,0,0,0,0c0,0.2,0.1,0.3,0.3,0.3c0,0,0.1,0,0.1,0
		c0.1,0.1,0.2,0.1,0.3,0.2c0,0-0.1,0.1-0.1,0.2c0,0.2,0.1,0.3,0.3,0.3c0.1,0,0.2-0.1,0.3-0.2c0.1,0.1,0.2,0.1,0.3,0.2
		c-0.1,0-0.3,0.1-0.3,0.3c0,0.2,0.1,0.3,0.3,0.3c0.2,0,0.3-0.1,0.3-0.3c0-0.1,0-0.1-0.1-0.1c0.4,0.2,0.9,0.4,1.4,0.6
		c0,0-0.1,0.1-0.1,0.2c0,0.2,0.1,0.3,0.3,0.3c0.2,0,0.3-0.1,0.3-0.3c0.3,0.1,0.6,0.2,0.9,0.3c0,0,0,0,0,0c0,0,0,0,0,0
		c0.1,0,0.3,0.1,0.4,0.1c-0.1,0.1-0.1,0.1-0.1,0.2c0,0.2,0.1,0.3,0.3,0.3c0.2,0,0.3-0.1,0.3-0.3c0-0.1,0-0.1-0.1-0.1
		c0.2,0,0.5,0.1,0.7,0.1c0,0,0,0,0,0c0,0.2,0.1,0.3,0.3,0.3c0.2,0,0.3-0.1,0.3-0.3c0.3,0,0.6,0,0.9,0c7.2,0,13-5.8,13-13
		S57.2,32.3,50,32.3z M50,57.3c-6.6,0-12-5.4-12-12c0-2.5,0.8-4.8,2.1-6.8c0.2,0,0.3-0.1,0.3-0.3c0,0,0,0,0,0c0.8-1.1,1.8-2,2.9-2.8
		c0.1,0,0.2-0.1,0.2-0.1c0.7-0.4,1.4-0.8,2.2-1.1c0,0,0,0,0.1,0c0.1,0,0.2-0.1,0.2-0.2c0.5-0.2,1.1-0.4,1.6-0.5c0,0,0,0,0,0
		c0,0,0,0,0,0c0.8-0.2,1.6-0.2,2.4-0.2c6.6,0,12,5.4,12,12S56.6,57.3,50,57.3z" />
	</g>
</svg>
