<?xml version="1.0" encoding="utf-8"?>
<!-- Generator: Adobe Illustrator 23.1.1, SVG Export Plug-In . SVG Version: 6.00 Build 0)  -->
<svg version="1.1" id="Layer_1" xmlns="http://www.w3.org/2000/svg" xmlns:xlink="http://www.w3.org/1999/xlink" x="0px" y="0px"
	 viewBox="0 0 100 100" style="enable-background:new 0 0 100 100;" xml:space="preserve">
<style type="text/css">
	.st0{fill:#231F20;}
</style>
<g>
	<circle class="st0" cx="42.4" cy="28.9" r="0.3"/>
	<circle class="st0" cx="43.6" cy="28.9" r="0.3"/>
	<circle class="st0" cx="43" cy="29.5" r="0.3"/>
	<circle class="st0" cx="42.4" cy="30.1" r="0.3"/>
	<circle class="st0" cx="43.6" cy="30.1" r="0.3"/>
	<circle class="st0" cx="43" cy="30.8" r="0.3"/>
	<circle class="st0" cx="42.4" cy="31.4" r="0.3"/>
	<circle class="st0" cx="43.6" cy="31.4" r="0.3"/>
	<circle class="st0" cx="43" cy="32" r="0.3"/>
	<circle class="st0" cx="42.4" cy="32.6" r="0.3"/>
	<circle class="st0" cx="43" cy="33.3" r="0.3"/>
	<circle class="st0" cx="42.4" cy="33.9" r="0.3"/>
	<circle class="st0" cx="43" cy="34.5" r="0.3"/>
	<circle class="st0" cx="42.4" cy="35.1" r="0.3"/>
	<circle class="st0" cx="43" cy="35.8" r="0.3"/>
	<circle class="st0" cx="42.4" cy="36.4" r="0.3"/>
	<circle class="st0" cx="43" cy="37" r="0.3"/>
	<circle class="st0" cx="42.4" cy="37.6" r="0.3"/>
	<circle class="st0" cx="43" cy="38.3" r="0.3"/>
	<circle class="st0" cx="36.1" cy="30.1" r="0.3"/>
	<circle class="st0" cx="36.8" cy="29.5" r="0.3"/>
	<circle class="st0" cx="36.8" cy="30.8" r="0.3"/>
	<circle class="st0" cx="36.1" cy="31.4" r="0.3"/>
	<circle class="st0" cx="36.1" cy="32.6" r="0.3"/>
	<circle class="st0" cx="35.5" cy="33.3" r="0.3"/>
	<circle class="st0" cx="36.8" cy="32" r="0.3"/>
	<circle class="st0" cx="36.8" cy="33.3" r="0.3"/>
	<circle class="st0" cx="37.4" cy="28.9" r="0.3"/>
	<circle class="st0" cx="38.6" cy="28.9" r="0.3"/>
	<circle class="st0" cx="38" cy="29.5" r="0.3"/>
	<circle class="st0" cx="37.4" cy="30.1" r="0.3"/>
	<circle class="st0" cx="38.6" cy="30.1" r="0.3"/>
	<circle class="st0" cx="38" cy="30.8" r="0.3"/>
	<circle class="st0" cx="39.9" cy="28.9" r="0.3"/>
	<circle class="st0" cx="41.1" cy="28.9" r="0.3"/>
	<circle class="st0" cx="40.5" cy="29.5" r="0.3"/>
	<circle class="st0" cx="39.9" cy="30.1" r="0.3"/>
	<circle class="st0" cx="41.1" cy="30.1" r="0.3"/>
	<circle class="st0" cx="40.5" cy="30.8" r="0.3"/>
	<circle class="st0" cx="39.3" cy="29.5" r="0.3"/>
	<circle class="st0" cx="39.3" cy="30.8" r="0.3"/>
	<circle class="st0" cx="41.8" cy="29.5" r="0.3"/>
	<circle class="st0" cx="41.8" cy="30.8" r="0.3"/>
	<circle class="st0" cx="37.4" cy="31.4" r="0.3"/>
	<circle class="st0" cx="38.6" cy="31.4" r="0.3"/>
	<circle class="st0" cx="38" cy="32" r="0.3"/>
	<circle class="st0" cx="37.4" cy="32.6" r="0.3"/>
	<circle class="st0" cx="38.6" cy="32.6" r="0.3"/>
	<circle class="st0" cx="38" cy="33.3" r="0.3"/>
	<circle class="st0" cx="39.9" cy="31.4" r="0.3"/>
	<circle class="st0" cx="41.1" cy="31.4" r="0.3"/>
	<circle class="st0" cx="40.5" cy="32" r="0.3"/>
	<circle class="st0" cx="39.9" cy="32.6" r="0.3"/>
	<circle class="st0" cx="41.1" cy="32.6" r="0.3"/>
	<circle class="st0" cx="40.5" cy="33.3" r="0.3"/>
	<circle class="st0" cx="39.3" cy="32" r="0.3"/>
	<circle class="st0" cx="39.3" cy="33.3" r="0.3"/>
	<circle class="st0" cx="41.8" cy="32" r="0.3"/>
	<circle class="st0" cx="41.8" cy="33.3" r="0.3"/>
	<circle class="st0" cx="36.1" cy="33.9" r="0.3"/>
	<circle class="st0" cx="35.5" cy="34.5" r="0.3"/>
	<circle class="st0" cx="36.1" cy="35.1" r="0.3"/>
	<circle class="st0" cx="35.5" cy="35.8" r="0.3"/>
	<circle class="st0" cx="36.8" cy="34.5" r="0.3"/>
	<circle class="st0" cx="36.8" cy="35.8" r="0.3"/>
	<circle class="st0" cx="36.1" cy="36.4" r="0.3"/>
	<circle class="st0" cx="36.1" cy="37.6" r="0.3"/>
	<circle class="st0" cx="36.8" cy="37" r="0.3"/>
	<circle class="st0" cx="36.8" cy="38.3" r="0.3"/>
	<circle class="st0" cx="37.4" cy="33.9" r="0.3"/>
	<circle class="st0" cx="38.6" cy="33.9" r="0.3"/>
	<circle class="st0" cx="38" cy="34.5" r="0.3"/>
	<circle class="st0" cx="37.4" cy="35.1" r="0.3"/>
	<circle class="st0" cx="38.6" cy="35.1" r="0.3"/>
	<circle class="st0" cx="38" cy="35.8" r="0.3"/>
	<circle class="st0" cx="39.9" cy="33.9" r="0.3"/>
	<circle class="st0" cx="41.1" cy="33.9" r="0.3"/>
	<circle class="st0" cx="40.5" cy="34.5" r="0.3"/>
	<circle class="st0" cx="39.9" cy="35.1" r="0.3"/>
	<circle class="st0" cx="41.1" cy="35.1" r="0.3"/>
	<circle class="st0" cx="40.5" cy="35.8" r="0.3"/>
	<circle class="st0" cx="39.3" cy="34.5" r="0.3"/>
	<circle class="st0" cx="39.3" cy="35.8" r="0.3"/>
	<circle class="st0" cx="41.8" cy="34.5" r="0.3"/>
	<circle class="st0" cx="41.8" cy="35.8" r="0.3"/>
	<circle class="st0" cx="37.4" cy="36.4" r="0.3"/>
	<circle class="st0" cx="38.6" cy="36.4" r="0.3"/>
	<circle class="st0" cx="38" cy="37" r="0.3"/>
	<circle class="st0" cx="37.4" cy="37.6" r="0.3"/>
	<circle class="st0" cx="38.6" cy="37.6" r="0.3"/>
	<circle class="st0" cx="38" cy="38.3" r="0.3"/>
	<circle class="st0" cx="39.9" cy="36.4" r="0.3"/>
	<circle class="st0" cx="41.1" cy="36.4" r="0.3"/>
	<circle class="st0" cx="40.5" cy="37" r="0.3"/>
	<circle class="st0" cx="39.9" cy="37.6" r="0.3"/>
	<circle class="st0" cx="41.1" cy="37.6" r="0.3"/>
	<circle class="st0" cx="40.5" cy="38.3" r="0.3"/>
	<circle class="st0" cx="39.3" cy="37" r="0.3"/>
	<circle class="st0" cx="39.3" cy="38.3" r="0.3"/>
	<circle class="st0" cx="41.8" cy="37" r="0.3"/>
	<circle class="st0" cx="41.8" cy="38.3" r="0.3"/>
	<circle class="st0" cx="45.5" cy="20.8" r="0.3"/>
	<circle class="st0" cx="46.8" cy="20.8" r="0.3"/>
	<circle class="st0" cx="43.6" cy="21.4" r="0.3"/>
	<circle class="st0" cx="43" cy="22" r="0.3"/>
	<circle class="st0" cx="42.4" cy="22.6" r="0.3"/>
	<circle class="st0" cx="43.6" cy="22.6" r="0.3"/>
	<circle class="st0" cx="43" cy="23.3" r="0.3"/>
	<circle class="st0" cx="44.9" cy="21.4" r="0.3"/>
	<circle class="st0" cx="46.1" cy="21.4" r="0.3"/>
	<circle class="st0" cx="45.5" cy="22" r="0.3"/>
	<circle class="st0" cx="44.9" cy="22.6" r="0.3"/>
	<circle class="st0" cx="46.1" cy="22.6" r="0.3"/>
	<circle class="st0" cx="45.5" cy="23.3" r="0.3"/>
	<circle class="st0" cx="44.3" cy="22" r="0.3"/>
	<circle class="st0" cx="44.3" cy="23.3" r="0.3"/>
	<circle class="st0" cx="46.8" cy="22" r="0.3"/>
	<circle class="st0" cx="47.4" cy="20.1" r="0.3"/>
	<circle class="st0" cx="48.6" cy="20.1" r="0.3"/>
	<circle class="st0" cx="48" cy="20.8" r="0.3"/>
	<circle class="st0" cx="49.9" cy="20.1" r="0.3"/>
	<circle class="st0" cx="47.4" cy="21.4" r="0.3"/>
	<circle class="st0" cx="42.4" cy="23.9" r="0.3"/>
	<circle class="st0" cx="43.6" cy="23.9" r="0.3"/>
	<circle class="st0" cx="43" cy="24.5" r="0.3"/>
	<circle class="st0" cx="42.4" cy="25.1" r="0.3"/>
	<circle class="st0" cx="43.6" cy="25.1" r="0.3"/>
	<circle class="st0" cx="43" cy="25.8" r="0.3"/>
	<circle class="st0" cx="44.9" cy="23.9" r="0.3"/>
	<circle class="st0" cx="46.1" cy="23.9" r="0.3"/>
	<circle class="st0" cx="45.5" cy="24.5" r="0.3"/>
	<circle class="st0" cx="44.9" cy="25.1" r="0.3"/>
	<circle class="st0" cx="44.3" cy="24.5" r="0.3"/>
	<circle class="st0" cx="44.3" cy="25.8" r="0.3"/>
	<circle class="st0" cx="42.4" cy="26.4" r="0.3"/>
	<circle class="st0" cx="43.6" cy="26.4" r="0.3"/>
	<circle class="st0" cx="43" cy="27" r="0.3"/>
	<circle class="st0" cx="42.4" cy="27.6" r="0.3"/>
	<circle class="st0" cx="43.6" cy="27.6" r="0.3"/>
	<circle class="st0" cx="43" cy="28.3" r="0.3"/>
	<circle class="st0" cx="44.9" cy="26.4" r="0.3"/>
	<circle class="st0" cx="44.3" cy="27" r="0.3"/>
	<circle class="st0" cx="44.3" cy="28.3" r="0.3"/>
	<circle class="st0" cx="40.5" cy="23.3" r="0.3"/>
	<circle class="st0" cx="41.8" cy="23.3" r="0.3"/>
	<circle class="st0" cx="36.8" cy="28.3" r="0.3"/>
	<circle class="st0" cx="38.6" cy="25.1" r="0.3"/>
	<circle class="st0" cx="39.9" cy="23.9" r="0.3"/>
	<circle class="st0" cx="41.1" cy="23.9" r="0.3"/>
	<circle class="st0" cx="40.5" cy="24.5" r="0.3"/>
	<circle class="st0" cx="39.9" cy="25.1" r="0.3"/>
	<circle class="st0" cx="41.1" cy="25.1" r="0.3"/>
	<circle class="st0" cx="40.5" cy="25.8" r="0.3"/>
	<circle class="st0" cx="39.3" cy="24.5" r="0.3"/>
	<circle class="st0" cx="39.3" cy="25.8" r="0.3"/>
	<circle class="st0" cx="41.8" cy="24.5" r="0.3"/>
	<circle class="st0" cx="41.8" cy="25.8" r="0.3"/>
	<circle class="st0" cx="38.6" cy="26.4" r="0.3"/>
	<circle class="st0" cx="38" cy="27" r="0.3"/>
	<circle class="st0" cx="37.4" cy="27.6" r="0.3"/>
	<circle class="st0" cx="38.6" cy="27.6" r="0.3"/>
	<circle class="st0" cx="38" cy="28.3" r="0.3"/>
	<circle class="st0" cx="39.9" cy="26.4" r="0.3"/>
	<circle class="st0" cx="41.1" cy="26.4" r="0.3"/>
	<circle class="st0" cx="40.5" cy="27" r="0.3"/>
	<circle class="st0" cx="39.9" cy="27.6" r="0.3"/>
	<circle class="st0" cx="41.1" cy="27.6" r="0.3"/>
	<circle class="st0" cx="40.5" cy="28.3" r="0.3"/>
	<circle class="st0" cx="39.3" cy="27" r="0.3"/>
	<circle class="st0" cx="39.3" cy="28.3" r="0.3"/>
	<circle class="st0" cx="41.8" cy="27" r="0.3"/>
	<circle class="st0" cx="41.8" cy="28.3" r="0.3"/>
	<path class="st0" d="M42.4,48.6L42.4,48.6L42.4,48.6c-0.2,0-0.3,0.1-0.3,0.3c0,0.2,0.1,0.3,0.3,0.3h0l0,0c0.2,0,0.3-0.1,0.3-0.3
		S42.5,48.6,42.4,48.6z"/>
	<path class="st0" d="M43.6,49.2L43.6,49.2L43.6,49.2c0.2,0,0.3-0.1,0.3-0.3s-0.1-0.3-0.3-0.3l0,0h0c-0.2,0-0.3,0.1-0.3,0.3
		C43.3,49.1,43.5,49.2,43.6,49.2z"/>
	<path class="st0" d="M43,49.2L43,49.2L43,49.2c-0.2,0-0.3,0.1-0.3,0.3c0,0.2,0.1,0.3,0.3,0.3h0l0,0c0.2,0,0.3-0.1,0.3-0.3
		S43.2,49.2,43,49.2z"/>
	<path class="st0" d="M43.6,49.8L43.6,49.8L43.6,49.8c-0.2,0-0.3,0.1-0.3,0.3c0,0.2,0.1,0.3,0.3,0.3h0l0,0c0.2,0,0.3-0.1,0.3-0.3
		S43.8,49.8,43.6,49.8z"/>
	<path class="st0" d="M44.9,49.2L44.9,49.2L44.9,49.2c0.2,0,0.3-0.1,0.3-0.3s-0.1-0.3-0.3-0.3l0,0h0c-0.2,0-0.3,0.1-0.3,0.3
		C44.6,49.1,44.7,49.2,44.9,49.2z"/>
	<path class="st0" d="M46.1,49.2L46.1,49.2L46.1,49.2c0.2,0,0.3-0.1,0.3-0.3s-0.1-0.3-0.3-0.3l0,0h0c-0.2,0-0.3,0.1-0.3,0.3
		C45.8,49.1,46,49.2,46.1,49.2z"/>
	<path class="st0" d="M45.5,49.8L45.5,49.8L45.5,49.8c0.2,0,0.3-0.1,0.3-0.3s-0.1-0.3-0.3-0.3l0,0h0c-0.2,0-0.3,0.1-0.3,0.3
		C45.2,49.7,45.3,49.8,45.5,49.8z"/>
	<path class="st0" d="M44.9,50.5L44.9,50.5L44.9,50.5c0.2,0,0.3-0.1,0.3-0.3s-0.1-0.3-0.3-0.3l0,0h0c-0.2,0-0.3,0.1-0.3,0.3
		C44.6,50.3,44.7,50.5,44.9,50.5z"/>
	<path class="st0" d="M46.1,50.5L46.1,50.5L46.1,50.5c0.2,0,0.3-0.1,0.3-0.3s-0.1-0.3-0.3-0.3l0,0h0c-0.2,0-0.3,0.1-0.3,0.3
		C45.8,50.3,46,50.5,46.1,50.5z"/>
	<path class="st0" d="M45.5,51.1L45.5,51.1L45.5,51.1c0.2,0,0.3-0.1,0.3-0.3s-0.1-0.3-0.3-0.3l0,0h0c-0.2,0-0.3,0.1-0.3,0.3
		C45.2,50.9,45.3,51.1,45.5,51.1z"/>
	<path class="st0" d="M44.3,49.8L44.3,49.8L44.3,49.8c0.2,0,0.3-0.1,0.3-0.3s-0.1-0.3-0.3-0.3l0,0h0c-0.2,0-0.3,0.1-0.3,0.3
		C43.9,49.7,44.1,49.8,44.3,49.8z"/>
	<path class="st0" d="M44.3,50.5L44.3,50.5L44.3,50.5c-0.2,0-0.3,0.1-0.3,0.3c0,0.2,0.1,0.3,0.3,0.3h0l0,0c0.2,0,0.3-0.1,0.3-0.3
		S44.4,50.5,44.3,50.5z"/>
	<path class="st0" d="M46.8,49.8L46.8,49.8L46.8,49.8c0.2,0,0.3-0.1,0.3-0.3s-0.1-0.3-0.3-0.3l0,0h0c-0.2,0-0.3,0.1-0.3,0.3
		C46.4,49.7,46.6,49.8,46.8,49.8z"/>
	<path class="st0" d="M46.8,51.1L46.8,51.1L46.8,51.1c0.2,0,0.3-0.1,0.3-0.3s-0.1-0.3-0.3-0.3l0,0h0c-0.2,0-0.3,0.1-0.3,0.3
		C46.4,50.9,46.6,51.1,46.8,51.1z"/>
	<path class="st0" d="M44.9,51.1L44.9,51.1L44.9,51.1c-0.2,0-0.3,0.1-0.3,0.3c0,0.2,0.1,0.3,0.3,0.3h0l0,0c0.2,0,0.3-0.1,0.3-0.3
		S45,51.1,44.9,51.1z"/>
	<path class="st0" d="M46.1,51.1L46.1,51.1L46.1,51.1c-0.2,0-0.3,0.1-0.3,0.3c0,0.2,0.1,0.3,0.3,0.3h0l0,0c0.2,0,0.3-0.1,0.3-0.3
		S46.3,51.1,46.1,51.1z"/>
	<path class="st0" d="M45.5,51.7L45.5,51.7L45.5,51.7c-0.2,0-0.3,0.1-0.3,0.3c0,0.2,0.1,0.3,0.3,0.3h0l0,0c0.2,0,0.3-0.1,0.3-0.3
		S45.7,51.7,45.5,51.7z"/>
	<path class="st0" d="M46.8,51.7L46.8,51.7L46.8,51.7c-0.2,0-0.3,0.1-0.3,0.3c0,0.2,0.1,0.3,0.3,0.3h0l0,0c0.2,0,0.3-0.1,0.3-0.3
		S46.9,51.7,46.8,51.7z"/>
	<path class="st0" d="M47.4,50.5L47.4,50.5L47.4,50.5c0.2,0,0.3-0.1,0.3-0.3s-0.1-0.3-0.3-0.3l0,0h0c-0.2,0-0.3,0.1-0.3,0.3
		C47.1,50.3,47.2,50.5,47.4,50.5z"/>
	<path class="st0" d="M47.4,51.7L47.4,51.7L47.4,51.7c0.2,0,0.3-0.1,0.3-0.3s-0.1-0.3-0.3-0.3l0,0h0c-0.2,0-0.3,0.1-0.3,0.3
		C47.1,51.6,47.2,51.7,47.4,51.7z"/>
	<path class="st0" d="M48,52.3L48,52.3L48,52.3c0.2,0,0.3-0.1,0.3-0.3s-0.1-0.3-0.3-0.3l0,0h0c-0.2,0-0.3,0.1-0.3,0.3
		C47.7,52.2,47.8,52.3,48,52.3z"/>
	<path class="st0" d="M47.4,52.3L47.4,52.3L47.4,52.3c-0.2,0-0.3,0.1-0.3,0.3c0,0.2,0.1,0.3,0.3,0.3h0l0,0c0.2,0,0.3-0.1,0.3-0.3
		S47.5,52.3,47.4,52.3z"/>
	<path class="st0" d="M48.6,52.3L48.6,52.3L48.6,52.3c-0.2,0-0.3,0.1-0.3,0.3c0,0.2,0.1,0.3,0.3,0.3h0l0,0c0.2,0,0.3-0.1,0.3-0.3
		S48.8,52.3,48.6,52.3z"/>
	<path class="st0" d="M48,53L48,53L48,53c-0.2,0-0.3,0.1-0.3,0.3c0,0.2,0.1,0.3,0.3,0.3h0l0,0c0.2,0,0.3-0.1,0.3-0.3S48.2,53,48,53z
		"/>
	<path class="st0" d="M49.3,53L49.3,53L49.3,53c-0.2,0-0.3,0.1-0.3,0.3c0,0.2,0.1,0.3,0.3,0.3h0l0,0c0.2,0,0.3-0.1,0.3-0.3
		S49.4,53,49.3,53z"/>
	<path class="st0" d="M48,56.7L48,56.7L48,56.7c-0.2,0-0.3,0.1-0.3,0.3c0,0.2,0.1,0.3,0.3,0.3h0l0,0c0.2,0,0.3-0.1,0.3-0.3
		S48.2,56.7,48,56.7z"/>
	<path class="st0" d="M42.4,39.2L42.4,39.2L42.4,39.2c0.2,0,0.3-0.1,0.3-0.3s-0.1-0.3-0.3-0.3l0,0h0c-0.2,0-0.3,0.1-0.3,0.3
		C42.1,39.1,42.2,39.2,42.4,39.2z"/>
	<path class="st0" d="M43.6,38.6L43.6,38.6L43.6,38.6c-0.2,0-0.3,0.1-0.3,0.3c0,0.2,0.1,0.3,0.3,0.3h0l0,0c0.2,0,0.3-0.1,0.3-0.3
		S43.8,38.6,43.6,38.6z"/>
	<path class="st0" d="M43,39.2L43,39.2c-0.2,0-0.3,0.1-0.3,0.3c0,0.2,0.1,0.3,0.3,0.3h0l0,0c0.2,0,0.3-0.1,0.3-0.3
		S43.2,39.2,43,39.2L43,39.2z"/>
	<path class="st0" d="M42.4,40.5L42.4,40.5L42.4,40.5c0.2,0,0.3-0.1,0.3-0.3s-0.1-0.3-0.3-0.3l0,0h0c-0.2,0-0.3,0.1-0.3,0.3
		C42.1,40.3,42.2,40.5,42.4,40.5z"/>
	<path class="st0" d="M43.6,39.8L43.6,39.8L43.6,39.8c-0.2,0-0.3,0.1-0.3,0.3c0,0.2,0.1,0.3,0.3,0.3h0l0,0c0.2,0,0.3-0.1,0.3-0.3
		S43.8,39.8,43.6,39.8z"/>
	<path class="st0" d="M43,41.1L43,41.1L43,41.1c0.2,0,0.3-0.1,0.3-0.3s-0.1-0.3-0.3-0.3l0,0h0c-0.2,0-0.3,0.1-0.3,0.3
		C42.7,40.9,42.8,41.1,43,41.1z"/>
	<path class="st0" d="M42.4,41.7L42.4,41.7L42.4,41.7c0.2,0,0.3-0.1,0.3-0.3s-0.1-0.3-0.3-0.3l0,0h0c-0.2,0-0.3,0.1-0.3,0.3
		C42.1,41.6,42.2,41.7,42.4,41.7z"/>
	<path class="st0" d="M43.6,41.7L43.6,41.7L43.6,41.7c0.2,0,0.3-0.1,0.3-0.3s-0.1-0.3-0.3-0.3l0,0h0c-0.2,0-0.3,0.1-0.3,0.3
		C43.3,41.6,43.5,41.7,43.6,41.7z"/>
	<path class="st0" d="M43,42.3L43,42.3L43,42.3c0.2,0,0.3-0.1,0.3-0.3s-0.1-0.3-0.3-0.3l0,0h0c-0.2,0-0.3,0.1-0.3,0.3
		C42.7,42.2,42.8,42.3,43,42.3z"/>
	<path class="st0" d="M42.4,43L42.4,43L42.4,43c0.2,0,0.3-0.1,0.3-0.3s-0.1-0.3-0.3-0.3l0,0h0c-0.2,0-0.3,0.1-0.3,0.3
		C42.1,42.8,42.2,43,42.4,43z"/>
	<path class="st0" d="M43.6,43L43.6,43L43.6,43c0.2,0,0.3-0.1,0.3-0.3s-0.1-0.3-0.3-0.3l0,0h0c-0.2,0-0.3,0.1-0.3,0.3
		C43.3,42.8,43.5,43,43.6,43z"/>
	<path class="st0" d="M43,43.6L43,43.6L43,43.6c0.2,0,0.3-0.1,0.3-0.3S43.2,43,43,43l0,0h0c-0.2,0-0.3,0.1-0.3,0.3
		C42.7,43.4,42.8,43.6,43,43.6z"/>
	<path class="st0" d="M44.3,43L44.3,43L44.3,43c-0.2,0-0.3,0.1-0.3,0.3c0,0.2,0.1,0.3,0.3,0.3h0l0,0c0.2,0,0.3-0.1,0.3-0.3
		S44.4,43,44.3,43z"/>
	<path class="st0" d="M42.4,44.2L42.4,44.2L42.4,44.2c0.2,0,0.3-0.1,0.3-0.3s-0.1-0.3-0.3-0.3l0,0h0c-0.2,0-0.3,0.1-0.3,0.3
		C42.1,44.1,42.2,44.2,42.4,44.2z"/>
	<path class="st0" d="M43.6,44.2L43.6,44.2L43.6,44.2c0.2,0,0.3-0.1,0.3-0.3s-0.1-0.3-0.3-0.3l0,0h0c-0.2,0-0.3,0.1-0.3,0.3
		C43.3,44.1,43.5,44.2,43.6,44.2z"/>
	<path class="st0" d="M43,44.8L43,44.8L43,44.8c0.2,0,0.3-0.1,0.3-0.3s-0.1-0.3-0.3-0.3l0,0h0c-0.2,0-0.3,0.1-0.3,0.3
		C42.7,44.7,42.8,44.8,43,44.8z"/>
	<path class="st0" d="M42.4,45.5L42.4,45.5L42.4,45.5c0.2,0,0.3-0.1,0.3-0.3s-0.1-0.3-0.3-0.3l0,0h0c-0.2,0-0.3,0.1-0.3,0.3
		C42.1,45.3,42.2,45.5,42.4,45.5z"/>
	<path class="st0" d="M43.6,45.5L43.6,45.5L43.6,45.5c0.2,0,0.3-0.1,0.3-0.3s-0.1-0.3-0.3-0.3l0,0h0c-0.2,0-0.3,0.1-0.3,0.3
		C43.3,45.3,43.5,45.5,43.6,45.5z"/>
	<path class="st0" d="M43,46.1L43,46.1L43,46.1c0.2,0,0.3-0.1,0.3-0.3s-0.1-0.3-0.3-0.3l0,0h0c-0.2,0-0.3,0.1-0.3,0.3
		C42.7,45.9,42.8,46.1,43,46.1z"/>
	<path class="st0" d="M44.9,45.5L44.9,45.5L44.9,45.5c0.2,0,0.3-0.1,0.3-0.3s-0.1-0.3-0.3-0.3l0,0h0c-0.2,0-0.3,0.1-0.3,0.3
		C44.6,45.3,44.7,45.5,44.9,45.5z"/>
	<path class="st0" d="M45.5,46.1L45.5,46.1L45.5,46.1c0.2,0,0.3-0.1,0.3-0.3s-0.1-0.3-0.3-0.3l0,0h0c-0.2,0-0.3,0.1-0.3,0.3
		C45.2,45.9,45.3,46.1,45.5,46.1z"/>
	<path class="st0" d="M44.3,44.2L44.3,44.2L44.3,44.2c-0.2,0-0.3,0.1-0.3,0.3c0,0.2,0.1,0.3,0.3,0.3h0l0,0c0.2,0,0.3-0.1,0.3-0.3
		S44.4,44.2,44.3,44.2z"/>
	<path class="st0" d="M44.3,46.1L44.3,46.1L44.3,46.1c0.2,0,0.3-0.1,0.3-0.3s-0.1-0.3-0.3-0.3l0,0h0c-0.2,0-0.3,0.1-0.3,0.3
		C43.9,45.9,44.1,46.1,44.3,46.1z"/>
	<path class="st0" d="M42.4,46.7L42.4,46.7L42.4,46.7c0.2,0,0.3-0.1,0.3-0.3s-0.1-0.3-0.3-0.3l0,0h0c-0.2,0-0.3,0.1-0.3,0.3
		C42.1,46.6,42.2,46.7,42.4,46.7z"/>
	<path class="st0" d="M43.6,46.7L43.6,46.7L43.6,46.7c0.2,0,0.3-0.1,0.3-0.3s-0.1-0.3-0.3-0.3l0,0h0c-0.2,0-0.3,0.1-0.3,0.3
		C43.3,46.6,43.5,46.7,43.6,46.7z"/>
	<path class="st0" d="M43,47.3L43,47.3L43,47.3c0.2,0,0.3-0.1,0.3-0.3s-0.1-0.3-0.3-0.3l0,0h0c-0.2,0-0.3,0.1-0.3,0.3
		C42.7,47.2,42.8,47.3,43,47.3z"/>
	<path class="st0" d="M42.4,48L42.4,48L42.4,48c0.2,0,0.3-0.1,0.3-0.3s-0.1-0.3-0.3-0.3l0,0h0c-0.2,0-0.3,0.1-0.3,0.3
		C42.1,47.8,42.2,48,42.4,48z"/>
	<path class="st0" d="M43.6,48L43.6,48L43.6,48c0.2,0,0.3-0.1,0.3-0.3s-0.1-0.3-0.3-0.3l0,0h0c-0.2,0-0.3,0.1-0.3,0.3
		C43.3,47.8,43.5,48,43.6,48z"/>
	<path class="st0" d="M43,48.6L43,48.6L43,48.6c0.2,0,0.3-0.1,0.3-0.3S43.2,48,43,48l0,0h0c-0.2,0-0.3,0.1-0.3,0.3
		C42.7,48.4,42.8,48.6,43,48.6z"/>
	<path class="st0" d="M44.9,46.1L44.9,46.1L44.9,46.1c-0.2,0-0.3,0.1-0.3,0.3c0,0.2,0.1,0.3,0.3,0.3h0l0,0c0.2,0,0.3-0.1,0.3-0.3
		S45,46.1,44.9,46.1z"/>
	<path class="st0" d="M45.5,47.3L45.5,47.3L45.5,47.3c0.2,0,0.3-0.1,0.3-0.3s-0.1-0.3-0.3-0.3l0,0h0c-0.2,0-0.3,0.1-0.3,0.3
		C45.2,47.2,45.3,47.3,45.5,47.3z"/>
	<path class="st0" d="M44.9,48L44.9,48L44.9,48c0.2,0,0.3-0.1,0.3-0.3s-0.1-0.3-0.3-0.3l0,0h0c-0.2,0-0.3,0.1-0.3,0.3
		C44.6,47.8,44.7,48,44.9,48z"/>
	<path class="st0" d="M46.1,48L46.1,48L46.1,48c0.2,0,0.3-0.1,0.3-0.3s-0.1-0.3-0.3-0.3l0,0h0c-0.2,0-0.3,0.1-0.3,0.3
		C45.8,47.8,46,48,46.1,48z"/>
	<path class="st0" d="M45.5,48.6L45.5,48.6L45.5,48.6c0.2,0,0.3-0.1,0.3-0.3S45.7,48,45.5,48l0,0h0c-0.2,0-0.3,0.1-0.3,0.3
		C45.2,48.4,45.3,48.6,45.5,48.6z"/>
	<path class="st0" d="M44.3,47.3L44.3,47.3L44.3,47.3c0.2,0,0.3-0.1,0.3-0.3s-0.1-0.3-0.3-0.3l0,0h0c-0.2,0-0.3,0.1-0.3,0.3
		C43.9,47.2,44.1,47.3,44.3,47.3z"/>
	<path class="st0" d="M44.3,48.6L44.3,48.6L44.3,48.6c0.2,0,0.3-0.1,0.3-0.3S44.4,48,44.3,48l0,0h0c-0.2,0-0.3,0.1-0.3,0.3
		C43.9,48.4,44.1,48.6,44.3,48.6z"/>
	<path class="st0" d="M36.1,38.6L36.1,38.6L36.1,38.6c-0.2,0-0.3,0.1-0.3,0.3c0,0.2,0.1,0.3,0.3,0.3h0l0,0c0.2,0,0.3-0.1,0.3-0.3
		S36.3,38.6,36.1,38.6z"/>
	<path class="st0" d="M36.8,39.2L36.8,39.2L36.8,39.2c-0.2,0-0.3,0.1-0.3,0.3c0,0.2,0.1,0.3,0.3,0.3h0l0,0c0.2,0,0.3-0.1,0.3-0.3
		S36.9,39.2,36.8,39.2z"/>
	<path class="st0" d="M37.4,39.2L37.4,39.2L37.4,39.2c0.2,0,0.3-0.1,0.3-0.3s-0.1-0.3-0.3-0.3l0,0h0c-0.2,0-0.3,0.1-0.3,0.3
		C37.1,39.1,37.2,39.2,37.4,39.2z"/>
	<path class="st0" d="M38.6,39.2L38.6,39.2L38.6,39.2c0.2,0,0.3-0.1,0.3-0.3s-0.1-0.3-0.3-0.3l0,0h0c-0.2,0-0.3,0.1-0.3,0.3
		C38.3,39.1,38.5,39.2,38.6,39.2z"/>
	<path class="st0" d="M38,39.8L38,39.8L38,39.8c0.2,0,0.3-0.1,0.3-0.3s-0.1-0.3-0.3-0.3l0,0h0c-0.2,0-0.3,0.1-0.3,0.3
		C37.7,39.7,37.8,39.8,38,39.8z"/>
	<path class="st0" d="M37.4,40.5L37.4,40.5L37.4,40.5c0.2,0,0.3-0.1,0.3-0.3s-0.1-0.3-0.3-0.3l0,0h0c-0.2,0-0.3,0.1-0.3,0.3
		C37.1,40.3,37.2,40.5,37.4,40.5z"/>
	<path class="st0" d="M38.6,40.5L38.6,40.5L38.6,40.5c0.2,0,0.3-0.1,0.3-0.3s-0.1-0.3-0.3-0.3l0,0h0c-0.2,0-0.3,0.1-0.3,0.3
		C38.3,40.3,38.5,40.5,38.6,40.5z"/>
	<path class="st0" d="M38,41.1L38,41.1L38,41.1c0.2,0,0.3-0.1,0.3-0.3s-0.1-0.3-0.3-0.3l0,0h0c-0.2,0-0.3,0.1-0.3,0.3
		C37.7,40.9,37.8,41.1,38,41.1z"/>
	<path class="st0" d="M39.9,39.2L39.9,39.2L39.9,39.2c0.2,0,0.3-0.1,0.3-0.3s-0.1-0.3-0.3-0.3l0,0h0c-0.2,0-0.3,0.1-0.3,0.3
		C39.6,39.1,39.7,39.2,39.9,39.2z"/>
	<path class="st0" d="M41.1,39.2L41.1,39.2L41.1,39.2c0.2,0,0.3-0.1,0.3-0.3s-0.1-0.3-0.3-0.3l0,0h0c-0.2,0-0.3,0.1-0.3,0.3
		C40.8,39.1,41,39.2,41.1,39.2z"/>
	<path class="st0" d="M40.5,39.8L40.5,39.8L40.5,39.8c0.2,0,0.3-0.1,0.3-0.3s-0.1-0.3-0.3-0.3l0,0h0c-0.2,0-0.3,0.1-0.3,0.3
		C40.2,39.7,40.3,39.8,40.5,39.8z"/>
	<path class="st0" d="M39.9,40.5L39.9,40.5L39.9,40.5c0.2,0,0.3-0.1,0.3-0.3s-0.1-0.3-0.3-0.3l0,0h0c-0.2,0-0.3,0.1-0.3,0.3
		C39.6,40.3,39.7,40.5,39.9,40.5z"/>
	<path class="st0" d="M41.1,40.5L41.1,40.5L41.1,40.5c0.2,0,0.3-0.1,0.3-0.3s-0.1-0.3-0.3-0.3l0,0h0c-0.2,0-0.3,0.1-0.3,0.3
		C40.8,40.3,41,40.5,41.1,40.5z"/>
	<path class="st0" d="M40.5,41.1L40.5,41.1L40.5,41.1c0.2,0,0.3-0.1,0.3-0.3s-0.1-0.3-0.3-0.3l0,0h0c-0.2,0-0.3,0.1-0.3,0.3
		C40.2,40.9,40.3,41.1,40.5,41.1z"/>
	<path class="st0" d="M39.3,39.8L39.3,39.8L39.3,39.8c0.2,0,0.3-0.1,0.3-0.3s-0.1-0.3-0.3-0.3l0,0h0c-0.2,0-0.3,0.1-0.3,0.3
		C38.9,39.7,39.1,39.8,39.3,39.8z"/>
	<path class="st0" d="M39.3,41.1L39.3,41.1L39.3,41.1c0.2,0,0.3-0.1,0.3-0.3s-0.1-0.3-0.3-0.3l0,0h0c-0.2,0-0.3,0.1-0.3,0.3
		C38.9,40.9,39.1,41.1,39.3,41.1z"/>
	<path class="st0" d="M41.8,39.8L41.8,39.8L41.8,39.8c0.2,0,0.3-0.1,0.3-0.3s-0.1-0.3-0.3-0.3l0,0h0c-0.2,0-0.3,0.1-0.3,0.3
		C41.4,39.7,41.6,39.8,41.8,39.8z"/>
	<path class="st0" d="M41.8,41.1L41.8,41.1L41.8,41.1c0.2,0,0.3-0.1,0.3-0.3s-0.1-0.3-0.3-0.3l0,0h0c-0.2,0-0.3,0.1-0.3,0.3
		C41.4,40.9,41.6,41.1,41.8,41.1z"/>
	<path class="st0" d="M37.4,41.1L37.4,41.1L37.4,41.1c-0.2,0-0.3,0.1-0.3,0.3c0,0.2,0.1,0.3,0.3,0.3h0l0,0c0.2,0,0.3-0.1,0.3-0.3
		S37.5,41.1,37.4,41.1z"/>
	<path class="st0" d="M38.6,41.7L38.6,41.7L38.6,41.7c0.2,0,0.3-0.1,0.3-0.3s-0.1-0.3-0.3-0.3l0,0h0c-0.2,0-0.3,0.1-0.3,0.3
		C38.3,41.6,38.5,41.7,38.6,41.7z"/>
	<path class="st0" d="M38,41.7L38,41.7L38,41.7c-0.2,0-0.3,0.1-0.3,0.3c0,0.2,0.1,0.3,0.3,0.3h0l0,0c0.2,0,0.3-0.1,0.3-0.3
		S38.2,41.7,38,41.7z"/>
	<path class="st0" d="M38.6,43L38.6,43L38.6,43c0.2,0,0.3-0.1,0.3-0.3s-0.1-0.3-0.3-0.3l0,0h0c-0.2,0-0.3,0.1-0.3,0.3
		C38.3,42.8,38.5,43,38.6,43z"/>
	<path class="st0" d="M39.9,41.7L39.9,41.7L39.9,41.7c0.2,0,0.3-0.1,0.3-0.3s-0.1-0.3-0.3-0.3l0,0h0c-0.2,0-0.3,0.1-0.3,0.3
		C39.6,41.6,39.7,41.7,39.9,41.7z"/>
	<path class="st0" d="M41.1,41.7L41.1,41.7L41.1,41.7c0.2,0,0.3-0.1,0.3-0.3s-0.1-0.3-0.3-0.3l0,0h0c-0.2,0-0.3,0.1-0.3,0.3
		C40.8,41.6,41,41.7,41.1,41.7z"/>
	<path class="st0" d="M40.5,42.3L40.5,42.3L40.5,42.3c0.2,0,0.3-0.1,0.3-0.3s-0.1-0.3-0.3-0.3l0,0h0c-0.2,0-0.3,0.1-0.3,0.3
		C40.2,42.2,40.3,42.3,40.5,42.3z"/>
	<path class="st0" d="M39.9,43L39.9,43L39.9,43c0.2,0,0.3-0.1,0.3-0.3s-0.1-0.3-0.3-0.3l0,0h0c-0.2,0-0.3,0.1-0.3,0.3
		C39.6,42.8,39.7,43,39.9,43z"/>
	<path class="st0" d="M41.1,43L41.1,43L41.1,43c0.2,0,0.3-0.1,0.3-0.3s-0.1-0.3-0.3-0.3l0,0h0c-0.2,0-0.3,0.1-0.3,0.3
		C40.8,42.8,41,43,41.1,43z"/>
	<path class="st0" d="M40.5,43.6L40.5,43.6L40.5,43.6c0.2,0,0.3-0.1,0.3-0.3S40.7,43,40.5,43l0,0h0c-0.2,0-0.3,0.1-0.3,0.3
		C40.2,43.4,40.3,43.6,40.5,43.6z"/>
	<path class="st0" d="M39.3,42.3L39.3,42.3L39.3,42.3c0.2,0,0.3-0.1,0.3-0.3s-0.1-0.3-0.3-0.3l0,0h0c-0.2,0-0.3,0.1-0.3,0.3
		C38.9,42.2,39.1,42.3,39.3,42.3z"/>
	<path class="st0" d="M39.3,43.6L39.3,43.6L39.3,43.6c0.2,0,0.3-0.1,0.3-0.3S39.4,43,39.3,43l0,0h0c-0.2,0-0.3,0.1-0.3,0.3
		C38.9,43.4,39.1,43.6,39.3,43.6z"/>
	<path class="st0" d="M41.8,42.3L41.8,42.3L41.8,42.3c0.2,0,0.3-0.1,0.3-0.3s-0.1-0.3-0.3-0.3l0,0h0c-0.2,0-0.3,0.1-0.3,0.3
		C41.4,42.2,41.6,42.3,41.8,42.3z"/>
	<path class="st0" d="M41.8,43.6L41.8,43.6L41.8,43.6c0.2,0,0.3-0.1,0.3-0.3S41.9,43,41.8,43l0,0h0c-0.2,0-0.3,0.1-0.3,0.3
		C41.4,43.4,41.6,43.6,41.8,43.6z"/>
	<path class="st0" d="M38.6,43.6L38.6,43.6L38.6,43.6c-0.2,0-0.3,0.1-0.3,0.3c0,0.2,0.1,0.3,0.3,0.3h0l0,0c0.2,0,0.3-0.1,0.3-0.3
		S38.8,43.6,38.6,43.6z"/>
	<path class="st0" d="M39.9,44.2L39.9,44.2L39.9,44.2c0.2,0,0.3-0.1,0.3-0.3s-0.1-0.3-0.3-0.3l0,0h0c-0.2,0-0.3,0.1-0.3,0.3
		C39.6,44.1,39.7,44.2,39.9,44.2z"/>
	<path class="st0" d="M41.1,44.2L41.1,44.2L41.1,44.2c0.2,0,0.3-0.1,0.3-0.3s-0.1-0.3-0.3-0.3l0,0h0c-0.2,0-0.3,0.1-0.3,0.3
		C40.8,44.1,41,44.2,41.1,44.2z"/>
	<path class="st0" d="M40.5,44.8L40.5,44.8L40.5,44.8c0.2,0,0.3-0.1,0.3-0.3s-0.1-0.3-0.3-0.3l0,0h0c-0.2,0-0.3,0.1-0.3,0.3
		C40.2,44.7,40.3,44.8,40.5,44.8z"/>
	<path class="st0" d="M39.9,44.8L39.9,44.8L39.9,44.8c-0.2,0-0.3,0.1-0.3,0.3c0,0.2,0.1,0.3,0.3,0.3h0l0,0c0.2,0,0.3-0.1,0.3-0.3
		S40,44.8,39.9,44.8z"/>
	<path class="st0" d="M41.1,45.5L41.1,45.5L41.1,45.5c0.2,0,0.3-0.1,0.3-0.3s-0.1-0.3-0.3-0.3l0,0h0c-0.2,0-0.3,0.1-0.3,0.3
		C40.8,45.3,41,45.5,41.1,45.5z"/>
	<path class="st0" d="M40.5,45.5L40.5,45.5L40.5,45.5c-0.2,0-0.3,0.1-0.3,0.3c0,0.2,0.1,0.3,0.3,0.3h0l0,0c0.2,0,0.3-0.1,0.3-0.3
		S40.7,45.5,40.5,45.5z"/>
	<path class="st0" d="M39.3,44.2L39.3,44.2L39.3,44.2c-0.2,0-0.3,0.1-0.3,0.3c0,0.2,0.1,0.3,0.3,0.3h0l0,0c0.2,0,0.3-0.1,0.3-0.3
		S39.4,44.2,39.3,44.2z"/>
	<path class="st0" d="M41.8,44.8L41.8,44.8L41.8,44.8c0.2,0,0.3-0.1,0.3-0.3s-0.1-0.3-0.3-0.3l0,0h0c-0.2,0-0.3,0.1-0.3,0.3
		C41.4,44.7,41.6,44.8,41.8,44.8z"/>
	<path class="st0" d="M41.8,46.1L41.8,46.1L41.8,46.1c0.2,0,0.3-0.1,0.3-0.3s-0.1-0.3-0.3-0.3l0,0h0c-0.2,0-0.3,0.1-0.3,0.3
		C41.4,45.9,41.6,46.1,41.8,46.1z"/>
	<path class="st0" d="M41.1,46.7L41.1,46.7L41.1,46.7c0.2,0,0.3-0.1,0.3-0.3s-0.1-0.3-0.3-0.3l0,0h0c-0.2,0-0.3,0.1-0.3,0.3
		C40.8,46.6,41,46.7,41.1,46.7z"/>
	<path class="st0" d="M41.1,47.3L41.1,47.3L41.1,47.3c-0.2,0-0.3,0.1-0.3,0.3c0,0.2,0.1,0.3,0.3,0.3h0l0,0c0.2,0,0.3-0.1,0.3-0.3
		S41.3,47.3,41.1,47.3z"/>
	<path class="st0" d="M41.8,47.3L41.8,47.3L41.8,47.3c0.2,0,0.3-0.1,0.3-0.3s-0.1-0.3-0.3-0.3l0,0h0c-0.2,0-0.3,0.1-0.3,0.3
		C41.4,47.2,41.6,47.3,41.8,47.3z"/>
	<path class="st0" d="M41.8,48L41.8,48L41.8,48c-0.2,0-0.3,0.1-0.3,0.3c0,0.2,0.1,0.3,0.3,0.3h0l0,0c0.2,0,0.3-0.1,0.3-0.3
		S41.9,48,41.8,48z"/>
	<path class="st0" d="M67,34.4c0-9.4-7.6-17-17-17s-17,7.6-17,17c0,7.4,7,17.2,12.9,20.7c-0.3,0.6-0.5,1.2-0.5,1.9
		c0,1.8,1.5,2.7,4.6,2.7c1.9,0,3.2-0.4,4-1.1c1.4,2.2,2.5,5.3,0.5,8.8C51,73.8,52.1,79.1,57.6,83c0.1,0.1,0.2,0.1,0.3,0.1
		c0.2,0,0.3-0.1,0.4-0.2c0.2-0.2,0.1-0.5-0.1-0.7c-5.1-3.6-6-8.3-2.8-14.2c2.3-4.2,0.8-7.8-0.9-10.2c0.1-0.2,0.1-0.4,0.1-0.7
		c0-0.7-0.2-1.3-0.5-1.9C60,51.6,67,41.8,67,34.4z M49.6,55.1C49.6,55.1,49.6,55.1,49.6,55.1c0,0.2,0.1,0.4,0.3,0.4h0l0,0
		c0.2,0,0.3-0.1,0.3-0.3c0,0,0,0,0-0.1h0.7c0,0.2,0.1,0.3,0.2,0.4c0,0,0,0,0.1,0c-0.3,0.2-0.7,0.3-1.1,0.3c-0.2,0-0.3,0-0.4,0
		c0,0,0,0,0,0c0-0.2-0.1-0.3-0.3-0.3l0,0h0c-0.1,0-0.2,0.1-0.3,0.2c-0.1-0.1-0.2-0.1-0.3-0.2c0.1,0,0.2-0.1,0.2-0.3c0,0,0,0,0-0.1
		H49.6z M52.6,57c0,0.5-1.3,0.7-2.6,0.7s-2.6-0.2-2.6-0.7c0-0.1,0-0.2,0.1-0.4c0.1,0,0.2-0.1,0.2-0.3c0-0.1,0-0.1-0.1-0.2
		c0-0.1,0.1-0.2,0.1-0.3c0,0.1,0.1,0.1,0.2,0.1c0.1,0.1,0.2,0.2,0.4,0.3c0,0,0,0,0,0c0,0.2,0.1,0.3,0.3,0.3h0l0,0
		c0.1,0,0.1,0,0.2-0.1c0.1,0,0.2,0.1,0.4,0.1c-0.1,0-0.2,0.1-0.2,0.3c0,0.2,0.1,0.3,0.3,0.3h0l0,0c0.2,0,0.3-0.1,0.3-0.3
		c0-0.1,0-0.2-0.1-0.2c0.2,0,0.3,0,0.5,0c0.8,0,1.4-0.2,1.9-0.6c0.2,0.2,0.5,0.4,0.7,0.7C52.6,57,52.6,57,52.6,57z M51.6,54.1h-0.2
		h-1.3c0-0.1,0.1-0.1,0.1-0.2c0-0.2-0.1-0.3-0.3-0.3l0,0h0c-0.2,0-0.3,0.1-0.3,0.3c0,0.1,0,0.1,0.1,0.2h-0.8c0-0.1,0.1-0.1,0.1-0.2
		c0-0.2-0.1-0.3-0.3-0.3l0,0h0c-0.2,0-0.3,0.1-0.3,0.3c0,0.1,0,0.1,0.1,0.2h0c-0.2-0.1-0.5-0.2-0.7-0.3c0-0.1-0.1-0.2-0.3-0.2l0,0h0
		c0,0,0,0-0.1,0c-0.1-0.1-0.2-0.1-0.3-0.2c0,0,0.1-0.1,0.1-0.2c0-0.2-0.1-0.3-0.3-0.3l0,0h0c-0.1,0-0.2,0.1-0.3,0.2
		c-0.1-0.1-0.2-0.1-0.3-0.2c0.1,0,0.2-0.1,0.2-0.3c0-0.2-0.1-0.3-0.3-0.3l0,0h0c-0.2,0-0.3,0.1-0.3,0.3c0,0,0,0,0,0
		c-1.8-1.3-3.7-3.2-5.4-5.3c0,0,0,0,0,0h0l0,0c0.2,0,0.3-0.1,0.3-0.3s-0.1-0.3-0.3-0.3l0,0h0c-0.2,0-0.3,0.1-0.3,0.3
		c-0.1-0.1-0.2-0.2-0.2-0.3c0.1,0,0.2-0.1,0.2-0.3c0-0.2-0.1-0.3-0.3-0.3l0,0h0c-0.1,0-0.2,0.1-0.2,0.1c-0.1-0.1-0.1-0.2-0.2-0.2
		c0.1-0.1,0.1-0.1,0.1-0.2c0-0.2-0.1-0.3-0.3-0.3l0,0h0c0,0-0.1,0-0.1,0c-0.1-0.1-0.2-0.2-0.2-0.3c0,0,0,0,0,0
		c0-0.1-0.1-0.2-0.2-0.3c-0.3-0.4-0.6-0.9-0.8-1.3c0,0,0.1,0,0.1,0h0l0,0c0.2,0,0.3-0.1,0.3-0.3S38.2,43,38,43l0,0h0
		c-0.1,0-0.2,0.1-0.3,0.2c-0.1-0.1-0.1-0.2-0.2-0.3c0.1-0.1,0.1-0.1,0.1-0.2c0-0.2-0.1-0.3-0.3-0.3l0,0h0c0,0-0.1,0-0.1,0
		c-0.2-0.4-0.4-0.9-0.6-1.3c0,0,0.1,0,0.1,0h0l0,0c0.2,0,0.3-0.1,0.3-0.3s-0.1-0.3-0.3-0.3l0,0h0c-0.1,0-0.2,0.1-0.3,0.2
		c0-0.1-0.1-0.2-0.1-0.3c0.1-0.1,0.1-0.1,0.1-0.2c0-0.2-0.1-0.3-0.3-0.3c-0.2-0.4-0.3-0.9-0.5-1.3c0.1-0.1,0.1-0.1,0.1-0.2
		c0-0.2-0.1-0.3-0.3-0.3c-0.1-0.2-0.1-0.5-0.2-0.7c0,0,0.1,0.1,0.2,0.1c0.2,0,0.3-0.1,0.3-0.3s-0.1-0.3-0.3-0.3
		c-0.1,0-0.2,0.1-0.2,0.1c0-0.1-0.1-0.3-0.1-0.4c0,0,0,0,0,0c0,0,0,0,0,0c-0.1-0.3-0.1-0.7-0.1-1c0.1-0.1,0.1-0.1,0.1-0.2
		c0-0.1-0.1-0.2-0.2-0.2c0-0.2,0-0.3,0-0.5c0-0.1,0-0.2,0-0.3c0.1-0.1,0.2-0.1,0.2-0.3c0-0.1-0.1-0.2-0.1-0.2c0-0.5,0.1-1.1,0.2-1.6
		c0,0.1,0.1,0.3,0.3,0.3c0.2,0,0.3-0.1,0.3-0.3c0-0.2-0.1-0.3-0.3-0.3c-0.1,0-0.2,0.1-0.3,0.2c0.1-0.3,0.1-0.6,0.2-0.9
		c0,0,0.1,0,0.1,0c0.2,0,0.3-0.1,0.3-0.3c0-0.2-0.1-0.3-0.3-0.3c0.1-0.5,0.3-0.9,0.4-1.3c0,0,0.1,0.1,0.1,0.1c0.2,0,0.3-0.1,0.3-0.3
		c0-0.2-0.1-0.3-0.3-0.3c0.2-0.4,0.4-0.9,0.6-1.3c0.1,0,0.3-0.1,0.3-0.3c0,0,0-0.1,0-0.1c0.1-0.1,0.1-0.2,0.2-0.3
		c0.1,0,0.1,0.1,0.2,0.1c0.2,0,0.3-0.1,0.3-0.3c0-0.1-0.1-0.2-0.2-0.3c0.1-0.1,0.1-0.2,0.2-0.3c0,0.1,0.1,0.2,0.3,0.2
		c0.2,0,0.3-0.1,0.3-0.3c0-0.2-0.1-0.3-0.3-0.3c0.8-1.1,1.8-2.1,2.8-2.9c0,0,0,0,0,0.1c0,0.2,0.1,0.3,0.3,0.3s0.3-0.1,0.3-0.3
		c0-0.2-0.1-0.3-0.3-0.3c0.1-0.1,0.2-0.2,0.3-0.2c0,0.1,0.1,0.2,0.3,0.2c0.2,0,0.3-0.1,0.3-0.3c0-0.1,0-0.2-0.1-0.2
		c0.1-0.1,0.2-0.1,0.3-0.2c0.1,0,0.1,0.1,0.2,0.1c0.2,0,0.3-0.1,0.3-0.3c0,0,0,0,0,0c0.4-0.2,0.8-0.4,1.3-0.6c0,0,0,0,0,0.1
		c0,0.2,0.1,0.3,0.3,0.3s0.3-0.1,0.3-0.3c0-0.1-0.1-0.2-0.2-0.2c0.1,0,0.2-0.1,0.3-0.1c0,0,0.1,0.1,0.1,0.1c0.1,0,0.2-0.1,0.3-0.2
		c0.2-0.1,0.5-0.2,0.7-0.2c0,0,0,0.1,0,0.1c0,0.2,0.1,0.3,0.3,0.3s0.3-0.1,0.3-0.3c0-0.1-0.1-0.2-0.1-0.2c0.1,0,0.3-0.1,0.4-0.1
		c0,0,0,0,0,0c0.1,0,0.2,0,0.2-0.1c0.3-0.1,0.5-0.1,0.8-0.1c0,0.1,0.1,0.2,0.3,0.2c0.2,0,0.3-0.1,0.3-0.3c0.2,0,0.4,0,0.6,0
		c0,0,0,0,0,0c0,0.2,0.1,0.3,0.3,0.3s0.3-0.1,0.3-0.3c0,0,0,0,0-0.1c0.2,0,0.3,0,0.5,0c0.1,0,0.1,0,0.2,0c0,0,0,0,0,0.1
		c0,0.2,0.1,0.3,0.3,0.3s0.3-0.1,0.3-0.3c0,0,0,0,0,0c7.9,0.4,14.2,6.9,14.2,15C65,41.9,56.9,52.1,51.6,54.1z"/>
</g>
</svg>
