<?xml version="1.0" encoding="utf-8"?>
<!-- Generator: Adobe Illustrator 23.1.1, SVG Export Plug-In . SVG Version: 6.00 Build 0) -->
<svg version="1.1" id="Layer_1" xmlns="http://www.w3.org/2000/svg" xmlns:xlink="http://www.w3.org/1999/xlink" x="0px" y="0px" viewBox="0 0 100 100" style="enable-background:new 0 0 100 100;" xml:space="preserve">
	<style type="text/css">
		.st0{fill:#231F20;}
	</style>
	<g>
		<path class="st0" d="M83.9,36.1l-5-5l-0.6-0.6h-0.8h-23v-8c0-4.1-1.9-7-4.5-7s-4.5,2.9-4.5,7v3l-23,0h-0.8l-0.6,0.6l-5,5l-1.4,1.4
		l1.4,1.4l5,5l0.6,0.6h0.8h23v1l-10.5,0l-1.2,0l-0.6,1.1l-2.5,5l-0.4,0.9l0.4,0.9l2.5,5l0.6,1.1H35h10.5v28v2h2h5h2v-2v-38l23,0h0.8
		l0.6-0.6l5-5l1.4-1.4L83.9,36.1z M48,82V23h4v59H48z M50,17.5c1.3,0,2.3,2,2.5,4.5h-4.9C47.7,19.5,48.7,17.5,50,17.5z M22.5,37.5
		l-5-5l5-5l24.5,0v0.8c0,0-0.1-0.1-0.1-0.1c-0.1,0-0.2,0.1-0.2,0.2s0.1,0.2,0.2,0.2c0,0,0.1,0,0.1-0.1v0.9c0,0-0.1-0.1-0.1-0.1
		c-0.1,0-0.2,0.1-0.2,0.2s0.1,0.2,0.2,0.2c0,0,0.1,0,0.1-0.1v0.9c0,0-0.1-0.1-0.1-0.1c-0.1,0-0.2,0.1-0.2,0.2s0.1,0.2,0.2,0.2
		c0,0,0.1,0,0.1-0.1V32c0,0-0.1-0.1-0.1-0.1c-0.1,0-0.2,0.1-0.2,0.2s0.1,0.2,0.2,0.2c0,0,0.1,0,0.1-0.1v0.9c0,0-0.1-0.1-0.1-0.1
		c-0.1,0-0.2,0.1-0.2,0.2s0.1,0.2,0.2,0.2c0,0,0.1,0,0.1-0.1v0.9c0,0-0.1-0.1-0.1-0.1c-0.1,0-0.2,0.1-0.2,0.2s0.1,0.2,0.2,0.2
		c0,0,0.1,0,0.1-0.1v0.9c0,0-0.1-0.1-0.1-0.1c-0.1,0-0.2,0.1-0.2,0.2s0.1,0.2,0.2,0.2c0,0,0.1,0,0.1-0.1V37c0,0-0.1-0.1-0.1-0.1
		c-0.1,0-0.2,0.1-0.2,0.2s0.1,0.2,0.2,0.2c0,0,0.1,0,0.1-0.1v0.2H22.5z M45.9,52.3c-0.1,0-0.2,0.1-0.2,0.2h-0.8
		c0-0.1-0.1-0.2-0.2-0.2s-0.2,0.1-0.2,0.2h-0.8c0-0.1-0.1-0.2-0.2-0.2s-0.2,0.1-0.2,0.2h-0.8c0-0.1-0.1-0.2-0.2-0.2S42,52.4,42,52.5
		h-0.8c0-0.1-0.1-0.2-0.2-0.2s-0.2,0.1-0.2,0.2h-0.8c0-0.1-0.1-0.2-0.2-0.2s-0.2,0.1-0.2,0.2h-0.8c0-0.1-0.1-0.2-0.2-0.2
		s-0.2,0.1-0.2,0.2h-0.8c0-0.1-0.1-0.2-0.2-0.2S37,52.4,37,52.5h-0.8c0-0.1-0.1-0.2-0.2-0.2s-0.2,0.1-0.2,0.2H35l-0.8-1.7
		c0.1,0,0.1-0.1,0.1-0.2c0-0.1-0.1-0.2-0.2-0.2c0,0-0.1,0-0.1,0l-1.1-2.1c0.1,0,0.1-0.1,0.1-0.2c0-0.1-0.1-0.2-0.2-0.2
		c0,0-0.1,0-0.1,0l-0.2-0.4l0.2-0.4c0,0,0.1,0,0.1,0c0.1,0,0.2-0.1,0.2-0.2c0-0.1-0.1-0.1-0.1-0.2l1.1-2.1c0,0,0.1,0,0.1,0
		c0.1,0,0.2-0.1,0.2-0.2c0-0.1-0.1-0.1-0.1-0.2l0.8-1.7h0.7l0,0c0,0.1,0.1,0.2,0.2,0.2s0.2-0.1,0.2-0.2v0H37l0,0
		c0,0.1,0.1,0.2,0.2,0.2s0.2-0.1,0.2-0.2c0,0,0,0,0,0h0.8c0,0,0,0,0,0c0,0.1,0.1,0.2,0.2,0.2s0.2-0.1,0.2-0.2c0,0,0,0,0,0l0.8,0
		c0,0,0,0,0,0c0,0.1,0.1,0.2,0.2,0.2s0.2-0.1,0.2-0.2c0,0,0,0,0,0l0.8,0c0,0,0,0,0,0c0,0.1,0.1,0.2,0.2,0.2s0.2-0.1,0.2-0.2
		c0,0,0,0,0,0H42c0,0,0,0,0,0c0,0.1,0.1,0.2,0.2,0.2s0.2-0.1,0.2-0.2c0,0,0,0,0,0h0.8c0,0,0,0,0,0c0,0.1,0.1,0.2,0.2,0.2
		s0.2-0.1,0.2-0.2c0,0,0,0,0,0h0.8c0,0,0,0,0,0c0,0.1,0.1,0.2,0.2,0.2s0.2-0.1,0.2-0.2c0,0,0,0,0,0l0.8,0c0,0,0,0,0,0
		c0,0.1,0.1,0.2,0.2,0.2s0.2-0.1,0.2-0.2c0,0,0,0,0,0l0.8,0c0,0,0,0,0,0c0,0,0,0,0,0.1v1.1c0,0,0,0,0,0.1s0,0,0,0.1v1.1
		c0,0,0,0,0,0.1s0,0,0,0.1v1.1c0,0,0,0,0,0.1s0,0,0,0.1v1.1c0,0,0,0,0,0.1s0,0,0,0.1v1.1c0,0,0,0,0,0.1s0,0,0,0.1v1.1c0,0,0,0,0,0.1
		s0,0,0,0.1v1.1c0,0,0,0,0,0.1s0,0,0,0.1v1.2h-0.9C46.2,52.4,46.1,52.3,45.9,52.3z M77.5,42.5l-18.9,0c0,0,0,0,0,0
		c0-0.1-0.1-0.2-0.2-0.2s-0.2,0.1-0.2,0.2c0,0,0,0,0,0l-0.8,0c0,0,0,0,0,0c0-0.1-0.1-0.2-0.2-0.2S57,42.4,57,42.5c0,0,0,0,0,0h-0.8
		c0,0,0,0,0,0c0-0.1-0.1-0.2-0.2-0.2s-0.2,0.1-0.2,0.2c0,0,0,0,0,0h-0.8c0,0,0,0,0,0c0-0.1-0.1-0.2-0.2-0.2s-0.2,0.1-0.2,0.2
		c0,0,0,0,0,0l-0.8,0c0,0,0,0,0,0c0-0.1-0.1-0.2-0.2-0.2s-0.2,0.1-0.2,0.2c0,0,0,0,0,0H53v-0.6c0,0,0,0,0-0.1s0,0,0-0.1v-1.1
		c0,0,0,0,0-0.1s0,0,0-0.1v-1.1c0,0,0,0,0-0.1s0,0,0-0.1v-1.1c0,0,0,0,0-0.1s0,0,0-0.1v-1.1c0,0,0,0,0-0.1s0,0,0-0.1v-1.1
		c0,0,0,0,0-0.1s0,0,0-0.1v-1.1c0,0,0,0,0-0.1s0,0,0-0.1v-1.1c0,0,0,0,0-0.1s0,0,0-0.1v-0.6h0.2c0,0.1,0.1,0.2,0.2,0.2
		s0.2-0.1,0.2-0.2h0.8c0,0.1,0.1,0.2,0.2,0.2s0.2-0.1,0.2-0.2h0.8c0,0.1,0.1,0.2,0.2,0.2s0.2-0.1,0.2-0.2H57c0,0.1,0.1,0.2,0.2,0.2
		s0.2-0.1,0.2-0.2h0.8c0,0.1,0.1,0.2,0.2,0.2s0.2-0.1,0.2-0.2h18.8l5,5L77.5,42.5z" />
		<path class="st0" d="M35.9,46c-0.1,0-0.2,0.1-0.2,0.2s0.1,0.2,0.2,0.2s0.2-0.1,0.2-0.2S36.1,46,35.9,46z" />
		<path class="st0" d="M37.2,46c-0.1,0-0.2,0.1-0.2,0.2s0.1,0.2,0.2,0.2s0.2-0.1,0.2-0.2S37.3,46,37.2,46z" />
		<path class="st0" d="M36.6,46.7c-0.1,0-0.2,0.1-0.2,0.2s0.1,0.2,0.2,0.2s0.2-0.1,0.2-0.2S36.7,46.7,36.6,46.7z" />
		<path class="st0" d="M35.9,47.3c-0.1,0-0.2,0.1-0.2,0.2s0.1,0.2,0.2,0.2s0.2-0.1,0.2-0.2S36.1,47.3,35.9,47.3z" />
		<path class="st0" d="M37.2,47.3c-0.1,0-0.2,0.1-0.2,0.2s0.1,0.2,0.2,0.2s0.2-0.1,0.2-0.2S37.3,47.3,37.2,47.3z" />
		<path class="st0" d="M36.6,47.9c-0.1,0-0.2,0.1-0.2,0.2s0.1,0.2,0.2,0.2s0.2-0.1,0.2-0.2S36.7,47.9,36.6,47.9z" />
		<path class="st0" d="M38.4,46c-0.1,0-0.2,0.1-0.2,0.2s0.1,0.2,0.2,0.2s0.2-0.1,0.2-0.2S38.6,46,38.4,46z" />
		<path class="st0" d="M39.7,46c-0.1,0-0.2,0.1-0.2,0.2s0.1,0.2,0.2,0.2s0.2-0.1,0.2-0.2S39.8,46,39.7,46z" />
		<path class="st0" d="M39.1,46.7c-0.1,0-0.2,0.1-0.2,0.2s0.1,0.2,0.2,0.2s0.2-0.1,0.2-0.2S39.2,46.7,39.1,46.7z" />
		<path class="st0" d="M38.4,47.3c-0.1,0-0.2,0.1-0.2,0.2s0.1,0.2,0.2,0.2s0.2-0.1,0.2-0.2S38.6,47.3,38.4,47.3z" />
		<path class="st0" d="M39.1,47.9c-0.1,0-0.2,0.1-0.2,0.2s0.1,0.2,0.2,0.2s0.2-0.1,0.2-0.2S39.2,47.9,39.1,47.9z" />
		<path class="st0" d="M37.8,46.7c-0.1,0-0.2,0.1-0.2,0.2s0.1,0.2,0.2,0.2S38,47,38,46.9S37.9,46.7,37.8,46.7z" />
		<path class="st0" d="M37.8,47.9c-0.1,0-0.2,0.1-0.2,0.2s0.1,0.2,0.2,0.2s0.2-0.1,0.2-0.2S37.9,47.9,37.8,47.9z" />
		<path class="st0" d="M35.9,48.5c-0.1,0-0.2,0.1-0.2,0.2s0.1,0.2,0.2,0.2s0.2-0.1,0.2-0.2S36.1,48.5,35.9,48.5z" />
		<path class="st0" d="M37.2,48.5c-0.1,0-0.2,0.1-0.2,0.2s0.1,0.2,0.2,0.2s0.2-0.1,0.2-0.2S37.3,48.5,37.2,48.5z" />
		<path class="st0" d="M36.6,49.2c-0.1,0-0.2,0.1-0.2,0.2s0.1,0.2,0.2,0.2s0.2-0.1,0.2-0.2S36.7,49.2,36.6,49.2z" />
		<path class="st0" d="M35.9,49.8c-0.1,0-0.2,0.1-0.2,0.2s0.1,0.2,0.2,0.2s0.2-0.1,0.2-0.2S36.1,49.8,35.9,49.8z" />
		<path class="st0" d="M37.2,49.8c-0.1,0-0.2,0.1-0.2,0.2s0.1,0.2,0.2,0.2s0.2-0.1,0.2-0.2S37.3,49.8,37.2,49.8z" />
		<path class="st0" d="M36.6,50.4c-0.1,0-0.2,0.1-0.2,0.2s0.1,0.2,0.2,0.2s0.2-0.1,0.2-0.2S36.7,50.4,36.6,50.4z" />
		<path class="st0" d="M38.4,48.5c-0.1,0-0.2,0.1-0.2,0.2s0.1,0.2,0.2,0.2s0.2-0.1,0.2-0.2S38.6,48.5,38.4,48.5z" />
		<path class="st0" d="M38.4,49.8c-0.1,0-0.2,0.1-0.2,0.2s0.1,0.2,0.2,0.2s0.2-0.1,0.2-0.2S38.6,49.8,38.4,49.8z" />
		<path class="st0" d="M37.8,49.2c-0.1,0-0.2,0.1-0.2,0.2s0.1,0.2,0.2,0.2s0.2-0.1,0.2-0.2S37.9,49.2,37.8,49.2z" />
		<path class="st0" d="M37.8,50.4c-0.1,0-0.2,0.1-0.2,0.2s0.1,0.2,0.2,0.2s0.2-0.1,0.2-0.2S37.9,50.4,37.8,50.4z" />
		<path class="st0" d="M35.9,51c-0.1,0-0.2,0.1-0.2,0.2s0.1,0.2,0.2,0.2s0.2-0.1,0.2-0.2S36.1,51,35.9,51z" />
		<path class="st0" d="M37.2,51c-0.1,0-0.2,0.1-0.2,0.2s0.1,0.2,0.2,0.2s0.2-0.1,0.2-0.2S37.3,51,37.2,51z" />
		<path class="st0" d="M36.6,51.7c-0.1,0-0.2,0.1-0.2,0.2s0.1,0.2,0.2,0.2s0.2-0.1,0.2-0.2S36.7,51.7,36.6,51.7z" />
		<path class="st0" d="M38.4,51c-0.1,0-0.2,0.1-0.2,0.2s0.1,0.2,0.2,0.2s0.2-0.1,0.2-0.2S38.6,51,38.4,51z" />
		<path class="st0" d="M37.8,51.7c-0.1,0-0.2,0.1-0.2,0.2s0.1,0.2,0.2,0.2S38,52,38,51.9S37.9,51.7,37.8,51.7z" />
		<path class="st0" d="M35.3,46.7c-0.1,0-0.2,0.1-0.2,0.2s0.1,0.2,0.2,0.2s0.2-0.1,0.2-0.2S35.4,46.7,35.3,46.7z" />
		<path class="st0" d="M35.3,47.9c-0.1,0-0.2,0.1-0.2,0.2s0.1,0.2,0.2,0.2s0.2-0.1,0.2-0.2S35.4,47.9,35.3,47.9z" />
		<path class="st0" d="M34.7,48.5c-0.1,0-0.2,0.1-0.2,0.2s0.1,0.2,0.2,0.2s0.2-0.1,0.2-0.2S34.8,48.5,34.7,48.5z" />
		<path class="st0" d="M34.7,49.8c-0.1,0-0.2,0.1-0.2,0.2s0.1,0.2,0.2,0.2s0.2-0.1,0.2-0.2S34.8,49.8,34.7,49.8z" />
		<path class="st0" d="M35.3,49.2c-0.1,0-0.2,0.1-0.2,0.2s0.1,0.2,0.2,0.2s0.2-0.1,0.2-0.2S35.4,49.2,35.3,49.2z" />
		<path class="st0" d="M35.3,50.4c-0.1,0-0.2,0.1-0.2,0.2s0.1,0.2,0.2,0.2s0.2-0.1,0.2-0.2S35.4,50.4,35.3,50.4z" />
		<path class="st0" d="M34.7,51c-0.1,0-0.2,0.1-0.2,0.2s0.1,0.2,0.2,0.2s0.2-0.1,0.2-0.2S34.8,51,34.7,51z" />
		<path class="st0" d="M35.3,51.7c-0.1,0-0.2,0.1-0.2,0.2s0.1,0.2,0.2,0.2s0.2-0.1,0.2-0.2S35.4,51.7,35.3,51.7z" />
		<path class="st0" d="M39.1,42.9c-0.1,0-0.2,0.1-0.2,0.2s0.1,0.2,0.2,0.2s0.2-0.1,0.2-0.2S39.2,42.9,39.1,42.9z" />
		<path class="st0" d="M37.8,42.9c-0.1,0-0.2,0.1-0.2,0.2s0.1,0.2,0.2,0.2s0.2-0.1,0.2-0.2S37.9,42.9,37.8,42.9z" />
		<path class="st0" d="M40.3,42.9c-0.1,0-0.2,0.1-0.2,0.2s0.1,0.2,0.2,0.2s0.2-0.1,0.2-0.2S40.4,42.9,40.3,42.9z" />
		<path class="st0" d="M37.2,43.5c-0.1,0-0.2,0.1-0.2,0.2s0.1,0.2,0.2,0.2s0.2-0.1,0.2-0.2S37.3,43.5,37.2,43.5z" />
		<path class="st0" d="M36.6,44.2c-0.1,0-0.2,0.1-0.2,0.2s0.1,0.2,0.2,0.2s0.2-0.1,0.2-0.2S36.7,44.2,36.6,44.2z" />
		<path class="st0" d="M37.2,44.8c-0.1,0-0.2,0.1-0.2,0.2s0.1,0.2,0.2,0.2s0.2-0.1,0.2-0.2S37.3,44.8,37.2,44.8z" />
		<path class="st0" d="M36.6,45.4c-0.1,0-0.2,0.1-0.2,0.2s0.1,0.2,0.2,0.2s0.2-0.1,0.2-0.2S36.7,45.4,36.6,45.4z" />
		<path class="st0" d="M38.4,43.5c-0.1,0-0.2,0.1-0.2,0.2s0.1,0.2,0.2,0.2s0.2-0.1,0.2-0.2S38.6,43.5,38.4,43.5z" />
		<path class="st0" d="M39.7,43.5c-0.1,0-0.2,0.1-0.2,0.2s0.1,0.2,0.2,0.2s0.2-0.1,0.2-0.2S39.8,43.5,39.7,43.5z" />
		<path class="st0" d="M39.1,44.2c-0.1,0-0.2,0.1-0.2,0.2s0.1,0.2,0.2,0.2s0.2-0.1,0.2-0.2S39.2,44.2,39.1,44.2z" />
		<path class="st0" d="M38.4,44.8c-0.1,0-0.2,0.1-0.2,0.2s0.1,0.2,0.2,0.2s0.2-0.1,0.2-0.2S38.6,44.8,38.4,44.8z" />
		<path class="st0" d="M39.7,44.8c-0.1,0-0.2,0.1-0.2,0.2s0.1,0.2,0.2,0.2s0.2-0.1,0.2-0.2S39.8,44.8,39.7,44.8z" />
		<path class="st0" d="M39.1,45.4c-0.1,0-0.2,0.1-0.2,0.2s0.1,0.2,0.2,0.2s0.2-0.1,0.2-0.2S39.2,45.4,39.1,45.4z" />
		<path class="st0" d="M37.8,44.2c-0.1,0-0.2,0.1-0.2,0.2s0.1,0.2,0.2,0.2s0.2-0.1,0.2-0.2S37.9,44.2,37.8,44.2z" />
		<path class="st0" d="M37.8,45.4c-0.1,0-0.2,0.1-0.2,0.2s0.1,0.2,0.2,0.2s0.2-0.1,0.2-0.2S37.9,45.4,37.8,45.4z" />
		<path class="st0" d="M40.3,44.2c-0.1,0-0.2,0.1-0.2,0.2s0.1,0.2,0.2,0.2s0.2-0.1,0.2-0.2S40.4,44.2,40.3,44.2z" />
		<path class="st0" d="M45.3,50.4c-0.1,0-0.2,0.1-0.2,0.2s0.1,0.2,0.2,0.2s0.2-0.1,0.2-0.2S45.4,50.4,45.3,50.4z" />
		<path class="st0" d="M46.6,50.4c-0.1,0-0.2,0.1-0.2,0.2s0.1,0.2,0.2,0.2s0.2-0.1,0.2-0.2S46.7,50.4,46.6,50.4z" />
		<path class="st0" d="M45.9,51c-0.1,0-0.2,0.1-0.2,0.2s0.1,0.2,0.2,0.2s0.2-0.1,0.2-0.2S46.1,51,45.9,51z" />
		<path class="st0" d="M45.3,51.7c-0.1,0-0.2,0.1-0.2,0.2s0.1,0.2,0.2,0.2s0.2-0.1,0.2-0.2S45.4,51.7,45.3,51.7z" />
		<path class="st0" d="M46.6,51.7c-0.1,0-0.2,0.1-0.2,0.2s0.1,0.2,0.2,0.2s0.2-0.1,0.2-0.2S46.7,51.7,46.6,51.7z" />
		<path class="st0" d="M39.1,50.4c-0.1,0-0.2,0.1-0.2,0.2s0.1,0.2,0.2,0.2s0.2-0.1,0.2-0.2S39.2,50.4,39.1,50.4z" />
		<path class="st0" d="M39.1,51.7c-0.1,0-0.2,0.1-0.2,0.2s0.1,0.2,0.2,0.2s0.2-0.1,0.2-0.2S39.2,51.7,39.1,51.7z" />
		<path class="st0" d="M39.7,51c-0.1,0-0.2,0.1-0.2,0.2s0.1,0.2,0.2,0.2s0.2-0.1,0.2-0.2S39.8,51,39.7,51z" />
		<path class="st0" d="M40.3,50.4c-0.1,0-0.2,0.1-0.2,0.2s0.1,0.2,0.2,0.2s0.2-0.1,0.2-0.2S40.4,50.4,40.3,50.4z" />
		<path class="st0" d="M41.6,50.4c-0.1,0-0.2,0.1-0.2,0.2s0.1,0.2,0.2,0.2s0.2-0.1,0.2-0.2S41.7,50.4,41.6,50.4z" />
		<path class="st0" d="M40.9,51c-0.1,0-0.2,0.1-0.2,0.2s0.1,0.2,0.2,0.2s0.2-0.1,0.2-0.2S41.1,51,40.9,51z" />
		<path class="st0" d="M40.3,51.7c-0.1,0-0.2,0.1-0.2,0.2s0.1,0.2,0.2,0.2s0.2-0.1,0.2-0.2S40.4,51.7,40.3,51.7z" />
		<path class="st0" d="M41.6,51.7c-0.1,0-0.2,0.1-0.2,0.2s0.1,0.2,0.2,0.2s0.2-0.1,0.2-0.2S41.7,51.7,41.6,51.7z" />
		<path class="st0" d="M42.8,50.4c-0.1,0-0.2,0.1-0.2,0.2s0.1,0.2,0.2,0.2s0.2-0.1,0.2-0.2S42.9,50.4,42.8,50.4z" />
		<path class="st0" d="M44.1,50.4c-0.1,0-0.2,0.1-0.2,0.2s0.1,0.2,0.2,0.2s0.2-0.1,0.2-0.2S44.2,50.4,44.1,50.4z" />
		<path class="st0" d="M43.4,51c-0.1,0-0.2,0.1-0.2,0.2s0.1,0.2,0.2,0.2s0.2-0.1,0.2-0.2S43.6,51,43.4,51z" />
		<path class="st0" d="M42.8,51.7c-0.1,0-0.2,0.1-0.2,0.2s0.1,0.2,0.2,0.2S43,52,43,51.9S42.9,51.7,42.8,51.7z" />
		<path class="st0" d="M44.1,51.7c-0.1,0-0.2,0.1-0.2,0.2s0.1,0.2,0.2,0.2s0.2-0.1,0.2-0.2S44.2,51.7,44.1,51.7z" />
		<path class="st0" d="M42.2,51c-0.1,0-0.2,0.1-0.2,0.2s0.1,0.2,0.2,0.2s0.2-0.1,0.2-0.2S42.3,51,42.2,51z" />
		<path class="st0" d="M44.7,51c-0.1,0-0.2,0.1-0.2,0.2s0.1,0.2,0.2,0.2s0.2-0.1,0.2-0.2S44.8,51,44.7,51z" />
		<path class="st0" d="M45.3,42.9c-0.1,0-0.2,0.1-0.2,0.2s0.1,0.2,0.2,0.2s0.2-0.1,0.2-0.2S45.4,42.9,45.3,42.9z" />
		<path class="st0" d="M46.6,42.9c-0.1,0-0.2,0.1-0.2,0.2s0.1,0.2,0.2,0.2s0.2-0.1,0.2-0.2S46.7,42.9,46.6,42.9z" />
		<path class="st0" d="M45.9,43.5c-0.1,0-0.2,0.1-0.2,0.2s0.1,0.2,0.2,0.2s0.2-0.1,0.2-0.2S46.1,43.5,45.9,43.5z" />
		<path class="st0" d="M45.3,44.2c-0.1,0-0.2,0.1-0.2,0.2s0.1,0.2,0.2,0.2s0.2-0.1,0.2-0.2S45.4,44.2,45.3,44.2z" />
		<path class="st0" d="M46.6,44.2c-0.1,0-0.2,0.1-0.2,0.2s0.1,0.2,0.2,0.2s0.2-0.1,0.2-0.2S46.7,44.2,46.6,44.2z" />
		<path class="st0" d="M45.9,44.8c-0.1,0-0.2,0.1-0.2,0.2s0.1,0.2,0.2,0.2s0.2-0.1,0.2-0.2S46.1,44.8,45.9,44.8z" />
		<path class="st0" d="M45.3,45.4c-0.1,0-0.2,0.1-0.2,0.2s0.1,0.2,0.2,0.2s0.2-0.1,0.2-0.2S45.4,45.4,45.3,45.4z" />
		<path class="st0" d="M46.6,45.4c-0.1,0-0.2,0.1-0.2,0.2s0.1,0.2,0.2,0.2s0.2-0.1,0.2-0.2S46.7,45.4,46.6,45.4z" />
		<path class="st0" d="M45.9,46c-0.1,0-0.2,0.1-0.2,0.2s0.1,0.2,0.2,0.2s0.2-0.1,0.2-0.2S46.1,46,45.9,46z" />
		<path class="st0" d="M45.3,46.7c-0.1,0-0.2,0.1-0.2,0.2s0.1,0.2,0.2,0.2s0.2-0.1,0.2-0.2S45.4,46.7,45.3,46.7z" />
		<path class="st0" d="M46.6,46.7c-0.1,0-0.2,0.1-0.2,0.2s0.1,0.2,0.2,0.2s0.2-0.1,0.2-0.2S46.7,46.7,46.6,46.7z" />
		<path class="st0" d="M45.9,47.3c-0.1,0-0.2,0.1-0.2,0.2s0.1,0.2,0.2,0.2s0.2-0.1,0.2-0.2S46.1,47.3,45.9,47.3z" />
		<path class="st0" d="M45.3,47.9c-0.1,0-0.2,0.1-0.2,0.2s0.1,0.2,0.2,0.2s0.2-0.1,0.2-0.2S45.4,47.9,45.3,47.9z" />
		<path class="st0" d="M46.6,47.9c-0.1,0-0.2,0.1-0.2,0.2s0.1,0.2,0.2,0.2s0.2-0.1,0.2-0.2S46.7,47.9,46.6,47.9z" />
		<path class="st0" d="M45.9,48.5c-0.1,0-0.2,0.1-0.2,0.2s0.1,0.2,0.2,0.2s0.2-0.1,0.2-0.2S46.1,48.5,45.9,48.5z" />
		<path class="st0" d="M45.3,49.2c-0.1,0-0.2,0.1-0.2,0.2s0.1,0.2,0.2,0.2s0.2-0.1,0.2-0.2S45.4,49.2,45.3,49.2z" />
		<path class="st0" d="M46.6,49.2c-0.1,0-0.2,0.1-0.2,0.2s0.1,0.2,0.2,0.2s0.2-0.1,0.2-0.2S46.7,49.2,46.6,49.2z" />
		<path class="st0" d="M45.9,49.8c-0.1,0-0.2,0.1-0.2,0.2s0.1,0.2,0.2,0.2s0.2-0.1,0.2-0.2S46.1,49.8,45.9,49.8z" />
		<path class="st0" d="M41.6,42.9c-0.1,0-0.2,0.1-0.2,0.2s0.1,0.2,0.2,0.2s0.2-0.1,0.2-0.2S41.7,42.9,41.6,42.9z" />
		<path class="st0" d="M40.9,43.5c-0.1,0-0.2,0.1-0.2,0.2s0.1,0.2,0.2,0.2s0.2-0.1,0.2-0.2S41.1,43.5,40.9,43.5z" />
		<path class="st0" d="M41.6,44.2c-0.1,0-0.2,0.1-0.2,0.2s0.1,0.2,0.2,0.2s0.2-0.1,0.2-0.2S41.7,44.2,41.6,44.2z" />
		<path class="st0" d="M40.9,44.8c-0.1,0-0.2,0.1-0.2,0.2s0.1,0.2,0.2,0.2s0.2-0.1,0.2-0.2S41.1,44.8,40.9,44.8z" />
		<path class="st0" d="M42.8,42.9c-0.1,0-0.2,0.1-0.2,0.2s0.1,0.2,0.2,0.2s0.2-0.1,0.2-0.2S42.9,42.9,42.8,42.9z" />
		<path class="st0" d="M44.1,42.9c-0.1,0-0.2,0.1-0.2,0.2s0.1,0.2,0.2,0.2s0.2-0.1,0.2-0.2S44.2,42.9,44.1,42.9z" />
		<path class="st0" d="M43.4,43.5c-0.1,0-0.2,0.1-0.2,0.2s0.1,0.2,0.2,0.2s0.2-0.1,0.2-0.2S43.6,43.5,43.4,43.5z" />
		<path class="st0" d="M42.8,44.2c-0.1,0-0.2,0.1-0.2,0.2s0.1,0.2,0.2,0.2s0.2-0.1,0.2-0.2S42.9,44.2,42.8,44.2z" />
		<path class="st0" d="M44.1,44.2c-0.1,0-0.2,0.1-0.2,0.2s0.1,0.2,0.2,0.2s0.2-0.1,0.2-0.2S44.2,44.2,44.1,44.2z" />
		<path class="st0" d="M43.4,44.8c-0.1,0-0.2,0.1-0.2,0.2s0.1,0.2,0.2,0.2s0.2-0.1,0.2-0.2S43.6,44.8,43.4,44.8z" />
		<path class="st0" d="M42.2,43.5c-0.1,0-0.2,0.1-0.2,0.2s0.1,0.2,0.2,0.2s0.2-0.1,0.2-0.2S42.3,43.5,42.2,43.5z" />
		<path class="st0" d="M42.2,44.8c-0.1,0-0.2,0.1-0.2,0.2s0.1,0.2,0.2,0.2s0.2-0.1,0.2-0.2S42.3,44.8,42.2,44.8z" />
		<path class="st0" d="M44.7,43.5c-0.1,0-0.2,0.1-0.2,0.2s0.1,0.2,0.2,0.2s0.2-0.1,0.2-0.2S44.8,43.5,44.7,43.5z" />
		<path class="st0" d="M44.7,44.8c-0.1,0-0.2,0.1-0.2,0.2s0.1,0.2,0.2,0.2s0.2-0.1,0.2-0.2S44.8,44.8,44.7,44.8z" />
		<path class="st0" d="M39.7,47.3c-0.1,0-0.2,0.1-0.2,0.2s0.1,0.2,0.2,0.2s0.2-0.1,0.2-0.2S39.8,47.3,39.7,47.3z" />
		<path class="st0" d="M39.1,49.2c-0.1,0-0.2,0.1-0.2,0.2s0.1,0.2,0.2,0.2s0.2-0.1,0.2-0.2S39.2,49.2,39.1,49.2z" />
		<path class="st0" d="M39.7,48.5c-0.1,0-0.2,0.1-0.2,0.2s0.1,0.2,0.2,0.2s0.2-0.1,0.2-0.2S39.8,48.5,39.7,48.5z" />
		<path class="st0" d="M39.7,49.8c-0.1,0-0.2,0.1-0.2,0.2s0.1,0.2,0.2,0.2s0.2-0.1,0.2-0.2S39.8,49.8,39.7,49.8z" />
		<path class="st0" d="M40.3,45.4c-0.1,0-0.2,0.1-0.2,0.2s0.1,0.2,0.2,0.2s0.2-0.1,0.2-0.2S40.4,45.4,40.3,45.4z" />
		<path class="st0" d="M41.6,45.4c-0.1,0-0.2,0.1-0.2,0.2s0.1,0.2,0.2,0.2s0.2-0.1,0.2-0.2S41.7,45.4,41.6,45.4z" />
		<path class="st0" d="M40.9,46c-0.1,0-0.2,0.1-0.2,0.2s0.1,0.2,0.2,0.2s0.2-0.1,0.2-0.2S41.1,46,40.9,46z" />
		<path class="st0" d="M40.3,46.7c-0.1,0-0.2,0.1-0.2,0.2s0.1,0.2,0.2,0.2s0.2-0.1,0.2-0.2S40.4,46.7,40.3,46.7z" />
		<path class="st0" d="M41.6,46.7c-0.1,0-0.2,0.1-0.2,0.2s0.1,0.2,0.2,0.2s0.2-0.1,0.2-0.2S41.7,46.7,41.6,46.7z" />
		<path class="st0" d="M40.9,47.3c-0.1,0-0.2,0.1-0.2,0.2s0.1,0.2,0.2,0.2s0.2-0.1,0.2-0.2S41.1,47.3,40.9,47.3z" />
		<path class="st0" d="M42.8,45.4c-0.1,0-0.2,0.1-0.2,0.2s0.1,0.2,0.2,0.2s0.2-0.1,0.2-0.2S42.9,45.4,42.8,45.4z" />
		<path class="st0" d="M44.1,45.4c-0.1,0-0.2,0.1-0.2,0.2s0.1,0.2,0.2,0.2s0.2-0.1,0.2-0.2S44.2,45.4,44.1,45.4z" />
		<path class="st0" d="M43.4,46c-0.1,0-0.2,0.1-0.2,0.2s0.1,0.2,0.2,0.2s0.2-0.1,0.2-0.2S43.6,46,43.4,46z" />
		<path class="st0" d="M42.8,46.7c-0.1,0-0.2,0.1-0.2,0.2s0.1,0.2,0.2,0.2S43,47,43,46.9S42.9,46.7,42.8,46.7z" />
		<path class="st0" d="M44.1,46.7c-0.1,0-0.2,0.1-0.2,0.2s0.1,0.2,0.2,0.2s0.2-0.1,0.2-0.2S44.2,46.7,44.1,46.7z" />
		<path class="st0" d="M43.4,47.3c-0.1,0-0.2,0.1-0.2,0.2s0.1,0.2,0.2,0.2s0.2-0.1,0.2-0.2S43.6,47.3,43.4,47.3z" />
		<path class="st0" d="M42.2,46c-0.1,0-0.2,0.1-0.2,0.2s0.1,0.2,0.2,0.2s0.2-0.1,0.2-0.2S42.3,46,42.2,46z" />
		<path class="st0" d="M42.2,47.3c-0.1,0-0.2,0.1-0.2,0.2s0.1,0.2,0.2,0.2s0.2-0.1,0.2-0.2S42.3,47.3,42.2,47.3z" />
		<path class="st0" d="M44.7,46c-0.1,0-0.2,0.1-0.2,0.2s0.1,0.2,0.2,0.2s0.2-0.1,0.2-0.2S44.8,46,44.7,46z" />
		<path class="st0" d="M44.7,47.3c-0.1,0-0.2,0.1-0.2,0.2s0.1,0.2,0.2,0.2s0.2-0.1,0.2-0.2S44.8,47.3,44.7,47.3z" />
		<path class="st0" d="M40.3,47.9c-0.1,0-0.2,0.1-0.2,0.2s0.1,0.2,0.2,0.2s0.2-0.1,0.2-0.2S40.4,47.9,40.3,47.9z" />
		<path class="st0" d="M41.6,47.9c-0.1,0-0.2,0.1-0.2,0.2s0.1,0.2,0.2,0.2s0.2-0.1,0.2-0.2S41.7,47.9,41.6,47.9z" />
		<path class="st0" d="M40.9,48.5c-0.1,0-0.2,0.1-0.2,0.2s0.1,0.2,0.2,0.2s0.2-0.1,0.2-0.2S41.1,48.5,40.9,48.5z" />
		<path class="st0" d="M40.3,49.2c-0.1,0-0.2,0.1-0.2,0.2s0.1,0.2,0.2,0.2s0.2-0.1,0.2-0.2S40.4,49.2,40.3,49.2z" />
		<path class="st0" d="M41.6,49.2c-0.1,0-0.2,0.1-0.2,0.2s0.1,0.2,0.2,0.2s0.2-0.1,0.2-0.2S41.7,49.2,41.6,49.2z" />
		<path class="st0" d="M40.9,49.8c-0.1,0-0.2,0.1-0.2,0.2s0.1,0.2,0.2,0.2s0.2-0.1,0.2-0.2S41.1,49.8,40.9,49.8z" />
		<path class="st0" d="M42.8,47.9c-0.1,0-0.2,0.1-0.2,0.2s0.1,0.2,0.2,0.2s0.2-0.1,0.2-0.2S42.9,47.9,42.8,47.9z" />
		<path class="st0" d="M44.1,47.9c-0.1,0-0.2,0.1-0.2,0.2s0.1,0.2,0.2,0.2s0.2-0.1,0.2-0.2S44.2,47.9,44.1,47.9z" />
		<path class="st0" d="M43.4,48.5c-0.1,0-0.2,0.1-0.2,0.2s0.1,0.2,0.2,0.2s0.2-0.1,0.2-0.2S43.6,48.5,43.4,48.5z" />
		<path class="st0" d="M42.8,49.2c-0.1,0-0.2,0.1-0.2,0.2s0.1,0.2,0.2,0.2s0.2-0.1,0.2-0.2S42.9,49.2,42.8,49.2z" />
		<path class="st0" d="M44.1,49.2c-0.1,0-0.2,0.1-0.2,0.2s0.1,0.2,0.2,0.2s0.2-0.1,0.2-0.2S44.2,49.2,44.1,49.2z" />
		<path class="st0" d="M43.4,49.8c-0.1,0-0.2,0.1-0.2,0.2s0.1,0.2,0.2,0.2s0.2-0.1,0.2-0.2S43.6,49.8,43.4,49.8z" />
		<path class="st0" d="M42.2,48.5c-0.1,0-0.2,0.1-0.2,0.2s0.1,0.2,0.2,0.2s0.2-0.1,0.2-0.2S42.3,48.5,42.2,48.5z" />
		<path class="st0" d="M42.2,49.8c-0.1,0-0.2,0.1-0.2,0.2s0.1,0.2,0.2,0.2s0.2-0.1,0.2-0.2S42.3,49.8,42.2,49.8z" />
		<path class="st0" d="M44.7,48.5c-0.1,0-0.2,0.1-0.2,0.2s0.1,0.2,0.2,0.2s0.2-0.1,0.2-0.2S44.8,48.5,44.7,48.5z" />
		<path class="st0" d="M44.7,49.8c-0.1,0-0.2,0.1-0.2,0.2s0.1,0.2,0.2,0.2s0.2-0.1,0.2-0.2S44.8,49.8,44.7,49.8z" />
		<path class="st0" d="M33.4,46c-0.1,0-0.2,0.1-0.2,0.2s0.1,0.2,0.2,0.2s0.2-0.1,0.2-0.2S33.6,46,33.4,46z" />
		<path class="st0" d="M34.7,46c-0.1,0-0.2,0.1-0.2,0.2s0.1,0.2,0.2,0.2s0.2-0.1,0.2-0.2S34.8,46,34.7,46z" />
		<path class="st0" d="M34.1,46.7c-0.1,0-0.2,0.1-0.2,0.2s0.1,0.2,0.2,0.2s0.2-0.1,0.2-0.2S34.2,46.7,34.1,46.7z" />
		<path class="st0" d="M33.4,47.3c-0.1,0-0.2,0.1-0.2,0.2s0.1,0.2,0.2,0.2s0.2-0.1,0.2-0.2S33.6,47.3,33.4,47.3z" />
		<path class="st0" d="M34.7,47.3c-0.1,0-0.2,0.1-0.2,0.2s0.1,0.2,0.2,0.2s0.2-0.1,0.2-0.2S34.8,47.3,34.7,47.3z" />
		<path class="st0" d="M34.1,47.9c-0.1,0-0.2,0.1-0.2,0.2s0.1,0.2,0.2,0.2s0.2-0.1,0.2-0.2S34.2,47.9,34.1,47.9z" />
		<path class="st0" d="M33.4,48.5c-0.1,0-0.2,0.1-0.2,0.2s0.1,0.2,0.2,0.2s0.2-0.1,0.2-0.2S33.6,48.5,33.4,48.5z" />
		<path class="st0" d="M34.1,49.2c-0.1,0-0.2,0.1-0.2,0.2s0.1,0.2,0.2,0.2s0.2-0.1,0.2-0.2S34.2,49.2,34.1,49.2z" />
		<path class="st0" d="M35.3,42.9c-0.1,0-0.2,0.1-0.2,0.2s0.1,0.2,0.2,0.2s0.2-0.1,0.2-0.2S35.4,42.9,35.3,42.9z" />
		<path class="st0" d="M34.7,43.5c-0.1,0-0.2,0.1-0.2,0.2s0.1,0.2,0.2,0.2s0.2-0.1,0.2-0.2S34.8,43.5,34.7,43.5z" />
		<path class="st0" d="M34.7,44.8c-0.1,0-0.2,0.1-0.2,0.2s0.1,0.2,0.2,0.2s0.2-0.1,0.2-0.2S34.8,44.8,34.7,44.8z" />
		<path class="st0" d="M34.1,45.4c-0.1,0-0.2,0.1-0.2,0.2s0.1,0.2,0.2,0.2s0.2-0.1,0.2-0.2S34.2,45.4,34.1,45.4z" />
		<path class="st0" d="M35.3,44.2c-0.1,0-0.2,0.1-0.2,0.2s0.1,0.2,0.2,0.2s0.2-0.1,0.2-0.2S35.4,44.2,35.3,44.2z" />
		<path class="st0" d="M35.3,45.4c-0.1,0-0.2,0.1-0.2,0.2s0.1,0.2,0.2,0.2s0.2-0.1,0.2-0.2S35.4,45.4,35.3,45.4z" />
		<path class="st0" d="M36.6,42.9c-0.1,0-0.2,0.1-0.2,0.2s0.1,0.2,0.2,0.2s0.2-0.1,0.2-0.2S36.7,42.9,36.6,42.9z" />
		<path class="st0" d="M35.9,43.5c-0.1,0-0.2,0.1-0.2,0.2s0.1,0.2,0.2,0.2s0.2-0.1,0.2-0.2S36.1,43.5,35.9,43.5z" />
		<path class="st0" d="M35.9,44.8c-0.1,0-0.2,0.1-0.2,0.2s0.1,0.2,0.2,0.2s0.2-0.1,0.2-0.2S36.1,44.8,35.9,44.8z" />
		<path class="st0" d="M54.1,34.2c-0.1,0-0.2,0.1-0.2,0.2s0.1,0.2,0.2,0.2s0.2-0.1,0.2-0.2S54.2,34.2,54.1,34.2z" />
		<path class="st0" d="M53.4,34.8c-0.1,0-0.2,0.1-0.2,0.2s0.1,0.2,0.2,0.2s0.2-0.1,0.2-0.2S53.6,34.8,53.4,34.8z" />
		<path class="st0" d="M53.4,36c-0.1,0-0.2,0.1-0.2,0.2s0.1,0.2,0.2,0.2s0.2-0.1,0.2-0.2S53.6,36,53.4,36z" />
		<path class="st0" d="M54.1,32.9c-0.1,0-0.2,0.1-0.2,0.2s0.1,0.2,0.2,0.2s0.2-0.1,0.2-0.2S54.2,32.9,54.1,32.9z" />
		<path class="st0" d="M53.4,33.5c-0.1,0-0.2,0.1-0.2,0.2s0.1,0.2,0.2,0.2s0.2-0.1,0.2-0.2S53.6,33.5,53.4,33.5z" />
		<path class="st0" d="M53.4,38.5c-0.1,0-0.2,0.1-0.2,0.2s0.1,0.2,0.2,0.2s0.2-0.1,0.2-0.2S53.6,38.5,53.4,38.5z" />
		<path class="st0" d="M53.4,39.8c-0.1,0-0.2,0.1-0.2,0.2s0.1,0.2,0.2,0.2s0.2-0.1,0.2-0.2S53.6,39.8,53.4,39.8z" />
		<path class="st0" d="M54.1,39.2c-0.1,0-0.2,0.1-0.2,0.2s0.1,0.2,0.2,0.2s0.2-0.1,0.2-0.2S54.2,39.2,54.1,39.2z" />
		<path class="st0" d="M54.1,40.4c-0.1,0-0.2,0.1-0.2,0.2s0.1,0.2,0.2,0.2s0.2-0.1,0.2-0.2S54.2,40.4,54.1,40.4z" />
		<path class="st0" d="M53.4,41c-0.1,0-0.2,0.1-0.2,0.2s0.1,0.2,0.2,0.2s0.2-0.1,0.2-0.2S53.6,41,53.4,41z" />
		<path class="st0" d="M54.1,41.7c-0.1,0-0.2,0.1-0.2,0.2s0.1,0.2,0.2,0.2s0.2-0.1,0.2-0.2S54.2,41.7,54.1,41.7z" />
		<path class="st0" d="M54.7,38.5c-0.1,0-0.2,0.1-0.2,0.2s0.1,0.2,0.2,0.2s0.2-0.1,0.2-0.2S54.8,38.5,54.7,38.5z" />
		<path class="st0" d="M55.9,38.5c-0.1,0-0.2,0.1-0.2,0.2s0.1,0.2,0.2,0.2s0.2-0.1,0.2-0.2S56.1,38.5,55.9,38.5z" />
		<path class="st0" d="M55.3,39.2c-0.1,0-0.2,0.1-0.2,0.2s0.1,0.2,0.2,0.2s0.2-0.1,0.2-0.2S55.4,39.2,55.3,39.2z" />
		<path class="st0" d="M54.7,39.8c-0.1,0-0.2,0.1-0.2,0.2s0.1,0.2,0.2,0.2s0.2-0.1,0.2-0.2S54.8,39.8,54.7,39.8z" />
		<path class="st0" d="M55.9,39.8c-0.1,0-0.2,0.1-0.2,0.2s0.1,0.2,0.2,0.2s0.2-0.1,0.2-0.2S56.1,39.8,55.9,39.8z" />
		<path class="st0" d="M55.3,40.4c-0.1,0-0.2,0.1-0.2,0.2s0.1,0.2,0.2,0.2s0.2-0.1,0.2-0.2S55.4,40.4,55.3,40.4z" />
		<path class="st0" d="M57.2,38.5c-0.1,0-0.2,0.1-0.2,0.2s0.1,0.2,0.2,0.2s0.2-0.1,0.2-0.2S57.3,38.5,57.2,38.5z" />
		<path class="st0" d="M58.4,38.5c-0.1,0-0.2,0.1-0.2,0.2s0.1,0.2,0.2,0.2s0.2-0.1,0.2-0.2S58.6,38.5,58.4,38.5z" />
		<path class="st0" d="M57.8,39.2c-0.1,0-0.2,0.1-0.2,0.2s0.1,0.2,0.2,0.2s0.2-0.1,0.2-0.2S57.9,39.2,57.8,39.2z" />
		<path class="st0" d="M57.2,39.8c-0.1,0-0.2,0.1-0.2,0.2s0.1,0.2,0.2,0.2s0.2-0.1,0.2-0.2S57.3,39.8,57.2,39.8z" />
		<path class="st0" d="M58.4,39.8c-0.1,0-0.2,0.1-0.2,0.2s0.1,0.2,0.2,0.2s0.2-0.1,0.2-0.2S58.6,39.8,58.4,39.8z" />
		<path class="st0" d="M57.8,40.4c-0.1,0-0.2,0.1-0.2,0.2s0.1,0.2,0.2,0.2s0.2-0.1,0.2-0.2S57.9,40.4,57.8,40.4z" />
		<path class="st0" d="M56.6,39.2c-0.1,0-0.2,0.1-0.2,0.2s0.1,0.2,0.2,0.2s0.2-0.1,0.2-0.2S56.7,39.2,56.6,39.2z" />
		<path class="st0" d="M56.6,40.4c-0.1,0-0.2,0.1-0.2,0.2s0.1,0.2,0.2,0.2s0.2-0.1,0.2-0.2S56.7,40.4,56.6,40.4z" />
		<path class="st0" d="M54.7,41c-0.1,0-0.2,0.1-0.2,0.2s0.1,0.2,0.2,0.2s0.2-0.1,0.2-0.2S54.8,41,54.7,41z" />
		<path class="st0" d="M55.9,41c-0.1,0-0.2,0.1-0.2,0.2s0.1,0.2,0.2,0.2s0.2-0.1,0.2-0.2S56.1,41,55.9,41z" />
		<path class="st0" d="M55.3,41.7c-0.1,0-0.2,0.1-0.2,0.2s0.1,0.2,0.2,0.2s0.2-0.1,0.2-0.2S55.4,41.7,55.3,41.7z" />
		<path class="st0" d="M57.2,41c-0.1,0-0.2,0.1-0.2,0.2s0.1,0.2,0.2,0.2s0.2-0.1,0.2-0.2S57.3,41,57.2,41z" />
		<path class="st0" d="M58.4,41c-0.1,0-0.2,0.1-0.2,0.2s0.1,0.2,0.2,0.2s0.2-0.1,0.2-0.2S58.6,41,58.4,41z" />
		<path class="st0" d="M57.8,41.7c-0.1,0-0.2,0.1-0.2,0.2s0.1,0.2,0.2,0.2S58,42,58,41.9S57.9,41.7,57.8,41.7z" />
		<path class="st0" d="M56.6,41.7c-0.1,0-0.2,0.1-0.2,0.2s0.1,0.2,0.2,0.2s0.2-0.1,0.2-0.2S56.7,41.7,56.6,41.7z" />
		<path class="st0" d="M55.3,32.9c-0.1,0-0.2,0.1-0.2,0.2s0.1,0.2,0.2,0.2s0.2-0.1,0.2-0.2S55.4,32.9,55.3,32.9z" />
		<path class="st0" d="M57.8,32.9c-0.1,0-0.2,0.1-0.2,0.2s0.1,0.2,0.2,0.2s0.2-0.1,0.2-0.2S57.9,32.9,57.8,32.9z" />
		<path class="st0" d="M56.6,32.9c-0.1,0-0.2,0.1-0.2,0.2s0.1,0.2,0.2,0.2s0.2-0.1,0.2-0.2S56.7,32.9,56.6,32.9z" />
		<path class="st0" d="M54.1,35.4c-0.1,0-0.2,0.1-0.2,0.2s0.1,0.2,0.2,0.2s0.2-0.1,0.2-0.2S54.2,35.4,54.1,35.4z" />
		<path class="st0" d="M53.4,37.3c-0.1,0-0.2,0.1-0.2,0.2s0.1,0.2,0.2,0.2s0.2-0.1,0.2-0.2S53.6,37.3,53.4,37.3z" />
		<path class="st0" d="M54.1,36.7c-0.1,0-0.2,0.1-0.2,0.2s0.1,0.2,0.2,0.2s0.2-0.1,0.2-0.2S54.2,36.7,54.1,36.7z" />
		<path class="st0" d="M54.1,37.9c-0.1,0-0.2,0.1-0.2,0.2s0.1,0.2,0.2,0.2s0.2-0.1,0.2-0.2S54.2,37.9,54.1,37.9z" />
		<path class="st0" d="M54.7,33.5c-0.1,0-0.2,0.1-0.2,0.2s0.1,0.2,0.2,0.2s0.2-0.1,0.2-0.2S54.8,33.5,54.7,33.5z" />
		<path class="st0" d="M55.9,33.5c-0.1,0-0.2,0.1-0.2,0.2s0.1,0.2,0.2,0.2s0.2-0.1,0.2-0.2S56.1,33.5,55.9,33.5z" />
		<path class="st0" d="M55.3,34.2c-0.1,0-0.2,0.1-0.2,0.2s0.1,0.2,0.2,0.2s0.2-0.1,0.2-0.2S55.4,34.2,55.3,34.2z" />
		<path class="st0" d="M54.7,34.8c-0.1,0-0.2,0.1-0.2,0.2s0.1,0.2,0.2,0.2s0.2-0.1,0.2-0.2S54.8,34.8,54.7,34.8z" />
		<path class="st0" d="M55.9,34.8c-0.1,0-0.2,0.1-0.2,0.2s0.1,0.2,0.2,0.2s0.2-0.1,0.2-0.2S56.1,34.8,55.9,34.8z" />
		<path class="st0" d="M55.3,35.4c-0.1,0-0.2,0.1-0.2,0.2s0.1,0.2,0.2,0.2s0.2-0.1,0.2-0.2S55.4,35.4,55.3,35.4z" />
		<path class="st0" d="M57.2,33.5c-0.1,0-0.2,0.1-0.2,0.2s0.1,0.2,0.2,0.2s0.2-0.1,0.2-0.2S57.3,33.5,57.2,33.5z" />
		<path class="st0" d="M58.4,33.5c-0.1,0-0.2,0.1-0.2,0.2s0.1,0.2,0.2,0.2s0.2-0.1,0.2-0.2S58.6,33.5,58.4,33.5z" />
		<path class="st0" d="M57.8,34.2c-0.1,0-0.2,0.1-0.2,0.2s0.1,0.2,0.2,0.2s0.2-0.1,0.2-0.2S57.9,34.2,57.8,34.2z" />
		<path class="st0" d="M57.2,34.8c-0.1,0-0.2,0.1-0.2,0.2s0.1,0.2,0.2,0.2s0.2-0.1,0.2-0.2S57.3,34.8,57.2,34.8z" />
		<path class="st0" d="M58.4,34.8c-0.1,0-0.2,0.1-0.2,0.2s0.1,0.2,0.2,0.2s0.2-0.1,0.2-0.2S58.6,34.8,58.4,34.8z" />
		<path class="st0" d="M57.8,35.4c-0.1,0-0.2,0.1-0.2,0.2s0.1,0.2,0.2,0.2s0.2-0.1,0.2-0.2S57.9,35.4,57.8,35.4z" />
		<path class="st0" d="M56.6,34.2c-0.1,0-0.2,0.1-0.2,0.2s0.1,0.2,0.2,0.2s0.2-0.1,0.2-0.2S56.7,34.2,56.6,34.2z" />
		<path class="st0" d="M56.6,35.4c-0.1,0-0.2,0.1-0.2,0.2s0.1,0.2,0.2,0.2s0.2-0.1,0.2-0.2S56.7,35.4,56.6,35.4z" />
		<path class="st0" d="M54.7,36c-0.1,0-0.2,0.1-0.2,0.2s0.1,0.2,0.2,0.2s0.2-0.1,0.2-0.2S54.8,36,54.7,36z" />
		<path class="st0" d="M55.9,36c-0.1,0-0.2,0.1-0.2,0.2s0.1,0.2,0.2,0.2s0.2-0.1,0.2-0.2S56.1,36,55.9,36z" />
		<path class="st0" d="M55.3,36.7c-0.1,0-0.2,0.1-0.2,0.2s0.1,0.2,0.2,0.2s0.2-0.1,0.2-0.2S55.4,36.7,55.3,36.7z" />
		<path class="st0" d="M54.7,37.3c-0.1,0-0.2,0.1-0.2,0.2s0.1,0.2,0.2,0.2s0.2-0.1,0.2-0.2S54.8,37.3,54.7,37.3z" />
		<path class="st0" d="M55.9,37.3c-0.1,0-0.2,0.1-0.2,0.2s0.1,0.2,0.2,0.2s0.2-0.1,0.2-0.2S56.1,37.3,55.9,37.3z" />
		<path class="st0" d="M55.3,37.9c-0.1,0-0.2,0.1-0.2,0.2s0.1,0.2,0.2,0.2s0.2-0.1,0.2-0.2S55.4,37.9,55.3,37.9z" />
		<path class="st0" d="M57.2,36c-0.1,0-0.2,0.1-0.2,0.2s0.1,0.2,0.2,0.2s0.2-0.1,0.2-0.2S57.3,36,57.2,36z" />
		<path class="st0" d="M58.4,36c-0.1,0-0.2,0.1-0.2,0.2s0.1,0.2,0.2,0.2s0.2-0.1,0.2-0.2S58.6,36,58.4,36z" />
		<path class="st0" d="M57.8,36.7c-0.1,0-0.2,0.1-0.2,0.2s0.1,0.2,0.2,0.2S58,37,58,36.9S57.9,36.7,57.8,36.7z" />
		<path class="st0" d="M57.2,37.3c-0.1,0-0.2,0.1-0.2,0.2s0.1,0.2,0.2,0.2s0.2-0.1,0.2-0.2S57.3,37.3,57.2,37.3z" />
		<path class="st0" d="M58.4,37.3c-0.1,0-0.2,0.1-0.2,0.2s0.1,0.2,0.2,0.2s0.2-0.1,0.2-0.2S58.6,37.3,58.4,37.3z" />
		<path class="st0" d="M57.8,37.9c-0.1,0-0.2,0.1-0.2,0.2s0.1,0.2,0.2,0.2s0.2-0.1,0.2-0.2S57.9,37.9,57.8,37.9z" />
		<path class="st0" d="M56.6,36.7c-0.1,0-0.2,0.1-0.2,0.2s0.1,0.2,0.2,0.2s0.2-0.1,0.2-0.2S56.7,36.7,56.6,36.7z" />
		<path class="st0" d="M56.6,37.9c-0.1,0-0.2,0.1-0.2,0.2s0.1,0.2,0.2,0.2s0.2-0.1,0.2-0.2S56.7,37.9,56.6,37.9z" />
		<path class="st0" d="M43.1,28.2c-0.1,0-0.2,0.1-0.2,0.2s0.1,0.2,0.2,0.2s0.2-0.1,0.2-0.2S43.2,28.2,43.1,28.2z" />
		<path class="st0" d="M44.4,28.2c-0.1,0-0.2,0.1-0.2,0.2s0.1,0.2,0.2,0.2s0.2-0.1,0.2-0.2S44.5,28.2,44.4,28.2z" />
		<path class="st0" d="M43.8,28.9c-0.1,0-0.2,0.1-0.2,0.2s0.1,0.2,0.2,0.2s0.2-0.1,0.2-0.2S43.9,28.9,43.8,28.9z" />
		<path class="st0" d="M43.1,29.5c-0.1,0-0.2,0.1-0.2,0.2s0.1,0.2,0.2,0.2s0.2-0.1,0.2-0.2S43.2,29.5,43.1,29.5z" />
		<path class="st0" d="M43.8,30.1c-0.1,0-0.2,0.1-0.2,0.2s0.1,0.2,0.2,0.2s0.2-0.1,0.2-0.2S43.9,30.1,43.8,30.1z" />
		<path class="st0" d="M42.5,28.9c-0.1,0-0.2,0.1-0.2,0.2s0.1,0.2,0.2,0.2s0.2-0.1,0.2-0.2S42.6,28.9,42.5,28.9z" />
		<path class="st0" d="M42.5,30.1c-0.1,0-0.2,0.1-0.2,0.2s0.1,0.2,0.2,0.2s0.2-0.1,0.2-0.2S42.6,30.1,42.5,30.1z" />
		<path class="st0" d="M43.1,30.7c-0.1,0-0.2,0.1-0.2,0.2s0.1,0.2,0.2,0.2s0.2-0.1,0.2-0.2S43.2,30.7,43.1,30.7z" />
		<path class="st0" d="M43.1,32c-0.1,0-0.2,0.1-0.2,0.2s0.1,0.2,0.2,0.2s0.2-0.1,0.2-0.2S43.2,32,43.1,32z" />
		<path class="st0" d="M42.5,31.4c-0.1,0-0.2,0.1-0.2,0.2s0.1,0.2,0.2,0.2s0.2-0.1,0.2-0.2S42.6,31.4,42.5,31.4z" />
		<path class="st0" d="M42.5,32.6c-0.1,0-0.2,0.1-0.2,0.2s0.1,0.2,0.2,0.2s0.2-0.1,0.2-0.2S42.6,32.6,42.5,32.6z" />
		<path class="st0" d="M43.1,33.2c-0.1,0-0.2,0.1-0.2,0.2s0.1,0.2,0.2,0.2s0.2-0.1,0.2-0.2S43.2,33.2,43.1,33.2z" />
		<path class="st0" d="M42.5,33.9c-0.1,0-0.2,0.1-0.2,0.2s0.1,0.2,0.2,0.2s0.2-0.1,0.2-0.2S42.6,33.9,42.5,33.9z" />
		<path class="st0" d="M42.5,35.1c-0.1,0-0.2,0.1-0.2,0.2s0.1,0.2,0.2,0.2s0.2-0.1,0.2-0.2S42.6,35.1,42.5,35.1z" />
		<path class="st0" d="M43.8,27.6c-0.1,0-0.2,0.1-0.2,0.2s0.1,0.2,0.2,0.2s0.2-0.1,0.2-0.2S43.9,27.6,43.8,27.6z" />
		<path class="st0" d="M42.5,27.6c-0.1,0-0.2,0.1-0.2,0.2s0.1,0.2,0.2,0.2s0.2-0.1,0.2-0.2S42.6,27.6,42.5,27.6z" />
		<path class="st0" d="M43.8,32.6c-0.1,0-0.2,0.1-0.2,0.2s0.1,0.2,0.2,0.2s0.2-0.1,0.2-0.2S43.9,32.6,43.8,32.6z" />
		<path class="st0" d="M43.8,33.9c-0.1,0-0.2,0.1-0.2,0.2s0.1,0.2,0.2,0.2s0.2-0.1,0.2-0.2S43.9,33.9,43.8,33.9z" />
		<path class="st0" d="M43.1,34.5c-0.1,0-0.2,0.1-0.2,0.2s0.1,0.2,0.2,0.2s0.2-0.1,0.2-0.2S43.2,34.5,43.1,34.5z" />
		<path class="st0" d="M44.4,33.2c-0.1,0-0.2,0.1-0.2,0.2s0.1,0.2,0.2,0.2s0.2-0.1,0.2-0.2S44.5,33.2,44.4,33.2z" />
		<path class="st0" d="M44.4,34.5c-0.1,0-0.2,0.1-0.2,0.2s0.1,0.2,0.2,0.2s0.2-0.1,0.2-0.2S44.5,34.5,44.4,34.5z" />
		<path class="st0" d="M43.8,35.1c-0.1,0-0.2,0.1-0.2,0.2s0.1,0.2,0.2,0.2s0.2-0.1,0.2-0.2S43.9,35.1,43.8,35.1z" />
		<path class="st0" d="M43.1,35.7c-0.1,0-0.2,0.1-0.2,0.2s0.1,0.2,0.2,0.2s0.2-0.1,0.2-0.2S43.2,35.7,43.1,35.7z" />
		<path class="st0" d="M42.5,36.4c-0.1,0-0.2,0.1-0.2,0.2s0.1,0.2,0.2,0.2s0.2-0.1,0.2-0.2S42.6,36.4,42.5,36.4z" />
		<path class="st0" d="M43.8,36.4c-0.1,0-0.2,0.1-0.2,0.2s0.1,0.2,0.2,0.2s0.2-0.1,0.2-0.2S43.9,36.4,43.8,36.4z" />
		<path class="st0" d="M43.1,37c-0.1,0-0.2,0.1-0.2,0.2s0.1,0.2,0.2,0.2s0.2-0.1,0.2-0.2S43.2,37,43.1,37z" />
		<path class="st0" d="M44.4,35.7c-0.1,0-0.2,0.1-0.2,0.2s0.1,0.2,0.2,0.2s0.2-0.1,0.2-0.2S44.5,35.7,44.4,35.7z" />
		<path class="st0" d="M44.4,37c-0.1,0-0.2,0.1-0.2,0.2s0.1,0.2,0.2,0.2s0.2-0.1,0.2-0.2S44.5,37,44.4,37z" />
		<path class="st0" d="M45,32.6c-0.1,0-0.2,0.1-0.2,0.2S44.9,33,45,33s0.2-0.1,0.2-0.2S45.1,32.6,45,32.6z" />
		<path class="st0" d="M46.3,32.6c-0.1,0-0.2,0.1-0.2,0.2s0.1,0.2,0.2,0.2s0.2-0.1,0.2-0.2S46.4,32.6,46.3,32.6z" />
		<path class="st0" d="M45.6,33.2c-0.1,0-0.2,0.1-0.2,0.2s0.1,0.2,0.2,0.2s0.2-0.1,0.2-0.2S45.7,33.2,45.6,33.2z" />
		<path class="st0" d="M45,33.9c-0.1,0-0.2,0.1-0.2,0.2s0.1,0.2,0.2,0.2s0.2-0.1,0.2-0.2S45.1,33.9,45,33.9z" />
		<path class="st0" d="M46.3,33.9c-0.1,0-0.2,0.1-0.2,0.2s0.1,0.2,0.2,0.2s0.2-0.1,0.2-0.2S46.4,33.9,46.3,33.9z" />
		<path class="st0" d="M45.6,34.5c-0.1,0-0.2,0.1-0.2,0.2s0.1,0.2,0.2,0.2s0.2-0.1,0.2-0.2S45.7,34.5,45.6,34.5z" />
		<path class="st0" d="M45,35.1c-0.1,0-0.2,0.1-0.2,0.2s0.1,0.2,0.2,0.2s0.2-0.1,0.2-0.2S45.1,35.1,45,35.1z" />
		<path class="st0" d="M46.3,35.1c-0.1,0-0.2,0.1-0.2,0.2s0.1,0.2,0.2,0.2s0.2-0.1,0.2-0.2S46.4,35.1,46.3,35.1z" />
		<path class="st0" d="M45.6,35.7c-0.1,0-0.2,0.1-0.2,0.2s0.1,0.2,0.2,0.2s0.2-0.1,0.2-0.2S45.7,35.7,45.6,35.7z" />
		<path class="st0" d="M45,36.4c-0.1,0-0.2,0.1-0.2,0.2s0.1,0.2,0.2,0.2s0.2-0.1,0.2-0.2S45.1,36.4,45,36.4z" />
		<path class="st0" d="M46.3,36.4c-0.1,0-0.2,0.1-0.2,0.2s0.1,0.2,0.2,0.2s0.2-0.1,0.2-0.2S46.4,36.4,46.3,36.4z" />
		<path class="st0" d="M45.6,37c-0.1,0-0.2,0.1-0.2,0.2s0.1,0.2,0.2,0.2s0.2-0.1,0.2-0.2S45.7,37,45.6,37z" />
		<path class="st0" d="M44.4,29.5c-0.1,0-0.2,0.1-0.2,0.2s0.1,0.2,0.2,0.2s0.2-0.1,0.2-0.2S44.5,29.5,44.4,29.5z" />
		<path class="st0" d="M43.8,31.4c-0.1,0-0.2,0.1-0.2,0.2s0.1,0.2,0.2,0.2s0.2-0.1,0.2-0.2S43.9,31.4,43.8,31.4z" />
		<path class="st0" d="M44.4,30.7c-0.1,0-0.2,0.1-0.2,0.2s0.1,0.2,0.2,0.2s0.2-0.1,0.2-0.2S44.5,30.7,44.4,30.7z" />
		<path class="st0" d="M44.4,32c-0.1,0-0.2,0.1-0.2,0.2s0.1,0.2,0.2,0.2s0.2-0.1,0.2-0.2S44.5,32,44.4,32z" />
		<path class="st0" d="M45,27.6c-0.1,0-0.2,0.1-0.2,0.2S44.9,28,45,28s0.2-0.1,0.2-0.2S45.1,27.6,45,27.6z" />
		<path class="st0" d="M46.3,27.6c-0.1,0-0.2,0.1-0.2,0.2s0.1,0.2,0.2,0.2s0.2-0.1,0.2-0.2S46.4,27.6,46.3,27.6z" />
		<path class="st0" d="M45.6,28.2c-0.1,0-0.2,0.1-0.2,0.2s0.1,0.2,0.2,0.2s0.2-0.1,0.2-0.2S45.7,28.2,45.6,28.2z" />
		<path class="st0" d="M45,28.9c-0.1,0-0.2,0.1-0.2,0.2s0.1,0.2,0.2,0.2s0.2-0.1,0.2-0.2S45.1,28.9,45,28.9z" />
		<path class="st0" d="M46.3,28.9c-0.1,0-0.2,0.1-0.2,0.2s0.1,0.2,0.2,0.2s0.2-0.1,0.2-0.2S46.4,28.9,46.3,28.9z" />
		<path class="st0" d="M45.6,29.5c-0.1,0-0.2,0.1-0.2,0.2s0.1,0.2,0.2,0.2s0.2-0.1,0.2-0.2S45.7,29.5,45.6,29.5z" />
		<path class="st0" d="M45,30.1c-0.1,0-0.2,0.1-0.2,0.2s0.1,0.2,0.2,0.2s0.2-0.1,0.2-0.2S45.1,30.1,45,30.1z" />
		<path class="st0" d="M46.3,30.1c-0.1,0-0.2,0.1-0.2,0.2s0.1,0.2,0.2,0.2s0.2-0.1,0.2-0.2S46.4,30.1,46.3,30.1z" />
		<path class="st0" d="M45.6,30.7c-0.1,0-0.2,0.1-0.2,0.2s0.1,0.2,0.2,0.2s0.2-0.1,0.2-0.2S45.7,30.7,45.6,30.7z" />
		<path class="st0" d="M45,31.4c-0.1,0-0.2,0.1-0.2,0.2s0.1,0.2,0.2,0.2s0.2-0.1,0.2-0.2S45.1,31.4,45,31.4z" />
		<path class="st0" d="M46.3,31.4c-0.1,0-0.2,0.1-0.2,0.2s0.1,0.2,0.2,0.2s0.2-0.1,0.2-0.2S46.4,31.4,46.3,31.4z" />
		<path class="st0" d="M45.6,32c-0.1,0-0.2,0.1-0.2,0.2s0.1,0.2,0.2,0.2s0.2-0.1,0.2-0.2S45.7,32,45.6,32z" />
	</g>
</svg>
